<?xml version="1.0" encoding="UTF-8"?><svg id="Ebene_2" xmlns="http://www.w3.org/2000/svg" viewBox="0 0 842.92 826.45"><defs><style>.cls-1{fill:#eab7b7;}.cls-2{fill:#fff;}.cls-3{fill:#a2f2d7;}</style></defs><g id="design_2"><g><path class="cls-3" d="m677.83,144.17c-68.87-68.87-160.43-106.8-257.83-106.8s-188.96,37.93-257.83,106.8c-68.87,68.87-106.8,160.43-106.8,257.83s37.93,188.96,106.8,257.83c68.87,68.87,160.43,106.8,257.83,106.8s188.96-37.93,257.83-106.8c68.87-68.87,106.8-160.43,106.8-257.83s-37.93-188.96-106.8-257.83ZM200.97,402c0-16.18.69-32.1,2-47.71,33.47-4.75,70.87-8.32,110.72-10.6-.88,19.11-1.34,38.59-1.34,58.31s.46,39.21,1.34,58.32c-39.84-2.28-77.24-5.86-110.72-10.6-1.31-15.61-2-31.53-2-47.71Zm-8.82,46.12c-8.72-1.34-17.15-2.76-25.25-4.26-74.39-13.79-100.89-30.66-100.89-41.86s26.5-28.07,100.89-41.86c8.1-1.5,16.54-2.92,25.25-4.26-1.2,15.18-1.81,30.57-1.81,46.12s.61,30.94,1.81,46.12ZM487.25,149.38c14.45,50.73,24.01,114.1,27.86,183.05-30.62-1.54-62.54-2.34-95.11-2.34s-64.49.8-95.11,2.34c3.85-68.96,13.41-132.33,27.86-183.05,18.35-64.43,42.86-101.38,67.25-101.38s48.9,36.95,67.26,101.38Zm-36.69-97.92c94.46,21.41,169.78,140.55,185.45,291.95-33.44-4.66-70.66-8.16-110.23-10.4-3.85-70.2-13.57-134.8-28.31-186.54-8.34-29.28-23.86-72.83-46.91-95.01Zm66.46,350.53c0,19.94-.47,39.61-1.37,58.9-30.76,1.57-62.87,2.38-95.66,2.38s-64.89-.81-95.66-2.38c-.9-19.28-1.37-38.96-1.37-58.9s.47-39.61,1.37-58.89c30.76-1.57,62.87-2.38,95.66-2.38s64.89.81,95.66,2.38c.9,19.28,1.37,38.96,1.37,58.89Zm-174.5-255.53c-14.74,51.74-24.45,116.34-28.31,186.54-39.57,2.24-76.79,5.75-110.23,10.4,15.67-151.4,90.99-270.54,185.45-291.95-23.06,22.18-38.57,65.72-46.91,95.01Zm-28.31,324.52c3.85,70.2,13.57,134.8,28.31,186.54,8.34,29.28,23.86,72.83,46.91,95.01-94.46-21.41-169.78-140.55-185.45-291.95,33.44,4.66,70.66,8.16,110.23,10.4Zm38.53,183.62c-14.45-50.73-24.01-114.1-27.86-183.05,30.62,1.54,62.54,2.34,95.11,2.34s64.49-.8,95.11-2.34c-3.85,68.96-13.41,132.33-27.86,183.05-18.35,64.43-42.87,101.38-67.26,101.38s-48.9-36.95-67.25-101.38Zm144.73,2.91c14.74-51.74,24.45-116.34,28.31-186.54,39.57-2.24,76.79-5.75,110.23-10.4-15.67,151.4-90.99,270.54-185.45,291.95,23.06-22.18,38.57-65.72,46.91-95.01Zm28.84-197.21c.88-19.11,1.34-38.59,1.34-58.31s-.46-39.21-1.34-58.31c39.84,2.28,77.24,5.86,110.72,10.6,1.31,15.61,2,31.53,2,47.71s-.69,32.1-2,47.71c-33.47,4.75-70.87,8.32-110.72,10.6Zm121.53-104.43c8.72,1.34,17.15,2.76,25.25,4.26,74.39,13.79,100.89,30.66,100.89,41.86s-26.5,28.07-100.89,41.86c-8.1,1.5-16.54,2.92-25.25,4.26,1.2-15.18,1.81-30.57,1.81-46.12s-.61-30.94-1.81-46.12Zm22.46-204.2c62.33,62.33,98.54,143.82,103.16,231.19-15.91-12.88-48.83-23.99-98.44-33.19-9.01-1.67-18.41-3.24-28.16-4.7-7.39-75.32-29.37-144.83-63.73-199.87-26.09-41.79-57.46-72.27-91.76-89.94,67.34,13.72,129.23,46.8,178.93,96.51Zm-500.63,0c49.71-49.71,111.6-82.79,178.93-96.51-34.3,17.67-65.67,48.15-91.76,89.94-34.37,55.04-56.34,124.55-63.73,199.87-9.75,1.47-19.16,3.03-28.16,4.7-49.61,9.19-82.52,20.31-98.44,33.19,4.62-87.37,40.83-168.86,103.16-231.19Zm0,500.63c-62.33-62.33-98.54-143.82-103.16-231.19,15.91,12.88,48.83,23.99,98.44,33.19,9.01,1.67,18.41,3.24,28.16,4.7,7.39,75.32,29.37,144.83,63.73,199.87,26.09,41.79,57.46,72.27,91.76,89.94-67.34-13.72-129.22-46.8-178.93-96.51Zm500.63,0c-49.71,49.71-111.6,82.79-178.93,96.51,34.3-17.67,65.67-48.15,91.76-89.94,34.37-55.04,56.34-124.55,63.73-199.87,9.75-1.47,19.16-3.04,28.16-4.7,49.61-9.19,82.52-20.31,98.44-33.19-4.62,87.37-40.83,168.86-103.16,231.19Z"/><g><rect class="cls-2" x="5" y="5" width="341" height="214" rx="29.09" ry="29.09"/><path class="cls-1" d="m316.91,224H34.09c-18.8,0-34.09-15.29-34.09-34.09V34.09C0,15.29,15.29,0,34.09,0h282.81c18.8,0,34.09,15.29,34.09,34.09v155.81c0,18.8-15.29,34.09-34.09,34.09ZM34.09,10c-13.28,0-24.09,10.81-24.09,24.09v155.81c0,13.28,10.81,24.09,24.09,24.09h282.81c13.28,0,24.09-10.81,24.09-24.09V34.09c0-13.28-10.81-24.09-24.09-24.09H34.09Z"/><path class="cls-1" d="m177.27,122.86c-8.46,0-16.91-1.59-24.83-4.79L25.13,66.64l3.75-9.27,127.31,51.43c13.83,5.59,29.61,5.41,43.32-.47l118.53-50.92,3.95,9.19-118.53,50.92c-8.29,3.56-17.24,5.35-26.18,5.35Z"/></g><g><path class="cls-2" d="m802.32,557.74h-212.8c-19.66,0-35.6,15.94-35.6,35.6v142.8c0,19.66,15.94,35.6,35.6,35.6h17.4v44.94c0,4.02,4.67,6.23,7.78,3.68l59.34-48.62h128.28c19.66,0,35.6-15.94,35.6-35.6v-142.8c0-19.66-15.94-35.6-35.6-35.6Z"/><path class="cls-1" d="m611.71,826.45c-1.42,0-2.85-.31-4.2-.95-3.45-1.63-5.59-5.01-5.59-8.82v-39.94h-12.4c-22.39,0-40.6-18.21-40.6-40.6v-142.8c0-22.39,18.21-40.6,40.6-40.6h212.8c22.39,0,40.6,18.21,40.6,40.6v142.8c0,22.39-18.21,40.6-40.6,40.6h-126.49l-57.95,47.49c-1.79,1.47-3.97,2.23-6.17,2.23Zm-22.18-263.72c-16.87,0-30.6,13.73-30.6,30.6v142.8c0,16.87,13.73,30.6,30.6,30.6h22.4v49.44l60.33-49.44h130.07c16.87,0,30.6-13.73,30.6-30.6v-142.8c0-16.87-13.73-30.6-30.6-30.6h-212.8Z"/><circle class="cls-1" cx="631.5" cy="703.5" r="14.5"/><circle class="cls-1" cx="677.29" cy="703.5" r="14.5"/><circle class="cls-1" cx="723.08" cy="703.5" r="14.5"/></g></g></g></svg>