<?xml version="1.0" encoding="UTF-8"?><svg id="Ebene_2" xmlns="http://www.w3.org/2000/svg" xmlns:xlink="http://www.w3.org/1999/xlink" viewBox="0 0 1000.02 1000.43"><defs><style>.cls-1{fill:url(#Unbenannter_Verlauf_119-2);}.cls-2{fill:url(#Unbenannter_Verlauf_119-6);}.cls-3{fill:url(#Unbenannter_Verlauf_119-4);}.cls-4{fill:url(#Unbenannter_Verlauf_119-5);}.cls-5{fill:url(#Unbenannter_Verlauf_119-3);}.cls-6{fill:url(#Unbenannter_Verlauf_102-3);}.cls-7{fill:url(#Unbenannter_Verlauf_102-2);}.cls-8{fill:url(#Unbenannter_Verlauf_109-2);}.cls-9{fill:url(#Unbenannter_Verlauf_244-2);}.cls-10{fill:url(#Unbenannter_Verlauf_244-3);}.cls-11{fill:url(#Unbenannter_Verlauf_14-4);}.cls-12{fill:url(#Unbenannter_Verlauf_14-2);}.cls-13{fill:url(#Unbenannter_Verlauf_14-3);}.cls-14{fill:url(#Unbenannter_Verlauf_14-5);}.cls-15{fill:url(#Unbenannter_Verlauf_14-6);}.cls-16{fill:url(#Unbenannter_Verlauf_47-2);}.cls-17{fill:url(#Unbenannter_Verlauf_47-3);}.cls-18{fill:url(#Unbenannter_Verlauf_47-4);}.cls-19{fill:url(#Unbenannter_Verlauf_88-2);}.cls-20{fill:url(#Unbenannter_Verlauf_98-2);}.cls-21{fill:url(#Unbenannter_Verlauf_70);opacity:.75;}.cls-22{fill:#fff;}.cls-23{fill:#7c7a8e;}.cls-24{fill:#9c99ad;}.cls-25{fill:#b4b0c1;}.cls-26{fill:#d1ccdd;}.cls-27{fill:#1b1532;}.cls-28{fill:url(#Unbenannter_Verlauf_209);}.cls-29{fill:url(#Unbenannter_Verlauf_213);}.cls-30{fill:url(#Unbenannter_Verlauf_273);}.cls-31{fill:url(#Unbenannter_Verlauf_283);}.cls-32{fill:url(#Unbenannter_Verlauf_285);}.cls-33{fill:url(#Unbenannter_Verlauf_295);}.cls-34{fill:url(#Unbenannter_Verlauf_244);}.cls-35{fill:url(#Unbenannter_Verlauf_259);}.cls-36{fill:url(#Unbenannter_Verlauf_171);}.cls-37{fill:url(#Unbenannter_Verlauf_179);}.cls-38{fill:url(#Unbenannter_Verlauf_119);}.cls-39{fill:url(#Unbenannter_Verlauf_182);}.cls-40{fill:url(#Unbenannter_Verlauf_102);}.cls-41{fill:url(#Unbenannter_Verlauf_109);}.cls-42{fill:url(#Unbenannter_Verlauf_98);}.cls-43{fill:url(#Unbenannter_Verlauf_66);}.cls-44{fill:url(#Unbenannter_Verlauf_58);}.cls-45{fill:url(#Unbenannter_Verlauf_88);}.cls-46{fill:url(#Unbenannter_Verlauf_14);}.cls-47{fill:url(#Unbenannter_Verlauf_10);}.cls-48{fill:url(#Unbenannter_Verlauf_47);}</style><radialGradient id="Unbenannter_Verlauf_295" cx="257.45" cy="4118.49" fx="257.45" fy="4118.49" r="1400.42" gradientTransform="translate(0 -3894.25) scale(1 1.43)" gradientUnits="userSpaceOnUse"><stop offset=".84" stop-color="#221d43"/><stop offset=".88" stop-color="#211c41" stop-opacity=".94"/><stop offset=".92" stop-color="#201b3e" stop-opacity=".76"/><stop offset=".96" stop-color="#1e1839" stop-opacity=".45"/><stop offset="1" stop-color="#1b1532" stop-opacity=".03"/><stop offset="1" stop-color="#1b1532" stop-opacity="0"/></radialGradient><radialGradient id="Unbenannter_Verlauf_10" cx="199.55" cy="4914.85" fx="199.55" fy="4914.85" r="1359.71" gradientTransform="translate(0 -5378.04) scale(1 1.59)" gradientUnits="userSpaceOnUse"><stop offset=".77" stop-color="#584b9a"/><stop offset=".81" stop-color="#564997" stop-opacity=".97"/><stop offset=".84" stop-color="#524690" stop-opacity=".89"/><stop offset=".88" stop-color="#4b3f84" stop-opacity=".76"/><stop offset=".92" stop-color="#413774" stop-opacity=".57"/><stop offset=".96" stop-color="#342b5f" stop-opacity=".34"/><stop offset=".99" stop-color="#241e46" stop-opacity=".05"/><stop offset="1" stop-color="#221c42" stop-opacity="0"/></radialGradient><radialGradient id="Unbenannter_Verlauf_14" cx="738.85" cy="110.37" fx="738.85" fy="110.37" r="29.83" gradientUnits="userSpaceOnUse"><stop offset="0" stop-color="#fcea10"/><stop offset="0" stop-color="#fff" stop-opacity=".94"/><stop offset="1" stop-color="#fff" stop-opacity="0"/></radialGradient><radialGradient id="Unbenannter_Verlauf_14-2" cx="578.9" cy="458.73" fx="578.9" fy="458.73" xlink:href="#Unbenannter_Verlauf_14"/><radialGradient id="Unbenannter_Verlauf_14-3" cx="77.24" cy="544.75" fx="77.24" fy="544.75" r="18.44" xlink:href="#Unbenannter_Verlauf_14"/><radialGradient id="Unbenannter_Verlauf_14-4" cx="555.85" cy="178.21" fx="555.85" fy="178.21" r="18.44" xlink:href="#Unbenannter_Verlauf_14"/><radialGradient id="Unbenannter_Verlauf_14-5" cx="875.72" cy="510.82" fx="875.72" fy="510.82" r="18.44" xlink:href="#Unbenannter_Verlauf_14"/><radialGradient id="Unbenannter_Verlauf_14-6" cx="175.71" cy="252.41" fx="175.71" fy="252.41" r="37.83" xlink:href="#Unbenannter_Verlauf_14"/><radialGradient id="Unbenannter_Verlauf_171" cx="496.91" cy="919.66" fx="496.91" fy="919.66" r="645.52" gradientTransform="translate(0 643.77) scale(1 .3)" gradientUnits="userSpaceOnUse"><stop offset=".76" stop-color="#123946"/><stop offset="1" stop-color="#275059"/><stop offset="1" stop-color="#435c63"/></radialGradient><radialGradient id="Unbenannter_Verlauf_70" cx="475.83" cy="1502.24" fx="475.83" fy="1502.24" r="618.95" gradientTransform="translate(0 589.46) scale(1 .21)" gradientUnits="userSpaceOnUse"><stop offset=".59" stop-color="#0a2c35"/><stop offset=".73" stop-color="#0a2c35" stop-opacity=".94"/><stop offset=".84" stop-color="#0a2d37" stop-opacity=".75"/><stop offset=".94" stop-color="#0c3039" stop-opacity=".43"/><stop offset="1" stop-color="#0d323c" stop-opacity=".14"/><stop offset="1" stop-color="#123946" stop-opacity="0"/></radialGradient><radialGradient id="Unbenannter_Verlauf_66" cx="455.41" cy="-828.43" fx="455.41" fy="-828.43" r="771.83" gradientTransform="translate(0 1125.44) scale(1 .16)" gradientUnits="userSpaceOnUse"><stop offset="0" stop-color="#03262f"/><stop offset=".52" stop-color="#03262f" stop-opacity=".96"/><stop offset=".71" stop-color="#042730" stop-opacity=".82"/><stop offset=".85" stop-color="#062831" stop-opacity=".56"/><stop offset=".95" stop-color="#082a33" stop-opacity=".21"/><stop offset="1" stop-color="#0a2c35" stop-opacity="0"/></radialGradient><linearGradient id="Unbenannter_Verlauf_47" x1="121.05" y1="705.26" x2="572.09" y2="705.26" gradientUnits="userSpaceOnUse"><stop offset=".1" stop-color="#d1ccdd"/><stop offset=".13" stop-color="#c1bcce"/><stop offset=".17" stop-color="#b0acbf"/><stop offset=".22" stop-color="#a4a1b4"/><stop offset=".3" stop-color="#9d9aae"/><stop offset=".5" stop-color="#9c99ad"/><stop offset=".7" stop-color="#9d9aae"/><stop offset=".78" stop-color="#a4a1b4"/><stop offset=".83" stop-color="#b0acbf"/><stop offset=".87" stop-color="#c1bcce"/><stop offset=".9" stop-color="#d1ccdd"/></linearGradient><linearGradient id="Unbenannter_Verlauf_102" x1="87.29" y1="734.28" x2="618.04" y2="734.28" gradientUnits="userSpaceOnUse"><stop offset="0" stop-color="#d1ccdd"/><stop offset=".04" stop-color="#b7b2c4"/><stop offset=".08" stop-color="#a19eb0"/><stop offset=".12" stop-color="#908da1"/><stop offset=".18" stop-color="#848296"/><stop offset=".27" stop-color="#7d7b8f"/><stop offset=".5" stop-color="#7c7a8e"/><stop offset=".73" stop-color="#7d7b8f"/><stop offset=".82" stop-color="#848296"/><stop offset=".88" stop-color="#908da1"/><stop offset=".92" stop-color="#a19eb0"/><stop offset=".96" stop-color="#b7b2c4"/><stop offset="1" stop-color="#d1ccdd"/></linearGradient><linearGradient id="Unbenannter_Verlauf_47-2" x1="133.85" y1="649.38" x2="581.9" y2="649.38" xlink:href="#Unbenannter_Verlauf_47"/><radialGradient id="Unbenannter_Verlauf_119" cx="454.87" cy="639.34" fx="454.87" fy="639.34" r="21.68" gradientUnits="userSpaceOnUse"><stop offset="0" stop-color="#fff"/><stop offset=".22" stop-color="#fefefb"/><stop offset=".43" stop-color="#fefbef"/><stop offset=".64" stop-color="#fdf6db"/><stop offset=".85" stop-color="#fcefbf"/><stop offset="1" stop-color="#fbeaa7"/></radialGradient><radialGradient id="Unbenannter_Verlauf_119-2" cx="511.67" fx="511.67" r="18.92" xlink:href="#Unbenannter_Verlauf_119"/><radialGradient id="Unbenannter_Verlauf_119-3" cx="554.54" fx="554.54" r="19.94" gradientTransform="translate(234.87 1193.88) rotate(-90) scale(1 .5)" xlink:href="#Unbenannter_Verlauf_119"/><radialGradient id="Unbenannter_Verlauf_119-4" cx="284.7" cy="641.23" fx="284.7" fy="641.23" r="9.4" xlink:href="#Unbenannter_Verlauf_119"/><radialGradient id="Unbenannter_Verlauf_119-5" cx="149.64" cy="641.23" fx="149.64" fy="641.23" r="9.32" gradientTransform="translate(-170.97 790.87) rotate(-90) scale(1 .5)" xlink:href="#Unbenannter_Verlauf_119"/><radialGradient id="Unbenannter_Verlauf_119-6" cx="322.58" cy="641.23" fx="322.58" fy="641.23" r="9.4" xlink:href="#Unbenannter_Verlauf_119"/><linearGradient id="Unbenannter_Verlauf_88" x1="543.61" y1="355.6" x2="512.08" y2="321.27" gradientUnits="userSpaceOnUse"><stop offset="0" stop-color="#d1ccdd"/><stop offset=".05" stop-color="#c4bfd0"/><stop offset=".13" stop-color="#b8b4c5"/><stop offset=".2" stop-color="#b4b0c1"/><stop offset=".5" stop-color="#9c99ad"/><stop offset=".8" stop-color="#b4b0c1"/><stop offset=".87" stop-color="#b8b4c5"/><stop offset=".95" stop-color="#c4bfd0"/><stop offset="1" stop-color="#d1ccdd"/></linearGradient><linearGradient id="Unbenannter_Verlauf_88-2" x1="573.7" y1="335.39" x2="535.45" y2="293.75" xlink:href="#Unbenannter_Verlauf_88"/><linearGradient id="Unbenannter_Verlauf_98" x1="555.68" y1="350.05" x2="517.61" y2="308.6" gradientUnits="userSpaceOnUse"><stop offset="0" stop-color="#d1ccdd"/><stop offset=".02" stop-color="#beb9cb"/><stop offset=".07" stop-color="#a19eb0"/><stop offset=".11" stop-color="#8c8a9d"/><stop offset=".16" stop-color="#807e91"/><stop offset=".2" stop-color="#7c7a8e"/><stop offset=".5" stop-color="#7c7a8e"/><stop offset=".8" stop-color="#7c7a8e"/><stop offset=".84" stop-color="#807e91"/><stop offset=".89" stop-color="#8c8a9d"/><stop offset=".93" stop-color="#a19eb0"/><stop offset=".98" stop-color="#beb9cb"/><stop offset="1" stop-color="#d1ccdd"/></linearGradient><linearGradient id="Unbenannter_Verlauf_98-2" x1="605.69" y1="312.43" x2="555.8" y2="258.12" xlink:href="#Unbenannter_Verlauf_98"/><radialGradient id="Unbenannter_Verlauf_58" cx="352.68" cy="516.62" fx="352.68" fy="516.62" r="246.82" gradientUnits="userSpaceOnUse"><stop offset=".95" stop-color="#b4b0c1"/><stop offset="1" stop-color="#d1ccdd"/></radialGradient><radialGradient id="Unbenannter_Verlauf_285" cx="358.85" cy="507.59" fx="358.85" fy="507.59" r="214.49" gradientUnits="userSpaceOnUse"><stop offset="0" stop-color="#d1ccdd"/><stop offset="0" stop-color="#c1bcce"/><stop offset=".02" stop-color="#b0acbf"/><stop offset=".03" stop-color="#a4a1b4"/><stop offset=".05" stop-color="#9d9aae"/><stop offset=".1" stop-color="#9c99ad"/><stop offset=".9" stop-color="#9c99ad"/><stop offset=".93" stop-color="#a09db1"/><stop offset=".96" stop-color="#aeabbe"/><stop offset=".99" stop-color="#c6c1d3"/><stop offset="1" stop-color="#d1ccdd"/></radialGradient><radialGradient id="Unbenannter_Verlauf_283" cx="357.67" cy="542.95" fx="357.67" fy="542.95" r="251.01" gradientTransform="translate(-22.39 900.62) rotate(-90) scale(1 .7)" gradientUnits="userSpaceOnUse"><stop offset=".44" stop-color="#9d99ae"/><stop offset=".57" stop-color="#9c99ad" stop-opacity=".98"/><stop offset=".66" stop-color="#9c99ad" stop-opacity=".93"/><stop offset=".73" stop-color="#9c99ad" stop-opacity=".85"/><stop offset=".8" stop-color="#9c99ad" stop-opacity=".73"/><stop offset=".86" stop-color="#9c99ad" stop-opacity=".57"/><stop offset=".91" stop-color="#9c99ad" stop-opacity=".38"/><stop offset=".97" stop-color="#9c99ad" stop-opacity=".16"/><stop offset="1" stop-color="#9c99ad" stop-opacity="0"/></radialGradient><radialGradient id="Unbenannter_Verlauf_182" cx="358.18" cy="553.21" fx="358.18" fy="553.21" r="261.27" gradientTransform="translate(81.58 911.39) rotate(-90) scale(1 .5)" gradientUnits="userSpaceOnUse"><stop offset=".49" stop-color="#b5b0c1"/><stop offset=".57" stop-color="#b4afc0" stop-opacity=".98"/><stop offset=".65" stop-color="#b3aebf" stop-opacity=".92"/><stop offset=".72" stop-color="#b0acbd" stop-opacity=".83"/><stop offset=".79" stop-color="#ada8bb" stop-opacity=".69"/><stop offset=".85" stop-color="#a9a4b7" stop-opacity=".52"/><stop offset=".92" stop-color="#a4a0b3" stop-opacity=".31"/><stop offset=".99" stop-color="#9e9aaf" stop-opacity=".06"/><stop offset="1" stop-color="#9d99ae" stop-opacity="0"/></radialGradient><radialGradient id="Unbenannter_Verlauf_179" cx="357.49" cy="552.87" fx="357.49" fy="552.87" r="263.9" gradientTransform="translate(191.62 910.35) rotate(-90) scale(1 .3)" gradientUnits="userSpaceOnUse"><stop offset=".4" stop-color="#d1cbdd"/><stop offset=".46" stop-color="#cfc9db" stop-opacity=".95"/><stop offset=".55" stop-color="#ccc6d8" stop-opacity=".83"/><stop offset=".68" stop-color="#c6c0d2" stop-opacity=".63"/><stop offset=".83" stop-color="#beb9ca" stop-opacity=".35"/><stop offset="1" stop-color="#b5b0c1" stop-opacity="0"/></radialGradient><linearGradient id="Unbenannter_Verlauf_102-2" x1="133.85" y1="595.55" x2="581.9" y2="595.55" xlink:href="#Unbenannter_Verlauf_102"/><linearGradient id="Unbenannter_Verlauf_109" x1="87.29" y1="759.67" x2="618.04" y2="759.67" gradientUnits="userSpaceOnUse"><stop offset="0" stop-color="#696777"/><stop offset=".01" stop-color="#6b6979"/><stop offset=".09" stop-color="#747285"/><stop offset=".2" stop-color="#7a788c"/><stop offset=".5" stop-color="#7c7a8e"/><stop offset=".8" stop-color="#7a788c"/><stop offset=".91" stop-color="#747285"/><stop offset=".99" stop-color="#6b6979"/><stop offset="1" stop-color="#696777"/></linearGradient><linearGradient id="Unbenannter_Verlauf_47-3" x1="815.07" y1="695.58" x2="846.39" y2="695.58" xlink:href="#Unbenannter_Verlauf_47"/><radialGradient id="Unbenannter_Verlauf_259" cx="830.73" cy="669.9" fx="830.73" fy="669.9" r="19.05" gradientUnits="userSpaceOnUse"><stop offset="0" stop-color="#9c99ad"/><stop offset=".51" stop-color="#9c99ad"/><stop offset=".64" stop-color="#a09db1"/><stop offset=".78" stop-color="#aeaabd"/><stop offset=".94" stop-color="#c5c1d2"/><stop offset="1" stop-color="#d1ccdd"/></radialGradient><linearGradient id="Unbenannter_Verlauf_47-4" x1="802.08" y1="727.83" x2="859.38" y2="727.83" xlink:href="#Unbenannter_Verlauf_47"/><linearGradient id="Unbenannter_Verlauf_102-3" x1="752.68" y1="746.3" x2="908.78" y2="746.3" xlink:href="#Unbenannter_Verlauf_102"/><linearGradient id="Unbenannter_Verlauf_109-2" x1="752.68" y1="761.71" x2="908.78" y2="761.71" xlink:href="#Unbenannter_Verlauf_109"/><radialGradient id="Unbenannter_Verlauf_273" cx="791.98" cy="587.45" fx="791.98" fy="587.45" r="173.6" gradientTransform="translate(-2.07 469.53) rotate(.14) scale(1 .2)" gradientUnits="userSpaceOnUse"><stop offset=".78" stop-color="#d1ccdd"/><stop offset=".87" stop-color="#e1dee9"/><stop offset="1" stop-color="#fff"/></radialGradient><radialGradient id="Unbenannter_Verlauf_209" cx="19597.84" cy="604.19" fx="19597.84" fy="604.19" r="159.44" gradientTransform="translate(17924.12 -8921.06) rotate(151.27) scale(1 -.2)" gradientUnits="userSpaceOnUse"><stop offset="0" stop-color="#9c99ad"/><stop offset=".2" stop-color="#9c99ad" stop-opacity=".98"/><stop offset=".35" stop-color="#9f9cb0" stop-opacity=".93"/><stop offset=".49" stop-color="#a4a1b5" stop-opacity=".83"/><stop offset=".62" stop-color="#aca8bb" stop-opacity=".7"/><stop offset=".74" stop-color="#b5b0c3" stop-opacity=".52"/><stop offset=".86" stop-color="#c0bbce" stop-opacity=".31"/><stop offset=".97" stop-color="#cdc7d9" stop-opacity=".06"/><stop offset="1" stop-color="#d1cbdd" stop-opacity="0"/></radialGradient><radialGradient id="Unbenannter_Verlauf_213" cx="19581.28" cy="620.17" fx="19581.28" fy="620.17" r="140.11" gradientTransform="translate(18207.45 -8372.77) rotate(153.02) scale(1 -.2)" gradientUnits="userSpaceOnUse"><stop offset="0" stop-color="#7c7a8e"/><stop offset=".17" stop-color="#7c7a8e" stop-opacity=".97"/><stop offset=".34" stop-color="#7f7d91" stop-opacity=".89"/><stop offset=".51" stop-color="#838195" stop-opacity=".75"/><stop offset=".67" stop-color="#8a879b" stop-opacity=".56"/><stop offset=".83" stop-color="#928fa3" stop-opacity=".31"/><stop offset=".99" stop-color="#9b98ac" stop-opacity=".01"/><stop offset="1" stop-color="#9c99ad" stop-opacity="0"/></radialGradient><radialGradient id="Unbenannter_Verlauf_244" cx="924.91" cy="514.77" fx="924.91" fy="514.77" r=".13" gradientUnits="userSpaceOnUse"><stop offset=".53" stop-color="#7c7a8e"/><stop offset=".71" stop-color="#848296"/><stop offset="1" stop-color="#9c99ad"/></radialGradient><radialGradient id="Unbenannter_Verlauf_244-2" cx="789.94" cy="603.16" fx="789.94" fy="603.16" r="113.49" xlink:href="#Unbenannter_Verlauf_244"/><radialGradient id="Unbenannter_Verlauf_244-3" cx="653.52" cy="657.62" fx="653.52" fy="657.62" r=".48" xlink:href="#Unbenannter_Verlauf_244"/></defs><g id="design_1"><g><g><rect class="cls-27" x="0" y=".43" width="1000" height="1000"/><path class="cls-33" d="M1000.01,301.98C811.24,116.39,539.79,0,238.11,0,156.16,0,76.44,8.59,0,24.82V1000.43H1000.01V301.98Z"/><path class="cls-47" d="M1000.02,711.8c-188.04-255.05-490.23-420.46-830.98-420.46-57.57,0-114.04,4.72-169.04,13.8V1000.43H1000.01v-288.64Z"/><path class="cls-22" d="M601.94,458.73l-7.43,2.09c-6.56,1.84-11.68,6.97-13.53,13.53l-2.09,7.43-2.1-7.44c-1.85-6.55-6.96-11.67-13.51-13.51l-7.44-2.1,7.43-2.09c6.56-1.84,11.68-6.97,13.53-13.53l2.09-7.43,2.1,7.44c1.85,6.55,6.96,11.67,13.51,13.51l7.44,2.1Z"/><path class="cls-22" d="M761.89,110.37l-7.43,2.09c-6.56,1.84-11.68,6.97-13.53,13.53l-2.09,7.43-2.1-7.44c-1.85-6.55-6.96-11.67-13.51-13.51l-7.44-2.1,7.43-2.09c6.56-1.84,11.68-6.97,13.53-13.53l2.09-7.43,2.1,7.44c1.85,6.55,6.96,11.67,13.51,13.51l7.44,2.1Z"/><path class="cls-22" d="M93.23,544.75l-5.15,1.45c-4.55,1.28-8.11,4.84-9.39,9.39l-1.45,5.15-1.46-5.16c-1.28-4.54-4.83-8.09-9.37-9.37l-5.16-1.46,5.15-1.45c4.55-1.28,8.11-4.84,9.39-9.39l1.45-5.15,1.46,5.16c1.28,4.54,4.83,8.09,9.37,9.37l5.16,1.46Z"/><path class="cls-22" d="M891.7,510.82l-5.15,1.45c-4.55,1.28-8.11,4.84-9.39,9.39l-1.45,5.15-1.46-5.16c-1.28-4.54-4.83-8.09-9.37-9.37l-5.16-1.46,5.15-1.45c4.55-1.28,8.11-4.84,9.39-9.39l1.45-5.15,1.46,5.16c1.28,4.54,4.83,8.09,9.37,9.37l5.16,1.46Z"/><path class="cls-22" d="M571.84,178.21l-5.15,1.45c-4.55,1.28-8.11,4.84-9.39,9.39l-1.45,5.15-1.46-5.16c-1.28-4.54-4.83-8.09-9.37-9.37l-5.16-1.46,5.15-1.45c4.55-1.28,8.11-4.84,9.39-9.39l1.45-5.15,1.46,5.16c1.28,4.54,4.83,8.09,9.37,9.37l5.16,1.46Z"/><path class="cls-22" d="M207.89,252.41l-10.37,2.92c-9.16,2.58-16.32,9.73-18.89,18.89l-2.92,10.37-2.93-10.38c-2.58-9.14-9.72-16.29-18.87-18.87l-10.38-2.93,10.37-2.92c9.16-2.58,16.32-9.73,18.89-18.89l2.92-10.37,2.93,10.38c2.58,9.14,9.72,16.29,18.87,18.87l10.38,2.93Z"/><circle class="cls-22" cx="97.1" cy="590.76" r="3.87"/><circle class="cls-22" cx="89.36" cy="256.28" r="3.87"/><circle class="cls-22" cx="263.24" cy="194.19" r="3.87"/><circle class="cls-22" cx="175.71" cy="357.41" r="3.87"/><circle class="cls-22" cx="419.68" cy="87.32" r="3.87"/><circle class="cls-22" cx="652.46" cy="106.5" r="3.87"/><circle class="cls-22" cx="634.6" cy="67.91" r="3.87"/><circle class="cls-22" cx="798.11" cy="252.41" r="3.87"/><circle class="cls-22" cx="931.53" cy="339.53" r="3.87"/><circle class="cls-22" cx="761.89" cy="485.64" r="3.87"/><circle class="cls-22" cx="903.62" cy="654.56" r="3.87"/><circle class="cls-46" cx="738.85" cy="110.37" r="29.83"/><circle class="cls-12" cx="578.9" cy="458.73" r="29.83"/><circle class="cls-13" cx="77.24" cy="544.75" r="18.44"/><circle class="cls-11" cx="555.85" cy="178.21" r="18.44"/><circle class="cls-14" cx="875.72" cy="510.82" r="18.44"/><circle class="cls-15" cx="175.71" cy="252.41" r="37.83"/><circle class="cls-22" cx="630.73" cy="318.47" r="3.87"/></g><g><g><path class="cls-36" d="M999.9,783.38c-135.35-36.97-329.43-60.14-545.03-60.14-171.47,0-329.33,14.65-454.86,39.25v237.94H999.9v-217.05Z"/><path class="cls-21" d="M999.9,813.49c-135.35-31.84-329.43-51.8-545.03-51.8-171.47,0-329.33,12.62-454.86,33.81v204.93H999.9v-186.94Z"/></g><path class="cls-43" d="M999.9,897.31c-135.35-17.57-329.43-28.57-545.03-28.57-171.47,0-329.33,6.96-454.86,18.65v113.04H999.9v-103.12Z"/></g><g><polygon class="cls-48" points="121.05 723.2 572.09 723.2 572.09 687.31 149.88 687.31 149.88 710.77 121.05 710.77 121.05 723.2"/><polygon class="cls-40" points="121.05 723.2 87.29 745.35 618.04 745.35 584.34 723.25 121.05 723.2"/><polygon class="cls-23" points="572.09 687.31 572.09 679.8 121.05 679.8 121.05 683.56 149.88 683.56 149.88 687.31 572.09 687.31"/><polygon class="cls-16" points="133.85 666.35 133.85 679.8 581.9 679.8 581.9 666.35 572.09 666.35 572.09 618.97 143.13 618.97 143.13 666.34 133.85 666.35"/><rect class="cls-38" x="431.86" y="624.67" width="46.02" height="29.35"/><rect class="cls-1" x="494.33" y="624.67" width="34.68" height="29.35"/><rect class="cls-5" x="545.25" y="624.67" width="18.59" height="29.35"/><circle class="cls-3" cx="284.7" cy="641.23" r="9.4"/><circle class="cls-23" cx="244.79" cy="641.23" r="9.4"/><ellipse class="cls-23" cx="206.13" cy="641.23" rx="7.7" ry="9.4"/><ellipse class="cls-23" cx="173.58" cy="641.23" rx="5.91" ry="9.4"/><ellipse class="cls-4" cx="149.64" cy="641.23" rx="4.78" ry="9.4"/><circle class="cls-2" cx="322.58" cy="641.23" r="9.4"/><rect class="cls-23" x="143.13" y="612.01" width="428.96" height="6.96"/><polygon class="cls-45" points="538.56 359.85 548.47 351.13 515.84 317.81 507.98 326.02 538.56 359.85"/><path class="cls-19" d="M597.88,315.62l-42.71,34.29c-2.81,2.26-6.89,2.01-9.4-.58l-28.46-29.25c-2.48-2.55-2.66-6.54-.42-9.3l34.52-42.49,46.48,47.33Z"/><path class="cls-42" d="M521.74,304.81l39.83,39.83-6.4,5.21c-2.81,2.29-6.9,2.05-9.43-.55l-28.44-29.22c-2.48-2.55-2.66-6.54-.42-9.3l4.86-5.98Z"/><path class="cls-26" d="M565.73,259.21c22.07,1.12,39.85,18.45,41.71,40.32l-41.71-40.32Z"/><path class="cls-20" d="M609.31,309.1l-6.35,5.19c-2,1.64-4.92,1.48-6.73-.36l-43.85-44.45c-1.81-1.84-1.93-4.76-.27-6.74l4.3-5.12c1.87-2.23,5.23-2.4,7.32-.38l45.9,44.38c2.16,2.08,2.01,5.58-.31,7.48Z"/><path class="cls-44" d="M565.07,588.98c4.46-17.58,4.65-52.85,4.65-71.17,0-58.62-22.83-113.73-64.28-155.17s-96.56-64.28-155.17-64.28c-10.03,0-20.08,.68-29.98,2.03-4.61,.63-8.88-2.53-9.69-7.11l-2.18-12.43c-.86-4.88,2.53-9.45,7.44-10.13,11.36-1.57,22.89-2.36,34.41-2.36,66.63,0,129.27,25.95,176.39,73.06,44.64,44.64,70.27,103.21,72.85,165.91,.27,6.62-1.6,13.16-5.32,18.64l-29.12,63.01Z"/><path class="cls-32" d="M572.16,506.36v69.24H143.19v-70.87c0-118.46,96.03-214.48,214.48-214.48s214.48,96.03,214.48,214.48v1.63Z"/><path class="cls-31" d="M534.02,506.36v69.24H181.33v-70.87c0-118.46,78.95-214.48,176.35-214.48s176.35,96.03,176.35,214.48v1.63Z"/><path class="cls-39" d="M487.9,506.36v69.24H227.45v-70.87c0-118.46,58.3-214.48,130.22-214.48s130.22,96.03,130.22,214.48v1.63Z"/><path class="cls-37" d="M434.29,506.36v69.24h-153.23v-70.87c0-118.46,34.3-214.48,76.62-214.48s76.62,96.03,76.62,214.48v1.63Z"/><rect class="cls-7" x="133.85" y="575.6" width="448.06" height="39.88"/><rect class="cls-24" x="87.29" y="745.35" width="530.75" height="6.37"/><rect class="cls-41" x="87.29" y="751.73" width="530.75" height="15.9"/><polygon class="cls-17" points="841.38 676.2 818.81 676.2 815.07 714.95 846.39 714.95 841.38 676.2"/><circle class="cls-23" cx="830.73" cy="669.9" r="9.58"/><path class="cls-35" d="M830.73,650.85c-10.52,0-19.05,8.53-19.05,19.05s8.53,19.05,19.05,19.05,19.05-8.53,19.05-19.05-8.53-19.05-19.05-19.05Zm0,28.63c-5.29,0-9.58-4.29-9.58-9.58s4.29-9.58,9.58-9.58,9.58,4.29,9.58,9.58-4.29,9.58-9.58,9.58Z"/><polygon class="cls-18" points="854.53 714.95 807.97 714.95 802.08 740.7 859.38 740.7 854.53 714.95"/><polygon class="cls-26" points="855.68 721.07 854.53 714.95 807.97 714.95 806.57 721.07 855.68 721.07"/><polygon class="cls-6" points="908.78 751.9 892.03 740.7 769.44 740.7 752.68 751.9 908.78 751.9"/><rect class="cls-8" x="752.68" y="755.8" width="156.1" height="11.83"/><rect class="cls-26" x="752.68" y="751.9" width="156.1" height="3.9"/><ellipse class="cls-30" cx="787.85" cy="583.43" rx="153.93" ry="34.92" transform="translate(-181.23 435.16) rotate(-27.82)"/><path class="cls-28" d="M666.04,661.95c14.27-21.98,58.94-55.74,116.01-85.86,58.85-31.06,113.45-49.04,138.71-47.21h0c-59,81.4-152.6,130.59-253.1,133.03l-1.62,.04"/><path class="cls-29" d="M691.88,667.35c20.6-20.43,58.25-45.76,103.81-69.81,43.53-22.97,84.73-38.79,113.46-44.73l-.43,.33c-65.42,49.87-138.71,88.47-216.84,114.21h0Z"/><rect class="cls-23" x="816.09" y="507.32" width="4" height="102.31" transform="translate(-58.71 1019.32) rotate(-62.05)"/><rect class="cls-23" x="796.35" y="526.95" width="4" height="89.86" transform="translate(-178.9 668.79) rotate(-41.28)"/><rect class="cls-23" x="771.85" y="539.67" width="4" height="89.94" transform="translate(-129.49 231.63) rotate(-15.73)"/><rect class="cls-23" x="699.96" y="591.86" width="103.45" height="4" transform="translate(100.24 1296.23) rotate(-85.46)"/><path class="cls-25" d="M749.47,533.04l4.68-2.7s-.03-.04-.04-.06l-1.84-3.19c-.54-.94-.22-2.13,.72-2.67l4.97-2.87c.94-.54,2.13-.22,2.67,.72l1.84,3.19s.02,.04,.03,.06l4.66-2.69c1.65-.95,3.76-.39,4.71,1.26l3.87,6.71c.95,1.65,.39,3.76-1.26,4.71l-17.69,10.21c-1.65,.95-3.76,.39-4.71-1.26l-3.87-6.71c-.95-1.65-.39-3.76,1.26-4.71Z"/><g><path class="cls-34" d="M924.89,514.61l.03-.02c0,.12,0,.24,0,.36,0-.12-.03-.23-.04-.35Z"/><path class="cls-9" d="M804.15,614.32c68.96-36.39,119.79-78.09,120.8-97.91,0,.71,.02,1.43,.02,2.14,0,94.64-76.72,171.37-171.37,171.37-36.75,0-70.8-11.57-98.7-31.27,16.58,10.67,79.96-7.77,149.24-44.33Z"/><path class="cls-10" d="M654.06,658.05c-.36-.26-.72-.51-1.08-.77l.15-.08c.29,.3,.59,.58,.93,.85Z"/></g></g></g></g></svg>