<?xml version="1.0" encoding="UTF-8"?><svg id="Ebene_2" xmlns="http://www.w3.org/2000/svg" xmlns:xlink="http://www.w3.org/1999/xlink" viewBox="0 0 1229.08 948.48"><defs><style>.cls-1{fill:url(#Unbenannter_Verlauf_41-10);}.cls-2{fill:url(#Unbenannter_Verlauf_41-13);}.cls-3{fill:url(#Unbenannter_Verlauf_41-12);}.cls-4{fill:url(#Unbenannter_Verlauf_41-11);}.cls-5{fill:url(#Unbenannter_Verlauf_52-11);}.cls-6{fill:url(#Unbenannter_Verlauf_52-10);}.cls-7{fill:url(#Unbenannter_Verlauf_65-4);}.cls-8{fill:url(#Unbenannter_Verlauf_65-3);}.cls-9{fill:url(#Unbenannter_Verlauf_65-5);}.cls-10{fill:url(#Unbenannter_Verlauf_65-6);}.cls-11{fill:url(#Unbenannter_Verlauf_65-8);}.cls-12{fill:url(#Unbenannter_Verlauf_65-7);}.cls-13{fill:url(#Unbenannter_Verlauf_65-2);}.cls-14{fill:url(#Unbenannter_Verlauf_52-8);}.cls-15{fill:url(#Unbenannter_Verlauf_52-7);}.cls-16{fill:url(#Unbenannter_Verlauf_52-2);}.cls-17{fill:url(#Unbenannter_Verlauf_52-6);}.cls-18{fill:url(#Unbenannter_Verlauf_52-5);}.cls-19{fill:url(#Unbenannter_Verlauf_52-4);}.cls-20{fill:url(#Unbenannter_Verlauf_52-3);}.cls-21{fill:url(#Unbenannter_Verlauf_52-9);}.cls-22{fill:url(#Unbenannter_Verlauf_51-2);}.cls-23{fill:url(#Unbenannter_Verlauf_45-3);}.cls-24{fill:url(#Unbenannter_Verlauf_45-2);}.cls-25{fill:url(#Unbenannter_Verlauf_41-9);}.cls-26{fill:url(#Unbenannter_Verlauf_41-4);}.cls-27{fill:url(#Unbenannter_Verlauf_41-3);}.cls-28{fill:url(#Unbenannter_Verlauf_41-6);}.cls-29{fill:url(#Unbenannter_Verlauf_41-2);}.cls-30{fill:url(#Unbenannter_Verlauf_41-5);}.cls-31{fill:url(#Unbenannter_Verlauf_41-8);}.cls-32{fill:url(#Unbenannter_Verlauf_41-7);}.cls-33{fill:#fff;}.cls-34{fill:url(#Unbenannter_Verlauf_52);}.cls-35{fill:url(#Unbenannter_Verlauf_65);}.cls-36{fill:url(#Unbenannter_Verlauf_51);}.cls-37{fill:url(#Unbenannter_Verlauf_45);}.cls-38{fill:url(#Unbenannter_Verlauf_41);}</style><radialGradient id="Unbenannter_Verlauf_41" cx="166.98" cy="424.76" fx="166.98" fy="424.76" r="14.16" gradientUnits="userSpaceOnUse"><stop offset="0" stop-color="#fcea0d"/><stop offset="0" stop-color="#fff" stop-opacity=".94"/><stop offset="1" stop-color="#fff" stop-opacity="0"/></radialGradient><radialGradient id="Unbenannter_Verlauf_41-2" cx="605.12" cy="173.31" fx="605.12" fy="173.31" r="14.16" xlink:href="#Unbenannter_Verlauf_41"/><radialGradient id="Unbenannter_Verlauf_41-3" cx="524.12" cy="533.31" fx="524.12" fy="533.31" xlink:href="#Unbenannter_Verlauf_41"/><radialGradient id="Unbenannter_Verlauf_41-4" cx="524.12" cy="920.31" fx="524.12" fy="920.31" xlink:href="#Unbenannter_Verlauf_41"/><radialGradient id="Unbenannter_Verlauf_41-5" cx="839.12" cy="92.31" fx="839.12" fy="92.31" r="14.16" xlink:href="#Unbenannter_Verlauf_41"/><radialGradient id="Unbenannter_Verlauf_41-6" cx="727.29" cy="517.61" fx="727.29" fy="517.61" xlink:href="#Unbenannter_Verlauf_41"/><radialGradient id="Unbenannter_Verlauf_41-7" cx="992.12" cy="506.31" fx="992.12" fy="506.31" r="14.16" xlink:href="#Unbenannter_Verlauf_41"/><radialGradient id="Unbenannter_Verlauf_41-8" cx="902.12" cy="650.31" fx="902.12" fy="650.31" xlink:href="#Unbenannter_Verlauf_41"/><radialGradient id="Unbenannter_Verlauf_41-9" cx="322.28" cy="826.46" fx="322.28" fy="826.46" xlink:href="#Unbenannter_Verlauf_41"/><radialGradient id="Unbenannter_Verlauf_41-10" cx="59.28" cy="773.46" fx="59.28" fy="773.46" xlink:href="#Unbenannter_Verlauf_41"/><radialGradient id="Unbenannter_Verlauf_41-11" cx="1177.28" cy="411.46" fx="1177.28" fy="411.46" xlink:href="#Unbenannter_Verlauf_41"/><radialGradient id="Unbenannter_Verlauf_41-12" cx="1078.28" cy="845.46" fx="1078.28" fy="845.46" xlink:href="#Unbenannter_Verlauf_41"/><radialGradient id="Unbenannter_Verlauf_41-13" cx="308.12" cy="263.31" fx="308.12" fy="263.31" xlink:href="#Unbenannter_Verlauf_41"/><linearGradient id="Unbenannter_Verlauf_52" x1="8554.55" y1="949.8" x2="8554.55" y2="846.15" gradientTransform="translate(-7436.7)" gradientUnits="userSpaceOnUse"><stop offset="0" stop-color="#6d66ac"/><stop offset=".1" stop-color="#6860a8" stop-opacity=".89"/><stop offset=".3" stop-color="#5d519e" stop-opacity=".62"/><stop offset=".39" stop-color="#584b9a" stop-opacity=".5"/><stop offset=".52" stop-color="#4e4193" stop-opacity=".34"/><stop offset=".71" stop-color="#43368c" stop-opacity=".15"/><stop offset=".88" stop-color="#3d3088" stop-opacity=".04"/><stop offset="1" stop-color="#3b2e87" stop-opacity="0"/></linearGradient><linearGradient id="Unbenannter_Verlauf_65" x1="-203.08" y1="932.74" x2="-203.08" y2="827.63" gradientTransform="translate(841.53) rotate(-180) scale(1 -1)" gradientUnits="userSpaceOnUse"><stop offset="0" stop-color="#908dc5"/><stop offset=".12" stop-color="#9fa4cf" stop-opacity=".87"/><stop offset=".36" stop-color="#c7e0ea" stop-opacity=".54"/><stop offset=".39" stop-color="#cde8ee" stop-opacity=".5"/><stop offset=".48" stop-color="#bfd3e4" stop-opacity=".39"/><stop offset=".64" stop-color="#aab5d7" stop-opacity=".22"/><stop offset=".78" stop-color="#9c9fcd" stop-opacity=".1"/><stop offset=".9" stop-color="#9391c7" stop-opacity=".03"/><stop offset="1" stop-color="#908dc5" stop-opacity="0"/></linearGradient><linearGradient id="Unbenannter_Verlauf_52-2" x1="8410.81" y1="917.49" x2="8410.81" y2="813.84" xlink:href="#Unbenannter_Verlauf_52"/><linearGradient id="Unbenannter_Verlauf_65-2" x1="-59.35" y1="900.42" x2="-59.35" y2="795.31" xlink:href="#Unbenannter_Verlauf_65"/><linearGradient id="Unbenannter_Verlauf_52-3" x1="8266.4" y1="886.79" x2="8266.4" y2="783.14" xlink:href="#Unbenannter_Verlauf_52"/><linearGradient id="Unbenannter_Verlauf_65-3" x1="85.06" y1="869.73" x2="85.06" y2="764.62" xlink:href="#Unbenannter_Verlauf_65"/><linearGradient id="Unbenannter_Verlauf_52-4" x1="8122.32" y1="854.78" x2="8122.32" y2="751.13" xlink:href="#Unbenannter_Verlauf_52"/><linearGradient id="Unbenannter_Verlauf_45" x1="90.55" y1="815.79" x2="90.55" y2="625.25" gradientTransform="translate(807.47) rotate(-180) scale(1 -1)" gradientUnits="userSpaceOnUse"><stop offset="0" stop-color="#a3d3bd"/><stop offset=".08" stop-color="#96ceb5" stop-opacity=".92"/><stop offset=".25" stop-color="#76c3a3" stop-opacity=".7"/><stop offset=".39" stop-color="#5ab992" stop-opacity=".5"/><stop offset=".57" stop-color="#46b384" stop-opacity=".28"/><stop offset=".74" stop-color="#37b07a" stop-opacity=".13"/><stop offset=".89" stop-color="#2fad74" stop-opacity=".03"/><stop offset="1" stop-color="#2cad72" stop-opacity="0"/></linearGradient><linearGradient id="Unbenannter_Verlauf_51" x1="8281.51" y1="784.42" x2="8281.51" y2="591.2" gradientTransform="translate(-7470.77)" gradientUnits="userSpaceOnUse"><stop offset="0" stop-color="#b8e1ee"/><stop offset=".07" stop-color="#abdcec" stop-opacity=".92"/><stop offset=".23" stop-color="#8cd2e7" stop-opacity=".73"/><stop offset=".39" stop-color="#69c6e3" stop-opacity=".5"/><stop offset=".46" stop-color="#5fc4e1" stop-opacity=".41"/><stop offset=".63" stop-color="#4dc0df" stop-opacity=".23"/><stop offset=".78" stop-color="#40bedd" stop-opacity=".1"/><stop offset=".91" stop-color="#38bcdc" stop-opacity=".03"/><stop offset="1" stop-color="#36bcdc" stop-opacity="0"/></linearGradient><linearGradient id="Unbenannter_Verlauf_45-2" x1="-94.48" y1="759.36" x2="-94.48" y2="568.82" xlink:href="#Unbenannter_Verlauf_45"/><linearGradient id="Unbenannter_Verlauf_51-2" x1="8466.54" y1="727.99" x2="8466.54" y2="534.77" xlink:href="#Unbenannter_Verlauf_51"/><linearGradient id="Unbenannter_Verlauf_45-3" x1="-279.09" y1="700.52" x2="-279.09" y2="509.98" xlink:href="#Unbenannter_Verlauf_45"/><linearGradient id="Unbenannter_Verlauf_52-5" x1="782.31" y1="465.91" x2="782.31" y2="174.86" gradientTransform="matrix(1, 0, 0, 1, 0, 0)" xlink:href="#Unbenannter_Verlauf_52"/><linearGradient id="Unbenannter_Verlauf_65-4" x1="7639.25" y1="417.99" x2="7639.25" y2="122.85" gradientTransform="translate(8278.23) rotate(-180) scale(1 -1)" xlink:href="#Unbenannter_Verlauf_65"/><linearGradient id="Unbenannter_Verlauf_52-6" x1="499.68" y1="379.71" x2="499.68" y2="88.66" gradientTransform="matrix(1, 0, 0, 1, 0, 0)" xlink:href="#Unbenannter_Verlauf_52"/><linearGradient id="Unbenannter_Verlauf_65-5" x1="7921.87" y1="331.79" x2="7921.87" y2="36.65" gradientTransform="translate(8278.23) rotate(-180) scale(1 -1)" xlink:href="#Unbenannter_Verlauf_65"/><linearGradient id="Unbenannter_Verlauf_52-7" x1="217.69" y1="289.83" x2="217.69" y2="-1.21" gradientTransform="matrix(1, 0, 0, 1, 0, 0)" xlink:href="#Unbenannter_Verlauf_52"/><linearGradient id="Unbenannter_Verlauf_52-8" x1="8074.27" y1="669.75" x2="8074.27" y2="511.43" gradientTransform="translate(8244.17) rotate(-180) scale(1 -1)" xlink:href="#Unbenannter_Verlauf_52"/><linearGradient id="Unbenannter_Verlauf_65-6" x1="315.82" y1="643.68" x2="315.82" y2="483.13" gradientTransform="translate(-34.06)" xlink:href="#Unbenannter_Verlauf_65"/><linearGradient id="Unbenannter_Verlauf_52-9" x1="7854.72" y1="620.39" x2="7854.72" y2="462.07" gradientTransform="translate(8244.17) rotate(-180) scale(1 -1)" xlink:href="#Unbenannter_Verlauf_52"/><linearGradient id="Unbenannter_Verlauf_65-7" x1="535.37" y1="594.33" x2="535.37" y2="433.78" gradientTransform="translate(-34.06)" xlink:href="#Unbenannter_Verlauf_65"/><linearGradient id="Unbenannter_Verlauf_52-10" x1="7634.15" y1="573.5" x2="7634.15" y2="415.18" gradientTransform="translate(8244.17) rotate(-180) scale(1 -1)" xlink:href="#Unbenannter_Verlauf_52"/><linearGradient id="Unbenannter_Verlauf_65-8" x1="755.94" y1="547.43" x2="755.94" y2="386.89" gradientTransform="translate(-34.06)" xlink:href="#Unbenannter_Verlauf_65"/><linearGradient id="Unbenannter_Verlauf_52-11" x1="7414.07" y1="524.61" x2="7414.07" y2="366.29" gradientTransform="translate(8244.17) rotate(-180) scale(1 -1)" xlink:href="#Unbenannter_Verlauf_52"/></defs><g id="design_1"><g><circle class="cls-33" cx="724.75" cy="304.3" r="3.87"/><circle class="cls-33" cx="809.82" cy="916.59" r="3.87"/><circle class="cls-33" cx="826.01" cy="729.17" r="3.87"/><circle class="cls-33" cx="578.45" cy="904.31" r="3.87"/><circle class="cls-33" cx="376.39" cy="644.25" r="3.87"/><circle class="cls-33" cx="361.13" cy="692.76" r="3.87"/><circle class="cls-33" cx="42.13" cy="720.76" r="3.87"/><circle class="cls-33" cx="186.13" cy="900.76" r="3.87"/><circle class="cls-33" cx="191.12" cy="576.59" r="3.87"/><circle class="cls-33" cx="183.38" cy="242.1" r="3.87"/><circle class="cls-33" cx="665.86" cy="584.32" r="3.87"/><circle class="cls-33" cx="399.12" cy="453.69" r="3.87"/><circle class="cls-33" cx="357.26" cy="180.02" r="3.87"/><circle class="cls-33" cx="269.73" cy="343.23" r="3.87"/><circle class="cls-33" cx="513.7" cy="73.15" r="3.87"/><circle class="cls-33" cx="97.7" cy="315.15" r="3.87"/><circle class="cls-33" cx="655.67" cy="733.04" r="3.87"/><circle class="cls-33" cx="509.83" cy="285.92" r="3.87"/><circle class="cls-33" cx="746.48" cy="92.33" r="3.87"/><circle class="cls-33" cx="728.62" cy="53.73" r="3.87"/><circle class="cls-33" cx="892.12" cy="238.23" r="3.87"/><circle class="cls-33" cx="1025.55" cy="325.36" r="3.87"/><circle class="cls-33" cx="1184.55" cy="243.36" r="3.87"/><circle class="cls-33" cx="1105.55" cy="760.36" r="3.87"/><circle class="cls-33" cx="1209.55" cy="218.36" r="3.87"/><circle class="cls-33" cx="855.91" cy="471.47" r="3.87"/><circle class="cls-33" cx="997.64" cy="640.39" r="3.87"/><g><path class="cls-33" d="m179.25,424.76l-3.96,1.11c-3.49.98-6.22,3.71-7.21,7.21l-1.11,3.96-1.12-3.96c-.98-3.49-3.71-6.21-7.2-7.2l-3.96-1.12,3.96-1.11c3.49-.98,6.22-3.71,7.21-7.21l1.11-3.96,1.12,3.96c.98,3.49,3.71,6.21,7.2,7.2l3.96,1.12Z"/><circle class="cls-38" cx="166.98" cy="424.76" r="14.16"/></g><g><path class="cls-33" d="m617.4,173.31l-3.96,1.11c-3.49.98-6.22,3.71-7.21,7.21l-1.11,3.96-1.12-3.96c-.98-3.49-3.71-6.21-7.2-7.2l-3.96-1.12,3.96-1.11c3.49-.98,6.22-3.71,7.21-7.21l1.11-3.96,1.12,3.96c.98,3.49,3.71,6.21,7.2,7.2l3.96,1.12Z"/><circle class="cls-29" cx="605.12" cy="173.31" r="14.16"/></g><g><path class="cls-33" d="m536.4,533.31l-3.96,1.11c-3.49.98-6.22,3.71-7.21,7.21l-1.11,3.96-1.12-3.96c-.98-3.49-3.71-6.21-7.2-7.2l-3.96-1.12,3.96-1.11c3.49-.98,6.22-3.71,7.21-7.21l1.11-3.96,1.12,3.96c.98,3.49,3.71,6.21,7.2,7.2l3.96,1.12Z"/><circle class="cls-27" cx="524.12" cy="533.31" r="14.16"/></g><g><path class="cls-33" d="m536.4,920.31l-3.96,1.11c-3.49.98-6.22,3.71-7.21,7.21l-1.11,3.96-1.12-3.96c-.98-3.49-3.71-6.21-7.2-7.2l-3.96-1.12,3.96-1.11c3.49-.98,6.22-3.71,7.21-7.21l1.11-3.96,1.12,3.96c.98,3.49,3.71,6.21,7.2,7.2l3.96,1.12Z"/><circle class="cls-26" cx="524.12" cy="920.31" r="14.16"/></g><g><path class="cls-33" d="m851.4,92.31l-3.96,1.11c-3.49.98-6.22,3.71-7.21,7.21l-1.11,3.96-1.12-3.96c-.98-3.49-3.71-6.21-7.2-7.2l-3.96-1.12,3.96-1.11c3.49-.98,6.22-3.71,7.21-7.21l1.11-3.96,1.12,3.96c.98,3.49,3.71,6.21,7.2,7.2l3.96,1.12Z"/><circle class="cls-30" cx="839.12" cy="92.31" r="14.16"/></g><g><path class="cls-33" d="m739.57,517.61l-3.96,1.11c-3.49.98-6.22,3.71-7.21,7.21l-1.11,3.96-1.12-3.96c-.98-3.49-3.71-6.21-7.2-7.2l-3.96-1.12,3.96-1.11c3.49-.98,6.22-3.71,7.21-7.21l1.11-3.96,1.12,3.96c.98,3.49,3.71,6.21,7.2,7.2l3.96,1.12Z"/><circle class="cls-28" cx="727.29" cy="517.61" r="14.16"/></g><g><path class="cls-33" d="m1004.4,506.31l-3.96,1.11c-3.49.98-6.22,3.71-7.21,7.21l-1.11,3.96-1.12-3.96c-.98-3.49-3.71-6.21-7.2-7.2l-3.96-1.12,3.96-1.11c3.49-.98,6.22-3.71,7.21-7.21l1.11-3.96,1.12,3.96c.98,3.49,3.71,6.21,7.2,7.2l3.96,1.12Z"/><circle class="cls-32" cx="992.12" cy="506.31" r="14.16"/></g><g><path class="cls-33" d="m914.4,650.31l-3.96,1.11c-3.49.98-6.22,3.71-7.21,7.21l-1.11,3.96-1.12-3.96c-.98-3.49-3.71-6.21-7.2-7.2l-3.96-1.12,3.96-1.11c3.49-.98,6.22-3.71,7.21-7.21l1.11-3.96,1.12,3.96c.98,3.49,3.71,6.21,7.2,7.2l3.96,1.12Z"/><circle class="cls-31" cx="902.12" cy="650.31" r="14.16"/></g><g><path class="cls-33" d="m334.56,826.46l-3.96,1.11c-3.49.98-6.22,3.71-7.21,7.21l-1.11,3.96-1.12-3.96c-.98-3.49-3.71-6.21-7.2-7.2l-3.96-1.12,3.96-1.11c3.49-.98,6.22-3.71,7.21-7.21l1.11-3.96,1.12,3.96c.98,3.49,3.71,6.21,7.2,7.2l3.96,1.12Z"/><circle class="cls-25" cx="322.28" cy="826.46" r="14.16"/></g><g><path class="cls-33" d="m71.56,773.46l-3.96,1.11c-3.49.98-6.22,3.71-7.21,7.21l-1.11,3.96-1.12-3.96c-.98-3.49-3.71-6.21-7.2-7.2l-3.96-1.12,3.96-1.11c3.49-.98,6.22-3.71,7.21-7.21l1.11-3.96,1.12,3.96c.98,3.49,3.71,6.21,7.2,7.2l3.96,1.12Z"/><circle class="cls-1" cx="59.28" cy="773.46" r="14.16"/></g><g><path class="cls-33" d="m1189.56,411.46l-3.96,1.11c-3.49.98-6.22,3.71-7.21,7.21l-1.11,3.96-1.12-3.96c-.98-3.49-3.71-6.21-7.2-7.2l-3.96-1.12,3.96-1.11c3.49-.98,6.22-3.71,7.21-7.21l1.11-3.96,1.12,3.96c.98,3.49,3.71,6.21,7.2,7.2l3.96,1.12Z"/><circle class="cls-4" cx="1177.28" cy="411.46" r="14.16"/></g><g><path class="cls-33" d="m1090.56,845.46l-3.96,1.11c-3.49.98-6.22,3.71-7.21,7.21l-1.11,3.96-1.12-3.96c-.98-3.49-3.71-6.21-7.2-7.2l-3.96-1.12,3.96-1.11c3.49-.98,6.22-3.71,7.21-7.21l1.11-3.96,1.12,3.96c.98,3.49,3.71,6.21,7.2,7.2l3.96,1.12Z"/><circle class="cls-3" cx="1078.28" cy="845.46" r="14.16"/></g><g><path class="cls-33" d="m320.4,263.31l-3.96,1.11c-3.49.98-6.22,3.71-7.21,7.21l-1.11,3.96-1.12-3.96c-.98-3.49-3.71-6.21-7.2-7.2l-3.96-1.12,3.96-1.11c3.49-.98,6.22-3.71,7.21-7.21l1.11-3.96,1.12,3.96c.98,3.49,3.71,6.21,7.2,7.2l3.96,1.12Z"/><circle class="cls-2" cx="308.12" cy="263.31" r="14.16"/></g></g><g><g><path class="cls-34" d="m1229.07,948.48h0c-6.36-6.65-19.06-7.13-28.6-6.76-63.84,2.49-127.87,4.81-188.53-9.69h0c-3.19-.76-5.33-2.85-5.33-5.2v-80.25s5.33,1.27,5.33,1.27c59.65,14.26,122.56,11.97,185.35,9.8,10.6-.37,25.42-2.22,31.78,6.65h0s0,84.17,0,84.17Z"/><path class="cls-35" d="m1009.93,931.39h0c-8.59-6.8,14.86-7.59,18.26-7.49,24.71.75,38.67,2.25,55.06-3.22h0c1.2-.81,1.88-1.93,1.88-3.1v-89.52s-1.88,1.27-1.88,1.27c-21.03,14.26-37.22,12.87-59.35,10.71-3.74-.37-17.56-2.22-19.8,6.65v5.49s1.22,74.47,1.22,74.47c.2,2.05,1.96,3.86,4.61,4.75Z"/><path class="cls-16" d="m1085.34,916.16h0c-6.36-6.65-19.06-7.13-28.6-6.76-63.84,2.49-127.87,4.81-188.53-9.69h0c-3.19-.76-5.33-2.85-5.33-5.2v-80.25s5.33,1.27,5.33,1.27c59.65,14.26,122.56,11.97,185.35,9.8,10.6-.37,25.42-2.22,31.78,6.65h0s0,84.17,0,84.17Z"/><path class="cls-13" d="m866.2,899.08h0c-8.59-6.8,14.86-7.59,18.26-7.49,24.71.75,38.67,2.25,55.06-3.22h0c1.2-.81,1.88-1.93,1.88-3.1v-89.52s-1.88,1.27-1.88,1.27c-21.03,14.26-37.22,12.87-59.35,10.71-3.74-.37-17.56-2.22-19.8,6.65v5.49s1.22,74.47,1.22,74.47c.2,2.05,1.96,3.86,4.61,4.75Z"/><path class="cls-20" d="m940.93,885.46h0c-6.36-6.65-19.06-7.13-28.6-6.76-63.84,2.49-127.87,4.81-188.53-9.69h0c-3.19-.76-5.33-2.85-5.33-5.2v-80.25s5.33,1.27,5.33,1.27c59.65,14.26,122.56,11.97,185.35,9.8,10.6-.37,25.42-2.22,31.78,6.65h0s0,84.17,0,84.17Z"/><path class="cls-8" d="m721.79,868.38h0c-8.59-6.8,14.86-7.59,18.26-7.49,24.71.75,38.67,2.25,55.06-3.22h0c1.2-.81,1.88-1.93,1.88-3.1v-89.52s-1.88,1.27-1.88,1.27c-21.03,14.26-37.22,12.87-59.35,10.71-3.74-.37-17.56-2.22-19.8,6.65v5.49s1.22,74.47,1.22,74.47c.2,2.05,1.96,3.86,4.61,4.75Z"/><path class="cls-19" d="m796.85,853.46h0c-6.36-6.65-19.06-7.13-28.6-6.76-63.84,2.49-127.87,4.81-188.53-9.69l-5.33-1.27v-84.17s5.33,1.27,5.33,1.27c59.65,14.26,122.56,11.97,185.35,9.8,10.6-.37,25.42-2.22,31.78,6.65h0s0,84.17,0,84.17Z"/></g><g><path class="cls-37" d="m574.4,813.36h0c8.14-12.22,24.42-13.11,36.65-12.43,81.8,4.58,163.84,8.84,241.57-17.8h0c4.08-1.4,6.83-5.24,6.83-9.56v-147.52s-6.83,2.34-6.83,2.34c-76.43,26.21-157.04,22-237.49,18.02-13.58-.67-32.58-4.07-40.72,12.22h0s0,154.74,0,154.74Z"/><path class="cls-36" d="m855.18,781.95h0c11.01-12.51-19.04-13.95-23.4-13.76-31.66,1.38-49.55,4.13-70.54-5.92h0c-1.54-1.5-2.41-3.55-2.41-5.7v-164.57s2.41,2.34,2.41,2.34c26.94,26.21,47.69,23.67,76.05,19.68,4.79-.67,22.49-4.07,25.37,12.22v10.09s-1.56,136.89-1.56,136.89c-.25,3.76-2.51,7.1-5.91,8.72Z"/><path class="cls-24" d="m759.43,756.92h0c8.14-12.22,24.42-13.11,36.65-12.43,81.8,4.58,163.84,8.84,241.57-17.8h0c4.08-1.4,6.83-5.24,6.83-9.56v-147.52s-6.83,2.34-6.83,2.34c-76.43,26.21-157.04,22-237.49,18.02-13.58-.67-32.58-4.07-40.72,12.22h0s0,154.74,0,154.74Z"/><path class="cls-22" d="m1040.21,725.52h0c11.01-12.51-19.04-13.95-23.4-13.76-31.66,1.38-49.55,4.13-70.54-5.92h0c-1.54-1.5-2.41-3.55-2.41-5.7v-164.57s2.41,2.34,2.41,2.34c26.94,26.21,47.69,23.67,76.05,19.68,4.79-.67,22.49-4.07,25.37,12.22v10.09s-1.56,136.89-1.56,136.89c-.25,3.76-2.51,7.1-5.91,8.72Z"/><path class="cls-23" d="m944.04,698.08h0c8.14-12.22,24.42-13.11,36.65-12.43,81.8,4.58,163.84,8.84,241.57-17.8l6.83-2.34v-154.74s-6.83,2.34-6.83,2.34c-76.43,26.21-157.04,22-237.49,18.02-13.58-.67-32.58-4.07-40.72,12.22h0s0,154.74,0,154.74Z"/></g></g><g><g><path class="cls-18" d="m1000,462.18h0c-12.44-18.66-37.3-20.03-55.98-18.99-124.95,6.99-250.26,13.51-368.98-27.2h0c-6.24-2.14-10.43-8-10.43-14.6v-225.33l10.43,3.57c116.75,40.03,239.87,33.61,362.76,27.52,20.75-1.03,49.76-6.22,62.2,18.66h0s0,236.35,0,236.35Z"/><path class="cls-7" d="m571.11,414.22h0c-16.82-19.1,29.08-21.31,35.74-21.02,48.36,2.1,75.69,6.31,107.75-9.04h0c2.35-2.29,3.68-5.42,3.68-8.7V124.08s-3.68,3.57-3.68,3.57c-41.15,40.03-72.84,36.15-116.16,30.06-7.31-1.03-34.36-6.22-38.74,18.66v15.42s2.38,209.09,2.38,209.09c.38,5.75,3.83,10.84,9.03,13.32Z"/><path class="cls-17" d="m717.38,375.99h0c-12.44-18.66-37.3-20.03-55.98-18.99-124.95,6.99-250.26,13.51-368.98-27.2h0c-6.24-2.14-10.43-8-10.43-14.6V89.88l10.43,3.57c116.75,40.03,239.87,33.61,362.76,27.52,20.75-1.03,49.76-6.22,62.2,18.66h0s0,236.35,0,236.35Z"/><path class="cls-9" d="m288.48,328.02h0c-16.82-19.1,29.08-21.31,35.74-21.02,48.36,2.1,75.69,6.31,107.75-9.04h0c2.35-2.29,3.68-5.42,3.68-8.7V37.88s-3.68,3.57-3.68,3.57c-41.15,40.03-72.84,36.15-116.16,30.06-7.31-1.03-34.36-6.22-38.74,18.66v15.42s2.38,209.09,2.38,209.09c.38,5.75,3.83,10.84,9.03,13.32Z"/><path class="cls-15" d="m435.39,286.11h0c-12.44-18.66-37.3-20.03-55.98-18.99-124.95,6.99-250.26,13.51-368.98-27.2l-10.43-3.57V0l10.43,3.57c116.75,40.03,239.87,33.61,362.76,27.52,20.75-1.03,49.76-6.22,62.2,18.66h0s0,236.35,0,236.35Z"/></g><g><path class="cls-14" d="m0,667.72h0c9.71-10.15,29.11-10.9,43.69-10.33,97.52,3.8,195.32,7.35,287.97-14.79h0c4.87-1.16,8.14-4.35,8.14-7.94v-122.57s-8.14,1.94-8.14,1.94c-91.12,21.77-187.21,18.28-283.12,14.97-16.19-.56-38.83-3.38-48.54,10.15H0s0,128.57,0,128.57Z"/><path class="cls-10" d="m334.73,641.63h0c13.13-10.39-22.7-11.59-27.89-11.44-37.74,1.14-59.07,3.43-84.1-4.92h0c-1.83-1.24-2.87-2.95-2.87-4.73v-136.74s2.87,1.94,2.87,1.94c32.12,21.77,56.85,19.66,90.66,16.35,5.71-.56,26.82-3.38,30.24,10.15v8.39s-1.86,113.74-1.86,113.74c-.3,3.13-2.99,5.9-7.05,7.25Z"/><path class="cls-21" d="m219.55,618.37h0c9.71-10.15,29.11-10.9,43.69-10.33,97.52,3.8,195.32,7.35,287.97-14.79h0c4.87-1.16,8.14-4.35,8.14-7.94v-122.57s-8.14,1.94-8.14,1.94c-91.12,21.77-187.21,18.28-283.12,14.97-16.19-.56-38.83-3.38-48.54,10.15h0s0,128.57,0,128.57Z"/><path class="cls-12" d="m554.28,592.27h0c13.13-10.39-22.7-11.59-27.89-11.44-37.74,1.14-59.07,3.43-84.1-4.92h0c-1.83-1.24-2.87-2.95-2.87-4.73v-136.74s2.87,1.94,2.87,1.94c32.12,21.77,56.85,19.66,90.66,16.35,5.71-.56,26.82-3.38,30.24,10.15v8.39s-1.86,113.74-1.86,113.74c-.3,3.13-2.99,5.9-7.05,7.25Z"/><path class="cls-6" d="m440.12,571.48h0c9.71-10.15,29.11-10.9,43.69-10.33,97.52,3.8,195.32,7.35,287.97-14.79h0c4.87-1.16,8.14-4.35,8.14-7.94v-122.57s-8.14,1.94-8.14,1.94c-91.12,21.77-187.21,18.28-283.12,14.97-16.19-.56-38.83-3.38-48.54,10.15h0s0,128.57,0,128.57Z"/><path class="cls-11" d="m774.85,545.38h0c13.13-10.39-22.7-11.59-27.89-11.44-37.74,1.14-59.07,3.43-84.1-4.92h0c-1.83-1.24-2.87-2.95-2.87-4.73v-136.74s2.87,1.94,2.87,1.94c32.12,21.77,56.85,19.66,90.66,16.35,5.71-.56,26.82-3.38,30.24,10.15v8.39s-1.86,113.74-1.86,113.74c-.3,3.13-2.99,5.9-7.05,7.25Z"/><path class="cls-5" d="m660.2,522.59h0c9.71-10.15,29.11-10.9,43.69-10.33,97.52,3.8,195.32,7.35,287.97-14.79l8.14-1.94v-128.57s-8.14,1.94-8.14,1.94c-91.12,21.77-187.21,18.28-283.12,14.97-16.19-.56-38.83-3.38-48.54,10.15h0s0,128.57,0,128.57Z"/></g></g></g></svg>