<?xml version="1.0" encoding="UTF-8"?><svg id="Ebene_2" xmlns="http://www.w3.org/2000/svg" xmlns:xlink="http://www.w3.org/1999/xlink" viewBox="0 0 2765.93 1176"><defs><style>.cls-1{fill:url(#Unbenannter_Verlauf_41-10);}.cls-2{fill:url(#Unbenannter_Verlauf_41-17);}.cls-3{fill:url(#Unbenannter_Verlauf_41-16);}.cls-4{fill:url(#Unbenannter_Verlauf_41-15);}.cls-5{fill:url(#Unbenannter_Verlauf_41-14);}.cls-6{fill:url(#Unbenannter_Verlauf_41-13);}.cls-7{fill:url(#Unbenannter_Verlauf_41-12);}.cls-8{fill:url(#Unbenannter_Verlauf_41-11);}.cls-9{fill:url(#Unbenannter_Verlauf_41-18);}.cls-10{fill:url(#Unbenannter_Verlauf_41-9);}.cls-11{fill:url(#Unbenannter_Verlauf_41-4);}.cls-12{fill:url(#Unbenannter_Verlauf_41-3);}.cls-13{fill:url(#Unbenannter_Verlauf_41-6);}.cls-14{fill:url(#Unbenannter_Verlauf_41-2);}.cls-15{fill:url(#Unbenannter_Verlauf_41-5);}.cls-16{fill:url(#Unbenannter_Verlauf_41-8);}.cls-17{fill:url(#Unbenannter_Verlauf_41-7);}.cls-18,.cls-19{fill:#ed2e72;}.cls-20,.cls-21,.cls-22{fill:#fc95c4;}.cls-23,.cls-24,.cls-25{fill:#fff;}.cls-26,.cls-27{fill:#ed5d97;}.cls-28,.cls-29{fill:#7e58a0;}.cls-30,.cls-31{fill:#9b0047;}.cls-32,.cls-33{fill:#906eae;}.cls-34{fill:#bb69e2;}.cls-35,.cls-36{fill:#bbffe6;}.cls-37{fill:#aaf7ed;}.cls-38,.cls-39{fill:#ae92cc;}.cls-40,.cls-41{fill:#d0b9db;}.cls-42,.cls-43{fill:#ce0b5a;}.cls-44{fill:#d59af7;}.cls-45,.cls-46{fill:#11a36e;}.cls-47{fill:#a340cc;}.cls-48,.cls-49{fill:#6d4696;}.cls-50{fill:#53d3c9;}.cls-51,.cls-52{fill:#59c9a6;}.cls-53,.cls-54{fill:#33b58a;}.cls-55,.cls-56{fill:#82e8c6;}.cls-57{fill:#77e5da;}.cls-21{opacity:.2;}.cls-58{fill:url(#Unbenannter_Verlauf_41);}.cls-54,.cls-56,.cls-52,.cls-49,.cls-46,.cls-39,.cls-36,.cls-43,.cls-41,.cls-33,.cls-29,.cls-31,.cls-22,.cls-27,.cls-19{opacity:.5;}.cls-24{opacity:.8;}.cls-25{opacity:.45;}</style><radialGradient id="Unbenannter_Verlauf_41" cx="-4907.45" cy="334.05" fx="-4907.45" fy="334.05" r="14.34" gradientTransform="translate(-4202.6 -978.32) rotate(-168.03) scale(1 -1)" gradientUnits="userSpaceOnUse"><stop offset="0" stop-color="#fcea0d"/><stop offset="0" stop-color="#fff" stop-opacity=".94"/><stop offset="1" stop-color="#fff" stop-opacity="0"/></radialGradient><radialGradient id="Unbenannter_Verlauf_41-2" cx="-4651.02" cy="405.6" fx="-4651.02" fy="405.6" r="23.19" xlink:href="#Unbenannter_Verlauf_41"/><radialGradient id="Unbenannter_Verlauf_41-3" cx="-5049.71" cy="238.79" fx="-5049.71" fy="238.79" r="14.34" xlink:href="#Unbenannter_Verlauf_41"/><radialGradient id="Unbenannter_Verlauf_41-4" cx="-4562.48" cy="118.57" fx="-4562.48" fy="118.57" r="29.41" xlink:href="#Unbenannter_Verlauf_41"/><radialGradient id="Unbenannter_Verlauf_41-5" cx="-5051.6" cy="435.01" fx="-5051.6" fy="435.01" r="29.41" xlink:href="#Unbenannter_Verlauf_41"/><radialGradient id="Unbenannter_Verlauf_41-6" cx="-3955.86" cy="835.77" fx="-3955.86" fy="835.77" r="19.8" gradientTransform="translate(5919.65)" xlink:href="#Unbenannter_Verlauf_41"/><radialGradient id="Unbenannter_Verlauf_41-7" cx="-3601.66" cy="934.59" fx="-3601.66" fy="934.59" r="32.03" gradientTransform="translate(5919.65)" xlink:href="#Unbenannter_Verlauf_41"/><radialGradient id="Unbenannter_Verlauf_41-8" cx="-4152.37" cy="704.18" fx="-4152.37" fy="704.18" r="19.8" gradientTransform="translate(5919.65)" xlink:href="#Unbenannter_Verlauf_41"/><radialGradient id="Unbenannter_Verlauf_41-9" cx="-3479.35" cy="538.11" fx="-3479.35" fy="538.11" r="40.62" gradientTransform="translate(5919.65)" xlink:href="#Unbenannter_Verlauf_41"/><radialGradient id="Unbenannter_Verlauf_41-10" cx="-4154.97" cy="975.21" fx="-4154.97" fy="975.21" r="40.62" gradientTransform="translate(5919.65)" xlink:href="#Unbenannter_Verlauf_41"/><radialGradient id="Unbenannter_Verlauf_41-11" cx="526.98" cy="935.06" fx="526.98" fy="935.06" r="18.64" gradientTransform="matrix(1, 0, 0, 1, 0, 0)" xlink:href="#Unbenannter_Verlauf_41"/><radialGradient id="Unbenannter_Verlauf_41-12" cx="1371.98" cy="513.06" fx="1371.98" fy="513.06" r="18.64" gradientTransform="matrix(1, 0, 0, 1, 0, 0)" xlink:href="#Unbenannter_Verlauf_41"/><radialGradient id="Unbenannter_Verlauf_41-13" cx="1011.98" cy="571.06" fx="1011.98" fy="571.06" r="18.64" gradientTransform="matrix(1, 0, 0, 1, 0, 0)" xlink:href="#Unbenannter_Verlauf_41"/><radialGradient id="Unbenannter_Verlauf_41-14" cx="1360.98" cy="852.06" fx="1360.98" fy="852.06" r="18.64" gradientTransform="matrix(1, 0, 0, 1, 0, 0)" xlink:href="#Unbenannter_Verlauf_41"/><radialGradient id="Unbenannter_Verlauf_41-15" cx="2342.35" cy="207.07" fx="2342.35" fy="207.07" r="30.14" gradientTransform="matrix(1, 0, 0, 1, 0, 0)" xlink:href="#Unbenannter_Verlauf_41"/><radialGradient id="Unbenannter_Verlauf_41-16" cx="660.35" cy="814.07" fx="660.35" fy="814.07" r="30.14" gradientTransform="matrix(1, 0, 0, 1, 0, 0)" xlink:href="#Unbenannter_Verlauf_41"/><radialGradient id="Unbenannter_Verlauf_41-17" cx="788.04" cy="190.21" fx="788.04" fy="190.21" r="18.64" gradientTransform="matrix(1, 0, 0, 1, 0, 0)" xlink:href="#Unbenannter_Verlauf_41"/><radialGradient id="Unbenannter_Verlauf_41-18" cx="1478.46" cy="583.91" fx="1478.46" fy="583.91" r="38.23" gradientTransform="matrix(1, 0, 0, 1, 0, 0)" xlink:href="#Unbenannter_Verlauf_41"/></defs><g id="final"><g><g><ellipse id="GalaxyFog1" class="cls-46" cx="455.9" cy="334.17" rx="172.34" ry="538.21" transform="translate(-76.56 523.88) rotate(-55.85)"/><ellipse id="GalaxyFog2" class="cls-54" cx="455.93" cy="334.09" rx="128.14" ry="400.18" transform="translate(-76.48 523.88) rotate(-55.85)"/><ellipse id="GalaxyFog3" class="cls-52" cx="455.92" cy="334.13" rx="97.53" ry="304.56" transform="translate(-76.52 523.89) rotate(-55.85)"/><ellipse id="GalaxyFog4" class="cls-56" cx="455.91" cy="334.12" rx="78.17" ry="244.11" transform="translate(-76.52 523.87) rotate(-55.85)"/><ellipse id="GalaxyFog5" class="cls-36" cx="455.9" cy="334.12" rx="57.09" ry="178.3" transform="translate(-76.53 523.87) rotate(-55.85)"/><g><path class="cls-35" d="m339.9,226.26c.16.03.33.06.51.07,4.01.28,8.37.85,12.95,1.69,1.98.36,3.88-.95,4.24-2.92.36-1.98-.95-3.87-2.92-4.24-4.85-.89-9.48-1.5-13.76-1.79-2.01-.14-3.75,1.37-3.89,3.38-.13,1.83,1.13,3.45,2.87,3.82Z"/><path class="cls-35" d="m302.81,251.25c.32.07.66.09,1.01.07,2.01-.14,3.52-1.88,3.38-3.89-.35-4.93.59-9.06,2.77-12.29.71-1.04,1.55-2,2.52-2.86,1.5-1.34,1.64-3.64.3-5.14-1.34-1.5-3.64-1.64-5.14-.3-1.42,1.26-2.66,2.68-3.71,4.22-3.12,4.61-4.47,10.29-4.01,16.89.12,1.66,1.33,2.98,2.88,3.31Z"/><path class="cls-35" d="m326.07,298.5c1.01.21,2.11,0,2.99-.69,1.59-1.23,1.88-3.52.64-5.11-9.02-11.62-15.45-22.27-19.13-31.65-.73-1.87-2.85-2.8-4.72-2.06s-2.8,2.85-2.06,4.72c3.93,10.04,10.71,21.29,20.15,33.46.55.71,1.31,1.16,2.12,1.33Z"/><path class="cls-35" d="m393.71,363.71c1.33.28,2.75-.19,3.64-1.33,1.23-1.59.94-3.88-.65-5.11-4.13-3.2-8.22-6.46-12.17-9.72-1.55-1.28-3.85-1.06-5.13.49-1.28,1.55-1.06,3.85.49,5.13,4,3.3,8.15,6.62,12.34,9.86.45.35.95.57,1.47.68Z"/><path class="cls-35" d="m534.29,440.59c1.84.39,3.69-.69,4.24-2.52.58-1.93-.52-3.96-2.44-4.54-10.99-3.3-22.85-7.74-35.25-13.22-1.84-.81-3.99.02-4.81,1.86-.81,1.84.02,3.99,1.86,4.81,12.67,5.6,24.82,10.16,36.1,13.54.1.03.2.05.29.08Z"/><path class="cls-35" d="m558.11,446.14c.07.01.13.03.2.04,3.64.56,7.15.96,10.44,1.17,2.01.13,3.74-1.4,3.87-3.41.13-2.01-1.4-3.74-3.41-3.87-3.07-.2-6.37-.56-9.79-1.09-1.99-.31-3.85,1.05-4.16,3.04-.3,1.92.96,3.72,2.84,4.12Z"/><path class="cls-35" d="m602.85,412.62c.58.12,1.19.11,1.8-.08,1.93-.58,3.02-2.61,2.44-4.54-2.26-7.53-6.36-15.95-12.2-25.02-1.09-1.69-3.34-2.18-5.04-1.09s-2.18,3.34-1.09,5.03c5.46,8.5,9.28,16.29,11.35,23.17.4,1.32,1.48,2.25,2.74,2.52Z"/><path class="cls-35" d="m537.53,329.34c1.25.26,2.59-.13,3.5-1.16,1.33-1.51,1.18-3.81-.33-5.14-9.75-8.57-20.27-17.08-31.27-25.3-1.61-1.21-3.9-.87-5.1.74-1.2,1.61-.87,3.9.74,5.1,10.85,8.1,21.21,16.49,30.82,24.93.49.43,1.06.7,1.65.83Z"/></g><g><path class="cls-55" d="m508.59,279.61c1.38.29,2.87-.24,3.74-1.47,1.16-1.65.76-3.92-.88-5.08-3.63-2.55-7.33-5.11-11-7.6-16.62-11.27-33.59-21.84-50.43-31.4-1.75-.99-3.97-.38-4.97,1.37-.99,1.75-.38,3.97,1.37,4.97,16.67,9.47,33.48,19.93,49.94,31.1,3.64,2.47,7.3,5,10.9,7.53.42.29.87.49,1.34.59Z"/><path class="cls-55" d="m383.39,209.03c1.68.36,3.42-.52,4.11-2.16.78-1.86-.1-3.99-1.95-4.77-17.99-7.54-35.03-13.43-50.64-17.51-1.95-.5-3.94.66-4.45,2.6-.51,1.95.66,3.94,2.6,4.45,15.28,3.99,31.99,9.77,49.66,17.18.22.09.44.16.66.21Z"/><path class="cls-55" d="m261.25,258.5c.85.18,1.77.06,2.59-.42,1.74-1.01,2.33-3.24,1.32-4.98-8.28-14.22-12.87-26.67-13.65-37-.15-2.01-1.9-3.51-3.91-3.36-2.01.15-3.51,1.9-3.36,3.91.87,11.44,5.78,24.94,14.62,40.12.54.93,1.42,1.53,2.39,1.73Z"/><path class="cls-55" d="m347.35,354.05c1.27.27,2.64-.15,3.54-1.21,1.3-1.53,1.12-3.83-.42-5.14-8.71-7.39-17.1-14.92-24.94-22.36-1.46-1.38-3.77-1.33-5.15.13s-1.33,3.77.13,5.15c7.94,7.54,16.43,15.15,25.24,22.63.48.41,1.03.67,1.6.79Z"/><path class="cls-55" d="m445.28,424.04c1.48.31,3.06-.32,3.88-1.69,1.04-1.73.48-3.96-1.25-5-11.77-7.06-23.62-14.63-35.22-22.5-3.14-2.13-6.31-4.32-9.42-6.49-1.65-1.15-3.92-.75-5.07.9-1.15,1.65-.75,3.92.89,5.07,3.14,2.2,6.34,4.4,9.51,6.55,11.72,7.95,23.68,15.59,35.56,22.72.36.21.73.36,1.12.44Z"/><path class="cls-55" d="m533.95,468.43c1.71.36,3.48-.55,4.14-2.23.74-1.87-.19-3.99-2.06-4.72-19.94-7.84-40.96-17.74-62.46-29.44-1.77-.96-3.98-.31-4.94,1.46-.96,1.77-.31,3.98,1.46,4.94,21.77,11.84,43.05,21.87,63.28,29.82.19.08.39.13.58.17Z"/><path class="cls-55" d="m637.24,485.98c.56.12,1.15.11,1.73-.06,9.26-2.58,16.18-7.18,20.59-13.68,9.66-14.24,6.22-36.25-9.95-63.64-1.02-1.73-3.26-2.31-4.99-1.29-1.73,1.02-2.31,3.26-1.29,4.99,14.64,24.79,18.16,44.1,10.2,55.85-3.41,5.03-8.97,8.64-16.51,10.75-1.94.54-3.07,2.55-2.53,4.49.38,1.35,1.47,2.31,2.76,2.59Z"/></g><g><path class="cls-51" d="m450.54,221.03c2,.42,4.14-.46,5.22-2.33,1.34-2.32.54-5.3-1.78-6.63-12.47-7.19-25.04-14.02-37.36-20.32-2.39-1.22-5.32-.27-6.54,2.12s-.27,5.32,2.12,6.54c12.18,6.22,24.6,12.98,36.93,20.09.45.26.93.44,1.42.55Z"/><path class="cls-51" d="m362.92,177.44c2.25.48,4.58-.7,5.49-2.9,1.02-2.48-.15-5.32-2.63-6.35-29.41-12.16-56.38-20.63-80.15-25.18-2.64-.5-5.18,1.22-5.68,3.86-.5,2.64,1.22,5.19,3.86,5.68,23.13,4.42,49.46,12.71,78.26,24.62.28.12.57.2.85.26Z"/><path class="cls-51" d="m216.61,245.77c1.18.25,2.46.06,3.56-.62,2.28-1.41,2.99-4.41,1.57-6.69-20.03-32.37-25.45-58.47-15.25-73.51,1.51-2.22.93-5.24-1.29-6.75-2.22-1.51-5.24-.93-6.75,1.29-12.66,18.67-7.46,47.74,15.03,84.08.73,1.17,1.87,1.93,3.12,2.2Z"/><path class="cls-51" d="m424.85,435.73c1.93.41,4-.39,5.12-2.16,1.43-2.27.76-5.27-1.51-6.7-8.65-5.46-17.38-11.18-25.94-16.99-15.23-10.33-30.18-21.11-44.44-32.05-2.13-1.63-5.18-1.23-6.81.9-1.63,2.13-1.23,5.18.9,6.81,14.41,11.06,29.52,21.95,44.9,32.39,8.65,5.87,17.47,11.64,26.21,17.16.5.32,1.04.53,1.59.65Z"/><path class="cls-51" d="m618.17,522.27c11.61,2.46,22.41,4.01,32.18,4.59,2.68.16,4.98-1.88,5.14-4.56.16-2.68-1.88-4.98-4.56-5.14-23.85-1.43-54.25-8.91-87.93-21.63-2.51-.95-5.31.32-6.26,2.83-.95,2.51.32,5.31,2.83,6.26,20.95,7.92,40.74,13.86,58.6,17.65Z"/><path class="cls-51" d="m692.06,520.46c1.05.22,2.17.1,3.2-.42,6.48-3.28,11.65-7.71,15.35-13.17,4.74-6.99,7.01-15.53,6.75-25.38-.07-2.68-2.31-4.8-4.99-4.72-2.68.07-4.8,2.31-4.72,4.99.21,7.77-1.5,14.39-5.08,19.67-2.77,4.08-6.7,7.43-11.7,9.96-2.39,1.21-3.35,4.13-2.14,6.53.69,1.37,1.94,2.26,3.33,2.56Z"/><path class="cls-51" d="m674.9,407.53c1.33.28,2.76,0,3.93-.87,2.14-1.61,2.57-4.66.96-6.8-7-9.3-14.98-18.95-23.7-28.69-1.79-2-4.86-2.17-6.86-.38-2,1.79-2.17,4.86-.38,6.86,8.54,9.54,16.34,18.98,23.18,28.06.73.97,1.76,1.59,2.87,1.83Z"/></g><g><path class="cls-53" d="m501.4,215.92c1.91.41,3.97-.38,5.09-2.12,1.46-2.25.81-5.26-1.45-6.72-15.77-10.18-31.82-20.03-47.68-29.26-2.32-1.35-5.29-.56-6.64,1.75s-.56,5.29,1.75,6.64c15.74,9.16,31.65,18.93,47.3,29.03.51.33,1.06.55,1.63.67Z"/><path class="cls-53" d="m347.94,132.71c2.21.47,4.52-.66,5.46-2.82,1.07-2.46-.06-5.32-2.52-6.39-12.56-5.46-25.01-10.5-37.03-15-2.51-.94-5.31.33-6.25,2.85s.33,5.31,2.85,6.25c11.86,4.44,24.16,9.42,36.56,14.81.31.13.62.23.93.3Z"/><path class="cls-53" d="m205.72,297.09c1.51.32,3.14-.08,4.34-1.22,1.95-1.84,2.04-4.92.2-6.87-4.82-5.11-9.55-10.27-14.04-15.33-1.78-2.01-4.85-2.19-6.86-.41s-2.19,4.85-.41,6.86c4.56,5.13,9.35,10.36,14.23,15.54.7.75,1.59,1.22,2.52,1.42Z"/><path class="cls-53" d="m269.48,358.01c1.67.35,3.48-.18,4.68-1.56,1.76-2.02,1.55-5.09-.48-6.85-12.62-10.98-24.82-22.14-36.25-33.16-1.93-1.86-5.01-1.81-6.87.12-1.86,1.93-1.81,5.01.12,6.87,11.55,11.14,23.87,22.41,36.62,33.5.64.56,1.4.92,2.18,1.09Z"/><path class="cls-53" d="m508.14,519.02c2.1.44,4.32-.55,5.34-2.55,1.22-2.39.26-5.32-2.13-6.53-19.52-9.92-39.47-20.86-59.27-32.51-2.31-1.36-5.29-.59-6.65,1.72-1.36,2.31-.59,5.29,1.72,6.65,19.97,11.75,40.09,22.78,59.79,32.8.39.2.79.34,1.2.42Z"/><path class="cls-53" d="m602.15,560.28c2.33.49,4.73-.79,5.57-3.1.92-2.52-.39-5.31-2.91-6.22-6.76-2.45-13.7-5.1-20.65-7.87-2.49-1-5.32.22-6.31,2.71-.99,2.49.22,5.32,2.71,6.31,7.04,2.81,14.08,5.49,20.93,7.98.22.08.44.14.66.19Z"/><path class="cls-53" d="m719.3,586.33c.3.06.61.1.92.1,22.55.41,40.63-3.37,53.73-11.23,2.3-1.38,3.05-4.36,1.67-6.67-1.38-2.3-4.36-3.05-6.67-1.67-11.52,6.91-27.85,10.22-48.55,9.85-2.68-.05-4.9,2.09-4.95,4.77-.04,2.37,1.61,4.37,3.84,4.84Z"/><path class="cls-53" d="m750.75,437.96c1.29.27,2.68.02,3.84-.8,2.18-1.56,2.68-4.6,1.12-6.78-9.91-13.83-21.51-28.28-34.48-42.95-1.78-2.01-4.85-2.2-6.86-.42-2.01,1.78-2.2,4.85-.42,6.86,12.75,14.43,24.14,28.62,33.86,42.18.73,1.03,1.8,1.68,2.94,1.92Z"/><path class="cls-53" d="m643.15,322.66c1.66.35,3.45-.18,4.65-1.54,1.78-2.01,1.58-5.08-.43-6.86-8.86-7.82-18.11-15.71-27.5-23.45-2.07-1.71-5.13-1.41-6.84.66-1.71,2.07-1.41,5.13.66,6.84,9.3,7.67,18.47,15.49,27.25,23.23.65.57,1.41.94,2.2,1.11Z"/></g><g><path class="cls-45" d="m728.14,660.04c2.56.54,5.1-1.04,5.72-3.6.64-2.61-.96-5.24-3.57-5.87-11.08-2.71-22.68-5.91-34.49-9.51-2.57-.78-5.28.66-6.06,3.23-.78,2.57.66,5.28,3.23,6.06,11.98,3.65,23.76,6.9,35.01,9.65.05.01.1.02.15.03Z"/><path class="cls-45" d="m762.51,667.22c.06.01.13.03.2.04,4.94.84,9.85,1.59,14.6,2.22,2.66.35,5.1-1.52,5.45-4.18.35-2.66-1.52-5.11-4.18-5.45-4.63-.61-9.42-1.34-14.25-2.16-2.64-.45-5.15,1.33-5.6,3.97-.44,2.58,1.24,5.03,3.78,5.57Z"/><path class="cls-45" d="m804.59,412.28c1.46.31,3.04-.06,4.24-1.13,2-1.79,2.18-4.86.39-6.86-6.31-7.08-12.95-14.29-19.73-21.44-1.85-1.95-4.92-2.03-6.87-.18-1.95,1.85-2.03,4.92-.18,6.87,6.71,7.08,13.28,14.22,19.53,21.23.72.8,1.64,1.31,2.61,1.52Z"/><path class="cls-45" d="m672.59,286.83c1.71.36,3.57-.22,4.76-1.66,1.71-2.07,1.42-5.13-.65-6.84-24.76-20.45-50.98-40.74-77.93-60.31-2.17-1.58-5.21-1.1-6.79,1.08-1.58,2.17-1.1,5.21,1.08,6.79,26.79,19.46,52.85,39.63,77.45,59.95.62.52,1.34.85,2.08,1.01Z"/><path class="cls-45" d="m425.31,118.43c2.03.43,4.2-.49,5.26-2.4,1.3-2.35.45-5.3-1.9-6.6-9.84-5.45-19.79-10.82-29.58-15.95-2.38-1.24-5.31-.33-6.56,2.05-1.25,2.38-.33,5.31,2.05,6.56,9.72,5.1,19.6,10.43,29.38,15.84.43.24.89.41,1.35.5Z"/><path class="cls-45" d="m348.43,78.83c2.15.46,4.41-.6,5.39-2.67,1.15-2.42.12-5.32-2.3-6.47-41.45-19.7-81.38-35.93-118.67-48.25-2.55-.84-5.3.54-6.14,3.09-.84,2.55.54,5.3,3.09,6.14,36.92,12.19,76.46,28.28,117.55,47.8.35.17.72.29,1.08.37Z"/><path class="cls-45" d="m220.72,377.69c1.69.36,3.52-.2,4.72-1.61,1.73-2.05,1.48-5.11-.57-6.85-10.88-9.2-21.61-18.57-31.9-27.83-1.99-1.8-5.07-1.63-6.86.36-1.79,1.99-1.63,5.07.36,6.86,10.37,9.33,21.18,18.76,32.13,28.03.63.54,1.37.88,2.13,1.04Z"/><path class="cls-45" d="m485.64,559.71c2.04.43,4.21-.49,5.26-2.41,1.29-2.35.44-5.31-1.92-6.6-42.86-23.57-86.1-50.11-128.5-78.87-2.22-1.51-5.24-.93-6.75,1.29s-.93,5.24,1.29,6.75c42.65,28.93,86.14,55.62,129.27,79.34.43.24.88.4,1.34.5Z"/><path class="cls-45" d="m555.61,595.71c2.14.45,4.4-.59,5.39-2.66,1.16-2.42.13-5.32-2.29-6.48-5.62-2.69-11.35-5.48-17.01-8.29-2.4-1.19-5.32-.21-6.51,2.19-1.19,2.4-.21,5.32,2.19,6.51,5.7,2.83,11.47,5.64,17.14,8.35.36.17.72.29,1.09.37Z"/></g><g><ellipse class="cls-24" cx="456" cy="323.67" rx="17.8" ry="52.71" transform="translate(-70.2 512.91) rotate(-55.15)"/><path class="cls-25" d="m412.94,293.26c-5.61,8.05,9.2,28.09,33.08,44.73,23.89,16.64,47.88,23.47,53.43,15.52,16.64-23.89,10.76-56.74-13.13-73.38-23.89-16.64-56.74-10.76-73.38,13.13Z"/></g></g><g><g><circle class="cls-50" cx="260.79" cy="357.43" r="7.67"/><circle class="cls-50" cx="206.3" cy="105.61" r="7.67"/><circle class="cls-50" cx="658.88" cy="307.85" r="7.67"/></g><g><circle class="cls-37" cx="477.68" cy="570.87" r="7.67"/><circle class="cls-37" cx="884.96" cy="519.68" r="7.67"/><circle class="cls-37" cx="227.19" cy="385.25" r="7.67"/><circle class="cls-37" cx="300.45" cy="214.92" r="7.67"/><circle class="cls-37" cx="571.57" cy="201.83" r="7.67"/><circle class="cls-37" cx="690.11" cy="507.7" r="7.67"/></g><g><circle class="cls-57" cx="910.73" cy="555.31" r="7.67"/><circle class="cls-57" cx="515.82" cy="546.27" r="7.67"/><circle class="cls-57" cx="565.9" cy="589.57" r="7.67"/><circle class="cls-57" cx="223.05" cy="321.51" r="7.67"/><circle class="cls-57" cx="173" cy="381.6" r="7.67"/><circle class="cls-57" cx="168.86" cy="74" r="7.67"/><circle class="cls-57" cx="214.38" cy="204.52" r="7.67"/><circle class="cls-57" cx="258.55" cy="50.54" r="7.67"/><circle class="cls-57" cx="299.83" cy="62.74" r="7.67"/><circle class="cls-57" cx="614.4" cy="286.77" r="7.67"/><circle class="cls-57" cx="684.04" cy="536.36" r="7.67"/><circle class="cls-57" cx="565.19" cy="158.01" r="7.67"/><circle class="cls-57" cx="616.73" cy="200.44" r="7.67"/></g><g><g><path class="cls-23" d="m516.77,363.45l3.69,1.93c3.25,1.71,5.39,4.98,5.63,8.65l.27,4.15,1.94-3.69c1.71-3.25,4.98-5.38,8.64-5.62l4.16-.28-3.69-1.93c-3.25-1.71-5.39-4.98-5.63-8.65l-.27-4.15-1.94,3.69c-1.71,3.25-4.98,5.38-8.64,5.62l-4.16.27Z"/><circle class="cls-58" cx="528.93" cy="366.03" r="14.34"/></g><g><g><path class="cls-23" d="m245.71,379.13l5.31,2.79c4.69,2.46,7.76,7.18,8.11,12.47l.39,5.99,2.79-5.32c2.46-4.68,7.18-7.75,12.45-8.1l5.99-.4-5.31-2.79c-4.69-2.46-7.76-7.18-8.11-12.47l-.39-5.99-2.79,5.32c-2.46,4.68-7.18,7.75-12.45,8.1l-5.99.4Z"/><circle class="cls-14" cx="263.24" cy="382.85" r="23.19"/></g><g><path class="cls-23" d="m675.7,299.76l3.69,1.93c3.25,1.71,5.39,4.98,5.63,8.65l.27,4.15,1.94-3.69c1.71-3.25,4.98-5.38,8.64-5.62l4.16-.28-3.69-1.93c-3.25-1.71-5.39-4.98-5.63-8.65l-.27-4.15-1.94,3.69c-1.71,3.25-4.98,5.38-8.64,5.62l-4.16.27Z"/><circle class="cls-12" cx="687.86" cy="302.33" r="14.34"/></g><g><path class="cls-23" d="m211.67,78.51l7.42,3.89c6.55,3.44,10.84,10.03,11.32,17.41l.55,8.36,3.9-7.42c3.44-6.54,10.02-10.82,17.39-11.31l8.37-.55-7.42-3.89c-6.55-3.44-10.84-10.03-11.32-17.41l-.55-8.36-3.9,7.42c-3.44,6.54-10.02,10.82-17.39,11.31l-8.37.55Z"/><circle class="cls-11" cx="236.14" cy="83.69" r="29.41"/></g><g><path class="cls-23" d="m624.54,489.49l7.42,3.89c6.55,3.44,10.84,10.03,11.32,17.41l.55,8.36,3.9-7.42c3.44-6.54,10.02-10.82,17.39-11.31l8.37-.55-7.42-3.89c-6.55-3.44-10.84-10.03-11.32-17.41l-.55-8.36-3.9,7.42c-3.44,6.54-10.02,10.82-17.39,11.31l-8.37.55Z"/><circle class="cls-15" cx="649.02" cy="494.68" r="29.41"/></g></g></g></g></g><g><g><ellipse id="GalaxyFog1-2" class="cls-49" cx="2071.6" cy="813.63" rx="743.42" ry="238.06" transform="translate(-153.87 842.3) rotate(-22.18)"/><ellipse id="GalaxyFog2-2" class="cls-29" cx="2071.58" cy="813.51" rx="552.77" ry="177.01" transform="translate(-153.82 842.28) rotate(-22.18)"/><ellipse id="GalaxyFog3-2" class="cls-33" cx="2071.58" cy="813.57" rx="420.69" ry="134.71" transform="translate(-153.84 842.29) rotate(-22.18)"/><ellipse id="GalaxyFog4-2" class="cls-39" cx="2071.6" cy="813.56" rx="337.19" ry="107.97" transform="translate(-153.84 842.29) rotate(-22.18)"/><ellipse id="GalaxyFog5-2" class="cls-41" cx="2071.6" cy="813.57" rx="246.28" ry="78.86" transform="translate(-153.84 842.3) rotate(-22.18)"/><g><path class="cls-40" d="m2259.25,701.04c-.23,0-.47-.02-.7-.05-5.5-.77-11.55-1.25-17.98-1.42-2.78-.08-4.97-2.39-4.89-5.17.08-2.78,2.39-4.95,5.17-4.9,6.81.18,13.23.69,19.1,1.52,2.75.38,4.67,2.93,4.29,5.68-.35,2.52-2.51,4.34-4.98,4.34Z"/><path class="cls-40" d="m2302.22,745.43c-.46,0-.92-.06-1.39-.2-2.67-.77-4.22-3.55-3.45-6.22,1.88-6.56,1.8-12.42-.23-17.4-.66-1.61-1.53-3.15-2.58-4.59-1.65-2.24-1.17-5.39,1.07-7.04,2.24-1.65,5.39-1.17,7.04,1.07,1.55,2.11,2.83,4.38,3.8,6.76,2.9,7.12,3.1,15.18.58,23.97-.63,2.21-2.65,3.65-4.84,3.65Z"/><path class="cls-40" d="m2257.25,802.62c-1.43,0-2.85-.61-3.85-1.78-1.79-2.12-1.53-5.3.59-7.09,15.51-13.12,27.26-25.66,34.91-37.29,1.53-2.32,4.65-2.97,6.97-1.44s2.97,4.65,1.44,6.97c-8.18,12.43-20.57,25.71-36.82,39.45-.95.8-2.1,1.19-3.25,1.19Z"/><path class="cls-40" d="m2147.17,871.36c-1.87,0-3.67-1.05-4.54-2.85-1.21-2.5-.16-5.51,2.34-6.72,6.49-3.14,12.96-6.38,19.22-9.65,2.46-1.28,5.5-.33,6.79,2.14,1.29,2.46.33,5.5-2.14,6.79-6.35,3.31-12.91,6.6-19.5,9.78-.71.34-1.45.5-2.19.5Z"/><path class="cls-40" d="m1935.2,934.98c-2.59,0-4.79-1.99-5.01-4.62-.23-2.77,1.83-5.2,4.6-5.43,15.8-1.3,33.09-3.92,51.41-7.77,2.72-.57,5.39,1.17,5.96,3.89.57,2.72-1.17,5.39-3.89,5.96-18.73,3.94-36.45,6.62-52.66,7.96-.14.01-.28.02-.42.02Z"/><path class="cls-40" d="m1901.41,935.66c-.09,0-.19,0-.28,0-5.08-.28-9.94-.76-14.45-1.42-2.75-.4-4.65-2.96-4.25-5.71.4-2.75,2.96-4.65,5.71-4.25,4.21.62,8.76,1.06,13.54,1.32,2.78.15,4.9,2.53,4.75,5.3-.15,2.68-2.37,4.76-5.02,4.76Z"/><path class="cls-40" d="m1850.55,877.55c-.82,0-1.64-.2-2.41-.62-2.44-1.33-3.33-4.39-2-6.83,5.21-9.53,13.17-19.73,23.64-30.31,1.96-1.98,5.14-1.99,7.12-.04s1.99,5.14.04,7.12c-9.81,9.92-17.21,19.36-21.97,28.06-.91,1.67-2.64,2.62-4.42,2.62Z"/><path class="cls-40" d="m1962.67,783.72c-1.76,0-3.47-.92-4.39-2.57-1.36-2.42-.5-5.49,1.92-6.85,15.63-8.79,32.28-17.28,49.5-25.23,2.52-1.17,5.51-.07,6.68,2.46,1.17,2.52.06,5.51-2.46,6.68-16.98,7.84-33.39,16.21-48.79,24.87-.78.44-1.63.65-2.46.65Z"/></g><g><path class="cls-38" d="m2016.03,724.82c-1.95,0-3.81-1.14-4.63-3.05-1.09-2.56.09-5.51,2.65-6.61,5.64-2.41,11.37-4.81,17.04-7.12,25.69-10.47,51.64-19.89,77.14-27.99,2.65-.84,5.48.62,6.32,3.27.84,2.65-.62,5.48-3.27,6.32-25.24,8.02-50.94,17.35-76.38,27.72-5.62,2.29-11.3,4.66-16.88,7.05-.65.28-1.32.41-1.98.41Z"/><path class="cls-38" d="m2205.42,665.3c-2.37,0-4.48-1.68-4.94-4.09-.52-2.73,1.27-5.36,4-5.88,26.47-5.04,51.18-8.12,73.44-9.16,2.78-.12,5.13,2.02,5.26,4.79.13,2.78-2.02,5.13-4.79,5.26-21.79,1.01-46.02,4.04-72.03,8.99-.32.06-.63.09-.95.09Z"/><path class="cls-38" d="m2356.29,767.13c-1.2,0-2.41-.43-3.38-1.3-2.06-1.87-2.22-5.05-.35-7.11,15.26-16.85,25.03-32.35,29.05-46.09.78-2.67,3.58-4.2,6.24-3.42,2.67.78,4.2,3.57,3.42,6.24-4.45,15.21-14.96,32.04-31.25,50.02-.99,1.1-2.36,1.65-3.73,1.65Z"/><path class="cls-38" d="m2212.58,871.59c-1.79,0-3.52-.96-4.43-2.64-1.32-2.45-.41-5.5,2.04-6.82,13.88-7.5,27.38-15.26,40.1-23.08,2.37-1.45,5.47-.71,6.92,1.65s.71,5.47-1.65,6.92c-12.88,7.91-26.54,15.77-40.59,23.36-.76.41-1.58.61-2.39.61Z"/><path class="cls-38" d="m2060.21,938.12c-2.09,0-4.04-1.31-4.76-3.4-.9-2.63.49-5.49,3.12-6.4,17.92-6.17,36.1-13.01,54.04-20.32,4.86-1.98,9.77-4.02,14.59-6.07,2.56-1.09,5.51.1,6.6,2.66,1.09,2.56-.1,5.51-2.66,6.6-4.87,2.07-9.82,4.13-14.73,6.13-18.11,7.38-36.46,14.29-54.56,20.52-.54.19-1.1.28-1.64.28Z"/><path class="cls-38" d="m1927.67,972.71c-2.41,0-4.55-1.74-4.96-4.2-.46-2.74,1.39-5.34,4.13-5.79,29.19-4.88,60.43-12.24,92.83-21.89,2.66-.79,5.47.72,6.26,3.39.79,2.66-.72,5.47-3.39,6.26-32.8,9.76-64.44,17.22-94.04,22.17-.28.05-.56.07-.84.07Z"/><path class="cls-38" d="m1783.08,966.83c-.78,0-1.58-.18-2.32-.57-11.77-6.14-19.81-14.34-23.9-24.38-8.98-22.01,1.98-50.77,31.68-83.15,1.88-2.05,5.06-2.19,7.11-.31,2.05,1.88,2.19,5.06.31,7.11-26.88,29.31-37.17,54.4-29.77,72.55,3.17,7.77,9.64,14.25,19.24,19.25,2.46,1.29,3.42,4.33,2.13,6.79-.9,1.72-2.65,2.71-4.47,2.71Z"/></g><g><path class="cls-32" d="m2111.24,662.28c-2.83,0-5.46-1.8-6.38-4.64-1.14-3.52.78-7.31,4.31-8.46,18.91-6.14,37.85-11.78,56.3-16.76,3.58-.96,7.26,1.15,8.23,4.73s-1.15,7.26-4.73,8.23c-18.24,4.92-36.96,10.49-55.65,16.56-.69.22-1.39.33-2.07.33Z"/><path class="cls-32" d="m2242.12,628.47c-3.17,0-5.99-2.26-6.59-5.49-.67-3.64,1.73-7.15,5.38-7.82,43.23-8,82.09-11.73,115.51-11.07,3.71.07,6.65,3.14,6.58,6.84-.07,3.71-3.14,6.66-6.84,6.58-32.52-.65-70.47,3.01-112.81,10.85-.41.08-.82.11-1.23.11Z"/><path class="cls-32" d="m2420.26,762.72c-1.67,0-3.34-.62-4.64-1.86-2.68-2.56-2.77-6.81-.21-9.49,36.34-38,51.14-71.72,41.66-94.97-1.4-3.43.25-7.35,3.68-8.75,3.43-1.4,7.35.25,8.75,3.68,11.76,28.85-3.59,66.65-44.39,109.31-1.32,1.38-3.08,2.07-4.85,2.07Z"/><path class="cls-32" d="m2084.46,959.76c-2.73,0-5.29-1.67-6.29-4.38-1.29-3.48.49-7.34,3.96-8.62,13.25-4.91,26.68-10.13,39.92-15.53,23.53-9.59,46.83-19.88,69.23-30.59,3.34-1.6,7.35-.18,8.95,3.16,1.6,3.34.18,7.35-3.16,8.95-22.64,10.81-46.18,21.21-69.95,30.9-13.37,5.45-26.94,10.73-40.33,15.69-.77.28-1.56.42-2.33.42Z"/><path class="cls-32" d="m1798.45,1021.34c-16.39,0-31.43-1-44.81-3.01-3.67-.55-6.19-3.97-5.64-7.63.55-3.67,3.97-6.19,7.63-5.64,32.64,4.9,75.86,3.5,125.01-4.05,3.67-.56,7.09,1.95,7.65,5.61.56,3.66-1.95,7.09-5.61,7.65-30.58,4.7-59.02,7.06-84.23,7.06Z"/><path class="cls-32" d="m1699.13,997.73c-1.48,0-2.96-.48-4.2-1.48-7.82-6.29-13.53-13.76-16.97-22.2-4.41-10.81-5.03-23-1.85-36.23.87-3.6,4.49-5.82,8.09-4.96,3.6.87,5.82,4.49,4.96,8.09-2.51,10.44-2.1,19.87,1.23,28.03,2.57,6.3,6.93,11.96,12.96,16.81,2.89,2.32,3.35,6.55,1.02,9.43-1.33,1.65-3.27,2.5-5.23,2.5Z"/><path class="cls-32" d="m1754.65,850.04c-1.87,0-3.74-.78-5.06-2.3-2.43-2.79-2.14-7.03.65-9.47,12.13-10.56,25.67-21.32,40.25-31.98,2.99-2.19,7.19-1.54,9.38,1.46,2.19,2.99,1.54,7.19-1.45,9.38-14.28,10.44-27.52,20.96-39.36,31.27-1.27,1.11-2.84,1.65-4.4,1.65Z"/></g><g><path class="cls-28" d="m2043.98,640.81c-2.7,0-5.25-1.64-6.27-4.32-1.32-3.46.42-7.34,3.88-8.66,24.23-9.24,48.73-17.95,72.81-25.89,3.52-1.16,7.31.75,8.47,4.27s-.75,7.31-4.27,8.47c-23.89,7.87-48.19,16.51-72.23,25.68-.79.3-1.6.44-2.39.44Z"/><path class="cls-28" d="m2275.17,572.33c-3.12,0-5.92-2.19-6.57-5.37-.74-3.63,1.6-7.18,5.24-7.91,18.53-3.78,36.81-7.03,54.33-9.66,3.66-.55,7.08,1.97,7.63,5.64s-1.97,7.08-5.64,7.63c-17.29,2.6-35.34,5.81-53.64,9.54-.45.09-.9.14-1.35.14Z"/><path class="cls-28" d="m2420.27,835.18c-2.13,0-4.22-1.01-5.52-2.89-2.11-3.05-1.35-7.23,1.69-9.34,7.98-5.53,15.84-11.15,23.36-16.7,2.98-2.2,7.18-1.57,9.38,1.42s1.57,7.18-1.42,9.38c-7.63,5.63-15.6,11.32-23.69,16.93-1.17.81-2.5,1.2-3.82,1.2Z"/><path class="cls-28" d="m2316.67,899.24c-2.36,0-4.65-1.25-5.87-3.45-1.8-3.24-.63-7.32,2.61-9.12,20.2-11.23,39.88-22.81,58.48-34.43,3.14-1.96,7.28-1.01,9.25,2.14,1.96,3.14,1.01,7.28-2.14,9.25-18.8,11.74-38.67,23.44-59.07,34.78-1.03.57-2.15.85-3.25.85Z"/><path class="cls-28" d="m1948.06,1048.45c-2.96,0-5.68-1.98-6.48-4.98-.96-3.58,1.17-7.26,4.75-8.22,29.23-7.82,59.3-16.89,89.4-26.96,3.51-1.18,7.32.72,8.49,4.23,1.18,3.51-.72,7.32-4.23,8.49-30.36,10.16-60.7,19.31-90.19,27.2-.58.16-1.16.23-1.74.23Z"/><path class="cls-28" d="m1809.22,1077.28c-3.29,0-6.17-2.42-6.64-5.78-.52-3.67,2.04-7.06,5.71-7.58,9.83-1.38,19.98-2.97,30.15-4.73,3.65-.63,7.12,1.82,7.75,5.47.63,3.65-1.82,7.12-5.47,7.75-10.31,1.78-20.6,3.39-30.57,4.79-.32.04-.63.07-.94.07Z"/><path class="cls-28" d="m1643.45,1078.94c-.42,0-.85-.04-1.28-.12-30.59-5.9-53.93-16.18-69.39-30.56-2.71-2.52-2.87-6.77-.34-9.48,2.52-2.71,6.77-2.87,9.48-.34,13.59,12.64,34.71,21.79,62.79,27.21,3.64.7,6.02,4.22,5.32,7.86-.62,3.21-3.43,5.44-6.58,5.44Z"/><path class="cls-28" d="m1643.44,869.43c-1.82,0-3.63-.74-4.96-2.19-2.5-2.74-2.31-6.98.43-9.48,17.35-15.85,37.17-32.05,58.89-48.17,2.98-2.21,7.18-1.58,9.39,1.39,2.21,2.98,1.58,7.18-1.39,9.39-21.36,15.84-40.82,31.76-57.84,47.3-1.29,1.18-2.91,1.76-4.52,1.76Z"/><path class="cls-28" d="m1821.87,744.45c-2.34,0-4.61-1.23-5.85-3.41-1.82-3.23-.69-7.32,2.54-9.14,14.21-8.03,28.97-16.04,43.87-23.81,3.29-1.71,7.34-.44,9.05,2.85,1.71,3.29.44,7.34-2.85,9.05-14.77,7.7-29.39,15.64-43.47,23.59-1.04.59-2.18.87-3.3.87Z"/></g><g><path class="cls-48" d="m1610.4,1176c-3.61,0-6.59-2.87-6.7-6.5-.11-3.7,2.8-6.8,6.5-6.91,15.74-.49,32.34-1.49,49.33-2.97,3.69-.32,6.95,2.41,7.27,6.1.32,3.69-2.41,6.95-6.1,7.27-17.24,1.5-34.08,2.52-50.08,3.01-.07,0-.14,0-.21,0Z"/><path class="cls-48" d="m1561.89,1175.86c-.09,0-.18,0-.27,0-6.92-.28-13.77-.68-20.36-1.19-3.7-.29-6.46-3.51-6.17-7.21.29-3.7,3.51-6.47,7.21-6.17,6.43.5,13.11.88,19.87,1.16,3.7.15,6.58,3.27,6.44,6.97-.15,3.61-3.12,6.44-6.7,6.44Z"/><path class="cls-48" d="m1578.05,819.31c-2.06,0-4.1-.95-5.41-2.74-2.19-2.99-1.55-7.19,1.43-9.38,10.55-7.75,21.59-15.6,32.8-23.32,3.05-2.1,7.23-1.33,9.33,1.72,2.1,3.05,1.33,7.23-1.72,9.33-11.1,7.65-22.02,15.41-32.47,23.09-1.2.88-2.59,1.3-3.97,1.3Z"/><path class="cls-48" d="m1792.34,687.6c-2.42,0-4.76-1.31-5.95-3.6-1.72-3.29-.44-7.34,2.84-9.05,39.31-20.54,80.56-40.45,122.58-59.18,3.38-1.51,7.35.01,8.86,3.4,1.51,3.38-.01,7.35-3.4,8.86-41.77,18.62-82.76,38.41-121.83,58.82-.99.52-2.05.76-3.1.76Z"/><path class="cls-48" d="m2174.72,530.87c-2.87,0-5.53-1.86-6.41-4.75-1.08-3.54.91-7.3,4.45-8.38,14.86-4.55,29.84-8.95,44.53-13.08,3.57-1,7.27,1.08,8.28,4.64,1,3.57-1.08,7.27-4.64,8.28-14.59,4.1-29.48,8.47-44.24,12.99-.65.2-1.32.3-1.97.3Z"/><path class="cls-48" d="m2289.95,499.38c-3.03,0-5.78-2.07-6.52-5.15-.86-3.6,1.36-7.23,4.97-8.09,61.65-14.74,120.25-25.25,174.18-31.21,3.69-.4,7,2.25,7.41,5.93.41,3.68-2.25,7-5.93,7.41-53.38,5.91-111.42,16.31-172.53,30.93-.52.13-1.05.19-1.57.19Z"/><path class="cls-48" d="m2376.92,939.8c-2.39,0-4.7-1.28-5.92-3.53-1.76-3.26-.53-7.33,2.73-9.09,17.33-9.32,34.52-18.9,51.08-28.47,3.21-1.85,7.31-.76,9.17,2.45,1.85,3.21.76,7.31-2.45,9.17-16.68,9.64-33.99,19.29-51.44,28.67-1.01.54-2.1.8-3.17.8Z"/><path class="cls-48" d="m1966.81,1109.88c-2.88,0-5.54-1.87-6.42-4.77-1.07-3.55.93-7.29,4.48-8.37,64.67-19.58,130.69-43.05,196.22-69.77,3.43-1.4,7.35.25,8.75,3.68s-.25,7.35-3.68,8.75c-65.92,26.87-132.33,50.49-197.4,70.18-.65.2-1.3.29-1.95.29Z"/><path class="cls-48" d="m1861.95,1138.49c-3.03,0-5.77-2.06-6.52-5.13-.87-3.6,1.34-7.23,4.94-8.1,8.37-2.02,16.9-4.15,25.36-6.33,3.59-.92,7.25,1.24,8.17,4.83.92,3.59-1.24,7.25-4.83,8.17-8.52,2.19-17.11,4.34-25.55,6.38-.53.13-1.06.19-1.58.19Z"/></g><g><ellipse class="cls-24" cx="2074.47" cy="799.41" rx="72.81" ry="24.58" transform="translate(-147.59 869.64) rotate(-22.88)"/><path class="cls-25" d="m2141.36,770.66c5.27,12.49-20.47,35.32-57.52,50.96-37.04,15.64-71.43,18-76.64,5.66-15.64-37.04,1.72-79.75,38.76-95.39,37.04-15.64,79.75,1.72,95.39,38.76Z"/></g></g><g><g><path class="cls-47" d="m2339.17,900.95c0,5.85-4.74,10.59-10.59,10.59-5.85,0-10.59-4.74-10.59-10.59,0-5.85,4.74-10.59,10.59-10.59,5.85,0,10.59,4.74,10.59,10.59Z"/><path class="cls-47" d="m2484.93,576.28c0,5.85-4.74,10.59-10.59,10.59-5.85,0-10.59-4.74-10.59-10.59,0-5.85,4.74-10.59,10.59-10.59,5.85,0,10.59,4.74,10.59,10.59Z"/><path class="cls-47" d="m1815.44,719.93c0,5.85-4.74,10.59-10.59,10.59s-10.59-4.74-10.59-10.59c0-5.85,4.74-10.59,10.59-10.59s10.59,4.74,10.59,10.59Z"/></g><g><circle class="cls-44" cx="1974.38" cy="1127.25" r="10.59"/><path class="cls-44" d="m1449.28,941.42c0,5.85-4.74,10.59-10.59,10.59s-10.59-4.74-10.59-10.59,4.74-10.59,10.59-10.59c5.85,0,10.59,4.74,10.59,10.59Z"/><circle class="cls-44" cx="2366.01" cy="948.16" r="10.59"/><path class="cls-44" d="m2326.39,697.02c0,5.85-4.74,10.59-10.59,10.59s-10.59-4.74-10.59-10.59,4.74-10.59,10.59-10.59,10.59,4.74,10.59,10.59Z"/><circle class="cls-44" cx="1953.19" cy="601.67" r="10.59"/><circle class="cls-44" cx="1705.41" cy="981.05" r="10.59"/></g><g><path class="cls-34" d="m1404.25,982.18c0,5.85-4.74,10.59-10.59,10.59s-10.59-4.74-10.59-10.59c0-5.85,4.74-10.59,10.59-10.59s10.59,4.74,10.59,10.59Z"/><circle class="cls-34" cx="1929.88" cy="1083.07" r="10.59"/><circle class="cls-34" cx="1849.81" cy="1127.25" r="10.59"/><path class="cls-34" d="m2400.46,863.21c0,5.85-4.74,10.59-10.59,10.59s-10.59-4.74-10.59-10.59,4.74-10.59,10.59-10.59,10.59,4.74,10.59,10.59Z"/><circle class="cls-34" cx="2440.29" cy="958.76" r="10.59"/><circle class="cls-34" cx="2533.98" cy="544.29" r="10.59"/><path class="cls-34" d="m2445.69,707.61c0,5.85-4.74,10.59-10.59,10.59-5.85,0-10.59-4.74-10.59-10.59,0-5.85,4.74-10.59,10.59-10.59,5.85,0,10.59,4.74,10.59,10.59Z"/><circle class="cls-34" cx="2419.5" cy="486.9" r="10.59"/><circle class="cls-34" cx="2360.23" cy="491.56" r="10.59"/><circle class="cls-34" cx="1870.99" cy="704.18" r="10.59"/><circle class="cls-34" cx="1705.41" cy="1021.51" r="10.59"/><path class="cls-34" d="m1984.97,544.29c0,5.85-4.74,10.59-10.59,10.59-5.85,0-10.59-4.74-10.59-10.59,0-5.85,4.74-10.59,10.59-10.59,5.85,0,10.59,4.74,10.59,10.59Z"/><path class="cls-34" d="m1903.16,586.87c0,5.85-4.74,10.59-10.59,10.59-5.85,0-10.59-4.74-10.59-10.59s4.74-10.59,10.59-10.59c5.85,0,10.59,4.74,10.59,10.59Z"/></g><g><g><path class="cls-23" d="m1980.95,835.77l-5.53,1.56c-4.89,1.37-8.7,5.19-10.08,10.08l-1.56,5.53-1.56-5.54c-1.38-4.88-5.19-8.69-10.07-10.07l-5.54-1.56,5.53-1.56c4.89-1.37,8.7-5.19,10.08-10.08l1.56-5.53,1.56,5.54c1.38,4.88,5.19,8.69,10.07,10.07l5.54,1.56Z"/><circle class="cls-13" cx="1963.78" cy="835.77" r="19.8"/></g><g><g><path class="cls-23" d="m2342.74,934.59l-7.98,2.24c-7.04,1.98-12.55,7.49-14.53,14.53l-2.24,7.98-2.25-7.98c-1.98-7.03-7.48-12.53-14.51-14.51l-7.98-2.25,7.98-2.24c7.04-1.98,12.55-7.49,14.53-14.53l2.24-7.98,2.25,7.98c1.98,7.03,7.48,12.53,14.51,14.51l7.98,2.25Z"/><circle class="cls-17" cx="2317.99" cy="934.59" r="32.03"/></g><g><path class="cls-23" d="m1784.45,704.18l-5.53,1.56c-4.89,1.37-8.7,5.19-10.08,10.08l-1.56,5.53-1.56-5.54c-1.38-4.88-5.19-8.69-10.07-10.07l-5.54-1.56,5.53-1.56c4.89-1.37,8.7-5.19,10.08-10.08l1.56-5.53,1.56,5.54c1.38,4.88,5.19,8.69,10.07,10.07l5.54,1.56Z"/><circle class="cls-16" cx="1767.28" cy="704.18" r="19.8"/></g><g><path class="cls-23" d="m2474.85,538.11l-11.14,3.13c-9.83,2.77-17.52,10.45-20.29,20.29l-3.13,11.14-3.14-11.15c-2.77-9.82-10.44-17.49-20.26-20.26l-11.15-3.14,11.14-3.13c9.83-2.77,17.52-10.45,20.29-20.29l3.13-11.14,3.14,11.15c2.77,9.82,10.44,17.49,20.26,20.26l11.15,3.14Z"/><path class="cls-10" d="m2480.91,538.11c0,22.44-18.19,40.62-40.62,40.62-22.44,0-40.62-18.19-40.62-40.62,0-22.44,18.19-40.62,40.62-40.62,22.44,0,40.62,18.19,40.62,40.62Z"/></g><g><path class="cls-23" d="m1799.23,975.21l-11.14,3.13c-9.83,2.77-17.52,10.45-20.29,20.29l-3.13,11.14-3.14-11.15c-2.77-9.82-10.44-17.49-20.26-20.26l-11.15-3.14,11.14-3.13c9.83-2.77,17.52-10.45,20.29-20.29l3.13-11.14,3.14,11.15c2.77,9.82,10.44,17.49,20.26,20.26l11.15,3.14Z"/><path class="cls-1" d="m1805.29,975.21c0,22.44-18.19,40.62-40.62,40.62-22.44,0-40.62-18.19-40.62-40.62,0-22.44,18.19-40.62,40.62-40.62,22.44,0,40.62,18.19,40.62,40.62Z"/></g></g></g></g></g><g><ellipse id="GalaxyFog1-3" class="cls-31" cx="1429.25" cy="275.16" rx="110.17" ry="344.04" transform="translate(869.16 1618.58) rotate(-78.27)"/><ellipse id="GalaxyFog2-3" class="cls-43" cx="1429.25" cy="275.11" rx="81.91" ry="255.81" transform="translate(869.21 1618.53) rotate(-78.27)"/><ellipse id="GalaxyFog3-3" class="cls-19" cx="1429.25" cy="275.14" rx="62.34" ry="194.69" transform="translate(869.19 1618.56) rotate(-78.27)"/><ellipse id="GalaxyFog4-3" class="cls-27" cx="1429.24" cy="275.13" rx="49.97" ry="156.04" transform="translate(869.18 1618.55) rotate(-78.27)"/><ellipse id="GalaxyFog5-3" class="cls-22" cx="1429.24" cy="275.14" rx="36.5" ry="113.97" transform="translate(869.18 1618.55) rotate(-78.27)"/><g><path class="cls-20" d="m1334.4,239.67c.11-.02.21-.05.32-.08,2.44-.81,5.15-1.54,8.06-2.16,1.26-.27,2.06-1.5,1.79-2.76-.27-1.26-1.5-2.05-2.76-1.79-3.08.66-5.96,1.43-8.57,2.29-1.22.41-1.88,1.72-1.47,2.95.37,1.12,1.51,1.76,2.63,1.56Z"/><path class="cls-20" d="m1318.57,263.48c.21-.04.42-.11.62-.21,1.15-.57,1.62-1.97,1.05-3.12-1.41-2.83-1.86-5.5-1.36-7.94.16-.79.43-1.56.79-2.31.56-1.16.08-2.55-1.08-3.11-1.16-.56-2.55-.08-3.11,1.08-.53,1.09-.92,2.23-1.16,3.4-.72,3.48-.14,7.17,1.75,10.96.47.95,1.51,1.44,2.51,1.25Z"/><path class="cls-20" d="m1343.83,285.73c.65-.12,1.25-.51,1.6-1.13.64-1.12.25-2.54-.87-3.18-8.16-4.67-14.56-9.39-19.02-14.04-.89-.93-2.36-.96-3.29-.07s-.96,2.36-.07,3.29c4.77,4.97,11.52,9.97,20.07,14.86.5.28,1.06.37,1.58.27Z"/><path class="cls-20" d="m1399.7,307.78c.85-.16,1.58-.78,1.83-1.68.34-1.24-.39-2.52-1.63-2.86-3.22-.88-6.43-1.82-9.56-2.78-1.23-.38-2.53.31-2.91,1.54-.38,1.23.31,2.53,1.54,2.91,3.17.97,6.43,1.92,9.69,2.82.35.1.7.11,1.04.05Z"/><path class="cls-20" d="m1501.51,318.95c1.18-.22,2.01-1.31,1.89-2.52-.13-1.28-1.27-2.21-2.55-2.09-7.3.73-15.39.99-24.05.78-1.29-.03-2.35.98-2.39,2.27-.03,1.29.98,2.35,2.27,2.39,8.85.22,17.14-.05,24.63-.8.07,0,.13-.02.19-.03Z"/><path class="cls-20" d="m1516.94,316.42s.08-.02.13-.03c2.29-.55,4.46-1.18,6.46-1.86,1.22-.41,1.87-1.74,1.46-2.95-.41-1.22-1.74-1.87-2.95-1.46-1.86.63-3.9,1.22-6.05,1.74-1.25.3-2.02,1.56-1.72,2.81.29,1.21,1.48,1.97,2.68,1.74Z"/><path class="cls-20" d="m1535.21,285.71c.37-.07.73-.23,1.05-.48,1-.81,1.15-2.28.34-3.28-3.17-3.9-7.65-7.87-13.3-11.81-1.06-.74-2.51-.48-3.24.58s-.48,2.51.58,3.24c5.3,3.69,9.45,7.37,12.35,10.93.56.68,1.42.97,2.23.82Z"/><path class="cls-20" d="m1476.31,252.41c.8-.15,1.5-.71,1.78-1.54.42-1.22-.23-2.54-1.45-2.96-7.85-2.69-16.14-5.15-24.64-7.33-1.25-.32-2.51.43-2.83,1.68-.32,1.25.43,2.51,1.68,2.83,8.38,2.14,16.56,4.57,24.29,7.22.39.13.79.16,1.17.09Z"/></g><g><path class="cls-26" d="m1447.09,230.08c.89-.16,1.64-.84,1.85-1.78.28-1.25-.5-2.5-1.76-2.78-2.77-.62-5.58-1.23-8.35-1.81-12.57-2.61-25.17-4.72-37.45-6.27-1.28-.16-2.44.74-2.6,2.02-.16,1.28.74,2.44,2.02,2.6,12.16,1.53,24.64,3.62,37.09,6.21,2.75.57,5.53,1.17,8.27,1.79.32.07.63.07.93.02Z"/><path class="cls-26" d="m1355.9,218.89c1.08-.2,1.9-1.14,1.9-2.28,0-1.29-1.03-2.33-2.32-2.34-12.47-.07-23.97.6-34.19,2-1.28.18-2.17,1.35-1.99,2.62.17,1.27,1.35,2.17,2.62,1.99,10-1.37,21.28-2.02,33.53-1.95.15,0,.3-.01.44-.04Z"/><path class="cls-26" d="m1295.78,277.89c.55-.1,1.06-.4,1.43-.88.78-1.02.59-2.48-.44-3.26-8.36-6.39-14.11-12.62-17.09-18.54-.58-1.15-1.98-1.61-3.13-1.03-1.15.58-1.61,1.98-1.03,3.13,3.3,6.55,9.5,13.33,18.42,20.14.54.42,1.21.55,1.84.44Z"/><path class="cls-26" d="m1369.95,313.37c.81-.15,1.52-.73,1.8-1.57.4-1.22-.28-2.54-1.5-2.93-6.95-2.25-13.74-4.65-20.19-7.14-1.2-.46-2.55.13-3.01,1.33s.13,2.55,1.33,3.01c6.53,2.52,13.4,4.95,20.43,7.22.38.12.77.14,1.14.08Z"/><path class="cls-26" d="m1444.88,330.87c.95-.18,1.73-.94,1.88-1.94.19-1.27-.68-2.46-1.96-2.65-8.67-1.31-17.52-2.89-26.3-4.71-2.38-.49-4.78-1.01-7.15-1.54-1.26-.28-2.5.51-2.78,1.77-.28,1.26.51,2.5,1.77,2.78,2.39.53,4.82,1.06,7.22,1.55,8.86,1.84,17.79,3.44,26.55,4.76.26.04.52.03.77-.01Z"/><path class="cls-26" d="m1508.1,335.49c1.1-.2,1.92-1.17,1.9-2.33-.02-1.29-1.08-2.31-2.37-2.29-13.7.23-28.53-.5-44.08-2.17-1.28-.14-2.43.79-2.56,2.07-.14,1.28.79,2.43,2.07,2.56,15.75,1.69,30.77,2.43,44.66,2.2.13,0,.26-.02.39-.04Z"/><path class="cls-26" d="m1573.41,320.68c.36-.07.7-.22,1.01-.46,4.84-3.78,7.81-8.19,8.83-13.1,2.24-10.77-5.16-22.94-21.39-35.18-1.03-.77-2.49-.57-3.26.46-.77,1.03-.57,2.49.46,3.26,14.69,11.08,21.48,21.64,19.64,30.52-.79,3.8-3.19,7.29-7.14,10.38-1.01.79-1.19,2.26-.4,3.27.55.71,1.43,1.01,2.26.86Z"/></g><g><path class="cls-18" d="m1398.5,209.61c1.29-.24,2.33-1.28,2.51-2.65.23-1.7-.97-3.26-2.67-3.49-9.12-1.21-18.21-2.19-27.03-2.9-1.71-.14-3.21,1.13-3.35,2.84s1.13,3.21,2.84,3.35c8.71.71,17.7,1.67,26.72,2.87.33.04.66.03.97-.02Z"/><path class="cls-18" d="m1336.1,205.21c1.44-.27,2.54-1.53,2.54-3.05,0-1.72-1.39-3.11-3.1-3.11-20.34-.02-38.35,1.55-53.5,4.65-1.68.34-2.76,1.99-2.42,3.67.34,1.68,1.99,2.77,3.67,2.42,14.74-3.02,32.32-4.54,52.25-4.53.19,0,.38-.02.57-.05Z"/><path class="cls-18" d="m1266.3,281.25c.76-.14,1.47-.56,1.95-1.24,1-1.39.69-3.33-.7-4.34-19.73-14.24-29.29-28.35-26.93-39.72.35-1.68-.73-3.32-2.41-3.67-1.68-.35-3.32.73-3.67,2.41-2.93,14.12,7.23,30.03,29.37,46.02.72.52,1.58.68,2.38.54Z"/><path class="cls-18" d="m1435.65,342.75c1.24-.23,2.27-1.21,2.5-2.52.29-1.69-.84-3.3-2.53-3.59-6.44-1.12-12.99-2.37-19.47-3.72-11.52-2.39-22.98-5.12-34.08-8.11-1.66-.45-3.36.53-3.81,2.19-.45,1.66.53,3.36,2.19,3.81,11.21,3.02,22.79,5.78,34.43,8.19,6.54,1.36,13.16,2.62,19.67,3.75.37.06.74.06,1.1,0Z"/><path class="cls-18" d="m1570.99,346.78c7.46-1.38,14.22-3.09,20.14-5.13,1.62-.56,2.48-2.32,1.93-3.95-.56-1.62-2.32-2.48-3.95-1.93-14.44,4.97-34.23,7.96-57.23,8.65-1.72.05-3.06,1.48-3.01,3.2.05,1.71,1.48,3.06,3.2,3.01,14.31-.43,27.45-1.74,38.93-3.85Z"/><path class="cls-18" d="m1614.21,327.7c.67-.12,1.31-.47,1.79-1.03,3.03-3.52,5-7.4,5.86-11.53,1.1-5.29.36-10.89-2.2-16.64-.7-1.57-2.53-2.27-4.1-1.58-1.57.7-2.27,2.53-1.58,4.1,2.02,4.54,2.62,8.87,1.79,12.86-.64,3.08-2.15,6.02-4.49,8.74-1.12,1.3-.97,3.26.33,4.38.74.64,1.7.87,2.59.7Z"/><path class="cls-18" d="m1576.55,265.14c.85-.16,1.64-.67,2.11-1.47.87-1.48.38-3.38-1.09-4.25-6.4-3.79-13.47-7.55-21-11.18-1.55-.74-3.4-.1-4.15,1.45-.74,1.55-.1,3.4,1.45,4.15,7.37,3.55,14.28,7.23,20.54,10.93.67.4,1.43.51,2.14.38Z"/></g><g><path class="cls-42" d="m1427.32,194.2c1.23-.23,2.25-1.19,2.49-2.49.31-1.69-.81-3.31-2.49-3.62-11.8-2.17-23.68-4.08-35.31-5.67-1.7-.23-3.27.96-3.5,2.66s.96,3.27,2.66,3.5c11.53,1.58,23.32,3.47,35.03,5.63.38.07.76.07,1.12,0Z"/><path class="cls-42" d="m1316.35,182.43c1.42-.26,2.51-1.49,2.54-3,.03-1.71-1.33-3.13-3.05-3.16-8.75-.16-17.34-.11-25.54.16-1.71.06-3.06,1.49-3,3.21s1.49,3.06,3.21,3c8.09-.27,16.57-.32,25.21-.16.21,0,.42-.01.62-.05Z"/><path class="cls-42" d="m1272.37,314.23c.97-.18,1.84-.81,2.27-1.78.7-1.56,0-3.4-1.55-4.11-4.1-1.85-8.14-3.74-12.03-5.64-1.54-.75-3.4-.11-4.15,1.43s-.11,3.4,1.43,4.15c3.94,1.92,8.05,3.85,12.2,5.72.6.27,1.24.33,1.84.22Z"/><path class="cls-42" d="m1324.89,334.69c1.07-.2,2.01-.96,2.38-2.06.55-1.63-.33-3.39-1.95-3.93-10.14-3.41-20.06-7.03-29.5-10.76-1.6-.63-3.4.15-4.03,1.75-.63,1.6.15,3.4,1.75,4.03,9.54,3.77,19.57,7.42,29.8,10.87.52.17,1.05.2,1.55.11Z"/><path class="cls-42" d="m1505.17,371.67c1.35-.25,2.42-1.38,2.53-2.81.14-1.71-1.14-3.21-2.85-3.34-13.96-1.11-28.41-2.71-42.95-4.77-1.7-.24-3.27.94-3.51,2.64-.24,1.7.94,3.27,2.64,3.51,14.67,2.08,29.24,3.69,43.33,4.81.28.02.55,0,.81-.04Z"/><path class="cls-42" d="m1570.78,373.14c1.5-.28,2.6-1.62,2.54-3.19-.07-1.71-1.52-3.04-3.24-2.97-4.59.2-9.34.32-14.12.38-1.71.02-3.09,1.43-3.07,3.14.02,1.71,1.43,3.09,3.14,3.07,4.84-.06,9.66-.18,14.31-.38.15,0,.29-.02.43-.05Z"/><path class="cls-42" d="m1646.36,359.98c.19-.04.38-.09.57-.16,13.43-5.25,23.19-11.89,29.02-19.73,1.02-1.38.74-3.32-.64-4.34-1.38-1.02-3.32-.74-4.34.64-5.12,6.89-13.97,12.83-26.29,17.65-1.6.62-2.39,2.43-1.76,4.02.55,1.41,2.02,2.19,3.45,1.92Z"/><path class="cls-42" d="m1628.79,264.63c.83-.15,1.59-.64,2.07-1.41.91-1.46.46-3.37-.99-4.28-9.23-5.76-19.61-11.47-30.84-16.98-1.54-.76-3.4-.12-4.16,1.42-.76,1.54-.12,3.4,1.42,4.16,11.05,5.42,21.24,11.03,30.29,16.67.68.43,1.47.55,2.21.42Z"/><path class="cls-42" d="m1537.1,222.73c1.07-.2,2-.95,2.38-2.04.56-1.62-.3-3.39-1.92-3.95-7.14-2.46-14.53-4.87-21.96-7.15-1.64-.5-3.38.42-3.88,2.06-.5,1.64.42,3.38,2.06,3.88,7.37,2.26,14.69,4.65,21.76,7.09.52.18,1.06.21,1.57.12Z"/></g><g><path class="cls-30" d="m1669.55,401.38c1.64-.3,2.76-1.86,2.51-3.52-.26-1.7-1.84-2.86-3.54-2.6-7.21,1.1-14.84,2.04-22.7,2.79-1.71.17-2.96,1.68-2.8,3.39.16,1.71,1.68,2.96,3.39,2.8,7.97-.76,15.72-1.71,23.04-2.83.03,0,.06-.01.1-.02Z"/><path class="cls-30" d="m1691.61,397.25s.08-.02.12-.03c3.13-.71,6.21-1.46,9.17-2.25,1.66-.44,2.65-2.14,2.21-3.8-.44-1.66-2.14-2.65-3.8-2.21-2.88.76-5.89,1.5-8.95,2.19-1.67.38-2.72,2.04-2.34,3.71.37,1.63,1.96,2.67,3.59,2.37Z"/><path class="cls-30" d="m1654.34,236.34c.94-.17,1.79-.78,2.23-1.7.75-1.54.1-3.4-1.44-4.15-5.45-2.64-11.13-5.29-16.88-7.86-1.57-.7-3.4,0-4.1,1.57-.7,1.57,0,3.4,1.57,4.1,5.69,2.55,11.31,5.17,16.71,7.78.62.3,1.29.38,1.91.26Z"/><path class="cls-30" d="m1545.76,194.38c1.1-.2,2.05-1,2.41-2.14.51-1.64-.41-3.38-2.05-3.88-19.62-6.05-40.06-11.65-60.75-16.65-1.67-.4-3.34.62-3.75,2.29-.4,1.67.62,3.35,2.29,3.75,20.57,4.97,40.89,10.54,60.38,16.55.49.15,1,.18,1.48.09Z"/><path class="cls-30" d="m1358.59,155.13c1.31-.24,2.36-1.31,2.52-2.7.2-1.7-1.03-3.24-2.73-3.44-7.14-.82-14.33-1.57-21.36-2.21-1.71-.16-3.22,1.1-3.38,2.81-.16,1.71,1.1,3.22,2.81,3.38,6.99.64,14.13,1.38,21.22,2.2.31.04.62.02.92-.03Z"/><path class="cls-30" d="m1303.5,150.47c1.38-.25,2.46-1.43,2.54-2.89.09-1.71-1.23-3.17-2.94-3.26-29.29-1.54-56.85-1.4-81.89.41-1.71.13-3,1.61-2.87,3.32.12,1.71,1.61,3,3.32,2.87,24.79-1.79,52.08-1.93,81.12-.4.25.01.49,0,.73-.05Z"/><path class="cls-30" d="m1300.88,358.21c1.09-.2,2.03-.98,2.4-2.1.53-1.63-.37-3.38-2.01-3.91-8.67-2.79-17.3-5.71-25.64-8.67-1.62-.57-3.39.27-3.97,1.89-.57,1.62.27,3.39,1.89,3.97,8.4,2.99,17.09,5.93,25.82,8.73.51.16,1.02.19,1.51.1Z"/><path class="cls-30" d="m1501.79,401.2c1.31-.24,2.37-1.32,2.52-2.71.19-1.7-1.04-3.24-2.74-3.43-31.07-3.48-63.09-8.63-95.16-15.29-1.68-.35-3.32.73-3.67,2.41s.73,3.32,2.41,3.67c32.25,6.7,64.46,11.87,95.73,15.38.31.03.62.02.91-.03Z"/><path class="cls-30" d="m1551.92,405.42c1.38-.25,2.45-1.42,2.53-2.88.09-1.71-1.22-3.18-2.93-3.27-3.98-.22-8.04-.47-12.07-.75-1.71-.12-3.19,1.17-3.31,2.88-.12,1.71,1.17,3.19,2.88,3.31,4.06.28,8.15.54,12.16.76.25.01.5,0,.74-.05Z"/></g><g><ellipse class="cls-24" cx="1426.75" cy="268.94" rx="11.38" ry="33.69" transform="translate(856.81 1604.27) rotate(-77.56)"/><path class="cls-25" d="m1393.89,261.46c-1.35,6.12,12.28,14.36,30.45,18.37,18.17,4.01,34.02,2.2,35.35-3.85,4.01-18.17-7.47-36.15-25.64-40.16-18.17-4.01-36.15,7.47-40.16,25.64Z"/></g></g><g><polygon class="cls-21" points="1256.61 473.89 1280.22 391.62 1303.83 309.36 1228.14 349.31 1152.45 389.26 1191.37 420.88 1165.42 452.89 1191.76 474.25 1217.69 442.27 1256.61 473.89"/><polygon class="cls-23" points="1248.2 455.46 1268.68 383.59 1289.16 311.72 1223.14 346.73 1157.11 381.74 1191.15 409.29 1168.54 437.28 1191.58 455.88 1214.17 427.92 1248.2 455.46"/><path d="m1250.12,461.52l-35.43-28.67-22.58,27.96-28.49-23,22.61-27.99-35.43-28.68,143.99-76.35-44.66,156.73Zm-76.65-24.76l17.59,14.21,22.59-27.97,32.64,26.42,37.26-130.75-120.11,63.69,32.64,26.41-22.6,27.99Z"/></g><g><g><path class="cls-23" d="m543.14,935.06l-5.21,1.46c-4.6,1.29-8.19,4.89-9.49,9.49l-1.46,5.21-1.47-5.21c-1.29-4.59-4.88-8.18-9.47-9.47l-5.21-1.47,5.21-1.46c4.6-1.29,8.19-4.89,9.49-9.49l1.46-5.21,1.47,5.21c1.29,4.59,4.88,8.18,9.47,9.47l5.21,1.47Z"/><circle class="cls-8" cx="526.98" cy="935.06" r="18.64"/></g><g><path class="cls-23" d="m1388.14,513.06l-5.21,1.46c-4.6,1.29-8.19,4.89-9.49,9.49l-1.46,5.21-1.47-5.21c-1.29-4.59-4.88-8.18-9.47-9.47l-5.21-1.47,5.21-1.46c4.6-1.29,8.19-4.89,9.49-9.49l1.46-5.21,1.47,5.21c1.29,4.59,4.88,8.18,9.47,9.47l5.21,1.47Z"/><circle class="cls-7" cx="1371.98" cy="513.06" r="18.64"/></g><g><path class="cls-23" d="m1028.14,571.06l-5.21,1.46c-4.6,1.29-8.19,4.89-9.49,9.49l-1.46,5.21-1.47-5.21c-1.29-4.59-4.88-8.18-9.47-9.47l-5.21-1.47,5.21-1.46c4.6-1.29,8.19-4.89,9.49-9.49l1.46-5.21,1.47,5.21c1.29,4.59,4.88,8.18,9.47,9.47l5.21,1.47Z"/><circle class="cls-6" cx="1011.98" cy="571.06" r="18.64"/></g><g><path class="cls-23" d="m1377.14,852.06l-5.21,1.46c-4.6,1.29-8.19,4.89-9.49,9.49l-1.46,5.21-1.47-5.21c-1.29-4.59-4.88-8.18-9.47-9.47l-5.21-1.47,5.21-1.46c4.6-1.29,8.19-4.89,9.49-9.49l1.46-5.21,1.47,5.21c1.29,4.59,4.88,8.18,9.47,9.47l5.21,1.47Z"/><circle class="cls-5" cx="1360.98" cy="852.06" r="18.64"/></g><g><path class="cls-23" d="m2365.64,207.07l-7.51,2.11c-6.63,1.86-11.81,7.04-13.67,13.67l-2.11,7.51-2.12-7.52c-1.87-6.62-7.04-11.79-13.66-13.66l-7.52-2.12,7.51-2.11c6.63-1.86,11.81-7.04,13.67-13.67l2.11-7.51,2.12,7.52c1.87,6.62,7.04,11.79,13.66,13.66l7.52,2.12Z"/><circle class="cls-4" cx="2342.35" cy="207.07" r="30.14"/></g><g><path class="cls-23" d="m683.64,814.07l-7.51,2.11c-6.63,1.86-11.81,7.04-13.67,13.67l-2.11,7.51-2.12-7.52c-1.87-6.62-7.04-11.79-13.66-13.66l-7.52-2.12,7.51-2.11c6.63-1.86,11.81-7.04,13.67-13.67l2.11-7.51,2.12,7.52c1.87,6.62,7.04,11.79,13.66,13.66l7.52,2.12Z"/><circle class="cls-3" cx="660.35" cy="814.07" r="30.14"/></g><g><path class="cls-23" d="m804.2,190.21l-5.21,1.46c-4.6,1.29-8.19,4.89-9.49,9.49l-1.46,5.21-1.47-5.21c-1.29-4.59-4.88-8.18-9.47-9.47l-5.21-1.47,5.21-1.46c4.6-1.29,8.19-4.89,9.49-9.49l1.46-5.21,1.47,5.21c1.29,4.59,4.88,8.18,9.47,9.47l5.21,1.47Z"/><circle class="cls-2" cx="788.04" cy="190.21" r="18.64"/></g><g><path class="cls-23" d="m1510.98,583.91l-10.48,2.95c-9.26,2.6-16.49,9.84-19.09,19.09l-2.95,10.48-2.96-10.49c-2.61-9.24-9.83-16.46-19.07-19.07l-10.49-2.96,10.48-2.95c9.26-2.6,16.49-9.84,19.09-19.09l2.95-10.48,2.96,10.49c2.61,9.24,9.83,16.46,19.07,19.07l10.49,2.96Z"/><circle class="cls-9" cx="1478.46" cy="583.91" r="38.23"/></g></g></g></svg>