<?xml version="1.0" encoding="UTF-8"?>
<svg id="Ebene_2" xmlns="http://www.w3.org/2000/svg" xmlns:xlink="http://www.w3.org/1999/xlink" viewBox="0 0 9612 2690.3">
    <defs>
        <style>
            .cls-sirius_system-1{fill:#e3fcfa;}
            .cls-sirius_system-2{fill:#fff;}
            .cls-sirius_system-3{fill:#e73738;}
            .cls-sirius_system-4{fill:#69c6e3;}
            .cls-sirius_system-5{fill:#b81918;}
            .cls-sirius_system-6{fill:#b8e1ee;}
            .cls-sirius_system-7{fill:#b4f9f5;}
            .cls-sirius_system-8{fill:#b8e0ed;}
            .cls-sirius_system-9{fill:#c91c1c;}
            .cls-sirius_system-10{fill:#cafcf9;}
            .cls-sirius_system-11{fill:#d82727;}
            .cls-sirius_system-12{fill:#a6f7f1;}
            .cls-sirius_system-13{fill:#05a6c1;}
            .cls-sirius_system-14{fill:#961914;}
            .cls-sirius_system-15{fill:#36bcdc;}
            .cls-sirius_system-16{opacity:.7;}
            .cls-sirius_system-17{fill:url(#sirius_system_Unbenannter_Verlauf_290);}
            .cls-sirius_system-18{fill:url(#sirius_system_Unbenannter_Verlauf_19);}
            .cls-sirius_system-19{fill:url(#sirius_system_Unbenannter_Verlauf_3);}
        </style>
        <radialGradient id="sirius_system_Unbenannter_Verlauf_3" cx="6734.78" cy="2373" fx="6734.78" fy="2373" r="183.97" gradientUnits="userSpaceOnUse">
            <stop offset=".69" stop-color="#bdf9f7"/>
            <stop offset="1" stop-color="#fff" stop-opacity="0"/>
        </radialGradient>
        <radialGradient id="sirius_system_Unbenannter_Verlauf_19" cx="5945.62" cy="1544.87" fx="5945.62" fy="1544.87" r="131.89" gradientUnits="userSpaceOnUse">
            <stop offset=".69" stop-color="#961914"/>
            <stop offset="1" stop-color="#961914" stop-opacity="0"/>
        </radialGradient>
        <radialGradient id="sirius_system_Unbenannter_Verlauf_290" cx="4326.95" cy="463.05" fx="4326.95" fy="463.05" r="463.05" gradientUnits="userSpaceOnUse">
            <stop offset=".69" stop-color="#b8e1ee"/>
            <stop offset="1" stop-color="#fff" stop-opacity="0"/>
        </radialGradient>
    </defs>
    <g id="sirius_system">
        <g>
            <g class="sirius-system-orbit-paths">
                <path class="cls-sirius_system-2" d="m3534.49,2690.3c-477.06,0-939.84-30.02-1375.51-89.22-420.82-57.19-798.76-139.06-1123.32-243.33-324.62-104.3-579.5-225.76-757.56-361.02C93.57,1856.55,0,1707.59,0,1553.98s93.57-302.57,278.1-442.74c178.06-135.26,432.94-256.72,757.56-361.02,324.56-104.28,702.5-186.15,1123.32-243.33,435.67-59.2,898.45-89.22,1375.51-89.22s939.84,30.02,1375.51,89.22c420.82,57.19,798.76,139.06,1123.32,243.33,324.62,104.3,579.5,225.76,757.56,361.02,184.53,140.17,278.1,289.13,278.1,442.74s-93.57,302.57-278.1,442.74c-178.06,135.26-432.94,256.72-757.56,361.02-324.56,104.28-702.5,186.15-1123.32,243.33-435.67,59.2-898.45,89.22-1375.51,89.22Zm0-2270.48c-476.96,0-939.65,30.01-1375.22,89.2-420.69,57.17-798.51,139.01-1122.95,243.25-324.39,104.22-579.05,225.57-756.92,360.68C95.43,1252.7,2.15,1401.08,2.15,1553.98s93.28,301.29,277.25,441.03c177.87,135.11,432.53,256.46,756.92,360.68,324.44,104.24,702.26,186.08,1122.95,243.25,435.57,59.19,898.26,89.2,1375.22,89.2s939.65-30.01,1375.22-89.2c420.69-57.17,798.51-139.01,1122.95-243.25,324.39-104.22,579.05-225.57,756.92-360.68,183.97-139.74,277.25-288.13,277.25-441.03s-93.28-301.29-277.25-441.03c-177.87-135.11-432.53-256.46-756.92-360.68-324.44-104.24-702.26-186.08-1122.95-243.25-435.57-59.19-898.26-89.2-1375.22-89.2Z"/>
                <path class="cls-sirius_system-2" d="m7163.4,2394.15c-330.47,0-651.05-22.19-952.84-65.95-291.52-42.27-553.33-102.79-778.17-179.87-224.9-77.1-401.48-166.9-524.85-266.9-127.89-103.66-192.74-213.83-192.74-327.45s64.85-223.78,192.74-327.45c123.37-100,299.96-189.79,524.85-266.9,224.84-77.08,486.65-137.6,778.17-179.87,301.79-43.76,622.38-65.95,952.84-65.95s651.05,22.19,952.84,65.95c291.52,42.27,553.33,102.79,778.17,179.87,224.9,77.1,401.48,166.9,524.85,266.9,127.89,103.66,192.74,213.83,192.74,327.45s-64.85,223.78-192.74,327.45c-123.37,100-299.96,189.79-524.85,266.9-224.84,77.08-486.65,137.6-778.17,179.87-301.79,43.76-622.38,65.95-952.84,65.95Zm0-1678.18c-330.36,0-650.84,22.18-952.54,65.93-291.38,42.25-553.07,102.74-777.78,179.78-224.66,77.02-401.02,166.7-524.2,266.53-127.36,103.23-191.94,212.84-191.94,325.78s64.58,222.55,191.94,325.78c123.17,99.84,299.54,189.51,524.2,266.53,224.71,77.04,486.4,137.53,777.78,179.78,301.69,43.75,622.17,65.93,952.54,65.93s650.84-22.18,952.54-65.93c291.38-42.25,553.07-102.74,777.78-179.78,224.66-77.02,401.02-166.7,524.2-266.53,127.36-103.23,191.94-212.84,191.94-325.78s-64.58-222.55-191.94-325.78c-123.17-99.84-299.54-189.51-524.2-266.53-224.71-77.04-486.4-137.53-777.78-179.78-301.69-43.75-622.17-65.93-952.54-65.93Z"/>
            </g>
            <g class="sirius-system-sirius-b">
                <circle class="cls-sirius_system-19" cx="6734.78" cy="2373" r="183.97"/>
                <circle class="cls-sirius_system-10" cx="6734.78" cy="2373" r="170.01"/>
                <circle class="cls-sirius_system-1" cx="6734.78" cy="2373" r="158.11"/>
                <circle class="cls-sirius_system-10" cx="6715.5" cy="2358.16" r="119.58"/>
                <circle class="cls-sirius_system-7" cx="6702.36" cy="2342.38" r="81.36"/>
                <g>
                    <path class="cls-sirius_system-10" d="m6731.69,2507.54c-7.2,0-13.05-5.86-13.05-13.05s5.86-13.05,13.05-13.05,13.05,5.86,13.05,13.05-5.86,13.05-13.05,13.05Zm0-19.57c-3.59,0-6.52,2.92-6.52,6.52s2.92,6.52,6.52,6.52,6.52-2.92,6.52-6.52-2.92-6.52-6.52-6.52Z"/>
                    <path class="cls-sirius_system-10" d="m6857.72,2315.22c-7.2,0-13.05-5.86-13.05-13.05s5.86-13.05,13.05-13.05,13.05,5.86,13.05,13.05-5.86,13.05-13.05,13.05Zm0-19.57c-3.59,0-6.52,2.92-6.52,6.52s2.92,6.52,6.52,6.52,6.52-2.92,6.52-6.52-2.92-6.52-6.52-6.52Z"/>
                    <path class="cls-sirius_system-2" d="m6678.74,2423.68c-7.2,0-13.05-5.86-13.05-13.05s5.86-13.05,13.05-13.05,13.05,5.86,13.05,13.05-5.86,13.05-13.05,13.05Zm0-19.57c-3.59,0-6.52,2.92-6.52,6.52s2.92,6.52,6.52,6.52,6.52-2.92,6.52-6.52-2.92-6.52-6.52-6.52Z"/>
                    <path class="cls-sirius_system-12" d="m6874.02,2417.13c-5.39,0-9.78-4.39-9.78-9.78s4.39-9.78,9.78-9.78,9.78,4.39,9.78,9.78-4.39,9.78-9.78,9.78Zm0-13.03c-1.79,0-3.24,1.46-3.24,3.24s1.46,3.25,3.24,3.25,3.25-1.46,3.25-3.25-1.46-3.24-3.25-3.24Z"/>
                    <path class="cls-sirius_system-12" d="m6635.38,2410.62c-5.39,0-9.78-4.39-9.78-9.78s4.39-9.78,9.78-9.78,9.78,4.39,9.78,9.78-4.39,9.78-9.78,9.78Zm0-13.03c-1.79,0-3.25,1.46-3.25,3.24s1.46,3.24,3.25,3.24,3.24-1.46,3.24-3.24-1.46-3.24-3.24-3.24Z"/>
                    <path class="cls-sirius_system-2" d="m6709.96,2392.56c-8.39,0-15.21-6.82-15.21-15.21s6.82-15.21,15.21-15.21,15.21,6.82,15.21,15.21-6.82,15.21-15.21,15.21Zm0-23.89c-4.79,0-8.68,3.89-8.68,8.68s3.89,8.68,8.68,8.68,8.68-3.89,8.68-8.68-3.89-8.68-8.68-8.68Z"/>
                    <path class="cls-sirius_system-2" d="m6746.34,2395.6c-4.44,0-8.05-3.61-8.05-8.05s3.61-8.05,8.05-8.05,8.05,3.61,8.05,8.05-3.61,8.05-8.05,8.05Zm0-9.56c-.83,0-1.51.68-1.51,1.51s.68,1.51,1.51,1.51,1.51-.68,1.51-1.51-.68-1.51-1.51-1.51Z"/>
                    <path class="cls-sirius_system-2" d="m6797.32,2310.22c-4.44,0-8.05-3.61-8.05-8.05s3.61-8.05,8.05-8.05,8.05,3.61,8.05,8.05-3.61,8.05-8.05,8.05Zm0-9.56c-.84,0-1.51.68-1.51,1.51s.68,1.51,1.51,1.51,1.51-.68,1.51-1.51-.68-1.51-1.51-1.51Z"/>
                    <path class="cls-sirius_system-2" d="m6724.41,2288.37c-5.82,0-10.55-4.73-10.55-10.55s4.73-10.55,10.55-10.55,10.55,4.73,10.55,10.55-4.73,10.55-10.55,10.55Zm0-14.57c-2.21,0-4.02,1.8-4.02,4.02s1.8,4.02,4.02,4.02,4.02-1.8,4.02-4.02-1.8-4.02-4.02-4.02Z"/>
                    <path class="cls-sirius_system-1" d="m6746.01,2309.45c-3.59,0-7.53-1.05-11.28-3.22-4.06-2.35-7.28-5.68-9.05-9.4-1.94-4.07-1.96-8.3-.04-11.61,3.83-6.63,13.82-7.78,22.74-2.63,4.06,2.35,7.28,5.68,9.05,9.4,1.94,4.07,1.96,8.3.04,11.61h0c-2.22,3.84-6.51,5.85-11.47,5.85Zm-8.93-23.5c-2.63,0-4.8.85-5.78,2.54-1.12,1.94-.31,4.3.28,5.53,1.19,2.5,3.53,4.89,6.42,6.55,5.46,3.16,11.92,3.04,13.82-.24h0c1.12-1.95.31-4.3-.28-5.53-1.19-2.5-3.53-4.89-6.42-6.55-2.66-1.53-5.55-2.3-8.04-2.3Z"/>
                    <path class="cls-sirius_system-12" d="m6726.34,2541.7c-3.71,0-7.66-1.11-11.26-3.19-4.06-2.35-7.28-5.68-9.05-9.4-1.94-4.07-1.96-8.3-.04-11.61,1.91-3.31,5.59-5.42,10.08-5.77,4.11-.32,8.6.79,12.67,3.14,8.93,5.15,12.92,14.38,9.09,21.01h0c-1.91,3.31-5.59,5.42-10.08,5.77-.46.04-.93.05-1.41.05Zm-8.88-23.49c-.3,0-.59.01-.88.03-1.36.11-3.81.58-4.93,2.52-1.12,1.94-.31,4.3.28,5.53,1.19,2.5,3.53,4.89,6.42,6.55,2.89,1.67,6.13,2.5,8.89,2.28,1.36-.11,3.81-.58,4.93-2.52,1.9-3.28-1.24-8.93-6.7-12.09-2.59-1.49-5.45-2.32-8.01-2.32Z"/>
                    <path class="cls-sirius_system-7" d="m6816.55,2332.58c-3.71,0-7.66-1.11-11.26-3.19-8.93-5.15-12.92-14.38-9.09-21.01,3.83-6.63,13.82-7.78,22.75-2.63,4.06,2.35,7.28,5.68,9.05,9.4,1.94,4.07,1.96,8.3.04,11.61-1.91,3.31-5.59,5.42-10.08,5.77-.46.04-.93.05-1.41.05Zm-8.92-23.47c-2.63,0-4.8.85-5.78,2.54-1.9,3.28,1.24,8.93,6.7,12.09,2.89,1.67,6.13,2.5,8.89,2.28,1.36-.11,3.81-.58,4.93-2.52h0c1.12-1.94.31-4.3-.28-5.53-1.19-2.5-3.53-4.89-6.42-6.55-2.66-1.53-5.55-2.3-8.04-2.3Z"/>
                    <path class="cls-sirius_system-2" d="m6824.53,2299.68c-4.25,0-8.78-1.28-12.91-3.67-10.19-5.88-14.78-16.36-10.45-23.86,4.33-7.5,15.7-8.76,25.89-2.88,4.66,2.69,8.35,6.52,10.38,10.77,2.23,4.66,2.25,9.31.07,13.09-2.18,3.78-6.22,6.08-11.37,6.48-.53.04-1.07.06-1.61.06Zm-10.45-27.54c-3.27,0-5.99,1.1-7.25,3.28-2.41,4.18,1.28,11.02,8.06,14.93,3.48,2.01,7.39,3.01,10.74,2.75,1.7-.13,4.78-.73,6.22-3.23h0c1.44-2.5.43-5.46-.31-7-1.45-3.03-4.27-5.92-7.75-7.93-3.24-1.87-6.71-2.8-9.71-2.8Z"/>
                    <path class="cls-sirius_system-7" d="m6634.06,2451.21c-4.25,0-8.78-1.28-12.91-3.67-4.66-2.69-8.35-6.52-10.38-10.77-2.23-4.66-2.25-9.31-.07-13.09,2.18-3.78,6.22-6.08,11.37-6.48,4.7-.37,9.86.91,14.52,3.6,10.19,5.88,14.78,16.36,10.45,23.86h0c-2.18,3.78-6.22,6.08-11.37,6.48-.53.04-1.07.06-1.61.06Zm-10.41-27.53c-.36,0-.72.01-1.07.04-1.7.13-4.78.73-6.22,3.23-1.44,2.5-.43,5.46.31,7,1.45,3.03,4.27,5.92,7.75,7.93,3.48,2.01,7.39,3.01,10.74,2.75,1.7-.13,4.78-.73,6.22-3.23,2.41-4.18-1.28-11.02-8.06-14.93-3.11-1.8-6.58-2.79-9.67-2.79Z"/>
                    <path class="cls-sirius_system-2" d="m6610.33,2438.98c-3.66,0-7.43-1.38-10.95-4.07-4.6-3.52-8.27-8.93-10.33-15.24-2.06-6.31-2.3-12.84-.67-18.4,1.76-5.99,5.46-10.18,10.43-11.8,4.96-1.62,10.43-.43,15.39,3.37,4.6,3.52,8.27,8.93,10.33,15.24,4.47,13.68.19,26.95-9.76,30.2h0c-1.44.47-2.93.71-4.44.71Zm-7.11-43.67c-.82,0-1.62.12-2.38.37-2.85.93-5.05,3.57-6.19,7.44-1.26,4.3-1.05,9.46.61,14.52,1.66,5.07,4.53,9.36,8.09,12.08,3.2,2.45,6.53,3.28,9.38,2.35h0c6.25-2.04,8.8-12.1,5.58-21.96-1.66-5.07-4.53-9.36-8.09-12.08-2.34-1.79-4.76-2.72-7.01-2.72Z"/>
                    <path class="cls-sirius_system-2" d="m6767.94,2535.17c-5.14,0-10.03-1.06-14.17-3.1-6.01-2.97-9.76-7.64-10.55-13.17s1.47-11.08,6.4-15.62c4.59-4.24,11.02-7.13,18.12-8.16,7.1-1.03,14.09-.07,19.69,2.7,6.01,2.97,9.76,7.64,10.55,13.17.8,5.53-1.47,11.08-6.4,15.62-4.59,4.24-11.02,7.13-18.12,8.16-1.86.27-3.7.4-5.52.4Zm5.22-33.9c-1.47,0-2.97.1-4.49.32-11.34,1.64-20.03,9.14-18.98,16.37,1.05,7.24,11.51,11.97,22.84,10.33,11.34-1.64,20.03-9.14,18.98-16.37-.91-6.27-8.87-10.66-18.35-10.66Z"/>
                    <path class="cls-sirius_system-12" d="m6623.38,2316.22c-2.51,0-4.92-.57-7.13-1.71h0c-4.95-2.56-8.13-7.63-8.96-14.26-.77-6.18.61-13.09,3.9-19.44,3.29-6.35,8.12-11.47,13.62-14.41,5.89-3.15,11.87-3.48,16.82-.92,4.95,2.56,8.13,7.63,8.96,14.26.77,6.18-.61,13.09-3.9,19.44-3.29,6.35-8.12,11.47-13.62,14.41-3.27,1.75-6.56,2.63-9.69,2.63Zm11.11-45.91c-2.07,0-4.31.62-6.6,1.84-4.34,2.32-8.21,6.46-10.9,11.65-2.69,5.19-3.83,10.74-3.22,15.63.55,4.43,2.5,7.72,5.48,9.27h0c2.98,1.54,6.79,1.23,10.73-.88,4.34-2.32,8.21-6.46,10.9-11.65,5.25-10.14,4.21-21.54-2.26-24.89-1.25-.65-2.64-.97-4.13-.97Z"/>
                    <path class="cls-sirius_system-7" d="m6863.1,2459.57c-3.09,0-5.93-1.02-8.04-3.14-5.2-5.2-3.81-14.75,3.17-21.73,6.98-6.98,16.53-8.38,21.73-3.17h0c5.2,5.2,3.81,14.75-3.17,21.73-4.14,4.14-9.18,6.32-13.69,6.32Zm8.9-24.65c-2.93,0-6.59,1.85-9.15,4.4-3.7,3.7-5.92,9.74-3.17,12.49,2.75,2.74,8.79.53,12.49-3.17,3.7-3.7,5.92-9.74,3.17-12.49-.85-.85-2.02-1.23-3.34-1.23Z"/>
                    <path class="cls-sirius_system-7" d="m6596.94,2333.13c-3.18,0-6.03-1.08-8.06-3.12-5.2-5.2-3.81-14.75,3.17-21.73,6.98-6.98,16.53-8.38,21.73-3.17,5.2,5.2,3.81,14.75-3.17,21.73-3.17,3.17-7.05,5.31-10.93,6.03-.93.17-1.85.26-2.74.26Zm8.88-24.63c-2.93,0-6.59,1.85-9.15,4.4-3.7,3.7-5.92,9.74-3.17,12.49,1.45,1.45,3.75,1.28,4.99,1.05,2.55-.47,5.28-2.01,7.5-4.23,3.7-3.7,5.92-9.74,3.17-12.49-.85-.85-2.02-1.23-3.34-1.23Z"/>
                    <path class="cls-sirius_system-1" d="m6698.62,2307.55c-5.1,0-9.36-2.52-10.53-6.66-.77-2.73-.01-5.74,2.08-8.25,1.83-2.2,4.55-3.9,7.66-4.77,6.96-1.97,13.6.68,15.1,6.01h0c1.51,5.34-2.77,11.06-9.73,13.02-1.56.44-3.1.65-4.57.65Zm3.73-13.79c-.84,0-1.77.12-2.76.4-1.82.51-3.43,1.48-4.41,2.66-.33.39-1.06,1.41-.81,2.29.37,1.32,3.3,2.55,7.04,1.5,3.74-1.06,5.59-3.64,5.22-4.96-.27-.97-1.93-1.89-4.28-1.89Z"/>
                </g>
            </g>
            <g class="sirius-system--sirius-c">
                <circle class="cls-sirius_system-18" cx="5945.62" cy="1544.87" r="131.89"/>
                <circle class="cls-sirius_system-5" cx="5945.62" cy="1544.87" r="105.04"/>
                <circle class="cls-sirius_system-14" cx="5945.62" cy="1544.87" r="97.69"/>
                <circle class="cls-sirius_system-5" cx="5933.71" cy="1535.7" r="73.89"/>
                <circle class="cls-sirius_system-9" cx="5925.6" cy="1525.95" r="50.27"/>
                <g>
                    <g>
                        <path class="cls-sirius_system-9" d="m5943.72,1628c-4.45,0-8.07-3.62-8.07-8.07s3.62-8.07,8.07-8.07,8.07,3.62,8.07,8.07-3.62,8.07-8.07,8.07Zm0-12.09c-2.22,0-4.03,1.81-4.03,4.03s1.81,4.03,4.03,4.03,4.03-1.81,4.03-4.03-1.81-4.03-4.03-4.03Z"/>
                        <path class="cls-sirius_system-9" d="m6021.58,1509.17c-4.45,0-8.07-3.62-8.07-8.07s3.62-8.07,8.07-8.07,8.07,3.62,8.07,8.07-3.62,8.07-8.07,8.07Zm0-12.09c-2.22,0-4.03,1.81-4.03,4.03s1.81,4.03,4.03,4.03,4.03-1.81,4.03-4.03-1.81-4.03-4.03-4.03Z"/>
                    </g>
                    <g>
                        <path class="cls-sirius_system-14" d="m5911,1576.19c-4.45,0-8.07-3.62-8.07-8.07s3.62-8.07,8.07-8.07,8.07,3.62,8.07,8.07-3.62,8.07-8.07,8.07Zm0-12.09c-2.22,0-4.03,1.81-4.03,4.03s1.81,4.03,4.03,4.03,4.03-1.81,4.03-4.03-1.81-4.03-4.03-4.03Z"/>
                        <path class="cls-sirius_system-14" d="m5930.29,1556.96c-5.18,0-9.4-4.22-9.4-9.4s4.22-9.4,9.4-9.4,9.4,4.22,9.4,9.4-4.22,9.4-9.4,9.4Zm0-14.76c-2.96,0-5.36,2.41-5.36,5.36s2.41,5.36,5.36,5.36,5.36-2.41,5.36-5.36-2.41-5.36-5.36-5.36Z"/>
                        <path class="cls-sirius_system-14" d="m5952.77,1558.84c-2.74,0-4.97-2.23-4.97-4.97s2.23-4.97,4.97-4.97,4.97,2.23,4.97,4.97-2.23,4.97-4.97,4.97Zm0-5.91c-.52,0-.94.42-.94.94s.42.94.94.94.94-.42.94-.94-.42-.94-.94-.94Z"/>
                        <path class="cls-sirius_system-14" d="m5984.26,1506.08c-2.74,0-4.97-2.23-4.97-4.97s2.23-4.97,4.97-4.97,4.97,2.23,4.97,4.97-2.23,4.97-4.97,4.97Zm0-5.91c-.52,0-.94.42-.94.94s.42.94.94.94.94-.42.94-.94-.42-.94-.94-.94Z"/>
                        <path class="cls-sirius_system-14" d="m5939.22,1492.58c-3.59,0-6.52-2.92-6.52-6.52s2.92-6.52,6.52-6.52,6.52,2.92,6.52,6.52-2.92,6.52-6.52,6.52Zm0-9c-1.37,0-2.48,1.11-2.48,2.48s1.11,2.48,2.48,2.48,2.48-1.11,2.48-2.48-1.11-2.48-2.48-2.48Z"/>
                        <path class="cls-sirius_system-14" d="m6001.08,1499.57c-2.63,0-5.42-.79-7.98-2.27-6.3-3.63-9.13-10.11-6.46-14.74,2.67-4.63,9.7-5.41,16-1.78,2.88,1.66,5.16,4.03,6.41,6.66,1.38,2.88,1.39,5.75.04,8.09-1.35,2.33-3.84,3.76-7.02,4-.33.03-.66.04-.99.04Zm-6.46-17.02c-2.02,0-3.7.68-4.48,2.03-1.49,2.58.79,6.81,4.98,9.23,2.15,1.24,4.57,1.86,6.64,1.7,1.05-.08,2.95-.45,3.84-2h0c.89-1.55.26-3.38-.19-4.33-.89-1.87-2.64-3.66-4.79-4.9-2-1.16-4.15-1.73-6-1.73Z"/>
                        <path class="cls-sirius_system-14" d="m5868.73,1585.64c-2.26,0-4.59-.85-6.76-2.52-2.84-2.17-5.11-5.52-6.38-9.42s-1.42-7.94-.41-11.37c1.09-3.7,3.38-6.29,6.44-7.29,3.07-1,6.44-.26,9.51,2.08,2.84,2.17,5.11,5.52,6.38,9.42,2.76,8.45.11,16.65-6.03,18.66h0c-.89.29-1.81.44-2.74.44Zm-4.39-26.98c-.51,0-1,.08-1.47.23-1.76.58-3.12,2.21-3.82,4.59-.78,2.66-.65,5.84.38,8.97,1.02,3.13,2.8,5.78,5,7.46,1.98,1.51,4.03,2.03,5.8,1.45h0c3.86-1.26,5.44-7.48,3.45-13.57-1.02-3.13-2.8-5.78-5-7.46-1.45-1.11-2.94-1.68-4.33-1.68Z"/>
                        <path class="cls-sirius_system-14" d="m5966.12,1645.07c-3.17,0-6.2-.65-8.75-1.91-3.71-1.83-6.03-4.72-6.52-8.14s.91-6.84,3.95-9.65c2.84-2.62,6.81-4.41,11.2-5.04,4.39-.63,8.71-.04,12.17,1.67,3.71,1.83,6.03,4.72,6.52,8.14.49,3.42-.91,6.84-3.95,9.65-2.84,2.62-6.81,4.41-11.2,5.04-1.15.17-2.29.25-3.41.25Zm3.22-20.95c-.91,0-1.83.06-2.77.2-7,1.01-12.38,5.64-11.73,10.12.65,4.47,7.11,7.4,14.11,6.39,7-1.01,12.38-5.64,11.73-10.12-.56-3.87-5.48-6.59-11.34-6.59Z"/>
                    </g>
                    <g>
                        <path class="cls-sirius_system-3" d="m6031.65,1572.14c-3.33,0-6.04-2.71-6.04-6.04s2.71-6.04,6.04-6.04,6.04,2.71,6.04,6.04-2.71,6.04-6.04,6.04Zm0-8.05c-1.11,0-2,.9-2,2s.9,2.01,2,2.01,2.01-.9,2.01-2.01-.9-2-2.01-2Z"/>
                        <path class="cls-sirius_system-3" d="m5884.21,1568.12c-3.33,0-6.04-2.71-6.04-6.04s2.71-6.04,6.04-6.04,6.04,2.71,6.04,6.04-2.71,6.04-6.04,6.04Zm0-8.05c-1.11,0-2.01.9-2.01,2s.9,2,2.01,2,2-.9,2-2-.9-2-2-2Z"/>
                        <path class="cls-sirius_system-3" d="m5940.41,1649.11c-2.29,0-4.73-.69-6.96-1.97-2.51-1.45-4.5-3.51-5.59-5.81-1.2-2.51-1.21-5.13-.03-7.18,1.18-2.05,3.45-3.35,6.23-3.56,2.54-.2,5.32.49,7.83,1.94,5.52,3.18,7.98,8.89,5.62,12.98h0c-1.18,2.05-3.45,3.35-6.23,3.56-.29.02-.58.03-.87.03Zm-5.49-14.52c-.18,0-.37,0-.54.02-.84.07-2.35.36-3.05,1.56-.69,1.2-.19,2.66.17,3.42.74,1.54,2.18,3.02,3.97,4.05,1.78,1.03,3.79,1.54,5.49,1.41.84-.07,2.35-.36,3.05-1.56,1.17-2.03-.76-5.52-4.14-7.47-1.6-.92-3.37-1.43-4.95-1.43Z"/>
                        <path class="cls-sirius_system-3" d="m5876.79,1509.79c-1.55,0-3.04-.35-4.41-1.06h0c-3.06-1.58-5.03-4.71-5.54-8.81-.48-3.82.38-8.09,2.41-12.01,2.03-3.93,5.02-7.09,8.41-8.9,3.64-1.95,7.33-2.15,10.39-.57,3.06,1.58,5.03,4.71,5.54,8.81.48,3.82-.38,8.09-2.41,12.01-2.03,3.93-5.02,7.09-8.41,8.9-2.02,1.08-4.05,1.62-5.99,1.62Zm6.86-28.36c-1.28,0-2.66.38-4.08,1.14-2.68,1.43-5.07,3.99-6.73,7.2-1.66,3.21-2.37,6.64-1.99,9.66.34,2.74,1.55,4.77,3.39,5.73h0c1.84.95,4.2.76,6.63-.54,2.68-1.43,5.07-3.99,6.73-7.2,3.24-6.27,2.6-13.31-1.4-15.38-.77-.4-1.63-.6-2.55-.6Z"/>
                    </g>
                    <g>
                        <path class="cls-sirius_system-11" d="m5996.15,1519.9c-2.29,0-4.73-.69-6.96-1.97-5.52-3.18-7.98-8.89-5.62-12.98,2.37-4.1,8.54-4.81,14.05-1.63,2.51,1.45,4.5,3.51,5.59,5.81,1.2,2.51,1.21,5.13.03,7.18-1.18,2.05-3.45,3.35-6.23,3.56-.29.02-.58.03-.87.03Zm-5.51-14.5c-1.62,0-2.97.52-3.57,1.57-1.17,2.03.76,5.52,4.14,7.47,1.78,1.03,3.79,1.54,5.49,1.41.84-.07,2.35-.36,3.05-1.56h0c.69-1.2.19-2.66-.17-3.42-.74-1.54-2.18-3.02-3.97-4.05-1.64-.95-3.43-1.42-4.97-1.42Z"/>
                        <path class="cls-sirius_system-11" d="m5883.4,1593.2c-2.63,0-5.42-.79-7.98-2.27-2.88-1.66-5.16-4.03-6.41-6.66-1.38-2.88-1.39-5.75-.04-8.09,1.35-2.33,3.84-3.75,7.02-4,2.9-.23,6.09.56,8.97,2.23,6.3,3.63,9.13,10.11,6.46,14.74h0c-1.35,2.33-3.84,3.76-7.03,4-.33.03-.66.04-.99.04Zm-6.43-17.01c-.22,0-.44,0-.66.03-1.05.08-2.95.45-3.84,2-.89,1.55-.26,3.38.19,4.33.89,1.87,2.64,3.66,4.79,4.9,2.15,1.24,4.57,1.86,6.64,1.7,1.05-.08,2.95-.45,3.84-2,1.49-2.58-.79-6.81-4.98-9.23-1.92-1.11-4.06-1.72-5.97-1.72Z"/>
                        <path class="cls-sirius_system-11" d="m6024.91,1598.36c-1.91,0-3.66-.63-4.97-1.94-3.21-3.21-2.35-9.11,1.96-13.43,4.31-4.31,10.21-5.18,13.43-1.96h0c3.21,3.21,2.35,9.11-1.96,13.43-2.56,2.56-5.67,3.9-8.46,3.9Zm5.5-15.23c-1.81,0-4.07,1.14-5.65,2.72-2.29,2.29-3.66,6.02-1.96,7.72,1.7,1.7,5.43.33,7.72-1.96,2.29-2.29,3.66-6.02,1.96-7.72-.53-.53-1.25-.76-2.06-.76Z"/>
                        <path class="cls-sirius_system-11" d="m5860.46,1520.24c-1.96,0-3.72-.67-4.98-1.93-3.21-3.21-2.35-9.11,1.96-13.43,4.31-4.31,10.21-5.18,13.43-1.96,3.21,3.21,2.35,9.11-1.96,13.43-1.96,1.96-4.36,3.28-6.75,3.73-.58.11-1.14.16-1.7.16Zm5.49-15.22c-1.81,0-4.07,1.14-5.65,2.72-2.29,2.29-3.66,6.02-1.96,7.72.9.9,2.32.79,3.08.65,1.58-.29,3.26-1.24,4.63-2.61,2.29-2.29,3.66-6.02,1.96-7.72-.53-.53-1.25-.76-2.06-.76Z"/>
                    </g>
                    <g>
                        <path class="cls-sirius_system-5" d="m5952.56,1505.61c-2.22,0-4.65-.65-6.97-1.99-2.51-1.45-4.5-3.51-5.59-5.81-1.2-2.51-1.21-5.13-.03-7.18,2.37-4.1,8.54-4.81,14.05-1.63,2.51,1.45,4.5,3.51,5.59,5.81,1.2,2.51,1.21,5.13.03,7.18h0c-1.37,2.38-4.02,3.61-7.08,3.61Zm-5.52-14.52c-1.62,0-2.97.52-3.57,1.57-.69,1.2-.19,2.66.17,3.42.74,1.54,2.18,3.02,3.97,4.05,3.38,1.95,7.37,1.88,8.54-.15h0c.69-1.2.19-2.66-.17-3.42-.74-1.54-2.18-3.02-3.97-4.05-1.64-.95-3.43-1.42-4.97-1.42Z"/>
                        <path class="cls-sirius_system-5" d="m5923.29,1504.43c-3.15,0-5.79-1.56-6.51-4.11-.48-1.69,0-3.54,1.28-5.1,1.13-1.36,2.81-2.41,4.73-2.95,4.3-1.21,8.4.42,9.33,3.71h0c.93,3.3-1.71,6.83-6.01,8.05-.96.27-1.92.4-2.82.4Zm2.31-8.52c-.52,0-1.1.07-1.71.25-1.13.32-2.12.92-2.72,1.64-.2.24-.66.87-.5,1.42.23.81,2.04,1.58,4.35.92,2.31-.65,3.45-2.25,3.22-3.06-.17-.6-1.19-1.17-2.64-1.17Z"/>
                    </g>
                </g>
            </g>
            <g class="sirius-system-sirius-a">
                <circle class="cls-sirius_system-17" cx="4326.95" cy="463.05" r="463.05"/>
                <g>
                    <circle class="cls-sirius_system-4" cx="4326.95" cy="463.05" r="391.08"/>
                    <circle class="cls-sirius_system-6" cx="4326.95" cy="463.05" r="363.71"/>
                    <circle class="cls-sirius_system-4" cx="4282.59" cy="428.9" r="275.08"/>
                    <circle class="cls-sirius_system-15" cx="4252.38" cy="392.61" r="187.15"/>
                    <g class="cls-sirius_system-16">
                        <circle class="cls-sirius_system-2" cx="4174.71" cy="362.75" r="6.78"/>
                        <circle class="cls-sirius_system-2" cx="4212.47" cy="310.59" r="6.78"/>
                        <circle class="cls-sirius_system-2" cx="4205.7" cy="282.84" r="6.78"/>
                        <circle class="cls-sirius_system-2" cx="4205.7" cy="362.75" r="8.27"/>
                        <circle class="cls-sirius_system-2" cx="4051.26" cy="422.55" r="6.78"/>
                        <circle class="cls-sirius_system-2" cx="4037.71" cy="371.36" r="6.78"/>
                        <circle class="cls-sirius_system-2" cx="4080.83" cy="445.96" r="9.69"/>
                        <circle class="cls-sirius_system-2" cx="4228.88" cy="773.41" r="8.27"/>
                        <circle class="cls-sirius_system-2" cx="3972.36" cy="482.22" r="6.78"/>
                        <circle class="cls-sirius_system-2" cx="4205.7" cy="733.56" r="9.69"/>
                        <circle class="cls-sirius_system-2" cx="4082.3" cy="661.15" r="8.27"/>
                        <circle class="cls-sirius_system-2" cx="4002.37" cy="513.78" r="6.78"/>
                        <circle class="cls-sirius_system-2" cx="4038.13" cy="571.11" r="8.27"/>
                        <circle class="cls-sirius_system-2" cx="4113.76" cy="465.76" r="6.78"/>
                        <circle class="cls-sirius_system-2" cx="4074.04" cy="583.18" r="8.27"/>
                        <circle class="cls-sirius_system-2" cx="4087.61" cy="491.91" r="6.78"/>
                        <circle class="cls-sirius_system-2" cx="4213.96" cy="482.22" r="9.69"/>
                        <circle class="cls-sirius_system-2" cx="4196.01" cy="513.78" r="8.27"/>
                        <circle class="cls-sirius_system-2" cx="4248.26" cy="258.18" r="6.78"/>
                        <circle class="cls-sirius_system-2" cx="4159.67" cy="422.55" r="8.27"/>
                        <circle class="cls-sirius_system-2" cx="4378.48" cy="123.85" r="6.78"/>
                        <circle class="cls-sirius_system-2" cx="4409.47" cy="150.96" r="9.69"/>
                        <circle class="cls-sirius_system-2" cx="4255.03" cy="183.65" r="6.78"/>
                        <circle class="cls-sirius_system-2" cx="4284.6" cy="207.06" r="9.69"/>
                        <circle class="cls-sirius_system-2" cx="4301.06" cy="307.79" r="9.69"/>
                        <circle class="cls-sirius_system-2" cx="4283.11" cy="333.95" r="8.27"/>
                        <circle class="cls-sirius_system-2" cx="4317.53" cy="226.86" r="6.78"/>
                        <circle class="cls-sirius_system-2" cx="4291.38" cy="253.01" r="6.78"/>
                        <circle class="cls-sirius_system-2" cx="4399.78" cy="274.89" r="8.27"/>
                        <circle class="cls-sirius_system-2" cx="4442.34" cy="266.62" r="9.69"/>
                        <circle class="cls-sirius_system-2" cx="4363.44" cy="183.65" r="8.27"/>
                        <circle class="cls-sirius_system-2" cx="4199.95" cy="172.86" r="8.27"/>
                        <circle class="cls-sirius_system-2" cx="4147.2" cy="310.59" r="9.69"/>
                        <circle class="cls-sirius_system-2" cx="4149.88" cy="274.05" r="6.78"/>
                        <circle class="cls-sirius_system-2" cx="4100.83" cy="220.72" r="9.69"/>
                        <circle class="cls-sirius_system-2" cx="4120.64" cy="195.94" r="8.27"/>
                        <circle class="cls-sirius_system-2" cx="4106.49" cy="276.06" r="6.78"/>
                        <circle class="cls-sirius_system-2" cx="3992.69" cy="408.77" r="8.27"/>
                        <circle class="cls-sirius_system-2" cx="4027.1" cy="301.68" r="6.78"/>
                        <circle class="cls-sirius_system-2" cx="4000.95" cy="327.83" r="6.78"/>
                        <circle class="cls-sirius_system-2" cx="4394.43" cy="676.59" r="6.78"/>
                        <circle class="cls-sirius_system-2" cx="4432.19" cy="624.44" r="6.78"/>
                        <circle class="cls-sirius_system-2" cx="4425.42" cy="596.68" r="6.78"/>
                        <circle class="cls-sirius_system-2" cx="4425.42" cy="676.59" r="8.27"/>
                        <circle class="cls-sirius_system-2" cx="4298.23" cy="698.76" r="6.78"/>
                        <circle class="cls-sirius_system-2" cx="4300.55" cy="759.8" r="9.69"/>
                        <circle class="cls-sirius_system-2" cx="4333.48" cy="779.6" r="6.78"/>
                        <circle class="cls-sirius_system-2" cx="4307.33" cy="805.75" r="6.78"/>
                        <circle class="cls-sirius_system-2" cx="4433.68" cy="796.06" r="9.69"/>
                        <circle class="cls-sirius_system-2" cx="4379.39" cy="736.39" r="8.27"/>
                        <circle class="cls-sirius_system-2" cx="4277.76" cy="669.81" r="8.27"/>
                        <circle class="cls-sirius_system-2" cx="4520.78" cy="621.63" r="9.69"/>
                        <circle class="cls-sirius_system-2" cx="4502.83" cy="647.79" r="8.27"/>
                        <circle class="cls-sirius_system-2" cx="4166.72" cy="585.1" r="6.78"/>
                        <circle class="cls-sirius_system-2" cx="4255.31" cy="582.3" r="9.69"/>
                        <circle class="cls-sirius_system-2" cx="4366.93" cy="624.44" r="9.69"/>
                        <circle class="cls-sirius_system-2" cx="4298.23" cy="614.07" r="6.78"/>
                        <circle class="cls-sirius_system-2" cx="4210.95" cy="698.64" r="6.78"/>
                        <circle class="cls-sirius_system-2" cx="4121.45" cy="715.79" r="6.78"/>
                        <circle class="cls-sirius_system-2" cx="4141.78" cy="700.39" r="8.27"/>
                        <circle class="cls-sirius_system-2" cx="4162.25" cy="644.65" r="6.78"/>
                        <circle class="cls-sirius_system-2" cx="4226.1" cy="537.37" r="6.78"/>
                        <circle class="cls-sirius_system-2" cx="4105.5" cy="561.26" r="6.78"/>
                        <circle class="cls-sirius_system-2" cx="4339.63" cy="375.95" r="6.78"/>
                        <circle class="cls-sirius_system-2" cx="4312.2" cy="367.94" r="6.78"/>
                        <circle class="cls-sirius_system-2" cx="4337.02" cy="529.13" r="6.78"/>
                        <circle class="cls-sirius_system-2" cx="4381.5" cy="297.83" r="9.69"/>
                        <circle class="cls-sirius_system-2" cx="4395.18" cy="326.45" r="8.27"/>
                        <circle class="cls-sirius_system-2" cx="4307" cy="432.47" r="9.69"/>
                        <circle class="cls-sirius_system-2" cx="4263.67" cy="486.78" r="6.78"/>
                        <circle class="cls-sirius_system-2" cx="4601.58" cy="687" r="6.78"/>
                        <circle class="cls-sirius_system-2" cx="4625.49" cy="588.3" r="9.69"/>
                        <circle class="cls-sirius_system-2" cx="4655.62" cy="608.57" r="8.27"/>
                        <circle class="cls-sirius_system-2" cx="4561.93" cy="637.99" r="8.27"/>
                        <circle class="cls-sirius_system-2" cx="4560.04" cy="520.5" r="6.78"/>
                        <circle class="cls-sirius_system-2" cx="4633.76" cy="539.07" r="6.78"/>
                        <circle class="cls-sirius_system-2" cx="4597.02" cy="543.28" r="6.78"/>
                        <circle class="cls-sirius_system-2" cx="4445.43" cy="293.15" r="6.78"/>
                        <circle class="cls-sirius_system-2" cx="4516.13" cy="309.01" r="9.69"/>
                        <circle class="cls-sirius_system-2" cx="4513.98" cy="340.66" r="8.27"/>
                        <circle class="cls-sirius_system-2" cx="4584.39" cy="230.47" r="8.27"/>
                        <circle class="cls-sirius_system-2" cx="4636.53" cy="385.32" r="6.78"/>
                        <circle class="cls-sirius_system-2" cx="4584" cy="348.07" r="6.78"/>
                        <circle class="cls-sirius_system-2" cx="4556.31" cy="355.13" r="6.78"/>
                        <circle class="cls-sirius_system-2" cx="4636.22" cy="354.33" r="8.27"/>
                        <circle class="cls-sirius_system-2" cx="4580.32" cy="259.52" r="9.69"/>
                        <circle class="cls-sirius_system-2" cx="4606.65" cy="277.21" r="8.27"/>
                        <circle class="cls-sirius_system-2" cx="4584.65" cy="413.34" r="9.69"/>
                        <circle class="cls-sirius_system-2" cx="4548.08" cy="411.03" r="6.78"/>
                        <circle class="cls-sirius_system-2" cx="4550.52" cy="454.39" r="6.78"/>
                        <circle class="cls-sirius_system-2" cx="4522.55" cy="275.43" r="6.78"/>
                        <circle class="cls-sirius_system-2" cx="4564.33" cy="307.37" r="8.27"/>
                        <circle class="cls-sirius_system-2" cx="4480.45" cy="188.67" r="6.78"/>
                        <circle class="cls-sirius_system-2" cx="4454.8" cy="201.26" r="6.78"/>
                        <circle class="cls-sirius_system-2" cx="4532.84" cy="184.08" r="8.27"/>
                        <circle class="cls-sirius_system-2" cx="4410.31" cy="466.61" r="6.78"/>
                        <circle class="cls-sirius_system-2" cx="4375.72" cy="479.7" r="6.78"/>
                        <circle class="cls-sirius_system-2" cx="4494.89" cy="522.81" r="9.69"/>
                        <circle class="cls-sirius_system-2" cx="4465.55" cy="544.2" r="8.27"/>
                        <circle class="cls-sirius_system-2" cx="4538.33" cy="547.4" r="6.78"/>
                        <circle class="cls-sirius_system-2" cx="4519.25" cy="418.18" r="6.78"/>
                        <circle class="cls-sirius_system-2" cx="4534.74" cy="391.34" r="8.27"/>
                        <circle class="cls-sirius_system-2" cx="4460.33" cy="415.92" r="9.69"/>
                        <circle class="cls-sirius_system-2" cx="4430.02" cy="395.33" r="6.78"/>
                        <circle class="cls-sirius_system-2" cx="4410.07" cy="433.91" r="6.78"/>
                    </g>
                    <g>
                        <path class="cls-sirius_system-4" d="m4319.84,772.54c-16.56,0-30.03-13.47-30.03-30.03s13.47-30.03,30.03-30.03,30.03,13.47,30.03,30.03-13.47,30.03-30.03,30.03Zm0-45.02c-8.27,0-14.99,6.73-14.99,14.99s6.73,14.99,14.99,14.99,14.99-6.73,14.99-14.99-6.73-14.99-14.99-14.99Z"/>
                        <path class="cls-sirius_system-4" d="m4609.75,330.13c-16.56,0-30.03-13.47-30.03-30.03s13.47-30.03,30.03-30.03,30.03,13.47,30.03,30.03-13.47,30.03-30.03,30.03Zm0-45.02c-8.27,0-14.99,6.73-14.99,14.99s6.73,14.99,14.99,14.99,14.99-6.73,14.99-14.99-6.73-14.99-14.99-14.99Z"/>
                        <path class="cls-sirius_system-2" d="m4198.05,579.63c-16.56,0-30.03-13.47-30.03-30.03s13.47-30.03,30.03-30.03,30.03,13.47,30.03,30.03-13.47,30.03-30.03,30.03Zm0-45.02c-8.27,0-14.99,6.73-14.99,14.99s6.73,14.99,14.99,14.99,14.99-6.73,14.99-14.99-6.73-14.99-14.99-14.99Z"/>
                        <path class="cls-sirius_system-13" d="m4647.24,564.57c-12.41,0-22.5-10.09-22.5-22.5s10.09-22.5,22.5-22.5,22.5,10.09,22.5,22.5-10.09,22.5-22.5,22.5Zm0-29.96c-4.12,0-7.46,3.35-7.46,7.46s3.35,7.46,7.46,7.46,7.46-3.35,7.46-7.46-3.35-7.46-7.46-7.46Z"/>
                        <path class="cls-sirius_system-13" d="m4098.3,549.59c-12.41,0-22.5-10.09-22.5-22.5s10.09-22.5,22.5-22.5,22.5,10.09,22.5,22.5-10.09,22.5-22.5,22.5Zm0-29.96c-4.12,0-7.46,3.35-7.46,7.46s3.35,7.46,7.46,7.46,7.46-3.35,7.46-7.46-3.35-7.46-7.46-7.46Z"/>
                        <path class="cls-sirius_system-2" d="m4269.85,508.03c-19.3,0-35-15.7-35-35s15.7-35,35-35,35,15.7,35,35-15.7,35-35,35Zm0-54.96c-11.01,0-19.96,8.96-19.96,19.96s8.96,19.96,19.96,19.96,19.96-8.96,19.96-19.96-8.96-19.96-19.96-19.96Z"/>
                        <path class="cls-sirius_system-2" d="m4353.53,515.04c-10.21,0-18.52-8.31-18.52-18.52s8.31-18.52,18.52-18.52,18.52,8.31,18.52,18.52-8.31,18.52-18.52,18.52Zm0-22c-1.92,0-3.48,1.56-3.48,3.48s1.56,3.48,3.48,3.48,3.48-1.56,3.48-3.48-1.56-3.48-3.48-3.48Z"/>
                        <path class="cls-sirius_system-2" d="m4470.8,318.62c-10.21,0-18.52-8.31-18.52-18.52s8.31-18.52,18.52-18.52,18.52,8.31,18.52,18.52-8.31,18.52-18.52,18.52Zm0-22c-1.92,0-3.48,1.56-3.48,3.48s1.56,3.48,3.48,3.48,3.48-1.56,3.48-3.48-1.56-3.48-3.48-3.48Z"/>
                        <path class="cls-sirius_system-2" d="m4303.09,268.37c-13.38,0-24.27-10.89-24.27-24.27s10.89-24.27,24.27-24.27,24.27,10.89,24.27,24.27-10.89,24.27-24.27,24.27Zm0-33.51c-5.09,0-9.24,4.14-9.24,9.24s4.14,9.24,9.24,9.24,9.24-4.14,9.24-9.24-4.14-9.24-9.24-9.24Z"/>
                        <path class="cls-sirius_system-8" d="m4352.78,316.86c-8.26,0-17.32-2.42-25.94-7.4-9.35-5.4-16.74-13.08-20.82-21.62-4.46-9.35-4.5-19.09-.1-26.71,8.81-15.25,31.79-17.91,52.32-6.05,9.35,5.4,16.74,13.08,20.82,21.62,4.46,9.35,4.5,19.09.1,26.71h0c-5.11,8.84-14.98,13.45-26.38,13.45Zm-20.55-54.05c-6.05,0-11.05,1.95-13.29,5.83-2.58,4.47-.7,9.89.65,12.72,2.74,5.75,8.13,11.24,14.77,15.08,12.57,7.26,27.42,7,31.78-.55h0c2.58-4.47.7-9.89-.65-12.72-2.74-5.75-8.13-11.24-14.77-15.08-6.11-3.53-12.77-5.28-18.49-5.28Z"/>
                        <path class="cls-sirius_system-13" d="m4307.53,851.12c-8.53,0-17.61-2.56-25.9-7.34-9.35-5.4-16.74-13.07-20.82-21.62-4.46-9.35-4.5-19.09-.1-26.71,4.4-7.62,12.85-12.46,23.18-13.27,9.44-.74,19.79,1.82,29.14,7.22,20.53,11.86,29.72,33.09,20.92,48.34h0c-4.4,7.62-12.85,12.46-23.19,13.27-1.07.08-2.15.13-3.23.13Zm-20.44-54.04c-.68,0-1.36.03-2.02.08-3.13.25-8.76,1.33-11.34,5.8-2.58,4.47-.7,9.89.65,12.72,2.74,5.75,8.13,11.24,14.77,15.08,6.64,3.84,14.1,5.75,20.44,5.25,3.13-.25,8.76-1.33,11.34-5.8,4.36-7.55-2.84-20.54-15.42-27.8-5.95-3.43-12.55-5.33-18.42-5.33Z"/>
                        <path class="cls-sirius_system-15" d="m4515.04,370.06c-8.54,0-17.61-2.56-25.9-7.34-20.53-11.86-29.72-33.09-20.92-48.34,8.81-15.25,31.79-17.91,52.32-6.05,9.35,5.39,16.74,13.07,20.82,21.62,4.46,9.35,4.5,19.09.1,26.71-4.4,7.62-12.85,12.46-23.18,13.27-1.07.08-2.15.13-3.23.13Zm-20.51-54c-6.04,0-11.05,1.95-13.29,5.83-4.36,7.55,2.84,20.54,15.42,27.8,6.64,3.84,14.09,5.75,20.44,5.25,3.13-.25,8.76-1.33,11.34-5.8h0c2.58-4.47.7-9.89-.65-12.72-2.74-5.75-8.13-11.24-14.77-15.08-6.11-3.53-12.77-5.28-18.49-5.28Z"/>
                        <path class="cls-sirius_system-2" d="m4533.4,294.38c-9.78,0-20.19-2.94-29.71-8.43-23.44-13.53-34-37.64-24.04-54.88,9.96-17.24,36.12-20.15,59.55-6.62,10.73,6.19,19.21,14.99,23.88,24.78,5.12,10.73,5.18,21.42.16,30.11-5.01,8.68-14.3,13.98-26.15,14.91-1.22.1-2.45.14-3.69.14Zm-24.05-63.35c-7.53,0-13.78,2.54-16.68,7.55-5.55,9.61,2.94,25.34,18.54,34.35,8.01,4.62,17.01,6.93,24.71,6.32,3.92-.31,10.99-1.68,14.31-7.44h0c3.32-5.76.98-12.57-.71-16.11-3.32-6.97-9.82-13.61-17.83-18.23-7.46-4.31-15.44-6.44-22.34-6.44Z"/>
                        <path class="cls-sirius_system-15" d="m4095.27,642.96c-9.78,0-20.19-2.94-29.71-8.43-10.73-6.19-19.21-14.99-23.88-24.78-5.12-10.73-5.18-21.42-.16-30.11,5.01-8.68,14.3-13.98,26.15-14.91,10.81-.85,22.67,2.1,33.4,8.29,23.44,13.53,34,37.64,24.04,54.88h0c-5.01,8.68-14.3,13.98-26.15,14.91-1.22.1-2.45.14-3.69.14Zm-23.95-63.34c-.83,0-1.66.03-2.46.09-3.92.31-10.99,1.68-14.31,7.44-3.32,5.76-.98,12.57.71,16.11,3.32,6.97,9.82,13.61,17.83,18.23,8.01,4.62,17.01,6.92,24.71,6.32,3.92-.31,10.99-1.68,14.31-7.44,5.55-9.61-2.94-25.34-18.54-34.35-7.16-4.14-15.13-6.42-22.24-6.42Z"/>
                        <path class="cls-sirius_system-2" d="m4040.68,614.81c-8.43,0-17.1-3.18-25.18-9.37-10.58-8.09-19.02-20.54-23.76-35.05-4.75-14.52-5.29-29.55-1.53-42.32,4.05-13.78,12.57-23.42,23.98-27.15,11.41-3.73,23.98-.98,35.39,7.74,10.58,8.09,19.02,20.54,23.76,35.05,10.29,31.48.43,61.99-22.45,69.47h0c-3.32,1.09-6.74,1.62-10.21,1.62Zm-16.35-100.46c-1.88,0-3.72.28-5.47.86-6.56,2.15-11.62,8.22-14.23,17.1-2.91,9.89-2.41,21.75,1.4,33.41,3.81,11.66,10.42,21.52,18.6,27.78,7.35,5.63,15.02,7.54,21.59,5.4h0c14.37-4.7,20.25-27.83,12.83-50.51-3.81-11.66-10.42-21.52-18.6-27.78-5.39-4.12-10.95-6.25-16.11-6.25Z"/>
                        <path class="cls-sirius_system-2" d="m4403.24,836.08c-11.82,0-23.07-2.43-32.59-7.13-13.82-6.82-22.44-17.58-24.28-30.3-1.84-12.72,3.39-25.48,14.71-35.93,10.56-9.74,25.36-16.41,41.69-18.76,16.33-2.36,32.41-.15,45.29,6.2,13.82,6.82,22.44,17.58,24.28,30.3,1.84,12.72-3.39,25.48-14.71,35.93-10.56,9.74-25.36,16.41-41.69,18.76-4.27.62-8.52.92-12.7.92Zm12-77.98c-3.37,0-6.83.24-10.32.75-26.08,3.77-46.07,21.01-43.67,37.67,2.4,16.65,26.47,27.54,52.54,23.77,26.08-3.77,46.08-21.01,43.67-37.67-2.08-14.42-20.41-24.52-42.22-24.52Z"/>
                        <path class="cls-sirius_system-13" d="m4070.68,332.43c-5.79,0-11.33-1.31-16.4-3.93h0c-11.39-5.89-18.71-17.54-20.62-32.8-1.78-14.22,1.41-30.1,8.97-44.72,7.56-14.62,18.69-26.39,31.33-33.15,13.56-7.25,27.3-8.01,38.69-2.11,11.39,5.89,18.71,17.54,20.62,32.81,1.78,14.22-1.41,30.1-8.97,44.72-7.56,14.62-18.69,26.39-31.33,33.15-7.52,4.02-15.09,6.04-22.29,6.05Zm25.56-105.6c-4.75,0-9.92,1.42-15.19,4.24-9.98,5.34-18.89,14.86-25.07,26.81-6.18,11.94-8.81,24.71-7.41,35.95,1.28,10.2,5.75,17.77,12.61,21.32h0c6.86,3.55,15.62,2.83,24.69-2.02,9.98-5.34,18.89-14.86,25.07-26.81,12.07-23.33,9.69-49.56-5.2-57.26-2.87-1.49-6.08-2.22-9.5-2.22Z"/>
                        <path class="cls-sirius_system-15" d="m4622.12,662.19c-7.11,0-13.63-2.36-18.51-7.23-11.97-11.97-8.76-33.93,7.3-49.99,16.06-16.06,38.02-19.27,49.99-7.3h0c11.97,11.97,8.76,33.93-7.3,49.99-9.53,9.53-21.13,14.53-31.48,14.53Zm20.47-56.71c-6.74,0-15.17,4.25-21.05,10.12-8.52,8.52-13.62,22.42-7.3,28.73,6.31,6.31,20.21,1.22,28.73-7.3,8.52-8.52,13.62-22.42,7.3-28.73-1.96-1.96-4.65-2.82-7.68-2.82Z"/>
                        <path class="cls-sirius_system-15" d="m4009.88,371.34c-7.31,0-13.86-2.49-18.54-7.17-11.97-11.97-8.76-33.93,7.3-49.99,16.06-16.06,38.02-19.27,49.99-7.3,11.97,11.97,8.76,33.93-7.3,49.99-7.3,7.3-16.22,12.23-25.14,13.88-2.15.4-4.26.59-6.31.59Zm20.44-56.65c-6.74,0-15.17,4.25-21.05,10.12-8.52,8.52-13.62,22.42-7.3,28.73,3.34,3.34,8.63,2.95,11.48,2.42,5.87-1.09,12.15-4.63,17.25-9.73,8.52-8.52,13.62-22.42,7.3-28.73-1.96-1.96-4.65-2.82-7.68-2.82Z"/>
                        <path class="cls-sirius_system-8" d="m4243.78,312.49c-11.74,0-21.54-5.79-24.23-15.32-1.77-6.28-.03-13.19,4.78-18.98,4.21-5.06,10.46-8.96,17.61-10.98,16.02-4.52,31.28,1.55,34.75,13.83h0c3.46,12.27-6.37,25.43-22.39,29.95-3.58,1.01-7.13,1.49-10.52,1.49Zm8.59-31.72c-1.94,0-4.08.27-6.35.92-4.19,1.18-7.88,3.41-10.14,6.12-.75.91-2.45,3.24-1.87,5.28.85,3.03,7.59,5.87,16.19,3.44,8.61-2.43,12.86-8.38,12-11.4-.63-2.23-4.44-4.36-9.85-4.36Z"/>
                    </g>
                </g>
            </g>
        </g>
    </g>
</svg>