<?xml version="1.0" encoding="UTF-8"?>
<svg id="stephenson2Layer3" xmlns="http://www.w3.org/2000/svg" xmlns:xlink="http://www.w3.org/1999/xlink" viewBox="0 0 891.4 902.92">
    <defs>
        <style>
            .cls-Stephenson2-18-1{fill:url(#Stephenson2-18_Unbenannter_Verlauf_139-2);}
            .cls-Stephenson2-18-2{fill:url(#Stephenson2-18_Unbenannter_Verlauf_22-2);}
            .cls-Stephenson2-18-3{fill:#ec646d;}
            .cls-Stephenson2-18-4{fill:#e89715;}
            .cls-Stephenson2-18-5{fill:#e95313;}
            .cls-Stephenson2-18-6{fill:#ef7925;}
            .cls-Stephenson2-18-7{fill:#ed1429;}
            .cls-Stephenson2-18-8{fill:#e73738;}
            .cls-Stephenson2-18-9{fill:#b81918;}
            .cls-Stephenson2-18-10{fill:#d11918;}
            .cls-Stephenson2-18-11{fill:#961914;}
            .cls-Stephenson2-18-12{opacity:.75;}
            .cls-Stephenson2-18-13{fill:url(#Stephenson2-18_Unbenannter_Verlauf_122);}
            .cls-Stephenson2-18-14{fill:url(#Stephenson2-18_Unbenannter_Verlauf_128);}
            .cls-Stephenson2-18-15{fill:url(#Stephenson2-18_Unbenannter_Verlauf_116);}
            .cls-Stephenson2-18-16{fill:url(#Stephenson2-18_Unbenannter_Verlauf_139);}
            .cls-Stephenson2-18-17{fill:url(#Stephenson2-18_Unbenannter_Verlauf_133);}
            .cls-Stephenson2-18-18{fill:url(#Stephenson2-18_Unbenannter_Verlauf_100);}
            .cls-Stephenson2-18-19{fill:url(#Stephenson2-18_Unbenannter_Verlauf_112);}
            .cls-Stephenson2-18-20{fill:url(#Stephenson2-18_Unbenannter_Verlauf_107);}
            .cls-Stephenson2-18-21{fill:url(#Stephenson2-18_Unbenannter_Verlauf_64);}
            .cls-Stephenson2-18-22{fill:url(#Stephenson2-18_Unbenannter_Verlauf_55);}
            .cls-Stephenson2-18-23{fill:url(#Stephenson2-18_Unbenannter_Verlauf_15);}
            .cls-Stephenson2-18-24{fill:url(#Stephenson2-18_Unbenannter_Verlauf_11);}
            .cls-Stephenson2-18-25{fill:url(#Stephenson2-18_Unbenannter_Verlauf_22);}
            .cls-Stephenson2-18-26{fill:url(#Stephenson2-18_Unbenannter_Verlauf_49);}
        </style>
        <linearGradient id="Stephenson2-18_Unbenannter_Verlauf_128" x1="206.58" y1="582.9" x2="35.4" y2="645.2" gradientUnits="userSpaceOnUse">
            <stop offset="0" stop-color="#d11918" stop-opacity=".9"/>
            <stop offset="1" stop-color="#e73738" stop-opacity="0"/>
        </linearGradient>
        <linearGradient id="Stephenson2-18_Unbenannter_Verlauf_133" x1="191.23" y1="290.3" x2="9.23" y2="258.21" gradientUnits="userSpaceOnUse">
            <stop offset="0" stop-color="#d11918" stop-opacity=".7"/>
            <stop offset=".94" stop-color="#e73738" stop-opacity="0"/>
        </linearGradient>
        <linearGradient id="Stephenson2-18_Unbenannter_Verlauf_107" x1="604.62" y1="205.59" x2="835.97" y2="72.01" gradientUnits="userSpaceOnUse">
            <stop offset="0" stop-color="#d11918" stop-opacity=".7"/>
            <stop offset=".95" stop-color="#e73738" stop-opacity="0"/>
        </linearGradient>
        <linearGradient id="Stephenson2-18_Unbenannter_Verlauf_116" x1="684.18" y1="567.31" x2="817.88" y2="798.88" gradientUnits="userSpaceOnUse">
            <stop offset="0" stop-color="#d11918" stop-opacity=".7"/>
            <stop offset=".95" stop-color="#e73738" stop-opacity="0"/>
        </linearGradient>
        <linearGradient id="Stephenson2-18_Unbenannter_Verlauf_112" x1="719.32" y1="276.05" x2="867.11" y2="172.57" gradientUnits="userSpaceOnUse">
            <stop offset="0" stop-color="#d11918"/>
            <stop offset="1" stop-color="#e73738" stop-opacity="0"/>
        </linearGradient>
        <linearGradient id="Stephenson2-18_Unbenannter_Verlauf_100" x1="219.16" y1="205.69" x2="61.49" y2="114.66" gradientUnits="userSpaceOnUse">
            <stop offset="0" stop-color="#d11918" stop-opacity=".9"/>
            <stop offset=".95" stop-color="#e73738" stop-opacity="0"/>
        </linearGradient>
        <linearGradient id="Stephenson2-18_Unbenannter_Verlauf_122" x1="1625.31" y1="4473.84" x2="1647.78" y2="4601.26" gradientTransform="translate(-1742.49 -6173.53) rotate(7.55) scale(1.05 1.46) skewX(17.57)" gradientUnits="userSpaceOnUse">
            <stop offset="0" stop-color="#d11918" stop-opacity=".5"/>
            <stop offset=".9" stop-color="#e73738" stop-opacity="0"/>
        </linearGradient>
        <radialGradient id="Stephenson2-18_Unbenannter_Verlauf_22" cx="349.02" cy="607.91" fx="349.02" fy="607.91" r="208.79" gradientUnits="userSpaceOnUse">
            <stop offset=".81" stop-color="#ef7925" stop-opacity="0"/>
            <stop offset=".9" stop-color="#ef7925" stop-opacity=".3"/>
            <stop offset="1" stop-color="#ef7925" stop-opacity="0"/>
        </radialGradient>
        <radialGradient id="Stephenson2-18_Unbenannter_Verlauf_55" cx="250.69" cy="223.59" fx="250.69" fy="223.59" r="152.39" gradientUnits="userSpaceOnUse">
            <stop offset=".81" stop-color="#d11918" stop-opacity="0"/>
            <stop offset=".91" stop-color="#d11918" stop-opacity=".3"/>
            <stop offset="1" stop-color="#d11918" stop-opacity="0"/>
        </radialGradient>
        <radialGradient id="Stephenson2-18_Unbenannter_Verlauf_49" cx="649.08" cy="573.15" fx="649.08" fy="573.15" r="152.39" gradientUnits="userSpaceOnUse">
            <stop offset=".81" stop-color="#d11918" stop-opacity="0"/>
            <stop offset=".9" stop-color="#d11918" stop-opacity=".3"/>
            <stop offset="1" stop-color="#d11918" stop-opacity="0"/>
        </radialGradient>
        <radialGradient id="Stephenson2-18_Unbenannter_Verlauf_64" cx="441.15" cy="108.98" fx="441.15" fy="108.98" r="82.76" gradientUnits="userSpaceOnUse">
            <stop offset=".81" stop-color="#e95313" stop-opacity="0"/>
            <stop offset=".9" stop-color="#e95313" stop-opacity=".3"/>
            <stop offset="1" stop-color="#e95313" stop-opacity="0"/>
        </radialGradient>
        <radialGradient id="Stephenson2-18_Unbenannter_Verlauf_22-2" cx="809.28" cy="383.17" fx="809.28" fy="383.17" r="44.65" xlink:href="#Stephenson2-18_Unbenannter_Verlauf_22"/>
        <radialGradient id="Stephenson2-18_Unbenannter_Verlauf_139" cx="721.39" cy="294.5" fx="721.39" fy="294.5" r="135.38" gradientUnits="userSpaceOnUse">
            <stop offset=".81" stop-color="#f59e22" stop-opacity="0"/>
            <stop offset=".91" stop-color="#f59e22" stop-opacity=".3"/>
            <stop offset="1" stop-color="#f59e22" stop-opacity="0"/>
        </radialGradient>
        <radialGradient id="Stephenson2-18_Unbenannter_Verlauf_139-2" cx="467.11" cy="724.17" fx="467.11" fy="724.17" r="82.76" xlink:href="#Stephenson2-18_Unbenannter_Verlauf_139"/>
        <radialGradient id="Stephenson2-18_Unbenannter_Verlauf_15" cx="469.59" cy="421.8" fx="469.59" fy="421.8" r="421.8" gradientUnits="userSpaceOnUse">
            <stop offset=".69" stop-color="#b81918"/>
            <stop offset="1" stop-color="#ec646d" stop-opacity="0"/>
        </radialGradient>
        <radialGradient id="Stephenson2-18_Unbenannter_Verlauf_11" cx="471.1" cy="422.41" fx="471.1" fy="422.41" r="348.15" gradientUnits="userSpaceOnUse">
            <stop offset=".94" stop-color="#961914" stop-opacity=".9"/>
            <stop offset="1" stop-color="#b81918" stop-opacity=".4"/>
        </radialGradient>
    </defs>
    <g id="Stephenson2-18">
        <g>
            <g>
                <g class="stephenson-2-shine-outward">
                    <polygon class="cls-Stephenson2-18-14" points="187.57 544.94 209.45 590.78 63.37 691.91 17.11 594.97 187.57 544.94"/>
                    <polygon class="cls-Stephenson2-18-17" points="191.3 289.89 175.51 338.16 0 310.57 33.4 208.49 191.3 289.89"/>
                    <polygon class="cls-Stephenson2-18-20" points="660.08 266.93 621.18 234.27 763.76 20.35 846.02 89.41 660.08 266.93"/>
                    <polygon class="cls-Stephenson2-18-15" points="624.72 620.18 658.42 582.18 868.39 730.52 797.12 810.87 624.72 620.18"/>
                    <polygon class="cls-Stephenson2-18-19" points="717.07 272.84 701.88 243.94 848.65 146.21 880.77 207.32 717.07 272.84"/>
                    <polygon class="cls-Stephenson2-18-18" points="213.8 214.96 192.08 239.34 49.02 136.25 94.96 84.7 213.8 214.96"/>
                    <polygon class="cls-Stephenson2-18-13" points="534.09 714.46 565.52 705.59 634.86 884.17 568.41 902.92 534.09 714.46"/>
                </g>
                <g class="stephenson-2-shine-circles">
                    <path class="cls-Stephenson2-18-25" d="m349.02,816.7c-115.13,0-208.79-93.66-208.79-208.79s93.66-208.79,208.79-208.79,208.79,93.66,208.79,208.79-93.66,208.79-208.79,208.79Zm0-377.58c-93.07,0-168.79,75.72-168.79,168.79s75.72,168.79,168.79,168.79,168.79-75.72,168.79-168.79-75.72-168.79-168.79-168.79Z"/>
                    <path class="cls-Stephenson2-18-22" d="m250.69,375.99c-84.03,0-152.39-68.36-152.39-152.39S166.66,71.2,250.69,71.2s152.39,68.36,152.39,152.39-68.36,152.39-152.39,152.39Zm0-275.59c-67.93,0-123.2,55.27-123.2,123.2s55.27,123.2,123.2,123.2,123.2-55.27,123.2-123.2-55.27-123.2-123.2-123.2Z"/>
                    <path class="cls-Stephenson2-18-26" d="m649.08,725.54c-84.03,0-152.39-68.36-152.39-152.39s68.36-152.39,152.39-152.39,152.39,68.36,152.39,152.39-68.36,152.39-152.39,152.39Zm0-275.59c-67.93,0-123.2,55.27-123.2,123.2s55.27,123.2,123.2,123.2,123.2-55.27,123.2-123.2-55.27-123.2-123.2-123.2Z"/>
                    <path class="cls-Stephenson2-18-21" d="m441.15,191.74c-45.64,0-82.76-37.13-82.76-82.76s37.13-82.76,82.76-82.76,82.76,37.13,82.76,82.76-37.13,82.76-82.76,82.76Zm0-149.67c-36.89,0-66.91,30.01-66.91,66.91s30.01,66.91,66.91,66.91,66.91-30.01,66.91-66.91-30.01-66.91-66.91-66.91Z"/>
                    <path class="cls-Stephenson2-18-2" d="m809.28,427.82c-24.62,0-44.65-20.03-44.65-44.65s20.03-44.65,44.65-44.65,44.65,20.03,44.65,44.65-20.03,44.65-44.65,44.65Zm0-80.75c-19.9,0-36.1,16.19-36.1,36.1s16.19,36.1,36.1,36.1,36.1-16.19,36.1-36.1-16.19-36.1-36.1-36.1Z"/>
                    <path class="cls-Stephenson2-18-16" d="m721.39,429.88c-74.65,0-135.38-60.73-135.38-135.38s60.73-135.38,135.38-135.38,135.38,60.73,135.38,135.38-60.73,135.38-135.38,135.38Zm0-244.82c-60.35,0-109.44,49.1-109.44,109.44s49.1,109.44,109.44,109.44,109.44-49.1,109.44-109.44-49.1-109.44-109.44-109.44Z"/>
                    <path class="cls-Stephenson2-18-1" d="m467.11,806.93c-45.64,0-82.76-37.13-82.76-82.76s37.13-82.76,82.76-82.76,82.76,37.13,82.76,82.76-37.13,82.76-82.76,82.76Zm0-149.67c-36.89,0-66.91,30.01-66.91,66.91s30.01,66.91,66.91,66.91,66.91-30.01,66.91-66.91-30.01-66.91-66.91-66.91Z"/>
                </g>
                <g class="stephenson-2-shine-main">
                    <circle class="cls-Stephenson2-18-23" cx="469.59" cy="421.8" r="421.8"/>
                    <path class="cls-Stephenson2-18-24" d="m492.78,77.49h0c21.85-6.66,45.56-2.91,64.28,10.18h0c12.11,8.47,26.47,13.13,41.24,13.4h0c22.84.42,44.23,11.31,57.99,29.55h0c8.9,11.79,21.12,20.67,35.08,25.49h0c21.6,7.46,38.57,24.43,46.02,46.02h0c4.82,13.97,13.7,26.18,25.49,35.08h0c18.23,13.76,29.13,35.15,29.55,57.99h0c.27,14.77,4.94,29.13,13.4,41.24h0c13.09,18.73,16.84,42.43,10.18,64.28h0c-4.31,14.13-4.31,29.23,0,43.36h0c6.66,21.85,2.91,45.56-10.18,64.28h0c-8.47,12.11-13.13,26.47-13.4,41.24h0c-.42,22.84-11.31,44.23-29.55,57.99h0c-11.79,8.9-20.67,21.12-25.49,35.08h0c-7.46,21.6-24.43,38.57-46.02,46.02h0c-13.97,4.82-26.18,13.7-35.08,25.49h0c-13.76,18.23-35.15,29.13-57.99,29.55h0c-14.77.27-29.13,4.94-41.24,13.4h0c-18.73,13.09-42.43,16.84-64.28,10.18h0c-14.13-4.31-29.23-4.31-43.36,0h0c-21.85,6.66-45.56,2.91-64.28-10.18h0c-12.11-8.47-26.47-13.13-41.24-13.4h0c-22.84-.42-44.23-11.31-57.99-29.55h0c-8.9-11.79-21.12-20.67-35.08-25.49h0c-21.6-7.46-38.57-24.43-46.02-46.02h0c-4.82-13.97-13.7-26.18-25.49-35.08h0c-18.23-13.76-29.13-35.15-29.55-57.99h0c-.27-14.77-4.94-29.13-13.4-41.24h0c-13.09-18.73-16.84-42.43-10.18-64.28h0c4.31-14.13,4.31-29.23,0-43.36h0c-6.66-21.85-2.91-45.56,10.18-64.28h0c8.47-12.11,13.13-26.47,13.4-41.24h0c.42-22.84,11.31-44.23,29.55-57.99h0c11.79-8.9,20.67-21.12,25.49-35.08h0c7.46-21.6,24.43-38.57,46.02-46.02h0c13.97-4.82,26.18-13.7,35.08-25.49h0c13.76-18.23,35.15-29.13,57.99-29.55h0c14.77-.27,29.13-4.94,41.24-13.4h0c18.73-13.09,42.43-16.84,64.28-10.18h0c14.13,4.31,29.23,4.31,43.36,0Z"/>
                </g>
            </g>
            <g>
                <g class="stephenson-2-main-body-layers">
                    <circle class="cls-Stephenson2-18-11" cx="471.1" cy="423.48" r="338.18"/>
                    <circle class="cls-Stephenson2-18-9" cx="471.1" cy="423.48" r="314.51"/>
                    <circle class="cls-Stephenson2-18-8" cx="432.74" cy="393.95" r="237.87"/>
                    <circle class="cls-Stephenson2-18-5" cx="406.62" cy="362.57" r="161.83"/>
                </g>
                <g class="cls-Stephenson2-18-12 stephenson-2-glow-specks">
                    <g>
                        <circle class="cls-Stephenson2-18-7" cx="339.46" cy="336.74" r="5.86"/>
                        <circle class="cls-Stephenson2-18-7" cx="386.3" cy="691.85" r="7.15"/>
                        <circle class="cls-Stephenson2-18-7" cx="164.48" cy="440.05" r="5.86"/>
                        <circle class="cls-Stephenson2-18-7" cx="373.4" cy="440.05" r="8.38"/>
                        <circle class="cls-Stephenson2-18-7" cx="403.05" cy="246.33" r="5.86"/>
                        <circle class="cls-Stephenson2-18-7" cx="542.46" cy="153.6" r="8.38"/>
                        <circle class="cls-Stephenson2-18-7" cx="408.91" cy="181.88" r="5.86"/>
                        <circle class="cls-Stephenson2-18-7" cx="570.88" cy="253.62" r="8.38"/>
                        <circle class="cls-Stephenson2-18-7" cx="562.11" cy="563.03" r="5.86"/>
                        <circle class="cls-Stephenson2-18-7" cx="556.25" cy="608.13" r="7.15"/>
                        <circle class="cls-Stephenson2-18-7" cx="310.98" cy="628.71" r="7.15"/>
                        <circle class="cls-Stephenson2-18-7" cx="674.29" cy="574.75" r="7.15"/>
                        <circle class="cls-Stephenson2-18-7" cx="693.72" cy="222.36" r="7.15"/>
                        <circle class="cls-Stephenson2-18-7" cx="693.38" cy="324.06" r="5.86"/>
                        <circle class="cls-Stephenson2-18-7" cx="543.18" cy="426.56" r="5.86"/>
                        <circle class="cls-Stephenson2-18-7" cx="637.39" cy="384.68" r="5.86"/>
                        <circle class="cls-Stephenson2-18-7" cx="560.23" cy="364.92" r="5.86"/>
                    </g>
                    <g>
                        <circle class="cls-Stephenson2-18-4" cx="515.66" cy="130.17" r="5.86"/>
                        <circle class="cls-Stephenson2-18-4" cx="372.11" cy="291.65" r="5.86"/>
                        <circle class="cls-Stephenson2-18-4" cx="366.25" cy="267.64" r="5.86"/>
                        <circle class="cls-Stephenson2-18-4" cx="366.25" cy="336.74" r="7.15"/>
                        <circle class="cls-Stephenson2-18-4" cx="232.71" cy="388.46" r="5.86"/>
                        <circle class="cls-Stephenson2-18-4" cx="220.99" cy="344.2" r="5.86"/>
                        <circle class="cls-Stephenson2-18-4" cx="258.28" cy="408.7" r="8.38"/>
                        <circle class="cls-Stephenson2-18-4" cx="366.25" cy="657.4" r="8.38"/>
                        <circle class="cls-Stephenson2-18-4" cx="259.55" cy="594.78" r="7.15"/>
                        <circle class="cls-Stephenson2-18-4" cx="190.44" cy="467.35" r="5.86"/>
                        <circle class="cls-Stephenson2-18-4" cx="221.36" cy="516.92" r="7.15"/>
                        <circle class="cls-Stephenson2-18-4" cx="286.75" cy="425.82" r="5.86"/>
                        <circle class="cls-Stephenson2-18-4" cx="252.4" cy="527.36" r="7.15"/>
                        <circle class="cls-Stephenson2-18-4" cx="264.14" cy="448.43" r="5.86"/>
                        <circle class="cls-Stephenson2-18-4" cx="357.88" cy="467.35" r="7.15"/>
                        <circle class="cls-Stephenson2-18-4" cx="326.45" cy="388.46" r="7.15"/>
                        <circle class="cls-Stephenson2-18-4" cx="434.48" cy="202.12" r="8.38"/>
                        <circle class="cls-Stephenson2-18-4" cx="448.72" cy="289.22" r="8.38"/>
                        <circle class="cls-Stephenson2-18-4" cx="433.19" cy="311.84" r="7.15"/>
                        <circle class="cls-Stephenson2-18-4" cx="462.95" cy="219.24" r="5.86"/>
                        <circle class="cls-Stephenson2-18-4" cx="440.34" cy="241.85" r="5.86"/>
                        <circle class="cls-Stephenson2-18-4" cx="534.08" cy="260.77" r="7.15"/>
                        <circle class="cls-Stephenson2-18-4" cx="502.65" cy="181.88" r="7.15"/>
                        <circle class="cls-Stephenson2-18-4" cx="361.29" cy="172.55" r="7.15"/>
                        <circle class="cls-Stephenson2-18-4" cx="315.67" cy="291.65" r="8.38"/>
                        <circle class="cls-Stephenson2-18-4" cx="317.99" cy="260.04" r="5.86"/>
                        <circle class="cls-Stephenson2-18-4" cx="275.57" cy="213.93" r="8.38"/>
                        <circle class="cls-Stephenson2-18-4" cx="292.71" cy="192.5" r="7.15"/>
                        <circle class="cls-Stephenson2-18-4" cx="280.47" cy="261.78" r="5.86"/>
                        <circle class="cls-Stephenson2-18-4" cx="182.06" cy="376.54" r="7.15"/>
                        <circle class="cls-Stephenson2-18-4" cx="211.82" cy="283.94" r="5.86"/>
                        <circle class="cls-Stephenson2-18-4" cx="189.21" cy="306.55" r="5.86"/>
                        <circle class="cls-Stephenson2-18-4" cx="529.45" cy="608.13" r="5.86"/>
                        <circle class="cls-Stephenson2-18-4" cx="556.25" cy="539.03" r="5.86"/>
                        <circle class="cls-Stephenson2-18-4" cx="446.27" cy="627.3" r="5.86"/>
                        <circle class="cls-Stephenson2-18-4" cx="448.27" cy="680.08" r="8.38"/>
                        <circle class="cls-Stephenson2-18-4" cx="476.75" cy="697.2" r="5.86"/>
                        <circle class="cls-Stephenson2-18-4" cx="454.13" cy="719.82" r="5.86"/>
                        <circle class="cls-Stephenson2-18-4" cx="563.4" cy="711.44" r="8.38"/>
                        <circle class="cls-Stephenson2-18-4" cx="516.45" cy="659.84" r="7.15"/>
                        <circle class="cls-Stephenson2-18-4" cx="428.57" cy="602.27" r="7.15"/>
                        <circle class="cls-Stephenson2-18-4" cx="638.71" cy="560.61" r="8.38"/>
                        <circle class="cls-Stephenson2-18-4" cx="623.19" cy="583.23" r="7.15"/>
                        <circle class="cls-Stephenson2-18-4" cx="332.55" cy="529.02" r="5.86"/>
                        <circle class="cls-Stephenson2-18-4" cx="409.16" cy="526.59" r="8.38"/>
                        <circle class="cls-Stephenson2-18-4" cx="505.67" cy="563.03" r="8.38"/>
                        <circle class="cls-Stephenson2-18-4" cx="446.27" cy="554.07" r="5.86"/>
                        <circle class="cls-Stephenson2-18-4" cx="370.8" cy="627.2" r="5.86"/>
                        <circle class="cls-Stephenson2-18-4" cx="293.4" cy="642.03" r="5.86"/>
                        <circle class="cls-Stephenson2-18-4" cx="328.68" cy="580.52" r="5.86"/>
                        <circle class="cls-Stephenson2-18-4" cx="383.9" cy="487.74" r="5.86"/>
                        <circle class="cls-Stephenson2-18-4" cx="279.61" cy="508.4" r="5.86"/>
                        <circle class="cls-Stephenson2-18-4" cx="482.07" cy="348.16" r="5.86"/>
                        <circle class="cls-Stephenson2-18-4" cx="458.35" cy="341.23" r="5.86"/>
                        <circle class="cls-Stephenson2-18-4" cx="479.81" cy="480.62" r="5.86"/>
                        <circle class="cls-Stephenson2-18-4" cx="518.27" cy="280.61" r="8.38"/>
                        <circle class="cls-Stephenson2-18-4" cx="530.1" cy="305.36" r="7.15"/>
                        <circle class="cls-Stephenson2-18-4" cx="453.85" cy="397.04" r="8.38"/>
                        <circle class="cls-Stephenson2-18-4" cx="416.39" cy="444" r="5.86"/>
                        <circle class="cls-Stephenson2-18-4" cx="708.58" cy="617.13" r="5.86"/>
                        <circle class="cls-Stephenson2-18-4" cx="729.26" cy="531.79" r="8.38"/>
                        <circle class="cls-Stephenson2-18-4" cx="755.31" cy="549.31" r="7.15"/>
                        <circle class="cls-Stephenson2-18-4" cx="672.66" cy="473.16" r="5.86"/>
                        <circle class="cls-Stephenson2-18-4" cx="736.41" cy="489.22" r="5.86"/>
                        <circle class="cls-Stephenson2-18-4" cx="704.63" cy="492.85" r="5.86"/>
                        <circle class="cls-Stephenson2-18-4" cx="573.56" cy="276.56" r="5.86"/>
                        <circle class="cls-Stephenson2-18-4" cx="634.69" cy="290.27" r="8.38"/>
                        <circle class="cls-Stephenson2-18-4" cx="632.83" cy="317.64" r="7.15"/>
                        <circle class="cls-Stephenson2-18-4" cx="738.8" cy="356.26" r="5.86"/>
                        <circle class="cls-Stephenson2-18-4" cx="669.44" cy="330.15" r="5.86"/>
                        <circle class="cls-Stephenson2-18-4" cx="738.53" cy="329.47" r="7.15"/>
                        <circle class="cls-Stephenson2-18-4" cx="690.2" cy="247.48" r="8.38"/>
                        <circle class="cls-Stephenson2-18-4" cx="712.97" cy="262.78" r="7.15"/>
                        <circle class="cls-Stephenson2-18-4" cx="693.94" cy="380.49" r="8.38"/>
                        <circle class="cls-Stephenson2-18-4" cx="662.31" cy="378.49" r="5.86"/>
                        <circle class="cls-Stephenson2-18-4" cx="664.43" cy="415.99" r="5.86"/>
                        <circle class="cls-Stephenson2-18-4" cx="640.24" cy="261.24" r="5.86"/>
                        <circle class="cls-Stephenson2-18-4" cx="676.37" cy="288.86" r="7.15"/>
                        <circle class="cls-Stephenson2-18-4" cx="603.84" cy="186.22" r="5.86"/>
                        <circle class="cls-Stephenson2-18-4" cx="581.66" cy="197.1" r="5.86"/>
                        <circle class="cls-Stephenson2-18-4" cx="649.14" cy="182.24" r="7.15"/>
                        <circle class="cls-Stephenson2-18-4" cx="513.28" cy="437.88" r="5.86"/>
                        <circle class="cls-Stephenson2-18-4" cx="616.32" cy="475.15" r="8.38"/>
                        <circle class="cls-Stephenson2-18-4" cx="590.95" cy="493.65" r="7.15"/>
                        <circle class="cls-Stephenson2-18-4" cx="653.89" cy="496.42" r="5.86"/>
                        <circle class="cls-Stephenson2-18-4" cx="650.79" cy="361.47" r="7.15"/>
                        <circle class="cls-Stephenson2-18-4" cx="586.44" cy="382.73" r="8.38"/>
                        <circle class="cls-Stephenson2-18-4" cx="542.98" cy="398.28" r="5.86"/>
                    </g>
                </g>
                <g class="stephenson-2-glow-ovals">
                    <path class="cls-Stephenson2-18-10" d="m421.73,462.37c-16.69,0-30.26-13.58-30.26-30.26s13.58-30.26,30.26-30.26,30.26,13.58,30.26,30.26-13.58,30.26-30.26,30.26Zm0-47.52c-9.52,0-17.26,7.74-17.26,17.26s7.74,17.26,17.26,17.26,17.26-7.74,17.26-17.26-7.74-17.26-17.26-17.26Z"/>
                    <path class="cls-Stephenson2-18-8" d="m493.44,297.06c-7.14,0-14.97-2.09-22.43-6.4-8.08-4.67-14.48-11.31-18-18.7-3.86-8.09-3.89-16.51-.09-23.1,7.61-13.19,27.49-15.48,45.24-5.23,8.08,4.67,14.48,11.31,18,18.7,3.86,8.09,3.89,16.51.09,23.1h0c-4.41,7.65-12.95,11.63-22.81,11.63Zm-17.77-46.74c-5.23,0-9.56,1.69-11.49,5.04-2.23,3.87-.61,8.55.56,11,2.37,4.97,7.03,9.72,12.77,13.04,10.87,6.28,23.71,6.05,27.48-.48h0c2.23-3.87.61-8.55-.56-11-2.37-4.97-7.03-9.72-12.77-13.04-5.29-3.05-11.04-4.57-15.99-4.57Z"/>
                    <g>
                        <path class="cls-Stephenson2-18-11" d="m715.64,308.54c-14.32,0-25.97-11.65-25.97-25.96s11.65-25.97,25.97-25.97,25.96,11.65,25.96,25.97-11.65,25.96-25.96,25.96Zm0-38.93c-7.15,0-12.97,5.82-12.97,12.97s5.82,12.96,12.97,12.96,12.96-5.82,12.96-12.96-5.82-12.97-12.96-12.97Z"/>
                        <path class="cls-Stephenson2-18-11" d="m450.47,255.13c-11.57,0-20.99-9.42-20.99-20.99s9.42-20.99,20.99-20.99,20.99,9.42,20.99,20.99-9.42,20.99-20.99,20.99Zm0-28.98c-4.4,0-7.99,3.58-7.99,7.99s3.58,7.99,7.99,7.99,7.99-3.58,7.99-7.99-3.58-7.99-7.99-7.99Z"/>
                        <path class="cls-Stephenson2-18-11" d="m270.76,579.05c-8.45,0-17.46-2.54-25.69-7.29-9.28-5.36-16.61-12.97-20.65-21.43-4.43-9.28-4.48-18.52-.14-26.03,4.34-7.51,12.37-12.09,22.62-12.89,9.35-.73,19.6,1.81,28.88,7.17,20.27,11.7,29.4,32.55,20.79,47.46h0c-4.34,7.51-12.37,12.09-22.62,12.89-1.05.08-2.12.12-3.19.12Zm-20.71-54.77c-.72,0-1.43.03-2.13.08-3.39.27-9.5,1.46-12.37,6.43-2.87,4.98-.85,10.87.62,13.93,2.87,6.02,8.49,11.77,15.42,15.77,6.92,4,14.71,5.99,21.36,5.47,3.39-.27,9.5-1.46,12.38-6.43,4.8-8.31-2.54-21.91-16.03-29.7-6.2-3.58-13.08-5.55-19.23-5.55Z"/>
                    </g>
                    <g>
                        <path class="cls-Stephenson2-18-3" d="m359.64,524.28c-14.32,0-25.97-11.65-25.97-25.96s11.65-25.97,25.97-25.97,25.96,11.65,25.96,25.97-11.65,25.96-25.96,25.96Zm0-38.93c-7.15,0-12.97,5.82-12.97,12.97s5.82,12.96,12.97,12.96,12.96-5.82,12.96-12.96-5.82-12.97-12.96-12.97Z"/>
                        <path class="cls-Stephenson2-18-3" d="m494.09,468.43c-8.83,0-16.01-7.18-16.01-16.01s7.18-16.01,16.01-16.01,16.01,7.18,16.01,16.01-7.18,16.01-16.01,16.01Zm0-19.02c-1.66,0-3.01,1.35-3.01,3.01s1.35,3.01,3.01,3.01,3.01-1.35,3.01-3.01-1.35-3.01-3.01-3.01Z"/>
                        <path class="cls-Stephenson2-18-3" d="m649.62,277.63c-8.45,0-17.46-2.54-25.69-7.29-20.27-11.7-29.4-32.55-20.79-47.46,8.61-14.91,31.23-17.42,51.5-5.72,9.28,5.36,16.61,12.97,20.65,21.43,4.43,9.28,4.48,18.52.14,26.03-4.34,7.51-12.37,12.09-22.62,12.89-1.05.08-2.12.12-3.19.12Zm-20.8-54.78c-6.51,0-11.92,2.19-14.42,6.53-4.8,8.31,2.54,21.91,16.03,29.7,6.92,4,14.71,5.99,21.36,5.47,3.39-.27,9.5-1.46,12.37-6.43h0c2.87-4.98.85-10.87-.62-13.93-2.87-6.02-8.49-11.77-15.42-15.77-6.45-3.72-13.35-5.57-19.32-5.57Z"/>
                        <path class="cls-Stephenson2-18-3" d="m223.56,554.71c-7.29,0-14.78-2.75-21.78-8.1-9.15-7-16.44-17.76-20.55-30.31-4.1-12.55-4.57-25.55-1.33-36.6,3.5-11.91,10.87-20.25,20.74-23.48,9.87-3.23,20.74-.85,30.6,6.7,9.15,6.99,16.44,17.76,20.55,30.31,8.9,27.22.37,53.61-19.41,60.08h0c-2.87.94-5.83,1.4-8.83,1.4Zm-14.14-86.87c-1.63,0-3.21.25-4.73.74-5.68,1.86-10.05,7.11-12.31,14.79-2.51,8.55-2.08,18.81,1.21,28.89,3.29,10.08,9.01,18.61,16.09,24.03,6.36,4.86,12.99,6.52,18.67,4.67h0c12.43-4.06,17.51-24.06,11.1-43.68-3.29-10.08-9.01-18.61-16.09-24.02-4.66-3.56-9.47-5.41-13.93-5.41Z"/>
                        <path class="cls-Stephenson2-18-3" d="m537.07,746.04c-10.22,0-19.95-2.1-28.18-6.16-11.95-5.9-19.41-15.2-20.99-26.2-1.59-11,2.93-22.03,12.72-31.07,9.13-8.42,21.93-14.19,36.05-16.23,14.12-2.04,28.03-.13,39.17,5.37,11.95,5.9,19.41,15.2,20.99,26.2,1.59,11-2.93,22.03-12.72,31.07-9.13,8.42-21.93,14.19-36.05,16.23-3.69.53-7.37.8-10.99.8Zm10.38-67.44c-2.92,0-5.9.21-8.92.64-22.55,3.26-39.84,18.17-37.76,32.57,2.08,14.4,22.89,23.81,45.43,20.56,22.55-3.26,39.84-18.17,37.76-32.57-1.8-12.47-17.65-21.2-36.51-21.2Z"/>
                    </g>
                    <path class="cls-Stephenson2-18-11" d="m273.38,498.31c-10.73,0-19.46-8.73-19.46-19.45s8.73-19.45,19.46-19.45,19.45,8.73,19.45,19.45-8.73,19.45-19.45,19.45Zm0-25.91c-3.56,0-6.46,2.9-6.46,6.45s2.9,6.45,6.46,6.45,6.45-2.9,6.45-6.45-2.9-6.45-6.45-6.45Z"/>
                    <path class="cls-Stephenson2-18-11" d="m595.49,298.59c-8.83,0-16.01-7.18-16.01-16.01s7.18-16.01,16.01-16.01,16.01,7.18,16.01,16.01-7.18,16.01-16.01,16.01Zm0-19.02c-1.66,0-3.01,1.35-3.01,3.01s1.35,3.01,3.01,3.01,3.01-1.35,3.01-3.01-1.35-3.01-3.01-3.01Z"/>
                    <path class="cls-Stephenson2-18-10" d="m454.31,759.05c-7.38,0-15.23-2.21-22.4-6.35-8.08-4.67-14.48-11.31-18-18.7-3.86-8.09-3.89-16.51-.09-23.1,3.8-6.59,11.11-10.77,20.05-11.48,8.17-.64,17.11,1.58,25.19,6.24,17.76,10.25,25.7,28.61,18.09,41.8h0c-3.81,6.59-11.11,10.77-20.05,11.48-.92.07-1.86.11-2.8.11Zm-17.67-46.73c-.59,0-1.18.02-1.75.07-2.7.21-7.57,1.15-9.81,5.02-2.23,3.87-.61,8.55.56,11,2.37,4.97,7.03,9.72,12.77,13.04,5.74,3.32,12.19,4.97,17.68,4.54,2.7-.21,7.57-1.15,9.81-5.02,3.77-6.53-2.46-17.76-13.33-24.04-5.14-2.97-10.85-4.61-15.93-4.61Z"/>
                    <path class="cls-Stephenson2-18-10" d="m249.5,310.53c-5,0-9.79-1.13-14.18-3.4h0c-9.85-5.1-16.18-15.17-17.83-28.37-1.54-12.3,1.22-26.03,7.76-38.67,6.54-12.64,16.16-22.82,27.09-28.67,11.73-6.27,23.61-6.92,33.46-1.83,9.85,5.1,16.18,15.17,17.83,28.37,1.54,12.3-1.22,26.03-7.76,38.67-6.54,12.64-16.16,22.82-27.09,28.67-6.5,3.48-13.05,5.23-19.27,5.23Zm22.1-91.31c-4.11,0-8.58,1.23-13.13,3.67-8.63,4.62-16.33,12.85-21.68,23.18-5.35,10.33-7.62,21.37-6.41,31.08,1.1,8.82,4.98,15.36,10.91,18.43h0c5.93,3.07,13.51,2.45,21.35-1.74,8.63-4.62,16.33-12.85,21.68-23.18,10.44-20.18,8.38-42.85-4.5-49.52-2.48-1.29-5.26-1.92-8.22-1.92Z"/>
                    <path class="cls-Stephenson2-18-6" d="m633.75,343.07c-7.38,0-15.23-2.21-22.4-6.35-17.76-10.25-25.7-28.61-18.09-41.8,7.61-13.19,27.49-15.48,45.24-5.23,8.08,4.67,14.48,11.31,18,18.7,3.86,8.09,3.89,16.51.09,23.1-3.8,6.59-11.11,10.77-20.05,11.48-.92.07-1.86.11-2.8.11Zm-17.74-46.69c-5.23,0-9.56,1.69-11.49,5.04-3.77,6.53,2.46,17.76,13.33,24.04,5.74,3.32,12.19,4.97,17.68,4.54,2.7-.21,7.57-1.15,9.81-5.02h0c2.23-3.87.61-8.55-.56-11-2.37-4.97-7.03-9.72-12.77-13.04-5.29-3.05-11.04-4.57-15.99-4.57Z"/>
                    <path class="cls-Stephenson2-18-5" d="m726.34,595.68c-6.15,0-11.79-2.04-16-6.25-10.35-10.35-7.58-29.34,6.31-43.23,13.89-13.89,32.88-16.66,43.23-6.31h0c10.35,10.35,7.57,29.34-6.31,43.23-8.24,8.24-18.27,12.56-27.23,12.56Zm17.7-49.04c-5.83,0-13.12,3.67-18.2,8.75-7.37,7.37-11.77,19.38-6.31,24.84,5.46,5.46,17.48,1.05,24.84-6.31,7.37-7.37,11.77-19.38,6.31-24.84-1.69-1.69-4.02-2.44-6.64-2.44Z"/>
                    <path class="cls-Stephenson2-18-11" d="m196.92,344.17c-6.32,0-11.98-2.15-16.03-6.2-10.35-10.35-7.58-29.34,6.31-43.23,13.89-13.89,32.88-16.66,43.23-6.31,10.35,10.35,7.57,29.34-6.32,43.23-6.31,6.31-14.03,10.57-21.74,12-1.86.34-3.68.51-5.46.51Zm17.67-48.99c-5.83,0-13.12,3.67-18.2,8.75-7.37,7.37-11.77,19.38-6.31,24.84,2.89,2.89,7.46,2.55,9.93,2.1,5.07-.94,10.51-4.01,14.91-8.41,7.37-7.37,11.77-19.38,6.32-24.84-1.69-1.69-4.02-2.44-6.64-2.44Z"/>
                    <g>
                        <path class="cls-Stephenson2-18-6" d="m464.96,691.1c-14.32,0-25.97-11.65-25.97-25.96s11.65-25.97,25.97-25.97,25.96,11.65,25.96,25.97-11.65,25.96-25.96,25.96Zm0-38.93c-7.15,0-12.97,5.82-12.97,12.97s5.82,12.96,12.97,12.96,12.96-5.82,12.96-12.96-5.82-12.97-12.96-12.97Z"/>
                        <path class="cls-Stephenson2-18-6" d="m748.06,511.26c-10.73,0-19.45-8.73-19.45-19.46s8.73-19.45,19.45-19.45,19.46,8.73,19.46,19.45-8.73,19.46-19.46,19.46Zm0-25.91c-3.56,0-6.45,2.9-6.45,6.45s2.9,6.46,6.45,6.46,6.46-2.9,6.46-6.46-2.9-6.45-6.46-6.45Z"/>
                        <path class="cls-Stephenson2-18-6" d="m399.18,293.28c-10.15,0-18.63-5.01-20.95-13.25-1.53-5.43-.03-11.41,4.13-16.41,3.64-4.38,9.05-7.75,15.23-9.49,13.85-3.91,27.05,1.34,30.05,11.96h0c3,10.61-5.51,21.99-19.36,25.9-3.1.87-6.17,1.29-9.09,1.29Zm7.43-27.43c-1.67,0-3.53.24-5.49.79-3.62,1.02-6.82,2.95-8.77,5.29-.65.78-2.11,2.8-1.62,4.56.74,2.62,6.56,5.08,14,2.98,7.44-2.1,11.12-7.24,10.38-9.86-.54-1.93-3.84-3.77-8.51-3.77Z"/>
                    </g>
                </g>
            </g>
        </g>
    </g>
</svg>