<?xml version="1.0" encoding="UTF-8"?>
<svg id="Ebene_2" xmlns="http://www.w3.org/2000/svg" xmlns:xlink="http://www.w3.org/1999/xlink" viewBox="0 0 3379.62 1755">
    <defs>
        <style>
            .cls-SagittariusA-1{fill:url(#SagittariusA_Unbenannter_Verlauf_41-4);}
            .cls-SagittariusA-2{fill:url(#SagittariusA_Unbenannter_Verlauf_41-3);}
            .cls-SagittariusA-3{fill:url(#SagittariusA_Unbenannter_Verlauf_41-2);}
            .cls-SagittariusA-4{fill:url(#SagittariusA_Unbenannter_Verlauf_41-5);}
            .cls-SagittariusA-5{fill:#f4bc08;}
            .cls-SagittariusA-6,
            .cls-SagittariusA-7{fill:#f8cd2c;}
            .cls-SagittariusA-8{fill:#fff;}
            .cls-SagittariusA-9{fill:#ffe183;}
            .cls-SagittariusA-10{fill:#f45665;}
            .cls-SagittariusA-11,
            .cls-SagittariusA-12{fill:#e83945;}
            .cls-SagittariusA-13,
            .cls-SagittariusA-14{fill:#ee7016;}
            .cls-SagittariusA-15{fill:#fce9a5;}
            .cls-SagittariusA-16,
            .cls-SagittariusA-17{fill:#fdeaa6;}
            .cls-SagittariusA-18{fill:#6d0361;}
            .cls-SagittariusA-19,
            .cls-SagittariusA-20{fill:#911d7e;}
            .cls-SagittariusA-21{fill:#a83d9b;}
            .cls-SagittariusA-22{fill:#e25b00;}
            .cls-SagittariusA-23{fill:#db0e21;}
            .cls-SagittariusA-24{fill:url(#SagittariusA_Unbenannter_Verlauf_41);}
            .cls-SagittariusA-7,
            .cls-SagittariusA-20,
            .cls-SagittariusA-17,
            .cls-SagittariusA-14,
            .cls-SagittariusA-12{opacity:.5;}
        </style>
        <radialGradient id="SagittariusA_Unbenannter_Verlauf_41" cx="1427.41" cy="926.97" fx="1427.41" fy="926.97" r="48.19" gradientTransform="translate(3379.62) rotate(-180) scale(1 -1)" gradientUnits="userSpaceOnUse">
            <stop offset="0" stop-color="#fcea0d"/>
            <stop offset="0" stop-color="#fff" stop-opacity=".94"/>
            <stop offset="1" stop-color="#fff" stop-opacity="0"/>
        </radialGradient>
        <radialGradient id="SagittariusA_Unbenannter_Verlauf_41-2" cx="2289.45" cy="1167.47" fx="2289.45" fy="1167.47" r="77.94" xlink:href="#SagittariusA_Unbenannter_Verlauf_41"/>
        <radialGradient id="SagittariusA_Unbenannter_Verlauf_41-3" cx="949.17" cy="606.72" fx="949.17" fy="606.72" r="48.19" xlink:href="#SagittariusA_Unbenannter_Verlauf_41"/>
        <radialGradient id="SagittariusA_Unbenannter_Verlauf_41-4" cx="2587.1" cy="202.55" fx="2587.1" fy="202.55" r="98.87" xlink:href="#SagittariusA_Unbenannter_Verlauf_41"/>
        <radialGradient id="SagittariusA_Unbenannter_Verlauf_41-5" cx="942.82" cy="1266.34" fx="942.82" fy="1266.34" r="98.87" xlink:href="#SagittariusA_Unbenannter_Verlauf_41"/>
    </defs>
    <g id="SagittariusA">
        <g>
            <g>
                <g>
                    <g class="sagittarius-a-light-orbit-5">
                        <ellipse class="cls-SagittariusA-20" cx="1689.81" cy="873.09" rx="579.36" ry="1809.3" transform="translate(243.38 2108.23) rotate(-67.82)"/>
                        <path class="cls-SagittariusA-18" d="m2812.27,1755c8.79,0,16.04-6.98,16.31-15.82.28-9.01-6.8-16.55-15.82-16.83-38.34-1.19-78.73-3.62-120.05-7.23-8.98-.77-16.91,5.87-17.69,14.85-.78,8.98,5.86,16.91,14.85,17.69,41.93,3.66,82.93,6.13,121.87,7.34.17,0,.34,0,.52,0Z"/>
                        <path class="cls-SagittariusA-18" d="m2930.33,1754.66c.22,0,.44,0,.67-.01,16.85-.68,33.53-1.65,49.56-2.89,8.99-.69,15.72-8.55,15.03-17.54-.69-8.99-8.54-15.75-17.54-15.03-15.63,1.21-31.9,2.15-48.36,2.81-9.01.36-16.02,7.96-15.66,16.97.35,8.79,7.59,15.68,16.31,15.68Z"/>
                        <path class="cls-SagittariusA-18" d="m2890.99,886.92c5.02,0,9.97-2.31,13.17-6.66,5.34-7.27,3.78-17.49-3.49-22.83-25.68-18.86-52.53-37.96-79.82-56.76-7.43-5.12-17.6-3.25-22.71,4.18-5.12,7.43-3.25,17.6,4.18,22.71,27.02,18.62,53.6,37.52,79.01,56.19,2.91,2.14,6.3,3.17,9.66,3.17Z"/>
                        <path class="cls-SagittariusA-18" d="m2369.46,566.36c5.89,0,11.57-3.19,14.49-8.77,4.18-7.99,1.08-17.86-6.91-22.04-95.69-49.98-196.07-98.44-298.33-144.03-8.24-3.67-17.89.03-21.57,8.27-3.67,8.24.03,17.89,8.27,21.57,101.65,45.31,201.41,93.48,296.5,143.15,2.41,1.26,5,1.86,7.55,1.86Z"/>
                        <path class="cls-SagittariusA-18" d="m1438.84,184.91c6.99,0,13.46-4.52,15.61-11.56,2.64-8.63-2.21-17.76-10.84-20.4-36.17-11.07-72.64-21.78-108.38-31.83-8.68-2.44-17.7,2.62-20.14,11.3-2.44,8.68,2.62,17.7,11.3,20.14,35.51,9.98,71.73,20.62,107.67,31.62,1.59.49,3.2.72,4.78.72Z"/>
                        <path class="cls-SagittariusA-18" d="m1158.4,108.28c7.38,0,14.08-5.04,15.87-12.54,2.1-8.77-3.31-17.58-12.08-19.68C1012.16,40.18,869.53,14.62,738.28.1c-8.95-.99-17.04,5.47-18.03,14.44-.99,8.97,5.47,17.04,14.44,18.03,129.91,14.37,271.19,39.7,419.9,75.27,1.28.31,2.55.45,3.81.45Z"/>
                        <path class="cls-SagittariusA-18" d="m946.75,1180.16c5.82,0,11.45-3.12,14.4-8.6,4.27-7.94,1.3-17.85-6.65-22.12-42.17-22.68-84-46-124.32-69.3-7.81-4.51-17.8-1.84-22.31,5.97-4.51,7.81-1.84,17.8,5.97,22.31,40.61,23.47,82.73,46.95,125.19,69.79,2.46,1.32,5.11,1.95,7.72,1.95Z"/>
                        <path class="cls-SagittariusA-18" d="m1944.85,1594.08c7.01,0,13.49-4.55,15.62-11.6,2.61-8.63-2.27-17.75-10.9-20.36-157.4-47.65-318.07-104.77-477.56-169.79-8.35-3.41-17.88.61-21.29,8.96-3.41,8.35.61,17.88,8.96,21.29,160.42,65.4,322.06,122.87,480.42,170.81,1.58.48,3.17.7,4.74.7Z"/>
                        <path class="cls-SagittariusA-18" d="m2200.04,1663.71c7.37,0,14.05-5.02,15.86-12.5,2.12-8.77-3.27-17.59-12.03-19.71-20.32-4.92-41.09-10.1-61.71-15.41-8.73-2.25-17.64,3.01-19.88,11.75-2.25,8.73,3.01,17.64,11.75,19.88,20.78,5.35,41.69,10.57,62.17,15.52,1.29.31,2.58.46,3.85.46Z"/>
                    </g>
                    <g class="sagittarius-a-light-orbit-4">
                        <ellipse class="cls-SagittariusA-12" cx="1689.87" cy="872.8" rx="430.79" ry="1345.3" transform="translate(243.68 2108.11) rotate(-67.82)"/>
                        <path class="cls-SagittariusA-23" d="m1757.04,452.5c6.58,0,12.78-4,15.26-10.52,3.21-8.43-1.01-17.87-9.44-21.08-58.97-22.49-118.59-43.69-177.2-63.01-8.57-2.82-17.8,1.83-20.62,10.4-2.82,8.57,1.83,17.8,10.4,20.62,58.14,19.16,117.28,40.19,175.79,62.5,1.91.73,3.88,1.08,5.82,1.08Z"/>
                        <path class="cls-SagittariusA-23" d="m1194.37,285.82c7.6,0,14.41-5.34,15.99-13.07,1.8-8.84-3.9-17.46-12.74-19.26-45.1-9.19-89.58-17.1-132.22-23.51-8.93-1.33-17.24,4.8-18.58,13.72-1.34,8.92,4.8,17.24,13.72,18.58,42.08,6.33,86.01,14.14,130.56,23.21,1.1.22,2.2.33,3.28.33Z"/>
                        <path class="cls-SagittariusA-23" d="m841.24,925.54c5.18,0,10.27-2.45,13.44-7.03,5.14-7.41,3.29-17.59-4.12-22.72-19.44-13.47-38.57-27.14-56.86-40.63-7.26-5.36-17.48-3.81-22.84,3.45-5.35,7.26-3.81,17.48,3.45,22.84,18.55,13.68,37.94,27.54,57.65,41.2,2.84,1.97,6.08,2.91,9.29,2.91Z"/>
                        <path class="cls-SagittariusA-23" d="m1093.37,1081.45c5.74,0,11.31-3.03,14.29-8.4,4.38-7.88,1.54-17.83-6.34-22.21-49.18-27.33-97.07-55.52-142.33-83.79-7.65-4.78-17.73-2.45-22.5,5.2-4.78,7.65-2.45,17.72,5.2,22.5,45.73,28.57,94.1,57.04,143.77,84.64,2.51,1.4,5.23,2.06,7.92,2.06Z"/>
                        <path class="cls-SagittariusA-23" d="m1990.47,1444.57c7.21,0,13.81-4.82,15.77-12.11,2.33-8.71-2.84-17.67-11.56-20-71.14-19.03-144.34-41.11-217.58-65.61-8.56-2.86-17.81,1.75-20.67,10.3-2.86,8.55,1.75,17.81,10.3,20.67,73.87,24.72,147.72,46.98,219.5,66.19,1.41.38,2.83.56,4.23.56Z"/>
                        <path class="cls-SagittariusA-23" d="m2328.39,1514.75c8.01,0,15.01-5.9,16.15-14.06,1.25-8.93-4.97-17.19-13.9-18.44-23.88-3.35-48.57-7.22-73.39-11.5-8.9-1.53-17.34,4.43-18.87,13.32-1.53,8.89,4.43,17.34,13.32,18.87,25.15,4.34,50.18,8.26,74.4,11.66.77.11,1.54.16,2.29.16Z"/>
                        <path class="cls-SagittariusA-23" d="m2731.83,1518.77c1.03,0,2.07-.1,3.11-.3,74.44-14.36,131.26-39.39,168.88-74.38,6.6-6.14,6.98-16.48.83-23.08-6.14-6.6-16.48-6.98-23.08-.83-33.06,30.75-84.48,53.04-152.82,66.22-8.86,1.71-14.65,10.27-12.94,19.13,1.51,7.81,8.35,13.24,16.02,13.24Z"/>
                        <path class="cls-SagittariusA-23" d="m2731.84,1008.89c4.43,0,8.84-1.79,12.06-5.32,6.08-6.66,5.61-16.99-1.05-23.07-42.25-38.58-90.47-78.02-143.33-117.23-7.24-5.37-17.47-3.86-22.85,3.39-5.37,7.24-3.86,17.47,3.39,22.85,51.97,38.55,99.33,77.28,140.76,115.11,3.13,2.86,7.08,4.27,11.01,4.27Z"/>
                        <path class="cls-SagittariusA-23" d="m2297.61,704.73c5.7,0,11.23-2.99,14.23-8.3,4.44-7.85,1.67-17.81-6.18-22.25-34.61-19.55-70.53-39.05-106.77-57.94-8-4.17-17.86-1.07-22.03,6.93-4.17,8-1.07,17.86,6.93,22.03,35.92,18.72,71.51,38.04,105.8,57.42,2.54,1.43,5.3,2.12,8.02,2.12Z"/>
                    </g>
                    <g class="sagittarius-a-light-orbit-3">
                        <ellipse class="cls-SagittariusA-14" cx="1689.87" cy="872.94" rx="327.85" ry="1023.86" transform="translate(243.55 2108.2) rotate(-67.82)"/>
                        <path class="cls-SagittariusA-22" d="m1593.33,504.75c6.88,0,13.29-4.39,15.53-11.29,2.79-8.58-1.91-17.79-10.49-20.58-46.02-14.95-92.12-28.67-137.03-40.79-8.71-2.35-17.67,2.81-20.02,11.51-2.35,8.71,2.81,17.67,11.51,20.02,44.38,11.97,89.95,25.53,135.44,40.31,1.68.55,3.38.8,5.05.8Z"/>
                        <path class="cls-SagittariusA-22" d="m1274.81,422.46c7.72,0,14.58-5.5,16.04-13.36,1.64-8.87-4.22-17.39-13.08-19.03-105.2-19.48-199.77-28.55-281.13-26.94-9.02.18-16.18,7.63-16.01,16.65.18,9.02,7.59,16.12,16.65,16.01,79.15-1.56,171.51,7.32,274.54,26.4,1,.19,2.01.28,2.99.28Z"/>
                        <path class="cls-SagittariusA-22" d="m841.27,749.18c4.06,0,8.12-1.5,11.29-4.53,6.52-6.23,6.75-16.57.52-23.09-88.44-92.48-124.45-174.56-101.39-231.12,3.41-8.35-.61-17.88-8.96-21.29-8.35-3.41-17.88.61-21.29,8.96-28.62,70.21,8.73,162.2,108.03,266.03,3.21,3.35,7.5,5.04,11.8,5.04Z"/>
                        <path class="cls-SagittariusA-22" d="m1658.52,1228.72c6.64,0,12.88-4.08,15.32-10.66,3.13-8.46-1.19-17.85-9.64-20.99-32.25-11.94-64.94-24.66-97.16-37.79-57.29-23.36-113.99-48.4-168.5-74.44-8.14-3.89-17.89-.44-21.77,7.7-3.89,8.14-.44,17.89,7.7,21.77,55.08,26.31,112.36,51.61,170.24,75.21,32.54,13.27,65.56,26.11,98.15,38.17,1.87.69,3.79,1.02,5.67,1.02Z"/>
                        <path class="cls-SagittariusA-22" d="m2354.58,1378.6c39.9,0,76.49-2.43,109.05-7.32,8.92-1.34,15.06-9.66,13.72-18.58-1.34-8.92-9.66-15.06-18.58-13.72-79.44,11.93-184.64,8.52-304.24-9.85-8.92-1.37-17.25,4.75-18.62,13.66s4.75,17.25,13.66,18.62c74.42,11.43,143.63,17.19,205,17.19Z"/>
                        <path class="cls-SagittariusA-22" d="m2596.32,1321.14c3.59,0,7.21-1.18,10.23-3.61,19.04-15.31,32.93-33.49,41.3-54.02,10.73-26.31,12.24-55.98,4.49-88.18-2.11-8.77-10.92-14.17-19.7-12.06-8.77,2.11-14.17,10.93-12.06,19.7,6.11,25.42,5.11,48.37-2.98,68.21-6.26,15.34-16.86,29.11-31.53,40.9-7.03,5.65-8.14,15.93-2.49,22.96,3.23,4.01,7.96,6.1,12.74,6.1Z"/>
                        <path class="cls-SagittariusA-22" d="m2461.19,961.7c4.56,0,9.09-1.9,12.32-5.61,5.92-6.8,5.21-17.12-1.59-23.04-29.52-25.7-62.48-51.89-97.95-77.84-7.28-5.32-17.5-3.74-22.82,3.54-5.32,7.28-3.74,17.5,3.54,22.82,34.73,25.4,66.96,51.01,95.79,76.11,3.09,2.69,6.91,4.01,10.72,4.01Z"/>
                    </g>
                    <g class="sagittarius-a-light-orbit-2">
                        <ellipse class="cls-SagittariusA-7" cx="1689.82" cy="872.92" rx="262.78" ry="820.62" transform="translate(243.54 2108.14) rotate(-67.82)"/>
                        <path class="cls-SagittariusA-5" d="m1825.08,656.97c4.75,0,9.28-2.78,11.27-7.43,2.66-6.22-.22-13.42-6.44-16.08-13.67-5.85-27.62-11.68-41.47-17.33-62.51-25.49-125.67-48.42-187.72-68.14-6.45-2.05-13.34,1.52-15.38,7.96-2.05,6.45,1.52,13.33,7.96,15.38,61.44,19.53,123.98,42.24,185.9,67.48,13.72,5.59,27.54,11.37,41.08,17.16,1.57.67,3.21.99,4.81.99Z"/>
                        <path class="cls-SagittariusA-5" d="m1364.16,512.08c5.76,0,10.9-4.09,12.02-9.96,1.27-6.64-3.1-13.06-9.74-14.32-64.42-12.27-124.55-19.77-178.73-22.3-6.74-.31-12.49,4.91-12.81,11.66-.32,6.76,4.91,12.49,11.66,12.81,53.03,2.48,112,9.84,175.29,21.89.77.15,1.54.22,2.3.22Z"/>
                        <path class="cls-SagittariusA-5" d="m996.96,759.88c2.93,0,5.87-1.05,8.22-3.17,5.01-4.54,5.4-12.29.86-17.3-37.13-41-60.91-78.74-70.68-112.18-1.9-6.49-8.7-10.22-15.19-8.32-6.49,1.9-10.22,8.7-8.32,15.19,10.82,37.02,36.4,77.99,76.04,121.75,2.42,2.67,5.74,4.03,9.08,4.03Z"/>
                        <path class="cls-SagittariusA-5" d="m1346.7,1014.11c4.36,0,8.57-2.33,10.79-6.43,3.22-5.95,1-13.38-4.96-16.6-33.79-18.25-66.62-37.15-97.59-56.17-5.76-3.54-13.31-1.74-16.85,4.03-3.54,5.76-1.74,13.31,4.03,16.85,31.35,19.26,64.59,38.39,98.77,56.85,1.85,1,3.84,1.47,5.81,1.47Z"/>
                        <path class="cls-SagittariusA-5" d="m1717.51,1176.07c5.08,0,9.83-3.19,11.58-8.26,2.2-6.4-1.2-13.37-7.59-15.57-43.62-15.03-87.86-31.67-131.51-49.47-11.82-4.82-23.77-9.8-35.51-14.79-6.22-2.65-13.42.26-16.06,6.48-2.65,6.23.25,13.42,6.48,16.06,11.85,5.04,23.91,10.06,35.84,14.93,44.06,17.97,88.74,34.77,132.78,49.95,1.32.46,2.67.67,3.99.67Z"/>
                        <path class="cls-SagittariusA-5" d="m2040.06,1260.27c5.88,0,11.07-4.24,12.07-10.23,1.12-6.67-3.39-12.98-10.06-14.1-71.04-11.88-147.05-29.81-225.92-53.29-6.48-1.93-13.3,1.76-15.23,8.24-1.93,6.48,1.76,13.3,8.24,15.23,79.83,23.77,156.83,41.93,228.87,53.97.68.11,1.36.17,2.03.17Z"/>
                        <path class="cls-SagittariusA-5" d="m2391.97,1246c1.91,0,3.84-.45,5.65-1.39,28.64-14.93,48.22-34.89,58.18-59.32,21.85-53.58-4.8-123.56-77.07-202.37-4.57-4.99-12.32-5.32-17.31-.75-4.99,4.57-5.32,12.32-.75,17.31,65.41,71.34,90.46,132.39,72.45,176.57-7.71,18.91-23.46,34.67-46.82,46.85-6,3.13-8.32,10.53-5.2,16.52,2.18,4.19,6.45,6.59,10.87,6.59Z"/>
                    </g>
                    <g class="sagittarius-a-light-orbit-1">
                        <ellipse class="cls-SagittariusA-17" cx="1689.81" cy="872.94" rx="191.93" ry="599.39" transform="translate(243.52 2108.14) rotate(-67.82)"/>
                        <path class="cls-SagittariusA-9" d="m1233.13,599.07c.57,0,1.14-.04,1.71-.12,13.38-1.87,28.1-3.04,43.76-3.46,6.76-.18,12.1-5.81,11.91-12.58-.18-6.76-5.85-12.08-12.58-11.91-16.57.45-32.21,1.69-46.49,3.69-6.7.94-11.37,7.13-10.43,13.83.86,6.12,6.1,10.55,12.11,10.55Z"/>
                        <path class="cls-SagittariusA-9" d="m1128.56,707.11c1.12,0,2.25-.15,3.38-.48,6.5-1.86,10.27-8.64,8.4-15.15-4.57-15.97-4.39-30.22.56-42.34,1.59-3.91,3.71-7.67,6.29-11.17,4.01-5.45,2.85-13.11-2.59-17.13-5.44-4.01-13.11-2.85-17.13,2.59-3.78,5.13-6.89,10.67-9.25,16.45-7.06,17.33-7.54,36.95-1.42,58.33,1.54,5.38,6.44,8.88,11.77,8.88Z"/>
                        <path class="cls-SagittariusA-9" d="m1237.99,846.3c3.48,0,6.94-1.47,9.36-4.34,4.37-5.17,3.72-12.89-1.44-17.26-37.75-31.92-66.34-62.46-84.96-90.76-3.72-5.65-11.32-7.22-16.97-3.5-5.65,3.72-7.22,11.31-3.5,16.97,19.92,30.26,50.06,62.56,89.61,96,2.3,1.94,5.11,2.9,7.9,2.9Z"/>
                        <path class="cls-SagittariusA-9" d="m1505.89,1013.59c4.55,0,8.93-2.55,11.04-6.92,2.94-6.09.39-13.41-5.7-16.36-15.8-7.63-31.54-15.53-46.78-23.48-6-3.12-13.4-.8-16.52,5.2-3.13,6-.8,13.4,5.2,16.52,15.46,8.06,31.43,16.07,47.45,23.81,1.72.83,3.53,1.22,5.32,1.22Z"/>
                        <path class="cls-SagittariusA-9" d="m2021.79,1168.42c6.31,0,11.66-4.84,12.19-11.24.56-6.74-4.46-12.66-11.2-13.22-38.44-3.18-80.54-9.54-125.13-18.92-6.62-1.39-13.11,2.85-14.51,9.47-1.39,6.62,2.85,13.11,9.47,14.51,45.58,9.59,88.7,16.1,128.16,19.36.34.03.68.04,1.02.04Z"/>
                        <path class="cls-SagittariusA-9" d="m2104.02,1170.09c.23,0,.45,0,.68-.02,12.37-.68,24.2-1.84,35.16-3.45,6.69-.98,11.32-7.2,10.34-13.9-.98-6.69-7.19-11.33-13.9-10.34-10.23,1.5-21.32,2.58-32.95,3.22-6.76.37-11.93,6.15-11.56,12.9.36,6.53,5.76,11.58,12.22,11.58Z"/>
                        <path class="cls-SagittariusA-9" d="m2227.79,1028.66c1.99,0,4-.48,5.87-1.51,5.93-3.25,8.11-10.69,4.87-16.62-12.69-23.2-32.05-48.02-57.55-73.77-4.76-4.81-12.52-4.85-17.32-.09-4.81,4.76-4.85,12.51-.09,17.32,23.88,24.13,41.87,47.11,53.46,68.3,2.23,4.07,6.42,6.37,10.76,6.37Z"/>
                        <path class="cls-SagittariusA-9" d="m1954.92,800.3c4.28,0,8.44-2.25,10.69-6.25,3.32-5.9,1.22-13.36-4.67-16.68-38.03-21.39-78.56-42.05-120.47-61.4-6.14-2.84-13.42-.16-16.26,5.98-2.84,6.14-.16,13.42,5.98,16.26,41.32,19.09,81.27,39.45,118.74,60.52,1.9,1.07,3.96,1.57,5.99,1.57Z"/>
                    </g>
                </g>
                <g>
                    <g class="sagittarius-a-dust">
                        <g>
                            <circle class="cls-SagittariusA-21" cx="1064.39" cy="1085.61" r="25.78"/>
                            <circle class="cls-SagittariusA-21" cx="709.66" cy="295.43" r="25.78"/>
                            <circle class="cls-SagittariusA-21" cx="2339.02" cy="645.05" r="25.78"/>
                        </g>
                        <g>
                            <circle class="cls-SagittariusA-13" cx="1926.43" cy="1636.35" r="25.78"/>
                            <circle class="cls-SagittariusA-13" cx="3230.16" cy="1184.08" r="25.78"/>
                            <circle class="cls-SagittariusA-13" cx="973.3" cy="1200.51" r="25.78"/>
                            <circle class="cls-SagittariusA-13" cx="1095.5" cy="589.29" r="25.78"/>
                            <circle class="cls-SagittariusA-13" cx="1977.99" cy="357.23" r="25.78"/>
                            <circle class="cls-SagittariusA-13" cx="2581.03" cy="1280.54" r="25.78"/>
                        </g>
                        <g>
                            <circle class="cls-SagittariusA-10" cx="3339.74" cy="1283.29" r="25.78"/>
                            <circle class="cls-SagittariusA-10" cx="2034.73" cy="1528.85" r="25.78"/>
                            <circle class="cls-SagittariusA-10" cx="2229.6" cy="1636.35" r="25.78"/>
                            <circle class="cls-SagittariusA-10" cx="915.24" cy="993.76" r="25.78"/>
                            <circle class="cls-SagittariusA-10" cx="792.52" cy="1226.29" r="25.78"/>
                            <circle class="cls-SagittariusA-10" cx="564.5" cy="217.58" r="25.78"/>
                            <circle class="cls-SagittariusA-10" cx="805.17" cy="615.07" r="25.78"/>
                            <circle class="cls-SagittariusA-10" cx="843.11" cy="77.91" r="25.78"/>
                            <circle class="cls-SagittariusA-10" cx="987.37" cy="89.25" r="25.78"/>
                            <circle class="cls-SagittariusA-10" cx="2178.04" cy="606.72" r="25.78"/>
                            <circle class="cls-SagittariusA-10" cx="2581.03" cy="1379.02" r="25.78"/>
                            <circle class="cls-SagittariusA-10" cx="1926.43" cy="217.58" r="25.78"/>
                            <circle class="cls-SagittariusA-10" cx="2125.53" cy="321.21" r="25.78"/>
                        </g>
                    </g>
                    <g class="sagittarius-a-stars">
                        <g>
                            <path class="cls-SagittariusA-8" d="m1910.43,926.97l13.47,3.79c11.89,3.34,21.19,12.64,24.53,24.53l3.79,13.47,3.8-13.48c3.35-11.87,12.63-21.15,24.5-24.5l13.48-3.8-13.47-3.79c-11.89-3.34-21.18-12.64-24.53-24.53l-3.79-13.47-3.8,13.48c-3.35,11.87-12.63,21.15-24.5,24.5l-13.48,3.8Z"/>
                            <circle class="cls-SagittariusA-24" cx="1952.21" cy="926.97" r="48.19"/>
                        </g>
                        <g>
                            <g>
                                <path class="cls-SagittariusA-8" d="m1029.94,1167.47l19.41,5.46c17.14,4.82,30.54,18.22,35.36,35.36l5.46,19.41,5.48-19.43c4.83-17.11,18.2-30.49,35.31-35.31l19.43-5.48-19.41-5.46c-17.14-4.82-30.54-18.22-35.36-35.36l-5.46-19.41-5.48,19.43c-4.83,17.11-18.2,30.49-35.31,35.31l-19.43,5.48Z"/>
                                <circle class="cls-SagittariusA-3" cx="1090.17" cy="1167.47" r="77.94"/>
                            </g>
                            <g>
                                <path class="cls-SagittariusA-8" d="m2388.67,606.72l13.47,3.79c11.89,3.34,21.19,12.64,24.53,24.53l3.79,13.47,3.8-13.48c3.35-11.87,12.63-21.15,24.5-24.5l13.48-3.8-13.47-3.79c-11.89-3.34-21.18-12.64-24.53-24.53l-3.79-13.47-3.8,13.48c-3.35,11.87-12.63,21.15-24.5,24.5l-13.48,3.8Z"/>
                                <circle class="cls-SagittariusA-2" cx="2430.45" cy="606.72" r="48.19"/>
                            </g>
                            <g>
                                <path class="cls-SagittariusA-8" d="m708.42,202.55l27.1,7.62c23.93,6.73,42.64,25.44,49.37,49.37l7.62,27.1,7.65-27.14c6.74-23.9,25.41-42.57,49.31-49.31l27.14-7.65-27.1-7.62c-23.93-6.73-42.64-25.44-49.37-49.37l-7.62-27.1-7.65,27.14c-6.74,23.9-25.41,42.57-49.31,49.31l-27.14,7.65Z"/>
                                <circle class="cls-SagittariusA-1" cx="792.52" cy="202.55" r="98.87"/>
                            </g>
                            <g>
                                <path class="cls-SagittariusA-8" d="m2352.7,1266.34l27.1,7.62c23.93,6.73,42.64,25.44,49.37,49.37l7.62,27.1,7.65-27.14c6.74-23.9,25.41-42.57,49.31-49.31l27.14-7.65-27.1-7.62c-23.93-6.73-42.64-25.44-49.37-49.37l-7.62-27.1-7.65,27.14c-6.74,23.9-25.41,42.57-49.31,49.31l-27.14,7.65Z"/>
                                <circle class="cls-SagittariusA-4" cx="2436.8" cy="1266.34" r="98.87"/>
                            </g>
                        </g>
                    </g>
                </g>
            </g>
            <g class="sagittarius-a-center">
                <path class="cls-SagittariusA-8" d="m1794.97,671.26s48.23,25.47,79.14,68.27c30.91,42.8,39.61,91.4,53.66,112.76,22.63,34.39,53.58,50.23,84.12,75.26,48.11,39.43,57.24,64.81,58.6,82.47s-9.58,46.74-74.45,52.85c-64.87,6.11-146.73-8.83-192.58-20.04-45.85-11.21-137.9-41.44-197-66.91-59.1-25.47-115.14-49.93-177.3-92.04-62.16-42.12-94.76-70.99-116.16-105.97-21.4-34.98-7.33-59.43,14.94-72.34,22.43-13,67.59-17.66,119.22-11.21,51.63,6.45,92.08-8.61,124.31-24.11,32.7-15.73,123.8-51.29,223.49,1.02Z"/>
                <path class="cls-SagittariusA-6" d="m1804.66,1037.91c-45.44-11.11-137.19-41.21-196.19-66.64-55.79-24.05-113.49-48.92-176.46-91.59-63.26-42.86-94.34-71.16-114.68-104.42-8.74-14.29-11.69-27.39-8.77-38.92,3.36-13.26,13.78-21.68,21.93-26.4,14.7-8.52,41-13.41,72.17-13.41,14.03,0,28.79.96,43.88,2.84,8.34,1.04,16.75,1.57,24.99,1.57,42.35,0,76.84-13.97,102.15-26.15,24.64-11.85,63.91-25.97,111.1-25.97,37.52,0,73.79,9.05,107.82,26.91.47.25,47.62,25.53,77.4,66.76,18.47,25.58,28.97,53.62,37.41,76.16,5.55,14.82,10.34,27.62,16.13,36.42,16.84,25.59,37.8,40.96,60.01,57.24,8.24,6.04,16.76,12.29,25.13,19.15,48.49,39.74,55.61,64.08,56.76,78.94.53,6.93-.92,17.19-10.84,26.71-11.45,10.99-31.86,18.15-59.03,20.71-9.83.93-20.53,1.4-31.81,1.4-66.72,0-138.64-16.31-159.09-21.31Zm-226.59-353.97c-26.28,12.64-62.14,27.15-106.54,27.15-8.66,0-17.49-.55-26.24-1.65-14.67-1.83-29.01-2.76-42.62-2.76-29.43,0-53.88,4.39-67.08,12.04-6.47,3.75-14.7,10.28-17.19,20.12-2.23,8.78.33,19.26,7.59,31.14,19.51,31.89,49.78,59.35,111.72,101.32,62.18,42.13,119.42,66.81,174.78,90.67,58.55,25.24,149.54,55.09,194.59,66.1,20.18,4.93,91.1,21.02,156.68,21.02,10.96,0,21.34-.45,30.86-1.35,24.87-2.34,43.18-8.54,52.96-17.93,7.07-6.79,8.12-13.87,7.76-18.62-1-13-7.59-34.6-53.08-71.88-8.16-6.69-16.57-12.85-24.72-18.83-22.94-16.82-44.61-32.71-62.46-59.82-6.42-9.75-11.39-23.04-17.16-38.44-8.22-21.97-18.46-49.31-36.13-73.78-28.26-39.13-73.48-63.49-73.91-63.72-32.55-17.08-67.23-25.74-103.09-25.74-45.28,0-83.02,13.58-106.71,24.97Z"/>
                <path class="cls-SagittariusA-15" d="m1807.07,1028.07c-45.05-11.01-136.04-40.87-194.59-66.11-55.36-23.86-112.6-48.54-174.78-90.67-61.94-41.97-92.21-69.43-111.72-101.32-7.26-11.88-9.82-22.35-7.59-31.14,2.49-9.84,10.73-16.37,17.19-20.12,13.01-7.54,38.09-12.04,67.08-12.04,13.61,0,27.95.93,42.62,2.76,8.75,1.09,17.58,1.65,26.24,1.65,44.4,0,80.26-14.51,106.54-27.15,23.69-11.39,61.42-24.97,106.71-24.97,35.86,0,70.54,8.66,103.09,25.74.45.24,45.44,24.31,73.91,63.73,17.67,24.47,27.91,51.81,36.14,73.8,5.76,15.39,10.74,28.68,17.15,38.42,17.85,27.11,40.53,43.74,62.46,59.82,8.13,5.96,16.55,12.13,24.73,18.83,50.75,41.59,52.5,64.39,53.07,71.88,1.48,19.16-21.22,32.83-60.72,36.55-9.52.9-19.9,1.35-30.86,1.35-65.58,0-136.51-16.09-156.68-21.02Zm-224.61-334.99c-27.25,13.11-64.49,28.15-110.94,28.15-9.08,0-18.33-.58-27.5-1.73-14.26-1.78-28.18-2.69-41.36-2.69-26.88,0-50.64,4.09-62,10.67-4.78,2.77-10.82,7.42-12.45,13.84-1.53,6.04.63,13.9,6.41,23.36,18.67,30.53,48.15,57.14,108.76,98.21,61.38,41.59,118.18,66.07,173.11,89.75,58.09,25.04,148.33,54.65,192.98,65.57,19.9,4.86,89.83,20.73,154.28,20.73,10.64,0,20.7-.44,29.91-1.31,31.79-3,52.51-13.32,51.56-25.68-.25-3.26-.72-9.34-6.73-19.51-7.85-13.29-22.2-28.53-42.67-45.3-7.97-6.53-16.27-12.62-24.29-18.5-22.66-16.61-46.08-33.79-64.93-62.43-7.04-10.7-12.2-24.48-18.18-40.46-8.01-21.4-17.98-48.04-34.86-71.4-26.97-37.35-70-60.47-70.42-60.69-31.07-16.3-64.16-24.57-98.37-24.57-43.37,0-79.58,13.04-102.32,23.97Z"/>
                <path class="cls-SagittariusA-16" d="m1858.56,795.81s-17.29-62.53-68.64-90.43c-51.35-27.9-95.01-33.15-140.7-25.47-45.69,7.68-84.9,33.96-108.76,57.41-23.85,23.45-17.79,27.9-34.77,34.37-16.98,6.47-45.67,9.66-45.69,30.32-.02,18.88,11.72,29.92,34.77,48.92,23.05,19,76.01,53.37,159.3,87.73,83.29,34.37,152.42,38.41,160.51,24.26,8.09-14.15,45.22-139.54,43.98-167.12Z"/>
                <path d="m1860.67,955.28s50.13-103.73-24.82-195.55c-74.94-91.82-188.6-79.41-231.29-55.09-42.68,24.32-76.93,48.64-98.27,107.7,0,0-7.44,48.14,150.39,116.14,157.83,68,203.99,26.8,203.99,26.8Z"/>
                <path class="cls-SagittariusA-13" d="m1802.25,1047.76c-45.83-11.2-138.33-41.55-197.8-67.18-56.23-24.24-114.37-49.3-178.13-92.5-64.58-43.76-96.47-72.9-117.64-107.52-10.22-16.71-13.57-32.42-9.95-46.7,3.35-13.2,12.57-24.5,26.68-32.68,23.77-13.78,70.66-18.32,122.39-11.85,50.57,6.32,89.79-8.41,121.49-23.65,19.4-9.33,50.46-21.32,88.27-25.47,48.91-5.37,95.93,3.57,139.77,26.57h.01c2.01,1.07,49.64,26.53,80.88,69.79,19.27,26.68,30.03,55.44,38.68,78.54,5.33,14.25,9.94,26.56,15.1,34.4,15.84,24.07,36.08,38.91,57.51,54.62,8.36,6.13,17,12.46,25.59,19.5,51.49,42.2,59.15,69.29,60.44,86,.57,7.45-.47,21.89-13.93,34.8-13.31,12.77-35.21,20.67-65.1,23.48-10.66,1.01-21.68,1.45-32.82,1.45-67.11,0-138.58-16.02-161.43-21.61Zm-9.64-372.01c-42.02-22.05-87.08-30.62-133.95-25.47-36.39,3.99-66.3,15.55-84.98,24.53-33.02,15.88-73.95,31.22-127.14,24.58-49.63-6.2-94.1-2.16-116.05,10.56-8.15,4.72-18.57,13.14-21.93,26.4-2.92,11.53.03,24.62,8.77,38.92,20.34,33.26,51.42,61.56,114.68,104.42,62.97,42.67,120.66,67.54,176.46,91.59,59.01,25.43,150.76,55.53,196.19,66.64,22.54,5.51,93.05,21.33,158.92,21.32,10.86,0,21.61-.43,31.98-1.41,27.55-2.6,47.42-9.56,59.03-20.71,10.45-10.03,11.28-21.04,10.84-26.71-1.14-14.86-8.27-39.2-56.76-78.94-8.38-6.87-16.91-13.12-25.16-19.17-22.19-16.27-43.14-31.63-59.99-57.22-5.79-8.8-10.58-21.6-16.13-36.42-8.44-22.54-18.94-50.59-37.41-76.16-29.64-41.04-76.35-66.2-77.38-66.75h0Z"/>
                <path class="cls-SagittariusA-11" d="m1797.66,1066.55c-46.57-11.38-140.52-42.2-200.86-68.21-57.05-24.59-116.05-50.02-181.33-94.25-67.11-45.47-100.53-76.22-123.29-113.44-13.04-21.32-17.15-42.03-12.2-61.55,4.66-18.37,17.01-33.82,35.73-44.66,24.79-14.37,60.97-17.38,86.95-17.38,15.24,0,31.24,1.03,47.54,3.07,7.13.89,14.31,1.34,21.33,1.34,36.19,0,65.48-11.74,89.37-23.23,27.4-13.18,71.13-28.89,123.88-28.89,42.34,0,83.24,10.2,121.59,30.32,2.17,1.15,53.66,28.67,87.53,75.56,20.79,28.79,32.06,58.9,41.13,83.11,4.92,13.15,9.17,24.5,13.14,30.52,13.93,21.16,31.94,34.36,52.81,49.67,8.56,6.27,17.4,12.76,26.39,20.13,44.15,36.18,64.95,66.86,67.46,99.48.84,10.86-.63,31.83-19.83,50.25-16.53,15.87-42.33,25.55-76.68,28.79-10.75,1.01-22.38,1.53-34.58,1.53-68.1,0-138.84-15.49-166.09-22.16Zm-233.17-410.84c-24.73,11.89-55.11,24.05-92.96,24.05-7.37,0-14.89-.47-22.36-1.41-15.96-1.99-31.61-3.01-46.51-3.01-24.97,0-59.6,2.82-82.79,16.26-16.74,9.7-27.75,23.37-31.85,39.53-4.38,17.27-.6,35.84,11.24,55.18,22.08,36.11,54.84,66.17,120.87,110.91,64.63,43.79,123.26,69.06,179.96,93.5,59.97,25.85,153.3,56.46,199.55,67.77,26.96,6.59,96.92,21.92,164.12,21.92,11.94,0,23.31-.5,33.8-1.49,32.44-3.06,56.56-11.98,71.71-26.51,16.74-16.06,18.02-34.23,17.3-43.63-2.32-30.18-22.2-59.08-64.45-93.7-8.82-7.23-17.57-13.65-26.06-19.87-21.5-15.76-40.07-29.38-54.81-51.78-4.48-6.8-8.88-18.56-13.99-32.2-8.88-23.73-19.94-53.26-40.08-81.14-32.74-45.34-82.57-71.97-84.67-73.08-37.14-19.49-76.75-29.37-117.73-29.37-51.19,0-93.67,15.26-120.29,28.07Z"/>
                <path class="cls-SagittariusA-19" d="m1793.72,1082.66c-47.21-11.54-142.39-42.75-203.5-69.09-57.76-24.9-117.48-50.64-184.06-95.75-69.28-46.94-104-79.06-128.14-118.52-19.26-31.48-18.31-57.77-14.13-74.28,5.7-22.48,21.14-41.99,43.49-54.94,27.98-16.21,67.25-19.62,95.27-19.62,15.93,0,32.62,1.08,49.59,3.2,6.45.81,12.93,1.22,19.27,1.22,32.85,0,59.98-10.92,82.18-21.59,28.95-13.93,75.2-30.53,131.07-30.53,45.05,0,88.53,10.83,129.24,32.19l.09.05c2.32,1.22,57.12,30.52,93.23,80.52,22.1,30.59,34.3,63.19,43.21,86.99,4.19,11.19,8.52,22.77,11.47,27.24,12.29,18.67,28.38,30.46,48.75,45.4,8.74,6.41,17.77,13.03,27.11,20.69,47.94,39.29,70.6,73.53,73.49,111.04,1.83,23.79-7.01,46.34-24.88,63.49-19.3,18.52-48.44,29.74-86.6,33.33-11.26,1.06-23.42,1.6-36.13,1.6-69.91,0-142.2-15.83-170.03-22.63Zm-238.02-445.22c-22.67,10.9-50.4,22.05-84.18,22.05-6.53,0-13.21-.42-19.85-1.25-16.79-2.1-33.28-3.16-49.02-3.16-27.46,0-65.87,3.3-92.96,19-21.27,12.32-35.94,30.82-41.34,52.08-3.97,15.65-4.83,40.63,13.59,70.74,23.75,38.84,58.12,70.58,126.79,117.11,66.21,44.87,125.74,70.52,183.3,95.34,60.89,26.24,155.73,57.35,202.76,68.84,27.67,6.76,99.53,22.5,168.94,22.5,12.57,0,24.58-.53,35.7-1.58,37.1-3.5,65.31-14.29,83.85-32.07,16.86-16.18,25.2-37.42,23.48-59.81-2.78-36.15-24.93-69.4-71.82-107.83-9.24-7.58-18.23-14.16-26.92-20.54-20.74-15.21-37.13-27.22-49.87-46.58-3.23-4.9-7.65-16.72-11.94-28.16-8.82-23.55-20.89-55.81-42.63-85.9-35.49-49.13-89.37-77.94-91.64-79.14l-.09-.05c-40.04-21.01-82.8-31.66-127.1-31.66-55.01,0-100.55,16.35-129.08,30.07Z"/>
            </g>
        </g>
    </g>
</svg>