<?xml version="1.0" encoding="UTF-8"?>
<svg id="easterEggLayer3" xmlns="http://www.w3.org/2000/svg" xmlns:xlink="http://www.w3.org/1999/xlink" viewBox="0 0 4103.98 5063.24">
    <defs>
        <style>
            .cls-easter-egg-t_arroww-1{fill:url(#easter_egg_t_arroww_Unbenannter_Verlauf_14-4);}
            .cls-easter-egg-t_arroww-2{fill:url(#easter_egg_t_arroww_Unbenannter_Verlauf_14-2);}
            .cls-easter-egg-t_arroww-3{fill:url(#easter_egg_t_arroww_Unbenannter_Verlauf_14-8);}
            .cls-easter-egg-t_arroww-4{fill:url(#easter_egg_t_arroww_Unbenannter_Verlauf_14-3);}
            .cls-easter-egg-t_arroww-5{fill:url(#easter_egg_t_arroww_Unbenannter_Verlauf_14-5);}
            .cls-easter-egg-t_arroww-6{fill:url(#easter_egg_t_arroww_Unbenannter_Verlauf_14-6);}
            .cls-easter-egg-t_arroww-7{fill:url(#easter_egg_t_arroww_Unbenannter_Verlauf_14-7);}
            .cls-easter-egg-t_arroww-8{fill:#f4b7a4;}
            .cls-easter-egg-t_arroww-9{fill:#f9c975;}
            .cls-easter-egg-t_arroww-10{fill:#f4be53;}
            .cls-easter-egg-t_arroww-11{fill:#002610;}
            .cls-easter-egg-t_arroww-12{fill:#023316;}
            .cls-easter-egg-t_arroww-13,
            .cls-easter-egg-t_arroww-14{fill:#eab692;}
            .cls-easter-egg-t_arroww-15{fill:#e8a391;}
            .cls-easter-egg-t_arroww-16{fill:#eb5d60;}
            .cls-easter-egg-t_arroww-17{fill:#fff;}
            .cls-easter-egg-t_arroww-18{fill:#ffdec7;}
            .cls-easter-egg-t_arroww-19{fill:#f20c0c;}
            .cls-easter-egg-t_arroww-20{fill:#fcd0ae;}
            .cls-easter-egg-t_arroww-21{fill:#b4afc1;}
            .cls-easter-egg-t_arroww-22{fill:#b7a472;}
            .cls-easter-egg-t_arroww-23{fill:#a08c60;}
            .cls-easter-egg-t_arroww-24{fill:#a483e2;}
            .cls-easter-egg-t_arroww-25{fill:#aae3f2;}
            .cls-easter-egg-t_arroww-26{fill:#ddd;}
            .cls-easter-egg-t_arroww-27{fill:#c4c4c4;}
            .cls-easter-egg-t_arroww-28{fill:#dbdddc;}
            .cls-easter-egg-t_arroww-29{fill:#e51c3b;}
            .cls-easter-egg-t_arroww-30{fill:#3f3f3f;}
            .cls-easter-egg-t_arroww-31{fill:#9b98ac;}
            .cls-easter-egg-t_arroww-32{fill:#2d2d2d;}
            .cls-easter-egg-t_arroww-33,
            .cls-easter-egg-t_arroww-34{fill:#80ffb3;}
            .cls-easter-egg-t_arroww-35{fill:#78c2d6;}
            .cls-easter-egg-t_arroww-36{fill:#282828;}
            .cls-easter-egg-t_arroww-37{fill:url(#easter_egg_t_arroww_Unbenannter_Verlauf_14);}
            .cls-easter-egg-t_arroww-38{fill:#7a7ac1;}
            .cls-easter-egg-t_arroww-38,
            .cls-easter-egg-t_arroww-34{opacity:.5;}
            .cls-easter-egg-t_arroww-14{opacity:.75;}
        </style>
        <radialGradient id="easter_egg_t_arroww_Unbenannter_Verlauf_14" cx="2201.98" cy="1533.21" fx="2201.98" fy="1533.21" r="56.38" gradientUnits="userSpaceOnUse">
            <stop offset="0" stop-color="#fcea0d"/>
            <stop offset="0" stop-color="#fff" stop-opacity=".94"/>
            <stop offset="1" stop-color="#fff" stop-opacity="0"/>
        </radialGradient>
        <radialGradient id="easter_egg_t_arroww_Unbenannter_Verlauf_14-2" cx="3204.98" cy="2935.21" fx="3204.98" fy="2935.21" xlink:href="#easter_egg_t_arroww_Unbenannter_Verlauf_14"/>
        <radialGradient id="easter_egg_t_arroww_Unbenannter_Verlauf_14-3" cx="2529.98" cy="2439.21" fx="2529.98" fy="2439.21" xlink:href="#easter_egg_t_arroww_Unbenannter_Verlauf_14"/>
        <radialGradient id="easter_egg_t_arroww_Unbenannter_Verlauf_14-4" cx="2225.98" cy="2811.21" fx="2225.98" fy="2811.21" xlink:href="#easter_egg_t_arroww_Unbenannter_Verlauf_14"/>
        <radialGradient id="easter_egg_t_arroww_Unbenannter_Verlauf_14-5" cx="3412.29" cy="1550.52" fx="3412.29" fy="1550.52" r="40.69" xlink:href="#easter_egg_t_arroww_Unbenannter_Verlauf_14"/>
        <radialGradient id="easter_egg_t_arroww_Unbenannter_Verlauf_14-6" cx="4063.29" cy="1995.52" fx="4063.29" fy="1995.52" r="40.69" xlink:href="#easter_egg_t_arroww_Unbenannter_Verlauf_14"/>
        <radialGradient id="easter_egg_t_arroww_Unbenannter_Verlauf_14-7" cx="3966.29" cy="2882.52" fx="3966.29" fy="2882.52" r="40.69" xlink:href="#easter_egg_t_arroww_Unbenannter_Verlauf_14"/>
        <radialGradient id="easter_egg_t_arroww_Unbenannter_Verlauf_14-8" cx="2992.29" cy="1092.52" fx="2992.29" fy="1092.52" r="40.69" xlink:href="#easter_egg_t_arroww_Unbenannter_Verlauf_14"/>
    </defs>
    <g id="easter_egg">
        <g>
            <g class="easter_egg_stars">
                <circle class="cls-easter-egg-t_arroww-17" cx="2294.32" cy="1742.78" r="15.41"/>
                <circle class="cls-easter-egg-t_arroww-17" cx="2593.32" cy="2625.78" r="15.41"/>
                <circle class="cls-easter-egg-t_arroww-17" cx="3470.32" cy="2672.78" r="15.41"/>
                <circle class="cls-easter-egg-t_arroww-17" cx="3396.32" cy="2590.78" r="15.41"/>
                <circle class="cls-easter-egg-t_arroww-17" cx="3883.32" cy="2644.78" r="15.41"/>
                <circle class="cls-easter-egg-t_arroww-17" cx="2467.32" cy="872.78" r="15.41"/>
                <circle class="cls-easter-egg-t_arroww-17" cx="3567.32" cy="1109.78" r="15.41"/>
                <circle class="cls-easter-egg-t_arroww-17" cx="3975.32" cy="2190.78" r="15.41"/>
                <circle class="cls-easter-egg-t_arroww-17" cx="3346.32" cy="1393.78" r="15.41"/>
                <circle class="cls-easter-egg-t_arroww-17" cx="3318.32" cy="1479.78" r="15.41"/>
                <circle class="cls-easter-egg-t_arroww-17" cx="2837.32" cy="1179.78" r="15.41"/>
                <g>
                    <path class="cls-easter-egg-t_arroww-17" d="m2250.86,1533.21l-15.75,4.43c-13.91,3.91-24.78,14.79-28.7,28.7l-4.43,15.75-4.45-15.77c-3.92-13.89-14.77-24.74-28.66-28.66l-15.77-4.45,15.75-4.43c13.91-3.91,24.78-14.79,28.7-28.7l4.43-15.75,4.45,15.77c3.92,13.89,14.77,24.74,28.66,28.66l15.77,4.45Z"/>
                    <circle class="cls-easter-egg-t_arroww-37" cx="2201.98" cy="1533.21" r="56.38"/>
                </g>
                <g>
                    <path class="cls-easter-egg-t_arroww-17" d="m3253.86,2935.21l-15.75,4.43c-13.91,3.91-24.78,14.79-28.7,28.7l-4.43,15.75-4.45-15.77c-3.92-13.89-14.77-24.74-28.66-28.66l-15.77-4.45,15.75-4.43c13.91-3.91,24.78-14.79,28.7-28.7l4.43-15.75,4.45,15.77c3.92,13.89,14.77,24.74,28.66,28.66l15.77,4.45Z"/>
                    <circle class="cls-easter-egg-t_arroww-2" cx="3204.98" cy="2935.21" r="56.38"/>
                </g>
                <g>
                    <path class="cls-easter-egg-t_arroww-17" d="m2578.86,2439.21l-15.75,4.43c-13.91,3.91-24.78,14.79-28.7,28.7l-4.43,15.75-4.45-15.77c-3.92-13.89-14.77-24.74-28.66-28.66l-15.77-4.45,15.75-4.43c13.91-3.91,24.78-14.79,28.7-28.7l4.43-15.75,4.45,15.77c3.92,13.89,14.77,24.74,28.66,28.66l15.77,4.45Z"/>
                    <circle class="cls-easter-egg-t_arroww-4" cx="2529.98" cy="2439.21" r="56.38"/>
                </g>
                <g>
                    <path class="cls-easter-egg-t_arroww-17" d="m2274.86,2811.21l-15.75,4.43c-13.91,3.91-24.78,14.79-28.7,28.7l-4.43,15.75-4.45-15.77c-3.92-13.89-14.77-24.74-28.66-28.66l-15.77-4.45,15.75-4.43c13.91-3.91,24.78-14.79,28.7-28.7l4.43-15.75,4.45,15.77c3.92,13.89,14.77,24.74,28.66,28.66l15.77,4.45Z"/>
                    <circle class="cls-easter-egg-t_arroww-1" cx="2225.98" cy="2811.21" r="56.38"/>
                </g>
                <g>
                    <path class="cls-easter-egg-t_arroww-17" d="m3447.57,1550.52l-11.37,3.2c-10.04,2.82-17.89,10.67-20.71,20.71l-3.2,11.37-3.21-11.38c-2.83-10.02-10.66-17.86-20.68-20.68l-11.38-3.21,11.37-3.2c10.04-2.82,17.89-10.67,20.71-20.71l3.2-11.37,3.21,11.38c2.83,10.02,10.66,17.86,20.68,20.68l11.38,3.21Z"/>
                    <circle class="cls-easter-egg-t_arroww-5" cx="3412.29" cy="1550.52" r="40.69"/>
                </g>
                <g>
                    <path class="cls-easter-egg-t_arroww-17" d="m4098.57,1995.52l-11.37,3.2c-10.04,2.82-17.89,10.67-20.71,20.71l-3.2,11.37-3.21-11.38c-2.83-10.02-10.66-17.86-20.68-20.68l-11.38-3.21,11.37-3.2c10.04-2.82,17.89-10.67,20.71-20.71l3.2-11.37,3.21,11.38c2.83,10.02,10.66,17.86,20.68,20.68l11.38,3.21Z"/>
                    <circle class="cls-easter-egg-t_arroww-6" cx="4063.29" cy="1995.52" r="40.69"/>
                </g>
                <g>
                    <path class="cls-easter-egg-t_arroww-17" d="m4001.57,2882.52l-11.37,3.2c-10.04,2.82-17.89,10.67-20.71,20.71l-3.2,11.37-3.21-11.38c-2.83-10.02-10.66-17.86-20.68-20.68l-11.38-3.21,11.37-3.2c10.04-2.82,17.89-10.67,20.71-20.71l3.2-11.37,3.21,11.38c2.83,10.02,10.66,17.86,20.68,20.68l11.38,3.21Z"/>
                    <circle class="cls-easter-egg-t_arroww-7" cx="3966.29" cy="2882.52" r="40.69"/>
                </g>
                <g>
                    <path class="cls-easter-egg-t_arroww-17" d="m3027.57,1092.52l-11.37,3.2c-10.04,2.82-17.89,10.67-20.71,20.71l-3.2,11.37-3.21-11.38c-2.83-10.02-10.66-17.86-20.68-20.68l-11.38-3.21,11.37-3.2c10.04-2.82,17.89-10.67,20.71-20.71l3.2-11.37,3.21,11.38c2.83,10.02,10.66,17.86,20.68,20.68l11.38,3.21Z"/>
                    <circle class="cls-easter-egg-t_arroww-3" cx="2992.29" cy="1092.52" r="40.69"/>
                </g>
            </g>
            <g class="easter_egg_thies">
                <path class="cls-easter-egg-t_arroww-13" d="m3614.34,2949.3s7,28,3,55,53,44,53,44l58-17,37-58-151-24Z"/>
                <path class="cls-easter-egg-t_arroww-13" d="m2806.34,3574.3s14,12,14,27,0,20,5,30,13,11,13,21,2,18,2,18l75-22-27-87-82,13Z"/>
                <path class="cls-easter-egg-t_arroww-20" d="m2909.34,3538.3s8,28,13,32,14,32,12,41,15,41,15,41h-17l-36-33s-3-31-15-44,28-37,28-37Z"/>
                <g>
                    <path class="cls-easter-egg-t_arroww-30" d="m2672.84,2409.8s-6,52-1,69,17,44,14,50-2,22,10,32,3,25,5,35,17,29,14,40c-3,11,7.5,22.5,8.5,41.5s7,199,14,236c7,37-8,68-9,84-1,16,11,20,5,63-6,43-13,104-12,178s15,143,27,193,35,96,38,129,76,30,96,22,35-34,27-58-4-67-7-94-8-163-7-179,13-81,18-99,92-232,158-349,164-256,209-271c0,0,53,9,103,4s61-9,105-6,98,6,113-1,19-11,19-5-7,14,0,19-2,3-4,37-7,113,2,162-14,205-6,214,35,34,116,23c0,0,46,4,45-29s4-148,18-229,46-207,53-237,26-105,6-139-48-50-92-61-137-35-223-44-172-14-225-14-37-3-48-8-25,17-36,6-22-3-25-9-21-18-21-18l-507.5,212.5Z"/>
                    <g>
                        <path class="cls-easter-egg-t_arroww-32" d="m3012.06,2920.42c-49.72,106.1-95.16,219.02-98.73,231.88-5,18-17,83-18,99s4,152,7,179-1,70,7,94-7,50-27,58-93,11-96-22-26-79-38-129-26-119-27-193,6-135,12-178c6-43-6-47-5-63,1-16,16-47,9-84-7-37-13-217-14-236s-11.5-30.5-8.5-41.5c3-11-12-30-14-40s7-25-5-35-13-26-10-32-9-33-14-50,1-69,1-69l51.19-21.44,190.31,52.94s17,67,74,55,136-34,119,12-118,181-95,219,17,70,1,94-1.27,99.12-1.27,99.12Z"/>
                        <path class="cls-easter-egg-t_arroww-32" d="m3773.34,2950.3c1,33-45,29-45,29-81,11-108-14-116-23s15-165,6-214-4-128-2-162c0,0,84-11,130-94,0,0,16-34,21-34s-20,74-54,106-38.04,170.75-39,187c-1,17,8,146,38,171s61,34,61,34Z"/>
                        <path class="cls-easter-egg-t_arroww-32" d="m3280.34,2532.3s53,9,103,4,61-9,105-6,98,6,113-1c0,0,117.02-63.39,154.73-92.73,1.8-1.4.12-4.21-1.97-3.3-41.94,18.44-187.96,81.28-206.77,71.02-22-12,120-50,113-56s-274,93-380,84Z"/>
                    </g>
                </g>
                <circle class="cls-easter-egg-t_arroww-26" cx="2672.34" cy="990.3" r="66"/>
                <path class="cls-easter-egg-t_arroww-13" d="m2849.34,896.3s8-4,14-1c6,3,17,28,18,45s-1.5,22.5-23.5,31.5-59,27-65.5,26.5c-12.01-.92-38-7-48,6s-16,26-4,25,23,2,51-1,23-4,45-4,35-11,46-10,31,12,38,12,67.04-94.23,52.02-106.11-66.02-65.89-82.02-61.89-47,18-41,38Z"/>
                <path class="cls-easter-egg-t_arroww-9" d="m2662.34,924.3s-9,0-15,5l38,126s10,1,18-6l-41-125Z"/>
                <path class="cls-easter-egg-t_arroww-9" d="m2737.34,922.3s-30,1-32,4,10,23,15,38c5,15,11,38,12,48,1,10,1,12,4,12s28-13,28-16c0-3-27-86-27-86Z"/>
                <path class="cls-easter-egg-t_arroww-13" d="m2383.34,2634.3s-6,34,0,54,19,24,28,57c0,0,5,15,19,32s14,39,21,43,12.55,8.95,20.77,2.48-19.77-118.48-5.77-121.48,20-10,27-7,14,32,16,41,18,27,25,30,20.35,1.99,22.68-6.5-71.68-129.5-71.68-129.5l-102,5Z"/>
                <path class="cls-easter-egg-t_arroww-20" d="m2439.34,2647.3s-15,48,2,91,25,70,27,77,18,22,19,33,25,23,18-22-37-64-32-97,6-43,14-46,19,7,23,31,27,58,43,48-5-37-14-57-14-35-16-45-23-41-23-41l-61,28Z"/>
                <path class="cls-easter-egg-t_arroww-23" d="m2279.34,1073.3c4.94-3.95,6-12,23-31s58.63-46.23,86.31-35.12,47.69,3.12,42.69,7.12-29,14-43,16-44,12-43,33,3,34,33,44,42,19,44,30-10.66,30.16-8.33,46.08c2.33,15.92,23.33,48.92,46.33,59.92s50,26,55,42-4,40-4,40c0,0-29,4-58,26s-32,22-41,42-50,5-59-9c0,0-20-2-30-17,0,0-28,9-47-22,0,0-37-2-34-47,0,0-33-36-16-66,0,0,8-20,8-51s-3-48,15-63,22-15,23-28,2-13,7-17Z"/>
                <g>
                    <path class="cls-easter-egg-t_arroww-17" d="m2942.12,3650.32s.1-22.41-18.59-29.91c-18.7-7.49-35.13-8.4-51.91,4.95-16.79,13.35-13.43,34.43-13.43,34.43,0,0-8.45-3.64-14.12,1.41-5.67,5.05-16.8,17.97-15.43,26.76,0,0-11.38,18.99-10.07,50.9,1.32,31.91,4.88,46.23,2.47,52.1s-6.24,16.47-5.59,29.94-5.77,27.46-6.46,32.49c-.69,5.03,1.62,16.95,1.62,16.95,0,0,31.29,9.4,80.18,2.19,48.9-7.21,84.67-9.17,95.31-9.61,10.64-.44,30.01-2.95,30.53-5.48s.26-6.07-5.3-13.83c-5.56-7.76-7.63-30.73-15.48-50.06-7.85-19.33-18.39-74.73-20.76-82.74-2.38-8-9.82-50.48-18.51-57.3-8.69-6.82-14.46-3.19-14.46-3.19Z"/>
                    <path class="cls-easter-egg-t_arroww-19" d="m2818.74,3745.96c-.41-.68,1.78,42.9,3.85,42.03s15.31-61.6,6.69-72.34c0,0-.67,10.01-1.7,20.04-1.03,10.03-2.83,21.92-5.32,19.25-1.55-1.66-2.3-6.94-3.52-8.98Z"/>
                    <path class="cls-easter-egg-t_arroww-28" d="m2810.77,3865.33c-.56-.34-1.29.02-1.33.68-.39,5.68,2.85,27.96,2.57,32.67-.31,5.36-2.53,23.31,31.34,24.33,31.81.96,159.29-7.1,178.73-16.35,1.46-.69,2.32-2.24,2.16-3.85-.92-9.09-4.77-45.51-7.39-47.18,0,0-11.76,4.44-36.92,5.6-25.16,1.17-79.77,8.09-91.42,9.32-11.64,1.23-47.77,3.21-60.77.63-9.79-1.95-14.99-4.64-16.97-5.85Z"/>
                    <path class="cls-easter-egg-t_arroww-28" d="m2860.03,3674.95s-17.88,17.7-10.02,18.18,32.53-21.63,43.84-22.48c0,0,9.27.37-.42,3.94s-42.26,19.87-36.59,29.05c0,0,.75,5.28,29.49-14.65,0,0,11.93-6.94,12.11-4.46s-30.77,16.52-40.83,24.74c-10.06,8.22-4.41,12.42-2.34,11.56s13.87-9.57,22.8-13.8c8.93-4.22,25.89-10.47,19.46-6.08-6.43,4.39-38.24,21.35-34.17,28.16,4.07,6.81,14.47-11.04,27.04-14.11,12.57-3.07,13.09-.98,10.31-.06s-46.37,21.96-43.67,29.58c2.7,7.62,17.43-9.48,28.78-14.6s20-3.63,16.9-2.33c-3.1,1.3-32.32,14.86-33.59,21.71-1.27,6.85,8.27,1.16,20.33-4.01,12.06-5.17,16.46-3.36,11.32-.85s-39.45,14.68-37.45,22.36c2,7.68,10.87,2.74,25.74-2.99,14.86-5.73,48.14-7.86,60.12-4.49,11.99,3.37,21.59,3.37,17.63-2.03-3.96-5.39-21.2-7.66-21.69-9.4s13.4,3.27,12.73-.95c-.67-4.22-8.65-11.09-14.72-11.35-6.07-.26-30.37-6.62-23.65-7.12s25.84-1.58,38.64,7.78c12.79,9.36,3.74-7.04-2.13-9.44-5.87-2.41-26.23-8.35-31.72-10.43s8-2.38,15.69.61c7.69,2.98,16.05,10.18,13.86,4.65-2.19-5.53-10.83-11.64-19.28-15.28s-13.56-5.39-9.67-5.68,20.6,1.23,34.62,13.89c.54.49,1.31.69,1.99.45,1.14-.41,1.96-1.94-2.31-7.3-6.67-8.39-28.33-17.44-33.31-17.43s-10.33-4.92-8.2-5.08,17.7,3.66,23.32,7.5,11.82,5.87,11.61,3.04-21.72-19.36-33.25-21.34,3.11-5.92,10.61-.79c7.5,5.13,26.62,18.28,28.15,14.97s-4.44-11.76-11.14-15.88c-6.71-4.12-23.12-14.28-30.22-14.1-7.1.17-28.51-.72-41.8,7.03-13.29,7.75-14.95,9.3-14.95,9.3Z"/>
                </g>
                <g>
                    <path class="cls-easter-egg-t_arroww-20" d="m2392.34,1025.3c-9,3-47,8-52,34s12,42,40,52,42,22,39,33-14,37-3,40,90,23,152,52,129-24,129-24l1-4s-4-10,2-62,5-69-12-74-23,10-40-4-15-11-23-11-17,9-40-8l-15-14s-12-3-12-6-1-19,4-33l-18-7s-6.36,2.33-27.68,18.16c-21.32,15.84-17.32,14.84-30.32,10.84s-29-8-49-5-45,12-45,12Z"/>
                    <path class="cls-easter-egg-t_arroww-14" d="m2413.79,1129.45s56.55,31.85,113.55,50.85,114-50,129-68,19.01-36.78,33.5-39.39c0,0,9.52,1.25,12.51,15.32s.99,29.07-1.01,50.07-5,38-4,59,6,32,6,32c0,0-124,32-178,5s-114-53-114-57,2-13,3-17,5.8-16.22,5.39-19.74c-.39-3.26-.48-5.96-5.94-11.11Z"/>
                    <path class="cls-easter-egg-t_arroww-13" d="m2491.68,1025.97c-.5-.25-.5-.95,0-1.21,7.7-3.97,36-25.66,40.66-28.46,5-3,20-13,26-7,0,0,3.6,1.28,4.5,8.5,1,8-4,30-1,35,0,0-7.5-3.5-16.5,1.5,0,0-17.94,1.33-34.33-1.43-5.69-.96-11.19-2.83-16.36-5.41l-2.97-1.48Z"/>
                    <path class="cls-easter-egg-t_arroww-18" d="m2553.32,987.3c-3.38,0-6.74.73-9.72,2.34-4.03,2.18-8.02,6.16-9.27,13.66-2,12,1,39,14,30,0,0,3.67-2.94,4.72-11.97.59-5.09,1.93-10.08,4.27-14.64,1.14-2.22,2.49-4.49,4.01-6.39,2.67-3.34,1.33-7.57-1.35-10.31-1.74-1.78-4.18-2.69-6.67-2.69h0Z"/>
                    <path class="cls-easter-egg-t_arroww-13" d="m2439.34,1234.3s69,33,74,51-2,40-2,40c0,0,84-4,139,15s81,36,81,36c0,0,26-56,24-62s-35-61-41-74-16-27-16-32c0,0-86,34-116,24s-117-52-117-52c0,0-55-20-56,4s30,50,30,50Z"/>
                    <g>
                        <path class="cls-easter-egg-t_arroww-20" d="m2411.34,1178.3s-27,10-29,31,16,37,37,34,57-20,68-36-21-29-28-30-14,0-17,4-17-9-31-3Z"/>
                        <path class="cls-easter-egg-t_arroww-13" d="m2416.34,1196.3c-3-2-14-6-19,13s9,21,21,21,36-7,37-13-7-8-4-12,15-10,12-13-16,3-20-1-10-5-11,1-16,4-16,4Z"/>
                    </g>
                </g>
                <path class="cls-easter-egg-t_arroww-23" d="m2450.34,1018.3c-1-2-6.5-4.5-13-1-5.27,2.84-16.05,8.9-21.37,18.62-3.61,6.59-3.45,14.59-.1,21.32,1.66,3.33,4.1,7.35,7.22,10.07.4.35,1.01-.02.9-.54-.9-4.25-3.1-16.52-.66-25.47,3-11,16.3-16.48,20-18,8.5-3.5,7-5,7-5Z"/>
                <path d="m2453.78,1056.19s-1.28-4.44,4.44-8.16,14.66-10.75,9.61-19.24c0,0,.79,6.38-5.42,12.04-6.2,5.66-12.41,11.32-8.64,15.36Z"/>
                <path d="m2552.34,1003.3c-1.26-.63-9,3-10,12s6,14,7,12,0-14,2-16,3-7,1-8Z"/>
                <g>
                    <path d="m2596.34,1045.3s-2,18,29,11c0,0-27,15-46,15,0,0-4-19,17-26Z"/>
                    <path class="cls-easter-egg-t_arroww-17" d="m2584.84,1038.8s6.5,1.5,12.5,3.5c0,0,0,0,0,0,1.69.56,1.88,2.86.33,3.73-4.9,2.74-13.51,9.19-18.33,22.27,0,0-2.5-24.5,5.5-29.5Z"/>
                    <path class="cls-easter-egg-t_arroww-8" d="m2583.34,1032.3c-2.88-2.16-11-7-15,2s4,35,11,37c0,0,2-13,2-19s3-13,7-13c0,0-1-4-5-7Z"/>
                    <path class="cls-easter-egg-t_arroww-15" d="m2579.34,1071.3s29,1,46-6,16-8,12-11-8-1-11,0c-3.91,1.3-7,4-19,10-3.22,1.61-22,7-28,7Z"/>
                </g>
                <path class="cls-easter-egg-t_arroww-22" d="m2335.34,1135.3s4-5,0-7c-2-1-9,1-7,6,3.42,8.56,15,10,21,4s9-21-5-26-39,2-34,23,29,31,48,15-1-29-1-29c0,0,7,20-14,24s-22-12-20-17,11-9,18-4-6,11-6,11Z"/>
                <path class="cls-easter-egg-t_arroww-22" d="m2379.91,1127.74s-6.13-1.84-6.49,2.62c-.18,2.23,4.3,7.97,8.19,4.24,6.65-6.38,3.65-17.65-4.16-20.97s-22.84-.48-22.23,14.38c.61,14.85,16.46,35.41,34.06,22.91,17.6-12.5,17.88-38.5-4.07-50.12-21.95-11.62-26.51,11.79-26.51,11.79,0,0,15.92-13.98,27.5,3.99,11.58,17.97-2.89,24.89-8.27,24.91s-12.47-6.83-10.45-15.19,12.45,1.44,12.45,1.44Z"/>
                <path class="cls-easter-egg-t_arroww-22" d="m2326.06,1077.45s7.74,1.5,7.63-4.01c-.06-2.75-6.24-9.23-10.55-4.19-7.37,8.63-2.31,22.07,7.67,25.17,9.97,3.1,28.04-2.22,25.47-20.34s-24.51-41.35-44.53-23.88c-20.02,17.47-17.17,49.35,11.14,60.89,28.31,11.54,31.03-17.69,31.03-17.69,0,0-17.79,19.08-34.17-1.51-16.38-20.59.48-30.84,7.07-31.53s16.11,6.83,14.67,17.32c-1.44,10.49-15.42-.24-15.42-.24Z"/>
                <path class="cls-easter-egg-t_arroww-22" d="m2371.31,1026.59s-2.39,6.8,2.61,7.44c2.5.32,9.19-4.41,5.2-8.98-6.82-7.82-19.66-5.04-23.79,3.57s-1.74,25.66,14.99,25.76c16.73.1,40.68-16.64,27.55-37.09-13.13-20.44-42.34-22.13-56.57,1.94-14.22,24.07,11.86,30.43,11.86,30.43,0,0-14.88-18.64,5.94-30.7s27.84,4.56,27.57,10.61c-.26,6.06-8.33,13.65-17.63,10.95-9.3-2.7,2.28-13.92,2.28-13.92Z"/>
                <path class="cls-easter-egg-t_arroww-22" d="m2283.42,1197.2s7.47-2.61,1.98-6.31c-2.74-1.85-13.9-3.38-12.29,2.08,2.76,9.35,19.86,16.15,30.64,13.59,10.78-2.56,19.57-14.65-.2-25.82-19.76-11.16-59.57-16.74-57.96,4.57,1.61,21.31,35.09,41.74,68.37,36.35,33.28-5.39,6.7-26.62,6.7-26.62,0,0,4.92,21.36-27.98,14.98-32.91-6.38-29.89-21.28-25.44-24.84,4.44-3.56,19.19-2.88,28.37,4.95s-12.19,7.06-12.19,7.06Z"/>
                <path class="cls-easter-egg-t_arroww-22" d="m2321.57,1032.55s1.52-3.67-1.21-4.17c-1.36-.25-5.19,2.15-3.14,4.78,3.52,4.51,10.67,3.37,13.21-1.24,2.54-4.61,1.74-14.07-7.46-14.64s-22.91,7.92-16.3,19.58c6.6,11.66,22.64,13.48,31.2.66,8.57-12.82-5.6-17.12-5.6-17.12,0,0,7.62,10.72-4.21,16.72s-15.19-3.36-14.86-6.69,5.01-7.26,10.04-5.49c5.04,1.77-1.68,7.59-1.68,7.59Z"/>
                <path class="cls-easter-egg-t_arroww-22" d="m2389.72,1189.57s2.44-.53,1.72-2.12c-.36-.79-2.97-1.91-3.59.09-1.07,3.43,2.08,6.71,5.37,6.37,3.29-.34,7.88-4.14,4.88-9.09-3.01-4.95-12.29-8.98-15.93-1.4-3.65,7.58,1.15,16.5,10.83,16.33s6.82-9.02,6.82-9.02c0,0-2.8,7.77-10.13,3.82s-3.71-9.04-1.87-10.06,5.54-.02,6.43,3.21c.89,3.23-4.52,1.85-4.52,1.85Z"/>
                <path class="cls-easter-egg-t_arroww-22" d="m2406.38,1169.82s-3.23-1.97-4.1.53c-.43,1.25,1.27,5.2,4.05,3.65,4.76-2.65,4.73-9.55.75-12.61-3.97-3.06-12.99-3.68-14.86,4.9-1.87,8.58,4.13,22.71,16.05,18.19,11.93-4.52,15.97-19.34,5.16-29.27-10.82-9.92-16.92,2.78-16.92,2.78,0,0,11.19-5.62,15.13,6.39s-5.37,13.8-8.45,13.01-6.11-5.77-3.71-10.25,6.9,2.68,6.9,2.68Z"/>
                <path class="cls-easter-egg-t_arroww-10" d="m2870.91,970.12c-50.21,19.24-103.58,39.18-103.58,39.18,0,0-6,1-8-2s-1-15-7-34-14-36-17-43,3-9,5-10c0,0,64-16,99-24,19.53-4.46,44.97-9.86,65.38-14.11l-33.8,87.93Z"/>
                <g>
                    <circle class="cls-easter-egg-t_arroww-27" cx="2639.84" cy="985.8" r="3"/>
                    <circle class="cls-easter-egg-t_arroww-27" cx="2642.84" cy="974.8" r="3"/>
                    <circle class="cls-easter-egg-t_arroww-27" cx="2646.84" cy="964.8" r="3"/>
                    <circle class="cls-easter-egg-t_arroww-27" cx="2635.84" cy="967.8" r="3"/>
                    <circle class="cls-easter-egg-t_arroww-27" cx="2633.84" cy="978.8" r="3"/>
                    <circle class="cls-easter-egg-t_arroww-27" cx="2639.84" cy="957.8" r="3"/>
                    <circle class="cls-easter-egg-t_arroww-27" cx="2648.84" cy="954.8" r="3"/>
                    <circle class="cls-easter-egg-t_arroww-27" cx="2653.84" cy="971.8" r="3"/>
                    <circle class="cls-easter-egg-t_arroww-27" cx="2650.84" cy="981.8" r="3"/>
                    <circle class="cls-easter-egg-t_arroww-27" cx="2647.84" cy="992.8" r="3"/>
                    <circle class="cls-easter-egg-t_arroww-27" cx="2658.84" cy="988.8" r="3"/>
                    <circle class="cls-easter-egg-t_arroww-27" cx="2656.84" cy="1000.8" r="3"/>
                    <circle class="cls-easter-egg-t_arroww-27" cx="2645.84" cy="1002.8" r="3"/>
                    <circle class="cls-easter-egg-t_arroww-27" cx="2636.84" cy="995.8" r="3"/>
                    <circle class="cls-easter-egg-t_arroww-27" cx="2630.84" cy="988.8" r="3"/>
                    <circle class="cls-easter-egg-t_arroww-27" cx="2653.84" cy="1010.8" r="3"/>
                    <circle class="cls-easter-egg-t_arroww-27" cx="2664.84" cy="1006.8" r="3"/>
                    <circle class="cls-easter-egg-t_arroww-27" cx="2670.84" cy="1024.8" r="3"/>
                    <circle class="cls-easter-egg-t_arroww-27" cx="2648.84" cy="1037.8" r="3"/>
                    <circle class="cls-easter-egg-t_arroww-27" cx="2701.84" cy="985.8" r="3"/>
                    <circle class="cls-easter-egg-t_arroww-27" cx="2703.84" cy="974.8" r="3"/>
                    <circle class="cls-easter-egg-t_arroww-27" cx="2694.84" cy="968.8" r="3"/>
                    <circle class="cls-easter-egg-t_arroww-27" cx="2706.84" cy="955.8" r="3"/>
                    <circle class="cls-easter-egg-t_arroww-27" cx="2705.84" cy="964.8" r="3"/>
                    <circle class="cls-easter-egg-t_arroww-27" cx="2713.84" cy="972.8" r="3"/>
                    <circle class="cls-easter-egg-t_arroww-27" cx="2690.84" cy="941.8" r="3"/>
                    <circle class="cls-easter-egg-t_arroww-27" cx="2692.84" cy="934.8" r="3"/>
                    <circle class="cls-easter-egg-t_arroww-27" cx="2680.84" cy="944.8" r="3"/>
                    <circle class="cls-easter-egg-t_arroww-27" cx="2709.84" cy="1020.8" r="3"/>
                    <circle class="cls-easter-egg-t_arroww-27" cx="2722.84" cy="1006.8" r="3"/>
                    <circle class="cls-easter-egg-t_arroww-27" cx="2706.84" cy="1003.8" r="3"/>
                    <circle class="cls-easter-egg-t_arroww-27" cx="2719.84" cy="1016.8" r="3"/>
                    <circle class="cls-easter-egg-t_arroww-27" cx="2638.84" cy="1039.8" r="3"/>
                    <circle class="cls-easter-egg-t_arroww-27" cx="2639.84" cy="1031.8" r="3"/>
                </g>
                <path class="cls-easter-egg-t_arroww-20" d="m2706.34,897.3s-12,8-10,25,17,15,22,11,8-10,8-10c0,0,14-11,20-4s8,36,24,42,28-7,21-22-13-35-10-37,8-2,8-2c0,0,11,22,19,37s20,13,26,4-2-19-2-19c0,0,12,10,19-3s2-27,6-34,25-23,40-13,2,16,25,33,25,49,12,52-33.5-3.5-44.5,3.5-27,44-7,43c8.24-.41,37.5,6.5,47.5-1.5s44-84,44-84c0,0-10-23-34-37s-42-36-56-35-36,7-42,13c0,0-26-9-40-7s-19,24-19,24c0,0-21-14-30-10s-9,27-9,27c0,0-24-5-38,4Z"/>
                <path class="cls-easter-egg-t_arroww-10" d="m2870.91,970.12c42.51-16.29,82.75-32.07,86.42-34.82,8-6,6-21,3-34s-12-28-22-26c-4.42.88-17.44,3.53-33.62,6.89l-33.8,87.93Z"/>
                <path class="cls-easter-egg-t_arroww-13" d="m2720.34,901.3s9,16,6,22c0,0,9.5,1.5,20-4,0,0,6-6-4-11s-22-7-22-7Z"/>
                <path class="cls-easter-egg-t_arroww-13" d="m2771.34,873.3s5,4,4,16,5.5,21.5,5.5,21.5l12-3s.5-14.5-8.5-23.5-13-11-13-11Z"/>
                <path class="cls-easter-egg-t_arroww-13" d="m2837.34,863.3s-5,6-12,6-5,11-5,18,8,27,8,27c0,0,1-12,2-26s7-25,7-25Z"/>
                <g>
                    <path class="cls-easter-egg-t_arroww-12" d="m2731.34,1376.3s-40-28-95-42-122-14-141-6-42,15-78,53c0,0-13,23-19,35s-12,19-8,29-22,74,39,71c0,0-55,63-51,106s-26,184-23,260,1,202-18,275-21,154-2,187-6,81,0,119-10,37,0,57,28,35,28,35c0,0,19,40,16,80,0,0,25,31,77,12s49-28,49-28c0,0-39-86-29-98s26-14,27-36,9-22,1-38-4-53,3-58,20-47,28-79,24-22,32-55,3-92,11-118,17-36,17-36c0,0,19,50,41,69s-11,62-11,102,4,78,27,89,16,17,16,17c0,0-11,22-3,32s67,84,181,57,130-42,208-96c78-54,105-92,112-115s4-36,13-47,6-25,4-29-7-9-7-9c0,0,10-10,19-49,9-39,11-52,16-65s0-24-8-38-8-11-7-41-2-92-3-103-10-132-12-156-15-131-18-147-9-37-2-46,86-120,103-156,65-125,78-164,33-57-1-98-73-64-85-84c-12-20-52-51-95-56s-44-5-53-14-32-9-40-5-23,3-40-9c-17-12-45-33-55-23s-71,97-52,122,25,7,51,22,42,27,49,36,22,26,31,31,17,16,31,21,33,19,33,19c0,0-20,3-29,11-9,8-26,4-42,11-16,7-25-15-66,18s-37,46-62,39-29,15-47,16-23,18-35,20c-12,2-26,8-26,8,0,0-6-22-27-31s-56.74.86-56.74.86c0,0,27.74,47.14,29.74,53.14,0,0-22,51-24,62Z"/>
                    <g>
                        <path class="cls-easter-egg-t_arroww-11" d="m2755.34,1314.3c-2-6-29.74-53.14-29.74-53.14,0,0,35.74-9.86,56.74-.86,3.24,1.39,6.13,3.09,8.69,4.97,0,0-10.69-.97-16.69,8.03s-11,8-13,16-6,25-6,25"/>
                        <path class="cls-easter-egg-t_arroww-11" d="m3104.48,1171.01c-5.96,1.76-12.83,4.45-17.15,8.29-9,8-26,4-42,11-16,7-25-15-66,18-16.03,12.9-25.18,22.74-31.87,29.53,0,0-7.13,7.47,6.87,23.47s22,65,34,58-20-76-10-84,30-21,34-15,3,31,12,28-4-40,11-40,18-12,33-5,28,31,44,38,23-62,10-67-17.85-3.29-17.85-3.29Z"/>
                        <path class="cls-easter-egg-t_arroww-11" d="m2927.09,991.7c-8.66,19.73-12.96,38.13-5.75,47.61,19,25,25,7,51,22s42,27,49,36,22,26,31,31,17,16,31,21c4.92,1.76,10.46,4.63,15.58,7.61,0,0,8.42,9.39,32.42-36.61s-19-41-43-33-27,11-45-14-68-51-79-50-37.25-31.61-37.25-31.61Z"/>
                        <path class="cls-easter-egg-t_arroww-11" d="m3359.49,1142.65c-.4-2.35-1-4.75-1.83-7.21,0,0-2.33,17.87-19.33,18.87s-62-4-112,8-85,14-96,8c0,0,10,23,44,15s76-13,91-13,49,1,63-4,12-6,19-10,12.16-15.66,12.16-15.66Z"/>
                        <path class="cls-easter-egg-t_arroww-11" d="m2642.43,2353.76c2.83,3.18,6.11,5.73,9.9,7.54,23,11,16,17,16,17,0,0-11,22-3,32,6.3,7.87,44.21,55.42,115.68,62.11,0,0-3.68-25.11,40.32-35.11s88-38,95-50,8-13,19-7,38,11,50,0,14-39,24-43,33-26,36-33-31,20-62,19-31-38-48-30-18,36-1,38,21,24-9,30-34-21-53-27-32-7-32,1-1,19-11,3-17-29-38-28-39,14-47,30-16,28-31,26-49-25-59-21-11.9,8.46-11.9,8.46Z"/>
                        <path class="cls-easter-egg-t_arroww-11" d="m2595.34,2101.3s19,50,41,69-11,62-11,102c0,1.75,0,3.49.02,5.23,0,0,11.98,12.77,30.98-26.23s31-75,43-89,1-55,19-97c18-42,15-114-35-168-50-54-115-218-125-246s-34-1-25,57,37,166,27,192-9,96,5,128,30,73,30,73Z"/>
                        <path class="cls-easter-egg-t_arroww-11" d="m2521.92,2357.06c4.81-14.56,9.66-31.76,13.41-46.76,7.67-30.66,22.68-22.76,30.96-51.08,0,0-18.96,16.08-48.96,13.08s-92,23-95,37,41-13,64-16,40-5,43,2-20,27-24,41,16.59,20.76,16.59,20.76Z"/>
                        <path class="cls-easter-egg-t_arroww-11" d="m2339.41,2527.55c10.14,16.27,23.93,27.75,23.93,27.75,0,0,19,40,16,80,0,0,22.22,27.55,68.32,14.79,0,0-5.32-41.79-18.32-60.79-8.62-12.6-2-34,10-40s30-28,16-22-54,32-80,21-35.93-20.75-35.93-20.75Z"/>
                        <path class="cls-easter-egg-t_arroww-11" d="m2339.15,2352.68c7.28,20.87,1.31,46.28-2.38,71.04,0,0,38.57-12.42,74.57-21.42s57-8,45-19-30-24-61-19-56.18-11.63-56.18-11.63Z"/>
                        <path class="cls-easter-egg-t_arroww-11" d="m2388.94,1577.48c-7.1,15.17-11.89,31.03-10.6,44.82,4,43-26,184-23,260,1.45,36.83,1.73,85.39-.53,133.98,0,0,17.53-51.98,28.53-187.98s42-148,53-204-34-25-41-33-6.4-13.82-6.4-13.82Z"/>
                        <path class="cls-easter-egg-t_arroww-11" d="m2429.34,1516.3c-61,3-35-61-39-71,0,0,33-6,34-26s7-51,49-48,82,3,99,21-45,44-74,59-69,65-69,65Z"/>
                    </g>
                    <g>
                        <g>
                            <path class="cls-easter-egg-t_arroww-33" d="m2716.83,1812.14l12.63,9.79,5.43-7,9.32,7.22-5.43,7,11.76,9.11c1.42,1.1,2.46,1.69,3.12,1.77,1.03.13,1.95-.32,2.76-1.37.73-.94,1.47-2.46,2.24-4.57l9.51,5.87c-1.75,3.68-3.68,6.88-5.8,9.62-2.46,3.17-4.67,5.19-6.64,6.06-1.97.87-4.07,1.03-6.28.46-2.21-.56-5.17-2.28-8.88-5.15l-11.68-9.05-3.63,4.69-9.32-7.22,3.63-4.69-6.1-4.72,3.35-17.82Z"/>
                            <path class="cls-easter-egg-t_arroww-33" d="m2773.47,1843.52l27.53-30.99,3.02,2.68-27.53,30.99-3.02-2.68Z"/>
                            <path class="cls-easter-egg-t_arroww-33" d="m2789.4,1775.43l-12.12,9.61c-1.47-2.33-2.35-4.42-2.65-6.29-.3-1.87-.11-3.93.56-6.17.48-1.62,1.49-3.49,3.02-5.62s3.37-4.25,5.52-6.35c3.45-3.38,6.4-5.9,8.87-7.56,2.47-1.66,5-2.56,7.59-2.71,1.81-.11,3.76.33,5.85,1.33s3.82,2.21,5.21,3.62l12.98,13.25c1.38,1.41,2.56,2.43,3.52,3.06.96.62,2.35,1.26,4.18,1.92l-10.79,10.58c-1.19-.35-2.05-.66-2.58-.93-.53-.28-1.28-.78-2.26-1.52-.08,2.93-.57,5.43-1.45,7.51-1.22,2.82-3.18,5.55-5.87,8.19-3.58,3.51-7.11,5.34-10.59,5.5-3.48.16-6.41-.97-8.79-3.4-2.23-2.28-3.4-4.81-3.5-7.59s1.29-6.29,4.19-10.53c3.46-5.09,5.66-8.44,6.6-10.04.94-1.6,1.85-3.39,2.72-5.36-1.38-1.41-2.65-2.11-3.78-2.11-1.14,0-2.44.73-3.91,2.17-1.88,1.85-3,3.53-3.35,5.06-.27,1.19,0,2.66.82,4.4Zm15.9-3.73c-1.03,2.12-2.19,4.23-3.48,6.34-1.73,2.91-2.6,4.97-2.63,6.18-.03,1.25.34,2.27,1.12,3.06.89.9,1.93,1.33,3.12,1.29,1.19-.04,2.4-.67,3.63-1.87,1.28-1.25,2.17-2.73,2.66-4.43.49-1.7.53-3.22.12-4.57-.42-1.35-1.32-2.74-2.73-4.17l-1.8-1.84Z"/>
                            <path class="cls-easter-egg-t_arroww-33" d="m2809.81,1737.29l11.4-9.85,4.5,5.21c-.85-3.2-1.06-5.73-.62-7.59.43-1.86,1.51-3.53,3.23-5.01,1.8-1.55,4.24-2.69,7.34-3.42l3.73,11.94c-1.95.64-3.35,1.33-4.19,2.05-1.6,1.38-2.26,3.11-2,5.18.35,2.94,2.72,6.96,7.11,12.04l9.21,10.65-12.24,10.58-27.46-31.78Z"/>
                            <path class="cls-easter-egg-t_arroww-33" d="m2841.03,1710.85l11.93-9.21,4.21,5.45c-.67-3.24-.74-5.78-.21-7.61s1.7-3.44,3.5-4.82c1.88-1.45,4.38-2.45,7.52-3.01l3.07,12.12c-1.99.53-3.42,1.14-4.29,1.82-1.67,1.29-2.43,2.98-2.29,5.06.18,2.96,2.33,7.09,6.44,12.42l8.61,11.14-12.8,9.89-25.68-33.24Z"/>
                            <path class="cls-easter-egg-t_arroww-33" d="m2882.09,1705.75c-3.57-5.32-4.73-10.91-3.45-16.76s4.96-10.84,11.07-14.94c6.98-4.69,13.62-6.21,19.9-4.56,5.06,1.33,9.19,4.39,12.4,9.16,3.6,5.36,4.78,10.95,3.52,16.76-1.25,5.82-5.02,10.83-11.3,15.05-5.6,3.77-11.09,5.39-16.46,4.87-6.61-.67-11.84-3.86-15.68-9.57Zm13.37-9.03c2.09,3.11,4.26,4.98,6.52,5.62s4.34.32,6.24-.96c1.93-1.29,3.01-3.09,3.26-5.39.25-2.3-.71-5.06-2.89-8.3-2.03-3.02-4.16-4.85-6.4-5.49-2.24-.64-4.28-.34-6.12.9-1.95,1.31-3.05,3.14-3.31,5.49-.26,2.35.64,5.06,2.7,8.12Z"/>
                            <path class="cls-easter-egg-t_arroww-33" d="m2913.66,1658.51l13.68-7.43,18.54,20.02-5.13-27.31,12.78-6.94,20.46,19.06-6.7-26.53,13.59-7.38,6.45,44.29-12.59,6.84-19.54-18.15,4.84,26.13-12.64,6.87-33.73-29.48Z"/>
                            <path class="cls-easter-egg-t_arroww-33" d="m2983.94,1620.55l14.46-5.76,16.05,22.07-1.88-27.72,13.51-5.39,18.07,21.34-3.52-27.14,14.37-5.73,1.18,44.75-13.31,5.3-17.26-20.33,1.72,26.52-13.37,5.33-30.02-33.25Z"/>
                        </g>
                        <g>
                            <rect class="cls-easter-egg-t_arroww-17" x="2770.07" y="1828.3" width="37.54" height="2" transform="translate(-433.17 2691.07) rotate(-48.24)"/>
                            <path class="cls-easter-egg-t_arroww-17" d="m2822.59,1779.16c-2.86-1.14-5.21-3.93-7.93-7.15-2.8-3.31-5.98-7.07-10.43-10.04-6.57-4.38-6.93-4.04-13.03,1.57-.9.83-1.9,1.75-3.03,2.76-5.67,5.04-5.66,8.19-4.86,9.15l-1.47,1.35-1.41,1.41c-.16-.16-1.55-1.63-1.47-4.29.1-3.27,2.3-6.84,6.55-10.62,1.11-.99,2.1-1.9,2.98-2.71,6.81-6.27,9.17-7.82,17.96-1.96,4.93,3.29,8.44,7.45,11.27,10.79,2.38,2.82,4.43,5.25,6.36,6.02l-1.49,3.71Z"/>
                            <path class="cls-easter-egg-t_arroww-17" d="m2799.01,1799.07c-1.26,0-2.55-.31-3.84-1.06-3.42-1.99-5.03-6.44-3.73-10.34.73-2.18,2.53-5.8,4.62-9.98,2.57-5.16,7.36-14.75,6.97-16.77,0,.05.06.2.21.36l2.97-2.68c2.26,2.5-.14,7.99-6.56,20.88-1.94,3.88-3.76,7.55-4.4,9.46-.69,2.07.18,4.59,1.94,5.62,2.27,1.32,5.43.02,8.67-3.59,8.23-9.14,6.53-21.24,6.51-21.36l3.95-.6c.09.57,2.03,14.06-7.49,24.64-1.33,1.48-5.31,5.43-9.81,5.43Z"/>
                            <path class="cls-easter-egg-t_arroww-17" d="m2752.7,1850.42c-2.56,0-7.43-2.23-19.49-11.8-7.83-6.22-15.14-12.76-15.22-12.83l2.67-2.98c16.53,14.81,29.4,23.71,32,23.6,4.17-1.72,6.85-6.96,6.88-7.01l3.58,1.79c-.14.27-3.4,6.71-9.05,8.96-.38.15-.83.26-1.38.26Zm0-4h0s0,0,0,0Z"/>
                            <rect class="cls-easter-egg-t_arroww-17" x="2717.73" y="1828.8" width="24.21" height="4" transform="translate(-398.63 2839.05) rotate(-51.71)"/>
                            <rect class="cls-easter-egg-t_arroww-17" x="2827.34" y="1730.45" width="4" height="34.71" transform="translate(-447.88 2313.35) rotate(-41.5)"/>
                            <path class="cls-easter-egg-t_arroww-17" d="m2828.22,1748.95l-.39-12.08c0-7.82,1.32-12.83,3.94-14.98,1.62-1.33,3.16-1.11,3.45-1.05l-.78,3.92c.16.03.22.02.22.02-.03,0-2.83.83-2.83,12.01l.38,12.02-4,.13Z"/>
                            <rect class="cls-easter-egg-t_arroww-17" x="2857.97" y="1705.43" width="4" height="34.71" transform="translate(-454.57 2124.36) rotate(-37.97)"/>
                            <path class="cls-easter-egg-t_arroww-17" d="m2862.78,1723.99l-4-.12.36-12.08c.48-7.8,2.11-12.73,4.85-14.7,1.7-1.23,3.22-.91,3.51-.84l-1.02,3.87c.15.04.22.04.22.04-.03,0-2.87.65-3.56,11.82l-.35,12.02Z"/>
                            <path class="cls-easter-egg-t_arroww-17" d="m2902.34,1710.8c-10.2,0-18.5-8.3-18.5-18.5s8.3-18.5,18.5-18.5,18.5,8.3,18.5,18.5-8.3,18.5-18.5,18.5Zm0-33c-8,0-14.5,6.5-14.5,14.5s6.5,14.5,14.5,14.5,14.5-6.5,14.5-14.5-6.5-14.5-14.5-14.5Z"/>
                            <polygon class="cls-easter-egg-t_arroww-17" points="2948.55 1684.3 2921.45 1658.24 2924.22 1655.36 2949.12 1679.3 2951.61 1677.81 2945.61 1646.81 2953.09 1642.32 2977.09 1664.32 2979.6 1662.81 2972.87 1629.19 2976.8 1628.41 2984.07 1664.79 2976.58 1669.29 2952.58 1647.29 2950.07 1648.8 2956.07 1679.8 2948.55 1684.3"/>
                            <polygon class="cls-easter-egg-t_arroww-17" points="3014.64 1650.52 2991.34 1621.01 2994.48 1618.53 3015.88 1645.64 3018.55 1644.5 3016.83 1612.97 3024.85 1609.54 3045.63 1634.61 3048.32 1633.46 3046.24 1599.24 3050.23 1598.99 3052.48 1636.03 3044.45 1639.46 3023.67 1614.39 3020.97 1615.55 3022.69 1647.08 3014.64 1650.52"/>
                        </g>
                        <path class="cls-easter-egg-t_arroww-33" d="m2753.22,1863.71c-4.44,0-9.53-1.72-15.02-5.11-4.81-2.97-8.59-6.4-9.8-7.55l-2.93,3.91-18.75-11.46,2.01-5.04-3.96-2.97,8.25-34.05,15.2,11.14,5.01-7.01,18.8,14.62-6.01,8.02c.6.47,2.13,1.58,5.57,3.65.89.53,1.69.63,2.44.3,2.18-.96,3.49-5.36,3.81-6.97l.14-.7,15.25,9.15,21.18-24.07c-8.41-2.23-11.94-7.24-13.42-11.11-1.17-3.06-1.27-5.83-1.22-7.26l-4.41,2.65-.25-.12c-2.09-1.05-4.11-4.04-4.19-4.17l-.29-.56c-2.2-4.32-7.36-14.45,5.31-31.02,6.81-8.9,14.99-12.29,20.66-13.56,4.35-.98,7.86-.9,9.61-.76l-6.59-8.48,21.18-15.13c-.58-7.02,13.1-13.64,14.26-14.19l16.9-13.91c5.57-8.27,16.66-8.28,19-8.18,1.1-3.91,3.86-7.62,3.98-7.78,9.35-11.89,24.55-14.54,29.07-15.07l-3.6-2.7,25.93-13.48,9.41,4.7-.93-8.41,19.54-11.31,7.38,4.61-.92-8.32,37.6-18.29,8.44,6.56v-9.32l20.58-8.23,7.42,5.57v-8.34l28-11.41v60.09l-19.64,7.24-10.36-11.3v15.05l-20.62,8.25-20.11-20.11,4.78,26.79-22.55,12.3-7.51-3.75v7.49l-20.58,11.32-13.67-12.76c.57,1.78,1.25,4.62,1.25,8.15,0,5.08-2.17,17.92-22.29,27.45-17.68,8.38-31.26-4.69-33.32-6.83-1.59.86-2.48,1.85-2.66,2.96-.27,1.64,1.11,3.05,1.13,3.07l12.33,16.44-22.76,18.62-16.98-20.98c-.6.52-1.94,1.64-4.65,3.67-.97.73-1.5,1.58-1.57,2.53-.14,1.92,1.61,3.7,1.62,3.72l14.36,15.39-36.31,32.28-2.96,5.91c-4.96,8.28-13.35,11.21-16.3,12.01l7.58,5.69-34.67,39.77-4.65-3.72c-.39,2.53-2.43,9.34-13.23,13.5-1.63.63-3.4.94-5.29.94Zm-24.94-14.17l.41.41c.17.17,16.92,16.71,29.47,11.89,12.49-4.8,12.68-13.45,12.68-13.53v-1.03s5.44,4.35,5.44,4.35l33.33-38.23-8.48-6.36,1.12-.21c.11-.02,10.85-2.09,16.66-11.77l3.1-6.12,35.62-31.66-13.65-14.63c-.07-.07-2.07-2.1-1.9-4.48.09-1.25.75-2.35,1.97-3.26,3.9-2.92,4.94-3.94,4.95-3.95l.39-.39,17.03,21.04,21.24-17.38-11.71-15.62s-1.71-1.73-1.36-3.87c.25-1.52,1.44-2.83,3.54-3.88l.35-.17.25.29c.14.16,13.98,15.61,32.41,6.88,19.6-9.28,21.71-21.66,21.71-26.55,0-5.8-1.93-9.74-1.95-9.78l-1.23-2.47,16.76,15.64,19.42-10.68v-8.51l8.49,4.25,21.45-11.7-5.22-29.21,21.89,21.89,19.38-7.75v-16.95l11.64,12.7,18.36-6.76v-57.91l-26,10.59v9.66l-8.58-6.43-19.42,7.77v10.68l-9.56-7.44-36.4,17.71,1.08,9.68-8.62-5.39-18.46,10.69,1.07,9.59-10.59-5.3-24.07,12.52,4.47,3.35-1.38.07c-.19,0-18.91,1.16-29.63,14.81-.02.03-2.94,3.96-3.91,7.81l-.1.41-.42-.03c-.13,0-12.78-.87-18.55,7.78l-.1.11-17.11,14.07c-.15.07-14.65,6.92-13.72,13.48l.04.3-20.82,14.87,7.46,9.6-1.26-.21s-4.51-.72-10.48.63c-5.49,1.24-13.43,4.54-20.04,13.18-12.29,16.07-7.33,25.8-5.21,29.96l.26.51h0s1.77,2.61,3.54,3.65l5.64-3.39-.14,1.03c-.08.59-1.73,14.6,14.62,18.45l.81.19-22.83,25.94-14.77-8.86c-.42,1.68-1.72,5.89-4.23,7-1.06.47-2.19.35-3.36-.35-5-3-6.05-4.03-6.1-4.08l-.31-.31,5.97-7.95-17.2-13.38-4.99,6.99-14.8-10.86-7.75,31.95,4.04,3.03-1.99,4.96,17.25,10.54,3.07-4.1Z"/>
                    </g>
                </g>
                <g>
                    <path class="cls-easter-egg-t_arroww-17" d="m4015.45,2999.35c6.29-1.09,15.61,3.67,26.3,21.78,0,0,4.38.71,5.98,8.06s-12.19,15.53-29.34,24.02c-17.16,8.49-72.19,31.36-97.34,39.29-25.15,7.93-53.73,11.75-73.7,12.55-19.96.8-48.87,3.23-70.72,6.44-21.85,3.21-54.09,12.33-86.15,16,0,0-20.94,4.96-36.03,5.59s-26.92.48-27.93-1.73-2.81-7.69-1.74-9.42c0,0-9.58-32.13-9.44-43.96,0,0-1.4.33-1.48-2.11,0,0-1.63-27.63-3.73-36.47-2.1-8.84-4.46-33.35,8.81-37.48,13.27-4.13,20.53,28.55,40.53,34.13,20,5.58,45.46,1.02,59.78-13.19,14.33-14.21,16.26-20.56,16.26-20.56,0,0,20.79-18.66,18.83-29s8.09-23.62,10-28,6.31-16.14,12-17c5.69-.86,9,15,6.78,32.25,0,0,21.46,9.66,43.34,12.83,21.88,3.17,91.31,26.52,96.76,26.7s69.09,3.28,92.23-.73Z"/>
                    <path class="cls-easter-egg-t_arroww-28" d="m4047.92,3028.51c1.15.71,2.7,7.22,3.38,8.05s4.42,8.29,5.15,15.49c.72,7.2-4.87,18.85-22.29,30.35-17.42,11.5-67.8,33.27-115.64,47.07-47.84,13.8-94,22.28-111.79,26.01-17.79,3.73-64.46,16.26-96.32,22.83s-53.24,9.67-65.58,3.26-11.28-16.49-11.7-20.33-9.47-31.67-6.7-30.36,16.78,4.28,54.43-2.58c35.81-6.52,45.44-7.33,66.85-12.41s60.09-9.82,68.8-10.41c8.71-.59,46.21-2.21,60.84-4.59,13.25-2.16,31.62-5.53,51.19-12.13,19.57-6.6,73.78-28.79,83-33.44,9.22-4.64,26.38-13.13,30.37-17.03s6.04-9.79,6.04-9.79Z"/>
                    <path class="cls-easter-egg-t_arroww-19" d="m3794.9,3006.34c1.47-.35,23.75,2.73,35.1,13.3,11.35,10.58,15.61,32.67-5.96,41.22s-67.07,11.48-96.87,10.18-83.07-8.32-92.3-12.03c0,0,3.04-1.7,7.45-1.76s10.48-3.47,12.72-6.46c0,0,12.27,2.01,47.41,3.02,35.13,1.01,62.54-1.56,83.73-7.56s15.27-24.75,12.55-30.01-7.08-9.13-3.82-9.91Z"/>
                    <polygon class="cls-easter-egg-t_arroww-19" points="3714.45 3149.83 3750.28 3141.34 3752.45 3144.26 3716.15 3152.87 3714.45 3149.83"/>
                    <path class="cls-easter-egg-t_arroww-19" d="m3681.55,3156.15l2.06,2.46s-32.66,5.28-41.34,3.9c-9.3-1.48-12.71-3.87-11.13-9.65,0,0-.48,5.48,7.46,6.59,9.15,1.27,27.38-.59,42.96-3.3Z"/>
                    <path class="cls-easter-egg-t_arroww-19" d="m3705.89,3157.26l-.55-2.33,3.72-.88,1.48,2.11,2.79-.66-10.62-13.7-3.26.77,3.17,15.47,3.26-.77Zm-1.68-5.01l-1.1-4.65,3.43,4.1-2.33.55Z"/>
                    <polygon class="cls-easter-egg-t_arroww-19" points="3693.3 3143.54 3701.24 3158.37 3697.98 3159.14 3690.51 3144.2 3693.3 3143.54"/>
                    <path class="cls-easter-egg-t_arroww-19" d="m3688.06,3154.61l-1.71,7.29,3.26-.77,1.82-6.82,1.9,5.94,3.26-.77-7.47-14.94-3.72.88s-3.61,1.35-2.73,5.07,5.4,4.13,5.4,4.13Zm-2.39-3.86c-1.48-2.11,2.13-3.45,2.13-3.45l1.92,3.97s-2.57,1.59-4.05-.51Z"/>
                    <path class="cls-easter-egg-t_arroww-28" d="m3916.45,2994.31s4.2,7.36,3.03,8.62-2.79.66-2.79.66c0,0-1.8,4.85-5.52,5.73s-7.51-2.64-6.77-5.77.54-6.03-.86-5.69-4.65,1.1-6.49-.43-2.41-1.89-2.41-1.89c0,0,.61,6.74-3.91,6.33-4.52-.4-6.8-3.79-7.13-5.19s-3.27-7.58-4.78-7.71-3.04,1.7-5.12,1.21,4.4,10.26-.14,11.83-7.78.37-10.61-5.35-2.67-9.2-4.75-9.69-3.92-2.02-3.92-2.02c0,0,3.74,7.47-1.16,9.61s-9.1-5.22-9.54-7.08-3.05-6.65-3.05-6.65c0,0-6.29,2.47-7.45,1.76,0,0,4.59,13.16-1.1,14.02s-8.41-4.39-9.63-9.51-2.89-10.13-5.22-9.58l-2.33.55s3.16,7.11-.45,8.46-6.27.5-8.19-3.46c-1.92-3.97-2.54-10.7-4.97-10.62s-1.97-.02-1.97-.02c0,0,.9,12.07-3.29,13.07s-6.38.04-6.93-2.29.14-11.83-.65-13.12c0,0-6.17,11.29-16.49,11.28,0,0-1.86.44-2.52-2.35s.1-7.89,4.2-11.32c4.1-3.43,8.91-8.01,10.78-8.45s10.76,1.87,12.11,5.48c0,0,9.99-1.39,13.07,3.29,0,0,14.16-.41,17.01,3.34,0,0,16.48-.96,22.57,3.99,0,0,4.61,2.84,11.1,3.27,6.49.43,7.29,1.71,7.29,1.71,0,0,1.37,1.64,2.77,1.31s11.03-1.14,13.91.63c0,0,15.04,3.32,17.21,6.24,0,0,13.29,4.22,15.13,5.75Z"/>
                </g>
            </g>
            <g class="easter_egg_cart">
                <g>
                    <g>
                        <path class="cls-easter-egg-t_arroww-38" d="m143.32,4933.64s638.27-32.75,1079.18-218.67c811.52-342.19,1114.52-679.19,1114.52-679.19l-44.46-96.21-45.54-96.79s-461,36-1238.25,410.1c-431.17,207.53-865.45,680.76-865.45,680.76Z"/>
                        <path class="cls-easter-egg-t_arroww-24" d="m1350.3,4374.71s303.89,57.32,488.34-27.99c184.45-85.31,462.15-312.69,462.15-312.69l-37.7-81.5-37.7-81.5s-353.09,64.37-537.54,149.68c-184.45,85.31-337.55,354-337.55,354Z"/>
                        <path class="cls-easter-egg-t_arroww-35" d="m1486.48,4311.73s284.56,15.53,469.01-69.78c184.45-85.31,335.63-228.81,335.63-228.81l-28.03-60.6-28.03-60.6s-207.25,22.29-391.7,107.6c-184.45,85.31-356.88,312.21-356.88,312.21Z"/>
                        <path class="cls-easter-egg-t_arroww-25" d="m1663.27,4229.88s209.1-11.08,351.56-76.97c142.45-65.89,264.55-165.18,264.55-165.18l-16.31-35.27-16.31-35.27s-154.73,28.75-297.18,94.64c-142.46,65.89-286.3,218.05-286.3,218.05Z"/>
                    </g>
                    <rect class="cls-easter-egg-t_arroww-31" x="2227.89" y="3811.74" width="214.47" height="217.01" rx="47.3" ry="47.3" transform="translate(-1402.4 1302.6) rotate(-24.21)"/>
                    <g>
                        <circle class="cls-easter-egg-t_arroww-24" cx="567.03" cy="4653.46" r="17"/>
                        <circle class="cls-easter-egg-t_arroww-24" cx="77.02" cy="4808.78" r="17"/>
                        <circle class="cls-easter-egg-t_arroww-24" cx="1441.02" cy="4123.78" r="17"/>
                        <circle class="cls-easter-egg-t_arroww-24" cx="1552.02" cy="4514.78" r="17"/>
                        <circle class="cls-easter-egg-t_arroww-35" cx="878.02" cy="4513.78" r="17"/>
                        <circle class="cls-easter-egg-t_arroww-35" cx="828.02" cy="4294.78" r="17"/>
                        <circle class="cls-easter-egg-t_arroww-35" cx="1836.02" cy="4130.78" r="17"/>
                        <circle class="cls-easter-egg-t_arroww-35" cx="2186.02" cy="4012.78" r="17"/>
                        <circle class="cls-easter-egg-t_arroww-25" cx="661.03" cy="4719.46" r="17"/>
                        <circle class="cls-easter-egg-t_arroww-25" cx="1131.02" cy="4706.78" r="17"/>
                        <circle class="cls-easter-egg-t_arroww-25" cx="517.02" cy="4330.78" r="17"/>
                        <circle class="cls-easter-egg-t_arroww-25" cx="1759.02" cy="3980.78" r="17"/>
                        <circle class="cls-easter-egg-t_arroww-25" cx="1552.02" cy="4630.78" r="17"/>
                        <circle class="cls-easter-egg-t_arroww-24" cx="2002.42" cy="4039.86" r="11.39"/>
                        <circle class="cls-easter-egg-t_arroww-24" cx="902.42" cy="4450.86" r="11.39"/>
                        <circle class="cls-easter-egg-t_arroww-24" cx="1608.42" cy="4286.86" r="11.39"/>
                        <circle class="cls-easter-egg-t_arroww-24" cx="567.42" cy="4390.86" r="11.39"/>
                        <circle class="cls-easter-egg-t_arroww-24" cx="874.42" cy="4948.86" r="11.39"/>
                        <circle class="cls-easter-egg-t_arroww-24" cx="1942.42" cy="4221.86" r="11.39"/>
                        <circle class="cls-easter-egg-t_arroww-35" cx="969.73" cy="4449.85" r="11.39"/>
                        <circle class="cls-easter-egg-t_arroww-35" cx="67.73" cy="5051.85" r="11.39"/>
                        <circle class="cls-easter-egg-t_arroww-35" cx="789.73" cy="5004.85" r="11.39"/>
                        <circle class="cls-easter-egg-t_arroww-35" cx="1905.73" cy="4344.85" r="11.39"/>
                        <circle class="cls-easter-egg-t_arroww-25" cx="526.39" cy="4862.07" r="11.39"/>
                        <circle class="cls-easter-egg-t_arroww-25" cx="11.39" cy="5046.07" r="11.39"/>
                        <circle class="cls-easter-egg-t_arroww-25" cx="1376.39" cy="4586.07" r="11.39"/>
                        <circle class="cls-easter-egg-t_arroww-25" cx="2098.39" cy="4332.07" r="11.39"/>
                        <circle class="cls-easter-egg-t_arroww-25" cx="1262.39" cy="4067.07" r="11.39"/>
                        <circle class="cls-easter-egg-t_arroww-25" cx="1172.39" cy="4407.07" r="11.39"/>
                        <circle class="cls-easter-egg-t_arroww-25" cx="2178.39" cy="3907.07" r="11.39"/>
                    </g>
                </g>
                <g>
                    <path class="cls-easter-egg-t_arroww-21" d="m2587.33,3973.04c-4.24,0-8.17-2.72-9.53-6.97l-289.26-910.11c-1.67-5.26,1.24-10.89,6.5-12.56,5.26-1.68,10.89,1.24,12.56,6.5l289.26,910.11c1.67,5.26-1.24,10.89-6.5,12.56-1.01.32-2.03.47-3.03.47Z"/>
                    <path class="cls-easter-egg-t_arroww-31" d="m2587.33,3968.04c-2.12,0-4.09-1.36-4.76-3.49l-289.26-910.11c-.84-2.63.62-5.44,3.25-6.28,2.63-.84,5.44.62,6.28,3.25l289.26,910.11c.84,2.63-.62,5.44-3.25,6.28-.5.16-1.01.24-1.52.24Z"/>
                    <path class="cls-easter-egg-t_arroww-21" d="m2717.7,3959.17c-4.36,0-8.36-2.87-9.61-7.27l-252.98-889.87c-1.51-5.31,1.57-10.84,6.88-12.35,5.31-1.51,10.84,1.57,12.35,6.88l252.98,889.87c1.51,5.31-1.57,10.84-6.88,12.35-.91.26-1.83.38-2.74.38Z"/>
                    <path class="cls-easter-egg-t_arroww-31" d="m2717.7,3954.17c-2.18,0-4.18-1.44-4.81-3.63l-252.98-889.87c-.76-2.66.79-5.42,3.44-6.18,2.66-.76,5.42.79,6.18,3.44l252.98,889.87c.76,2.66-.79,5.42-3.44,6.18-.46.13-.92.19-1.37.19Z"/>
                    <path class="cls-easter-egg-t_arroww-21" d="m2846.01,3945.79c-4.49,0-8.57-3.04-9.7-7.6l-216.53-873.42c-1.33-5.36,1.94-10.78,7.3-12.11,5.36-1.33,10.78,1.94,12.11,7.3l216.53,873.42c1.33,5.36-1.94,10.78-7.3,12.11-.81.2-1.62.3-2.41.3Z"/>
                    <path class="cls-easter-egg-t_arroww-31" d="m2846.02,3940.78c-2.24,0-4.28-1.52-4.85-3.8l-216.53-873.42c-.66-2.68.97-5.39,3.65-6.06,2.68-.66,5.39.97,6.06,3.65l216.53,873.42c.66,2.68-.97,5.39-3.65,6.06-.4.1-.81.15-1.21.15Z"/>
                    <path class="cls-easter-egg-t_arroww-21" d="m2970.7,3923.85c-4.63,0-8.78-3.23-9.77-7.94l-177.05-839.41c-1.14-5.4,2.32-10.71,7.72-11.85,5.4-1.14,10.71,2.32,11.85,7.72l177.05,839.41c1.14,5.4-2.32,10.71-7.72,11.85-.7.15-1.39.22-2.07.22Z"/>
                    <path class="cls-easter-egg-t_arroww-31" d="m2970.7,3918.85c-2.31,0-4.39-1.61-4.89-3.97l-177.05-839.41c-.57-2.7,1.16-5.35,3.86-5.92,2.7-.58,5.35,1.16,5.92,3.86l177.05,839.41c.57,2.7-1.16,5.35-3.86,5.92-.35.07-.69.11-1.04.11Z"/>
                    <path class="cls-easter-egg-t_arroww-21" d="m3097.85,3904.81c-4.78,0-9.01-3.44-9.84-8.31l-139.39-810.4c-.94-5.44,2.72-10.61,8.16-11.55,5.44-.93,10.61,2.72,11.55,8.16l139.39,810.4c.94,5.44-2.72,10.61-8.16,11.55-.57.1-1.14.15-1.71.15Z"/>
                    <path class="cls-easter-egg-t_arroww-31" d="m3097.86,3899.81c-2.39,0-4.5-1.72-4.92-4.15l-139.39-810.4c-.47-2.72,1.36-5.31,4.08-5.78,2.72-.47,5.31,1.36,5.78,4.08l139.39,810.4c.47,2.72-1.36,5.31-4.08,5.78-.29.05-.57.07-.85.07Z"/>
                    <path class="cls-easter-egg-t_arroww-21" d="m3232.64,3884.69c-4.91,0-9.19-3.62-9.89-8.62l-109.57-785.25c-.76-5.47,3.05-10.52,8.52-11.29,5.47-.76,10.52,3.05,11.29,8.52l109.57,785.25c.76,5.47-3.05,10.52-8.52,11.29-.47.06-.93.1-1.39.1Z"/>
                    <path class="cls-easter-egg-t_arroww-31" d="m3232.64,3879.69c-2.46,0-4.6-1.81-4.95-4.31l-109.57-785.25c-.38-2.73,1.53-5.26,4.26-5.64,2.74-.38,5.26,1.53,5.64,4.26l109.57,785.25c.38,2.73-1.53,5.26-4.26,5.64-.23.03-.47.05-.7.05Z"/>
                    <path class="cls-easter-egg-t_arroww-21" d="m3360.52,3868.49c-5.08,0-9.43-3.86-9.94-9.02l-75.11-761.87c-.54-5.5,3.47-10.39,8.97-10.93,5.5-.55,10.39,3.47,10.93,8.97l75.11,761.87c.54,5.5-3.47,10.39-8.97,10.93-.33.03-.66.05-.99.05Z"/>
                    <path class="cls-easter-egg-t_arroww-31" d="m3360.53,3863.49c-2.54,0-4.72-1.93-4.97-4.51l-75.11-761.87c-.27-2.75,1.74-5.2,4.49-5.47,2.75-.26,5.2,1.74,5.47,4.49l75.11,761.87c.27,2.75-1.74,5.2-4.49,5.47-.17.02-.33.02-.5.02Z"/>
                    <path class="cls-easter-egg-t_arroww-21" d="m3496.46,3849.24c-5.22,0-9.62-4.05-9.97-9.34l-48.45-728.58c-.37-5.51,3.8-10.27,9.31-10.64,5.51-.37,10.28,3.8,10.64,9.31l48.45,728.58c.37,5.51-3.8,10.27-9.31,10.64-.23.02-.45.02-.67.02Z"/>
                    <path class="cls-easter-egg-t_arroww-31" d="m3496.46,3844.24c-2.61,0-4.81-2.03-4.98-4.67l-48.45-728.58c-.18-2.75,1.9-5.14,4.66-5.32,2.76-.18,5.14,1.9,5.32,4.66l48.45,728.58c.18,2.75-1.9,5.14-4.66,5.32-.11,0-.23.01-.34.01Z"/>
                    <path class="cls-easter-egg-t_arroww-21" d="m3634.43,3820.8c-5.35,0-9.79-4.23-9.99-9.63l-25.82-691.69c-.21-5.52,4.1-10.16,9.62-10.37,5.53-.19,10.16,4.1,10.37,9.62l25.82,691.69c.21,5.52-4.1,10.16-9.62,10.37-.13,0-.25,0-.38,0Z"/>
                    <path class="cls-easter-egg-t_arroww-31" d="m3634.44,3815.8c-2.68,0-4.89-2.12-4.99-4.81l-25.82-691.69c-.1-2.76,2.05-5.08,4.81-5.18,2.76-.1,5.08,2.05,5.18,4.81l25.82,691.69c.1,2.76-2.05,5.08-4.81,5.18-.06,0-.13,0-.19,0Z"/>
                    <path class="cls-easter-egg-t_arroww-21" d="m3770.58,3800.78c-5.52,0-10-4.48-10-10l-.09-660.91c0-5.52,4.48-10,10-10,5.52,0,10,4.48,10,10l.09,660.91c0,5.52-4.48,10-10,10Z"/>
                    <path class="cls-easter-egg-t_arroww-31" d="m3770.58,3795.78c-2.76,0-5-2.24-5-5l-.09-660.91c0-2.76,2.24-5,5-5,2.76,0,5,2.24,5,5l.09,660.91c0,2.76-2.24,5-5,5Z"/>
                    <path class="cls-easter-egg-t_arroww-21" d="m3795.52,4441.28s26,7,27,29-26,29-26,29l-1467-2s-63-13-70-70,58-121,58-121c0,0,201-281,234-293s869-130,869-130c0,0,17,26-14,40l-779,116s-48,6-81,51-230,304-230,304c0,0-20,33,18,50l1461-3Z"/>
                    <path class="cls-easter-egg-t_arroww-31" d="m3793.52,4456.28s13,4,11,14-12,10-12,10l-1455-1s-87-12-50-101l244-323s40-44,80-51c40-7,782-114,782-114,0,0,12,10-2,15l-771,117s-45,7-74,42-245,321-245,321c0,0-29,62,34,75l1458-4Z"/>
                    <path class="cls-easter-egg-t_arroww-21" d="m1867.52,2825.28s15-3,38,27,104,220,117,249,393,863,393,863c0,0,14,61,86,57s1334-193,1334-193c0,0,64-4,74-75s68-549,68-549l-51.33-4.49-68.67,545.49s0,27-29,31c-29,4-1318,192-1318,192,0,0-33,9-46-23s-506-1113-506-1113c0,0-28-47-70-55s26.37-36.36,26.37-36.36c0,0,56.63,22.36,127.63,84.36,71,62,273,236,273,236,0,0,13,19,67,23s461,28,461,28c0,0,22-7,7-27s-513.01-40.5-513.01-40.5l-321.99-276.5s-74-55-106-56-143,30-42,113Z"/>
                    <path class="cls-easter-egg-t_arroww-31" d="m1871.52,2811.28s32,9,48,33,516,1129,516,1129c0,0,19,36,55,34s1342-193,1342-193c0,0,55-9,62-62s69-547,69-547l-21-1-68,552s-10,34-35,38-1336,193-1336,193c0,0-35,9-51-27-16-36-507-1115-507-1115,0,0-25-44-68-53s23-54,23-54l14-6s24,9,45,20,40,23,103,77,259,225,259,225c0,0,7,13,41,18s474,29,474,29c0,0,17-4,3-15s-510-37-510-37l-289-252s-82-67-125-74-78,29-65,58c13,29,21,30,21,30Z"/>
                    <path class="cls-easter-egg-t_arroww-21" d="m3986.39,3153.27c-.27,0-.54,0-.81-.02l-2006.71-114.97c-7.72-.44-13.62-7.06-13.18-14.78.44-7.72,7.06-13.62,14.78-13.18l2006.71,114.97c7.72.44,13.62,7.06,13.18,14.78-.43,7.45-6.6,13.2-13.96,13.2Z"/>
                    <path class="cls-easter-egg-t_arroww-31" d="m3986.38,3146.27c-.14,0-.27,0-.41-.01l-2006.71-114.97c-3.86-.22-6.81-3.53-6.59-7.39.22-3.86,3.53-6.81,7.39-6.59l2006.71,114.97c3.86.22,6.81,3.53,6.59,7.39-.21,3.72-3.3,6.6-6.98,6.6Z"/>
                    <path class="cls-easter-egg-t_arroww-21" d="m2146.16,3385.16c-7.73,0-14-6.26-14-14,0-7.73,6.26-14,14-14l1808.86-.48c7.73,0,14,6.26,14,14s-6.26,14-14,14l-1808.86.48Z"/>
                    <path class="cls-easter-egg-t_arroww-31" d="m2146.16,3378.16c-3.87,0-7-3.13-7-7,0-3.87,3.13-7,7-7l1808.86-.48c3.87,0,7,3.13,7,7,0,3.87-3.13,7-7,7l-1808.86.48Z"/>
                    <path class="cls-easter-egg-t_arroww-21" d="m2356.85,3681.22c-5.3,0-10.36-3.02-12.72-8.14l-171.52-372.22c-3.24-7.02-.17-15.34,6.86-18.57,7.02-3.24,15.34-.17,18.57,6.86l171.52,372.22c3.24,7.02.17,15.34-6.86,18.57-1.9.87-3.89,1.29-5.85,1.29Z"/>
                    <path class="cls-easter-egg-t_arroww-31" d="m2356.85,3674.22c-2.65,0-5.18-1.51-6.36-4.07l-171.52-372.22c-1.62-3.51-.08-7.67,3.43-9.29,3.51-1.62,7.67-.08,9.29,3.43l171.52,372.22c1.62,3.51.08,7.67-3.43,9.29-.95.44-1.94.64-2.93.64Z"/>
                    <path class="cls-easter-egg-t_arroww-21" d="m2334.11,3795.4c-7.19,0-13.31-5.51-13.93-12.81-.66-7.7,5.05-14.48,12.75-15.14l1592.99-136.51c7.71-.65,14.48,5.05,15.14,12.75.66,7.7-5.05,14.48-12.75,15.14l-1592.99,136.51c-.41.03-.81.05-1.21.05Z"/>
                    <path class="cls-easter-egg-t_arroww-31" d="m2334.12,3788.39c-3.6,0-6.65-2.75-6.97-6.4-.33-3.85,2.52-7.24,6.38-7.57l1592.99-136.51c3.85-.32,7.24,2.52,7.57,6.38.33,3.85-2.53,7.24-6.38,7.57l-1592.99,136.51c-.2.02-.41.03-.61.03Z"/>
                    <g>
                        <g>
                            <circle class="cls-easter-egg-t_arroww-36" cx="2447.02" cy="4655.78" r="136"/>
                            <circle class="cls-easter-egg-t_arroww-21" cx="2446.52" cy="4655.28" r="95.5"/>
                            <path class="cls-easter-egg-t_arroww-16" d="m2357.52,4497.28s-4,35,29,32c0,0,10-2,10,13,0,15,2,120,2,120,0,0,6,38,48,41,42,3,54-47,54-47l57-138v-20l-200-1Z"/>
                            <circle class="cls-easter-egg-t_arroww-21" cx="2446.52" cy="4655.28" r="23"/>
                        </g>
                        <g>
                            <circle class="cls-easter-egg-t_arroww-36" cx="3603.02" cy="4655.78" r="136"/>
                            <circle class="cls-easter-egg-t_arroww-21" cx="3602.52" cy="4655.28" r="95.5"/>
                            <path class="cls-easter-egg-t_arroww-16" d="m3513.52,4497.28s-4,35,29,32c0,0,10-2,10,13,0,15,2,120,2,120,0,0,6,38,48,41,42,3,54-47,54-47l57-138v-20l-200-1Z"/>
                            <circle class="cls-easter-egg-t_arroww-21" cx="3602.52" cy="4655.28" r="23"/>
                        </g>
                    </g>
                    <path class="cls-easter-egg-t_arroww-16" d="m1913.52,2693.28l-146-58s-54-19-88,26,0,94,18,104,154,65,154,65c0,0,20,11,26,0s48-120,48-120c0,0,4-14-12-17Z"/>
                    <circle class="cls-easter-egg-t_arroww-29" cx="1743.02" cy="2704.78" r="56.5"/>
                    <path class="cls-easter-egg-t_arroww-29" d="m3911.52,3115.28l-3,45,20,1-5,43,55,6,4-45s23-3,23-22-18-23-18-23l-76-5Z"/>
                    <polygon class="cls-easter-egg-t_arroww-29" points="2126.02 3197.78 2154.02 3186.78 2209.02 3307.78 2180.02 3320.78 2126.02 3197.78"/>
                    <polygon class="cls-easter-egg-t_arroww-29" points="2322.02 3628.78 2350.02 3617.78 2405.02 3738.78 2376.02 3751.78 2322.02 3628.78"/>
                </g>
            </g>
            <g class="easter_egg_music_notes">
                <path class="cls-easter-egg-t_arroww-34" d="m2900.11,205.07v76.07c-4.62-2.77-10.91-4.48-17.83-4.48-14.19,0-25.7,7.16-25.7,16s11.51,16,25.7,16,25.01-6.74,25.67-15.21h.03v-88.38h-7.87Z"/>
                <path class="cls-easter-egg-t_arroww-34" d="m2639.99,829.84c-3.55-6.73-1.09-15.26-.96-15.7v-.04s-4.94-1.54-4.94-1.54c0,.02-.01.04-.03.09l-14.69,47.87c-2.38-2.64-6.01-4.93-10.37-6.27-8.94-2.74-17.58-.46-19.29,5.11-1.71,5.57,4.16,12.31,13.1,15.05,8.68,2.66,17.06.59,19.12-4.62h.02s12.31-40.11,12.31-40.11c.31.86.68,1.71,1.12,2.55,2.52,4.8,6.81,8.15,12.76,9.98l1.52-4.96c-4.56-1.4-7.82-3.89-9.67-7.41Z"/>
                <path class="cls-easter-egg-t_arroww-34" d="m2805.18,508.43l-3.03-7.26c-6.68,2.78-12.9,3.03-18.47.72-10.91-4.51-16.29-17.32-16.34-17.44v-.02s-3.64,1.51-3.64,1.51l-3.64,1.48s.03.07.06.13l6.1,14.63s.03.07.06.13l23.06,55.35c-5.33-.78-11.79.06-18.18,2.72-13.1,5.46-20.97,16.5-17.57,24.65s16.77,10.34,29.88,4.88,20.49-15.84,17.84-23.91h.03s-18.33-44.01-18.33-44.01c1.19.7,2.45,1.34,3.78,1.9,7.59,3.16,15.85,2.92,24.56-.71l-3.03-7.26c-6.68,2.78-12.9,3.03-18.47.72-4.37-1.81-7.86-4.95-10.47-8.07.41.19.82.38,1.25.55,7.59,3.16,15.85,2.92,24.56-.71Z"/>
                <path class="cls-easter-egg-t_arroww-34" d="m2928.64,658.99v-.03s-50.48-3.24-50.48-3.24v.15s-.02,0-.02,0l-16.82,47.24c-2.26-2.74-5.78-5.19-10.08-6.72-8.81-3.14-17.54-1.23-19.5,4.25-1.95,5.49,3.61,12.48,12.42,15.61,8.55,3.04,17.02,1.34,19.3-3.77h.02s18.28-51.33,18.28-51.33l45.03,2.89-15.01,42.17c-2.26-2.74-5.78-5.19-10.08-6.72-8.81-3.14-17.54-1.23-19.5,4.25-1.95,5.49,3.61,12.48,12.42,15.61,8.55,3.04,17.02,1.34,19.3-3.77h.02s19.54-54.87,19.54-54.87l-4.84-1.72Z"/>
                <path class="cls-easter-egg-t_arroww-34" d="m2717.17,1.54l-.02-.04-79.3,38.35.12.24h-.02s14.99,86.01,14.99,86.01c-5.77-2.22-13.21-2.91-21.04-1.55-16.05,2.8-27.65,13.16-25.9,23.15s16.16,15.82,32.21,13.02c15.57-2.71,26.95-12.55,26.02-22.26h.04s-12.67-72.68-12.67-72.68l70.72-34.21,9.76,55.98c-5.77-2.22-13.21-2.91-21.04-1.55-16.05,2.8-27.65,13.16-25.9,23.15,1.74,9.99,16.16,15.82,32.21,13.02,15.57-2.71,26.95-12.55,26.02-22.26h.04s-17.42-99.93-17.42-99.93l-8.81,1.54Zm-67.19,54.99l-2.01-11.55,70.72-34.21,2.01,11.55-70.72,34.21Z"/>
            </g>
        </g>
    </g>
</svg>