<svg width="360" height="203" viewBox="0 0 360 203" fill="none" xmlns="http://www.w3.org/2000/svg">
<circle cx="14" cy="11" r="0.75" fill="#362178"/>
<circle cx="1" cy="30" r="0.75" fill="#8578AB"/>
<circle cx="13" cy="25" r="0.75" fill="white"/>
<circle cx="45" cy="11" r="0.75" fill="white"/>
<circle cx="99" cy="91" r="0.75" fill="#362178"/>
<circle cx="71" cy="70" r="0.75" fill="#8578AB"/>
<circle cx="73" cy="123" r="0.75" fill="#8578AB"/>
<circle cx="159" cy="48" r="0.75" fill="#8578AB"/>
<circle cx="110" cy="24" r="0.75" fill="#8578AB"/>
<circle cx="32" cy="145" r="0.75" fill="#8578AB"/>
<circle cx="57" cy="46" r="0.75" fill="#8578AB"/>
<circle cx="200" cy="131" r="0.75" fill="#8578AB"/>
<circle cx="166" cy="179" r="0.75" fill="#8578AB"/>
<circle cx="133" cy="68" r="0.75" fill="#362178"/>
<circle cx="106" cy="152" r="0.75" fill="#362178"/>
<circle cx="167" cy="91" r="0.75" fill="#362178"/>
<circle cx="220" cy="23" r="0.75" fill="#362178"/>
<circle cx="213" cy="32" r="0.75" fill="#362178"/>
<circle cx="40" cy="163" r="0.75" fill="#362178"/>
<circle cx="18" cy="106" r="0.75" fill="#362178"/>
<circle cx="128" cy="181" r="0.75" fill="#362178"/>
<circle cx="173" cy="177" r="0.75" fill="#362178"/>
<circle cx="123" cy="106" r="0.75" fill="white"/>
<circle cx="50" cy="107" r="0.75" fill="white"/>
<circle cx="40" cy="170" r="0.75" fill="white"/>
<circle cx="48" cy="164" r="0.75" fill="white"/>
<circle cx="313" cy="65" r="0.75" fill="white"/>
<circle cx="133" cy="175" r="0.75" fill="white"/>
<circle cx="246" cy="173" r="0.75" fill="white"/>
<circle cx="158" cy="1" r="0.75" fill="white"/>
<circle cx="349" cy="196" r="0.75" fill="white"/>
<circle cx="207" cy="63" r="0.75" fill="white"/>
<circle cx="209" cy="17" r="0.75" fill="white"/>
<circle cx="325" cy="181" r="0.75" fill="white"/>
<circle cx="14" cy="193" r="0.75" fill="#362178"/>
<circle cx="181" cy="127" r="0.75" fill="#362178"/>
<circle cx="140" cy="72" r="0.75" fill="#8578AB"/>
<circle cx="59" cy="85" r="0.75" fill="#8578AB"/>
<circle cx="149" cy="33" r="0.75" fill="#8578AB"/>
<circle cx="185" cy="9" r="0.75" fill="#8578AB"/>
<circle cx="85" cy="195" r="0.75" fill="#8578AB"/>
<circle cx="80" cy="173" r="0.75" fill="#8578AB"/>
<circle cx="164" cy="202" r="0.75" fill="#8578AB"/>
<circle cx="147" cy="138" r="0.75" fill="#8578AB"/>
<circle cx="283" cy="53" r="0.75" fill="#8578AB"/>
<circle cx="121" cy="63" r="0.75" fill="#8578AB"/>
<circle cx="307" cy="32" r="0.75" fill="#8578AB"/>
<circle cx="254" cy="105" r="0.75" fill="#8578AB"/>
<circle cx="312" cy="157" r="0.75" fill="#8578AB"/>
<circle cx="260" cy="24" r="0.75" fill="#362178"/>
<circle cx="343" cy="90" r="0.75" fill="#362178"/>
<circle cx="359" cy="74" r="0.75" fill="#362178"/>
<circle cx="345" cy="176" r="0.75" fill="#362178"/>
<circle cx="227" cy="192" r="0.75" fill="#362178"/>
<circle cx="205" cy="197" r="0.75" fill="#8578AB"/>
<circle cx="341" cy="24" r="0.75" fill="#8578AB"/>
<circle cx="320" cy="8" r="0.75" fill="#8578AB"/>
<circle cx="336" cy="54" r="0.75" fill="#362178"/>
<circle cx="299" cy="112" r="0.75" fill="#362178"/>
<circle cx="235" cy="128" r="0.75" fill="#362178"/>
<circle cx="239" cy="105" r="0.75" fill="#8578AB"/>
<circle cx="283" cy="192" r="0.75" fill="#8578AB"/>
<circle cx="350" cy="124" r="0.75" fill="#8578AB"/>
<circle cx="331" cy="144" r="0.75" fill="#8578AB"/>
<circle cx="272" cy="152" r="0.75" fill="#362178"/>
<circle cx="221" cy="170" r="0.75" fill="#8578AB"/>
<circle cx="196" cy="159" r="0.75" fill="#362178"/>
<circle cx="265" cy="139" r="0.75" fill="#8578AB"/>
<circle cx="252" cy="52" r="0.75" fill="#8578AB"/>
<circle cx="281" cy="88" r="0.75" fill="#362178"/>
<circle cx="201" cy="83" r="0.75" fill="#8578AB"/>
<circle cx="96" cy="55" r="0.75" fill="#362178"/>
<circle cx="240" cy="96" r="0.75" fill="white"/>
</svg>
