<?xml version="1.0" encoding="UTF-8"?><svg id="Ebene_2" xmlns="http://www.w3.org/2000/svg" xmlns:xlink="http://www.w3.org/1999/xlink" viewBox="0 0 3379.62 1755"><defs><style>.cls-1{fill:url(#Unbenannter_Verlauf_41-4);}.cls-2{fill:url(#Unbenannter_Verlauf_41-3);}.cls-3{fill:url(#Unbenannter_Verlauf_41-2);}.cls-4{fill:url(#Unbenannter_Verlauf_41-5);}.cls-5{fill:#f4bc08;}.cls-6,.cls-7{fill:#f8cd2c;}.cls-8{fill:#fff;}.cls-9{fill:#ffe183;}.cls-10{fill:#f45665;}.cls-11,.cls-12{fill:#e83945;}.cls-13,.cls-14{fill:#ee7016;}.cls-15{fill:#fce9a5;}.cls-16,.cls-17{fill:#fdeaa6;}.cls-18{fill:#6d0361;}.cls-19,.cls-20{fill:#911d7e;}.cls-21{fill:#a83d9b;}.cls-22{fill:#e25b00;}.cls-23{fill:#db0e21;}.cls-24{fill:url(#Unbenannter_Verlauf_41);}.cls-7,.cls-20,.cls-17,.cls-14,.cls-12{opacity:.5;}</style><radialGradient id="Unbenannter_Verlauf_41" cx="1427.41" cy="926.97" fx="1427.41" fy="926.97" r="48.19" gradientUnits="userSpaceOnUse"><stop offset="0" stop-color="#fcea0d"/><stop offset="0" stop-color="#fff" stop-opacity=".94"/><stop offset="1" stop-color="#fff" stop-opacity="0"/></radialGradient><radialGradient id="Unbenannter_Verlauf_41-2" cx="2289.45" cy="1167.47" fx="2289.45" fy="1167.47" r="77.94" xlink:href="#Unbenannter_Verlauf_41"/><radialGradient id="Unbenannter_Verlauf_41-3" cx="949.17" cy="606.72" fx="949.17" fy="606.72" r="48.19" xlink:href="#Unbenannter_Verlauf_41"/><radialGradient id="Unbenannter_Verlauf_41-4" cx="2587.1" cy="202.55" fx="2587.1" fy="202.55" r="98.87" xlink:href="#Unbenannter_Verlauf_41"/><radialGradient id="Unbenannter_Verlauf_41-5" cx="942.82" cy="1266.34" fx="942.82" fy="1266.34" r="98.87" xlink:href="#Unbenannter_Verlauf_41"/></defs><g id="SagittariusA"><g><g><g><ellipse class="cls-20" cx="1689.81" cy="873.09" rx="1809.3" ry="579.36" transform="translate(-204.57 702.56) rotate(-22.18)"/><ellipse class="cls-12" cx="1689.75" cy="872.8" rx="1345.3" ry="430.79" transform="translate(-204.46 702.52) rotate(-22.18)"/><ellipse class="cls-14" cx="1689.75" cy="872.94" rx="1023.86" ry="327.85" transform="translate(-204.52 702.53) rotate(-22.18)"/><ellipse class="cls-7" cx="1689.8" cy="872.92" rx="820.62" ry="262.78" transform="translate(-204.5 702.55) rotate(-22.18)"/><ellipse class="cls-17" cx="1689.81" cy="872.94" rx="599.39" ry="191.93" transform="translate(-204.51 702.55) rotate(-22.18)"/><g><path class="cls-9" d="m2146.49,599.07c-.57,0-1.14-.04-1.71-.12-13.38-1.87-28.1-3.04-43.76-3.46-6.76-.18-12.1-5.81-11.91-12.58.18-6.76,5.85-12.08,12.58-11.91,16.57.45,32.21,1.69,46.49,3.69,6.7.94,11.37,7.13,10.43,13.83-.86,6.12-6.1,10.55-12.11,10.55Z"/><path class="cls-9" d="m2251.06,707.11c-1.12,0-2.25-.15-3.38-.48-6.5-1.86-10.27-8.64-8.4-15.15,4.57-15.97,4.39-30.22-.56-42.34-1.59-3.91-3.71-7.67-6.29-11.17-4.01-5.45-2.85-13.11,2.59-17.13,5.44-4.01,13.11-2.85,17.13,2.59,3.78,5.13,6.89,10.67,9.25,16.45,7.06,17.33,7.54,36.95,1.42,58.33-1.54,5.38-6.44,8.88-11.77,8.88Z"/><path class="cls-9" d="m2141.63,846.3c-3.48,0-6.94-1.47-9.36-4.34-4.37-5.17-3.72-12.89,1.44-17.26,37.75-31.92,66.34-62.46,84.96-90.76,3.72-5.65,11.32-7.22,16.97-3.5,5.65,3.72,7.22,11.31,3.5,16.97-19.92,30.26-50.06,62.56-89.61,96-2.3,1.94-5.11,2.9-7.9,2.9Z"/><path class="cls-9" d="m1873.73,1013.59c-4.55,0-8.93-2.55-11.04-6.92-2.94-6.09-.39-13.41,5.7-16.36,15.8-7.63,31.54-15.53,46.78-23.48,6-3.12,13.4-.8,16.52,5.2,3.13,6,.8,13.4-5.2,16.52-15.46,8.06-31.43,16.07-47.45,23.81-1.72.83-3.53,1.22-5.32,1.22Z"/><path class="cls-9" d="m1357.83,1168.42c-6.31,0-11.66-4.84-12.19-11.24-.56-6.74,4.46-12.66,11.2-13.22,38.44-3.18,80.54-9.54,125.13-18.92,6.62-1.39,13.11,2.85,14.51,9.47,1.39,6.62-2.85,13.11-9.47,14.51-45.58,9.59-88.7,16.1-128.16,19.36-.34.03-.68.04-1.02.04Z"/><path class="cls-9" d="m1275.6,1170.09c-.23,0-.45,0-.68-.02-12.37-.68-24.2-1.84-35.16-3.45-6.69-.98-11.32-7.2-10.34-13.9.98-6.69,7.19-11.33,13.9-10.34,10.23,1.5,21.32,2.58,32.95,3.22,6.76.37,11.93,6.15,11.56,12.9-.36,6.53-5.76,11.58-12.22,11.58Z"/><path class="cls-9" d="m1151.83,1028.66c-1.99,0-4-.48-5.87-1.51-5.93-3.25-8.11-10.69-4.87-16.62,12.69-23.2,32.05-48.02,57.55-73.77,4.76-4.81,12.52-4.85,17.32-.09,4.81,4.76,4.85,12.51.09,17.32-23.88,24.13-41.87,47.11-53.46,68.3-2.23,4.07-6.42,6.37-10.76,6.37Z"/><path class="cls-9" d="m1424.7,800.3c-4.28,0-8.44-2.25-10.69-6.25-3.32-5.9-1.22-13.36,4.67-16.68,38.03-21.39,78.56-42.05,120.47-61.4,6.14-2.84,13.42-.16,16.26,5.98,2.84,6.14.16,13.42-5.98,16.26-41.32,19.09-81.27,39.45-118.74,60.52-1.9,1.07-3.96,1.57-5.99,1.57Z"/></g><g><path class="cls-5" d="m1554.54,656.97c-4.75,0-9.28-2.78-11.27-7.43-2.66-6.22.22-13.42,6.44-16.08,13.67-5.85,27.62-11.68,41.47-17.33,62.51-25.49,125.67-48.42,187.72-68.14,6.45-2.05,13.34,1.52,15.38,7.96,2.05,6.45-1.52,13.33-7.96,15.38-61.44,19.53-123.98,42.24-185.9,67.48-13.72,5.59-27.54,11.37-41.08,17.16-1.57.67-3.21.99-4.81.99Z"/><path class="cls-5" d="m2015.47,512.08c-5.76,0-10.9-4.09-12.02-9.96-1.27-6.64,3.1-13.06,9.74-14.32,64.42-12.27,124.55-19.77,178.73-22.3,6.74-.31,12.49,4.91,12.81,11.66.32,6.76-4.91,12.49-11.66,12.81-53.03,2.48-112,9.84-175.29,21.89-.77.15-1.54.22-2.3.22Z"/><path class="cls-5" d="m2382.66,759.88c-2.93,0-5.87-1.05-8.22-3.17-5.01-4.54-5.4-12.29-.86-17.3,37.13-41,60.91-78.74,70.68-112.18,1.9-6.49,8.7-10.22,15.19-8.32,6.49,1.9,10.22,8.7,8.32,15.19-10.82,37.02-36.4,77.99-76.04,121.75-2.42,2.67-5.74,4.03-9.08,4.03Z"/><path class="cls-5" d="m2032.92,1014.11c-4.36,0-8.57-2.33-10.79-6.43-3.22-5.95-1-13.38,4.96-16.6,33.79-18.25,66.62-37.15,97.59-56.17,5.76-3.54,13.31-1.74,16.85,4.03,3.54,5.76,1.74,13.31-4.03,16.85-31.35,19.26-64.59,38.39-98.77,56.85-1.85,1-3.84,1.47-5.81,1.47Z"/><path class="cls-5" d="m1662.11,1176.07c-5.08,0-9.83-3.19-11.58-8.26-2.2-6.4,1.2-13.37,7.59-15.57,43.62-15.03,87.86-31.67,131.51-49.47,11.82-4.82,23.77-9.8,35.51-14.79,6.22-2.65,13.42.26,16.06,6.48,2.65,6.23-.25,13.42-6.48,16.06-11.85,5.04-23.91,10.06-35.84,14.93-44.06,17.97-88.74,34.77-132.78,49.95-1.32.46-2.67.67-3.99.67Z"/><path class="cls-5" d="m1339.56,1260.27c-5.88,0-11.07-4.24-12.07-10.23-1.12-6.67,3.39-12.98,10.06-14.1,71.04-11.88,147.05-29.81,225.92-53.29,6.48-1.93,13.3,1.76,15.23,8.24s-1.76,13.3-8.24,15.23c-79.83,23.77-156.83,41.93-228.87,53.97-.68.11-1.36.17-2.03.17Z"/><path class="cls-5" d="m987.65,1246c-1.91,0-3.84-.45-5.65-1.39-28.64-14.93-48.22-34.89-58.18-59.32-21.85-53.58,4.8-123.56,77.07-202.37,4.57-4.99,12.32-5.32,17.31-.75,4.99,4.57,5.32,12.32.75,17.31-65.41,71.34-90.46,132.39-72.45,176.57,7.71,18.91,23.46,34.67,46.82,46.85,6,3.13,8.32,10.53,5.2,16.52-2.18,4.19-6.45,6.59-10.87,6.59Z"/></g><g><path class="cls-22" d="m1786.29,504.75c-6.88,0-13.29-4.39-15.53-11.29-2.79-8.58,1.91-17.79,10.49-20.58,46.02-14.95,92.12-28.67,137.03-40.79,8.71-2.35,17.67,2.81,20.02,11.51s-2.81,17.67-11.51,20.02c-44.38,11.97-89.95,25.53-135.44,40.31-1.68.55-3.38.8-5.05.8Z"/><path class="cls-22" d="m2104.81,422.46c-7.72,0-14.58-5.5-16.04-13.36-1.64-8.87,4.22-17.39,13.08-19.03,105.2-19.48,199.77-28.55,281.13-26.94,9.02.18,16.18,7.63,16.01,16.65-.18,9.02-7.59,16.12-16.65,16.01-79.15-1.56-171.51,7.32-274.54,26.4-1,.19-2.01.28-2.99.28Z"/><path class="cls-22" d="m2538.36,749.18c-4.06,0-8.12-1.5-11.29-4.53-6.52-6.23-6.75-16.57-.52-23.09,88.44-92.48,124.45-174.56,101.39-231.12-3.41-8.35.61-17.88,8.96-21.29,8.35-3.41,17.88.61,21.29,8.96,28.62,70.21-8.73,162.2-108.03,266.03-3.21,3.35-7.5,5.04-11.8,5.04Z"/><path class="cls-22" d="m1721.11,1228.72c-6.64,0-12.88-4.08-15.32-10.66-3.13-8.46,1.19-17.85,9.64-20.99,32.25-11.94,64.94-24.66,97.16-37.79,57.29-23.36,113.99-48.4,168.5-74.44,8.14-3.89,17.89-.44,21.77,7.7,3.89,8.14.44,17.89-7.7,21.77-55.08,26.31-112.36,51.61-170.24,75.21-32.54,13.27-65.56,26.11-98.15,38.17-1.87.69-3.79,1.02-5.67,1.02Z"/><path class="cls-22" d="m1025.04,1378.6c-39.9,0-76.49-2.43-109.05-7.32-8.92-1.34-15.06-9.66-13.72-18.58,1.34-8.92,9.66-15.06,18.58-13.72,79.44,11.93,184.64,8.52,304.24-9.85,8.92-1.37,17.25,4.75,18.62,13.66s-4.75,17.25-13.66,18.62c-74.42,11.43-143.63,17.19-205,17.19Z"/><path class="cls-22" d="m783.3,1321.14c-3.59,0-7.21-1.18-10.23-3.61-19.04-15.31-32.93-33.49-41.3-54.02-10.73-26.31-12.24-55.98-4.49-88.18,2.11-8.77,10.92-14.17,19.7-12.06,8.77,2.11,14.17,10.93,12.06,19.7-6.11,25.42-5.11,48.37,2.98,68.21,6.26,15.34,16.86,29.11,31.53,40.9,7.03,5.65,8.14,15.93,2.49,22.96-3.23,4.01-7.96,6.1-12.74,6.1Z"/><path class="cls-22" d="m918.43,961.7c-4.56,0-9.09-1.9-12.32-5.61-5.92-6.8-5.21-17.12,1.59-23.04,29.52-25.7,62.48-51.89,97.95-77.84,7.28-5.32,17.5-3.74,22.82,3.54,5.32,7.28,3.74,17.5-3.54,22.82-34.73,25.4-66.96,51.01-95.79,76.11-3.09,2.69-6.91,4.01-10.72,4.01Z"/></g><g><path class="cls-23" d="m1622.58,452.5c-6.58,0-12.78-4-15.26-10.52-3.21-8.43,1.01-17.87,9.44-21.08,58.97-22.49,118.59-43.69,177.2-63.01,8.57-2.82,17.8,1.83,20.62,10.4,2.82,8.57-1.83,17.8-10.4,20.62-58.14,19.16-117.28,40.19-175.79,62.5-1.91.73-3.88,1.08-5.82,1.08Z"/><path class="cls-23" d="m2185.25,285.82c-7.6,0-14.41-5.34-15.99-13.07-1.8-8.84,3.9-17.46,12.74-19.26,45.1-9.19,89.58-17.1,132.22-23.51,8.93-1.33,17.24,4.8,18.58,13.72,1.34,8.92-4.8,17.24-13.72,18.58-42.08,6.33-86.01,14.14-130.56,23.21-1.1.22-2.2.33-3.28.33Z"/><path class="cls-23" d="m2538.38,925.54c-5.18,0-10.27-2.45-13.44-7.03-5.14-7.41-3.29-17.59,4.12-22.72,19.44-13.47,38.57-27.14,56.86-40.63,7.26-5.36,17.48-3.81,22.84,3.45,5.35,7.26,3.81,17.48-3.45,22.84-18.55,13.68-37.94,27.54-57.65,41.2-2.84,1.97-6.08,2.91-9.29,2.91Z"/><path class="cls-23" d="m2286.25,1081.45c-5.74,0-11.31-3.03-14.29-8.4-4.38-7.88-1.54-17.83,6.34-22.21,49.18-27.33,97.07-55.52,142.33-83.79,7.65-4.78,17.73-2.45,22.5,5.2,4.78,7.65,2.45,17.72-5.2,22.5-45.73,28.57-94.1,57.04-143.77,84.64-2.51,1.4-5.23,2.06-7.92,2.06Z"/><path class="cls-23" d="m1389.15,1444.57c-7.21,0-13.81-4.82-15.77-12.11-2.33-8.71,2.84-17.67,11.56-20,71.14-19.03,144.34-41.11,217.58-65.61,8.56-2.86,17.81,1.75,20.67,10.3,2.86,8.55-1.75,17.81-10.3,20.67-73.87,24.72-147.72,46.98-219.5,66.19-1.41.38-2.83.56-4.23.56Z"/><path class="cls-23" d="m1051.23,1514.75c-8.01,0-15.01-5.9-16.15-14.06-1.25-8.93,4.97-17.19,13.9-18.44,23.88-3.35,48.57-7.22,73.39-11.5,8.9-1.53,17.34,4.43,18.87,13.32,1.53,8.89-4.43,17.34-13.32,18.87-25.15,4.34-50.18,8.26-74.4,11.66-.77.11-1.54.16-2.29.16Z"/><path class="cls-23" d="m647.79,1518.77c-1.03,0-2.07-.1-3.11-.3-74.44-14.36-131.26-39.39-168.88-74.38-6.6-6.14-6.98-16.48-.83-23.08,6.14-6.6,16.48-6.98,23.08-.83,33.06,30.75,84.48,53.04,152.82,66.22,8.86,1.71,14.65,10.27,12.94,19.13-1.51,7.81-8.35,13.24-16.02,13.24Z"/><path class="cls-23" d="m647.78,1008.89c-4.43,0-8.84-1.79-12.06-5.32-6.08-6.66-5.61-16.99,1.05-23.07,42.25-38.58,90.47-78.02,143.33-117.23,7.24-5.37,17.47-3.86,22.85,3.39,5.37,7.24,3.86,17.47-3.39,22.85-51.97,38.55-99.33,77.28-140.76,115.11-3.13,2.86-7.08,4.27-11.01,4.27Z"/><path class="cls-23" d="m1082.02,704.73c-5.7,0-11.23-2.99-14.23-8.3-4.44-7.85-1.67-17.81,6.18-22.25,34.61-19.55,70.53-39.05,106.77-57.94,8-4.17,17.86-1.07,22.03,6.93,4.17,8,1.07,17.86-6.93,22.03-35.92,18.72-71.51,38.04-105.8,57.42-2.54,1.43-5.3,2.12-8.02,2.12Z"/></g><g><path class="cls-18" d="m567.35,1755c-8.79,0-16.04-6.98-16.31-15.82-.28-9.01,6.8-16.55,15.82-16.83,38.34-1.19,78.73-3.62,120.05-7.23,8.98-.77,16.91,5.87,17.69,14.85.78,8.98-5.86,16.91-14.85,17.69-41.93,3.66-82.93,6.13-121.87,7.34-.17,0-.34,0-.52,0Z"/><path class="cls-18" d="m449.29,1754.66c-.22,0-.44,0-.67-.01-16.85-.68-33.53-1.65-49.56-2.89-8.99-.69-15.72-8.55-15.03-17.54.69-8.99,8.54-15.75,17.54-15.03,15.63,1.21,31.9,2.15,48.36,2.81,9.01.36,16.02,7.96,15.66,16.97-.35,8.79-7.59,15.68-16.31,15.68Z"/><path class="cls-18" d="m488.63,886.92c-5.02,0-9.97-2.31-13.17-6.66-5.34-7.27-3.78-17.49,3.49-22.83,25.68-18.86,52.53-37.96,79.82-56.76,7.43-5.12,17.6-3.25,22.71,4.18,5.12,7.43,3.25,17.6-4.18,22.71-27.02,18.62-53.6,37.52-79.01,56.19-2.91,2.14-6.3,3.17-9.66,3.17Z"/><path class="cls-18" d="m1010.16,566.36c-5.89,0-11.57-3.19-14.49-8.77-4.18-7.99-1.08-17.86,6.91-22.04,95.69-49.98,196.07-98.44,298.33-144.03,8.24-3.67,17.89.03,21.57,8.27,3.67,8.24-.03,17.89-8.27,21.57-101.65,45.31-201.41,93.48-296.5,143.15-2.41,1.26-5,1.86-7.55,1.86Z"/><path class="cls-18" d="m1940.78,184.91c-6.99,0-13.46-4.52-15.61-11.56-2.64-8.63,2.21-17.76,10.84-20.4,36.17-11.07,72.64-21.78,108.38-31.83,8.68-2.44,17.7,2.62,20.14,11.3,2.44,8.68-2.62,17.7-11.3,20.14-35.51,9.98-71.73,20.62-107.67,31.62-1.59.49-3.2.72-4.78.72Z"/><path class="cls-18" d="m2221.22,108.28c-7.38,0-14.08-5.04-15.87-12.54-2.1-8.77,3.31-17.58,12.08-19.68C2367.46,40.18,2510.09,14.62,2641.34.1c8.95-.99,17.04,5.47,18.03,14.44.99,8.97-5.47,17.04-14.44,18.03-129.91,14.37-271.19,39.7-419.9,75.27-1.28.31-2.55.45-3.81.45Z"/><path class="cls-18" d="m2432.87,1180.16c-5.82,0-11.45-3.12-14.4-8.6-4.27-7.94-1.3-17.85,6.65-22.12,42.17-22.68,84-46,124.32-69.3,7.81-4.51,17.8-1.84,22.31,5.97,4.51,7.81,1.84,17.8-5.97,22.31-40.61,23.47-82.73,46.95-125.19,69.79-2.46,1.32-5.11,1.95-7.72,1.95Z"/><path class="cls-18" d="m1434.77,1594.08c-7.01,0-13.49-4.55-15.62-11.6-2.61-8.63,2.27-17.75,10.9-20.36,157.4-47.65,318.07-104.77,477.56-169.79,8.35-3.41,17.88.61,21.29,8.96,3.41,8.35-.61,17.88-8.96,21.29-160.42,65.4-322.06,122.87-480.42,170.81-1.58.48-3.17.7-4.74.7Z"/><path class="cls-18" d="m1179.58,1663.71c-7.37,0-14.05-5.02-15.86-12.5-2.12-8.77,3.27-17.59,12.03-19.71,20.32-4.92,41.09-10.1,61.71-15.41,8.73-2.25,17.64,3.01,19.88,11.75,2.25,8.73-3.01,17.64-11.75,19.88-20.78,5.35-41.69,10.57-62.17,15.52-1.29.31-2.58.46-3.85.46Z"/></g></g><g><g><circle class="cls-21" cx="2315.23" cy="1085.61" r="25.78"/><circle class="cls-21" cx="2669.96" cy="295.43" r="25.78"/><circle class="cls-21" cx="1040.6" cy="645.05" r="25.78"/></g><g><circle class="cls-13" cx="1453.19" cy="1636.35" r="25.78"/><circle class="cls-13" cx="149.46" cy="1184.08" r="25.78"/><circle class="cls-13" cx="2406.32" cy="1200.51" r="25.78"/><circle class="cls-13" cx="2284.12" cy="589.29" r="25.78"/><circle class="cls-13" cx="1401.63" cy="357.23" r="25.78"/><circle class="cls-13" cx="798.6" cy="1280.54" r="25.78"/></g><g><circle class="cls-10" cx="39.88" cy="1283.29" r="25.78"/><circle class="cls-10" cx="1344.89" cy="1528.85" r="25.78"/><circle class="cls-10" cx="1150.03" cy="1636.35" r="25.78"/><circle class="cls-10" cx="2464.38" cy="993.76" r="25.78"/><circle class="cls-10" cx="2587.1" cy="1226.29" r="25.78"/><circle class="cls-10" cx="2815.12" cy="217.58" r="25.78"/><circle class="cls-10" cx="2574.45" cy="615.07" r="25.78"/><circle class="cls-10" cx="2536.51" cy="77.91" r="25.78"/><circle class="cls-10" cx="2392.25" cy="89.25" r="25.78"/><circle class="cls-10" cx="1201.58" cy="606.72" r="25.78"/><circle class="cls-10" cx="798.6" cy="1379.02" r="25.78"/><circle class="cls-10" cx="1453.19" cy="217.58" r="25.78"/><circle class="cls-10" cx="1254.09" cy="321.21" r="25.78"/></g><g><g><path class="cls-8" d="m1469.19,926.97l-13.47,3.79c-11.89,3.34-21.19,12.64-24.53,24.53l-3.79,13.47-3.8-13.48c-3.35-11.87-12.63-21.15-24.5-24.5l-13.48-3.8,13.47-3.79c11.89-3.34,21.18-12.64,24.53-24.53l3.79-13.47,3.8,13.48c3.35,11.87,12.63,21.15,24.5,24.5l13.48,3.8Z"/><circle class="cls-24" cx="1427.41" cy="926.97" r="48.19"/></g><g><g><path class="cls-8" d="m2349.68,1167.47l-19.41,5.46c-17.14,4.82-30.54,18.22-35.36,35.36l-5.46,19.41-5.48-19.43c-4.83-17.11-18.2-30.49-35.31-35.31l-19.43-5.48,19.41-5.46c17.14-4.82,30.54-18.22,35.36-35.36l5.46-19.41,5.48,19.43c4.83,17.11,18.2,30.49,35.31,35.31l19.43,5.48Z"/><circle class="cls-3" cx="2289.45" cy="1167.47" r="77.94"/></g><g><path class="cls-8" d="m990.95,606.72l-13.47,3.79c-11.89,3.34-21.19,12.64-24.53,24.53l-3.79,13.47-3.8-13.48c-3.35-11.87-12.63-21.15-24.5-24.5l-13.48-3.8,13.47-3.79c11.89-3.34,21.18-12.64,24.53-24.53l3.79-13.47,3.8,13.48c3.35,11.87,12.63,21.15,24.5,24.5l13.48,3.8Z"/><circle class="cls-2" cx="949.17" cy="606.72" r="48.19"/></g><g><path class="cls-8" d="m2671.2,202.55l-27.1,7.62c-23.93,6.73-42.64,25.44-49.37,49.37l-7.62,27.1-7.65-27.14c-6.74-23.9-25.41-42.57-49.31-49.31l-27.14-7.65,27.1-7.62c23.93-6.73,42.64-25.44,49.37-49.37l7.62-27.1,7.65,27.14c6.74,23.9,25.41,42.57,49.31,49.31l27.14,7.65Z"/><circle class="cls-1" cx="2587.1" cy="202.55" r="98.87"/></g><g><path class="cls-8" d="m1026.92,1266.34l-27.1,7.62c-23.93,6.73-42.64,25.44-49.37,49.37l-7.62,27.1-7.65-27.14c-6.74-23.9-25.41-42.57-49.31-49.31l-27.14-7.65,27.1-7.62c23.93-6.73,42.64-25.44,49.37-49.37l7.62-27.1,7.65,27.14c6.74,23.9,25.41,42.57,49.31,49.31l27.14,7.65Z"/><circle class="cls-4" cx="942.82" cy="1266.34" r="98.87"/></g></g></g></g></g><g><path class="cls-8" d="m1584.66,671.26s-48.23,25.47-79.14,68.27c-30.91,42.8-39.61,91.4-53.66,112.76-22.63,34.39-53.58,50.23-84.12,75.26-48.11,39.43-57.24,64.81-58.6,82.47-1.36,17.66,9.58,46.74,74.45,52.85s146.73-8.83,192.58-20.04c45.85-11.21,137.9-41.44,197-66.91,59.1-25.47,115.14-49.93,177.3-92.04,62.16-42.12,94.76-70.99,116.16-105.97,21.4-34.98,7.33-59.43-14.94-72.34-22.43-13-67.59-17.66-119.22-11.21-51.63,6.45-92.08-8.61-124.31-24.11-32.7-15.73-123.8-51.29-223.49,1.02Z"/><path class="cls-6" d="m1415.87,1059.22c-11.27,0-21.98-.47-31.81-1.4-27.17-2.56-47.58-9.72-59.03-20.71-9.93-9.53-11.38-19.78-10.84-26.71,1.14-14.86,8.27-39.2,56.76-78.94,8.37-6.86,16.89-13.11,25.13-19.15,22.21-16.29,43.17-31.65,60.01-57.24,5.79-8.8,10.58-21.6,16.13-36.42,8.44-22.54,18.94-50.59,37.41-76.16,29.77-41.22,76.92-66.5,77.4-66.76,34.03-17.86,70.3-26.91,107.82-26.91,47.19,0,86.47,14.13,111.1,25.97,25.31,12.17,59.79,26.15,102.15,26.15,8.24,0,16.65-.53,24.99-1.57,15.09-1.89,29.85-2.84,43.88-2.84,31.16,0,57.47,4.89,72.17,13.41,8.15,4.72,18.57,13.14,21.93,26.4,2.92,11.53-.03,24.62-8.77,38.92-20.34,33.26-51.42,61.56-114.68,104.42-62.97,42.67-120.66,67.54-176.46,91.59-59.01,25.43-150.76,55.54-196.19,66.64-20.45,5-92.38,21.31-159.09,21.31Zm278.97-400.26c-35.86,0-70.54,8.66-103.09,25.74-.43.23-45.65,24.6-73.91,63.72-17.67,24.47-27.91,51.81-36.13,73.78-5.76,15.4-10.74,28.69-17.16,38.44-17.85,27.11-39.52,43-62.46,59.82-8.15,5.98-16.56,12.14-24.72,18.83-45.48,37.28-52.07,58.87-53.08,71.88-.37,4.75.68,11.83,7.76,18.62,9.78,9.39,28.1,15.59,52.96,17.93,9.52.9,19.9,1.35,30.86,1.35,65.58,0,136.51-16.09,156.68-21.02,45.05-11.01,136.04-40.87,194.59-66.1,55.36-23.86,112.61-48.54,174.78-90.67,61.93-41.97,92.21-69.43,111.72-101.32,7.27-11.88,9.82-22.35,7.59-31.14-2.49-9.84-10.73-16.37-17.19-20.12-13.2-7.65-37.65-12.04-67.08-12.04-13.61,0-27.95.93-42.62,2.76-8.75,1.09-17.58,1.65-26.24,1.65-44.4,0-80.26-14.51-106.54-27.15-23.69-11.39-61.43-24.97-106.71-24.97Z"/><path class="cls-15" d="m1415.87,1049.09c-10.96,0-21.34-.45-30.86-1.35-39.49-3.72-62.19-17.39-60.72-36.55.57-7.49,2.33-30.29,53.07-71.88,8.18-6.7,16.59-12.87,24.73-18.83,21.93-16.08,44.61-32.71,62.46-59.82,6.41-9.74,11.39-23.03,17.15-38.42,8.23-21.99,18.47-49.33,36.14-73.8,28.47-39.42,73.46-63.49,73.91-63.73,32.55-17.08,67.23-25.74,103.09-25.74,45.29,0,83.02,13.58,106.71,24.97,26.28,12.64,62.14,27.15,106.54,27.15,8.66,0,17.49-.55,26.24-1.65,14.68-1.83,29.02-2.76,42.62-2.76,29,0,54.08,4.5,67.08,12.04,6.47,3.75,14.7,10.28,17.19,20.12,2.23,8.78-.33,19.26-7.59,31.14-19.5,31.89-49.78,59.35-111.72,101.32-62.18,42.13-119.42,66.81-174.78,90.67-58.55,25.24-149.55,55.09-194.59,66.11-20.18,4.93-91.1,21.02-156.68,21.02Zm278.97-379.98c-34.2,0-67.3,8.27-98.37,24.57-.41.22-43.45,23.35-70.42,60.69-16.87,23.36-26.85,50-34.86,71.4-5.98,15.98-11.14,29.76-18.18,40.46-18.85,28.64-42.28,45.81-64.93,62.43-8.03,5.88-16.33,11.97-24.29,18.5-20.46,16.77-34.82,32.01-42.67,45.3-6.01,10.18-6.48,16.25-6.73,19.51-.95,12.37,19.77,22.69,51.56,25.68,9.2.87,19.27,1.31,29.91,1.31,64.45,0,134.38-15.87,154.28-20.73,44.66-10.92,134.89-40.53,192.98-65.57,54.93-23.68,111.73-48.16,173.11-89.75,60.61-41.07,90.09-67.69,108.76-98.21,5.79-9.46,7.95-17.32,6.41-23.36-1.63-6.42-7.67-11.07-12.45-13.84-11.36-6.58-35.12-10.67-62-10.67-13.19,0-27.11.9-41.36,2.69-9.17,1.15-18.42,1.73-27.5,1.73-46.45,0-83.69-15.04-110.94-28.15-22.74-10.94-58.94-23.97-102.32-23.97Z"/><path class="cls-16" d="m1521.06,795.81s17.29-62.53,68.64-90.43c51.35-27.9,95.01-33.15,140.7-25.47,45.69,7.68,84.9,33.96,108.76,57.41,23.85,23.45,17.79,27.9,34.77,34.37,16.98,6.47,45.67,9.66,45.69,30.32.02,18.88-11.72,29.92-34.77,48.92-23.05,19-76.01,53.37-159.3,87.73-83.29,34.37-152.42,38.41-160.51,24.26-8.09-14.15-45.22-139.54-43.98-167.12Z"/><path d="m1518.95,955.28s-50.13-103.73,24.82-195.55c74.94-91.82,188.6-79.41,231.29-55.09,42.68,24.32,76.93,48.64,98.27,107.7,0,0,7.44,48.14-150.39,116.14-157.83,68-203.99,26.8-203.99,26.8Z"/><path class="cls-13" d="m1415.93,1069.36c-11.15,0-22.16-.44-32.82-1.45-29.89-2.82-51.79-10.72-65.1-23.48-13.46-12.91-14.51-27.35-13.93-34.8,1.28-16.71,8.95-43.8,60.44-86,8.59-7.04,17.23-13.38,25.59-19.5,21.43-15.71,41.67-30.56,57.51-54.62,5.16-7.84,9.77-20.15,15.1-34.4,8.65-23.11,19.42-51.86,38.68-78.54,31.24-43.26,78.87-68.72,80.88-69.78h.01c43.84-23.01,90.86-31.95,139.77-26.58,37.81,4.15,68.87,16.14,88.27,25.47,31.69,15.24,70.91,29.98,121.49,23.65,51.72-6.47,98.62-1.92,122.39,11.85,14.1,8.17,23.33,19.47,26.68,32.68,3.62,14.27.27,29.99-9.95,46.7-21.18,34.62-53.06,63.76-117.64,107.52-63.76,43.21-121.91,68.27-178.13,92.5-59.47,25.63-151.97,55.98-197.8,67.18-22.85,5.59-94.33,21.61-161.43,21.61Zm171.08-393.62c-1.03.55-47.75,25.71-77.38,66.75-18.47,25.57-28.97,53.62-37.41,76.16-5.55,14.82-10.34,27.62-16.13,36.42-16.84,25.59-37.8,40.96-59.99,57.22-8.25,6.05-16.77,12.3-25.16,19.17-48.49,39.74-55.61,64.08-56.76,78.94-.44,5.67.39,16.68,10.84,26.71,11.61,11.14,31.47,18.11,59.03,20.71,10.37.98,21.12,1.41,31.98,1.41,65.87,0,136.38-15.81,158.92-21.32,45.44-11.11,137.18-41.21,196.19-66.64,55.79-24.05,113.49-48.92,176.46-91.59,63.26-42.86,94.34-71.16,114.68-104.42,8.74-14.29,11.69-27.39,8.77-38.92-3.36-13.26-13.78-21.68-21.93-26.4-21.95-12.72-66.41-16.77-116.05-10.56-53.19,6.65-94.11-8.69-127.14-24.58-18.69-8.99-48.6-20.54-84.98-24.53-46.87-5.15-91.93,3.43-133.95,25.47h0Z"/><path class="cls-11" d="m1415.87,1088.71c-12.19,0-23.83-.51-34.58-1.53-34.35-3.24-60.14-12.92-76.68-28.79-19.2-18.42-20.66-39.39-19.83-50.25,2.51-32.62,23.32-63.3,67.46-99.48,8.99-7.37,17.84-13.86,26.39-20.13,20.87-15.3,38.88-28.51,52.81-49.67,3.96-6.02,8.22-17.38,13.14-30.52,9.06-24.22,20.34-54.32,41.13-83.11,33.87-46.89,85.35-74.42,87.53-75.56,38.35-20.12,79.25-30.32,121.59-30.32,52.75,0,96.48,15.71,123.88,28.89,23.89,11.49,53.18,23.23,89.37,23.23,7.02,0,14.2-.45,21.33-1.34,16.3-2.04,32.29-3.07,47.54-3.07,25.99,0,62.17,3.02,86.95,17.38,18.72,10.85,31.07,26.29,35.73,44.66,4.95,19.52.84,40.22-12.2,61.55-22.77,37.22-56.18,67.97-123.29,113.44-65.28,44.23-124.28,69.66-181.33,94.25-60.35,26.01-154.29,56.82-200.86,68.21-27.25,6.66-97.99,22.16-166.09,22.16Zm278.97-461.07c-40.98,0-80.59,9.88-117.73,29.37-2.1,1.11-51.93,27.74-84.67,73.08-20.14,27.88-31.19,57.41-40.08,81.14-5.11,13.64-9.51,25.4-13.99,32.2-14.75,22.41-33.31,36.02-54.81,51.78-8.49,6.22-17.24,12.64-26.06,19.87-42.25,34.63-62.13,63.53-64.45,93.7-.72,9.4.56,27.57,17.3,43.63,15.15,14.54,39.28,23.46,71.71,26.51,10.49.99,21.86,1.49,33.8,1.49,67.2,0,137.16-15.33,164.12-21.92,46.25-11.31,139.58-41.92,199.55-67.77,56.7-24.44,115.33-49.71,179.96-93.5,66.03-44.74,98.79-74.8,120.87-110.91,11.83-19.35,15.61-37.91,11.24-55.18-4.1-16.16-15.11-29.82-31.85-39.53-23.19-13.44-57.83-16.26-82.79-16.26-14.9,0-30.55,1.01-46.51,3.01-7.47.93-14.99,1.41-22.36,1.41-37.85,0-68.23-12.16-92.96-24.05-26.62-12.81-69.1-28.07-120.29-28.07Z"/><path class="cls-19" d="m1415.87,1105.3c-12.71,0-24.87-.54-36.13-1.6-38.16-3.6-67.3-14.81-86.6-33.33-17.88-17.15-26.71-39.7-24.88-63.49,2.88-37.5,25.55-71.75,73.49-111.04,9.34-7.66,18.38-14.28,27.11-20.69,20.37-14.94,36.46-26.73,48.75-45.4,2.94-4.47,7.28-16.04,11.47-27.24,8.91-23.8,21.11-56.4,43.21-86.99,36.11-50,90.91-79.3,93.23-80.52l.09-.05c40.71-21.36,84.19-32.19,129.24-32.19,55.88,0,102.12,16.6,131.07,30.53,22.2,10.68,49.33,21.59,82.18,21.59,6.34,0,12.82-.41,19.27-1.22,16.98-2.12,33.66-3.2,49.59-3.2,28.02,0,67.29,3.4,95.27,19.62,22.35,12.95,37.79,32.46,43.49,54.94,4.19,16.51,5.13,42.79-14.13,74.28-24.13,39.46-58.86,71.58-128.14,118.52-66.58,45.11-126.3,70.86-184.06,95.75-61.1,26.34-156.28,57.55-203.5,69.09-27.84,6.8-100.13,22.63-170.03,22.63Zm278.97-497.93c-44.3,0-87.06,10.65-127.1,31.66l-.09.05c-2.28,1.2-56.16,30.01-91.64,79.14-21.73,30.09-33.81,62.35-42.63,85.9-4.28,11.44-8.71,23.26-11.94,28.16-12.74,19.36-29.13,31.37-49.87,46.58-8.69,6.37-17.68,12.96-26.92,20.54-46.89,38.43-69.04,71.68-71.82,107.83-1.72,22.39,6.62,43.63,23.48,59.81,18.53,17.78,46.74,28.57,83.85,32.07,11.12,1.05,23.13,1.58,35.7,1.58,69.4,0,141.26-15.73,168.94-22.5,47.03-11.5,141.87-42.6,202.76-68.84,57.57-24.81,117.09-50.47,183.3-95.34,68.67-46.53,103.04-78.27,126.79-117.11,18.42-30.12,17.56-55.09,13.59-70.74-5.39-21.26-20.07-39.76-41.34-52.08-27.09-15.7-65.5-19-92.96-19-15.74,0-32.23,1.06-49.02,3.16-6.64.83-13.31,1.25-19.85,1.25-33.78,0-61.51-11.15-84.18-22.05-28.52-13.72-74.07-30.07-129.08-30.07Z"/></g></g></g></svg>