<?xml version="1.0" encoding="UTF-8"?>
<svg id="Ebene_2" xmlns="http://www.w3.org/2000/svg" xmlns:xlink="http://www.w3.org/1999/xlink" viewBox="0 0 2190.1 2183.11">
    <defs>
        <style>
            .cls-PSR-J0540-6919TN-1{fill:url(#PSR-J0540-6919TN_Unbenannter_Verlauf_19-13);}
            .cls-PSR-J0540-6919TN-2{fill:url(#PSR-J0540-6919TN_Unbenannter_Verlauf_19-16);}
            .cls-PSR-J0540-6919TN-3{fill:url(#PSR-J0540-6919TN_Unbenannter_Verlauf_19-19);}
            .cls-PSR-J0540-6919TN-4{fill:url(#PSR-J0540-6919TN_Unbenannter_Verlauf_19-18);}
            .cls-PSR-J0540-6919TN-5{fill:url(#PSR-J0540-6919TN_Unbenannter_Verlauf_19-12);}
            .cls-PSR-J0540-6919TN-6{fill:url(#PSR-J0540-6919TN_Unbenannter_Verlauf_19-15);}
            .cls-PSR-J0540-6919TN-7{fill:url(#PSR-J0540-6919TN_Unbenannter_Verlauf_19-17);}
            .cls-PSR-J0540-6919TN-8{fill:url(#PSR-J0540-6919TN_Unbenannter_Verlauf_19-14);}
            .cls-PSR-J0540-6919TN-9{fill:url(#PSR-J0540-6919TN_Unbenannter_Verlauf_19-10);}
            .cls-PSR-J0540-6919TN-10{fill:url(#PSR-J0540-6919TN_Unbenannter_Verlauf_19-11);}
            .cls-PSR-J0540-6919TN-11{fill:url(#PSR-J0540-6919TN_Unbenannter_Verlauf_19-25);}
            .cls-PSR-J0540-6919TN-12{fill:url(#PSR-J0540-6919TN_Unbenannter_Verlauf_19-26);}
            .cls-PSR-J0540-6919TN-13{fill:url(#PSR-J0540-6919TN_Unbenannter_Verlauf_19-22);}
            .cls-PSR-J0540-6919TN-14{fill:url(#PSR-J0540-6919TN_Unbenannter_Verlauf_19-21);}
            .cls-PSR-J0540-6919TN-15{fill:url(#PSR-J0540-6919TN_Unbenannter_Verlauf_19-23);}
            .cls-PSR-J0540-6919TN-16{fill:url(#PSR-J0540-6919TN_Unbenannter_Verlauf_19-24);}
            .cls-PSR-J0540-6919TN-17{fill:url(#PSR-J0540-6919TN_Unbenannter_Verlauf_19-20);}
            .cls-PSR-J0540-6919TN-18{fill:url(#PSR-J0540-6919TN_Unbenannter_Verlauf_195-3);}
            .cls-PSR-J0540-6919TN-19{fill:url(#PSR-J0540-6919TN_Unbenannter_Verlauf_195-4);}
            .cls-PSR-J0540-6919TN-20{fill:url(#PSR-J0540-6919TN_Unbenannter_Verlauf_195-2);}
            .cls-PSR-J0540-6919TN-21{fill:url(#PSR-J0540-6919TN_Unbenannter_Verlauf_195-5);}
            .cls-PSR-J0540-6919TN-22{fill:url(#PSR-J0540-6919TN_Unbenannter_Verlauf_195-6);}
            .cls-PSR-J0540-6919TN-23{fill:url(#PSR-J0540-6919TN_Unbenannter_Verlauf_193-2);}
            .cls-PSR-J0540-6919TN-24{fill:url(#PSR-J0540-6919TN_Unbenannter_Verlauf_110-2);}
            .cls-PSR-J0540-6919TN-25{fill:url(#PSR-J0540-6919TN_Unbenannter_Verlauf_19-7);}
            .cls-PSR-J0540-6919TN-26{fill:url(#PSR-J0540-6919TN_Unbenannter_Verlauf_19-6);}
            .cls-PSR-J0540-6919TN-27{fill:url(#PSR-J0540-6919TN_Unbenannter_Verlauf_19-9);}
            .cls-PSR-J0540-6919TN-28{fill:url(#PSR-J0540-6919TN_Unbenannter_Verlauf_19-8);}
            .cls-PSR-J0540-6919TN-29{fill:url(#PSR-J0540-6919TN_Unbenannter_Verlauf_19-3);}
            .cls-PSR-J0540-6919TN-30{fill:url(#PSR-J0540-6919TN_Unbenannter_Verlauf_19-5);}
            .cls-PSR-J0540-6919TN-31{fill:url(#PSR-J0540-6919TN_Unbenannter_Verlauf_19-2);}
            .cls-PSR-J0540-6919TN-32{fill:url(#PSR-J0540-6919TN_Unbenannter_Verlauf_19-4);}
            .cls-PSR-J0540-6919TN-33{fill:#00abe9;}
            .cls-PSR-J0540-6919TN-34{fill:#fff;}
            .cls-PSR-J0540-6919TN-35{fill:#69c6e3;}
            .cls-PSR-J0540-6919TN-36{fill:#b8e1ee;}
            .cls-PSR-J0540-6919TN-37{fill:#b8e0ed;}
            .cls-PSR-J0540-6919TN-38{fill:#0d79bf;}
            .cls-PSR-J0540-6919TN-39{opacity:.7;}
            .cls-PSR-J0540-6919TN-40{fill:url(#PSR-J0540-6919TN_Unbenannter_Verlauf_290);}
            .cls-PSR-J0540-6919TN-41{fill:url(#PSR-J0540-6919TN_Unbenannter_Verlauf_195);}
            .cls-PSR-J0540-6919TN-42{fill:url(#PSR-J0540-6919TN_Unbenannter_Verlauf_193);}
            .cls-PSR-J0540-6919TN-43{fill:url(#PSR-J0540-6919TN_Unbenannter_Verlauf_110);}
            .cls-PSR-J0540-6919TN-44{fill:url(#PSR-J0540-6919TN_Unbenannter_Verlauf_19);}
        </style>
        <linearGradient id="PSR-J0540-6919TN_Unbenannter_Verlauf_195" x1="2773.45" y1="2774.01" x2="2983.51" y2="3721.54" gradientTransform="translate(1490.47 -2907.03) rotate(140.36) scale(1 -1)" gradientUnits="userSpaceOnUse">
            <stop offset="0" stop-color="#fff"/>
            <stop offset=".11" stop-color="#fff" stop-opacity=".8"/>
            <stop offset=".24" stop-color="#fff" stop-opacity=".59"/>
            <stop offset=".37" stop-color="#fff" stop-opacity=".41"/>
            <stop offset=".5" stop-color="#fff" stop-opacity=".26"/>
            <stop offset=".63" stop-color="#fff" stop-opacity=".15"/>
            <stop offset=".75" stop-color="#fff" stop-opacity=".07"/>
            <stop offset=".88" stop-color="#fff" stop-opacity=".02"/>
            <stop offset="1" stop-color="#fff" stop-opacity="0"/>
        </linearGradient>
        <linearGradient id="PSR-J0540-6919TN_Unbenannter_Verlauf_195-2" x1="2630.41" y1="2786.97" x2="2839.93" y2="3732.03" gradientTransform="translate(1733.14 -2816.99) rotate(144.62) scale(1 -1)" xlink:href="#PSR-J0540-6919TN_Unbenannter_Verlauf_195"/>
        <radialGradient id="PSR-J0540-6919TN_Unbenannter_Verlauf_19" cx="2921.48" cy="3157.39" fx="2921.48" fy="3157.39" r="14.06" gradientTransform="translate(1490.47 -2907.03) rotate(140.36) scale(1 -1)" gradientUnits="userSpaceOnUse">
            <stop offset=".3" stop-color="#fff"/>
            <stop offset="1" stop-color="#fff" stop-opacity="0"/>
        </radialGradient>
        <radialGradient id="PSR-J0540-6919TN_Unbenannter_Verlauf_19-2" cx="2828.75" cy="3327.13" fx="2828.75" fy="3327.13" r="10.54" xlink:href="#PSR-J0540-6919TN_Unbenannter_Verlauf_19"/>
        <radialGradient id="PSR-J0540-6919TN_Unbenannter_Verlauf_19-3" cx="2982.31" cy="3420.18" fx="2982.31" fy="3420.18" r="10.54" xlink:href="#PSR-J0540-6919TN_Unbenannter_Verlauf_19"/>
        <radialGradient id="PSR-J0540-6919TN_Unbenannter_Verlauf_19-4" cx="2901" cy="3208.73" fx="2901" fy="3208.73" r="10.54" xlink:href="#PSR-J0540-6919TN_Unbenannter_Verlauf_19"/>
        <linearGradient id="PSR-J0540-6919TN_Unbenannter_Verlauf_195-3" x1="4188.63" y1="2758.03" x2="4486.76" y2="4102.8" gradientTransform="translate(1202.64 -3978.63) rotate(124.52) scale(1 -1)" xlink:href="#PSR-J0540-6919TN_Unbenannter_Verlauf_195"/>
        <linearGradient id="PSR-J0540-6919TN_Unbenannter_Verlauf_110" x1="4011.44" y1="2888.13" x2="4308.79" y2="4229.38" gradientTransform="translate(1460.68 -3958.22) rotate(128.79) scale(1 -1)" gradientUnits="userSpaceOnUse">
            <stop offset="0" stop-color="#fff"/>
            <stop offset=".17" stop-color="#fff" stop-opacity=".78"/>
            <stop offset=".4" stop-color="#fff" stop-opacity=".5"/>
            <stop offset=".6" stop-color="#fff" stop-opacity=".29"/>
            <stop offset=".78" stop-color="#fff" stop-opacity=".13"/>
            <stop offset=".92" stop-color="#fff" stop-opacity=".04"/>
            <stop offset="1" stop-color="#fff" stop-opacity="0"/>
        </linearGradient>
        <radialGradient id="PSR-J0540-6919TN_Unbenannter_Verlauf_19-5" cx="4398.73" cy="3302.13" fx="4398.73" fy="3302.13" r="19.95" gradientTransform="translate(1202.64 -3978.63) rotate(124.52) scale(1 -1)" xlink:href="#PSR-J0540-6919TN_Unbenannter_Verlauf_19"/>
        <radialGradient id="PSR-J0540-6919TN_Unbenannter_Verlauf_19-6" cx="4267.12" cy="3543.03" fx="4267.12" fy="3543.03" r="14.96" gradientTransform="translate(1202.64 -3978.63) rotate(124.52) scale(1 -1)" xlink:href="#PSR-J0540-6919TN_Unbenannter_Verlauf_19"/>
        <radialGradient id="PSR-J0540-6919TN_Unbenannter_Verlauf_19-7" cx="4485.06" cy="3675.09" fx="4485.06" fy="3675.09" r="14.96" gradientTransform="translate(1202.64 -3978.63) rotate(124.52) scale(1 -1)" xlink:href="#PSR-J0540-6919TN_Unbenannter_Verlauf_19"/>
        <radialGradient id="PSR-J0540-6919TN_Unbenannter_Verlauf_19-8" cx="4369.65" cy="3374.99" fx="4369.65" fy="3374.99" r="14.96" gradientTransform="translate(1202.64 -3978.63) rotate(124.52) scale(1 -1)" xlink:href="#PSR-J0540-6919TN_Unbenannter_Verlauf_19"/>
        <linearGradient id="PSR-J0540-6919TN_Unbenannter_Verlauf_195-4" x1="4585.74" y1="2748.96" x2="4299.66" y2="1458.53" gradientTransform="translate(1000.78 -4286.75) rotate(119.38) scale(1 -1)" xlink:href="#PSR-J0540-6919TN_Unbenannter_Verlauf_195"/>
        <linearGradient id="PSR-J0540-6919TN_Unbenannter_Verlauf_110-2" x1="4610.08" y1="2873.05" x2="4324.74" y2="1585.99" gradientTransform="translate(1259.61 -4289.56) rotate(123.64) scale(1 -1)" xlink:href="#PSR-J0540-6919TN_Unbenannter_Verlauf_110"/>
        <radialGradient id="PSR-J0540-6919TN_Unbenannter_Verlauf_19-9" cx="4388.58" cy="2174.29" fx="4388.58" fy="2174.29" r="19.95" gradientTransform="translate(1000.78 -4286.75) rotate(119.38) scale(1 -1)" xlink:href="#PSR-J0540-6919TN_Unbenannter_Verlauf_19"/>
        <radialGradient id="PSR-J0540-6919TN_Unbenannter_Verlauf_19-10" cx="4576.97" cy="2456.71" fx="4576.97" fy="2456.71" r="14.96" gradientTransform="translate(1000.78 -4286.75) rotate(119.38) scale(1 -1)" xlink:href="#PSR-J0540-6919TN_Unbenannter_Verlauf_19"/>
        <radialGradient id="PSR-J0540-6919TN_Unbenannter_Verlauf_19-11" cx="4475.49" cy="2409.81" fx="4475.49" fy="2409.81" r="14.96" gradientTransform="translate(1000.78 -4286.75) rotate(119.38) scale(1 -1)" xlink:href="#PSR-J0540-6919TN_Unbenannter_Verlauf_19"/>
        <radialGradient id="PSR-J0540-6919TN_Unbenannter_Verlauf_19-12" cx="4495.44" cy="1846.54" fx="4495.44" fy="1846.54" r="11.22" gradientTransform="translate(1000.78 -4286.75) rotate(119.38) scale(1 -1)" xlink:href="#PSR-J0540-6919TN_Unbenannter_Verlauf_19"/>
        <radialGradient id="PSR-J0540-6919TN_Unbenannter_Verlauf_19-13" cx="4590.37" cy="2583.84" fx="4590.37" fy="2583.84" r="19.95" gradientTransform="translate(1000.78 -4286.75) rotate(119.38) scale(1 -1)" xlink:href="#PSR-J0540-6919TN_Unbenannter_Verlauf_19"/>
        <radialGradient id="PSR-J0540-6919TN_Unbenannter_Verlauf_19-14" cx="4552.06" cy="2521.92" fx="4552.06" fy="2521.92" r="11.22" gradientTransform="translate(1000.78 -4286.75) rotate(119.38) scale(1 -1)" xlink:href="#PSR-J0540-6919TN_Unbenannter_Verlauf_19"/>
        <linearGradient id="PSR-J0540-6919TN_Unbenannter_Verlauf_195-5" x1="2357.9" y1="2690.19" x2="2156.33" y2="1780.94" gradientTransform="translate(1626.28 -2469.19) rotate(145.83) scale(1 -1)" xlink:href="#PSR-J0540-6919TN_Unbenannter_Verlauf_195"/>
        <linearGradient id="PSR-J0540-6919TN_Unbenannter_Verlauf_195-6" x1="2364.54" y1="2647.47" x2="2163.49" y2="1740.59" gradientTransform="translate(1859.25 -2356.41) rotate(150.09) scale(1 -1)" xlink:href="#PSR-J0540-6919TN_Unbenannter_Verlauf_195"/>
        <radialGradient id="PSR-J0540-6919TN_Unbenannter_Verlauf_19-15" cx="2218.98" cy="2285.27" fx="2218.98" fy="2285.27" r="14.06" gradientTransform="translate(1626.28 -2469.19) rotate(145.83) scale(1 -1)" xlink:href="#PSR-J0540-6919TN_Unbenannter_Verlauf_19"/>
        <radialGradient id="PSR-J0540-6919TN_Unbenannter_Verlauf_19-16" cx="2351.72" cy="2484.26" fx="2351.72" fy="2484.26" r="10.54" gradientTransform="translate(1626.28 -2469.19) rotate(145.83) scale(1 -1)" xlink:href="#PSR-J0540-6919TN_Unbenannter_Verlauf_19"/>
        <radialGradient id="PSR-J0540-6919TN_Unbenannter_Verlauf_19-17" cx="2280.22" cy="2451.22" fx="2280.22" fy="2451.22" r="10.54" gradientTransform="translate(1626.28 -2469.19) rotate(145.83) scale(1 -1)" xlink:href="#PSR-J0540-6919TN_Unbenannter_Verlauf_19"/>
        <radialGradient id="PSR-J0540-6919TN_Unbenannter_Verlauf_19-18" cx="2294.28" cy="2054.34" fx="2294.28" fy="2054.34" r="7.91" gradientTransform="translate(1626.28 -2469.19) rotate(145.83) scale(1 -1)" xlink:href="#PSR-J0540-6919TN_Unbenannter_Verlauf_19"/>
        <radialGradient id="PSR-J0540-6919TN_Unbenannter_Verlauf_19-19" cx="2361.16" cy="2573.84" fx="2361.16" fy="2573.84" r="14.06" gradientTransform="translate(1626.28 -2469.19) rotate(145.83) scale(1 -1)" xlink:href="#PSR-J0540-6919TN_Unbenannter_Verlauf_19"/>
        <radialGradient id="PSR-J0540-6919TN_Unbenannter_Verlauf_19-20" cx="2334.17" cy="2530.21" fx="2334.17" fy="2530.21" r="7.91" gradientTransform="translate(1626.28 -2469.19) rotate(145.83) scale(1 -1)" xlink:href="#PSR-J0540-6919TN_Unbenannter_Verlauf_19"/>
        <linearGradient id="PSR-J0540-6919TN_Unbenannter_Verlauf_193" x1="5748.91" y1="2385.62" x2="5602.71" y2="1726.14" gradientTransform="translate(541.88 -5115.99) rotate(106.86) scale(1 -1)" gradientUnits="userSpaceOnUse">
            <stop offset="0" stop-color="#fff"/>
            <stop offset=".02" stop-color="#fff" stop-opacity=".93"/>
            <stop offset=".09" stop-color="#fff" stop-opacity=".74"/>
            <stop offset=".17" stop-color="#fff" stop-opacity=".56"/>
            <stop offset=".25" stop-color="#fff" stop-opacity=".41"/>
            <stop offset=".33" stop-color="#fff" stop-opacity=".28"/>
            <stop offset=".43" stop-color="#fff" stop-opacity=".18"/>
            <stop offset=".53" stop-color="#fff" stop-opacity=".1"/>
            <stop offset=".64" stop-color="#fff" stop-opacity=".04"/>
            <stop offset=".77" stop-color="#fff" stop-opacity="0"/>
            <stop offset="1" stop-color="#fff" stop-opacity="0"/>
        </linearGradient>
        <linearGradient id="PSR-J0540-6919TN_Unbenannter_Verlauf_193-2" x1="5750.32" y1="2594.75" x2="5604.5" y2="1937" gradientTransform="translate(793.95 -5174.82) rotate(111.12) scale(1 -1)" xlink:href="#PSR-J0540-6919TN_Unbenannter_Verlauf_193"/>
        <radialGradient id="PSR-J0540-6919TN_Unbenannter_Verlauf_19-21" cx="5648.15" cy="2091.93" fx="5648.15" fy="2091.93" r="10.2" gradientTransform="translate(541.88 -5115.99) rotate(106.86) scale(1 -1)" xlink:href="#PSR-J0540-6919TN_Unbenannter_Verlauf_19"/>
        <radialGradient id="PSR-J0540-6919TN_Unbenannter_Verlauf_19-22" cx="5744.43" cy="2236.26" fx="5744.43" fy="2236.26" r="7.65" gradientTransform="translate(541.88 -5115.99) rotate(106.86) scale(1 -1)" xlink:href="#PSR-J0540-6919TN_Unbenannter_Verlauf_19"/>
        <radialGradient id="PSR-J0540-6919TN_Unbenannter_Verlauf_19-23" cx="5692.57" cy="2212.29" fx="5692.57" fy="2212.29" r="7.65" gradientTransform="translate(541.88 -5115.99) rotate(106.86) scale(1 -1)" xlink:href="#PSR-J0540-6919TN_Unbenannter_Verlauf_19"/>
        <radialGradient id="PSR-J0540-6919TN_Unbenannter_Verlauf_19-24" cx="5702.76" cy="1924.43" fx="5702.76" fy="1924.43" r="5.74" gradientTransform="translate(541.88 -5115.99) rotate(106.86) scale(1 -1)" xlink:href="#PSR-J0540-6919TN_Unbenannter_Verlauf_19"/>
        <radialGradient id="PSR-J0540-6919TN_Unbenannter_Verlauf_19-25" cx="5751.28" cy="2301.23" fx="5751.28" fy="2301.23" r="10.2" gradientTransform="translate(541.88 -5115.99) rotate(106.86) scale(1 -1)" xlink:href="#PSR-J0540-6919TN_Unbenannter_Verlauf_19"/>
        <radialGradient id="PSR-J0540-6919TN_Unbenannter_Verlauf_19-26" cx="5731.7" cy="2269.59" fx="5731.7" fy="2269.59" r="5.74" gradientTransform="translate(541.88 -5115.99) rotate(106.86) scale(1 -1)" xlink:href="#PSR-J0540-6919TN_Unbenannter_Verlauf_19"/>
        <radialGradient id="PSR-J0540-6919TN_Unbenannter_Verlauf_290" cx="1152.61" cy="1073.19" fx="1152.61" fy="1073.19" r="392.44" gradientUnits="userSpaceOnUse">
            <stop offset=".69" stop-color="#b8e1ee"/>
            <stop offset="1" stop-color="#fff" stop-opacity="0"/>
        </radialGradient>
    </defs>
    <g id="PSR-J0540-6919">
        <g>
            <g class="PSR-J0540-6919-pulsar-bursts">
                <g>
                    <g>
                        <polygon class="cls-PSR-J0540-6919TN-41" points="1159.42 980.67 1089.74 1016.39 1438.71 1928.13 1696.02 1796.22 1159.42 980.67"/>
                        <polygon class="cls-PSR-J0540-6919TN-20" points="1160.64 1002.73 1112.31 1016.27 1490.04 1882.2 1668.52 1832.21 1160.64 1002.73"/>
                        <circle class="cls-PSR-J0540-6919TN-44" cx="1255.21" cy="1388.18" r="14.06"/>
                        <circle class="cls-PSR-J0540-6919TN-31" cx="1434.91" cy="1459.73" r="10.54"/>
                        <circle class="cls-PSR-J0540-6919TN-29" cx="1376.02" cy="1629.35" r="10.54"/>
                        <circle class="cls-PSR-J0540-6919TN-32" cx="1303.73" cy="1414.64" r="10.54"/>
                        <circle class="cls-PSR-J0540-6919TN-34" cx="1376.53" cy="1340.64" r="10.54"/>
                        <circle class="cls-PSR-J0540-6919TN-34" cx="1441.22" cy="1756.83" r="7.91"/>
                        <circle class="cls-PSR-J0540-6919TN-34" cx="1342.25" cy="1522.8" r="10.54"/>
                        <circle class="cls-PSR-J0540-6919TN-34" cx="1392.2" cy="1553.53" r="7.91"/>
                        <circle class="cls-PSR-J0540-6919TN-34" cx="1310.75" cy="1366.84" r="7.91"/>
                        <circle class="cls-PSR-J0540-6919TN-34" cx="1368.85" cy="1412.18" r="7.91"/>
                        <circle class="cls-PSR-J0540-6919TN-34" cx="1526.23" cy="1614.52" r="7.91"/>
                    </g>
                    <polygon class="cls-PSR-J0540-6919TN-18" points="1141.64 997.61 1060.33 1073.36 1889.86 2183.11 2190.1 1903.36 1141.64 997.61"/>
                    <polygon class="cls-PSR-J0540-6919TN-43" points="1151.85 1027.26 1091.1 1064.46 1942.15 2100.52 2166.49 1963.15 1151.85 1027.26"/>
                    <circle class="cls-PSR-J0540-6919TN-30" cx="1430.22" cy="1516.92" r="19.95"/>
                    <circle class="cls-PSR-J0540-6919TN-26" cx="1703.28" cy="1545.03" r="14.96"/>
                    <circle class="cls-PSR-J0540-6919TN-25" cx="1688.57" cy="1799.43" r="14.96"/>
                    <circle class="cls-PSR-J0540-6919TN-28" cx="1506.73" cy="1534.26" r="14.96"/>
                    <circle class="cls-PSR-J0540-6919TN-34" cx="1577.47" cy="1405.03" r="14.96"/>
                    <circle class="cls-PSR-J0540-6919TN-34" cx="1826.96" cy="1948.24" r="11.22"/>
                    <circle class="cls-PSR-J0540-6919TN-34" cx="1601.2" cy="1667.03" r="14.96"/>
                    <circle class="cls-PSR-J0540-6919TN-34" cx="1681.3" cy="1689.64" r="11.22"/>
                    <circle class="cls-PSR-J0540-6919TN-34" cx="1497.79" cy="1466.28" r="11.22"/>
                    <circle class="cls-PSR-J0540-6919TN-34" cx="1594.68" cy="1505.69" r="11.22"/>
                    <circle class="cls-PSR-J0540-6919TN-34" cx="1887.91" cy="1721.03" r="11.22"/>
                </g>
                <g>
                    <polygon class="cls-PSR-J0540-6919TN-19" points="1125.45 1113.64 1199.64 1030.9 273.95 0 0 305.53 1125.45 1113.64"/>
                    <polygon class="cls-PSR-J0540-6919TN-24" points="1155.18 1102.19 1212.36 1059.69 271.84 104.1 60.72 261.03 1155.18 1102.19"/>
                    <circle class="cls-PSR-J0540-6919TN-27" cx="742.36" cy="604.1" r="19.95"/>
                    <circle class="cls-PSR-J0540-6919TN-9" cx="896.02" cy="906.81" r="14.96"/>
                    <circle class="cls-PSR-J0540-6919TN-10" cx="904.94" cy="795.37" r="14.96"/>
                    <circle class="cls-PSR-J0540-6919TN-5" cx="404.33" cy="536.42" r="11.22"/>
                    <circle class="cls-PSR-J0540-6919TN-1" cx="1000.23" cy="980.86" r="19.95"/>
                    <circle class="cls-PSR-J0540-6919TN-8" cx="965.07" cy="917.1" r="11.22"/>
                    <circle class="cls-PSR-J0540-6919TN-34" cx="1041.89" cy="895.37" r="14.96"/>
                    <circle class="cls-PSR-J0540-6919TN-34" cx="756.98" cy="683.45" r="11.22"/>
                    <circle class="cls-PSR-J0540-6919TN-34" cx="761.93" cy="804.32" r="19.95"/>
                    <circle class="cls-PSR-J0540-6919TN-34" cx="989.72" cy="866" r="19.95"/>
                    <circle class="cls-PSR-J0540-6919TN-34" cx="618.9" cy="634.33" r="14.96"/>
                    <circle class="cls-PSR-J0540-6919TN-34" cx="600.27" cy="481.8" r="11.22"/>
                    <circle class="cls-PSR-J0540-6919TN-34" cx="838.96" cy="804.02" r="11.22"/>
                    <circle class="cls-PSR-J0540-6919TN-34" cx="861.43" cy="694.04" r="11.22"/>
                    <circle class="cls-PSR-J0540-6919TN-34" cx="475.1" cy="305.43" r="11.22"/>
                    <polygon class="cls-PSR-J0540-6919TN-21" points="1155.44 1109.53 1228.21 1080.62 967.83 139.74 699.11 246.5 1155.44 1109.53"/>
                    <polygon class="cls-PSR-J0540-6919TN-22" points="1177.79 1111.64 1227.2 1102.77 933.82 204.75 751.38 237.48 1177.79 1111.64"/>
                    <circle class="cls-PSR-J0540-6919TN-6" cx="1073.7" cy="667.85" r="14.06"/>
                    <circle class="cls-PSR-J0540-6919TN-2" cx="1075.63" cy="907.04" r="10.54"/>
                    <circle class="cls-PSR-J0540-6919TN-7" cx="1116.23" cy="839.54" r="10.54"/>
                    <circle class="cls-PSR-J0540-6919TN-4" cx="881.71" cy="519.06" r="7.91"/>
                    <circle class="cls-PSR-J0540-6919TN-3" cx="1118.12" cy="986.46" r="14.06"/>
                    <circle class="cls-PSR-J0540-6919TN-17" cx="1115.96" cy="935.2" r="7.91"/>
                    <circle class="cls-PSR-J0540-6919TN-34" cx="1171.23" cy="945.61" r="10.54"/>
                    <circle class="cls-PSR-J0540-6919TN-34" cx="1058.02" cy="722.5" r="7.91"/>
                    <circle class="cls-PSR-J0540-6919TN-34" cx="1023.21" cy="800.3" r="14.06"/>
                    <circle class="cls-PSR-J0540-6919TN-34" cx="1147.54" cy="910.7" r="14.06"/>
                    <circle class="cls-PSR-J0540-6919TN-34" cx="986.33" cy="648.17" r="10.54"/>
                    <circle class="cls-PSR-J0540-6919TN-34" cx="1022.46" cy="546.1" r="7.91"/>
                    <circle class="cls-PSR-J0540-6919TN-34" cx="1071.89" cy="824.28" r="7.91"/>
                    <circle class="cls-PSR-J0540-6919TN-34" cx="1120.59" cy="761.96" r="7.91"/>
                    <circle class="cls-PSR-J0540-6919TN-34" cx="998.85" cy="395.55" r="7.91"/>
                    <g>
                        <polygon class="cls-PSR-J0540-6919TN-42" points="1152.96 1107.92 1180.81 1058.42 604.8 646.63 501.96 829.41 1152.96 1107.92"/>
                        <polygon class="cls-PSR-J0540-6919TN-23" points="1166.53 1098.91 1190.34 1071.38 615.27 698.8 527.33 800.48 1166.53 1098.91"/>
                        <circle class="cls-PSR-J0540-6919TN-14" cx="905.4" cy="896.14" r="10.2"/>
                        <circle class="cls-PSR-J0540-6919TN-13" cx="1015.59" cy="1030.14" r="7.65"/>
                        <circle class="cls-PSR-J0540-6919TN-15" cx="1007.7" cy="973.56" r="7.65"/>
                        <circle class="cls-PSR-J0540-6919TN-16" cx="729.26" cy="899.81" r="5.73"/>
                        <circle class="cls-PSR-J0540-6919TN-11" cx="1075.78" cy="1055.54" r="10.2"/>
                        <circle class="cls-PSR-J0540-6919TN-12" cx="1051.18" cy="1027.63" r="5.73"/>
                        <circle class="cls-PSR-J0540-6919TN-34" cx="1087.1" cy="1008.28" r="7.65"/>
                        <circle class="cls-PSR-J0540-6919TN-34" cx="921.48" cy="934.11" r="5.73"/>
                        <circle class="cls-PSR-J0540-6919TN-34" cx="937.34" cy="993.86" r="10.2"/>
                        <circle class="cls-PSR-J0540-6919TN-34" cx="1057.81" cy="999.41" r="10.2"/>
                        <circle class="cls-PSR-J0540-6919TN-34" cx="847.15" cy="924.89" r="7.65"/>
                        <circle class="cls-PSR-J0540-6919TN-34" cx="820.96" cy="850.86" r="5.73"/>
                        <circle class="cls-PSR-J0540-6919TN-34" cx="975.73" cy="985.18" r="5.73"/>
                        <circle class="cls-PSR-J0540-6919TN-34" cx="974.77" cy="927.82" r="5.73"/>
                        <circle class="cls-PSR-J0540-6919TN-34" cx="738.98" cy="776.73" r="5.73"/>
                    </g>
                </g>
            </g>
            <g class="PSR-J0540-6919TN-pulsar-star">
                <circle class="cls-PSR-J0540-6919TN-40" cx="1152.61" cy="1073.19" r="392.44"/>
                <circle class="cls-PSR-J0540-6919TN-38" cx="1152.61" cy="1073.19" r="331.45"/>
                <circle class="cls-PSR-J0540-6919TN-33" cx="1152.61" cy="1073.19" r="308.24"/>
                <circle class="cls-PSR-J0540-6919TN-35" cx="1115.02" cy="1044.25" r="233.13"/>
                <circle class="cls-PSR-J0540-6919TN-36" cx="1089.42" cy="1013.49" r="158.61"/>
                <g class="cls-PSR-J0540-6919TN-39">
                    <circle class="cls-PSR-J0540-6919TN-34" cx="1023.59" cy="988.18" r="5.74"/>
                    <circle class="cls-PSR-J0540-6919TN-34" cx="1055.6" cy="943.98" r="5.74"/>
                    <circle class="cls-PSR-J0540-6919TN-34" cx="1049.85" cy="920.46" r="5.74"/>
                    <circle class="cls-PSR-J0540-6919TN-34" cx="1049.85" cy="988.18" r="7.01"/>
                    <circle class="cls-PSR-J0540-6919TN-34" cx="918.97" cy="1038.86" r="5.74"/>
                    <circle class="cls-PSR-J0540-6919TN-34" cx="907.48" cy="995.48" r="5.74"/>
                    <circle class="cls-PSR-J0540-6919TN-34" cx="944.03" cy="1058.7" r="8.21"/>
                    <circle class="cls-PSR-J0540-6919TN-34" cx="1069.5" cy="1336.22" r="7.01"/>
                    <circle class="cls-PSR-J0540-6919TN-34" cx="852.1" cy="1089.43" r="5.74"/>
                    <circle class="cls-PSR-J0540-6919TN-34" cx="1049.85" cy="1302.45" r="8.21"/>
                    <circle class="cls-PSR-J0540-6919TN-34" cx="945.27" cy="1241.08" r="7.01"/>
                    <circle class="cls-PSR-J0540-6919TN-34" cx="877.53" cy="1116.18" r="5.74"/>
                    <circle class="cls-PSR-J0540-6919TN-34" cx="907.84" cy="1164.77" r="7.01"/>
                    <circle class="cls-PSR-J0540-6919TN-34" cx="971.93" cy="1075.48" r="5.74"/>
                    <circle class="cls-PSR-J0540-6919TN-34" cx="938.27" cy="1175" r="7.01"/>
                    <circle class="cls-PSR-J0540-6919TN-34" cx="949.77" cy="1097.64" r="5.74"/>
                    <circle class="cls-PSR-J0540-6919TN-34" cx="1056.86" cy="1089.43" r="8.21"/>
                    <circle class="cls-PSR-J0540-6919TN-34" cx="1041.64" cy="1116.18" r="7.01"/>
                    <circle class="cls-PSR-J0540-6919TN-34" cx="1085.92" cy="899.56" r="5.74"/>
                    <circle class="cls-PSR-J0540-6919TN-34" cx="1010.84" cy="1038.86" r="7.01"/>
                    <circle class="cls-PSR-J0540-6919TN-34" cx="1196.29" cy="785.72" r="5.74"/>
                    <circle class="cls-PSR-J0540-6919TN-34" cx="1222.55" cy="808.69" r="8.21"/>
                    <circle class="cls-PSR-J0540-6919TN-34" cx="1091.67" cy="836.4" r="5.74"/>
                    <circle class="cls-PSR-J0540-6919TN-34" cx="1116.72" cy="856.24" r="8.21"/>
                    <circle class="cls-PSR-J0540-6919TN-34" cx="1130.68" cy="941.61" r="8.21"/>
                    <circle class="cls-PSR-J0540-6919TN-34" cx="1115.46" cy="963.77" r="7.01"/>
                    <circle class="cls-PSR-J0540-6919TN-34" cx="1144.63" cy="873.02" r="5.74"/>
                    <circle class="cls-PSR-J0540-6919TN-34" cx="1122.47" cy="895.18" r="5.74"/>
                    <circle class="cls-PSR-J0540-6919TN-34" cx="1214.34" cy="913.72" r="7.01"/>
                    <circle class="cls-PSR-J0540-6919TN-34" cx="1250.41" cy="906.71" r="8.21"/>
                    <circle class="cls-PSR-J0540-6919TN-34" cx="1183.54" cy="836.4" r="7.01"/>
                    <circle class="cls-PSR-J0540-6919TN-34" cx="1044.98" cy="827.25" r="7.01"/>
                    <circle class="cls-PSR-J0540-6919TN-34" cx="1000.28" cy="943.98" r="8.21"/>
                    <circle class="cls-PSR-J0540-6919TN-34" cx="1002.55" cy="913.01" r="5.74"/>
                    <circle class="cls-PSR-J0540-6919TN-34" cx="960.98" cy="867.81" r="8.21"/>
                    <circle class="cls-PSR-J0540-6919TN-34" cx="977.77" cy="846.81" r="7.01"/>
                    <circle class="cls-PSR-J0540-6919TN-34" cx="965.78" cy="914.71" r="5.74"/>
                    <circle class="cls-PSR-J0540-6919TN-34" cx="869.33" cy="1027.18" r="7.01"/>
                    <circle class="cls-PSR-J0540-6919TN-34" cx="898.49" cy="936.43" r="5.74"/>
                    <circle class="cls-PSR-J0540-6919TN-34" cx="876.33" cy="958.59" r="5.74"/>
                    <circle class="cls-PSR-J0540-6919TN-34" cx="1209.81" cy="1254.16" r="5.74"/>
                    <circle class="cls-PSR-J0540-6919TN-34" cx="1241.81" cy="1209.96" r="5.74"/>
                    <circle class="cls-PSR-J0540-6919TN-34" cx="1236.07" cy="1186.44" r="5.74"/>
                    <circle class="cls-PSR-J0540-6919TN-34" cx="1236.07" cy="1254.16" r="7.01"/>
                    <circle class="cls-PSR-J0540-6919TN-34" cx="1128.27" cy="1272.95" r="5.74"/>
                    <circle class="cls-PSR-J0540-6919TN-34" cx="1130.24" cy="1324.69" r="8.21"/>
                    <circle class="cls-PSR-J0540-6919TN-34" cx="1158.15" cy="1341.46" r="5.74"/>
                    <circle class="cls-PSR-J0540-6919TN-34" cx="1135.98" cy="1363.63" r="5.74"/>
                    <circle class="cls-PSR-J0540-6919TN-34" cx="1243.07" cy="1355.42" r="8.21"/>
                    <circle class="cls-PSR-J0540-6919TN-34" cx="1197.06" cy="1304.85" r="7.01"/>
                    <circle class="cls-PSR-J0540-6919TN-34" cx="1110.93" cy="1248.42" r="7.01"/>
                    <circle class="cls-PSR-J0540-6919TN-34" cx="1316.89" cy="1207.59" r="8.21"/>
                    <circle class="cls-PSR-J0540-6919TN-34" cx="1301.68" cy="1229.75" r="7.01"/>
                    <circle class="cls-PSR-J0540-6919TN-34" cx="1016.82" cy="1176.62" r="5.74"/>
                    <circle class="cls-PSR-J0540-6919TN-34" cx="1091.9" cy="1174.25" r="8.21"/>
                    <circle class="cls-PSR-J0540-6919TN-34" cx="1186.49" cy="1209.96" r="8.21"/>
                    <circle class="cls-PSR-J0540-6919TN-34" cx="1128.27" cy="1201.18" r="5.74"/>
                    <circle class="cls-PSR-J0540-6919TN-34" cx="1054.31" cy="1272.85" r="5.74"/>
                    <circle class="cls-PSR-J0540-6919TN-34" cx="978.45" cy="1287.38" r="5.74"/>
                    <circle class="cls-PSR-J0540-6919TN-34" cx="995.68" cy="1274.34" r="7.01"/>
                    <circle class="cls-PSR-J0540-6919TN-34" cx="1013.03" cy="1227.1" r="5.74"/>
                    <circle class="cls-PSR-J0540-6919TN-34" cx="1067.15" cy="1136.17" r="5.74"/>
                    <circle class="cls-PSR-J0540-6919TN-34" cx="964.94" cy="1156.42" r="5.74"/>
                    <circle class="cls-PSR-J0540-6919TN-34" cx="1163.36" cy="999.37" r="5.74"/>
                    <circle class="cls-PSR-J0540-6919TN-34" cx="1140.12" cy="992.58" r="5.74"/>
                    <circle class="cls-PSR-J0540-6919TN-34" cx="1161.15" cy="1129.19" r="5.74"/>
                    <circle class="cls-PSR-J0540-6919TN-34" cx="1198.85" cy="933.16" r="8.21"/>
                    <circle class="cls-PSR-J0540-6919TN-34" cx="1210.44" cy="957.42" r="7.01"/>
                    <circle class="cls-PSR-J0540-6919TN-34" cx="1135.71" cy="1047.27" r="8.21"/>
                    <circle class="cls-PSR-J0540-6919TN-34" cx="1098.99" cy="1093.3" r="5.74"/>
                    <circle class="cls-PSR-J0540-6919TN-34" cx="1385.36" cy="1262.99" r="5.74"/>
                    <circle class="cls-PSR-J0540-6919TN-34" cx="1405.63" cy="1179.34" r="8.21"/>
                    <circle class="cls-PSR-J0540-6919TN-34" cx="1431.17" cy="1196.51" r="7.01"/>
                    <circle class="cls-PSR-J0540-6919TN-34" cx="1351.76" cy="1221.45" r="7.01"/>
                    <circle class="cls-PSR-J0540-6919TN-34" cx="1350.16" cy="1121.88" r="5.74"/>
                    <circle class="cls-PSR-J0540-6919TN-34" cx="1412.64" cy="1137.62" r="5.74"/>
                    <circle class="cls-PSR-J0540-6919TN-34" cx="1381.5" cy="1141.18" r="5.74"/>
                    <circle class="cls-PSR-J0540-6919TN-34" cx="1253.03" cy="929.19" r="5.74"/>
                    <circle class="cls-PSR-J0540-6919TN-34" cx="1312.95" cy="942.63" r="8.21"/>
                    <circle class="cls-PSR-J0540-6919TN-34" cx="1311.12" cy="969.46" r="7.01"/>
                    <circle class="cls-PSR-J0540-6919TN-34" cx="1370.8" cy="876.07" r="7.01"/>
                    <circle class="cls-PSR-J0540-6919TN-34" cx="1414.98" cy="1007.31" r="5.74"/>
                    <circle class="cls-PSR-J0540-6919TN-34" cx="1370.47" cy="975.74" r="5.74"/>
                    <circle class="cls-PSR-J0540-6919TN-34" cx="1347" cy="981.72" r="5.74"/>
                    <circle class="cls-PSR-J0540-6919TN-34" cx="1414.72" cy="981.05" r="7.01"/>
                    <circle class="cls-PSR-J0540-6919TN-34" cx="1367.35" cy="900.69" r="8.21"/>
                    <circle class="cls-PSR-J0540-6919TN-34" cx="1389.66" cy="915.69" r="7.01"/>
                    <circle class="cls-PSR-J0540-6919TN-34" cx="1371.02" cy="1031.06" r="8.21"/>
                    <circle class="cls-PSR-J0540-6919TN-34" cx="1340.02" cy="1029.1" r="5.74"/>
                    <circle class="cls-PSR-J0540-6919TN-34" cx="1342.09" cy="1065.85" r="5.74"/>
                    <circle class="cls-PSR-J0540-6919TN-34" cx="1318.39" cy="914.18" r="5.74"/>
                    <circle class="cls-PSR-J0540-6919TN-34" cx="1353.79" cy="941.25" r="7.01"/>
                    <circle class="cls-PSR-J0540-6919TN-34" cx="1282.71" cy="840.65" r="5.74"/>
                    <circle class="cls-PSR-J0540-6919TN-34" cx="1260.97" cy="851.32" r="5.74"/>
                    <circle class="cls-PSR-J0540-6919TN-34" cx="1327.11" cy="836.76" r="7.01"/>
                    <circle class="cls-PSR-J0540-6919TN-34" cx="1223.26" cy="1076.2" r="5.74"/>
                    <circle class="cls-PSR-J0540-6919TN-34" cx="1193.95" cy="1087.3" r="5.74"/>
                    <circle class="cls-PSR-J0540-6919TN-34" cx="1294.95" cy="1123.83" r="8.21"/>
                    <circle class="cls-PSR-J0540-6919TN-34" cx="1270.08" cy="1141.97" r="7.01"/>
                    <circle class="cls-PSR-J0540-6919TN-34" cx="1331.76" cy="1144.68" r="5.74"/>
                    <circle class="cls-PSR-J0540-6919TN-34" cx="1315.59" cy="1035.16" r="5.74"/>
                    <circle class="cls-PSR-J0540-6919TN-34" cx="1328.72" cy="1012.42" r="7.01"/>
                    <circle class="cls-PSR-J0540-6919TN-34" cx="1265.66" cy="1033.25" r="8.21"/>
                    <circle class="cls-PSR-J0540-6919TN-34" cx="1239.97" cy="1015.8" r="5.74"/>
                    <circle class="cls-PSR-J0540-6919TN-34" cx="1223.06" cy="1048.49" r="5.74"/>
                </g>
                <path class="cls-PSR-J0540-6919TN-37" d="m1146.59,1335.48c-14.03,0-25.45-11.42-25.45-25.45s11.42-25.45,25.45-25.45,25.45,11.42,25.45,25.45-11.42,25.45-25.45,25.45Zm0-38.16c-7.01,0-12.71,5.7-12.71,12.71s5.7,12.71,12.71,12.71,12.71-5.7,12.71-12.71-5.7-12.71-12.71-12.71Z"/>
                <path class="cls-PSR-J0540-6919TN-37" d="m1392.29,960.54c-14.03,0-25.45-11.42-25.45-25.45s11.42-25.45,25.45-25.45,25.45,11.42,25.45,25.45-11.42,25.45-25.45,25.45Zm0-38.16c-7.01,0-12.71,5.7-12.71,12.71s5.7,12.71,12.71,12.71,12.71-5.7,12.71-12.71-5.7-12.71-12.71-12.71Z"/>
                <path class="cls-PSR-J0540-6919TN-35" d="m1174.5,949.29c-7,0-14.68-2.05-21.99-6.27-7.92-4.57-14.19-11.08-17.64-18.33-3.78-7.93-3.81-16.18-.08-22.64,7.46-12.92,26.94-15.18,44.34-5.13,7.92,4.57,14.19,11.08,17.64,18.33,3.78,7.93,3.81,16.18.09,22.64h0c-4.33,7.49-12.69,11.4-22.36,11.4Zm-17.42-45.81c-5.12,0-9.37,1.66-11.26,4.94-2.19,3.79-.6,8.38.55,10.78,2.32,4.87,6.89,9.53,12.52,12.78,10.65,6.15,23.24,5.93,26.94-.47h0c2.19-3.79.6-8.38-.55-10.78-2.32-4.87-6.89-9.53-12.52-12.78-5.18-2.99-10.82-4.48-15.67-4.48Z"/>
                <path class="cls-PSR-J0540-6919TN-34" d="m1043.37,1171.99c-14.03,0-25.45-11.42-25.45-25.45s11.42-25.45,25.45-25.45,25.45,11.42,25.45,25.45-11.42,25.45-25.45,25.45Zm0-38.16c-7.01,0-12.71,5.7-12.71,12.71s5.7,12.71,12.71,12.71,12.71-5.7,12.71-12.71-5.7-12.71-12.71-12.71Z"/>
                <path class="cls-PSR-J0540-6919TN-34" d="m1104.22,1111.31c-16.35,0-29.66-13.31-29.66-29.66s13.31-29.66,29.66-29.66,29.66,13.31,29.66,29.66-13.31,29.66-29.66,29.66Zm0-46.58c-9.33,0-16.92,7.59-16.92,16.92s7.59,16.92,16.92,16.92,16.92-7.59,16.92-16.92-7.59-16.92-16.92-16.92Z"/>
                <path class="cls-PSR-J0540-6919TN-34" d="m1175.14,1117.25c-8.65,0-15.69-7.04-15.69-15.69s7.04-15.69,15.69-15.69,15.69,7.04,15.69,15.69-7.04,15.69-15.69,15.69Zm0-18.65c-1.63,0-2.95,1.32-2.95,2.95s1.32,2.95,2.95,2.95,2.95-1.32,2.95-2.95-1.32-2.95-2.95-2.95Z"/>
                <path class="cls-PSR-J0540-6919TN-34" d="m1274.53,950.78c-8.65,0-15.69-7.04-15.69-15.69s7.04-15.69,15.69-15.69,15.69,7.04,15.69,15.69-7.04,15.69-15.69,15.69Zm0-18.65c-1.63,0-2.95,1.32-2.95,2.95s1.32,2.95,2.95,2.95,2.95-1.32,2.95-2.95-1.32-2.95-2.95-2.95Z"/>
                <path class="cls-PSR-J0540-6919TN-33" d="m1132.39,908.19c-11.34,0-20.57-9.23-20.57-20.57s9.23-20.57,20.57-20.57,20.57,9.23,20.57,20.57-9.23,20.57-20.57,20.57Zm0-28.4c-4.32,0-7.83,3.51-7.83,7.83s3.51,7.83,7.83,7.83,7.83-3.51,7.83-7.83-3.51-7.83-7.83-7.83Z"/>
                <path class="cls-PSR-J0540-6919TN-34" d="m1327.58,930.24c-8.29,0-17.11-2.49-25.18-7.15-19.86-11.47-28.82-31.9-20.38-46.52,8.44-14.61,30.61-17.08,50.47-5.61,9.09,5.25,16.28,12.71,20.24,21,4.34,9.09,4.39,18.15.14,25.51-4.25,7.36-12.12,11.85-22.17,12.64-1.03.08-2.08.12-3.13.12Zm-20.38-53.69c-6.38,0-11.68,2.15-14.14,6.4-4.7,8.15,2.49,21.48,15.71,29.11,6.78,3.92,14.41,5.87,20.94,5.36,3.32-.26,9.31-1.43,12.13-6.31h0c2.82-4.88.83-10.65-.6-13.66-2.82-5.9-8.32-11.54-15.11-15.45-6.32-3.65-13.08-5.46-18.93-5.46Z"/>
                <path class="cls-PSR-J0540-6919TN-34" d="m910,1201.81c-7.14,0-14.49-2.7-21.34-7.94-8.96-6.86-16.12-17.41-20.14-29.71s-4.48-25.04-1.3-35.87c3.43-11.68,10.65-19.85,20.33-23.01,9.67-3.16,20.33-.83,29.99,6.56,8.96,6.86,16.12,17.41,20.14,29.71,8.72,26.68.36,52.54-19.03,58.88h0c-2.82.92-5.72,1.38-8.65,1.38Zm-13.86-85.14c-1.6,0-3.15.24-4.64.73-5.56,1.82-9.85,6.97-12.06,14.5-2.46,8.38-2.04,18.44,1.19,28.31,3.23,9.88,8.83,18.24,15.77,23.55,6.23,4.77,12.73,6.39,18.29,4.57h0c12.18-3.98,17.16-23.59,10.87-42.81-3.23-9.88-8.83-18.24-15.77-23.55-4.57-3.49-9.28-5.3-13.66-5.3Z"/>
                <path class="cls-PSR-J0540-6919TN-34" d="m1217.27,1389.33c-10.01,0-19.56-2.06-27.62-6.04-11.71-5.78-19.02-14.9-20.58-25.68-1.56-10.78,2.87-21.59,12.47-30.45,8.95-8.26,21.49-13.9,35.33-15.9,13.84-2,27.47-.13,38.39,5.26,11.71,5.78,19.02,14.9,20.58,25.68,1.56,10.78-2.87,21.59-12.47,30.45-8.95,8.26-21.49,13.9-35.33,15.9-3.62.52-7.22.78-10.77.78Zm10.17-66.09c-2.86,0-5.79.2-8.75.63-22.1,3.19-39.05,17.81-37.01,31.92,2.04,14.11,22.43,23.34,44.53,20.15,22.1-3.19,39.05-17.81,37.01-31.92-1.76-12.22-17.3-20.78-35.78-20.78Z"/>
                <path class="cls-PSR-J0540-6919TN-38" d="m1424.06,1159.22c-10.51,0-19.07-8.55-19.07-19.07s8.55-19.07,19.07-19.07,19.07,8.55,19.07,19.07-8.55,19.07-19.07,19.07Zm0-25.39c-3.49,0-6.33,2.84-6.33,6.33s2.84,6.33,6.33,6.33,6.33-2.84,6.33-6.33-2.84-6.33-6.33-6.33Z"/>
                <path class="cls-PSR-J0540-6919TN-38" d="m958.83,1146.53c-10.51,0-19.07-8.55-19.07-19.07s8.55-19.07,19.07-19.07,19.07,8.55,19.07,19.07-8.55,19.07-19.07,19.07Zm0-25.39c-3.49,0-6.33,2.84-6.33,6.33s2.84,6.33,6.33,6.33,6.33-2.84,6.33-6.33-2.84-6.33-6.33-6.33Z"/>
                <path class="cls-PSR-J0540-6919TN-35" d="m1136.16,1402.08c-7.23,0-14.93-2.17-21.95-6.22-7.92-4.57-14.19-11.08-17.64-18.33-3.78-7.93-3.81-16.18-.08-22.64,3.73-6.46,10.89-10.56,19.65-11.25,8-.63,16.77,1.54,24.69,6.12,17.4,10.05,25.19,28.04,17.73,40.97h0c-3.73,6.46-10.89,10.56-19.65,11.25-.9.07-1.82.11-2.74.11Zm-17.32-45.8c-.58,0-1.15.02-1.71.07-2.65.21-7.42,1.12-9.61,4.92-2.19,3.79-.6,8.38.55,10.78,2.32,4.87,6.89,9.53,12.52,12.78,5.63,3.25,11.95,4.87,17.32,4.45,2.65-.21,7.42-1.12,9.61-4.92,3.69-6.4-2.41-17.41-13.07-23.56-5.04-2.91-10.63-4.52-15.61-4.52Z"/>
                <path class="cls-PSR-J0540-6919TN-38" d="m935.43,962.49c-4.9,0-9.6-1.11-13.9-3.33h0c-9.65-5-15.86-14.87-17.48-27.8-1.51-12.05,1.19-25.51,7.6-37.9,6.41-12.39,15.84-22.37,26.55-28.1,11.49-6.15,23.14-6.79,32.79-1.79,9.65,5,15.86,14.87,17.48,27.8,1.51,12.05-1.19,25.51-7.6,37.9-6.41,12.39-15.84,22.37-26.55,28.1-6.37,3.41-12.79,5.12-18.89,5.12Zm21.66-89.49c-4.03,0-8.41,1.21-12.87,3.59-8.46,4.53-16.01,12.6-21.25,22.72-5.24,10.12-7.47,20.94-6.28,30.47,1.08,8.64,4.88,15.06,10.69,18.07h0c5.81,3.01,13.24,2.4,20.92-1.71,8.46-4.53,16.01-12.6,21.25-22.72,10.23-19.77,8.21-42-4.41-48.53-2.43-1.26-5.15-1.89-8.05-1.89Z"/>
                <path class="cls-PSR-J0540-6919TN-33" d="m1312.02,994.38c-7.23,0-14.93-2.17-21.95-6.22-17.4-10.05-25.19-28.04-17.73-40.97,7.46-12.92,26.94-15.18,44.34-5.13,7.92,4.57,14.19,11.08,17.64,18.33,3.78,7.93,3.81,16.18.08,22.64-3.73,6.46-10.89,10.56-19.65,11.25-.9.07-1.82.11-2.74.11Zm-17.38-45.76c-5.12,0-9.37,1.66-11.26,4.94-3.69,6.4,2.41,17.41,13.07,23.56,5.63,3.25,11.94,4.87,17.33,4.45,2.65-.21,7.42-1.12,9.61-4.92h0c2.19-3.79.6-8.38-.55-10.78-2.32-4.87-6.89-9.53-12.52-12.78-5.18-2.99-10.82-4.48-15.67-4.48Z"/>
                <path class="cls-PSR-J0540-6919TN-37" d="m956.26,1225.66c-8.29,0-17.11-2.49-25.18-7.15-9.09-5.25-16.28-12.71-20.24-21-4.34-9.09-4.39-18.15-.14-25.51,4.25-7.36,12.12-11.85,22.17-12.64,9.16-.72,19.21,1.78,28.31,7.03,19.86,11.47,28.82,31.9,20.38,46.51h0c-4.25,7.36-12.12,11.85-22.17,12.64-1.03.08-2.08.12-3.13.12Zm-20.3-53.68c-.71,0-1.4.03-2.09.08-3.32.26-9.31,1.43-12.13,6.31-2.82,4.88-.83,10.65.6,13.66,2.82,5.9,8.32,11.54,15.11,15.45,6.78,3.92,14.41,5.87,20.94,5.36,3.32-.26,9.31-1.43,12.13-6.31,4.7-8.15-2.49-21.48-15.71-29.11-6.07-3.51-12.82-5.44-18.85-5.44Z"/>
                <path class="cls-PSR-J0540-6919TN-37" d="m1402.77,1241.96c-6.03,0-11.56-2-15.68-6.13-10.14-10.14-7.42-28.75,6.19-42.37,13.61-13.61,32.22-16.33,42.37-6.19h0c10.14,10.14,7.42,28.75-6.19,42.37-8.07,8.07-17.9,12.31-26.68,12.31Zm17.35-48.06c-5.71,0-12.86,3.6-17.84,8.58-7.22,7.22-11.54,19-6.19,24.35,5.35,5.35,17.13,1.03,24.35-6.19,7.22-7.22,11.54-19,6.19-24.35-1.66-1.66-3.94-2.39-6.51-2.39Z"/>
                <path class="cls-PSR-J0540-6919TN-37" d="m883.89,995.46c-6.2,0-11.75-2.11-15.71-6.08-10.14-10.14-7.42-28.75,6.19-42.37,13.61-13.61,32.22-16.33,42.37-6.19,10.14,10.14,7.42,28.75-6.19,42.37-6.18,6.18-13.75,10.36-21.3,11.76-1.82.34-3.61.5-5.35.5Zm17.32-48.01c-5.71,0-12.86,3.6-17.84,8.58-7.22,7.22-11.54,19-6.19,24.35,2.83,2.83,7.31,2.5,9.73,2.05,4.97-.92,10.3-3.93,14.62-8.24,7.22-7.22,11.54-19,6.19-24.35-1.66-1.66-3.94-2.39-6.51-2.39Z"/>
                <path class="cls-PSR-J0540-6919TN-35" d="m1082.13,945.58c-9.95,0-18.26-4.91-20.54-12.98-1.5-5.32-.03-11.18,4.05-16.08,3.57-4.29,8.87-7.59,14.93-9.3,13.58-3.83,26.51,1.32,29.45,11.72h0c2.94,10.4-5.4,21.55-18.97,25.39-3.04.86-6.04,1.27-8.91,1.27Zm7.28-26.88c-1.64,0-3.46.23-5.38.78-3.55,1-6.68,2.89-8.59,5.19-.64.77-2.07,2.74-1.58,4.47.72,2.56,6.43,4.98,13.73,2.92,7.29-2.06,10.9-7.1,10.17-9.66-.53-1.89-3.77-3.69-8.34-3.69Z"/>
            </g>
        </g>
    </g>
</svg>