<?xml version="1.0" encoding="UTF-8"?>
<svg id="Ebene_2" xmlns="http://www.w3.org/2000/svg" xmlns:xlink="http://www.w3.org/1999/xlink" viewBox="0 0 3815.3 3862.85">
    <defs>
        <style>
            .cls-diamond_system-1{fill:url(#diamond_system_Unbenannter_Verlauf_19-13);}
            .cls-diamond_system-2{fill:url(#diamond_system_Unbenannter_Verlauf_19-16);}
            .cls-diamond_system-3{fill:url(#diamond_system_Unbenannter_Verlauf_19-19);}
            .cls-diamond_system-4{fill:url(#diamond_system_Unbenannter_Verlauf_19-18);}
            .cls-diamond_system-5{fill:url(#diamond_system_Unbenannter_Verlauf_19-12);}
            .cls-diamond_system-6{fill:url(#diamond_system_Unbenannter_Verlauf_19-15);}
            .cls-diamond_system-7{fill:url(#diamond_system_Unbenannter_Verlauf_19-17);}
            .cls-diamond_system-8{fill:url(#diamond_system_Unbenannter_Verlauf_19-14);}
            .cls-diamond_system-9{fill:url(#diamond_system_Unbenannter_Verlauf_19-10);}
            .cls-diamond_system-10{fill:url(#diamond_system_Unbenannter_Verlauf_19-11);}
            .cls-diamond_system-11{fill:url(#diamond_system_Unbenannter_Verlauf_19-25);}
            .cls-diamond_system-12{fill:url(#diamond_system_Unbenannter_Verlauf_19-26);}
            .cls-diamond_system-13{fill:url(#diamond_system_Unbenannter_Verlauf_19-22);}
            .cls-diamond_system-14{fill:url(#diamond_system_Unbenannter_Verlauf_19-21);}
            .cls-diamond_system-15{fill:url(#diamond_system_Unbenannter_Verlauf_19-23);}
            .cls-diamond_system-16{fill:url(#diamond_system_Unbenannter_Verlauf_19-24);}
            .cls-diamond_system-17{fill:url(#diamond_system_Unbenannter_Verlauf_19-20);}
            .cls-diamond_system-18{fill:url(#diamond_system_Unbenannter_Verlauf_195-3);}
            .cls-diamond_system-19{fill:url(#diamond_system_Unbenannter_Verlauf_195-4);}
            .cls-diamond_system-20{fill:url(#diamond_system_Unbenannter_Verlauf_195-2);}
            .cls-diamond_system-21{fill:url(#diamond_system_Unbenannter_Verlauf_195-5);}
            .cls-diamond_system-22{fill:url(#diamond_system_Unbenannter_Verlauf_195-6);}
            .cls-diamond_system-23{fill:url(#diamond_system_Unbenannter_Verlauf_193-2);}
            .cls-diamond_system-24{fill:url(#diamond_system_Unbenannter_Verlauf_110-2);}
            .cls-diamond_system-25{fill:url(#diamond_system_Unbenannter_Verlauf_19-7);}
            .cls-diamond_system-26{fill:url(#diamond_system_Unbenannter_Verlauf_19-6);}
            .cls-diamond_system-27{fill:url(#diamond_system_Unbenannter_Verlauf_19-9);}
            .cls-diamond_system-28{fill:url(#diamond_system_Unbenannter_Verlauf_19-8);}
            .cls-diamond_system-29{fill:url(#diamond_system_Unbenannter_Verlauf_19-3);}
            .cls-diamond_system-30{fill:url(#diamond_system_Unbenannter_Verlauf_19-5);}
            .cls-diamond_system-31{fill:url(#diamond_system_Unbenannter_Verlauf_19-2);}
            .cls-diamond_system-32{fill:url(#diamond_system_Unbenannter_Verlauf_19-4);}
            .cls-diamond_system-33{fill:#fff;}
            .cls-diamond_system-34{fill:#7fd3d1;}
            .cls-diamond_system-35{fill:#69c6e3;}
            .cls-diamond_system-36{fill:#b8e1ee;}
            .cls-diamond_system-37{fill:#b8e0ed;}
            .cls-diamond_system-38{fill:#bdf9f7;}
            .cls-diamond_system-39{fill:#05a6c1;}
            .cls-diamond_system-40{fill:#93e2e0;}
            .cls-diamond_system-41{fill:#36bcdc;}
            .cls-diamond_system-42{opacity:.15;}
            .cls-diamond_system-43{opacity:.5;}
            .cls-diamond_system-44{opacity:.7;}
            .cls-diamond_system-45{fill:url(#diamond_system_Unbenannter_Verlauf_290);}
            .cls-diamond_system-46{fill:url(#diamond_system_Unbenannter_Verlauf_195);}
            .cls-diamond_system-47{fill:url(#diamond_system_Unbenannter_Verlauf_193);}
            .cls-diamond_system-48{fill:url(#diamond_system_Unbenannter_Verlauf_110);}
            .cls-diamond_system-49{fill:url(#diamond_system_Unbenannter_Verlauf_19);}
        </style>
        <linearGradient id="diamond_system_Unbenannter_Verlauf_195" x1="-19430.16" y1="9190.35" x2="-19223.91" y2="10120.7" gradientTransform="translate(9919.55 -18022.78) rotate(-42.61)" gradientUnits="userSpaceOnUse">
            <stop offset="0" stop-color="#fff"/>
            <stop offset=".11" stop-color="#fff" stop-opacity=".8"/>
            <stop offset=".24" stop-color="#fff" stop-opacity=".59"/>
            <stop offset=".37" stop-color="#fff" stop-opacity=".41"/>
            <stop offset=".5" stop-color="#fff" stop-opacity=".26"/>
            <stop offset=".63" stop-color="#fff" stop-opacity=".15"/>
            <stop offset=".75" stop-color="#fff" stop-opacity=".07"/>
            <stop offset=".88" stop-color="#fff" stop-opacity=".02"/>
            <stop offset="1" stop-color="#fff" stop-opacity="0"/>
        </linearGradient>
        <linearGradient id="diamond_system_Unbenannter_Verlauf_195-2" x1="-20592.01" y1="8360.18" x2="-20386.3" y2="9288.1" gradientTransform="translate(9787.49 -18775.52) rotate(-46.87)" xlink:href="#diamond_system_Unbenannter_Verlauf_195"/>
        <radialGradient id="diamond_system_Unbenannter_Verlauf_19" cx="-19284.81" cy="9566.77" fx="-19284.81" fy="9566.77" r="13.8" gradientTransform="translate(9919.55 -18022.78) rotate(-42.61)" gradientUnits="userSpaceOnUse">
            <stop offset=".3" stop-color="#fff"/>
            <stop offset="1" stop-color="#fff" stop-opacity="0"/>
        </radialGradient>
        <radialGradient id="diamond_system_Unbenannter_Verlauf_19-2" cx="-19375.86" cy="9733.44" fx="-19375.86" fy="9733.44" r="10.35" xlink:href="#diamond_system_Unbenannter_Verlauf_19"/>
        <radialGradient id="diamond_system_Unbenannter_Verlauf_19-3" cx="-19225.09" cy="9824.8" fx="-19225.09" fy="9824.8" r="10.35" xlink:href="#diamond_system_Unbenannter_Verlauf_19"/>
        <radialGradient id="diamond_system_Unbenannter_Verlauf_19-4" cx="-19304.93" cy="9617.18" fx="-19304.93" fy="9617.18" r="10.35" xlink:href="#diamond_system_Unbenannter_Verlauf_19"/>
        <linearGradient id="diamond_system_Unbenannter_Verlauf_195-3" x1="-13749.65" y1="11588.79" x2="-13456.93" y2="12909.17" gradientTransform="translate(8934.57 -14663.19) rotate(-26.78)" xlink:href="#diamond_system_Unbenannter_Verlauf_195"/>
        <linearGradient id="diamond_system_Unbenannter_Verlauf_110" x1="-15136.27" y1="11185.79" x2="-14844.32" y2="12502.72" gradientTransform="translate(9012.9 -15423.4) rotate(-31.04)" gradientUnits="userSpaceOnUse">
            <stop offset="0" stop-color="#fff"/>
            <stop offset=".17" stop-color="#fff" stop-opacity=".78"/>
            <stop offset=".4" stop-color="#fff" stop-opacity=".5"/>
            <stop offset=".6" stop-color="#fff" stop-opacity=".29"/>
            <stop offset=".78" stop-color="#fff" stop-opacity=".13"/>
            <stop offset=".92" stop-color="#fff" stop-opacity=".04"/>
            <stop offset="1" stop-color="#fff" stop-opacity="0"/>
        </linearGradient>
        <radialGradient id="diamond_system_Unbenannter_Verlauf_19-5" cx="-13543.37" cy="12123.02" fx="-13543.37" fy="12123.02" r="19.59" gradientTransform="translate(8934.57 -14663.19) rotate(-26.78)" xlink:href="#diamond_system_Unbenannter_Verlauf_19"/>
        <radialGradient id="diamond_system_Unbenannter_Verlauf_19-6" cx="-13672.58" cy="12359.55" fx="-13672.58" fy="12359.55" r="14.69" gradientTransform="translate(8934.57 -14663.19) rotate(-26.78)" xlink:href="#diamond_system_Unbenannter_Verlauf_19"/>
        <radialGradient id="diamond_system_Unbenannter_Verlauf_19-7" cx="-13458.6" cy="12489.22" fx="-13458.6" fy="12489.22" r="14.69" gradientTransform="translate(8934.57 -14663.19) rotate(-26.78)" xlink:href="#diamond_system_Unbenannter_Verlauf_19"/>
        <radialGradient id="diamond_system_Unbenannter_Verlauf_19-8" cx="-13571.91" cy="12194.56" fx="-13571.91" fy="12194.56" r="14.69" gradientTransform="translate(8934.57 -14663.19) rotate(-26.78)" xlink:href="#diamond_system_Unbenannter_Verlauf_19"/>
        <linearGradient id="diamond_system_Unbenannter_Verlauf_195-4" x1="-11842.6" y1="12099.35" x2="-12123.49" y2="10832.31" gradientTransform="translate(8443.93 -13688.56) rotate(-21.63)" xlink:href="#diamond_system_Unbenannter_Verlauf_195"/>
        <linearGradient id="diamond_system_Unbenannter_Verlauf_110-2" x1="-13074.14" y1="11801.74" x2="-13354.3" y2="10538.01" gradientTransform="translate(8590.1 -14438.69) rotate(-25.89)" xlink:href="#diamond_system_Unbenannter_Verlauf_110"/>
        <radialGradient id="diamond_system_Unbenannter_Verlauf_19-9" cx="-12036.18" cy="11535.1" fx="-12036.18" fy="11535.1" r="19.59" gradientTransform="translate(8443.93 -13688.56) rotate(-21.63)" xlink:href="#diamond_system_Unbenannter_Verlauf_19"/>
        <radialGradient id="diamond_system_Unbenannter_Verlauf_19-10" cx="-11851.21" cy="11812.39" fx="-11851.21" fy="11812.39" r="14.69" gradientTransform="translate(8443.93 -13688.56) rotate(-21.63)" xlink:href="#diamond_system_Unbenannter_Verlauf_19"/>
        <radialGradient id="diamond_system_Unbenannter_Verlauf_19-11" cx="-11950.85" cy="11766.34" fx="-11950.85" fy="11766.34" r="14.69" gradientTransform="translate(8443.93 -13688.56) rotate(-21.63)" xlink:href="#diamond_system_Unbenannter_Verlauf_19"/>
        <radialGradient id="diamond_system_Unbenannter_Verlauf_19-12" cx="-11931.26" cy="11213.29" fx="-11931.26" fy="11213.29" r="11.02" gradientTransform="translate(8443.93 -13688.56) rotate(-21.63)" xlink:href="#diamond_system_Unbenannter_Verlauf_19"/>
        <radialGradient id="diamond_system_Unbenannter_Verlauf_19-13" cx="-11838.05" cy="11937.22" fx="-11838.05" fy="11937.22" r="19.59" gradientTransform="translate(8443.93 -13688.56) rotate(-21.63)" xlink:href="#diamond_system_Unbenannter_Verlauf_19"/>
        <radialGradient id="diamond_system_Unbenannter_Verlauf_19-14" cx="-11875.67" cy="11876.42" fx="-11875.67" fy="11876.42" r="11.02" gradientTransform="translate(8443.93 -13688.56) rotate(-21.63)" xlink:href="#diamond_system_Unbenannter_Verlauf_19"/>
        <linearGradient id="diamond_system_Unbenannter_Verlauf_195-5" x1="-21144.78" y1="8008.25" x2="-21342.7" y2="7115.49" gradientTransform="translate(10079.15 -19118.19) rotate(-48.08)" xlink:href="#diamond_system_Unbenannter_Verlauf_195"/>
        <linearGradient id="diamond_system_Unbenannter_Verlauf_195-6" x1="-22074.34" y1="7029.36" x2="-22271.74" y2="6138.93" gradientTransform="translate(9875.87 -19854.89) rotate(-52.35)" xlink:href="#diamond_system_Unbenannter_Verlauf_195"/>
        <radialGradient id="diamond_system_Unbenannter_Verlauf_19-15" cx="-21281.18" cy="7610.68" fx="-21281.18" fy="7610.68" r="13.8" gradientTransform="translate(10079.15 -19118.19) rotate(-48.08)" xlink:href="#diamond_system_Unbenannter_Verlauf_19"/>
        <radialGradient id="diamond_system_Unbenannter_Verlauf_19-16" cx="-21150.85" cy="7806.06" fx="-21150.85" fy="7806.06" r="10.35" gradientTransform="translate(10079.15 -19118.19) rotate(-48.08)" xlink:href="#diamond_system_Unbenannter_Verlauf_19"/>
        <radialGradient id="diamond_system_Unbenannter_Verlauf_19-17" cx="-21221.06" cy="7773.61" fx="-21221.06" fy="7773.61" r="10.35" gradientTransform="translate(10079.15 -19118.19) rotate(-48.08)" xlink:href="#diamond_system_Unbenannter_Verlauf_19"/>
        <radialGradient id="diamond_system_Unbenannter_Verlauf_19-18" cx="-21207.25" cy="7383.93" fx="-21207.25" fy="7383.93" r="7.76" gradientTransform="translate(10079.15 -19118.19) rotate(-48.08)" xlink:href="#diamond_system_Unbenannter_Verlauf_19"/>
        <radialGradient id="diamond_system_Unbenannter_Verlauf_19-19" cx="-21141.58" cy="7894.01" fx="-21141.58" fy="7894.01" r="13.8" gradientTransform="translate(10079.15 -19118.19) rotate(-48.08)" xlink:href="#diamond_system_Unbenannter_Verlauf_19"/>
        <radialGradient id="diamond_system_Unbenannter_Verlauf_19-20" cx="-21168.08" cy="7851.18" fx="-21168.08" fy="7851.18" r="7.76" gradientTransform="translate(10079.15 -19118.19) rotate(-48.08)" xlink:href="#diamond_system_Unbenannter_Verlauf_19"/>
        <linearGradient id="diamond_system_Unbenannter_Verlauf_193" x1="-6861.12" y1="12422.23" x2="-7004.67" y2="11774.71" gradientTransform="translate(6720.31 -11414.76) rotate(-9.11)" gradientUnits="userSpaceOnUse">
            <stop offset="0" stop-color="#fff"/>
            <stop offset=".02" stop-color="#fff" stop-opacity=".93"/>
            <stop offset=".09" stop-color="#fff" stop-opacity=".74"/>
            <stop offset=".17" stop-color="#fff" stop-opacity=".56"/>
            <stop offset=".25" stop-color="#fff" stop-opacity=".41"/>
            <stop offset=".33" stop-color="#fff" stop-opacity=".28"/>
            <stop offset=".43" stop-color="#fff" stop-opacity=".18"/>
            <stop offset=".53" stop-color="#fff" stop-opacity=".1"/>
            <stop offset=".64" stop-color="#fff" stop-opacity=".04"/>
            <stop offset=".77" stop-color="#fff" stop-opacity="0"/>
            <stop offset="1" stop-color="#fff" stop-opacity="0"/>
        </linearGradient>
        <linearGradient id="diamond_system_Unbenannter_Verlauf_193-2" x1="-8176.29" y1="12491.53" x2="-8319.47" y2="11845.7" gradientTransform="translate(7025.59 -12115.38) rotate(-13.38)" xlink:href="#diamond_system_Unbenannter_Verlauf_193"/>
        <radialGradient id="diamond_system_Unbenannter_Verlauf_19-21" cx="-6960.05" cy="12133.87" fx="-6960.05" fy="12133.87" r="10.01" gradientTransform="translate(6720.31 -11414.76) rotate(-9.11)" xlink:href="#diamond_system_Unbenannter_Verlauf_19"/>
        <radialGradient id="diamond_system_Unbenannter_Verlauf_19-22" cx="-6865.52" cy="12275.58" fx="-6865.52" fy="12275.58" r="7.51" gradientTransform="translate(6720.31 -11414.76) rotate(-9.11)" xlink:href="#diamond_system_Unbenannter_Verlauf_19"/>
        <radialGradient id="diamond_system_Unbenannter_Verlauf_19-23" cx="-6916.44" cy="12252.05" fx="-6916.44" fy="12252.05" r="7.51" gradientTransform="translate(6720.31 -11414.76) rotate(-9.11)" xlink:href="#diamond_system_Unbenannter_Verlauf_19"/>
        <radialGradient id="diamond_system_Unbenannter_Verlauf_19-24" cx="-6906.43" cy="11969.41" fx="-6906.43" fy="11969.41" r="5.63" gradientTransform="translate(6720.31 -11414.76) rotate(-9.11)" xlink:href="#diamond_system_Unbenannter_Verlauf_19"/>
        <radialGradient id="diamond_system_Unbenannter_Verlauf_19-25" cx="-6858.8" cy="12339.38" fx="-6858.8" fy="12339.38" r="10.01" gradientTransform="translate(6720.31 -11414.76) rotate(-9.11)" xlink:href="#diamond_system_Unbenannter_Verlauf_19"/>
        <radialGradient id="diamond_system_Unbenannter_Verlauf_19-26" cx="-6878.02" cy="12308.31" fx="-6878.02" fy="12308.31" r="5.63" gradientTransform="translate(6720.31 -11414.76) rotate(-9.11)" xlink:href="#diamond_system_Unbenannter_Verlauf_19"/>
        <radialGradient id="diamond_system_Unbenannter_Verlauf_290" cx="7106.32" cy="-2663.5" fx="7106.32" fy="-2663.5" r="397.09" gradientTransform="translate(5504.98 -4750.88) rotate(97.75) scale(1 -1)" gradientUnits="userSpaceOnUse">
            <stop offset=".69" stop-color="#b8e1ee"/>
            <stop offset="1" stop-color="#fff" stop-opacity="0"/>
        </radialGradient>
    </defs>
    <g id="PSR_J1719-1438_diamond_system">
        <g>
            <path class="cls-diamond_system-33" d="m1319.49,2426.79c-31.3,0-53.19-7.93-64.58-23.93-28.8-40.44,13.05-127.46,117.82-245.01,104.63-117.39,259.52-251.31,436.14-377.08,176.62-125.77,353.83-228.35,498.98-288.83,145.36-60.57,241.28-71.66,270.07-31.21,28.8,40.44-13.05,127.46-117.82,245.01-104.63,117.39-259.52,251.31-436.14,377.08-176.62,125.77-353.83,228.35-498.98,288.83-87.86,36.61-157.67,55.14-205.5,55.14Zm1194.19-988.94c-9.1,0-19.03.67-29.79,2.02-46.03,5.77-105.12,23.6-175.64,52.98-145.09,60.46-322.23,163-498.79,288.72s-331.39,259.59-435.97,376.93c-50.83,57.04-87.01,107.05-107.51,148.66-21.16,42.94-24.61,74.94-10.25,95.11,11.31,15.88,33.15,23.44,63.58,23.44,128.25.02,409.64-134.05,704.09-343.72,364.31-259.43,612.71-537.88,553.73-620.7-11.11-15.6-32.39-23.45-63.44-23.45Z"/>
            <g class="diamond_system-planet">
                <circle class="cls-diamond_system-40" cx="1270.63" cy="2377.6" r="66.34"/>
                <g>
                    <path class="cls-diamond_system-38" d="m1220.42,2420.97c-2.28-2.63-4.32-5.41-6.12-8.3,0,0,27.17-22.61,45.37-44.28,18.2-21.67,35.79-52.33,35.79-52.33,3.34,1.35,6.6,2.98,9.74,4.91,0,0-19.44,32.38-37.64,54.05-18.2,21.67-47.14,45.95-47.14,45.95Z"/>
                    <path class="cls-diamond_system-38" d="m1259.1,2442.94c-9.06-1.59-17.88-5.08-25.85-10.53,0,0,28.91-25.19,47.03-46.76,18.12-21.57,37.95-54.26,37.95-54.26,6.65,6.83,11.56,14.81,14.68,23.34,0,0-14.41,26.14-32.61,47.8-18.2,21.66-41.2,40.41-41.2,40.41Z"/>
                    <path class="cls-diamond_system-38" d="m1278.76,2443.44c16.06-1.98,31.43-9.8,42.66-23.17,11.23-13.36,16.28-29.86,15.46-46.02,0,0-6.09,16.95-24.29,38.61-18.2,21.66-33.84,30.57-33.84,30.57Z"/>
                    <path class="cls-diamond_system-38" d="m1204.94,2386.86c-2.53-17.98,2.3-36.93,14.9-51.93,12.6-15,30.43-23.02,48.58-23.63,0,0-9.01,19.91-27.21,41.58-18.2,21.67-36.27,33.97-36.27,33.97Z"/>
                </g>
                <g>
                    <path class="cls-diamond_system-34" d="m1247.16,2315.41s11.21-4,19.87-4.05h0c-14.64,28.97-36.03,53.99-62.38,72.94l-.06.04s-1.25-8.98,1.11-20.46h0c19.07-10.64,33.73-27.72,41.36-48.19l.11-.28Z"/>
                    <path class="cls-diamond_system-34" d="m1272.02,2311.16s10.56.1,21.13,4v.03c-20.79,36.21-48.17,68.21-80.74,94.34h0s-4.91-8.1-7.11-20.31h0c27.75-20.58,50.51-47.15,66.56-77.75l.16-.3Z"/>
                    <path class="cls-diamond_system-34" d="m1321.22,2334.69s4.2,4.97,6.28,8.71h0c-21.16,36.67-48.91,69.1-81.85,95.68h0s-4.91-1.86-9.6-4.89l.03-.03c34.05-27.85,62.88-61.52,85.15-99.46h0Z"/>
                    <path class="cls-diamond_system-34" d="m1329.3,2346.56s1.11,2.01,1.72,3.58h0c-19.92,35.21-46.47,66.24-78.17,91.38l-.05.04s-1.73-.47-3.85-1.22l.02-.02c32.43-25.93,59.68-57.74,80.33-93.76h0Z"/>
                    <path class="cls-diamond_system-34" d="m1335.28,2362.75s.49,2.3.6,2.97h0c-16.15,30.77-39.03,57.5-66.92,78.22h0s-1.85-.01-2.94-.16h0c28.68-21.65,52.3-49.27,69.24-80.97l.03-.06Z"/>
                    <path class="cls-diamond_system-34" d="m1336.87,2381.69s-.05,20.57-15.85,39.03-36.06,21.64-36.06,21.64h0c22.75-14.81,40.76-35.86,51.88-60.63l.02-.05Z"/>
                </g>
                <path class="cls-diamond_system-42" d="m1225.77,2328.72c-25.4,23.27-28.88,62.56-7.17,90.01,21.63,27.35,60.47,33.09,88.94,13.98,0,0-32.82-3.93-56.82-33.75-24-29.82-24.95-70.25-24.95-70.25Z"/>
            </g>
            <g class="diamond_system-neutron-star">
                <g class="diamond_system-pulsar-rays">
                    <g class="cls-diamond_system-43">
                        <polygon class="cls-diamond_system-36" points="1907.71 1931.47 1836.24 2002.06 918.12 1001.03 0 0 989.59 930.44 1979.17 1860.89 1907.71 1931.47"/>
                        <polygon class="cls-diamond_system-36" points="1907.59 1931.37 1979.06 1860.78 2897.18 2861.82 3815.3 3862.85 2825.71 2932.41 1836.13 2001.96 1907.59 1931.37"/>
                    </g>
                    <g class="cls-diamond_system-43">
                        <polygon class="cls-diamond_system-35" points="1907.69 1931.46 1856.09 1982.42 1193.27 1259.73 530.44 537.05 1244.86 1208.77 1959.29 1880.5 1907.69 1931.46"/>
                        <polygon class="cls-diamond_system-35" points="1907.61 1931.39 1959.21 1880.43 2622.04 2603.11 3284.86 3325.8 2570.44 2654.07 1856.01 1982.35 1907.61 1931.39"/>
                    </g>
                    <g>
                        <polygon class="cls-diamond_system-36" points="1907.68 1931.45 1866.12 1972.51 1332.19 1390.35 798.25 808.2 1373.75 1349.3 1949.25 1890.4 1907.68 1931.45"/>
                        <polygon class="cls-diamond_system-36" points="1907.62 1931.39 1949.18 1890.34 2483.11 2472.49 3017.05 3054.65 2441.55 2513.55 1866.06 1972.45 1907.62 1931.39"/>
                    </g>
                    <g>
                        <polygon class="cls-diamond_system-33" points="1907.67 1931.45 1877.7 1961.05 1492.71 1541.28 1107.71 1121.52 1522.68 1511.68 1937.64 1901.84 1907.67 1931.45"/>
                        <polygon class="cls-diamond_system-33" points="1907.63 1931.4 1937.6 1901.8 2322.59 2321.57 2707.59 2741.33 2292.62 2351.17 1877.66 1961 1907.63 1931.4"/>
                    </g>
                </g>
                <g class="diamond_system-pulsar-bursts">
                    <g>
                        <g>
                            <polygon class="cls-diamond_system-46" points="1818.84 1926.75 1862.81 1863.69 2703.65 2323.91 2541.25 2556.78 1818.84 1926.75"/>
                            <polygon class="cls-diamond_system-20" points="1840.14 1930.86 1859.71 1885.63 2652.17 2367.76 2579.9 2534.79 1840.14 1930.86"/>
                            <circle class="cls-diamond_system-49" cx="2202.62" cy="2073.89" r="13.8"/>
                            <circle class="cls-diamond_system-31" cx="2248.44" cy="2258.19" r="10.35"/>
                            <circle class="cls-diamond_system-29" cx="2421.26" cy="2223.36" r="10.35"/>
                            <circle class="cls-diamond_system-32" cx="2221.94" cy="2124.61" r="10.35"/>
                            <circle class="cls-diamond_system-33" cx="2140.3" cy="2185.64" r="10.35"/>
                            <circle class="cls-diamond_system-33" cx="2536.65" cy="2303.67" r="7.76"/>
                            <circle class="cls-diamond_system-33" cx="2322.07" cy="2176.4" r="10.35"/>
                            <circle class="cls-diamond_system-33" cx="2345.35" cy="2229.07" r="7.76"/>
                            <circle class="cls-diamond_system-33" cx="2174.51" cy="2125.1" r="7.76"/>
                            <circle class="cls-diamond_system-33" cx="2210.93" cy="2187.63" r="7.76"/>
                            <circle class="cls-diamond_system-33" cx="2386.95" cy="2367.53" r="7.76"/>
                        </g>
                        <polygon class="cls-diamond_system-18" points="1837.67 1911.7 1922.14 1842.62 2891.99 2796.59 2580.08 3051.66 1837.67 1911.7"/>
                        <polygon class="cls-diamond_system-48" points="1865.16 1925.56 1909.4 1871.38 2804.72 2836.53 2641.37 3036.6 1865.16 1925.56"/>
                        <circle class="cls-diamond_system-30" cx="2304.71" cy="2261.21" r="19.59"/>
                        <circle class="cls-diamond_system-26" cx="2295.9" cy="2530.59" r="14.69"/>
                        <circle class="cls-diamond_system-25" cx="2545.35" cy="2549.95" r="14.69"/>
                        <circle class="cls-diamond_system-28" cx="2311.45" cy="2337.94" r="14.69"/>
                        <circle class="cls-diamond_system-33" cx="2176.35" cy="2389.65" r="14.69"/>
                        <circle class="cls-diamond_system-33" cx="2671.82" cy="2704.29" r="11.02"/>
                        <circle class="cls-diamond_system-33" cx="2428.11" cy="2447.42" r="14.69"/>
                        <circle class="cls-diamond_system-33" cx="2439.51" cy="2528.35" r="11.02"/>
                        <circle class="cls-diamond_system-33" cx="2246.49" cy="2320.24" r="11.02"/>
                        <circle class="cls-diamond_system-33" cx="2272" cy="2419.72" r="11.02"/>
                        <circle class="cls-diamond_system-33" cx="2442.69" cy="2733.52" r="11.02"/>
                    </g>
                    <g>
                        <polygon class="cls-diamond_system-19" points="1952.7 1911.31 1862.38 1972.53 981.96 935.46 1315.49 709.38 1952.7 1911.31"/>
                        <polygon class="cls-diamond_system-24" points="1937.62 1938.72 1888.71 1988.72 1083.52 947.18 1264.15 762.56 1937.62 1938.72"/>
                        <circle class="cls-diamond_system-27" cx="1507.68" cy="1471.14" r="19.59"/>
                        <circle class="cls-diamond_system-9" cx="1781.85" cy="1660.71" r="14.69"/>
                        <circle class="cls-diamond_system-10" cx="1672.25" cy="1654.64" r="14.69"/>
                        <circle class="cls-diamond_system-5" cx="1486.59" cy="1133.32" r="11.02"/>
                        <circle class="cls-diamond_system-1" cx="1840.09" cy="1771.9" r="19.59"/>
                        <circle class="cls-diamond_system-8" cx="1782.72" cy="1729.26" r="11.02"/>
                        <circle class="cls-diamond_system-33" cx="1751.41" cy="1801.11" r="14.69"/>
                        <circle class="cls-diamond_system-33" cx="1582.95" cy="1495.87" r="11.02"/>
                        <circle class="cls-diamond_system-33" cx="1699.89" cy="1516.69" r="19.59"/>
                        <circle class="cls-diamond_system-33" cx="1729.74" cy="1746.47" r="19.59"/>
                        <circle class="cls-diamond_system-33" cx="1553.43" cy="1355.03" r="14.69"/>
                        <circle class="cls-diamond_system-33" cx="1407.51" cy="1316.71" r="11.02"/>
                        <circle class="cls-diamond_system-33" cx="1689.4" cy="1591.59" r="11.02"/>
                        <circle class="cls-diamond_system-33" cx="1579.42" cy="1598.9" r="11.02"/>
                        <circle class="cls-diamond_system-33" cx="1252.49" cy="1171.58" r="11.02"/>
                        <polygon class="cls-diamond_system-21" points="1944.73 1939.94 1906.97 2006.91 1026.06 1629.03 1165.5 1381.72 1944.73 1939.94"/>
                        <polygon class="cls-diamond_system-22" points="1943.82 1961.97 1928.66 2008.86 1093.81 1604.55 1149.81 1431.39 1943.82 1961.97"/>
                        <circle class="cls-diamond_system-6" cx="1525.84" cy="1801.95" r="13.8"/>
                        <circle class="cls-diamond_system-2" cx="1758.29" cy="1835.48" r="10.35"/>
                        <circle class="cls-diamond_system-7" cx="1687.25" cy="1866.05" r="10.35"/>
                        <circle class="cls-diamond_system-4" cx="1406.5" cy="1595.46" r="7.76"/>
                        <circle class="cls-diamond_system-3" cx="1829.94" cy="1887.34" r="13.8"/>
                        <circle class="cls-diamond_system-17" cx="1780.35" cy="1878.45" r="7.76"/>
                        <circle class="cls-diamond_system-33" cx="1783.16" cy="1933.61" r="10.35"/>
                        <circle class="cls-diamond_system-33" cx="1581.08" cy="1793.92" r="7.76"/>
                        <circle class="cls-diamond_system-33" cx="1661.39" cy="1770.35" r="13.8"/>
                        <circle class="cls-diamond_system-33" cx="1752.34" cy="1905.94" r="13.8"/>
                        <circle class="cls-diamond_system-33" cx="1518.26" cy="1714.34" r="10.35"/>
                        <circle class="cls-diamond_system-33" cx="1414.17" cy="1735.97" r="7.76"/>
                        <circle class="cls-diamond_system-33" cx="1678.28" cy="1820.89" r="7.76"/>
                        <circle class="cls-diamond_system-33" cx="1611.2" cy="1860.02" r="7.76"/>
                        <circle class="cls-diamond_system-33" cx="1270.83" cy="1693.07" r="7.76"/>
                        <g>
                            <polygon class="cls-diamond_system-47" points="1943.49 1937.32 1891.65 1957.86 1567.27 1342.94 1758.71 1267.09 1943.49 1937.32"/>
                            <polygon class="cls-diamond_system-23" points="1932.93 1949.32 1902.99 1968.85 1616.64 1360.04 1727.21 1287.94 1932.93 1949.32"/>
                            <circle class="cls-diamond_system-14" cx="1770.23" cy="1668.42" r="10.01"/>
                            <circle class="cls-diamond_system-13" cx="1886.01" cy="1793.37" r="7.51"/>
                            <circle class="cls-diamond_system-15" cx="1832" cy="1778.2" r="7.51"/>
                            <circle class="cls-diamond_system-16" cx="1797.12" cy="1497.55" r="5.63"/>
                            <circle class="cls-diamond_system-11" cx="1902.75" cy="1855.29" r="10.01"/>
                            <circle class="cls-diamond_system-12" cx="1878.85" cy="1827.66" r="5.63"/>
                            <circle class="cls-diamond_system-33" cx="1855.27" cy="1860.05" r="7.51"/>
                            <circle class="cls-diamond_system-33" cx="1805.04" cy="1689.1" r="5.63"/>
                            <circle class="cls-diamond_system-33" cx="1861.07" cy="1712.44" r="10.01"/>
                            <circle class="cls-diamond_system-33" cx="1850.51" cy="1830.38" r="10.01"/>
                            <circle class="cls-diamond_system-33" cx="1805.91" cy="1615.56" r="7.51"/>
                            <circle class="cls-diamond_system-33" cx="1737.35" cy="1580.28" r="5.63"/>
                            <circle class="cls-diamond_system-33" cx="1847.54" cy="1748.64" r="5.63"/>
                            <circle class="cls-diamond_system-33" cx="1791.87" cy="1740.11" r="5.63"/>
                            <circle class="cls-diamond_system-33" cx="1676.09" cy="1490.71" r="5.63"/>
                        </g>
                    </g>
                </g>
                <g class="diamond_system-star">
                    <circle class="cls-diamond_system-45" cx="1907.65" cy="1931.42" r="397.09"/>
                    <g>
                        <circle class="cls-diamond_system-35" cx="1907.65" cy="1931.42" r="335.37"/>
                        <circle class="cls-diamond_system-36" cx="1907.65" cy="1931.42" r="311.89"/>
                        <circle class="cls-diamond_system-35" cx="1883.76" cy="1889.78" r="235.89"/>
                        <circle class="cls-diamond_system-41" cx="1856.42" cy="1859.92" r="160.49"/>
                        <g class="cls-diamond_system-44">
                            <circle class="cls-diamond_system-33" cx="1840.02" cy="1790.47" r="5.81"/>
                            <circle class="cls-diamond_system-33" cx="1791.34" cy="1816.53" r="5.81"/>
                            <circle class="cls-diamond_system-33" cx="1768.54" cy="1807.56" r="5.81"/>
                            <circle class="cls-diamond_system-33" cx="1836.44" cy="1816.8" r="7.09"/>
                            <circle class="cls-diamond_system-33" cx="1905.11" cy="1692.49" r="5.81"/>
                            <circle class="cls-diamond_system-33" cx="1863.18" cy="1675.06" r="5.81"/>
                            <circle class="cls-diamond_system-33" cx="1921.58" cy="1720.32" r="8.31"/>
                            <circle class="cls-diamond_system-33" cx="2182.7" cy="1883.98" r="7.09"/>
                            <circle class="cls-diamond_system-33" cx="1964.93" cy="1632.35" r="5.81"/>
                            <circle class="cls-diamond_system-33" cx="2151.52" cy="1859.68" r="8.31"/>
                            <circle class="cls-diamond_system-33" cx="2104.26" cy="1746.45" r="7.09"/>
                            <circle class="cls-diamond_system-33" cx="1988.28" cy="1661.5" r="5.81"/>
                            <circle class="cls-diamond_system-33" cx="2032.86" cy="1698.51" r="7.09"/>
                            <circle class="cls-diamond_system-33" cx="1934.59" cy="1750.59" r="5.81"/>
                            <circle class="cls-diamond_system-33" cx="2038.97" cy="1730.42" r="7.09"/>
                            <circle class="cls-diamond_system-33" cx="1959.84" cy="1731.39" r="5.81"/>
                            <circle class="cls-diamond_system-33" cx="1937" cy="1837.64" r="8.31"/>
                            <circle class="cls-diamond_system-33" cx="1965.89" cy="1826.03" r="7.09"/>
                            <circle class="cls-diamond_system-33" cx="1742.67" cy="1840.87" r="5.81"/>
                            <circle class="cls-diamond_system-33" cx="1892.57" cy="1784.6" r="7.09"/>
                            <circle class="cls-diamond_system-33" cx="1613.47" cy="1936" r="5.81"/>
                            <circle class="cls-diamond_system-33" cx="1632.92" cy="1965.46" r="8.31"/>
                            <circle class="cls-diamond_system-33" cx="1678.56" cy="1838.02" r="5.81"/>
                            <circle class="cls-diamond_system-33" cx="1695.03" cy="1865.84" r="8.31"/>
                            <circle class="cls-diamond_system-33" cx="1778.72" cy="1891.48" r="8.31"/>
                            <circle class="cls-diamond_system-33" cx="1803.02" cy="1879.25" r="7.09"/>
                            <circle class="cls-diamond_system-33" cx="1708.04" cy="1896.11" r="5.81"/>
                            <circle class="cls-diamond_system-33" cx="1733.29" cy="1876.92" r="5.81"/>
                            <circle class="cls-diamond_system-33" cx="1739.34" cy="1971.56" r="7.09"/>
                            <circle class="cls-diamond_system-33" cx="1727.4" cy="2006.76" r="8.31"/>
                            <circle class="cls-diamond_system-33" cx="1666.02" cy="1930.13" r="7.09"/>
                            <circle class="cls-diamond_system-33" cx="1675.76" cy="1789.97" r="7.09"/>
                            <circle class="cls-diamond_system-33" cx="1798.89" cy="1761.07" r="8.31"/>
                            <circle class="cls-diamond_system-33" cx="1767.52" cy="1759.12" r="5.81"/>
                            <circle class="cls-diamond_system-33" cx="1727.88" cy="1711.27" r="8.31"/>
                            <circle class="cls-diamond_system-33" cx="1704.53" cy="1725.24" r="7.09"/>
                            <circle class="cls-diamond_system-33" cx="1774.25" cy="1722.49" r="5.81"/>
                            <circle class="cls-diamond_system-33" cx="1900.17" cy="1641.13" r="7.09"/>
                            <circle class="cls-diamond_system-33" cx="1805.2" cy="1657.99" r="5.81"/>
                            <circle class="cls-diamond_system-33" cx="1830.44" cy="1638.79" r="5.81"/>
                            <circle class="cls-diamond_system-33" cx="2081.29" cy="2013.46" r="5.81"/>
                            <circle class="cls-diamond_system-33" cx="2032.61" cy="2039.51" r="5.81"/>
                            <circle class="cls-diamond_system-33" cx="2009.8" cy="2030.55" r="5.81"/>
                            <circle class="cls-diamond_system-33" cx="2077.7" cy="2039.79" r="7.09"/>
                            <circle class="cls-diamond_system-33" cx="2111.25" cy="1934.28" r="5.81"/>
                            <circle class="cls-diamond_system-33" cx="2162.85" cy="1943.31" r="8.31"/>
                            <circle class="cls-diamond_system-33" cx="2175.86" cy="1973.57" r="5.81"/>
                            <circle class="cls-diamond_system-33" cx="2201.11" cy="1954.38" r="5.81"/>
                            <circle class="cls-diamond_system-33" cx="2178.27" cy="2060.62" r="8.31"/>
                            <circle class="cls-diamond_system-33" cx="2133.84" cy="2007.59" r="7.09"/>
                            <circle class="cls-diamond_system-33" cx="2089.02" cy="1913.54" r="7.09"/>
                            <circle class="cls-diamond_system-33" cx="2019.98" cy="2114.46" r="8.31"/>
                            <circle class="cls-diamond_system-33" cx="2044.28" cy="2102.23" r="7.09"/>
                            <circle class="cls-diamond_system-33" cx="2029.88" cy="1809.39" r="5.81"/>
                            <circle class="cls-diamond_system-33" cx="2017.25" cy="1884.35" r="8.31"/>
                            <circle class="cls-diamond_system-33" cx="2040.15" cy="1984.05" r="8.31"/>
                            <circle class="cls-diamond_system-33" cx="2039.29" cy="1924.48" r="5.81"/>
                            <circle class="cls-diamond_system-33" cx="2121.24" cy="1860.1" r="5.81"/>
                            <circle class="cls-diamond_system-33" cx="2146.16" cy="1786.03" r="5.81"/>
                            <circle class="cls-diamond_system-33" cx="2130.73" cy="1801.53" r="7.09"/>
                            <circle class="cls-diamond_system-33" cx="2081" cy="1812.47" r="5.81"/>
                            <circle class="cls-diamond_system-33" cx="1982.45" cy="1854.33" r="5.81"/>
                            <circle class="cls-diamond_system-33" cx="2016.7" cy="1754.62" r="5.81"/>
                            <circle class="cls-diamond_system-33" cx="1832.17" cy="1932.13" r="5.81"/>
                            <circle class="cls-diamond_system-33" cx="1828.53" cy="1907.9" r="5.81"/>
                            <circle class="cls-diamond_system-33" cx="1962.63" cy="1947.62" r="5.81"/>
                            <circle class="cls-diamond_system-33" cx="1760.95" cy="1958.68" r="8.31"/>
                            <circle class="cls-diamond_system-33" cx="1783.69" cy="1973.6" r="7.09"/>
                            <circle class="cls-diamond_system-33" cx="1883.97" cy="1910.94" r="8.31"/>
                            <circle class="cls-diamond_system-33" cx="1935.13" cy="1880.41" r="5.81"/>
                            <circle class="cls-diamond_system-33" cx="2066.18" cy="2190.67" r="5.81"/>
                            <circle class="cls-diamond_system-33" cx="1979.56" cy="2199.58" r="8.31"/>
                            <circle class="cls-diamond_system-33" cx="1993.29" cy="2227.53" r="7.09"/>
                            <circle class="cls-diamond_system-33" cx="2029.12" cy="2151.31" r="7.09"/>
                            <circle class="cls-diamond_system-33" cx="1929.51" cy="2136.13" r="5.81"/>
                            <circle class="cls-diamond_system-33" cx="1936.77" cy="2200.91" r="5.81"/>
                            <circle class="cls-diamond_system-33" cx="1944.59" cy="2170.18" r="5.81"/>
                            <circle class="cls-diamond_system-33" cx="1749.58" cy="2012.46" r="5.81"/>
                            <circle class="cls-diamond_system-33" cx="1754.88" cy="2074.36" r="8.31"/>
                            <circle class="cls-diamond_system-33" cx="1782.02" cy="2076.19" r="7.09"/>
                            <circle class="cls-diamond_system-33" cx="1680.25" cy="2123.29" r="7.09"/>
                            <circle class="cls-diamond_system-33" cx="1805.8" cy="2185.49" r="5.81"/>
                            <circle class="cls-diamond_system-33" cx="1780.23" cy="2136.55" r="5.81"/>
                            <circle class="cls-diamond_system-33" cx="1789.42" cy="2113.84" r="5.81"/>
                            <circle class="cls-diamond_system-33" cx="1779.51" cy="2181.64" r="7.09"/>
                            <circle class="cls-diamond_system-33" cx="1705.41" cy="2123.18" r="8.31"/>
                            <circle class="cls-diamond_system-33" cx="1717.39" cy="2147.6" r="7.09"/>
                            <circle class="cls-diamond_system-33" cx="1835.61" cy="2144.65" r="8.31"/>
                            <circle class="cls-diamond_system-33" cx="1837.88" cy="2113.3" r="5.81"/>
                            <circle class="cls-diamond_system-33" cx="1874.44" cy="2120.39" r="5.81"/>
                            <circle class="cls-diamond_system-33" cx="1725.6" cy="2075.94" r="5.81"/>
                            <circle class="cls-diamond_system-33" cx="1747.92" cy="2115.13" r="7.09"/>
                            <circle class="cls-diamond_system-33" cx="1656.75" cy="2030.13" r="5.81"/>
                            <circle class="cls-diamond_system-33" cx="1670.42" cy="2009.79" r="5.81"/>
                            <circle class="cls-diamond_system-33" cx="1646.79" cy="2074.12" r="7.09"/>
                            <circle class="cls-diamond_system-33" cx="1901.03" cy="2002.67" r="5.81"/>
                            <circle class="cls-diamond_system-33" cx="1916.15" cy="1974.79" r="5.81"/>
                            <circle class="cls-diamond_system-33" cx="1939" cy="2081.04" r="8.31"/>
                            <circle class="cls-diamond_system-33" cx="1960.58" cy="2058.58" r="7.09"/>
                            <circle class="cls-diamond_system-33" cx="1954.88" cy="2120.79" r="5.81"/>
                            <circle class="cls-diamond_system-33" cx="1847.28" cy="2089.64" r="5.81"/>
                            <circle class="cls-diamond_system-33" cx="1822.69" cy="2099.7" r="7.09"/>
                            <circle class="cls-diamond_system-33" cx="1852.18" cy="2039.31" r="8.31"/>
                            <circle class="cls-diamond_system-33" cx="1838.19" cy="2011.17" r="5.81"/>
                            <circle class="cls-diamond_system-33" cx="1873.28" cy="1998.68" r="5.81"/>
                        </g>
                        <g>
                            <path class="cls-diamond_system-35" d="m2142.46,1983.21c-14.07-1.91-23.96-14.92-22.04-28.99s14.92-23.96,28.99-22.04c14.07,1.91,23.96,14.92,22.04,28.99-1.91,14.07-14.92,23.96-28.99,22.04Zm1.74-12.77c7.02.96,13.52-3.98,14.47-11.01s-3.98-13.52-11.01-14.47-13.52,3.98-14.47,11.01,3.98,13.52,11.01,14.47Z"/>
                            <path class="cls-diamond_system-35" d="m1733.02,2178.4c-14.07-1.91-23.96-14.92-22.04-28.99,1.91-14.07,14.92-23.96,28.99-22.04,14.07,1.91,23.96,14.92,22.04,28.99-1.91,14.07-14.92,23.96-28.99,22.04Zm1.74-12.77c7.02.96,13.52-3.98,14.47-11.01.96-7.02-3.98-13.52-11.01-14.47s-13.52,3.98-14.47,11.01c-.96,7.02,3.98,13.52,11.01,14.47Z"/>
                            <path class="cls-diamond_system-33" d="m1992.62,1857.42c-14.07-1.91-23.96-14.92-22.04-28.99,1.91-14.07,14.92-23.96,28.99-22.04,14.07,1.91,23.96,14.92,22.04,28.99-1.91,14.07-14.92,23.96-28.99,22.04Zm1.74-12.77c7.02.96,13.52-3.98,14.47-11.01.96-7.02-3.98-13.52-11.01-14.47-7.02-.96-13.52,3.98-14.47,11.01-.96,7.02,3.98,13.52,11.01,14.47Z"/>
                            <path class="cls-diamond_system-39" d="m1935.15,2231.83c-10.54-1.43-17.95-11.18-16.52-21.72s11.18-17.95,21.72-16.52c10.54,1.43,17.95,11.18,16.52,21.72-1.43,10.54-11.18,17.95-21.72,16.52Zm1.74-12.77c3.5.48,6.73-1.98,7.21-5.48s-1.98-6.73-5.48-7.21-6.73,1.98-7.21,5.48,1.98,6.73,5.48,7.21Z"/>
                            <path class="cls-diamond_system-39" d="m1985.89,1763.66c-10.54-1.43-17.95-11.18-16.52-21.72,1.43-10.54,11.18-17.95,21.72-16.52,10.54,1.43,17.95,11.18,16.52,21.72-1.43,10.54-11.18,17.95-21.72,16.52Zm1.74-12.77c3.5.48,6.73-1.98,7.21-5.48s-1.98-6.73-5.48-7.21c-3.5-.48-6.73,1.98-7.21,5.48-.48,3.5,1.98,6.73,5.48,7.21Z"/>
                            <path class="cls-diamond_system-33" d="m1918.68,1913.8c-16.4-2.23-27.92-17.39-25.69-33.78,2.23-16.4,17.39-27.92,33.78-25.69s27.92,17.39,25.69,33.78c-2.23,16.4-17.39,27.92-33.78,25.69Zm1.74-12.77c9.35,1.27,18-5.3,19.27-14.65,1.27-9.35-5.3-18-14.65-19.27s-18,5.3-19.27,14.65c-1.27,9.35,5.3,18,14.65,19.27Z"/>
                            <path class="cls-diamond_system-33" d="m1930.87,1973.62c-8.68-1.18-14.77-9.2-13.59-17.88,1.18-8.68,9.2-14.77,17.88-13.59s14.77,9.2,13.59,17.87c-1.18,8.68-9.2,14.77-17.88,13.59Zm1.74-12.77c1.63.22,3.14-.92,3.36-2.56.22-1.63-.92-3.14-2.56-3.36s-3.14.92-3.36,2.56.92,3.14,2.56,3.36Z"/>
                            <path class="cls-diamond_system-33" d="m1750.42,2050.55c-8.68-1.18-14.77-9.2-13.59-17.88s9.2-14.77,17.88-13.59c8.68,1.18,14.77,9.2,13.59,17.88-1.18,8.68-9.2,14.77-17.87,13.59Zm1.74-12.77c1.63.22,3.14-.92,3.36-2.56s-.92-3.14-2.56-3.36-3.14.92-3.36,2.56.92,3.14,2.56,3.36Z"/>
                            <path class="cls-diamond_system-33" d="m1721.55,1906.46c-11.37-1.55-19.36-12.06-17.82-23.43,1.55-11.37,12.06-19.36,23.43-17.82,11.37,1.55,19.37,12.06,17.82,23.43-1.55,11.37-12.06,19.37-23.43,17.82Zm1.74-12.77c4.33.59,8.33-2.45,8.92-6.78.59-4.33-2.45-8.33-6.78-8.92s-8.33,2.45-8.92,6.78c-.59,4.33,2.45,8.33,6.78,8.92Z"/>
                            <path class="cls-diamond_system-37" d="m1765.96,1957.33h0c-6.99,2.86-15.26,1.7-22.69-3.17-6.79-4.45-12.46-11.62-15.97-20.19-7.7-18.82-2.78-38.04,11.19-43.76,6.99-2.86,15.25-1.7,22.69,3.17,6.79,4.45,12.46,11.62,15.97,20.19,3.23,7.91,4.24,15.88,3.29,22.9-1.32,9.69-6.38,17.54-14.48,20.86Zm-26.72-28.25c2.49,6.09,6.54,11.3,11.1,14.29,2.25,1.48,6.63,3.7,10.74,2.02h0c6.92-2.83,8.86-15.42,4.14-26.94-2.49-6.09-6.54-11.3-11.1-14.29-2.25-1.48-6.64-3.7-10.74-2.02-3.55,1.45-5.79,5.48-6.49,10.62-.66,4.86.06,10.72,2.35,16.32Z"/>
                            <path class="cls-diamond_system-39" d="m2239.15,1962.53c-1.88,8.69-6.97,15.31-13.96,18.17h0c-13.98,5.72-30.95-4.55-38.65-23.36-3.5-8.56-4.49-17.65-2.76-25.59,1.88-8.69,6.97-15.31,13.96-18.17,6.99-2.86,15.25-1.7,22.69,3.17,6.79,4.45,12.46,11.62,15.97,20.19,3.11,7.6,4.23,15.6,3.25,22.86-.13.92-.29,1.84-.48,2.73Zm-40.68-10.08c4.71,11.52,14.92,19.14,21.84,16.31,4.1-1.68,5.67-6.34,6.24-8.97,1.16-5.34.39-11.89-2.1-17.98-2.49-6.09-6.54-11.3-11.1-14.29-2.25-1.48-6.63-3.7-10.74-2.02-4.1,1.68-5.67,6.34-6.24,8.97-.12.56-.22,1.13-.3,1.71-.68,4.99.17,10.82,2.4,16.27Z"/>
                            <path class="cls-diamond_system-41" d="m1806.4,2083.23c-1.88,8.69-6.97,15.31-13.96,18.17-6.99,2.86-15.25,1.7-22.69-3.17-6.79-4.45-12.46-11.62-15.97-20.19-7.7-18.82-2.78-38.04,11.19-43.76,13.98-5.72,30.95,4.55,38.65,23.36,3.11,7.6,4.23,15.6,3.24,22.86-.13.92-.29,1.84-.48,2.73Zm-40.68-10.08c2.49,6.09,6.54,11.3,11.1,14.29,2.25,1.48,6.63,3.7,10.73,2.02h0c4.1-1.68,5.67-6.34,6.24-8.97,1.16-5.34.39-11.89-2.1-17.98-4.71-11.52-14.92-19.14-21.84-16.31-3.55,1.45-5.79,5.48-6.49,10.62-.66,4.86.06,10.72,2.35,16.32Z"/>
                            <path class="cls-diamond_system-33" d="m1739.91,2090.47c-2.16,9.96-7.73,17.24-15.69,20.5-7.96,3.26-17.04,1.97-25.56-3.62-7.77-5.1-14.27-13.32-18.29-23.15-8.79-21.48-3.29-43.37,12.51-49.84,15.8-6.47,35.07,5.3,43.86,26.78,3.57,8.72,4.86,17.91,3.73,26.22-.14,1.06-.33,2.1-.55,3.12Zm-47.62-11.16c3,7.34,7.9,13.63,13.43,17.26,2.82,1.85,8.33,4.63,13.61,2.47h0c5.28-2.16,7.26-8.01,7.98-11.3,1.4-6.47.49-14.39-2.52-21.72-5.85-14.3-18.23-23.33-27.04-19.73-4.6,1.88-7.48,6.9-8.35,13.3-.8,5.86.09,12.89,2.89,19.72Z"/>
                            <path class="cls-diamond_system-41" d="m2086.76,1758.49c-2.16,9.96-7.73,17.24-15.69,20.5h0c-15.8,6.47-35.07-5.3-43.86-26.78-4.02-9.83-5.15-20.25-3.18-29.34,2.16-9.96,7.73-17.24,15.69-20.5,7.96-3.26,17.04-1.97,25.56,3.62,7.77,5.1,14.27,13.32,18.29,23.15,3.57,8.72,4.86,17.91,3.73,26.22-.14,1.06-.33,2.1-.55,3.12Zm-47.62-11.16c5.85,14.3,18.23,23.33,27.04,19.73,5.28-2.16,7.26-8.01,7.98-11.3,1.4-6.47.49-14.39-2.52-21.72-3-7.34-7.9-13.63-13.43-17.26-2.82-1.85-8.33-4.63-13.61-2.47-5.28,2.16-7.26,8.01-7.98,11.3-.15.68-.27,1.37-.36,2.08-.82,6.04.19,13.07,2.88,19.64Z"/>
                            <path class="cls-diamond_system-33" d="m2067.14,1714.21h0c-9,18.57-36.07,23.43-61.63,11.04-11.79-5.71-21.39-14.32-27.04-24.24-6.09-10.7-6.98-21.7-2.49-30.97,4.49-9.27,13.67-15.39,25.84-17.24,11.29-1.71,24,.49,35.78,6.2,11.79,5.71,21.39,14.32,27.04,24.24,4.32,7.59,6.02,15.32,5.05,22.48-.4,2.94-1.25,5.79-2.56,8.49Zm-77.46-19.58c4.37,7.68,11.99,14.44,21.46,19.02,18.42,8.92,38.75,6.6,44.4-5.06h0c2.58-5.33,1.84-12.07-2.09-18.97-4.37-7.68-11.99-14.44-21.46-19.02-9.46-4.59-19.49-6.38-28.23-5.05-7.85,1.19-13.6,4.78-16.18,10.11-.69,1.42-1.14,2.95-1.36,4.55-.6,4.39.57,9.36,3.45,14.42Z"/>
                            <path class="cls-diamond_system-33" d="m2213.54,2050.07c-3.89,13.6-11.26,25.41-20.76,33.25-10.19,8.41-21.64,11.38-32.23,8.35-10.59-3.03-18.74-11.6-22.94-24.13-3.91-11.68-3.93-25.6-.04-39.2,3.89-13.6,11.26-25.41,20.76-33.25,10.19-8.41,21.64-11.38,32.23-8.35,10.59,3.03,18.74,11.6,22.94,24.13,2.89,8.63,3.65,18.47,2.29,28.51-.48,3.55-1.23,7.13-2.25,10.69Zm-49.45,29.21c13.87,3.97,30.84-11.03,37.05-32.75,6.21-21.72-.25-43.43-14.13-47.39-13.87-3.97-30.84,11.03-37.05,32.75-.83,2.91-1.44,5.82-1.83,8.68-2.52,18.53,3.94,35.27,15.95,38.71Z"/>
                            <path class="cls-diamond_system-39" d="m1818.57,1716.81c-7.21,9.96-18.5,18.05-31.79,22.79-13.29,4.74-27.16,5.61-39.04,2.45-12.75-3.39-21.8-10.95-25.49-21.31-3.69-10.36-1.46-21.95,6.27-32.63,7.21-9.96,18.5-18.05,31.79-22.79,13.29-4.74,27.16-5.61,39.04-2.45,12.75,3.39,21.8,10.95,25.49,21.31h0c1.64,4.62,2.12,9.48,1.45,14.39-.83,6.11-3.43,12.32-7.71,18.24Zm-84.18-.4c4.83,13.55,26.83,18.61,48.06,11.04,10.86-3.87,19.98-10.34,25.68-18.2,5.17-7.14,6.79-14.51,4.57-20.74h0c-2.22-6.24-8.14-10.92-16.66-13.18-9.39-2.49-20.54-1.73-31.4,2.14-10.86,3.87-19.98,10.33-25.68,18.2-3,4.15-4.81,8.38-5.36,12.41-.4,2.91-.14,5.72.79,8.33Z"/>
                            <path class="cls-diamond_system-41" d="m2026.74,2230.33c-15.51,11.79-34.54,11.98-43.32.43h0c-8.79-11.55-3.52-29.84,11.99-41.63,15.51-11.79,34.54-11.98,43.32-.43,3.58,4.7,4.82,10.52,4,16.56-1.2,8.8-6.79,18.08-15.99,25.07Zm-33.06-7.38c4.63,6.09,17.03,3.37,25.26-2.88,8.23-6.25,14.16-17.47,9.53-23.57-4.63-6.09-17.03-3.37-25.26,2.88-5.67,4.31-10.26,10.99-11.03,16.71-.35,2.58.07,4.96,1.51,6.85Z"/>
                            <path class="cls-diamond_system-41" d="m1865.14,1656.7c-2.44,7.38-7.66,14.4-14.7,19.75-15.51,11.79-34.53,11.98-43.32.43-8.79-11.55-3.52-29.84,11.99-41.63,15.51-11.79,34.54-11.98,43.32-.43,3.44,4.52,4.79,10.37,3.95,16.58-.24,1.74-.65,3.52-1.23,5.29Zm-47.76,12.38c4.63,6.09,17.03,3.37,25.25-2.88,4.92-3.74,8.66-8.67,10.26-13.53.78-2.36,1.72-6.81-.73-10.04-4.63-6.09-17.03-3.37-25.26,2.88-5.67,4.31-10.26,10.99-11.03,16.71-.35,2.58.07,4.96,1.51,6.85Z"/>
                            <path class="cls-diamond_system-37" d="m1786.84,1852.11c-5.69,13.09-18.01,19.92-28.04,15.56h0c-10.03-4.36-13.42-18.03-7.73-31.12,2.54-5.84,6.58-10.7,11.36-13.69,5.47-3.42,11.55-4.1,16.68-1.87,7.79,3.39,11.57,12.38,10.22,22.36-.39,2.88-1.21,5.83-2.48,8.76Zm-22.9,3.74c2.47,1.08,8.02-1.85,11.08-8.88,3.06-7.03,1.42-13.08-1.05-14.16-1.67-.73-3.84.44-4.7.98-2.56,1.6-4.89,4.48-6.37,7.91-.81,1.86-1.29,3.64-1.51,5.29-.62,4.59.74,8.08,2.56,8.87Z"/>
                        </g>
                    </g>
                </g>
            </g>
        </g>
    </g>
</svg>