<svg width="44" height="44" viewBox="0 0 44 44" fill="none" xmlns="http://www.w3.org/2000/svg">
<path d="M19.568 35V17.496H24.256V35H19.568ZM21.904 14.936C20.9227 14.936 20.1867 14.7067 19.696 14.248C19.216 13.7893 18.976 13.1387 18.976 12.296C18.976 11.4533 19.216 10.8027 19.696 10.344C20.1867 9.87467 20.9227 9.64 21.904 9.64C22.8853 9.64 23.616 9.87467 24.096 10.344C24.5867 10.8027 24.832 11.4533 24.832 12.296C24.832 13.1387 24.5867 13.7893 24.096 14.248C23.616 14.7067 22.8853 14.936 21.904 14.936Z" fill="#C6FFDD"/>
<circle cx="22" cy="22" r="20" stroke="#C6FFDD" stroke-width="4"/>
</svg>
