<svg width="48" height="48" viewBox="0 0 48 48" fill="none" xmlns="http://www.w3.org/2000/svg">
<g clip-path="url(#clip0_457_1244)">
<path d="M45.1143 39.9999C44.6932 40.0003 44.2771 39.9081 43.8952 39.7299C43.5133 39.5517 43.1749 39.2917 42.9036 38.9683L28.5025 21.7499C28.2317 21.4639 28.0219 21.1254 27.886 20.7551C27.7501 20.3848 27.691 19.9906 27.7122 19.5965C27.7335 19.2025 27.8347 18.817 28.0096 18.4636C28.1845 18.1102 28.4294 17.7964 28.7294 17.5414C29.0294 17.2865 29.3781 17.0957 29.7541 16.9809C30.1301 16.8661 30.5255 16.8295 30.9161 16.8736C31.3067 16.9176 31.6842 17.0413 32.0254 17.237C32.3667 17.4327 32.6646 17.6964 32.9008 18.0118L47.3308 35.2418C47.6832 35.6644 47.9083 36.1791 47.9796 36.7256C48.0509 37.2721 47.9655 37.8277 47.7335 38.3272C47.5014 38.8267 47.1323 39.2493 46.6694 39.5456C46.2065 39.8419 45.669 39.9995 45.1201 39.9999H45.1143Z" fill="#C6FFDD"/>
<path d="M2.8862 39.9988C2.20784 40.0017 1.55075 39.7612 1.03338 39.3207C0.454245 38.8277 0.09192 38.1254 0.0249335 37.366C-0.0420531 36.6067 0.191695 35.8514 0.67552 35.2639L21.7376 10.0362C21.9763 9.73032 22.2738 9.47581 22.6124 9.28776C22.9511 9.09971 23.3239 8.98196 23.7088 8.94152C24.0936 8.90108 24.4827 8.93877 24.8528 9.05234C25.2228 9.16592 25.5664 9.35307 25.863 9.60265C26.1596 9.85224 26.4031 10.1592 26.5792 10.5052C26.7553 10.8512 26.8602 11.2292 26.8878 11.6168C26.9154 12.0043 26.8651 12.3935 26.7399 12.7612C26.6147 13.1288 26.4171 13.4674 26.1589 13.7569L5.09688 38.9672C4.82567 39.2907 4.48724 39.5506 4.10534 39.7288C3.72344 39.907 3.30733 39.9992 2.8862 39.9988V39.9988Z" fill="#C6FFDD"/>
</g>
<defs>
<clipPath id="clip0_457_1244">
<rect width="48" height="31" fill="white" transform="translate(0 9)"/>
</clipPath>
</defs>
</svg>
