<svg width="48" height="48" viewBox="0 0 48 48" fill="none" xmlns="http://www.w3.org/2000/svg">
<path d="M24.1185 38.0649C17.181 38.0649 11.5371 32.4211 11.5371 25.4836C11.5371 18.5462 17.181 12.9023 24.1185 12.9023C31.056 12.9023 36.6999 18.5462 36.6999 25.4836C36.6999 32.4211 31.056 38.0649 24.1185 38.0649ZM24.1185 16.5019C19.1658 16.5019 15.1367 20.531 15.1367 25.4836C15.1367 30.4363 19.1658 34.4654 24.1185 34.4654C29.0712 34.4654 33.1004 30.4363 33.1004 25.4836C33.1004 20.531 29.0712 16.5019 24.1185 16.5019Z" fill="#52EDAC"/>
<path d="M37.0654 13.2811C38.3339 13.2811 39.3622 12.2528 39.3622 10.9843C39.3622 9.71581 38.3339 8.6875 37.0654 8.6875C35.7969 8.6875 34.7686 9.71581 34.7686 10.9843C34.7686 12.2528 35.7969 13.2811 37.0654 13.2811Z" fill="#52EDAC"/>
<path d="M34.4648 48H13.5357C9.92026 48 6.52086 46.5922 3.96436 44.0357C1.40785 41.4787 0 38.0798 0 34.4645V13.5355C0 9.92016 1.40785 6.52128 3.96436 3.96432C6.52135 1.40784 9.92026 0 13.5357 0H34.4643C38.0797 0 41.4791 1.40784 44.0356 3.96432C46.5921 6.5208 48 9.92016 48 13.5355V34.464C48 38.0794 46.5921 41.4787 44.0356 44.0352C41.4791 46.5917 38.0797 47.9995 34.4643 47.9995L34.4648 48ZM13.5357 3.59904C8.0564 3.59904 3.59908 8.05632 3.59908 13.5355V34.464C3.59908 39.9432 8.0564 44.4005 13.5357 44.4005H34.4643C39.9436 44.4005 44.4009 39.9432 44.4009 34.464V13.5355C44.4009 8.05632 39.9436 3.59904 34.4643 3.59904H13.5357Z" fill="#52EDAC"/>
</svg>
