<svg width="48" height="48" viewBox="0 0 48 48" fill="none" xmlns="http://www.w3.org/2000/svg">
<g clip-path="url(#clip0_467_1119)">
<path d="M23.4792 16.0784C23.3088 15.3008 23.2291 14.4887 23.2531 13.6546C23.4062 8.25867 27.9038 3.94875 33.3144 4.00046C36.0043 4.02632 38.4394 5.11517 40.2178 6.86624C40.3637 7.00989 40.572 7.06879 40.7717 7.02282C41.8637 6.77 45.3773 5.88034 46.6138 4.64736C46.6138 4.64736 45.9682 8.17631 42.5698 10.039C42.5698 10.039 45.9302 9.7234 48 8.64365C48 8.64365 46.7098 11.089 43.1458 13.7087C43.0454 13.7824 42.9874 13.9002 42.9917 14.0247C43.0032 14.3412 43.0243 14.9618 43.0243 15.3247C43.0243 30.6089 30.6034 42.9995 15.2818 42.9995C9.63504 42.9995 4.38192 41.3164 0 38.4257C0 38.4257 3.57072 39.1186 8.27952 37.7171C12.9883 36.3156 14.4312 34.3988 14.4312 34.3988C10.1251 34.2968 6.48768 31.5 5.14848 27.6339C5.14848 27.6339 6.35328 27.7733 7.49184 27.7374C8.6592 27.7005 9.45696 27.4127 9.45696 27.4127C5.04864 26.3761 1.76736 22.4262 1.76736 17.7122C1.76736 17.7122 2.95056 18.3222 3.78576 18.5745C4.62096 18.8269 6.12816 18.914 6.12816 18.914C3.54768 17.094 1.86288 14.0937 1.86288 10.7012C1.86288 8.88976 2.34336 7.19041 3.18336 5.7228C3.18336 5.7228 6.912 10.7644 12.779 13.3778C18.6461 15.9913 23.4787 16.077 23.4787 16.077L23.4792 16.0784Z" fill="#52EDAC"/>
</g>
<defs>
<clipPath id="clip0_467_1119">
<rect width="48" height="39" fill="white" transform="translate(0 4)"/>
</clipPath>
</defs>
</svg>
