<?xml version="1.0" encoding="UTF-8"?><svg id="Ebene_2" xmlns="http://www.w3.org/2000/svg" xmlns:xlink="http://www.w3.org/1999/xlink" viewBox="0 0 1063.63 681.71"><defs><style>.cls-1{fill:url(#Unbenannter_Verlauf_14-12);}.cls-2{fill:url(#Unbenannter_Verlauf_14-10);}.cls-3{fill:url(#Unbenannter_Verlauf_14-11);}.cls-4{fill:url(#Unbenannter_Verlauf_14-4);}.cls-5{fill:url(#Unbenannter_Verlauf_14-2);}.cls-6{fill:url(#Unbenannter_Verlauf_14-8);}.cls-7{fill:url(#Unbenannter_Verlauf_14-3);}.cls-8{fill:url(#Unbenannter_Verlauf_14-5);}.cls-9{fill:url(#Unbenannter_Verlauf_14-6);}.cls-10{fill:url(#Unbenannter_Verlauf_14-7);}.cls-11{fill:url(#Unbenannter_Verlauf_14-9);}.cls-12{fill:url(#Unbenannter_Verlauf_12-2);}.cls-13{fill:url(#Unbenannter_Verlauf_22-2);}.cls-14{fill:url(#Unbenannter_Verlauf_22-3);}.cls-15{fill:#00abe9;}.cls-16{fill:#fff;}.cls-17{fill:#69c6e3;}.cls-18{fill:#9bd4d7;}.cls-19{fill:#b8e1ee;}.cls-20{fill:#b9e1ed;}.cls-21{fill:#c2e4e9;}.cls-22{fill:#0d79bf;}.cls-23{fill:#06a6c1;}.cls-24{fill:#70c4c4;}.cls-25{fill:#85cbcc;}.cls-26{fill:#36bcdc;}.cls-27{opacity:.7;}.cls-28{fill:url(#Unbenannter_Verlauf_12);}.cls-29{fill:url(#Unbenannter_Verlauf_14);}.cls-30{fill:url(#Unbenannter_Verlauf_22);}.cls-31{fill:url(#Unbenannter_Verlauf_2);}</style><radialGradient id="Unbenannter_Verlauf_22" cx="34.52" cy="316.14" fx="34.52" fy="316.14" r="34.52" gradientUnits="userSpaceOnUse"><stop offset=".59" stop-color="#fff"/><stop offset=".64" stop-color="#fff" stop-opacity=".98"/><stop offset=".69" stop-color="#fff" stop-opacity=".94"/><stop offset=".74" stop-color="#fff" stop-opacity=".86"/><stop offset=".8" stop-color="#fff" stop-opacity=".75"/><stop offset=".85" stop-color="#fff" stop-opacity=".61"/><stop offset=".9" stop-color="#fff" stop-opacity=".43"/><stop offset=".95" stop-color="#fff" stop-opacity=".23"/><stop offset="1" stop-color="#fff" stop-opacity="0"/></radialGradient><radialGradient id="Unbenannter_Verlauf_14" cx="57.92" cy="344.27" fx="57.92" fy="344.27" r="18.44" gradientUnits="userSpaceOnUse"><stop offset="0" stop-color="#fcea10"/><stop offset="0" stop-color="#fff" stop-opacity=".94"/><stop offset="1" stop-color="#fff" stop-opacity="0"/></radialGradient><radialGradient id="Unbenannter_Verlauf_14-2" cx="286.15" cy="140.83" fx="286.15" fy="140.83" xlink:href="#Unbenannter_Verlauf_14"/><radialGradient id="Unbenannter_Verlauf_14-3" cx="11.12" cy="292.74" fx="11.12" fy="292.74" r="9.22" xlink:href="#Unbenannter_Verlauf_14"/><radialGradient id="Unbenannter_Verlauf_22-2" cx="522.19" cy="242.07" fx="522.19" fy="242.07" r="25.2" xlink:href="#Unbenannter_Verlauf_22"/><radialGradient id="Unbenannter_Verlauf_14-4" cx="505.11" cy="261.1" fx="505.11" fy="261.1" r="9.22" xlink:href="#Unbenannter_Verlauf_14"/><radialGradient id="Unbenannter_Verlauf_14-5" cx="342.52" cy="624.22" fx="342.52" fy="624.22" r="9.22" xlink:href="#Unbenannter_Verlauf_14"/><radialGradient id="Unbenannter_Verlauf_14-6" cx="526.01" cy="221.54" fx="526.01" fy="221.54" r="9.22" xlink:href="#Unbenannter_Verlauf_14"/><radialGradient id="Unbenannter_Verlauf_22-3" cx="578.07" cy="114.13" fx="578.07" fy="114.13" r="46.07" xlink:href="#Unbenannter_Verlauf_22"/><radialGradient id="Unbenannter_Verlauf_14-7" cx="548.49" cy="139.51" fx="548.49" fy="139.51" xlink:href="#Unbenannter_Verlauf_14"/><radialGradient id="Unbenannter_Verlauf_14-8" cx="558.89" cy="76.6" fx="558.89" fy="76.6" xlink:href="#Unbenannter_Verlauf_14"/><radialGradient id="Unbenannter_Verlauf_14-9" cx="311.77" cy="535.4" fx="311.77" fy="535.4" xlink:href="#Unbenannter_Verlauf_14"/><radialGradient id="Unbenannter_Verlauf_14-10" cx="1029.17" cy="356.05" fx="1029.17" fy="356.05" xlink:href="#Unbenannter_Verlauf_14"/><radialGradient id="Unbenannter_Verlauf_14-11" cx="609.3" cy="65.23" fx="609.3" fy="65.23" r="9.22" xlink:href="#Unbenannter_Verlauf_14"/><radialGradient id="Unbenannter_Verlauf_14-12" cx="685.84" cy="474.58" fx="685.84" fy="474.58" r="9.22" xlink:href="#Unbenannter_Verlauf_14"/><radialGradient id="Unbenannter_Verlauf_12" cx="190.95" cy="283.51" fx="190.95" fy="283.51" r="94.14" gradientTransform="translate(390.39 -19.72) rotate(65.77)" gradientUnits="userSpaceOnUse"><stop offset=".69" stop-color="#b8e1ee"/><stop offset="1" stop-color="#b8e1ee" stop-opacity="0"/></radialGradient><radialGradient id="Unbenannter_Verlauf_12-2" cx="885.79" cy="177.84" fx="885.79" fy="177.84" r="177.84" gradientTransform="matrix(1, 0, 0, 1, 0, 0)" xlink:href="#Unbenannter_Verlauf_12"/><radialGradient id="Unbenannter_Verlauf_2" cx="558.3" cy="516.77" fx="558.3" fy="516.77" r="149.4" gradientTransform="translate(28.94 1119.49) rotate(-93.31)" gradientUnits="userSpaceOnUse"><stop offset=".69" stop-color="#c2e4e9"/><stop offset="1" stop-color="#c2e4e9" stop-opacity="0"/></radialGradient></defs><g id="design_1"><circle class="cls-30" cx="34.52" cy="316.14" r="34.52"/><g><circle class="cls-16" cx="34.52" cy="316.14" r="24.74"/><path class="cls-15" d="m34.52,346.05c-16.49,0-29.91-13.42-29.91-29.91s13.42-29.91,29.91-29.91,29.91,13.42,29.91,29.91-13.42,29.91-29.91,29.91Zm0-58.03c-15.51,0-28.13,12.62-28.13,28.13s12.62,28.13,28.13,28.13,28.13-12.62,28.13-28.13-12.62-28.13-28.13-28.13Z"/><path class="cls-17" d="m34.52,344.27c-15.51,0-28.13-12.62-28.13-28.13s12.62-28.13,28.13-28.13,28.13,12.62,28.13,28.13-12.62,28.13-28.13,28.13Zm0-54.11c-14.33,0-25.99,11.66-25.99,25.99s11.66,25.99,25.99,25.99,25.99-11.66,25.99-25.99-11.66-25.99-25.99-25.99Z"/><path class="cls-19" d="m34.52,342.22c-14.38,0-26.08-11.7-26.08-26.08s11.7-26.08,26.08-26.08,26.08,11.7,26.08,26.08-11.7,26.08-26.08,26.08Zm0-49.48c-12.9,0-23.4,10.5-23.4,23.4s10.5,23.4,23.4,23.4,23.4-10.5,23.4-23.4-10.5-23.4-23.4-23.4Z"/></g><g><path class="cls-16" d="m73.91,344.27l-5.15,1.45c-4.55,1.28-8.11,4.84-9.39,9.39l-1.45,5.15-1.46-5.16c-1.28-4.54-4.83-8.09-9.37-9.37l-5.16-1.46,5.15-1.45c4.55-1.28,8.11-4.84,9.39-9.39l1.45-5.15,1.46,5.16c1.28,4.54,4.83,8.09,9.37,9.37l5.16,1.46Z"/><circle class="cls-29" cx="57.92" cy="344.27" r="18.44"/></g><g><path class="cls-16" d="m302.14,140.83l-5.15,1.45c-4.55,1.28-8.11,4.84-9.39,9.39l-1.45,5.15-1.46-5.16c-1.28-4.54-4.83-8.09-9.37-9.37l-5.16-1.46,5.15-1.45c4.55-1.28,8.11-4.84,9.39-9.39l1.45-5.15,1.46,5.16c1.28,4.54,4.83,8.09,9.37,9.37l5.16,1.46Z"/><circle class="cls-5" cx="286.15" cy="140.83" r="18.44"/></g><g><path class="cls-16" d="m19.11,292.74l-2.58.72c-2.28.64-4.05,2.42-4.69,4.69l-.72,2.58-.73-2.58c-.64-2.27-2.42-4.05-4.69-4.69l-2.58-.73,2.58-.72c2.28-.64,4.05-2.42,4.69-4.69l.72-2.58.73,2.58c.64,2.27,2.42,4.05,4.69,4.69l2.58.73Z"/><circle class="cls-7" cx="11.12" cy="292.74" r="9.22"/></g><circle class="cls-13" cx="522.19" cy="242.07" r="25.2"/><g><circle class="cls-16" cx="522.19" cy="242.07" r="18.06"/><path class="cls-15" d="m522.19,263.9c-12.04,0-21.83-9.79-21.83-21.83s9.79-21.83,21.83-21.83,21.83,9.79,21.83,21.83-9.79,21.83-21.83,21.83Zm0-42.36c-11.32,0-20.53,9.21-20.53,20.53s9.21,20.53,20.53,20.53,20.53-9.21,20.53-20.53-9.21-20.53-20.53-20.53Z"/><path class="cls-17" d="m522.19,262.59c-11.32,0-20.53-9.21-20.53-20.53s9.21-20.53,20.53-20.53,20.53,9.21,20.53,20.53-9.21,20.53-20.53,20.53Zm0-39.5c-10.46,0-18.97,8.51-18.97,18.97s8.51,18.97,18.97,18.97,18.97-8.51,18.97-18.97-8.51-18.97-18.97-18.97Z"/><path class="cls-19" d="m522.19,261.1c-10.49,0-19.03-8.54-19.03-19.03s8.54-19.03,19.03-19.03,19.03,8.54,19.03,19.03-8.54,19.03-19.03,19.03Zm0-36.11c-9.42,0-17.08,7.66-17.08,17.08s7.66,17.08,17.08,17.08,17.08-7.66,17.08-17.08-7.66-17.08-17.08-17.08Z"/></g><g><path class="cls-16" d="m513.1,261.1l-2.58.72c-2.28.64-4.05,2.42-4.69,4.69l-.72,2.58-.73-2.58c-.64-2.27-2.42-4.05-4.69-4.69l-2.58-.73,2.58-.72c2.28-.64,4.05-2.42,4.69-4.69l.72-2.58.73,2.58c.64,2.27,2.42,4.05,4.69,4.69l2.58.73Z"/><circle class="cls-4" cx="505.11" cy="261.1" r="9.22"/></g><g><path class="cls-16" d="m350.51,624.22l-2.58.72c-2.28.64-4.05,2.42-4.69,4.69l-.72,2.58-.73-2.58c-.64-2.27-2.42-4.05-4.69-4.69l-2.58-.73,2.58-.72c2.28-.64,4.05-2.42,4.69-4.69l.72-2.58.73,2.58c.64,2.27,2.42,4.05,4.69,4.69l2.58.73Z"/><circle class="cls-8" cx="342.52" cy="624.22" r="9.22"/></g><g><path class="cls-16" d="m534,221.54l-2.58.72c-2.28.64-4.05,2.42-4.69,4.69l-.72,2.58-.73-2.58c-.64-2.27-2.42-4.05-4.69-4.69l-2.58-.73,2.58-.72c2.28-.64,4.05-2.42,4.69-4.69l.72-2.58.73,2.58c.64,2.27,2.42,4.05,4.69,4.69l2.58.73Z"/><circle class="cls-9" cx="526.01" cy="221.54" r="9.22"/></g><circle class="cls-14" cx="578.07" cy="114.13" r="46.07"/><g><circle class="cls-16" cx="578.07" cy="114.13" r="33.01"/><path class="cls-15" d="m578.07,154.05c-22.01,0-39.91-17.91-39.91-39.91s17.91-39.91,39.91-39.91,39.91,17.91,39.91,39.91-17.91,39.91-39.91,39.91Zm0-77.45c-20.7,0-37.53,16.84-37.53,37.53s16.84,37.53,37.53,37.53,37.53-16.84,37.53-37.53-16.84-37.53-37.53-37.53Z"/><path class="cls-17" d="m578.07,151.67c-20.7,0-37.53-16.84-37.53-37.53s16.84-37.53,37.53-37.53,37.53,16.84,37.53,37.53-16.84,37.53-37.53,37.53Zm0-72.21c-19.12,0-34.68,15.56-34.68,34.68s15.56,34.68,34.68,34.68,34.68-15.56,34.68-34.68-15.56-34.68-34.68-34.68Z"/><path class="cls-19" d="m578.07,148.93c-19.19,0-34.8-15.61-34.8-34.8s15.61-34.8,34.8-34.8,34.8,15.61,34.8,34.8-15.61,34.8-34.8,34.8Zm0-66.03c-17.22,0-31.23,14.01-31.23,31.23s14.01,31.23,31.23,31.23,31.23-14.01,31.23-31.23-14.01-31.23-31.23-31.23Z"/></g><g><path class="cls-16" d="m564.48,139.51l-5.15,1.45c-4.55,1.28-8.11,4.84-9.39,9.39l-1.45,5.15-1.46-5.16c-1.28-4.54-4.83-8.09-9.37-9.37l-5.16-1.46,5.15-1.45c4.55-1.28,8.11-4.84,9.39-9.39l1.45-5.15,1.46,5.16c1.28,4.54,4.83,8.09,9.37,9.37l5.16,1.46Z"/><circle class="cls-10" cx="548.49" cy="139.51" r="18.44"/></g><g><path class="cls-16" d="m574.88,76.6l-5.15,1.45c-4.55,1.28-8.11,4.84-9.39,9.39l-1.45,5.15-1.46-5.16c-1.28-4.54-4.83-8.09-9.37-9.37l-5.16-1.46,5.15-1.45c4.55-1.28,8.11-4.84,9.39-9.39l1.45-5.15,1.46,5.16c1.28,4.54,4.83,8.09,9.37,9.37l5.16,1.46Z"/><circle class="cls-6" cx="558.89" cy="76.6" r="18.44"/></g><g><path class="cls-16" d="m327.76,535.4l-5.15,1.45c-4.55,1.28-8.11,4.84-9.39,9.39l-1.45,5.15-1.46-5.16c-1.28-4.54-4.83-8.09-9.37-9.37l-5.16-1.46,5.15-1.45c4.55-1.28,8.11-4.84,9.39-9.39l1.45-5.15,1.46,5.16c1.28,4.54,4.83,8.09,9.37,9.37l5.16,1.46Z"/><circle class="cls-11" cx="311.77" cy="535.4" r="18.44"/></g><g><path class="cls-16" d="m1045.16,356.05l-5.15,1.45c-4.55,1.28-8.11,4.84-9.39,9.39l-1.45,5.15-1.46-5.16c-1.28-4.54-4.83-8.09-9.37-9.37l-5.16-1.46,5.15-1.45c4.55-1.28,8.11-4.84,9.39-9.39l1.45-5.15,1.46,5.16c1.28,4.54,4.83,8.09,9.37,9.37l5.16,1.46Z"/><circle class="cls-2" cx="1029.17" cy="356.05" r="18.44"/></g><g><path class="cls-16" d="m617.3,65.23l-2.58.72c-2.28.64-4.05,2.42-4.69,4.69l-.72,2.58-.73-2.58c-.64-2.27-2.42-4.05-4.69-4.69l-2.58-.73,2.58-.72c2.28-.64,4.05-2.42,4.69-4.69l.72-2.58.73,2.58c.64,2.27,2.42,4.05,4.69,4.69l2.58.73Z"/><circle class="cls-3" cx="609.3" cy="65.23" r="9.22"/></g><g><path class="cls-16" d="m693.84,474.58l-2.58.72c-2.28.64-4.05,2.42-4.69,4.69l-.72,2.58-.73-2.58c-.64-2.27-2.42-4.05-4.69-4.69l-2.58-.73,2.58-.72c2.28-.64,4.05-2.42,4.69-4.69l.72-2.58.73,2.58c.64,2.27,2.42,4.05,4.69,4.69l2.58.73Z"/><circle class="cls-1" cx="685.84" cy="474.58" r="9.22"/></g></g><g id="design_2"><g><circle class="cls-28" cx="210.24" cy="270.78" r="94.14"/><g><g><circle class="cls-22" cx="210.24" cy="270.78" r="75.48"/><circle class="cls-15" cx="210.24" cy="270.78" r="70.19"/><circle class="cls-17" cx="212.73" cy="260.27" r="53.09"/><circle class="cls-19" cx="216.73" cy="252.07" r="36.12"/></g><g class="cls-27"><circle class="cls-16" cx="215.83" cy="236.04" r="1.31"/><circle class="cls-16" cx="228" cy="238.55" r="1.31"/><circle class="cls-16" cx="232.35" cy="235.16" r="1.31"/><circle class="cls-16" cx="218.28" cy="241.49" r="1.6"/><circle class="cls-16" cx="195.53" cy="219.05" r="1.31"/><circle class="cls-16" cx="203.46" cy="212.61" r="1.31"/><circle class="cls-16" cx="193.75" cy="226.11" r="1.87"/><circle class="cls-16" cx="147.85" cy="278.1" r="1.6"/><circle class="cls-16" cx="178.77" cy="209.89" r="1.31"/><circle class="cls-16" cx="153.03" cy="270.87" r="1.87"/><circle class="cls-16" cx="155.99" cy="243.42" r="1.6"/><circle class="cls-16" cx="175.6" cy="217.68" r="1.31"/><circle class="cls-16" cx="168.34" cy="228.51" r="1.6"/><circle class="cls-16" cx="192.87" cy="233.47" r="1.31"/><circle class="cls-16" cx="169.06" cy="235.78" r="1.6"/><circle class="cls-16" cx="186.2" cy="230.94" r="1.31"/><circle class="cls-16" cx="197.91" cy="252.41" r="1.87"/><circle class="cls-16" cx="190.94" cy="251.75" r="1.6"/><circle class="cls-16" cx="240.06" cy="240.7" r="1.31"/><circle class="cls-16" cx="204.11" cy="238.13" r="1.6"/><circle class="cls-16" cx="274.01" cy="252.98" r="1.31"/><circle class="cls-16" cx="271.7" cy="260.58" r="1.87"/><circle class="cls-16" cx="253.71" cy="235.99" r="1.31"/><circle class="cls-16" cx="251.93" cy="243.05" r="1.87"/><circle class="cls-16" cx="235.51" cy="253.92" r="1.87"/><circle class="cls-16" cx="229.49" cy="252.84" r="1.6"/><circle class="cls-16" cx="251.06" cy="250.41" r="1.31"/><circle class="cls-16" cx="244.38" cy="247.88" r="1.31"/><circle class="cls-16" cx="249.12" cy="268.69" r="1.6"/><circle class="cls-16" cx="253.95" cy="275.52" r="1.87"/><circle class="cls-16" cx="262.3" cy="255.07" r="1.6"/><circle class="cls-16" cx="251.25" cy="225.44" r="1.6"/><circle class="cls-16" cx="222.83" cy="227.07" r="1.87"/><circle class="cls-16" cx="229.47" cy="224.64" r="1.31"/><circle class="cls-16" cx="234.97" cy="211.79" r="1.87"/><circle class="cls-16" cx="240.9" cy="213.31" r="1.6"/><circle class="cls-16" cx="225.68" cy="217.17" r="1.31"/><circle class="cls-16" cx="193.31" cy="207.65" r="1.6"/><circle class="cls-16" cx="214.88" cy="205.23" r="1.31"/><circle class="cls-16" cx="208.21" cy="202.69" r="1.31"/><circle class="cls-16" cx="178" cy="299.57" r="1.31"/><circle class="cls-16" cx="190.17" cy="302.08" r="1.31"/><circle class="cls-16" cx="194.52" cy="298.69" r="1.31"/><circle class="cls-16" cx="180.46" cy="305.02" r="1.6"/><circle class="cls-16" cx="166.48" cy="284.4" r="1.31"/><circle class="cls-16" cx="155.92" cy="289.64" r="1.87"/><circle class="cls-16" cx="155.05" cy="297" r="1.31"/><circle class="cls-16" cx="148.37" cy="294.47" r="1.31"/><circle class="cls-16" cx="160.09" cy="315.94" r="1.87"/><circle class="cls-16" cx="166.29" cy="301.66" r="1.6"/><circle class="cls-16" cx="169.95" cy="278.5" r="1.6"/><circle class="cls-16" cx="197.68" cy="317.45" r="1.87"/><circle class="cls-16" cx="191.66" cy="316.37" r="1.6"/><circle class="cls-16" cx="176.07" cy="252.25" r="1.31"/><circle class="cls-16" cx="183.58" cy="267.62" r="1.87"/><circle class="cls-16" cx="185" cy="290.6" r="1.87"/><circle class="cls-16" cx="181.38" cy="277.69" r="1.31"/><circle class="cls-16" cx="159.59" cy="269.03" r="1.31"/><circle class="cls-16" cx="149.48" cy="254.63" r="1.31"/><circle class="cls-16" cx="153.8" cy="256.99" r="1.6"/><circle class="cls-16" cx="165.23" cy="256.18" r="1.31"/><circle class="cls-16" cx="189.17" cy="258.92" r="1.31"/><circle class="cls-16" cx="175.41" cy="239.59" r="1.31"/><circle class="cls-16" cx="226.57" cy="266.11" r="1.31"/><circle class="cls-16" cx="225.81" cy="260.65" r="1.31"/><circle class="cls-16" cx="199.41" cy="277.78" r="1.31"/><circle class="cls-16" cx="243.64" cy="267.29" r="1.87"/><circle class="cls-16" cx="239.68" cy="271.96" r="1.6"/><circle class="cls-16" cx="214.04" cy="264.84" r="1.87"/><circle class="cls-16" cx="201.05" cy="261.52" r="1.31"/><circle class="cls-16" cx="192.58" cy="336.85" r="1.31"/><circle class="cls-16" cx="211.84" cy="333.24" r="1.87"/><circle class="cls-16" cx="210.67" cy="340.15" r="1.6"/><circle class="cls-16" cx="198.07" cy="325.99" r="1.6"/><circle class="cls-16" cx="218.59" cy="316.35" r="1.31"/><circle class="cls-16" cx="221.16" cy="330.79" r="1.31"/><circle class="cls-16" cx="217.51" cy="324.66" r="1.31"/><circle class="cls-16" cx="249.52" cy="278.17" r="1.31"/><circle class="cls-16" cx="252.33" cy="291.87" r="1.87"/><circle class="cls-16" cx="246.59" cy="294" r="1.6"/><circle class="cls-16" cx="271.56" cy="297.66" r="1.6"/><circle class="cls-16" cx="248.44" cy="319.1" r="1.31"/><circle class="cls-16" cx="250.84" cy="306.91" r="1.31"/><circle class="cls-16" cx="247.4" cy="302.59" r="1.31"/><circle class="cls-16" cx="253.87" cy="316.59" r="1.6"/><circle class="cls-16" cx="266.13" cy="299.24" r="1.87"/><circle class="cls-16" cx="265.1" cy="305.28" r="1.6"/><circle class="cls-16" cx="239.4" cy="312.19" r="1.87"/><circle class="cls-16" cx="236.91" cy="305.57" r="1.31"/><circle class="cls-16" cx="229.47" cy="309.44" r="1.31"/><circle class="cls-16" cx="258.75" cy="290.34" r="1.31"/><circle class="cls-16" cx="256.44" cy="300.22" r="1.6"/><circle class="cls-16" cx="270.69" cy="276.06" r="1.31"/><circle class="cls-16" cx="266.44" cy="272.54" r="1.31"/><circle class="cls-16" cx="275.64" cy="284.91" r="1.6"/><circle class="cls-16" cx="216.21" cy="285.73" r="1.31"/><circle class="cls-16" cx="211.17" cy="280.68" r="1.31"/><circle class="cls-16" cx="213.02" cy="305.07" r="1.87"/><circle class="cls-16" cx="206.94" cy="301.6" r="1.6"/><circle class="cls-16" cx="212.14" cy="314.66" r="1.31"/><circle class="cls-16" cx="233.37" cy="301.07" r="1.31"/><circle class="cls-16" cx="239.32" cy="301.67" r="1.6"/><circle class="cls-16" cx="229.1" cy="290.52" r="1.87"/><circle class="cls-16" cx="230.32" cy="283.55" r="1.31"/><circle class="cls-16" cx="221.95" cy="283.1" r="1.31"/></g><g><g><path class="cls-16" d="m179.51,257.33c-1.31-2.91,0-6.35,2.91-7.66s6.35,0,7.66,2.91,0,6.35-2.91,7.66-6.35,0-7.66-2.91Zm7.92-3.57c-.65-1.45-2.37-2.11-3.83-1.45s-2.11,2.37-1.45,3.83,2.37,2.11,3.83,1.45,2.11-2.37,1.45-3.83Z"/><path class="cls-16" d="m197.8,264.29c-1.53-3.4,0-7.4,3.39-8.93s7.4,0,8.93,3.39,0,7.4-3.39,8.93-7.4,0-8.93-3.39Zm9.67-4.35c-.87-1.94-3.16-2.8-5.09-1.93s-2.8,3.16-1.93,5.09,3.16,2.8,5.09,1.93,2.8-3.16,1.93-5.09Z"/><path class="cls-16" d="m203.19,279.57c-.81-1.8,0-3.92,1.79-4.73s3.92,0,4.73,1.79,0,3.92-1.79,4.73-3.92,0-4.73-1.79Zm3.87-1.74c-.15-.34-.55-.49-.89-.34s-.49.55-.34.89.55.49.89.34.49-.55.34-.89Z"/><path class="cls-16" d="m247.05,284.65c-.81-1.8,0-3.92,1.79-4.73s3.92,0,4.73,1.79,0,3.92-1.79,4.73-3.92,0-4.73-1.79Zm3.87-1.74c-.15-.34-.55-.49-.89-.34s-.49.55-.34.89.55.49.89.34.49-.55.34-.89Z"/><path class="cls-16" d="m256.28,293.75c-.77-1.72-1.08-3.79-.87-5.9.52-5.2,3.93-8.97,7.75-8.58,3.82.39,6.41,4.76,5.88,9.96-.24,2.38-1.12,4.57-2.47,6.17-1.48,1.75-3.36,2.61-5.29,2.41-1.93-.19-3.59-1.41-4.7-3.42-.11-.21-.22-.42-.32-.64Zm9.24-9.25c-.6-1.33-1.54-2.22-2.65-2.34-2.13-.22-4.23,2.53-4.58,5.98-.18,1.78.13,3.54.84,4.85.36.67,1.17,1.8,2.44,1.93h0c1.28.13,2.29-.82,2.78-1.4.96-1.14,1.62-2.81,1.8-4.58.17-1.65-.09-3.23-.64-4.44Z"/><path class="cls-16" d="m160.85,232.42c-.67-1.48-.79-3.26-.35-5.17.59-2.5,2.11-4.97,4.29-6.96s4.78-3.27,7.33-3.62c2.75-.38,5.12.36,6.68,2.07,1.56,1.71,2.07,4.14,1.44,6.84-.59,2.5-2.11,4.97-4.29,6.96-4.72,4.3-10.88,4.99-14,1.55h0c-.45-.5-.82-1.06-1.09-1.67Zm16.38-10.84c-.15-.33-.34-.63-.58-.9-.9-.99-2.37-1.39-4.14-1.15-1.97.27-4.02,1.3-5.77,2.89-1.75,1.59-2.96,3.54-3.42,5.48-.41,1.74-.14,3.24.76,4.23h0c1.97,2.16,6.5,1.36,9.91-1.74,1.75-1.59,2.96-3.54,3.42-5.48.3-1.27.23-2.42-.18-3.33Z"/><path class="cls-16" d="m150.63,313.75c-.94-2.08-1.4-4.25-1.33-6.3.11-2.97,1.32-5.34,3.41-6.67s4.75-1.42,7.49-.26c2.55,1.09,4.9,3.16,6.6,5.85,1.71,2.69,2.59,5.69,2.5,8.46-.11,2.97-1.32,5.34-3.41,6.67-2.09,1.33-4.75,1.42-7.49.26-2.55-1.09-4.9-3.16-6.6-5.85-.45-.7-.84-1.43-1.17-2.16Zm14.68-4.06c-.27-.59-.58-1.18-.95-1.76-2.73-4.29-7.35-6.44-10.09-4.7-2.74,1.74-2.75,6.84-.02,11.13,2.73,4.29,7.35,6.44,10.09,4.7,2.37-1.51,2.7-5.53.97-9.37Z"/></g><g><path class="cls-22" d="m217.74,335.19c-.98-2.18,0-4.76,2.18-5.74s4.76,0,5.74,2.18,0,4.76-2.18,5.74-4.76,0-5.74-2.18Zm5.27-2.37c-.33-.72-1.18-1.05-1.9-.72s-1.05,1.18-.72,1.9,1.18,1.05,1.91.72,1.05-1.18.72-1.91Z"/><path class="cls-22" d="m176.9,237.39c-.98-2.18,0-4.76,2.18-5.74s4.76,0,5.74,2.18,0,4.76-2.18,5.74-4.76,0-5.74-2.18Zm5.27-2.37c-.33-.72-1.18-1.05-1.9-.72s-1.05,1.18-.72,1.91,1.18,1.05,1.9.72,1.05-1.18.72-1.9Z"/><path class="cls-22" d="m212.92,215.33c-.46-1.02-.67-2.1-.61-3.2h0c.14-2.47,1.61-4.68,4.14-6.23,2.36-1.44,5.41-2.14,8.58-1.96,3.17.17,6.13,1.2,8.32,2.89,2.35,1.81,3.57,4.17,3.44,6.64-.14,2.47-1.61,4.68-4.14,6.23-2.36,1.44-5.41,2.14-8.58,1.96-3.17-.17-6.12-1.2-8.32-2.89-1.3-1-2.26-2.18-2.83-3.44Zm20.61-3.87c-.38-.84-1.04-1.63-1.95-2.34-1.73-1.33-4.11-2.15-6.7-2.29-2.59-.14-5.05.41-6.91,1.54-1.69,1.03-2.67,2.42-2.75,3.91h0c-.08,1.49.74,2.97,2.31,4.19,1.73,1.33,4.11,2.15,6.7,2.29,5.06.28,9.49-2.22,9.67-5.45.03-.62-.09-1.25-.36-1.85Z"/></g><g><path class="cls-15" d="m242.61,251.16c-1.06-2.36,0-5.13,2.35-6.19s5.13,0,6.19,2.35,0,5.13-2.35,6.19-5.13,0-6.19-2.35Zm5.9-2.65c-.4-.9-1.46-1.3-2.36-.89s-1.3,1.46-.89,2.36,1.46,1.3,2.36.89,1.3-1.46.89-2.36Z"/><path class="cls-15" d="m241.5,296.51c-.68-1.5-.95-3.3-.76-5.14.46-4.55,3.47-7.85,6.85-7.51,3.38.34,5.67,4.18,5.21,8.73-.21,2.07-.97,3.98-2.16,5.38-1.29,1.53-3,2.3-4.69,2.13-1.69-.17-3.21-1.27-4.17-3.03-.1-.18-.19-.37-.28-.56Zm7.88-7.89c-.48-1.06-1.22-1.79-2.08-1.88-1.67-.17-3.39,2.13-3.67,4.92-.15,1.47.1,2.94.7,4.01.29.53.93,1.44,1.92,1.54h0c.99.1,1.8-.66,2.19-1.12.79-.94,1.34-2.32,1.48-3.79.14-1.36-.08-2.67-.54-3.67Z"/></g><g><path class="cls-20" d="m155.21,294.04c-1.31-2.91,0-6.35,2.91-7.66s6.35,0,7.66,2.91,0,6.35-2.91,7.66-6.35,0-7.66-2.91Zm7.92-3.57c-.65-1.45-2.37-2.11-3.83-1.45s-2.11,2.37-1.45,3.83,2.37,2.11,3.83,1.45,2.11-2.37,1.45-3.83Z"/><path class="cls-20" d="m256.03,310.02c-1.31-2.91,0-6.35,2.91-7.66s6.35,0,7.66,2.91,0,6.35-2.91,7.66-6.35,0-7.66-2.91Zm7.92-3.57c-.65-1.45-2.37-2.11-3.83-1.45s-2.11,2.37-1.45,3.83,2.37,2.11,3.83,1.45,2.11-2.37,1.45-3.83Z"/><path class="cls-20" d="m160.22,244.26c-.77-1.72-1.08-3.79-.87-5.9.24-2.38,1.12-4.57,2.47-6.17,1.48-1.75,3.36-2.61,5.29-2.41,1.93.19,3.59,1.41,4.7,3.42,1.01,1.84,1.43,4.16,1.19,6.53-.52,5.2-3.93,8.97-7.75,8.58h0c-1.93-.19-3.59-1.41-4.7-3.42-.11-.21-.22-.42-.32-.64Zm9.25-9.23c-.07-.15-.14-.29-.21-.43-.36-.67-1.17-1.8-2.44-1.93-1.28-.13-2.29.82-2.78,1.4-.96,1.14-1.62,2.81-1.8,4.58-.18,1.78.13,3.54.84,4.85.36.67,1.17,1.8,2.44,1.93,2.13.22,4.23-2.53,4.58-5.98.16-1.59-.07-3.17-.63-4.42Z"/><path class="cls-20" d="m198.57,338.5c-.56-1.25-.67-2.59-.19-3.83,1.16-3.05,5.28-4.23,9.38-2.67,4.1,1.55,6.4,5.16,5.25,8.22h0c-1.16,3.05-5.28,4.23-9.38,2.67-2.43-.92-4.23-2.57-5.05-4.39Zm11.6-.89c-.53-1.19-1.95-2.33-3.45-2.9-2.17-.82-5.02-.62-5.63.99-.61,1.61,1.39,3.65,3.56,4.48,2.17.82,5.02.62,5.63-.99.19-.5.13-1.04-.11-1.58Z"/><path class="cls-20" d="m201.26,207.71c-.58-1.29-.66-2.64-.21-3.83,1.16-3.05,5.28-4.23,9.38-2.67,4.1,1.55,6.4,5.16,5.25,8.22-1.16,3.05-5.28,4.23-9.38,2.67-1.86-.71-3.44-1.89-4.43-3.32-.24-.35-.44-.7-.6-1.06Zm11.59-.89c-.53-1.19-1.95-2.33-3.45-2.9-2.17-.82-5.02-.62-5.63.99-.32.85.16,1.75.48,2.21.66.95,1.78,1.77,3.08,2.26,2.17.82,5.02.62,5.63-.99.19-.5.13-1.04-.11-1.58Z"/></g><g><path class="cls-17" d="m238.01,263.74c-.65-1.45-.95-3.24-.75-5.15.21-2.07.98-3.98,2.16-5.38,1.29-1.53,3-2.3,4.69-2.13,3.38.34,5.67,4.18,5.21,8.73-.21,2.07-.98,3.98-2.16,5.38-1.29,1.53-3,2.3-4.69,2.13h0c-1.96-.2-3.55-1.57-4.46-3.58Zm7.88-7.9c-.48-1.06-1.22-1.79-2.08-1.88-.99-.1-1.8.66-2.19,1.12-.79.94-1.34,2.32-1.48,3.79-.28,2.79.94,5.38,2.61,5.55h0c.99.1,1.8-.66,2.19-1.12.79-.94,1.34-2.32,1.48-3.79.14-1.36-.08-2.67-.54-3.67Z"/><path class="cls-17" d="m140.4,298.1c-.68-1.5-.95-3.3-.76-5.14.21-2.07.97-3.98,2.16-5.38,1.29-1.53,3-2.3,4.69-2.13,1.69.17,3.21,1.27,4.17,3.03.88,1.6,1.25,3.63,1.04,5.7-.46,4.55-3.47,7.85-6.85,7.51h0c-1.69-.17-3.21-1.27-4.17-3.03-.1-.18-.19-.37-.28-.56Zm7.89-7.88c-.05-.12-.11-.24-.17-.35-.29-.53-.93-1.44-1.92-1.54-.99-.1-1.8.66-2.19,1.12-.79.94-1.34,2.32-1.48,3.79-.15,1.47.11,2.94.7,4.01.29.53.93,1.44,1.92,1.54,1.67.17,3.39-2.13,3.67-4.92.13-1.32-.06-2.63-.52-3.66Z"/><path class="cls-17" d="m230.15,244.21c-.93-2.07-.69-4.25.78-5.48.96-.81,2.32-1.05,3.72-.66,1.22.34,2.41,1.13,3.33,2.23,2.06,2.46,2.2,5.63.32,7.21h0c-1.89,1.58-4.98.89-7.05-1.57-.46-.55-.83-1.14-1.1-1.73Zm6.26-1c-.15-.34-.37-.7-.66-1.04-.54-.64-1.23-1.12-1.88-1.3-.22-.06-.76-.17-1.08.09-.46.39-.43,1.8.68,3.12,1.11,1.32,2.49,1.6,2.96,1.21.34-.29.41-1.13-.01-2.08Z"/></g></g></g></g><g><circle class="cls-12" cx="885.79" cy="177.84" r="177.84"/><g><g><circle class="cls-17" cx="885.79" cy="177.84" r="142.58"/><circle class="cls-19" cx="885.79" cy="177.84" r="132.6"/><circle class="cls-17" cx="869.61" cy="165.39" r="100.29"/><circle class="cls-26" cx="858.6" cy="152.16" r="68.23"/></g><g class="cls-27"><circle class="cls-16" cx="830.28" cy="141.27" r="2.47"/><circle class="cls-16" cx="844.05" cy="122.26" r="2.47"/><circle class="cls-16" cx="841.58" cy="112.14" r="2.47"/><circle class="cls-16" cx="841.58" cy="141.27" r="3.01"/><circle class="cls-16" cx="785.28" cy="163.08" r="2.47"/><circle class="cls-16" cx="780.33" cy="144.41" r="2.47"/><circle class="cls-16" cx="796.06" cy="171.61" r="3.53"/><circle class="cls-16" cx="850.03" cy="290.99" r="3.01"/><circle class="cls-16" cx="756.51" cy="184.83" r="2.47"/><circle class="cls-16" cx="841.58" cy="276.47" r="3.53"/><circle class="cls-16" cx="796.59" cy="250.07" r="3.01"/><circle class="cls-16" cx="767.45" cy="196.34" r="2.47"/><circle class="cls-16" cx="780.49" cy="217.24" r="3.01"/><circle class="cls-16" cx="808.06" cy="178.83" r="2.47"/><circle class="cls-16" cx="793.58" cy="221.64" r="3.01"/><circle class="cls-16" cx="798.53" cy="188.36" r="2.47"/><circle class="cls-16" cx="844.6" cy="184.83" r="3.53"/><circle class="cls-16" cx="838.05" cy="196.34" r="3.01"/><circle class="cls-16" cx="857.1" cy="103.15" r="2.47"/><circle class="cls-16" cx="824.8" cy="163.08" r="3.01"/><circle class="cls-16" cx="904.58" cy="54.17" r="2.47"/><circle class="cls-16" cx="915.87" cy="64.06" r="3.53"/><circle class="cls-16" cx="859.57" cy="75.98" r="2.47"/><circle class="cls-16" cx="870.35" cy="84.51" r="3.53"/><circle class="cls-16" cx="876.35" cy="121.24" r="3.53"/><circle class="cls-16" cx="869.81" cy="130.77" r="3.01"/><circle class="cls-16" cx="882.35" cy="91.73" r="2.47"/><circle class="cls-16" cx="872.82" cy="101.26" r="2.47"/><circle class="cls-16" cx="912.34" cy="109.24" r="3.01"/><circle class="cls-16" cx="927.86" cy="106.23" r="3.53"/><circle class="cls-16" cx="899.09" cy="75.98" r="3.01"/><circle class="cls-16" cx="839.49" cy="72.04" r="3.01"/><circle class="cls-16" cx="820.26" cy="122.26" r="3.53"/><circle class="cls-16" cx="821.23" cy="108.93" r="2.47"/><circle class="cls-16" cx="803.35" cy="89.49" r="3.53"/><circle class="cls-16" cx="810.57" cy="80.46" r="3.01"/><circle class="cls-16" cx="805.41" cy="109.67" r="2.47"/><circle class="cls-16" cx="763.92" cy="158.05" r="3.01"/><circle class="cls-16" cx="776.47" cy="119.01" r="2.47"/><circle class="cls-16" cx="766.93" cy="128.54" r="2.47"/><circle class="cls-16" cx="910.39" cy="255.69" r="2.47"/><circle class="cls-16" cx="924.16" cy="236.68" r="2.47"/><circle class="cls-16" cx="921.69" cy="226.56" r="2.47"/><circle class="cls-16" cx="921.69" cy="255.69" r="3.01"/><circle class="cls-16" cx="875.32" cy="263.78" r="2.47"/><circle class="cls-16" cx="876.16" cy="286.03" r="3.53"/><circle class="cls-16" cx="888.17" cy="293.25" r="2.47"/><circle class="cls-16" cx="878.63" cy="302.78" r="2.47"/><circle class="cls-16" cx="924.7" cy="299.25" r="3.53"/><circle class="cls-16" cx="904.91" cy="277.5" r="3.01"/><circle class="cls-16" cx="867.85" cy="253.22" r="3.01"/><circle class="cls-16" cx="956.46" cy="235.66" r="3.53"/><circle class="cls-16" cx="949.91" cy="245.19" r="3.01"/><circle class="cls-16" cx="827.37" cy="222.34" r="2.47"/><circle class="cls-16" cx="859.67" cy="221.32" r="3.53"/><circle class="cls-16" cx="900.36" cy="236.68" r="3.53"/><circle class="cls-16" cx="875.32" cy="232.9" r="2.47"/><circle class="cls-16" cx="843.5" cy="263.73" r="2.47"/><circle class="cls-16" cx="810.86" cy="269.99" r="2.47"/><circle class="cls-16" cx="818.28" cy="264.37" r="3.01"/><circle class="cls-16" cx="825.74" cy="244.05" r="2.47"/><circle class="cls-16" cx="849.02" cy="204.94" r="2.47"/><circle class="cls-16" cx="805.05" cy="213.65" r="2.47"/><circle class="cls-16" cx="890.41" cy="146.08" r="2.47"/><circle class="cls-16" cx="880.41" cy="143.16" r="2.47"/><circle class="cls-16" cx="889.46" cy="201.93" r="2.47"/><circle class="cls-16" cx="905.68" cy="117.6" r="3.53"/><circle class="cls-16" cx="910.66" cy="128.04" r="3.01"/><circle class="cls-16" cx="878.51" cy="166.69" r="3.53"/><circle class="cls-16" cx="862.72" cy="186.49" r="2.47"/><circle class="cls-16" cx="985.91" cy="259.49" r="2.47"/><circle class="cls-16" cx="994.63" cy="223.51" r="3.53"/><circle class="cls-16" cx="1005.62" cy="230.89" r="3.01"/><circle class="cls-16" cx="971.46" cy="241.62" r="3.01"/><circle class="cls-16" cx="970.77" cy="198.79" r="2.47"/><circle class="cls-16" cx="997.65" cy="205.56" r="2.47"/><circle class="cls-16" cx="984.25" cy="207.09" r="2.47"/><circle class="cls-16" cx="928.99" cy="115.9" r="2.47"/><circle class="cls-16" cx="954.76" cy="121.68" r="3.53"/><circle class="cls-16" cx="953.98" cy="133.22" r="3.01"/><circle class="cls-16" cx="979.65" cy="93.04" r="3.01"/><circle class="cls-16" cx="998.66" cy="149.5" r="2.47"/><circle class="cls-16" cx="979.51" cy="135.92" r="2.47"/><circle class="cls-16" cx="969.41" cy="138.49" r="2.47"/><circle class="cls-16" cx="998.54" cy="138.2" r="3.01"/><circle class="cls-16" cx="978.16" cy="103.64" r="3.53"/><circle class="cls-16" cx="987.76" cy="110.09" r="3.01"/><circle class="cls-16" cx="979.74" cy="159.72" r="3.53"/><circle class="cls-16" cx="966.41" cy="158.87" r="2.47"/><circle class="cls-16" cx="967.3" cy="174.68" r="2.47"/><circle class="cls-16" cx="957.1" cy="109.44" r="2.47"/><circle class="cls-16" cx="972.33" cy="121.08" r="3.01"/><circle class="cls-16" cx="941.75" cy="77.81" r="2.47"/><circle class="cls-16" cx="932.4" cy="82.39" r="2.47"/><circle class="cls-16" cx="960.85" cy="76.13" r="3.01"/><circle class="cls-16" cx="916.18" cy="179.14" r="2.47"/><circle class="cls-16" cx="903.57" cy="183.91" r="2.47"/><circle class="cls-16" cx="947.02" cy="199.63" r="3.53"/><circle class="cls-16" cx="936.32" cy="207.43" r="3.01"/><circle class="cls-16" cx="962.86" cy="208.59" r="2.47"/><circle class="cls-16" cx="955.9" cy="161.48" r="2.47"/><circle class="cls-16" cx="961.55" cy="151.7" r="3.01"/><circle class="cls-16" cx="934.42" cy="160.66" r="3.53"/><circle class="cls-16" cx="923.37" cy="153.15" r="2.47"/><circle class="cls-16" cx="916.09" cy="167.22" r="2.47"/></g><g><g><path class="cls-17" d="m883.2,290.68c-6.04,0-10.95-4.91-10.95-10.95s4.91-10.95,10.95-10.95,10.95,4.91,10.95,10.95-4.91,10.95-10.95,10.95Zm0-16.41c-3.01,0-5.47,2.45-5.47,5.47s2.45,5.47,5.47,5.47,5.47-2.45,5.47-5.47-2.45-5.47-5.47-5.47Z"/><path class="cls-17" d="m988.89,129.38c-6.04,0-10.95-4.91-10.95-10.95s4.91-10.95,10.95-10.95,10.95,4.91,10.95,10.95-4.91,10.95-10.95,10.95Zm0-16.41c-3.01,0-5.47,2.45-5.47,5.47s2.45,5.47,5.47,5.47,5.47-2.45,5.47-5.47-2.45-5.47-5.47-5.47Z"/></g><g><path class="cls-16" d="m838.79,220.34c-6.04,0-10.95-4.91-10.95-10.95s4.91-10.95,10.95-10.95,10.95,4.91,10.95,10.95-4.91,10.95-10.95,10.95Zm0-16.41c-3.01,0-5.47,2.45-5.47,5.47s2.45,5.47,5.47,5.47,5.47-2.45,5.47-5.47-2.45-5.47-5.47-5.47Z"/><path class="cls-16" d="m864.97,194.24c-7.04,0-12.76-5.72-12.76-12.76s5.72-12.76,12.76-12.76,12.76,5.72,12.76,12.76-5.72,12.76-12.76,12.76Zm0-20.04c-4.01,0-7.28,3.27-7.28,7.28s3.27,7.28,7.28,7.28,7.28-3.26,7.28-7.28-3.26-7.28-7.28-7.28Z"/><path class="cls-16" d="m895.48,196.79c-3.72,0-6.75-3.03-6.75-6.75s3.03-6.75,6.75-6.75,6.75,3.03,6.75,6.75-3.03,6.75-6.75,6.75Zm0-8.02c-.7,0-1.27.57-1.27,1.27s.57,1.27,1.27,1.27,1.27-.57,1.27-1.27-.57-1.27-1.27-1.27Z"/><path class="cls-16" d="m938.23,125.18c-3.72,0-6.75-3.03-6.75-6.75s3.03-6.75,6.75-6.75,6.75,3.03,6.75,6.75-3.03,6.75-6.75,6.75Zm0-8.02c-.7,0-1.27.57-1.27,1.27s.57,1.27,1.27,1.27,1.27-.57,1.27-1.27-.57-1.27-1.27-1.27Z"/><path class="cls-16" d="m877.09,106.86c-4.88,0-8.85-3.97-8.85-8.85s3.97-8.85,8.85-8.85,8.85,3.97,8.85,8.85-3.97,8.85-8.85,8.85Zm0-12.22c-1.86,0-3.37,1.51-3.37,3.37s1.51,3.37,3.37,3.37,3.37-1.51,3.37-3.37-1.51-3.37-3.37-3.37Z"/><path class="cls-16" d="m961.06,116.35c-3.56,0-7.36-1.07-10.83-3.07-8.55-4.93-12.4-13.72-8.77-20.01,3.63-6.29,13.17-7.35,21.71-2.41,3.91,2.26,7,5.47,8.71,9.03,1.87,3.91,1.89,7.81.06,10.98-1.83,3.17-5.21,5.1-9.54,5.44-.44.03-.89.05-1.35.05Zm-8.77-23.1c-2.75,0-5.03.92-6.08,2.75-2.02,3.5,1.07,9.24,6.76,12.52,2.92,1.69,6.2,2.53,9.01,2.3,1.43-.11,4.01-.61,5.22-2.71h0c1.21-2.1.36-4.58-.26-5.87-1.21-2.54-3.58-4.96-6.5-6.65-2.72-1.57-5.63-2.35-8.14-2.35Z"/><path class="cls-16" d="m781.42,233.17c-3.07,0-6.23-1.16-9.18-3.41-3.86-2.95-6.93-7.49-8.66-12.78s-1.93-10.77-.56-15.43c1.48-5.02,4.58-8.54,8.74-9.9,4.16-1.36,8.74-.36,12.9,2.82,3.86,2.95,6.93,7.49,8.66,12.78,3.75,11.48.16,22.6-8.19,25.33h0c-1.21.4-2.46.59-3.72.59Zm-5.96-36.63c-.69,0-1.36.1-2,.31-2.39.78-4.24,3-5.19,6.24-1.06,3.61-.88,7.93.51,12.18,1.39,4.25,3.8,7.85,6.78,10.13,2.68,2.05,5.48,2.75,7.87,1.97h0c5.24-1.71,7.38-10.15,4.68-18.42-1.39-4.25-3.8-7.85-6.78-10.13-1.96-1.5-3.99-2.28-5.87-2.28Z"/><path class="cls-16" d="m913.6,313.84c-4.31,0-8.41-.89-11.88-2.6-5.04-2.49-8.18-6.41-8.85-11.05s1.24-9.29,5.36-13.1c3.85-3.55,9.25-5.98,15.2-6.84,5.95-.86,11.82-.06,16.51,2.26,5.04,2.49,8.18,6.41,8.85,11.05.67,4.64-1.24,9.29-5.36,13.1-3.85,3.55-9.25,5.98-15.2,6.84-1.56.22-3.11.34-4.63.34Zm4.38-28.43c-1.23,0-2.49.09-3.76.27-9.51,1.37-16.8,7.66-15.92,13.73.88,6.07,9.65,10.04,19.16,8.67,9.51-1.37,16.8-7.66,15.92-13.73-.76-5.26-7.44-8.94-15.39-8.94Z"/></g><g><path class="cls-23" d="m1002.56,214.85c-4.52,0-8.2-3.68-8.2-8.2s3.68-8.2,8.2-8.2,8.2,3.68,8.2,8.2-3.68,8.2-8.2,8.2Zm0-10.92c-1.5,0-2.72,1.22-2.72,2.72s1.22,2.72,2.72,2.72,2.72-1.22,2.72-2.72-1.22-2.72-2.72-2.72Z"/><path class="cls-23" d="m802.43,209.39c-4.52,0-8.2-3.68-8.2-8.2s3.68-8.2,8.2-8.2,8.2,3.68,8.2,8.2-3.68,8.2-8.2,8.2Zm0-10.92c-1.5,0-2.72,1.22-2.72,2.72s1.22,2.72,2.72,2.72,2.72-1.22,2.72-2.72-1.22-2.72-2.72-2.72Z"/><path class="cls-23" d="m878.71,319.32c-3.11,0-6.42-.93-9.44-2.68-3.41-1.97-6.1-4.77-7.59-7.88-1.63-3.41-1.64-6.96-.04-9.74,1.6-2.78,4.69-4.54,8.45-4.84,3.44-.27,7.22.66,10.62,2.63,7.49,4.32,10.84,12.06,7.63,17.62h0c-1.6,2.78-4.69,4.54-8.45,4.84-.39.03-.78.05-1.18.05Zm-7.45-19.7c-.25,0-.5,0-.74.03-1.14.09-3.19.48-4.13,2.11-.94,1.63-.26,3.61.24,4.64,1,2.1,2.96,4.1,5.38,5.5,2.42,1.4,5.14,2.1,7.45,1.91,1.14-.09,3.19-.48,4.14-2.11,1.59-2.75-1.04-7.49-5.62-10.14-2.17-1.25-4.57-1.94-6.72-1.94Z"/><path class="cls-23" d="m792.36,130.22c-2.11,0-4.13-.48-5.98-1.43h0c-4.15-2.15-6.82-6.4-7.52-11.96-.65-5.19.51-10.98,3.27-16.3,2.76-5.33,6.81-9.62,11.42-12.09,4.94-2.65,9.95-2.92,14.11-.77,4.15,2.15,6.82,6.4,7.52,11.96.65,5.19-.51,10.98-3.27,16.3-2.76,5.33-6.81,9.62-11.42,12.09-2.74,1.47-5.5,2.2-8.13,2.2Zm9.32-38.5c-1.73,0-3.62.52-5.54,1.55-3.64,1.95-6.89,5.42-9.14,9.77-2.25,4.35-3.21,9.01-2.7,13.11.46,3.72,2.1,6.48,4.6,7.77h0c2.5,1.29,5.7,1.03,9-.73,3.64-1.95,6.89-5.42,9.14-9.77,4.4-8.51,3.53-18.07-1.9-20.88-1.05-.54-2.22-.81-3.46-.81Z"/></g><g><path class="cls-26" d="m954.36,143.94c-3.11,0-6.42-.93-9.44-2.68-7.49-4.32-10.84-12.06-7.63-17.62,3.21-5.56,11.59-6.53,19.08-2.21,3.41,1.97,6.1,4.77,7.59,7.88,1.63,3.41,1.64,6.96.04,9.74-1.6,2.78-4.69,4.54-8.45,4.84-.39.03-.78.05-1.18.05Zm-7.48-19.69c-2.2,0-4.03.71-4.85,2.13-1.59,2.75,1.04,7.49,5.62,10.14,2.42,1.4,5.14,2.1,7.45,1.91,1.14-.09,3.19-.48,4.13-2.11h0c.94-1.63.26-3.61-.24-4.64-1-2.1-2.96-4.1-5.38-5.5-2.23-1.29-4.66-1.93-6.74-1.93Z"/><path class="cls-26" d="m801.32,243.43c-3.56,0-7.36-1.07-10.83-3.07-3.91-2.26-7-5.47-8.71-9.03-1.87-3.91-1.89-7.81-.06-10.98,1.83-3.17,5.21-5.1,9.54-5.44,3.94-.31,8.27.76,12.18,3.02,8.55,4.93,12.4,13.72,8.77,20.01h0c-1.83,3.17-5.21,5.1-9.54,5.44-.44.03-.89.05-1.35.05Zm-8.73-23.09c-.3,0-.6.01-.9.03-1.43.11-4.01.61-5.22,2.71-1.21,2.1-.36,4.58.26,5.87,1.21,2.54,3.58,4.96,6.5,6.65,2.92,1.69,6.2,2.52,9.01,2.31,1.43-.11,4.01-.61,5.22-2.71,2.02-3.5-1.07-9.24-6.76-12.52-2.61-1.51-5.52-2.34-8.11-2.34Z"/><path class="cls-26" d="m993.4,250.44c-2.59,0-4.97-.86-6.75-2.64-4.36-4.36-3.19-12.37,2.66-18.23,5.86-5.86,13.86-7.03,18.23-2.66h0c4.36,4.36,3.19,12.37-2.66,18.23-3.47,3.47-7.7,5.3-11.48,5.3Zm7.46-20.68c-2.46,0-5.53,1.55-7.67,3.69-3.11,3.11-4.96,8.17-2.66,10.47,2.3,2.3,7.37.44,10.47-2.66,3.11-3.11,4.96-8.17,2.66-10.47-.71-.71-1.7-1.03-2.8-1.03Z"/><path class="cls-26" d="m770.19,144.4c-2.67,0-5.05-.91-6.76-2.61-4.36-4.36-3.19-12.37,2.66-18.23,5.86-5.86,13.86-7.03,18.23-2.66,4.36,4.36,3.19,12.37-2.66,18.23-2.66,2.66-5.91,4.46-9.16,5.06-.78.15-1.55.22-2.3.22Zm7.45-20.65c-2.46,0-5.53,1.55-7.67,3.69-3.11,3.11-4.96,8.17-2.66,10.47,1.22,1.22,3.15,1.08,4.19.88,2.14-.4,4.43-1.69,6.29-3.55,3.11-3.11,4.96-8.17,2.66-10.47-.71-.71-1.7-1.03-2.8-1.03Z"/></g><g><path class="cls-20" d="m895.2,124.54c-3.01,0-6.31-.88-9.46-2.7-3.41-1.97-6.1-4.77-7.59-7.88-1.63-3.41-1.64-6.96-.04-9.74,3.21-5.56,11.59-6.53,19.08-2.21,3.41,1.97,6.1,4.77,7.59,7.88,1.63,3.41,1.64,6.96.04,9.74h0c-1.86,3.22-5.46,4.9-9.62,4.9Zm-7.49-19.71c-2.2,0-4.03.71-4.85,2.13-.94,1.63-.26,3.61.24,4.64,1,2.1,2.96,4.1,5.38,5.5,4.58,2.65,10,2.55,11.59-.2h0c.94-1.63.26-3.61-.24-4.64-1-2.1-2.96-4.1-5.38-5.5-2.23-1.29-4.66-1.93-6.74-1.93Z"/><path class="cls-20" d="m855.47,122.95c-4.28,0-7.85-2.11-8.83-5.59-.65-2.29-.01-4.81,1.74-6.92,1.53-1.85,3.82-3.27,6.42-4,5.84-1.65,11.4.57,12.67,5.04h0c1.26,4.48-2.32,9.27-8.16,10.92-1.31.37-2.6.54-3.83.54Zm3.13-11.56c-.71,0-1.49.1-2.31.33-1.53.43-2.87,1.24-3.7,2.23-.27.33-.89,1.18-.68,1.92.31,1.1,2.77,2.14,5.9,1.25,3.14-.89,4.69-3.05,4.38-4.16-.23-.81-1.62-1.59-3.59-1.59Z"/></g></g></g></g><g><circle class="cls-31" cx="512.65" cy="532.31" r="149.4"/><g><g><circle class="cls-18" cx="512.65" cy="532.31" r="119.78"/><circle class="cls-21" cx="512.65" cy="532.31" r="111.39"/><circle class="cls-18" cx="502.99" cy="546.48" r="84.25"/><circle class="cls-25" cx="492.43" cy="556.35" r="57.32"/></g><g class="cls-27"><circle class="cls-16" cx="484.67" cy="580.63" r="2.08"/><circle class="cls-16" cx="468.05" cy="570.01" r="2.08"/><circle class="cls-16" cx="459.69" cy="572.57" r="2.08"/><circle class="cls-16" cx="484.12" cy="571.16" r="2.53"/><circle class="cls-16" cx="505.13" cy="617.32" r="2.08"/><circle class="cls-16" cx="489.72" cy="622.37" r="2.08"/><circle class="cls-16" cx="511.77" cy="607.87" r="2.97"/><circle class="cls-16" cx="609.27" cy="556.81" r="2.53"/><circle class="cls-16" cx="524.77" cy="640.39" r="2.08"/><circle class="cls-16" cx="597.5" cy="564.6" r="2.97"/><circle class="cls-16" cx="577.54" cy="603.61" r="2.53"/><circle class="cls-16" cx="533.89" cy="630.66" r="2.08"/><circle class="cls-16" cx="550.79" cy="618.71" r="2.53"/><circle class="cls-16" cx="517.24" cy="597.45" r="2.08"/><circle class="cls-16" cx="553.85" cy="607.52" r="2.53"/><circle class="cls-16" cx="525.7" cy="604.98" r="2.08"/><circle class="cls-16" cx="520.5" cy="566.52" r="2.97"/><circle class="cls-16" cx="530.47" cy="571.45" r="2.53"/><circle class="cls-16" cx="451.4" cy="559.99" r="2.08"/><circle class="cls-16" cx="503.22" cy="584.17" r="2.53"/><circle class="cls-16" cx="408.02" cy="522.55" r="2.08"/><circle class="cls-16" cx="415.76" cy="512.59" r="2.97"/><circle class="cls-16" cx="428.49" cy="559.24" r="2.08"/><circle class="cls-16" cx="435.12" cy="549.78" r="2.97"/><circle class="cls-16" cx="465.63" cy="542.97" r="2.97"/><circle class="cls-16" cx="473.95" cy="547.99" r="2.53"/><circle class="cls-16" cx="440.6" cy="539.36" r="2.08"/><circle class="cls-16" cx="449.05" cy="546.9" r="2.08"/><circle class="cls-16" cx="453.83" cy="513.37" r="2.53"/><circle class="cls-16" cx="450.55" cy="500.5" r="2.97"/><circle class="cls-16" cx="426.57" cy="526.09" r="2.53"/><circle class="cls-16" cx="426.16" cy="576.27" r="2.53"/><circle class="cls-16" cx="469.21" cy="589.96" r="2.97"/><circle class="cls-16" cx="457.99" cy="589.79" r="2.08"/><circle class="cls-16" cx="442.55" cy="605.73" r="2.97"/><circle class="cls-16" cx="434.62" cy="600.11" r="2.53"/><circle class="cls-16" cx="459.37" cy="603.02" r="2.08"/><circle class="cls-16" cx="501.96" cy="635.47" r="2.53"/><circle class="cls-16" cx="468.6" cy="626.84" r="2.08"/><circle class="cls-16" cx="477.06" cy="634.38" r="2.08"/><circle class="cls-16" cx="576.75" cy="507.9" r="2.08"/><circle class="cls-16" cx="560.13" cy="497.28" r="2.08"/><circle class="cls-16" cx="551.76" cy="499.84" r="2.08"/><circle class="cls-16" cx="576.2" cy="498.43" r="2.53"/><circle class="cls-16" cx="585.22" cy="536.93" r="2.08"/><circle class="cls-16" cx="603.85" cy="535.14" r="2.97"/><circle class="cls-16" cx="609.32" cy="524.72" r="2.08"/><circle class="cls-16" cx="617.78" cy="532.25" r="2.08"/><circle class="cls-16" cx="612.58" cy="493.79" r="2.97"/><circle class="cls-16" cx="595.3" cy="511.45" r="2.53"/><circle class="cls-16" cx="576.73" cy="543.7" r="2.53"/><circle class="cls-16" cx="557.71" cy="470.24" r="2.97"/><circle class="cls-16" cx="566.02" cy="475.27" r="2.53"/><circle class="cls-16" cx="552.8" cy="579.14" r="2.08"/><circle class="cls-16" cx="550.37" cy="552.11" r="2.97"/><circle class="cls-16" cx="561.29" cy="517.23" r="2.97"/><circle class="cls-16" cx="559.33" cy="538.42" r="2.08"/><circle class="cls-16" cx="586.73" cy="563.61" r="2.08"/><circle class="cls-16" cx="593.55" cy="590.68" r="2.08"/><circle class="cls-16" cx="588.49" cy="584.73" r="2.53"/><circle class="cls-16" cx="571.08" cy="579.46" r="2.08"/><circle class="cls-16" cx="537.15" cy="561.83" r="2.08"/><circle class="cls-16" cx="546.59" cy="598.28" r="2.08"/><circle class="cls-16" cx="485.79" cy="529.97" r="2.08"/><circle class="cls-16" cx="483.83" cy="538.5" r="2.08"/><circle class="cls-16" cx="532.67" cy="528.06" r="2.08"/><circle class="cls-16" cx="461.16" cy="518.55" r="2.97"/><circle class="cls-16" cx="469.67" cy="513.86" r="2.53"/><circle class="cls-16" cx="503.65" cy="538.95" r="2.97"/><circle class="cls-16" cx="521.02" cy="551.24" r="2.08"/><circle class="cls-16" cx="576.27" cy="444.38" r="2.08"/><circle class="cls-16" cx="545.67" cy="438.81" r="2.97"/><circle class="cls-16" cx="551.33" cy="429.24" r="2.53"/><circle class="cls-16" cx="561.98" cy="457.37" r="2.53"/><circle class="cls-16" cx="526.09" cy="460.02" r="2.08"/><circle class="cls-16" cx="530.47" cy="437.16" r="2.08"/><circle class="cls-16" cx="532.4" cy="448.32" r="2.08"/><circle class="cls-16" cx="458.6" cy="499.08" r="2.08"/><circle class="cls-16" cx="462.2" cy="477.19" r="2.97"/><circle class="cls-16" cx="471.92" cy="477.29" r="2.53"/><circle class="cls-16" cx="436.98" cy="457.7" r="2.53"/><circle class="cls-16" cx="483.41" cy="439.03" r="2.08"/><circle class="cls-16" cx="472.95" cy="455.74" r="2.08"/><circle class="cls-16" cx="475.59" cy="464.09" r="2.08"/><circle class="cls-16" cx="473.94" cy="439.67" r="2.53"/><circle class="cls-16" cx="445.94" cy="458.44" r="2.97"/><circle class="cls-16" cx="450.88" cy="450.07" r="2.53"/><circle class="cls-16" cx="492.89" cy="454.39" r="2.97"/><circle class="cls-16" cx="492.83" cy="465.62" r="2.08"/><circle class="cls-16" cx="506.05" cy="464.1" r="2.08"/><circle class="cls-16" cx="451.82" cy="475.82" r="2.08"/><circle class="cls-16" cx="460.85" cy="462.48" r="2.53"/><circle class="cls-16" cx="426.04" cy="490.22" r="2.08"/><circle class="cls-16" cx="430.34" cy="497.84" r="2.08"/><circle class="cls-16" cx="423.71" cy="474.29" r="2.53"/><circle class="cls-16" cx="512.26" cy="506.76" r="2.08"/><circle class="cls-16" cx="516.88" cy="517.1" r="2.08"/><circle class="cls-16" cx="527.95" cy="479.9" r="2.97"/><circle class="cls-16" cx="535.01" cy="488.5" r="2.53"/><circle class="cls-16" cx="534.7" cy="466.19" r="2.08"/><circle class="cls-16" cx="495.53" cy="474.3" r="2.08"/><circle class="cls-16" cx="487.05" cy="470.04" r="2.53"/><circle class="cls-16" cx="495.88" cy="492.36" r="2.97"/><circle class="cls-16" cx="490.12" cy="501.99" r="2.08"/><circle class="cls-16" cx="502.27" cy="507.41" r="2.08"/></g><g><g><path class="cls-18" d="m607.4,529.01c.29,5.06-3.59,9.42-8.65,9.71s-9.42-3.59-9.71-8.65,3.59-9.42,8.65-9.71c5.06-.29,9.42,3.59,9.71,8.65Zm-13.77.8c.15,2.53,2.32,4.47,4.85,4.32s4.47-2.32,4.32-4.85-2.32-4.47-4.85-4.32-4.47,2.32-4.32,4.85Z"/><path class="cls-18" d="m467.01,448.19c.29,5.06-3.59,9.42-8.65,9.71s-9.42-3.59-9.71-8.65,3.59-9.42,8.65-9.71,9.42,3.59,9.71,8.65Zm-13.77.8c.15,2.53,2.32,4.47,4.85,4.32s4.47-2.32,4.32-4.85-2.32-4.47-4.85-4.32-4.47,2.32-4.32,4.85Z"/></g><g><path class="cls-16" d="m550.57,569.66c.29,5.06-3.59,9.42-8.65,9.71s-9.42-3.59-9.71-8.65,3.59-9.42,8.65-9.71,9.42,3.59,9.71,8.65Zm-13.77.8c.15,2.53,2.32,4.47,4.85,4.32s4.47-2.32,4.32-4.85-2.32-4.47-4.85-4.32-4.47,2.32-4.32,4.85Z"/><path class="cls-16" d="m527.41,548.97c.34,5.9-4.18,10.98-10.08,11.32s-10.98-4.18-11.32-10.08,4.18-10.98,10.08-11.32,10.98,4.18,11.32,10.08Zm-16.8.97c.19,3.37,3.09,5.95,6.46,5.75s5.95-3.09,5.75-6.46-3.09-5.95-6.46-5.75-5.95,3.09-5.75,6.46Z"/><path class="cls-16" d="m528.07,523.26c.18,3.12-2.21,5.81-5.33,5.99s-5.81-2.21-5.99-5.33,2.21-5.81,5.33-5.99,5.81,2.21,5.99,5.33Zm-6.73.39c.03.59.54,1.04,1.13,1s1.04-.54,1-1.13-.54-1.04-1.13-1-1.04.54-1,1.13Z"/><path class="cls-16" d="m465.94,490.88c.18,3.12-2.21,5.81-5.33,5.99s-5.81-2.21-5.99-5.33,2.21-5.81,5.33-5.99,5.81,2.21,5.99,5.33Zm-6.73.39c.03.59.54,1.04,1.13,1s1.04-.54,1-1.13-.54-1.04-1.13-1-1.04.54-1,1.13Z"/><path class="cls-16" d="m453.54,543.05c.24,4.09-2.9,7.61-6.99,7.85s-7.61-2.9-7.85-6.99,2.9-7.61,6.99-7.85,7.61,2.9,7.85,6.99Zm-10.25.59c.09,1.56,1.43,2.75,2.99,2.66s2.75-1.43,2.66-2.99-1.43-2.75-2.99-2.66-2.75,1.43-2.66,2.99Z"/><path class="cls-16" d="m457.43,472.17c.17,2.99-.54,6.22-2.05,9.23-3.72,7.41-10.91,11.06-16.36,8.32-5.45-2.74-6.8-10.69-3.08-18.09,1.7-3.39,4.25-6.14,7.15-7.74,3.19-1.76,6.46-1.96,9.2-.58,2.74,1.38,4.53,4.13,5.02,7.73.05.37.09.75.11,1.13Zm-18.95,8.47c.13,2.3,1.02,4.17,2.6,4.97,3.04,1.53,7.7-1.35,10.17-6.28,1.27-2.53,1.82-5.32,1.5-7.67-.16-1.19-.71-3.33-2.53-4.24h0c-1.82-.91-3.86-.08-4.91.5-2.07,1.14-3.99,3.24-5.26,5.77-1.18,2.36-1.7,4.83-1.57,6.94Z"/><path class="cls-16" d="m564.11,617.16c.15,2.58-.67,5.28-2.42,7.87-2.29,3.38-5.94,6.18-10.3,7.88s-8.94,2.14-12.91,1.22c-4.28-1-7.38-3.43-8.73-6.85-1.34-3.42-.72-7.32,1.74-10.96,2.29-3.38,5.94-6.18,10.3-7.88,9.44-3.7,18.95-1.23,21.64,5.64h0c.39,1,.62,2.03.68,3.09Zm-30.43,6.77c.03.58.15,1.13.36,1.66.77,1.97,2.72,3.41,5.48,4.05,3.07.71,6.69.35,10.19-1.02,3.5-1.37,6.4-3.57,8.17-6.18,1.59-2.35,2.04-4.73,1.27-6.7h0c-1.69-4.31-8.87-5.7-15.67-3.03-3.5,1.37-6.4,3.57-8.17,6.18-1.17,1.72-1.72,3.46-1.63,5.04Z"/><path class="cls-16" d="m625.36,502.39c.21,3.61-.34,7.1-1.6,10.09-1.84,4.35-4.98,7.17-8.84,7.96s-7.85-.59-11.25-3.86c-3.17-3.06-5.46-7.46-6.47-12.41-1.01-4.95-.62-9.91,1.1-13.96,1.84-4.35,4.98-7.17,8.84-7.96,3.86-.79,7.85.59,11.25,3.86,3.17,3.06,5.46,7.46,6.47,12.41.26,1.29.43,2.59.51,3.87Zm-24.06-2.29c.06,1.03.19,2.08.41,3.14,1.61,7.91,7.24,13.72,12.29,12.69,5.05-1.03,7.95-8.58,6.34-16.49-1.61-7.91-7.24-13.72-12.29-12.69-4.37.89-7.14,6.67-6.75,13.34Z"/></g><g><path class="cls-24" d="m538.03,432.58c.22,3.79-2.69,7.06-6.48,7.28s-7.06-2.69-7.28-6.48,2.69-7.06,6.48-7.28,7.06,2.69,7.28,6.48Zm-9.16.53c.07,1.26,1.16,2.22,2.41,2.15s2.22-1.16,2.15-2.41-1.16-2.22-2.41-2.15-2.22,1.16-2.15,2.41Z"/><path class="cls-24" d="m543.15,600.69c.22,3.79-2.69,7.06-6.48,7.28s-7.06-2.69-7.28-6.48,2.69-7.06,6.48-7.28,7.06,2.69,7.28,6.48Zm-9.16.53c.07,1.26,1.16,2.22,2.41,2.15s2.22-1.16,2.15-2.41-1.16-2.22-2.41-2.15-2.22,1.16-2.15,2.41Z"/><path class="cls-24" d="m631.64,531.39c.15,2.61-.47,5.43-1.79,8.05-1.48,2.95-3.7,5.35-6.24,6.75-2.78,1.53-5.76,1.71-8.17.5-2.41-1.21-4.04-3.71-4.47-6.85-.39-2.87.21-6.08,1.69-9.04,3.26-6.49,9.59-9.67,14.41-7.25h0c2.41,1.21,4.04,3.71,4.47,6.85.04.32.08.65.1.99Zm-16.16,7.2c.01.21.03.42.06.62.13.95.56,2.65,1.97,3.37,1.41.71,3.04.04,3.88-.42,1.71-.94,3.29-2.68,4.35-4.78,1.06-2.1,1.51-4.41,1.24-6.34-.13-.95-.56-2.65-1.97-3.37-2.39-1.2-6.23,1.23-8.23,5.2-.95,1.88-1.41,3.93-1.3,5.73Z"/><path class="cls-24" d="m477.24,612.97c.1,1.77-.2,3.49-.91,5.08h0c-1.6,3.59-5.03,6.03-9.67,6.88-4.32.79-9.23.1-13.83-1.95-4.6-2.05-8.4-5.25-10.69-8.99-2.46-4.02-2.93-8.21-1.33-11.79,1.6-3.59,5.03-6.03,9.67-6.88,4.32-.79,9.23-.1,13.83,1.95,4.6,2.05,8.4,5.25,10.69,8.99,1.36,2.23,2.11,4.51,2.24,6.71Zm-32.74-5.95c.08,1.45.61,3.01,1.56,4.57,1.81,2.96,4.88,5.51,8.64,7.19,3.76,1.68,7.71,2.26,11.12,1.63,3.1-.57,5.33-2.07,6.3-4.23h0c.96-2.16.59-4.83-1.05-7.51-1.81-2.96-4.88-5.51-8.64-7.19-7.35-3.28-15.32-2.09-17.42,2.6-.4.9-.57,1.9-.51,2.94Z"/></g><g><path class="cls-25" d="m480.89,476.44c.15,2.61-.47,5.43-1.79,8.05-3.26,6.49-9.59,9.67-14.41,7.25-4.82-2.42-6.04-9.4-2.77-15.89,1.48-2.95,3.7-5.35,6.24-6.75,2.78-1.53,5.76-1.71,8.17-.5,2.41,1.21,4.04,3.71,4.47,6.85.04.32.08.65.1.99Zm-16.15,7.23c.11,1.85.79,3.34,2.02,3.96,2.39,1.2,6.23-1.23,8.23-5.21,1.06-2.1,1.51-4.41,1.24-6.34-.13-.95-.56-2.65-1.97-3.37h0c-1.41-.71-3.04-.04-3.88.42-1.71.94-3.29,2.68-4.35,4.78-.97,1.93-1.39,4-1.29,5.75Z"/><path class="cls-25" d="m571.75,599.97c.17,2.99-.54,6.22-2.05,9.23-1.7,3.39-4.25,6.14-7.15,7.74-3.19,1.76-6.46,1.96-9.2.58-2.74-1.38-4.53-4.13-5.02-7.73-.45-3.29.24-6.97,1.94-10.36,3.72-7.41,10.91-11.06,16.36-8.32h0c2.74,1.38,4.53,4.13,5.02,7.73.05.37.09.75.11,1.13Zm-18.94,8.44c.01.26.04.51.07.75.16,1.19.71,3.33,2.53,4.24,1.82.91,3.86.08,4.91-.5,2.07-1.14,3.99-3.24,5.26-5.77,1.27-2.53,1.82-5.32,1.5-7.67-.16-1.19-.71-3.33-2.53-4.24-3.04-1.53-7.7,1.35-10.17,6.28-1.14,2.26-1.69,4.74-1.57,6.91Z"/><path class="cls-25" d="m568.32,438.54c.13,2.17-.48,4.21-1.88,5.79-3.45,3.87-10.22,3.28-15.41-1.35-5.2-4.63-6.56-11.29-3.12-15.16h0c3.45-3.87,10.22-3.28,15.41,1.35,3.08,2.74,4.82,6.2,5,9.37Zm-17.7-5.26c.12,2.06,1.57,4.56,3.47,6.26,2.76,2.45,7.09,3.77,8.91,1.73,1.82-2.04.02-6.2-2.74-8.66-2.76-2.45-7.09-3.77-8.91-1.73-.56.63-.78,1.47-.73,2.4Z"/><path class="cls-25" d="m490.21,630.88c.13,2.24-.52,4.28-1.86,5.8-3.45,3.87-10.22,3.28-15.41-1.35-5.2-4.63-6.56-11.28-3.12-15.16,3.45-3.87,10.22-3.28,15.41,1.35,2.36,2.1,4.02,4.74,4.69,7.44.16.65.26,1.29.29,1.92Zm-17.68-5.25c.12,2.06,1.57,4.56,3.47,6.26,2.76,2.45,7.09,3.77,8.91,1.73.96-1.08.75-2.69.54-3.55-.44-1.77-1.63-3.63-3.28-5.1-2.76-2.45-7.09-3.77-8.91-1.73-.56.63-.78,1.47-.73,2.4Z"/></g><g><path class="cls-21" d="m467.49,527c.15,2.52-.43,5.34-1.8,8.06-1.48,2.95-3.7,5.35-6.24,6.75-2.78,1.53-5.76,1.71-8.17.5-4.82-2.42-6.04-9.4-2.78-15.89,1.48-2.95,3.7-5.35,6.24-6.75,2.78-1.53,5.76-1.71,8.17-.5h0c2.79,1.4,4.38,4.34,4.58,7.83Zm-16.16,7.24c.11,1.85.79,3.34,2.02,3.96,1.41.71,3.04.04,3.88-.42,1.71-.94,3.29-2.68,4.35-4.78,2-3.97,1.66-8.51-.73-9.71h0c-1.41-.71-3.04-.04-3.88.42-1.71.94-3.29,2.68-4.35,4.78-.97,1.93-1.39,4-1.29,5.75Z"/><path class="cls-21" d="m468.08,560.4c.21,3.59-1.39,6.69-4.26,7.68-1.89.65-4.03.24-5.89-1.13-1.62-1.2-2.92-3.04-3.67-5.19-1.67-4.82-.08-9.59,3.61-10.87h0c3.69-1.28,7.89,1.5,9.55,6.32.37,1.08.58,2.15.64,3.19Zm-9.85-2.07c.03.59.16,1.24.39,1.93.44,1.26,1.18,2.35,2.05,2.99.29.21,1.03.69,1.65.48.91-.31,1.66-2.42.77-5.01-.89-2.59-2.79-3.78-3.7-3.47-.67.23-1.25,1.44-1.16,3.09Z"/></g></g></g></g></g></svg>