<?xml version="1.0" encoding="UTF-8"?><svg id="Ebene_2" xmlns="http://www.w3.org/2000/svg" xmlns:xlink="http://www.w3.org/1999/xlink" viewBox="0 0 1006.53 665"><defs><style>.cls-1{fill:url(#Unbenannter_Verlauf_14-24);}.cls-2{fill:url(#Unbenannter_Verlauf_14-25);}.cls-3{fill:url(#Unbenannter_Verlauf_14-22);}.cls-4{fill:url(#Unbenannter_Verlauf_14-20);}.cls-5{fill:url(#Unbenannter_Verlauf_14-23);}.cls-6{fill:url(#Unbenannter_Verlauf_14-21);}.cls-7{fill:url(#Unbenannter_Verlauf_14-13);}.cls-8{fill:url(#Unbenannter_Verlauf_14-18);}.cls-9{fill:url(#Unbenannter_Verlauf_14-19);}.cls-10{fill:url(#Unbenannter_Verlauf_14-17);}.cls-11{fill:url(#Unbenannter_Verlauf_14-12);}.cls-12{fill:url(#Unbenannter_Verlauf_14-10);}.cls-13{fill:url(#Unbenannter_Verlauf_14-11);}.cls-14{fill:url(#Unbenannter_Verlauf_14-16);}.cls-15{fill:url(#Unbenannter_Verlauf_14-14);}.cls-16{fill:url(#Unbenannter_Verlauf_14-15);}.cls-17{fill:url(#Unbenannter_Verlauf_19-7);}.cls-18{fill:url(#Unbenannter_Verlauf_19-6);}.cls-19{fill:url(#Unbenannter_Verlauf_19-3);}.cls-20{fill:url(#Unbenannter_Verlauf_19-5);}.cls-21{fill:url(#Unbenannter_Verlauf_19-2);}.cls-22{fill:url(#Unbenannter_Verlauf_19-4);}.cls-23{fill:url(#Unbenannter_Verlauf_14-4);}.cls-24{fill:url(#Unbenannter_Verlauf_14-2);}.cls-25{fill:url(#Unbenannter_Verlauf_14-8);}.cls-26{fill:url(#Unbenannter_Verlauf_14-3);}.cls-27{fill:url(#Unbenannter_Verlauf_14-5);}.cls-28{fill:url(#Unbenannter_Verlauf_14-6);}.cls-29{fill:url(#Unbenannter_Verlauf_14-7);}.cls-30{fill:url(#Unbenannter_Verlauf_14-9);}.cls-31{fill:url(#Unbenannter_Verlauf_22-2);}.cls-32{fill:url(#Unbenannter_Verlauf_22-3);}.cls-33{fill:#f8cd2c;}.cls-34{fill:#00abe9;}.cls-35{fill:#fff;}.cls-36{fill:#fdeaa6;}.cls-37{fill:#69c6e3;}.cls-38{fill:#b8e1ee;}.cls-39{fill:url(#Unbenannter_Verlauf_14);}.cls-40{fill:url(#Unbenannter_Verlauf_19);}.cls-41{fill:url(#Unbenannter_Verlauf_22);}</style><radialGradient id="Unbenannter_Verlauf_19" cx="984.62" cy="35.59" fx="984.62" fy="35.59" r="21.91" gradientTransform="matrix(1, 0, 0, 1, 0, 0)" gradientUnits="userSpaceOnUse"><stop offset=".59" stop-color="#fff" stop-opacity=".6"/><stop offset=".66" stop-color="#fff" stop-opacity=".58"/><stop offset=".72" stop-color="#fff" stop-opacity=".54"/><stop offset=".79" stop-color="#fff" stop-opacity=".46"/><stop offset=".86" stop-color="#fff" stop-opacity=".35"/><stop offset=".92" stop-color="#fff" stop-opacity=".21"/><stop offset=".99" stop-color="#fff" stop-opacity=".04"/><stop offset="1" stop-color="#fff" stop-opacity="0"/></radialGradient><radialGradient id="Unbenannter_Verlauf_22" cx="515.7" cy="122.89" fx="515.7" fy="122.89" r="34.52" gradientTransform="matrix(1, 0, 0, 1, 0, 0)" gradientUnits="userSpaceOnUse"><stop offset=".59" stop-color="#fff"/><stop offset=".64" stop-color="#fff" stop-opacity=".98"/><stop offset=".69" stop-color="#fff" stop-opacity=".94"/><stop offset=".74" stop-color="#fff" stop-opacity=".86"/><stop offset=".8" stop-color="#fff" stop-opacity=".75"/><stop offset=".85" stop-color="#fff" stop-opacity=".61"/><stop offset=".9" stop-color="#fff" stop-opacity=".43"/><stop offset=".95" stop-color="#fff" stop-opacity=".23"/><stop offset="1" stop-color="#fff" stop-opacity="0"/></radialGradient><radialGradient id="Unbenannter_Verlauf_22-2" cx="601.37" cy="391.84" fx="601.37" fy="391.84" r="25.2" xlink:href="#Unbenannter_Verlauf_22"/><radialGradient id="Unbenannter_Verlauf_22-3" cx="305.07" cy="486.75" fx="305.07" fy="486.75" r="46.07" xlink:href="#Unbenannter_Verlauf_22"/><radialGradient id="Unbenannter_Verlauf_19-2" cx="887.74" cy="247.52" fx="887.74" fy="247.52" r="41.36" xlink:href="#Unbenannter_Verlauf_19"/><radialGradient id="Unbenannter_Verlauf_19-3" cx="393.57" cy="633.7" fx="393.57" fy="633.7" r="23.39" xlink:href="#Unbenannter_Verlauf_19"/><radialGradient id="Unbenannter_Verlauf_19-4" cx="686.8" cy="262.23" fx="686.8" fy="262.23" r="34.52" xlink:href="#Unbenannter_Verlauf_19"/><radialGradient id="Unbenannter_Verlauf_19-5" cx="113.79" cy="257.34" fx="113.79" fy="257.34" r="28.65" xlink:href="#Unbenannter_Verlauf_19"/><radialGradient id="Unbenannter_Verlauf_19-6" cx="737.16" cy="523.32" fx="737.16" fy="523.32" r="34.52" xlink:href="#Unbenannter_Verlauf_19"/><radialGradient id="Unbenannter_Verlauf_19-7" cx="23.75" cy="642.98" fx="23.75" fy="642.98" r="22.02" xlink:href="#Unbenannter_Verlauf_19"/><radialGradient id="Unbenannter_Verlauf_14" cx="363.56" cy="280.67" fx="363.56" fy="280.67" r="18.44" gradientTransform="matrix(1, 0, 0, 1, 0, 0)" gradientUnits="userSpaceOnUse"><stop offset="0" stop-color="#fcea10"/><stop offset="0" stop-color="#fff" stop-opacity=".94"/><stop offset="1" stop-color="#fff" stop-opacity="0"/></radialGradient><radialGradient id="Unbenannter_Verlauf_14-2" cx="175.39" cy="582.98" fx="175.39" fy="582.98" xlink:href="#Unbenannter_Verlauf_14"/><radialGradient id="Unbenannter_Verlauf_14-3" cx="670.72" cy="249.9" fx="670.72" fy="249.9" xlink:href="#Unbenannter_Verlauf_14"/><radialGradient id="Unbenannter_Verlauf_14-4" cx="94.89" cy="277.32" fx="94.89" fy="277.32" xlink:href="#Unbenannter_Verlauf_14"/><radialGradient id="Unbenannter_Verlauf_14-5" cx="409" cy="618.27" fx="409" fy="618.27" xlink:href="#Unbenannter_Verlauf_14"/><radialGradient id="Unbenannter_Verlauf_14-6" cx="754.5" cy="546.09" fx="754.5" fy="546.09" xlink:href="#Unbenannter_Verlauf_14"/><radialGradient id="Unbenannter_Verlauf_14-7" cx="275.49" cy="512.13" fx="275.49" fy="512.13" xlink:href="#Unbenannter_Verlauf_14"/><radialGradient id="Unbenannter_Verlauf_14-8" cx="285.89" cy="449.22" fx="285.89" fy="449.22" xlink:href="#Unbenannter_Verlauf_14"/><radialGradient id="Unbenannter_Verlauf_14-9" cx="967.47" cy="18.44" fx="967.47" fy="18.44" xlink:href="#Unbenannter_Verlauf_14"/><radialGradient id="Unbenannter_Verlauf_14-10" cx="864.81" cy="218.67" fx="864.81" fy="218.67" xlink:href="#Unbenannter_Verlauf_14"/><radialGradient id="Unbenannter_Verlauf_14-11" cx="893.51" cy="91.5" fx="893.51" fy="91.5" xlink:href="#Unbenannter_Verlauf_14"/><radialGradient id="Unbenannter_Verlauf_14-12" cx="539.1" cy="151.02" fx="539.1" fy="151.02" xlink:href="#Unbenannter_Verlauf_14"/><radialGradient id="Unbenannter_Verlauf_14-13" cx="329.15" cy="262.23" fx="329.15" fy="262.23" r="9.22" xlink:href="#Unbenannter_Verlauf_14"/><radialGradient id="Unbenannter_Verlauf_14-14" cx="583.03" cy="47.55" fx="583.03" fy="47.55" r="9.22" xlink:href="#Unbenannter_Verlauf_14"/><radialGradient id="Unbenannter_Verlauf_14-15" cx="846.13" cy="411.1" fx="846.13" fy="411.1" r="9.22" xlink:href="#Unbenannter_Verlauf_14"/><radialGradient id="Unbenannter_Verlauf_14-16" cx="492.3" cy="99.49" fx="492.3" fy="99.49" r="9.22" xlink:href="#Unbenannter_Verlauf_14"/><radialGradient id="Unbenannter_Verlauf_14-17" cx="436.93" cy="511.39" fx="436.93" fy="511.39" r="9.22" xlink:href="#Unbenannter_Verlauf_14"/><radialGradient id="Unbenannter_Verlauf_14-18" cx="584.29" cy="244.55" fx="584.29" fy="244.55" r="9.22" xlink:href="#Unbenannter_Verlauf_14"/><radialGradient id="Unbenannter_Verlauf_14-19" cx="92.11" cy="456.82" fx="92.11" fy="456.82" r="9.22" xlink:href="#Unbenannter_Verlauf_14"/><radialGradient id="Unbenannter_Verlauf_14-20" cx="584.29" cy="410.87" fx="584.29" fy="410.87" r="9.22" xlink:href="#Unbenannter_Verlauf_14"/><radialGradient id="Unbenannter_Verlauf_14-21" cx="605.19" cy="371.31" fx="605.19" fy="371.31" r="9.22" xlink:href="#Unbenannter_Verlauf_14"/><radialGradient id="Unbenannter_Verlauf_14-22" cx="709.58" cy="240.68" fx="709.58" fy="240.68" r="9.22" xlink:href="#Unbenannter_Verlauf_14"/><radialGradient id="Unbenannter_Verlauf_14-23" cx="336.31" cy="437.85" fx="336.31" fy="437.85" r="9.22" xlink:href="#Unbenannter_Verlauf_14"/><radialGradient id="Unbenannter_Verlauf_14-24" cx="9.22" cy="611.63" fx="9.22" fy="611.63" r="9.22" xlink:href="#Unbenannter_Verlauf_14"/><radialGradient id="Unbenannter_Verlauf_14-25" cx="38.27" cy="652.58" fx="38.27" fy="652.58" r="9.22" xlink:href="#Unbenannter_Verlauf_14"/></defs><g id="design_1a"><g><circle class="cls-40" cx="984.62" cy="35.59" r="21.91"/><circle class="cls-41" cx="515.7" cy="122.89" r="34.52"/><circle class="cls-31" cx="601.37" cy="391.84" r="25.2"/><circle class="cls-32" cx="305.07" cy="486.75" r="46.07"/><circle class="cls-21" cx="887.74" cy="247.52" r="41.36"/><circle class="cls-19" cx="393.57" cy="633.7" r="23.39"/><circle class="cls-22" cx="686.8" cy="262.23" r="34.52"/><circle class="cls-20" cx="113.79" cy="257.34" r="28.65"/><circle class="cls-18" cx="737.16" cy="523.32" r="34.52"/><g><circle class="cls-35" cx="686.8" cy="262.23" r="24.08"/><path class="cls-36" d="M686.8,287.61c-13.99,0-25.38-11.38-25.38-25.38s11.38-25.38,25.38-25.38,25.38,11.38,25.38,25.38-11.38,25.38-25.38,25.38Zm0-48.15c-12.56,0-22.77,10.22-22.77,22.77s10.22,22.77,22.77,22.77,22.77-10.22,22.77-22.77-10.22-22.77-22.77-22.77Z"/><path class="cls-33" d="M686.8,289.26c-14.9,0-27.03-12.12-27.03-27.03s12.12-27.03,27.03-27.03,27.03,12.12,27.03,27.03-12.12,27.03-27.03,27.03Zm0-52.32c-13.95,0-25.29,11.35-25.29,25.29s11.35,25.29,25.29,25.29,25.29-11.35,25.29-25.29-11.35-25.29-25.29-25.29Z"/></g><g><circle class="cls-35" cx="887.74" cy="247.52" r="28.84"/><path class="cls-36" d="M887.74,277.92c-16.76,0-30.4-13.64-30.4-30.4s13.64-30.4,30.4-30.4,30.4,13.64,30.4,30.4-13.64,30.4-30.4,30.4Zm0-57.68c-15.04,0-27.28,12.24-27.28,27.28s12.24,27.28,27.28,27.28,27.28-12.24,27.28-27.28-12.24-27.28-27.28-27.28Z"/><path class="cls-33" d="M887.74,279.89c-17.85,0-32.38-14.52-32.38-32.38s14.52-32.38,32.38-32.38,32.38,14.52,32.38,32.38-14.52,32.38-32.38,32.38Zm0-62.67c-16.71,0-30.3,13.59-30.3,30.3s13.59,30.3,30.3,30.3,30.3-13.59,30.3-30.3-13.59-30.3-30.3-30.3Z"/></g><g><circle class="cls-35" cx="984.62" cy="35.59" r="15.28"/><path class="cls-36" d="M984.62,51.7c-8.88,0-16.11-7.22-16.11-16.11s7.22-16.11,16.11-16.11,16.11,7.22,16.11,16.11-7.22,16.11-16.11,16.11Zm0-30.56c-7.97,0-14.45,6.48-14.45,14.45s6.48,14.45,14.45,14.45,14.45-6.48,14.45-14.45-6.48-14.45-14.45-14.45Z"/><path class="cls-33" d="M984.62,52.74c-9.46,0-17.15-7.69-17.15-17.15s7.69-17.15,17.15-17.15,17.15,7.69,17.15,17.15-7.69,17.15-17.15,17.15Zm0-33.2c-8.85,0-16.05,7.2-16.05,16.05s7.2,16.05,16.05,16.05,16.05-7.2,16.05-16.05-7.2-16.05-16.05-16.05Z"/></g><g><circle class="cls-35" cx="737.16" cy="523.32" r="24.08"/><path class="cls-36" d="M737.16,548.7c-13.99,0-25.38-11.38-25.38-25.38s11.38-25.38,25.38-25.38,25.38,11.38,25.38,25.38-11.38,25.38-25.38,25.38Zm0-48.15c-12.56,0-22.77,10.22-22.77,22.77s10.22,22.77,22.77,22.77,22.77-10.22,22.77-22.77-10.22-22.77-22.77-22.77Z"/><path class="cls-33" d="M737.16,550.34c-14.9,0-27.03-12.12-27.03-27.03s12.12-27.03,27.03-27.03,27.03,12.12,27.03,27.03-12.12,27.03-27.03,27.03Zm0-52.32c-13.95,0-25.29,11.35-25.29,25.29s11.35,25.29,25.29,25.29,25.29-11.35,25.29-25.29-11.35-25.29-25.29-25.29Z"/></g><g><circle class="cls-35" cx="393.57" cy="633.7" r="16.31"/><path class="cls-36" d="M393.57,650.89c-9.48,0-17.19-7.71-17.19-17.19s7.71-17.19,17.19-17.19,17.19,7.71,17.19,17.19-7.71,17.19-17.19,17.19Zm0-32.62c-8.51,0-15.43,6.92-15.43,15.43s6.92,15.43,15.43,15.43,15.43-6.92,15.43-15.43-6.92-15.43-15.43-15.43Z"/><path class="cls-33" d="M393.57,652.01c-10.1,0-18.31-8.21-18.31-18.31s8.21-18.31,18.31-18.31,18.31,8.21,18.31,18.31-8.21,18.31-18.31,18.31Zm0-35.44c-9.45,0-17.13,7.69-17.13,17.13s7.69,17.13,17.13,17.13,17.13-7.69,17.13-17.13-7.69-17.13-17.13-17.13Z"/></g><circle class="cls-17" cx="23.75" cy="642.98" r="22.02"/><circle class="cls-35" cx="23.75" cy="642.98" r="15.36"/><path class="cls-36" d="M23.75,659.17c-8.93,0-16.19-7.26-16.19-16.19s7.26-16.19,16.19-16.19,16.19,7.26,16.19,16.19-7.26,16.19-16.19,16.19Zm0-30.71c-8.01,0-14.53,6.52-14.53,14.53s6.52,14.53,14.53,14.53,14.53-6.52,14.53-14.53-6.52-14.53-14.53-14.53Z"/><path class="cls-33" d="M23.75,660.22c-9.5,0-17.24-7.73-17.24-17.24s7.73-17.24,17.24-17.24,17.24,7.73,17.24,17.24-7.73,17.24-17.24,17.24Zm0-33.37c-8.89,0-16.13,7.24-16.13,16.13s7.24,16.13,16.13,16.13,16.13-7.24,16.13-16.13-7.24-16.13-16.13-16.13Z"/><g><circle class="cls-35" cx="113.79" cy="257.34" r="19.98"/><path class="cls-36" d="M113.79,278.4c-11.61,0-21.06-9.45-21.06-21.06s9.45-21.06,21.06-21.06,21.06,9.45,21.06,21.06-9.45,21.06-21.06,21.06Zm0-39.96c-10.42,0-18.9,8.48-18.9,18.9s8.48,18.9,18.9,18.9,18.9-8.48,18.9-18.9-8.48-18.9-18.9-18.9Z"/><path class="cls-33" d="M113.79,279.77c-12.37,0-22.43-10.06-22.43-22.43s10.06-22.43,22.43-22.43,22.43,10.06,22.43,22.43-10.06,22.43-22.43,22.43Zm0-43.41c-11.57,0-20.99,9.41-20.99,20.99s9.41,20.99,20.99,20.99,20.99-9.41,20.99-20.99-9.41-20.99-20.99-20.99Z"/></g><g><circle class="cls-35" cx="515.7" cy="122.89" r="24.74"/><path class="cls-34" d="M515.7,152.8c-16.49,0-29.91-13.42-29.91-29.91s13.42-29.91,29.91-29.91,29.91,13.42,29.91,29.91-13.42,29.91-29.91,29.91Zm0-58.03c-15.51,0-28.13,12.62-28.13,28.13s12.62,28.13,28.13,28.13,28.13-12.62,28.13-28.13-12.62-28.13-28.13-28.13Z"/><path class="cls-37" d="M515.7,151.02c-15.51,0-28.13-12.62-28.13-28.13s12.62-28.13,28.13-28.13,28.13,12.62,28.13,28.13-12.62,28.13-28.13,28.13Zm0-54.11c-14.33,0-25.99,11.66-25.99,25.99s11.66,25.99,25.99,25.99,25.99-11.66,25.99-25.99-11.66-25.99-25.99-25.99Z"/><path class="cls-38" d="M515.7,148.97c-14.38,0-26.08-11.7-26.08-26.08s11.7-26.08,26.08-26.08,26.08,11.7,26.08,26.08-11.7,26.08-26.08,26.08Zm0-49.48c-12.9,0-23.4,10.5-23.4,23.4s10.5,23.4,23.4,23.4,23.4-10.5,23.4-23.4-10.5-23.4-23.4-23.4Z"/></g><g><circle class="cls-35" cx="305.07" cy="486.75" r="33.01"/><path class="cls-34" d="M305.07,526.67c-22.01,0-39.91-17.91-39.91-39.91s17.91-39.91,39.91-39.91,39.91,17.91,39.91,39.91-17.91,39.91-39.91,39.91Zm0-77.45c-20.7,0-37.53,16.84-37.53,37.53s16.84,37.53,37.53,37.53,37.53-16.84,37.53-37.53-16.84-37.53-37.53-37.53Z"/><path class="cls-37" d="M305.07,524.29c-20.7,0-37.53-16.84-37.53-37.53s16.84-37.53,37.53-37.53,37.53,16.84,37.53,37.53-16.84,37.53-37.53,37.53Zm0-72.21c-19.12,0-34.68,15.56-34.68,34.68s15.56,34.68,34.68,34.68,34.68-15.56,34.68-34.68-15.56-34.68-34.68-34.68Z"/><path class="cls-38" d="M305.07,521.55c-19.19,0-34.8-15.61-34.8-34.8s15.61-34.8,34.8-34.8,34.8,15.61,34.8,34.8-15.61,34.8-34.8,34.8Zm0-66.03c-17.22,0-31.23,14.01-31.23,31.23s14.01,31.23,31.23,31.23,31.23-14.01,31.23-31.23-14.01-31.23-31.23-31.23Z"/></g><g><circle class="cls-35" cx="601.37" cy="391.84" r="18.06"/><path class="cls-34" d="M601.37,413.67c-12.04,0-21.83-9.79-21.83-21.83s9.79-21.83,21.83-21.83,21.83,9.79,21.83,21.83-9.79,21.83-21.83,21.83Zm0-42.36c-11.32,0-20.53,9.21-20.53,20.53s9.21,20.53,20.53,20.53,20.53-9.21,20.53-20.53-9.21-20.53-20.53-20.53Z"/><path class="cls-37" d="M601.37,412.37c-11.32,0-20.53-9.21-20.53-20.53s9.21-20.53,20.53-20.53,20.53,9.21,20.53,20.53-9.21,20.53-20.53,20.53Zm0-39.5c-10.46,0-18.97,8.51-18.97,18.97s8.51,18.97,18.97,18.97,18.97-8.51,18.97-18.97-8.51-18.97-18.97-18.97Z"/><path class="cls-38" d="M601.37,410.87c-10.49,0-19.03-8.54-19.03-19.03s8.54-19.03,19.03-19.03,19.03,8.54,19.03,19.03-8.54,19.03-19.03,19.03Zm0-36.11c-9.42,0-17.08,7.66-17.08,17.08s7.66,17.08,17.08,17.08,17.08-7.66,17.08-17.08-7.66-17.08-17.08-17.08Z"/></g><g><path class="cls-35" d="M379.55,280.67l-5.15,1.45c-4.55,1.28-8.11,4.84-9.39,9.39l-1.45,5.15-1.46-5.16c-1.28-4.54-4.83-8.09-9.37-9.37l-5.16-1.46,5.15-1.45c4.55-1.28,8.11-4.84,9.39-9.39l1.45-5.15,1.46,5.16c1.28,4.54,4.83,8.09,9.37,9.37l5.16,1.46Z"/><circle class="cls-39" cx="363.56" cy="280.67" r="18.44"/></g><g><path class="cls-35" d="M191.38,582.98l-5.15,1.45c-4.55,1.28-8.11,4.84-9.39,9.39l-1.45,5.15-1.46-5.16c-1.28-4.54-4.83-8.09-9.37-9.37l-5.16-1.46,5.15-1.45c4.55-1.28,8.11-4.84,9.39-9.39l1.45-5.15,1.46,5.16c1.28,4.54,4.83,8.09,9.37,9.37l5.16,1.46Z"/><circle class="cls-24" cx="175.39" cy="582.98" r="18.44"/></g><g><path class="cls-35" d="M686.71,249.9l-5.15,1.45c-4.55,1.28-8.11,4.84-9.39,9.39l-1.45,5.15-1.46-5.16c-1.28-4.54-4.83-8.09-9.37-9.37l-5.16-1.46,5.15-1.45c4.55-1.28,8.11-4.84,9.39-9.39l1.45-5.15,1.46,5.16c1.28,4.54,4.83,8.09,9.37,9.37l5.16,1.46Z"/><circle class="cls-26" cx="670.72" cy="249.9" r="18.44"/></g><g><path class="cls-35" d="M110.88,277.32l-5.15,1.45c-4.55,1.28-8.11,4.84-9.39,9.39l-1.45,5.15-1.46-5.16c-1.28-4.54-4.83-8.09-9.37-9.37l-5.16-1.46,5.15-1.45c4.55-1.28,8.11-4.84,9.39-9.39l1.45-5.15,1.46,5.16c1.28,4.54,4.83,8.09,9.37,9.37l5.16,1.46Z"/><circle class="cls-23" cx="94.89" cy="277.32" r="18.44"/></g><g><path class="cls-35" d="M424.99,618.27l-5.15,1.45c-4.55,1.28-8.11,4.84-9.39,9.39l-1.45,5.15-1.46-5.16c-1.28-4.54-4.83-8.09-9.37-9.37l-5.16-1.46,5.15-1.45c4.55-1.28,8.11-4.84,9.39-9.39l1.45-5.15,1.46,5.16c1.28,4.54,4.83,8.09,9.37,9.37l5.16,1.46Z"/><circle class="cls-27" cx="409" cy="618.27" r="18.44"/></g><g><path class="cls-35" d="M770.48,546.09l-5.15,1.45c-4.55,1.28-8.11,4.84-9.39,9.39l-1.45,5.15-1.46-5.16c-1.28-4.54-4.83-8.09-9.37-9.37l-5.16-1.46,5.15-1.45c4.55-1.28,8.11-4.84,9.39-9.39l1.45-5.15,1.46,5.16c1.28,4.54,4.83,8.09,9.37,9.37l5.16,1.46Z"/><circle class="cls-28" cx="754.5" cy="546.09" r="18.44"/></g><g><path class="cls-35" d="M291.48,512.13l-5.15,1.45c-4.55,1.28-8.11,4.84-9.39,9.39l-1.45,5.15-1.46-5.16c-1.28-4.54-4.83-8.09-9.37-9.37l-5.16-1.46,5.15-1.45c4.55-1.28,8.11-4.84,9.39-9.39l1.45-5.15,1.46,5.16c1.28,4.54,4.83,8.09,9.37,9.37l5.16,1.46Z"/><circle class="cls-29" cx="275.49" cy="512.13" r="18.44"/></g><g><path class="cls-35" d="M301.88,449.22l-5.15,1.45c-4.55,1.28-8.11,4.84-9.39,9.39l-1.45,5.15-1.46-5.16c-1.28-4.54-4.83-8.09-9.37-9.37l-5.16-1.46,5.15-1.45c4.55-1.28,8.11-4.84,9.39-9.39l1.45-5.15,1.46,5.16c1.28,4.54,4.83,8.09,9.37,9.37l5.16,1.46Z"/><circle class="cls-25" cx="285.89" cy="449.22" r="18.44"/></g><g><path class="cls-35" d="M983.46,18.44l-5.15,1.45c-4.55,1.28-8.11,4.84-9.39,9.39l-1.45,5.15-1.46-5.16c-1.28-4.54-4.83-8.09-9.37-9.37l-5.16-1.46,5.15-1.45c4.55-1.28,8.11-4.84,9.39-9.39l1.45-5.15,1.46,5.16c1.28,4.54,4.83,8.09,9.37,9.37l5.16,1.46Z"/><circle class="cls-30" cx="967.47" cy="18.44" r="18.44"/></g><g><path class="cls-35" d="M880.8,218.67l-5.15,1.45c-4.55,1.28-8.11,4.84-9.39,9.39l-1.45,5.15-1.46-5.16c-1.28-4.54-4.83-8.09-9.37-9.37l-5.16-1.46,5.15-1.45c4.55-1.28,8.11-4.84,9.39-9.39l1.45-5.15,1.46,5.16c1.28,4.54,4.83,8.09,9.37,9.37l5.16,1.46Z"/><circle class="cls-12" cx="864.81" cy="218.67" r="18.44"/></g><g><path class="cls-35" d="M909.5,91.5l-5.15,1.45c-4.55,1.28-8.11,4.84-9.39,9.39l-1.45,5.15-1.46-5.16c-1.28-4.54-4.83-8.09-9.37-9.37l-5.16-1.46,5.15-1.45c4.55-1.28,8.11-4.84,9.39-9.39l1.45-5.15,1.46,5.16c1.28,4.54,4.83,8.09,9.37,9.37l5.16,1.46Z"/><circle class="cls-13" cx="893.51" cy="91.5" r="18.44"/></g><g><path class="cls-35" d="M555.09,151.02l-5.15,1.45c-4.55,1.28-8.11,4.84-9.39,9.39l-1.45,5.15-1.46-5.16c-1.28-4.54-4.83-8.09-9.37-9.37l-5.16-1.46,5.15-1.45c4.55-1.28,8.11-4.84,9.39-9.39l1.45-5.15,1.46,5.16c1.28,4.54,4.83,8.09,9.37,9.37l5.16,1.46Z"/><circle class="cls-11" cx="539.1" cy="151.02" r="18.44"/></g><g><path class="cls-35" d="M337.14,262.23l-2.58,.72c-2.28,.64-4.05,2.42-4.69,4.69l-.72,2.58-.73-2.58c-.64-2.27-2.42-4.05-4.69-4.69l-2.58-.73,2.58-.72c2.28-.64,4.05-2.42,4.69-4.69l.72-2.58,.73,2.58c.64,2.27,2.42,4.05,4.69,4.69l2.58,.73Z"/><circle class="cls-7" cx="329.15" cy="262.23" r="9.22"/></g><g><path class="cls-35" d="M591.02,47.55l-2.58,.72c-2.28,.64-4.05,2.42-4.69,4.69l-.72,2.58-.73-2.58c-.64-2.27-2.42-4.05-4.69-4.69l-2.58-.73,2.58-.72c2.28-.64,4.05-2.42,4.69-4.69l.72-2.58,.73,2.58c.64,2.27,2.42,4.05,4.69,4.69l2.58,.73Z"/><circle class="cls-15" cx="583.03" cy="47.55" r="9.22"/></g><g><path class="cls-35" d="M854.12,411.1l-2.58,.72c-2.28,.64-4.05,2.42-4.69,4.69l-.72,2.58-.73-2.58c-.64-2.27-2.42-4.05-4.69-4.69l-2.58-.73,2.58-.72c2.28-.64,4.05-2.42,4.69-4.69l.72-2.58,.73,2.58c.64,2.27,2.42,4.05,4.69,4.69l2.58,.73Z"/><circle class="cls-16" cx="846.13" cy="411.1" r="9.22"/></g><g><path class="cls-35" d="M500.29,99.49l-2.58,.72c-2.28,.64-4.05,2.42-4.69,4.69l-.72,2.58-.73-2.58c-.64-2.27-2.42-4.05-4.69-4.69l-2.58-.73,2.58-.72c2.28-.64,4.05-2.42,4.69-4.69l.72-2.58,.73,2.58c.64,2.27,2.42,4.05,4.69,4.69l2.58,.73Z"/><circle class="cls-14" cx="492.3" cy="99.49" r="9.22"/></g><g><path class="cls-35" d="M444.93,511.39l-2.58,.72c-2.28,.64-4.05,2.42-4.69,4.69l-.72,2.58-.73-2.58c-.64-2.27-2.42-4.05-4.69-4.69l-2.58-.73,2.58-.72c2.28-.64,4.05-2.42,4.69-4.69l.72-2.58,.73,2.58c.64,2.27,2.42,4.05,4.69,4.69l2.58,.73Z"/><circle class="cls-10" cx="436.93" cy="511.39" r="9.22"/></g><g><path class="cls-35" d="M592.28,244.55l-2.58,.72c-2.28,.64-4.05,2.42-4.69,4.69l-.72,2.58-.73-2.58c-.64-2.27-2.42-4.05-4.69-4.69l-2.58-.73,2.58-.72c2.28-.64,4.05-2.42,4.69-4.69l.72-2.58,.73,2.58c.64,2.27,2.42,4.05,4.69,4.69l2.58,.73Z"/><circle class="cls-8" cx="584.29" cy="244.55" r="9.22"/></g><g><path class="cls-35" d="M100.11,456.82l-2.58,.72c-2.28,.64-4.05,2.42-4.69,4.69l-.72,2.58-.73-2.58c-.64-2.27-2.42-4.05-4.69-4.69l-2.58-.73,2.58-.72c2.28-.64,4.05-2.42,4.69-4.69l.72-2.58,.73,2.58c.64,2.27,2.42,4.05,4.69,4.69l2.58,.73Z"/><circle class="cls-9" cx="92.11" cy="456.82" r="9.22"/></g><g><path class="cls-35" d="M592.28,410.87l-2.58,.72c-2.28,.64-4.05,2.42-4.69,4.69l-.72,2.58-.73-2.58c-.64-2.27-2.42-4.05-4.69-4.69l-2.58-.73,2.58-.72c2.28-.64,4.05-2.42,4.69-4.69l.72-2.58,.73,2.58c.64,2.27,2.42,4.05,4.69,4.69l2.58,.73Z"/><circle class="cls-4" cx="584.29" cy="410.87" r="9.22"/></g><g><path class="cls-35" d="M613.18,371.31l-2.58,.72c-2.28,.64-4.05,2.42-4.69,4.69l-.72,2.58-.73-2.58c-.64-2.27-2.42-4.05-4.69-4.69l-2.58-.73,2.58-.72c2.28-.64,4.05-2.42,4.69-4.69l.72-2.58,.73,2.58c.64,2.27,2.42,4.05,4.69,4.69l2.58,.73Z"/><circle class="cls-6" cx="605.19" cy="371.31" r="9.22"/></g><g><path class="cls-35" d="M717.57,240.68l-2.58,.72c-2.28,.64-4.05,2.42-4.69,4.69l-.72,2.58-.73-2.58c-.64-2.27-2.42-4.05-4.69-4.69l-2.58-.73,2.58-.72c2.28-.64,4.05-2.42,4.69-4.69l.72-2.58,.73,2.58c.64,2.27,2.42,4.05,4.69,4.69l2.58,.73Z"/><circle class="cls-3" cx="709.58" cy="240.68" r="9.22"/></g><g><path class="cls-35" d="M344.3,437.85l-2.58,.72c-2.28,.64-4.05,2.42-4.69,4.69l-.72,2.58-.73-2.58c-.64-2.27-2.42-4.05-4.69-4.69l-2.58-.73,2.58-.72c2.28-.64,4.05-2.42,4.69-4.69l.72-2.58,.73,2.58c.64,2.27,2.42,4.05,4.69,4.69l2.58,.73Z"/><circle class="cls-5" cx="336.31" cy="437.85" r="9.22"/></g><g><path class="cls-35" d="M17.21,611.63l-2.58,.72c-2.28,.64-4.05,2.42-4.69,4.69l-.72,2.58-.73-2.58c-.64-2.27-2.42-4.05-4.69-4.69l-2.58-.73,2.58-.72c2.28-.64,4.05-2.42,4.69-4.69l.72-2.58,.73,2.58c.64,2.27,2.42,4.05,4.69,4.69l2.58,.73Z"/><circle class="cls-1" cx="9.22" cy="611.63" r="9.22"/></g><g><path class="cls-35" d="M46.27,652.58l-2.58,.72c-2.28,.64-4.05,2.42-4.69,4.69l-.72,2.58-.73-2.58c-.64-2.27-2.42-4.05-4.69-4.69l-2.58-.73,2.58-.72c2.28-.64,4.05-2.42,4.69-4.69l.72-2.58,.73,2.58c.64,2.27,2.42,4.05,4.69,4.69l2.58,.73Z"/><circle class="cls-2" cx="38.27" cy="652.58" r="9.22"/></g></g></g></svg>