<?xml version="1.0" encoding="UTF-8"?>
<svg id="IP_PG_2" xmlns="http://www.w3.org/2000/svg" xmlns:xlink="http://www.w3.org/1999/xlink" viewBox="0 0 1000.49 1004.2">
    <defs>
        <style>
            .cls-IP-PG-2-1{fill:url(#IP_PG_2_Unbenannter_Verlauf_19-13);}
            .cls-IP-PG-2-2{fill:url(#IP_PG_2_Unbenannter_Verlauf_19-16);}
            .cls-IP-PG-2-3{fill:url(#IP_PG_2_Unbenannter_Verlauf_19-19);}
            .cls-IP-PG-2-4{fill:url(#IP_PG_2_Unbenannter_Verlauf_19-18);}
            .cls-IP-PG-2-5{fill:url(#IP_PG_2_Unbenannter_Verlauf_19-12);}
            .cls-IP-PG-2-6{fill:url(#IP_PG_2_Unbenannter_Verlauf_19-15);}
            .cls-IP-PG-2-7{fill:url(#IP_PG_2_Unbenannter_Verlauf_19-17);}
            .cls-IP-PG-2-8{fill:url(#IP_PG_2_Unbenannter_Verlauf_19-14);}
            .cls-IP-PG-2-9{fill:url(#IP_PG_2_Unbenannter_Verlauf_19-10);}
            .cls-IP-PG-2-10{fill:url(#IP_PG_2_Unbenannter_Verlauf_19-11);}
            .cls-IP-PG-2-11{fill:url(#IP_PG_2_Unbenannter_Verlauf_19-25);}
            .cls-IP-PG-2-12{fill:url(#IP_PG_2_Unbenannter_Verlauf_19-22);}
            .cls-IP-PG-2-13{fill:url(#IP_PG_2_Unbenannter_Verlauf_19-21);}
            .cls-IP-PG-2-14{fill:url(#IP_PG_2_Unbenannter_Verlauf_19-23);}
            .cls-IP-PG-2-15{fill:url(#IP_PG_2_Unbenannter_Verlauf_19-24);}
            .cls-IP-PG-2-16{fill:url(#IP_PG_2_Unbenannter_Verlauf_19-20);}
            .cls-IP-PG-2-17{fill:url(#IP_PG_2_Unbenannter_Verlauf_193-2);}
            .cls-IP-PG-2-18{fill:url(#IP_PG_2_Unbenannter_Verlauf_115-6);}
            .cls-IP-PG-2-19{fill:url(#IP_PG_2_Unbenannter_Verlauf_115-4);}
            .cls-IP-PG-2-20{fill:url(#IP_PG_2_Unbenannter_Verlauf_115-3);}
            .cls-IP-PG-2-21{fill:url(#IP_PG_2_Unbenannter_Verlauf_115-5);}
            .cls-IP-PG-2-22{fill:url(#IP_PG_2_Unbenannter_Verlauf_115-2);}
            .cls-IP-PG-2-23{fill:url(#IP_PG_2_Unbenannter_Verlauf_110-2);}
            .cls-IP-PG-2-24{fill:url(#IP_PG_2_Unbenannter_Verlauf_19-7);}
            .cls-IP-PG-2-25{fill:url(#IP_PG_2_Unbenannter_Verlauf_19-6);}
            .cls-IP-PG-2-26{fill:url(#IP_PG_2_Unbenannter_Verlauf_19-9);}
            .cls-IP-PG-2-27{fill:url(#IP_PG_2_Unbenannter_Verlauf_19-8);}
            .cls-IP-PG-2-28{fill:url(#IP_PG_2_Unbenannter_Verlauf_19-3);}
            .cls-IP-PG-2-29{fill:url(#IP_PG_2_Unbenannter_Verlauf_19-5);}
            .cls-IP-PG-2-30{fill:url(#IP_PG_2_Unbenannter_Verlauf_19-2);}
            .cls-IP-PG-2-31{fill:url(#IP_PG_2_Unbenannter_Verlauf_19-4);}
            .cls-IP-PG-2-32{fill:url(#IP_PG_2_Unbenannter_Verlauf_14-2);}
            .cls-IP-PG-2-33{fill:#f8cd2c;}
            .cls-IP-PG-2-34{fill:#6b247d;}
            .cls-IP-PG-2-35{fill:#00abe9;}
            .cls-IP-PG-2-36{fill:#fff;}
            .cls-IP-PG-2-37{fill:#f08316;}
            .cls-IP-PG-2-38{fill:#b9e1ee;}
            .cls-IP-PG-2-39{fill:#bf1a5d;}
            .cls-IP-PG-2-40{fill:#1279bf;}
            .cls-IP-PG-2-41{fill:#1b1532;}
            .cls-IP-PG-2-42{fill:#5ab992;}
            .cls-IP-PG-2-43{fill:url(#IP_PG_2_Unbenannter_Verlauf_295);}
            .cls-IP-PG-2-44{fill:url(#IP_PG_2_Unbenannter_Verlauf_297);}
            .cls-IP-PG-2-45{fill:url(#IP_PG_2_Unbenannter_Verlauf_193);}
            .cls-IP-PG-2-46{fill:url(#IP_PG_2_Unbenannter_Verlauf_115);}
            .cls-IP-PG-2-47{fill:url(#IP_PG_2_Unbenannter_Verlauf_110);}
            .cls-IP-PG-2-48{fill:url(#IP_PG_2_Unbenannter_Verlauf_69);}
            .cls-IP-PG-2-49{fill:url(#IP_PG_2_Unbenannter_Verlauf_14);}
            .cls-IP-PG-2-50{fill:url(#IP_PG_2_Unbenannter_Verlauf_19);}
            .cls-IP-PG-2-51{fill:url(#IP_PG_2_Unbenannter_Verlauf_45);}
        </style>
        <radialGradient id="IP_PG_2_Unbenannter_Verlauf_295" cx="257.91" cy="2830.16" fx="257.91" fy="2830.16" r="1400.42" gradientTransform="translate(0 -1681.38) scale(1 1.26)" gradientUnits="userSpaceOnUse">
            <stop offset=".84" stop-color="#221d43"/>
            <stop offset=".88" stop-color="#211c41" stop-opacity=".94"/>
            <stop offset=".92" stop-color="#201b3e" stop-opacity=".76"/>
            <stop offset=".96" stop-color="#1e1839" stop-opacity=".45"/>
            <stop offset="1" stop-color="#1b1532" stop-opacity=".03"/>
            <stop offset="1" stop-color="#1b1532" stop-opacity="0"/>
        </radialGradient>
        <radialGradient id="IP_PG_2_Unbenannter_Verlauf_297" cx="200.01" cy="3566.5" fx="200.01" fy="3566.5" r="1359.71" gradientTransform="translate(0 -2716.91) scale(1 1.4)" gradientUnits="userSpaceOnUse">
            <stop offset=".87" stop-color="#2a2458"/>
            <stop offset=".89" stop-color="#292357" stop-opacity=".95"/>
            <stop offset=".92" stop-color="#282254" stop-opacity=".81"/>
            <stop offset=".95" stop-color="#26214f" stop-opacity=".58"/>
            <stop offset=".98" stop-color="#241e48" stop-opacity=".26"/>
            <stop offset="1" stop-color="#221d43" stop-opacity="0"/>
        </radialGradient>
        <linearGradient id="IP_PG_2_Unbenannter_Verlauf_115" x1="1020.25" y1="1720.69" x2="1154.63" y2="2326.83" gradientTransform="translate(1078.08 -1481.01) rotate(46.9)" gradientUnits="userSpaceOnUse">
            <stop offset="0" stop-color="#fff"/>
            <stop offset=".11" stop-color="#fff" stop-opacity=".8"/>
            <stop offset=".24" stop-color="#fff" stop-opacity=".59"/>
            <stop offset=".37" stop-color="#fff" stop-opacity=".41"/>
            <stop offset=".5" stop-color="#fff" stop-opacity=".26"/>
            <stop offset=".63" stop-color="#fff" stop-opacity=".15"/>
            <stop offset=".75" stop-color="#fff" stop-opacity=".07"/>
            <stop offset=".88" stop-color="#fff" stop-opacity=".02"/>
            <stop offset="1" stop-color="#fff" stop-opacity="0"/>
        </linearGradient>
        <linearGradient id="IP_PG_2_Unbenannter_Verlauf_115-2" x1="1128.98" y1="1693.78" x2="1263.01" y2="2298.34" gradientTransform="translate(787.98 -1590.19) rotate(42.64)" xlink:href="#IP_PG_2_Unbenannter_Verlauf_115"/>
        <radialGradient id="IP_PG_2_Unbenannter_Verlauf_19" cx="1114.95" cy="1965.94" fx="1114.95" fy="1965.94" r="8.99" gradientTransform="translate(1078.08 -1481.01) rotate(46.9)" gradientUnits="userSpaceOnUse">
            <stop offset=".3" stop-color="#fff"/>
            <stop offset="1" stop-color="#fff" stop-opacity="0"/>
        </radialGradient>
        <radialGradient id="IP_PG_2_Unbenannter_Verlauf_19-2" cx="1055.63" cy="2074.52" fx="1055.63" fy="2074.52" r="6.74" xlink:href="#IP_PG_2_Unbenannter_Verlauf_19"/>
        <radialGradient id="IP_PG_2_Unbenannter_Verlauf_19-3" cx="1153.86" cy="2134.05" fx="1153.86" fy="2134.05" r="6.74" xlink:href="#IP_PG_2_Unbenannter_Verlauf_19"/>
        <radialGradient id="IP_PG_2_Unbenannter_Verlauf_19-4" cx="1101.84" cy="1998.78" fx="1101.84" fy="1998.78" r="6.74" xlink:href="#IP_PG_2_Unbenannter_Verlauf_19"/>
        <linearGradient id="IP_PG_2_Unbenannter_Verlauf_115-3" x1="1624.03" y1="1956.32" x2="1786.34" y2="2688.45" gradientTransform="translate(1529.04 -1870.83) rotate(62.73)" xlink:href="#IP_PG_2_Unbenannter_Verlauf_115"/>
        <linearGradient id="IP_PG_2_Unbenannter_Verlauf_110" x1="1708.06" y1="1977.63" x2="1867.22" y2="2695.54" gradientTransform="translate(1279.74 -2055.02) rotate(58.47)" gradientUnits="userSpaceOnUse">
            <stop offset="0" stop-color="#fff"/>
            <stop offset=".17" stop-color="#fff" stop-opacity=".78"/>
            <stop offset=".4" stop-color="#fff" stop-opacity=".5"/>
            <stop offset=".6" stop-color="#fff" stop-opacity=".29"/>
            <stop offset=".78" stop-color="#fff" stop-opacity=".13"/>
            <stop offset=".92" stop-color="#fff" stop-opacity=".04"/>
            <stop offset="1" stop-color="#fff" stop-opacity="0"/>
        </linearGradient>
        <radialGradient id="IP_PG_2_Unbenannter_Verlauf_19-5" cx="1753.32" cy="2305.52" fx="1753.32" fy="2305.52" r="12.76" gradientTransform="translate(1529.04 -1870.83) rotate(62.73)" xlink:href="#IP_PG_2_Unbenannter_Verlauf_19"/>
        <radialGradient id="IP_PG_2_Unbenannter_Verlauf_19-6" cx="1669.13" cy="2459.62" fx="1669.13" fy="2459.62" r="9.57" gradientTransform="translate(1529.04 -1870.83) rotate(62.73)" xlink:href="#IP_PG_2_Unbenannter_Verlauf_19"/>
        <radialGradient id="IP_PG_2_Unbenannter_Verlauf_19-7" cx="1808.55" cy="2544.1" fx="1808.55" fy="2544.1" r="9.57" gradientTransform="translate(1529.04 -1870.83) rotate(62.73)" xlink:href="#IP_PG_2_Unbenannter_Verlauf_19"/>
        <radialGradient id="IP_PG_2_Unbenannter_Verlauf_19-8" cx="1734.72" cy="2352.12" fx="1734.72" fy="2352.12" r="9.57" gradientTransform="translate(1529.04 -1870.83) rotate(62.73)" xlink:href="#IP_PG_2_Unbenannter_Verlauf_19"/>
        <radialGradient id="IP_PG_2_Unbenannter_Verlauf_45" cx="474.84" cy="496.39" fx="474.84" fy="496.39" r="125.5" gradientUnits="userSpaceOnUse">
            <stop offset=".86" stop-color="#fff"/>
            <stop offset=".88" stop-color="#f8fafc" stop-opacity=".97"/>
            <stop offset=".89" stop-color="#e6ecf5" stop-opacity=".9"/>
            <stop offset=".91" stop-color="#c9d6e9" stop-opacity=".77"/>
            <stop offset=".94" stop-color="#a0b8d8" stop-opacity=".59"/>
            <stop offset=".96" stop-color="#6c91c3" stop-opacity=".37"/>
            <stop offset=".99" stop-color="#2e62aa" stop-opacity=".1"/>
            <stop offset="1" stop-color="#1852a1" stop-opacity="0"/>
        </radialGradient>
        <linearGradient id="IP_PG_2_Unbenannter_Verlauf_115-4" x1="1769.01" y1="2064.67" x2="1624.52" y2="1412.92" gradientTransform="translate(1740.07 -1945.19) rotate(67.87)" xlink:href="#IP_PG_2_Unbenannter_Verlauf_115"/>
        <linearGradient id="IP_PG_2_Unbenannter_Verlauf_110-2" x1="1945.29" y1="2081.05" x2="1801.99" y2="1434.69" gradientTransform="translate(1508.29 -2150.99) rotate(63.61)" xlink:href="#IP_PG_2_Unbenannter_Verlauf_110"/>
        <radialGradient id="IP_PG_2_Unbenannter_Verlauf_19-9" cx="1649.42" cy="1692.62" fx="1649.42" fy="1692.62" r="12.76" gradientTransform="translate(1740.07 -1945.19) rotate(67.87)" xlink:href="#IP_PG_2_Unbenannter_Verlauf_19"/>
        <radialGradient id="IP_PG_2_Unbenannter_Verlauf_19-10" cx="1769.93" cy="1873.28" fx="1769.93" fy="1873.28" r="9.57" gradientTransform="translate(1740.07 -1945.19) rotate(67.87)" xlink:href="#IP_PG_2_Unbenannter_Verlauf_19"/>
        <radialGradient id="IP_PG_2_Unbenannter_Verlauf_19-11" cx="1705.01" cy="1843.28" fx="1705.01" fy="1843.28" r="9.57" gradientTransform="translate(1740.07 -1945.19) rotate(67.87)" xlink:href="#IP_PG_2_Unbenannter_Verlauf_19"/>
        <radialGradient id="IP_PG_2_Unbenannter_Verlauf_19-12" cx="1778.5" cy="1954.61" fx="1778.5" fy="1954.61" r="12.76" gradientTransform="translate(1740.07 -1945.19) rotate(67.87)" xlink:href="#IP_PG_2_Unbenannter_Verlauf_19"/>
        <radialGradient id="IP_PG_2_Unbenannter_Verlauf_19-13" cx="1753.99" cy="1915" fx="1753.99" fy="1915" r="7.18" gradientTransform="translate(1740.07 -1945.19) rotate(67.87)" xlink:href="#IP_PG_2_Unbenannter_Verlauf_19"/>
        <linearGradient id="IP_PG_2_Unbenannter_Verlauf_115-5" x1="900.63" y1="1563.81" x2="772.49" y2="985.78" gradientTransform="translate(836.97 -1278.95) rotate(41.42)" xlink:href="#IP_PG_2_Unbenannter_Verlauf_115"/>
        <linearGradient id="IP_PG_2_Unbenannter_Verlauf_115-6" x1="1106.12" y1="1513.6" x2="980.73" y2="948.01" gradientTransform="translate(537.78 -1359.95) rotate(37.16)" xlink:href="#IP_PG_2_Unbenannter_Verlauf_115"/>
        <radialGradient id="IP_PG_2_Unbenannter_Verlauf_19-14" cx="806.67" cy="1305.85" fx="806.67" fy="1305.85" r="8.99" gradientTransform="translate(836.97 -1278.95) rotate(41.42)" xlink:href="#IP_PG_2_Unbenannter_Verlauf_19"/>
        <radialGradient id="IP_PG_2_Unbenannter_Verlauf_19-15" cx="891.58" cy="1433.14" fx="891.58" fy="1433.14" r="6.74" gradientTransform="translate(836.97 -1278.95) rotate(41.42)" xlink:href="#IP_PG_2_Unbenannter_Verlauf_19"/>
        <radialGradient id="IP_PG_2_Unbenannter_Verlauf_19-16" cx="845.84" cy="1412" fx="845.84" fy="1412" r="6.74" gradientTransform="translate(836.97 -1278.95) rotate(41.42)" xlink:href="#IP_PG_2_Unbenannter_Verlauf_19"/>
        <radialGradient id="IP_PG_2_Unbenannter_Verlauf_19-17" cx="854.83" cy="1158.12" fx="854.83" fy="1158.12" r="5.06" gradientTransform="translate(836.97 -1278.95) rotate(41.42)" xlink:href="#IP_PG_2_Unbenannter_Verlauf_19"/>
        <radialGradient id="IP_PG_2_Unbenannter_Verlauf_19-18" cx="897.62" cy="1490.45" fx="897.62" fy="1490.45" gradientTransform="translate(836.97 -1278.95) rotate(41.42)" xlink:href="#IP_PG_2_Unbenannter_Verlauf_19"/>
        <radialGradient id="IP_PG_2_Unbenannter_Verlauf_19-19" cx="880.35" cy="1462.54" fx="880.35" fy="1462.54" r="5.06" gradientTransform="translate(836.97 -1278.95) rotate(41.42)" xlink:href="#IP_PG_2_Unbenannter_Verlauf_19"/>
        <linearGradient id="IP_PG_2_Unbenannter_Verlauf_193" x1="2397.79" y1="2093.55" x2="2304.27" y2="1671.68" gradientTransform="translate(2155.75 -2226.26) rotate(80.39)" gradientUnits="userSpaceOnUse">
            <stop offset="0" stop-color="#fff"/>
            <stop offset=".02" stop-color="#fff" stop-opacity=".93"/>
            <stop offset=".09" stop-color="#fff" stop-opacity=".74"/>
            <stop offset=".17" stop-color="#fff" stop-opacity=".56"/>
            <stop offset=".25" stop-color="#fff" stop-opacity=".41"/>
            <stop offset=".33" stop-color="#fff" stop-opacity=".28"/>
            <stop offset=".43" stop-color="#fff" stop-opacity=".18"/>
            <stop offset=".53" stop-color="#fff" stop-opacity=".1"/>
            <stop offset=".64" stop-color="#fff" stop-opacity=".04"/>
            <stop offset=".77" stop-color="#fff" stop-opacity="0"/>
            <stop offset="1" stop-color="#fff" stop-opacity="0"/>
        </linearGradient>
        <linearGradient id="IP_PG_2_Unbenannter_Verlauf_193-2" x1="2554.21" y1="2151.34" x2="2460.93" y2="1730.57" gradientTransform="translate(1974.08 -2477.4) rotate(76.13)" xlink:href="#IP_PG_2_Unbenannter_Verlauf_193"/>
        <radialGradient id="IP_PG_2_Unbenannter_Verlauf_19-20" cx="2333.34" cy="1905.67" fx="2333.34" fy="1905.67" r="6.52" gradientTransform="translate(2155.75 -2226.26) rotate(80.39)" xlink:href="#IP_PG_2_Unbenannter_Verlauf_19"/>
        <radialGradient id="IP_PG_2_Unbenannter_Verlauf_19-21" cx="2394.93" cy="1998" fx="2394.93" fy="1998" r="4.89" gradientTransform="translate(2155.75 -2226.26) rotate(80.39)" xlink:href="#IP_PG_2_Unbenannter_Verlauf_19"/>
        <radialGradient id="IP_PG_2_Unbenannter_Verlauf_19-22" cx="2361.75" cy="1982.67" fx="2361.75" fy="1982.67" r="4.89" gradientTransform="translate(2155.75 -2226.26) rotate(80.39)" xlink:href="#IP_PG_2_Unbenannter_Verlauf_19"/>
        <radialGradient id="IP_PG_2_Unbenannter_Verlauf_19-23" cx="2368.27" cy="1798.53" fx="2368.27" fy="1798.53" r="3.67" gradientTransform="translate(2155.75 -2226.26) rotate(80.39)" xlink:href="#IP_PG_2_Unbenannter_Verlauf_19"/>
        <radialGradient id="IP_PG_2_Unbenannter_Verlauf_19-24" cx="2399.31" cy="2039.56" fx="2399.31" fy="2039.56" r="6.52" gradientTransform="translate(2155.75 -2226.26) rotate(80.39)" xlink:href="#IP_PG_2_Unbenannter_Verlauf_19"/>
        <radialGradient id="IP_PG_2_Unbenannter_Verlauf_19-25" cx="2386.78" cy="2019.32" fx="2386.78" fy="2019.32" r="3.67" gradientTransform="translate(2155.75 -2226.26) rotate(80.39)" xlink:href="#IP_PG_2_Unbenannter_Verlauf_19"/>
        <radialGradient id="IP_PG_2_Unbenannter_Verlauf_14" cx="345.15" cy="301.05" fx="345.15" fy="301.05" r="46.13" gradientUnits="userSpaceOnUse">
            <stop offset="0" stop-color="#fcea10"/>
            <stop offset="0" stop-color="#fff" stop-opacity=".94"/>
            <stop offset="1" stop-color="#fff" stop-opacity="0"/>
        </radialGradient>
        <radialGradient id="IP_PG_2_Unbenannter_Verlauf_14-2" cx="584.37" cy="636.5" fx="584.37" fy="636.5" r="28.52" xlink:href="#IP_PG_2_Unbenannter_Verlauf_14"/>
        <radialGradient id="IP_PG_2_Unbenannter_Verlauf_69" cx="482.06" cy="500" fx="482.06" fy="500" r="861.59" gradientTransform="translate(337.92 -49.18) rotate(43.4) scale(1 .6)" gradientUnits="userSpaceOnUse">
            <stop offset="0" stop-color="#0d79bf" stop-opacity="0"/>
            <stop offset=".07" stop-color="#0a81c5" stop-opacity=".03"/>
            <stop offset=".33" stop-color="#0498d9" stop-opacity=".13"/>
            <stop offset=".58" stop-color="#01a6e5" stop-opacity=".18"/>
            <stop offset=".81" stop-color="#00abe9" stop-opacity=".2"/>
            <stop offset=".93" stop-color="#69c6e3" stop-opacity=".4"/>
            <stop offset="1" stop-color="#00abe9" stop-opacity=".6"/>
        </radialGradient>
    </defs>
    <g id="ip_pg_2">
        <g class="IP_PG_2-bg">
            <rect class="cls-IP-PG-2-41" x=".47" y="0" width="1000" height="1000"/>
            <path class="cls-IP-PG-2-43" d="M1000.47,386.06C811.7,222.92,540.25,120.61,238.57,120.61c-81.95,0-161.67,7.55-238.11,21.82V1000H1000.47V386.06Z"/>
            <path class="cls-IP-PG-2-44" d="M1000.48,746.29c-188.04-224.19-490.23-369.59-830.98-369.59-57.57,0-114.04,4.15-169.04,12.13V1000H1000.47v-253.71Z"/>
        </g>
        <g class="IP_PG_2-bursts-bottom">
                <g>
                    <polygon class="cls-IP-PG-2-46" points="498.23 425.53 539.56 453.83 244.45 1004.2 91.82 899.71 498.23 425.53"/>
                    <polygon class="cls-IP-PG-2-22" points="495.67 439.43 525.25 451.93 215.59 970.91 106.37 924.77 495.67 439.43"/>
                    <circle class="cls-IP-PG-2-50" cx="404.52" cy="676.39" r="8.99"/>
                    <circle class="cls-IP-PG-2-30" cx="284.71" cy="707.27" r="6.74"/>
                    <circle class="cls-IP-PG-2-28" cx="308.37" cy="819.67" r="6.74"/>
                    <circle class="cls-IP-PG-2-31" cx="371.59" cy="689.26" r="6.74"/>
                    <circle class="cls-IP-PG-2-36" cx="331.37" cy="636.41" r="6.74"/>
                    <circle class="cls-IP-PG-2-36" cx="256.7" cy="895.29" r="5.06"/>
                    <circle class="cls-IP-PG-2-36" cx="338.41" cy="754.78" r="6.74"/>
                    <circle class="cls-IP-PG-2-36" cx="304.23" cy="770.25" r="5.06"/>
                    <circle class="cls-IP-PG-2-36" cx="371" cy="658.36" r="5.06"/>
                    <circle class="cls-IP-PG-2-36" cx="330.47" cy="682.43" r="5.06"/>
                    <circle class="cls-IP-PG-2-36" cx="214.25" cy="798.12" r="5.06"/>
                </g>
                <g>
                    <polygon class="cls-IP-PG-2-20" points="62.81 1000 553.62 492.35 508.14 437.71 .47 774.6 .47 1000 62.81 1000"/>
                    <polygon class="cls-IP-PG-2-47" points="0 988.97 534.81 484.22 499.26 455.7 .46 810.61 0 988.97"/>
                    <circle class="cls-IP-PG-2-29" cx="283.06" cy="743.94" r="12.76"/>
                    <circle class="cls-IP-PG-2-25" cx="107.51" cy="739.72" r="9.57"/>
                    <circle class="cls-IP-PG-2-24" cx="96.3" cy="902.34" r="9.57"/>
                    <circle class="cls-IP-PG-2-27" cx="233.11" cy="748.77" r="9.57"/>
                    <circle class="cls-IP-PG-2-36" cx="198.66" cy="661.04" r="9.57"/>
                    <circle class="cls-IP-PG-2-36" cx="162.43" cy="825.38" r="9.57"/>
                    <circle class="cls-IP-PG-2-36" cx="109.78" cy="833.26" r="7.18"/>
                    <circle class="cls-IP-PG-2-36" cx="244.27" cy="706.35" r="7.18"/>
                    <circle class="cls-IP-PG-2-36" cx="179.61" cy="723.53" r="7.18"/>
                </g>
            </g>
        <g class="IP_PG_2-cluster-rings">
                <path class="cls-IP-PG-2-38" d="M1000.47,297.68c-3.24-4.34-6.51-8.67-9.81-12.98-2.08-2.71-1.56-6.6,1.15-8.67,2.71-2.08,6.6-1.56,8.67,1.15l-.02,20.5Z"/>
                <path class="cls-IP-PG-2-38" d="M265.6,1000c-49.96-36.31-98.3-76.68-144.68-120.88-27.36-26.07-53.87-53.39-78.8-81.19-2.28-2.54-6.19-2.76-8.74-.48-2.54,2.28-2.76,6.19-.48,8.74,25.14,28.04,51.88,55.59,79.47,81.88,42.56,40.56,86.76,77.93,132.34,111.92h20.87Z"/>
                <path class="cls-IP-PG-2-40" d="M222.91,932.89c-1.03,0-2.06-.34-2.92-1.04-27.22-22.13-54.06-45.77-79.76-70.27-19.14-18.24-37.9-37.19-55.78-56.34-1.75-1.87-1.65-4.81,.23-6.56,1.87-1.75,4.81-1.65,6.56,.23,17.76,19.02,36.4,37.84,55.4,55.96,25.53,24.33,52.18,47.81,79.22,69.79,1.99,1.62,2.29,4.54,.67,6.53-.92,1.13-2.25,1.71-3.6,1.71Z"/>
                <path class="cls-IP-PG-2-35" d="M807.94,466.5c-9.34,0-18.45-4.73-23.65-13.29-33.23-54.63-75.14-106.21-124.56-153.31-48.55-46.27-101.13-85.12-156.26-115.46-13.38-7.36-18.26-24.18-10.89-37.56,7.36-13.38,24.18-18.26,37.56-10.89,59.31,32.64,115.74,74.32,167.75,123.88,52.94,50.44,97.9,105.82,133.66,164.6,7.94,13.05,3.79,30.06-9.25,38-4.49,2.73-9.45,4.03-14.34,4.03Z"/>
                <path class="cls-IP-PG-2-35" d="M768.65,917.14c-10.67,0-20.83-6.21-25.36-16.61-6.1-14,.3-30.3,14.3-36.4,20.98-9.14,39.26-21.79,54.32-37.6,30.87-32.4,47.22-76.11,48.57-129.92,.87-34.31-4.53-71.48-16.04-110.47-4.32-14.65,4.04-30.03,18.69-34.35,14.65-4.32,30.03,4.04,34.35,18.69,13.15,44.53,19.3,87.44,18.29,127.52-1.69,67-23.76,124.64-63.82,166.68-20.17,21.17-44.49,38.04-72.27,50.15-3.6,1.57-7.35,2.31-11.03,2.31Z"/>
                <path class="cls-IP-PG-2-35" d="M522.1,912.05c-2.96,0-5.96-.48-8.91-1.48-77.05-26.23-155.25-70.95-226.14-129.3-11.79-9.71-13.48-27.13-3.77-38.92,9.71-11.79,27.13-13.48,38.92-3.77,65.79,54.16,138,95.54,208.81,119.65,14.46,4.92,22.19,20.63,17.26,35.09-3.92,11.5-14.66,18.75-26.17,18.75Z"/>
                <path class="cls-IP-PG-2-35" d="M153.1,623.58c-8.78,0-17.41-4.17-22.78-11.94-59.42-86.02-95.89-175.69-105.45-259.31-10.2-89.19,11.06-164.3,61.47-217.21,20.28-21.28,44.74-38.22,72.7-50.34,14.01-6.07,30.29,.36,36.37,14.38,6.07,14.01-.36,30.3-14.38,36.37-21.13,9.16-39.52,21.86-54.66,37.75-38.74,40.65-54.84,100.4-46.56,172.77,8.41,73.56,42.51,156.72,96,234.16,8.68,12.57,5.53,29.79-7.03,38.47-4.8,3.31-10.27,4.9-15.69,4.9Z"/>
                <path class="cls-IP-PG-2-34" d="M674.6,386.74c-6.66,0-13.29-2.73-18.07-8.09-11.42-12.81-23.6-25.4-36.2-37.4-30.53-29.09-63.33-54.7-97.5-76.14-11.32-7.1-14.74-22.03-7.64-33.35,7.1-11.32,22.03-14.74,33.35-7.64,36.92,23.15,72.3,50.78,105.17,82.1,13.54,12.9,26.64,26.44,38.93,40.22,8.89,9.97,8.02,25.27-1.96,34.16-4.61,4.11-10.36,6.14-16.09,6.14Z"/>
                <path class="cls-IP-PG-2-34" d="M796.51,736.09c-2.27,0-4.58-.32-6.87-1-12.81-3.79-20.13-17.25-16.34-30.06,11.15-37.7,9.35-84.07-5.2-134.08-3.73-12.83,3.64-26.26,16.48-29.99,12.83-3.73,26.26,3.64,29.99,16.48,17.14,58.92,18.91,114.7,5.14,161.31-3.11,10.53-12.75,17.34-23.19,17.34Z"/>
                <path class="cls-IP-PG-2-34" d="M624.51,852.16c-65.82,0-140.78-21.94-214.63-64.37-11.59-6.66-15.58-21.45-8.92-33.03,6.66-11.59,21.45-15.58,33.03-8.92,49.88,28.66,101.29,47.6,148.66,54.77,46,6.96,87.43,2.69,119.81-12.36,12.12-5.63,26.51-.37,32.14,11.75,5.63,12.12,.37,26.51-11.75,32.14-28.91,13.43-62.26,20.03-98.34,20.03Z"/>
                <path class="cls-IP-PG-2-34" d="M324.61,721.5c-5.62,0-11.26-1.94-15.84-5.91-8.18-7.09-16.32-14.49-24.2-22-67.06-63.9-118.2-137.68-147.9-213.36-4.88-12.44,1.25-26.48,13.69-31.36,12.44-4.88,26.48,1.25,31.36,13.69,27.14,69.16,74.25,136.93,136.24,196.01,7.33,6.99,14.91,13.87,22.51,20.46,10.1,8.75,11.19,24.03,2.44,34.13-4.78,5.52-11.52,8.35-18.29,8.35Z"/>
                <path class="cls-IP-PG-2-34" d="M134.38,393.06c-12.51,0-23.11-9.63-24.1-22.31-5.24-67.1,12.34-123.93,50.86-164.35,18.3-19.2,40.72-33.99,66.62-43.93,12.48-4.79,26.47,1.44,31.26,13.91,4.79,12.48-1.44,26.47-13.91,31.26-19.16,7.36-35.63,18.17-48.94,32.14-28.77,30.19-41.79,74.18-37.65,127.2,1.04,13.32-8.92,24.97-22.24,26.01-.64,.05-1.28,.07-1.91,.07Z"/>
                <path class="cls-IP-PG-2-37" d="M633.67,588.01c-7.63,0-13.82-6.18-13.83-13.81-.06-47.18-29.92-104.91-77.93-150.66-17.83-16.99-37.09-31.43-57.26-42.93-6.63-3.78-8.94-12.23-5.16-18.86,3.78-6.63,12.23-8.94,18.86-5.16,22.11,12.61,43.19,28.4,62.64,46.94,54.09,51.55,86.43,115.34,86.5,170.64,0,7.64-6.17,13.83-13.81,13.84h-.02Z"/>
                <path class="cls-IP-PG-2-33" d="M500.78,425.61c-2.69,0-5.41-.78-7.8-2.42-29.23-20.01-60.49-30.5-85.77-28.8-7.62,.51-14.21-5.24-14.73-12.86-.52-7.62,5.24-14.21,12.86-14.73,31.37-2.12,68.99,10.11,103.26,33.57,6.3,4.31,7.91,12.92,3.6,19.22-2.68,3.91-7.01,6.02-11.42,6.02Z"/>
                <path class="cls-IP-PG-2-33" d="M574.95,614.55c-3.43,0-6.86-1.27-9.54-3.82-5.53-5.27-5.74-14.02-.47-19.55,11.96-12.55,13.32-30.03,12.34-42.48-.59-7.61,5.09-14.27,12.71-14.86,7.62-.59,14.27,5.1,14.86,12.71,2.02,25.9-4.86,47.93-19.89,63.71-2.72,2.85-6.36,4.29-10.01,4.29Z"/>
            </g>
        <g class="IP_PG_2-center">
                <circle class="cls-IP-PG-2-51" cx="474.84" cy="496.39" r="125.5"/>
            </g>
        <g class="IP_PG_2-cluster-rings">
                <path class="cls-IP-PG-2-36" d="M146.3,92.12c-11.08,0-21.54-6.71-25.79-17.66-5.52-14.24,1.54-30.26,15.78-35.78,31.52-12.23,66.74-19.08,104.69-20.37,15.27-.51,28.06,11.43,28.58,26.7,.52,15.26-11.43,28.06-26.7,28.58-31.73,1.08-60.85,6.68-86.56,16.66-3.29,1.27-6.67,1.88-10,1.88Z"/>
                <path class="cls-IP-PG-2-36" d="M517.6,148.76c-4.45,0-8.97-1.08-13.16-3.35-53.57-29.05-107.12-49.68-159.14-61.34-14.9-3.34-24.28-18.13-20.94-33.03,3.34-14.9,18.13-24.28,33.03-20.94,57,12.77,115.35,35.21,173.41,66.69,13.43,7.28,18.41,24.06,11.13,37.49-5.01,9.24-14.52,14.48-24.33,14.48Z"/>
                <path class="cls-IP-PG-2-36" d="M872.6,510.2c-10.1,0-19.82-5.55-24.7-15.17-14.17-28.01-30.84-56.04-49.53-83.32-8.63-12.6-5.42-29.81,7.18-38.44,12.6-8.63,29.81-5.42,38.44,7.18,20.06,29.28,37.98,59.43,53.25,89.61,6.9,13.63,1.44,30.26-12.19,37.16-4,2.03-8.27,2.99-12.46,2.99Z"/>
                <path class="cls-IP-PG-2-36" d="M892.61,884.09c-5.35,0-10.76-1.55-15.53-4.79-12.63-8.59-15.9-25.79-7.31-38.42,19.12-28.12,30.8-62.14,34.69-101.12,1.52-15.2,15.06-26.29,30.27-24.76,15.2,1.52,26.28,15.07,24.76,30.27-4.83,48.26-19.63,90.89-43.99,126.72-5.35,7.87-14.04,12.1-22.89,12.1Z"/>
                <path class="cls-IP-PG-2-36" d="M689.41,981.69c-15.08,0-27.42-12.11-27.64-27.25-.22-15.27,11.97-27.83,27.24-28.05,6.99-.1,13.96-.43,20.72-.96,15.23-1.21,28.54,10.16,29.75,25.38,1.21,15.22-10.16,28.54-25.38,29.75-7.93,.63-16.1,1.01-24.27,1.13-.14,0-.28,0-.41,0Z"/>
                <path class="cls-IP-PG-2-36" d="M605.17,974.12c-1.68,0-3.38-.15-5.09-.47-29.94-5.57-60.83-14.05-91.82-25.2-14.37-5.17-21.83-21.01-16.66-35.38,5.17-14.37,21.01-21.83,35.38-16.66,28.2,10.15,56.19,17.84,83.22,22.87,15.01,2.79,24.92,17.23,22.13,32.25-2.48,13.3-14.09,22.6-27.15,22.6Z"/>
                <path class="cls-IP-PG-2-36" d="M188.37,721.61c-7.56,0-15.08-3.08-20.54-9.13-32.47-35.99-61.69-74.07-86.86-113.17-8.26-12.84-4.55-29.95,8.29-38.22,12.84-8.26,29.95-4.55,38.22,8.29,23.55,36.59,50.94,72.27,81.41,106.05,10.23,11.34,9.33,28.82-2.01,39.05-5.29,4.77-11.91,7.12-18.51,7.12Z"/>
                <path class="cls-IP-PG-2-36" d="M.46,431.05c.22,.71,.45,1.42,.67,2.12,3.76,11.75,14.63,19.24,26.33,19.24,2.79,0,5.63-.43,8.43-1.32,14.55-4.65,22.57-20.21,17.92-34.76-18.01-56.34-24.73-108.96-19.97-156.4,1.53-15.2-9.56-28.75-24.75-30.28-2.96-.3-5.86-.12-8.62,.48v200.91Z"/>
                <path class="cls-IP-PG-2-36" d="M274.15,242.74c-9.39,0-18.11-6.03-21.09-15.47-3.68-11.65,2.78-24.08,14.43-27.76,12.97-4.1,26.91-6.91,41.42-8.35,12.16-1.21,22.99,7.66,24.2,19.82,1.21,12.16-7.66,22.99-19.82,24.2-11.49,1.14-22.41,3.34-32.48,6.51-2.22,.7-4.46,1.03-6.67,1.03Z"/>
                <path class="cls-IP-PG-2-36" d="M469.14,266.75c-3.04,0-6.13-.63-9.08-1.96-30.34-13.68-60.21-22.9-88.78-27.42-12.07-1.91-20.3-13.24-18.4-25.3,1.91-12.07,13.24-20.3,25.3-18.4,32.46,5.13,66.13,15.49,100.06,30.79,11.14,5.02,16.1,18.12,11.08,29.26-3.69,8.19-11.75,13.04-20.18,13.04Z"/>
                <path class="cls-IP-PG-2-36" d="M663.6,418.2c-6.38,0-12.71-2.75-17.08-8.05-13.92-16.9-29.2-33.29-45.4-48.73-14.86-14.16-30.52-27.53-46.53-39.73-9.72-7.41-11.59-21.29-4.19-31,7.41-9.72,21.29-11.59,31-4.19,17.3,13.18,34.2,27.61,50.23,42.89,17.48,16.66,33.97,34.36,49.02,52.62,7.77,9.43,6.43,23.37-3,31.14-4.12,3.4-9.1,5.05-14.06,5.05Z"/>
                <path class="cls-IP-PG-2-36" d="M760.82,620.24c-10.83,0-20.29-7.95-21.87-18.98-5.63-39.18-21.35-81.95-45.46-123.71-6.11-10.58-2.49-24.11,8.09-30.22,10.58-6.11,24.11-2.49,30.22,8.09,26.9,46.59,44.52,94.84,50.94,139.54,1.74,12.09-6.66,23.31-18.75,25.04-1.07,.15-2.13,.23-3.17,.23Z"/>
                <path class="cls-IP-PG-2-36" d="M723.9,764.79c-5.48,0-10.97-2.03-15.26-6.11-8.84-8.43-9.18-22.43-.75-31.28,18.79-19.72,29.79-45.79,32.67-77.48,1.11-12.17,11.87-21.13,24.04-20.02,12.17,1.11,21.13,11.87,20.02,24.04-3.76,41.28-19.22,77.24-44.71,103.98-4.35,4.56-10.18,6.86-16.02,6.86Z"/>
                <path class="cls-IP-PG-2-36" d="M605.24,809.83c-33.14,0-68.99-6.37-106.08-19-11.57-3.94-17.75-16.51-13.81-28.07,3.94-11.57,16.51-17.75,28.07-13.81,51.56,17.56,99.31,21.33,138.07,10.91,11.8-3.17,23.94,3.82,27.11,15.62,3.17,11.8-3.82,23.94-15.62,27.11-18,4.84-37.36,7.25-57.74,7.25Z"/>
                <path class="cls-IP-PG-2-36" d="M456.37,771.32c-3.26,0-6.57-.72-9.69-2.25-32.48-15.87-64.32-35.88-94.64-59.5-9.64-7.51-11.37-21.41-3.86-31.05,7.51-9.64,21.41-11.37,31.05-3.86,27.91,21.74,57.14,40.13,86.88,54.65,10.98,5.36,15.53,18.61,10.17,29.59-3.84,7.85-11.71,12.42-19.89,12.42Z"/>
                <path class="cls-IP-PG-2-36" d="M290.35,644.01c-6.06,0-12.1-2.48-16.47-7.34-42.29-47.09-75.63-99.61-96.43-151.87-4.52-11.35,1.02-24.22,12.38-28.73,11.35-4.52,24.22,1.02,28.73,12.38,18.89,47.47,49.4,95.42,88.24,138.67,8.16,9.09,7.41,23.08-1.68,31.24-4.23,3.79-9.51,5.66-14.77,5.66Z"/>
                <path class="cls-IP-PG-2-36" d="M179.06,433.91c-10.49,0-19.81-7.5-21.74-18.19-11.13-61.49-1.99-115.43,26.43-155.97,7.01-10,20.81-12.43,30.81-5.42,10,7.01,12.43,20.81,5.42,30.81-21.49,30.66-28.1,73.09-19.13,122.7,2.18,12.02-5.81,23.53-17.83,25.71-1.33,.24-2.66,.36-3.96,.36Z"/>
                <path class="cls-IP-PG-2-36" d="M657.82,527.09c-4.92,0-9.58-2.94-11.54-7.78-6.24-15.42-14.24-30.97-23.76-46.22-3.64-5.83-1.87-13.51,3.96-17.15,5.83-3.64,13.5-1.87,17.15,3.96,10.29,16.47,18.94,33.31,25.72,50.07,2.58,6.37-.5,13.63-6.87,16.2-1.53,.62-3.11,.91-4.67,.91Z"/>
                <path class="cls-IP-PG-2-39" d="M224.18,445.49c-9.87,0-18.61-7.06-20.4-17.12-8.01-45.13-3.04-86.16,14.39-118.66,5.41-10.09,17.98-13.89,28.08-8.48,10.09,5.41,13.89,17.98,8.48,28.08-12.98,24.21-16.47,55.95-10.1,91.81,2,11.28-5.52,22.04-16.79,24.05-1.23,.22-2.45,.32-3.65,.32Z"/>
                <path class="cls-IP-PG-2-39" d="M271.35,301.05c-6.57,0-13.03-3.11-17.06-8.91-6.53-9.41-4.2-22.33,5.21-28.86,47.19-32.76,117.45-35.72,192.76-8.11,10.75,3.94,16.28,15.86,12.33,26.61-3.94,10.75-15.85,16.28-26.61,12.33-62.45-22.89-118.89-21.71-154.84,3.24-3.61,2.5-7.73,3.7-11.81,3.7Z"/>
                <path class="cls-IP-PG-2-39" d="M649.27,453.59c-6.38,0-12.68-2.94-16.74-8.48-15.61-21.3-33.59-41.68-53.43-60.59-29.14-27.77-60.7-50.96-93.81-68.92-10.07-5.46-13.8-18.05-8.34-28.12,5.46-10.07,18.05-13.8,28.12-8.34,36.32,19.71,70.86,45.06,102.65,75.35,21.61,20.59,41.21,42.83,58.27,66.09,6.77,9.24,4.77,22.22-4.46,28.99-3.69,2.71-7.99,4.01-12.24,4.01Z"/>
                <path class="cls-IP-PG-2-39" d="M594.49,763.26c-10.94,0-20.09-8.56-20.69-19.61-.62-11.44,8.14-21.21,19.58-21.84,32.14-1.75,57.63-12.29,75.76-31.32,15.97-16.76,25.12-39.06,27.19-66.3,.87-11.42,10.83-19.97,22.26-19.1,11.42,.87,19.97,10.84,19.1,22.26-2.78,36.5-16.11,68.23-38.52,91.76-25.31,26.56-61.11,41.81-103.54,44.12-.38,.02-.77,.03-1.15,.03Z"/>
                <path class="cls-IP-PG-2-39" d="M500.79,748.61c-2.21,0-4.46-.36-6.67-1.11-49.48-16.8-99.32-46.06-144.11-84.6-8.68-7.47-9.67-20.57-2.19-29.25,7.47-8.68,20.57-9.67,29.25-2.19,40.81,35.11,85.9,61.66,130.4,76.77,10.85,3.68,16.65,15.46,12.97,26.31-2.93,8.64-11,14.08-19.64,14.08Z"/>
                <path class="cls-IP-PG-2-39" d="M311.02,615.36c-5.84,0-11.65-2.46-15.75-7.24-34.79-40.57-61.7-85.39-77.82-129.63-3.92-10.76,1.62-22.67,12.39-26.59,10.76-3.92,22.66,1.62,26.59,12.39,14.43,39.61,38.75,80.01,70.33,116.83,7.46,8.7,6.45,21.79-2.24,29.24-3.91,3.35-8.71,5-13.49,5Z"/>
                <path class="cls-IP-PG-2-37" d="M315.89,496.37c-5.61,0-10.88-3.43-12.96-9-20.15-54.01-15.13-102.39,13.78-132.72,18.03-18.92,43.84-29.1,74.66-29.45,7.62-.11,13.9,6.03,13.98,13.67,.09,7.64-6.03,13.9-13.67,13.98-23.19,.27-42.2,7.48-54.96,20.88-21.32,22.38-24.2,60.28-7.89,103.98,2.67,7.15-.97,15.12-8.12,17.79-1.59,.59-3.23,.88-4.83,.88Z"/>
                <path class="cls-IP-PG-2-37" d="M545.18,674.62c-8.11,0-16.54-.67-25.23-2.04-7.54-1.19-12.7-8.26-11.51-15.8,1.19-7.54,8.26-12.7,15.8-11.51,33.12,5.2,60.58-1.61,77.32-19.17,5.27-5.53,14.02-5.74,19.55-.47,5.53,5.27,5.74,14.02,.47,19.55-18.43,19.34-45.01,29.46-76.4,29.46Z"/>
                <path class="cls-IP-PG-2-37" d="M482.63,662.05c-1.63,0-3.29-.29-4.9-.9-35.18-13.35-69.91-35.78-100.43-64.86-14.54-13.86-27.71-28.84-39.13-44.52-4.5-6.17-3.14-14.82,3.03-19.32,6.17-4.5,14.82-3.14,19.32,3.03,10.45,14.34,22.52,28.06,35.86,40.78,27.87,26.56,59.39,46.97,91.16,59.02,7.14,2.71,10.73,10.69,8.02,17.83-2.1,5.52-7.35,8.92-12.93,8.92Z"/>
                <path class="cls-IP-PG-2-36" d="M571.92,404.5c-3.08,0-6.17-1.14-8.58-3.44-48.38-46.1-106.4-77.78-159.18-86.91-6.77-1.17-11.31-7.61-10.14-14.38,1.17-6.77,7.61-11.31,14.38-10.14,57.52,9.95,120.25,44,172.11,93.42,4.98,4.74,5.17,12.62,.42,17.59-2.45,2.57-5.73,3.86-9.01,3.86Z"/>
                <path class="cls-IP-PG-2-36" d="M607.04,706.75c-5.21,0-10.06-3.29-11.8-8.5-2.18-6.52,1.34-13.57,7.86-15.75,13.82-4.62,25.55-11.92,34.88-21.71,19.15-20.1,27.17-49.57,23.17-85.22-.77-6.83,4.15-12.99,10.98-13.75,6.83-.77,12.99,4.15,13.75,10.98,4.84,43.2-5.49,79.57-29.88,105.16-12.16,12.76-27.3,22.23-45.01,28.14-1.31,.44-2.64,.64-3.95,.64Z"/>
                <path class="cls-IP-PG-2-36" d="M445.12,678.5c-2.04,0-4.1-.5-6.01-1.56-28.74-15.9-56.1-36.15-81.31-60.18-38.11-36.32-68.02-78.26-86.49-121.29-2.71-6.32,.21-13.63,6.53-16.34,6.32-2.71,13.63,.21,16.34,6.53,17.15,39.96,45.09,79.07,80.79,113.09,23.68,22.56,49.31,41.55,76.19,56.42,6.01,3.33,8.19,10.9,4.86,16.91-2.27,4.1-6.52,6.42-10.9,6.42Z"/>
                <path class="cls-IP-PG-2-36" d="M265.73,445.3c-6.05,0-11.35-4.42-12.29-10.58-6.97-45.94,3.28-86.02,28.86-112.87,4.74-4.98,12.62-5.17,17.59-.42,4.98,4.74,5.17,12.62,.42,17.59-14.26,14.96-29.7,43.06-22.28,91.97,1.03,6.79-3.64,13.14-10.44,14.17-.63,.1-1.26,.14-1.88,.14Z"/>
                <path class="cls-IP-PG-2-33" d="M516.81,632.87c-.39,0-.79-.02-1.19-.05-38.74-3.3-81.44-24.71-117.16-58.74-49.05-46.74-74.16-108.15-62.49-152.82,1.93-7.39,9.48-11.81,16.87-9.88,7.39,1.93,11.81,9.48,9.88,16.87-9.06,34.69,13.48,86.42,54.82,125.81,30.78,29.33,68.32,48.47,100.43,51.21,7.61,.65,13.25,7.34,12.6,14.95-.61,7.21-6.66,12.65-13.76,12.65Z"/>
                <path class="cls-IP-PG-2-42" d="M203.14,0c2.87,19.44,19.29,34.67,39.63,35.36,28.97,.98,59.64,5.23,91.15,12.61,3.18,.75,6.36,1.1,9.5,1.1,18.83,0,35.87-12.91,40.35-32.03,1.35-5.78,1.43-11.56,.4-17.04H203.14Z"/>
                <path class="cls-IP-PG-2-42" d="M711.9,254.48c-9.99,0-20-3.58-27.96-10.85-50.63-46.23-104.83-86.14-161.09-118.62-19.84-11.45-26.64-36.82-15.18-56.66,11.45-19.84,36.82-26.64,56.66-15.18,61.43,35.47,120.49,78.94,175.54,129.2,16.92,15.45,18.11,41.68,2.67,58.6-8.18,8.96-19.4,13.51-30.64,13.51Z"/>
                <path class="cls-IP-PG-2-42" d="M1000.48,750.88c-3.76,1.38-7.79,2.23-12.01,2.46-.77,.04-1.55,.06-2.31,.06-21.87,0-40.17-17.1-41.38-39.21-3.22-58.55-20.75-124.08-50.71-189.51-9.54-20.83-.38-45.44,20.45-54.98,20.83-9.54,45.45-.38,54.98,20.45,12.21,26.66,22.54,53.08,30.98,79.16v181.56Z"/>
                <path class="cls-IP-PG-2-42" d="M860.66,1000c2.01-7.73,2.51-17.54-.35-25.64-7.63-21.6-31.33-32.92-52.93-25.29-40.2,14.21-87.11,18.75-139.43,13.51-22.8-2.28-43.12,14.34-45.41,37.14,0,.09-.02,.19-.03,.28h238.15Z"/>
                <path class="cls-IP-PG-2-42" d="M345.15,921.44c-7.9,0-15.89-2.25-22.95-6.96-49.14-32.73-96.46-70.67-140.64-112.77-5.21-4.96-10.43-10.04-15.53-15.1-16.26-16.13-16.37-42.4-.24-58.66,16.13-16.26,42.4-16.37,58.66-.24,4.7,4.67,9.53,9.36,14.34,13.94,40.71,38.8,84.25,73.71,129.4,103.78,19.07,12.7,24.23,38.45,11.53,57.52-7.99,12-21.15,18.49-34.56,18.49Z"/>
                <path class="cls-IP-PG-2-42" d="M.46,571.71c19.17,33.98,41.11,67.52,65.68,100.35,8.15,10.88,20.61,16.63,33.24,16.63,8.65,0,17.37-2.69,24.82-8.27,18.34-13.73,22.08-39.72,8.35-58.06-41.74-55.77-75.03-113.51-98.94-171.63-5.88-14.3-18.84-23.55-33.15-25.37v146.37Z"/>
                <path class="cls-IP-PG-2-42" d="M.47,34.78C14.23,21.67,29.27,10.06,45.52,0H187.67c1.48,19.92-11.64,38.54-31.69,43.35-42.61,10.23-77.92,29.78-104.93,58.13-14.37,15.08-26.26,32.57-35.35,51.99-3.46,7.39-8.82,13.29-15.23,17.37V34.78Z"/>
                <path class="cls-IP-PG-2-48" d="M.47,759.02c35.28,42.71,74.06,84.44,116.18,124.59,44.83,42.72,91.27,81.57,138.59,116.4H1000.47V287.37c-44.49-58.89-95.56-116.35-152.8-170.9C802.81,73.72,756.33,34.85,708.97,0H.47V759.02Z"/>
            </g>
        <g class="IP_PG_2-bursts-top">
                <g>
                    <polygon class="cls-IP-PG-2-19" points="1000.49 246.66 509.04 512.65 468.65 454.15 994.21 .13 1000.47 0 1000.49 246.66"/>
                    <polygon class="cls-IP-PG-2-23" points="1000.47 205.46 491.1 502.98 458.25 471.4 1000.47 44.71 1000.47 205.46"/>
                    <circle class="cls-IP-PG-2-26" cx="793.31" cy="220.26" r="12.76"/>
                    <circle class="cls-IP-PG-2-9" cx="671.34" cy="399.94" r="9.57"/>
                    <circle class="cls-IP-PG-2-10" cx="674.68" cy="328.5" r="9.57"/>
                    <circle class="cls-IP-PG-2-5" cx="599.23" cy="438.51" r="12.76"/>
                    <circle class="cls-IP-PG-2-1" cx="626.69" cy="400.89" r="7.18"/>
                    <circle class="cls-IP-PG-2-36" cx="579.7" cy="380.9" r="9.57"/>
                    <circle class="cls-IP-PG-2-36" cx="777.62" cy="269.43" r="7.18"/>
                    <circle class="cls-IP-PG-2-36" cx="764.71" cy="345.74" r="12.76"/>
                    <circle class="cls-IP-PG-2-36" cx="615.18" cy="366.47" r="12.76"/>
                    <circle class="cls-IP-PG-2-36" cx="869.21" cy="249.41" r="9.57"/>
                    <circle class="cls-IP-PG-2-36" cx="893.35" cy="154.13" r="7.18"/>
                    <circle class="cls-IP-PG-2-36" cx="715.86" cy="339.32" r="7.18"/>
                    <circle class="cls-IP-PG-2-36" cx="710.48" cy="267.71" r="7.18"/>
                    <circle class="cls-IP-PG-2-36" cx="987.04" cy="52.32" r="7.18"/>
                </g>
                <g>
                    <polygon class="cls-IP-PG-2-21" points="847.41 0 490.34 507.62 446.5 483.39 648.95 0 847.41 0"/>
                    <polygon class="cls-IP-PG-2-18" points="681.04 0 445.35 497.54 475.99 507.15 808.59 0 681.04 0"/>
                    <circle class="cls-IP-PG-2-8" cx="577.89" cy="233.94" r="8.99"/>
                    <circle class="cls-IP-PG-2-6" cx="557.35" cy="385.57" r="6.74"/>
                    <circle class="cls-IP-PG-2-2" cx="537.04" cy="339.46" r="6.74"/>
                    <circle class="cls-IP-PG-2-7" cx="711.75" cy="155.03" r="5.06"/>
                    <circle class="cls-IP-PG-2-4" cx="523.96" cy="432.54" r="8.99"/>
                    <circle class="cls-IP-PG-2-3" cx="529.48" cy="400.19" r="5.06"/>
                    <circle class="cls-IP-PG-2-36" cx="493.56" cy="402.33" r="6.74"/>
                    <circle class="cls-IP-PG-2-36" cx="583.43" cy="269.89" r="5.06"/>
                    <circle class="cls-IP-PG-2-36" cx="599.24" cy="322.07" r="8.99"/>
                    <circle class="cls-IP-PG-2-36" cx="511.42" cy="382.09" r="8.99"/>
                    <circle class="cls-IP-PG-2-36" cx="634.93" cy="228.51" r="6.74"/>
                    <circle class="cls-IP-PG-2-36" cx="620.25" cy="160.82" r="5.06"/>
                    <circle class="cls-IP-PG-2-36" cx="566.4" cy="333.36" r="5.06"/>
                    <circle class="cls-IP-PG-2-36" cx="540.54" cy="289.88" r="5.06"/>
                    <circle class="cls-IP-PG-2-36" cx="647.39" cy="67.2" r="5.06"/>
                </g>
                <g>
                    <polygon class="cls-IP-PG-2-45" points="492.05 506.8 478.37 473.14 877.17 258.36 927.66 382.66 492.05 506.8"/>
                    <polygon class="cls-IP-PG-2-17" points="484.16 499.99 471.27 480.59 866.3 290.62 913.9 362.25 484.16 499.99"/>
                    <circle class="cls-IP-PG-2-16" cx="666.25" cy="392.41" r="6.52"/>
                    <circle class="cls-IP-PG-2-13" cx="585.5" cy="468.54" r="4.89"/>
                    <circle class="cls-IP-PG-2-12" cx="595.08" cy="433.27" r="4.89"/>
                    <circle class="cls-IP-PG-2-14" cx="777.73" cy="408.97" r="3.67"/>
                    <circle class="cls-IP-PG-2-15" cx="545.25" cy="479.8" r="6.52"/>
                    <circle class="cls-IP-PG-2-11" cx="563.12" cy="464.07" r="3.67"/>
                    <circle class="cls-IP-PG-2-36" cx="541.89" cy="448.89" r="4.89"/>
                    <circle class="cls-IP-PG-2-36" cx="652.98" cy="415.2" r="3.67"/>
                    <circle class="cls-IP-PG-2-36" cx="638.09" cy="451.84" r="6.52"/>
                    <circle class="cls-IP-PG-2-36" cx="561.19" cy="445.63" r="6.52"/>
                    <circle class="cls-IP-PG-2-36" cx="700.89" cy="415.36" r="4.89"/>
                    <circle class="cls-IP-PG-2-36" cx="723.49" cy="370.5" r="3.67"/>
                    <circle class="cls-IP-PG-2-36" cx="614.43" cy="443.23" r="3.67"/>
                    <circle class="cls-IP-PG-2-36" cx="619.67" cy="406.91" r="3.67"/>
                    <circle class="cls-IP-PG-2-36" cx="781.51" cy="330.08" r="3.67"/>
                </g>
            </g>
        <g class="IP_PG_2-stars">
                <g>
                    <path class="cls-IP-PG-2-36" d="M380.8,301.05l-11.49,3.23c-10.15,2.85-18.07,10.78-20.93,20.93l-3.23,11.49-3.24-11.5c-2.86-10.13-10.77-18.04-20.9-20.9l-11.5-3.24,11.49-3.23c10.15-2.85,18.07-10.78,20.93-20.93l3.23-11.49,3.24,11.5c2.86,10.13,10.77,18.04,20.9,20.9l11.5,3.24Z"/>
                    <circle class="cls-IP-PG-2-49" cx="345.15" cy="301.05" r="46.13"/>
                </g>
                <g>
                    <path class="cls-IP-PG-2-36" d="M609.1,636.5l-7.97,2.24c-7.04,1.98-12.54,7.48-14.52,14.52l-2.24,7.97-2.25-7.98c-1.98-7.03-7.47-12.52-14.5-14.5l-7.98-2.25,7.97-2.24c7.04-1.98,12.54-7.48,14.52-14.52l2.24-7.97,2.25,7.98c1.98,7.03,7.47,12.52,14.5,14.5l7.98,2.25Z"/>
                    <circle class="cls-IP-PG-2-32" cx="584.37" cy="636.5" r="28.52"/>
                </g>
            </g>
    </g>
</svg>