<?xml version="1.0" encoding="UTF-8"?>
<svg id="IP_PG_9" xmlns="http://www.w3.org/2000/svg" xmlns:xlink="http://www.w3.org/1999/xlink" viewBox="0 0 1000.02 1008.4">
    <defs>
        <style>
            .cls-IP-PG-9-1{fill:url(#IP_PG_9_Unbenannter_Verlauf_14-10);}
            .cls-IP-PG-9-2{fill:url(#IP_PG_9_Unbenannter_Verlauf_131-2);}
            .cls-IP-PG-9-3{fill:url(#IP_PG_9_Unbenannter_Verlauf_102-2);}
            .cls-IP-PG-9-4{fill:url(#IP_PG_9_Unbenannter_Verlauf_112-2);}
            .cls-IP-PG-9-5{fill:url(#IP_PG_9_Unbenannter_Verlauf_105-2);}
            .cls-IP-PG-9-6{fill:url(#IP_PG_9_Unbenannter_Verlauf_14-4);}
            .cls-IP-PG-9-7{fill:url(#IP_PG_9_Unbenannter_Verlauf_14-2);}
            .cls-IP-PG-9-8{fill:url(#IP_PG_9_Unbenannter_Verlauf_14-8);}
            .cls-IP-PG-9-9{fill:url(#IP_PG_9_Unbenannter_Verlauf_14-3);}
            .cls-IP-PG-9-10{fill:url(#IP_PG_9_Unbenannter_Verlauf_14-5);}
            .cls-IP-PG-9-11{fill:url(#IP_PG_9_Unbenannter_Verlauf_14-6);}
            .cls-IP-PG-9-12{fill:url(#IP_PG_9_Unbenannter_Verlauf_14-7);}
            .cls-IP-PG-9-13{fill:url(#IP_PG_9_Unbenannter_Verlauf_14-9);}
            .cls-IP-PG-9-14{fill:url(#IP_PG_9_Unbenannter_Verlauf_83-2);}
            .cls-IP-PG-9-15{fill:url(#IP_PG_9_Unbenannter_Verlauf_94-2);}
            .cls-IP-PG-9-16{fill:#fff;}
            .cls-IP-PG-9-17{fill:#69c6e3;}
            .cls-IP-PG-9-18{fill:#b8e1ee;}
            .cls-IP-PG-9-19{fill:#05a7c1;}
            .cls-IP-PG-9-20{fill:#1b1532;}
            .cls-IP-PG-9-21{fill:#36bcdc;}
            .cls-IP-PG-9-22,
            .cls-IP-PG-9-23{opacity:.75;}
            .cls-IP-PG-9-24{fill:url(#IP_PG_9_Unbenannter_Verlauf_290);}
            .cls-IP-PG-9-25{fill:url(#IP_PG_9_Unbenannter_Verlauf_280);}
            .cls-IP-PG-9-26{fill:url(#IP_PG_9_Unbenannter_Verlauf_261);}
            .cls-IP-PG-9-27{fill:url(#IP_PG_9_Unbenannter_Verlauf_260);}
            .cls-IP-PG-9-28{fill:url(#IP_PG_9_Unbenannter_Verlauf_131);}
            .cls-IP-PG-9-29{fill:url(#IP_PG_9_Unbenannter_Verlauf_102);}
            .cls-IP-PG-9-30{fill:url(#IP_PG_9_Unbenannter_Verlauf_112);}
            .cls-IP-PG-9-31{fill:url(#IP_PG_9_Unbenannter_Verlauf_105);}
            .cls-IP-PG-9-32{fill:url(#IP_PG_9_Unbenannter_Verlauf_94);}
            .cls-IP-PG-9-33{fill:url(#IP_PG_9_Unbenannter_Verlauf_83);}
            .cls-IP-PG-9-34{fill:url(#IP_PG_9_Unbenannter_Verlauf_14);}
            .cls-IP-PG-9-23{fill:url(#IP_PG_9_Unbenannter_Verlauf_295);}
            .cls-IP-PG-9-35{fill:url(#IP_PG_9_Unbenannter_Verlauf_297);opacity:.5;}
        </style>
        <radialGradient id="IP_PG_9_Unbenannter_Verlauf_295" cx="257.45" cy="2886.19" fx="257.45" fy="2886.19" r="1400.42" gradientTransform="translate(0 -1743.48) scale(1 1.26)" gradientUnits="userSpaceOnUse">
            <stop offset=".84" stop-color="#221d43"/>
            <stop offset=".88" stop-color="#211c41" stop-opacity=".94"/>
            <stop offset=".92" stop-color="#201b3e" stop-opacity=".76"/>
            <stop offset=".96" stop-color="#1e1839" stop-opacity=".45"/>
            <stop offset="1" stop-color="#1b1532" stop-opacity=".03"/>
            <stop offset="1" stop-color="#1b1532" stop-opacity="0"/>
        </radialGradient>
        <radialGradient id="IP_PG_9_Unbenannter_Verlauf_297" cx="199.55" cy="3641.37" fx="199.55" fy="3641.37" r="1359.71" gradientTransform="translate(0 -2813.45) scale(1 1.4)" gradientUnits="userSpaceOnUse">
            <stop offset=".87" stop-color="#2a2458"/>
            <stop offset=".89" stop-color="#292357" stop-opacity=".95"/>
            <stop offset=".92" stop-color="#282254" stop-opacity=".81"/>
            <stop offset=".95" stop-color="#26214f" stop-opacity=".58"/>
            <stop offset=".98" stop-color="#241e48" stop-opacity=".26"/>
            <stop offset="1" stop-color="#221d43" stop-opacity="0"/>
        </radialGradient>
        <radialGradient id="IP_PG_9_Unbenannter_Verlauf_14" cx="738.85" cy="118.34" fx="738.85" fy="118.34" r="29.83" gradientUnits="userSpaceOnUse">
            <stop offset="0" stop-color="#fcea10"/>
            <stop offset="0" stop-color="#fff" stop-opacity=".94"/>
            <stop offset="1" stop-color="#fff" stop-opacity="0"/>
        </radialGradient>
        <radialGradient id="IP_PG_9_Unbenannter_Verlauf_14-2" cx="578.9" cy="466.7" fx="578.9" fy="466.7" xlink:href="#IP_PG_9_Unbenannter_Verlauf_14"/>
        <radialGradient id="IP_PG_9_Unbenannter_Verlauf_14-3" cx="387.82" cy="610.34" fx="387.82" fy="610.34" xlink:href="#IP_PG_9_Unbenannter_Verlauf_14"/>
        <radialGradient id="IP_PG_9_Unbenannter_Verlauf_14-4" cx="77.24" cy="552.72" fx="77.24" fy="552.72" r="18.44" xlink:href="#IP_PG_9_Unbenannter_Verlauf_14"/>
        <radialGradient id="IP_PG_9_Unbenannter_Verlauf_14-5" cx="555.85" cy="186.18" fx="555.85" fy="186.18" r="18.44" xlink:href="#IP_PG_9_Unbenannter_Verlauf_14"/>
        <radialGradient id="IP_PG_9_Unbenannter_Verlauf_14-6" cx="875.72" cy="518.79" fx="875.72" fy="518.79" r="18.44" xlink:href="#IP_PG_9_Unbenannter_Verlauf_14"/>
        <radialGradient id="IP_PG_9_Unbenannter_Verlauf_14-7" cx="567.97" cy="871.14" fx="567.97" fy="871.14" r="18.44" xlink:href="#IP_PG_9_Unbenannter_Verlauf_14"/>
        <radialGradient id="IP_PG_9_Unbenannter_Verlauf_14-8" cx="219.23" cy="832.1" fx="219.23" fy="832.1" r="29.83" xlink:href="#IP_PG_9_Unbenannter_Verlauf_14"/>
        <radialGradient id="IP_PG_9_Unbenannter_Verlauf_14-9" cx="798.11" cy="621.78" fx="798.11" fy="621.78" r="29.83" xlink:href="#IP_PG_9_Unbenannter_Verlauf_14"/>
        <radialGradient id="IP_PG_9_Unbenannter_Verlauf_14-10" cx="175.71" cy="260.38" fx="175.71" fy="260.38" r="37.83" xlink:href="#IP_PG_9_Unbenannter_Verlauf_14"/>
        <linearGradient id="IP_PG_9_Unbenannter_Verlauf_102" x1="313.67" y1="732.2" x2="313.67" y2="277.96" gradientTransform="translate(266.5 -165.14) rotate(25.3)" gradientUnits="userSpaceOnUse">
            <stop offset="0" stop-color="#1852a1"/>
            <stop offset=".05" stop-color="#1265b0"/>
            <stop offset=".15" stop-color="#0597d9"/>
            <stop offset=".18" stop-color="#00abe9"/>
            <stop offset=".19" stop-color="#02abe9"/>
            <stop offset=".2" stop-color="#28b6ec"/>
            <stop offset=".22" stop-color="#49c0ef"/>
            <stop offset=".25" stop-color="#65c8f2"/>
            <stop offset=".27" stop-color="#7ccef4"/>
            <stop offset=".3" stop-color="#8dd3f6"/>
            <stop offset=".34" stop-color="#99d7f7"/>
            <stop offset=".38" stop-color="#a1d9f7"/>
            <stop offset=".5" stop-color="#a3daf8"/>
            <stop offset=".64" stop-color="#a1d9f7"/>
            <stop offset=".69" stop-color="#9ad7f7"/>
            <stop offset=".73" stop-color="#8dd3f6"/>
            <stop offset=".77" stop-color="#7ccef4"/>
            <stop offset=".79" stop-color="#65c8f2"/>
            <stop offset=".82" stop-color="#49c0ef"/>
            <stop offset=".84" stop-color="#29b6ec"/>
            <stop offset=".86" stop-color="#04ace9"/>
            <stop offset=".86" stop-color="#00abe9"/>
            <stop offset=".9" stop-color="#0596d8"/>
            <stop offset=".98" stop-color="#1362ae"/>
            <stop offset="1" stop-color="#1852a1"/>
        </linearGradient>
        <linearGradient id="IP_PG_9_Unbenannter_Verlauf_94" x1="283.27" y1="776.27" x2="283.27" y2="233.88" gradientTransform="translate(266.5 -165.14) rotate(25.3)" gradientUnits="userSpaceOnUse">
            <stop offset="0" stop-color="#1852a1"/>
            <stop offset=".07" stop-color="#1265b0"/>
            <stop offset=".22" stop-color="#0597d9"/>
            <stop offset=".27" stop-color="#00abe9"/>
            <stop offset=".43" stop-color="#72cbf3"/>
            <stop offset=".5" stop-color="#a3daf8"/>
            <stop offset=".53" stop-color="#9bd7f7"/>
            <stop offset=".57" stop-color="#85d1f5"/>
            <stop offset=".63" stop-color="#62c7f2"/>
            <stop offset=".69" stop-color="#32b9ed"/>
            <stop offset=".75" stop-color="#00abe9"/>
            <stop offset=".82" stop-color="#0596d8"/>
            <stop offset=".96" stop-color="#1362ae"/>
            <stop offset="1" stop-color="#1852a1"/>
        </linearGradient>
        <linearGradient id="IP_PG_9_Unbenannter_Verlauf_131" x1="355.19" y1="1077.69" x2="355.19" y2="27.14" gradientTransform="translate(266.5 -165.14) rotate(25.3)" gradientUnits="userSpaceOnUse">
            <stop offset=".01" stop-color="#1852a1"/>
            <stop offset=".24" stop-color="#00abe9"/>
            <stop offset=".25" stop-color="#0baeea"/>
            <stop offset=".29" stop-color="#39bbee"/>
            <stop offset=".34" stop-color="#5fc6f1"/>
            <stop offset=".38" stop-color="#7dcff4"/>
            <stop offset=".42" stop-color="#92d5f6"/>
            <stop offset=".46" stop-color="#9ed8f7"/>
            <stop offset=".5" stop-color="#a3daf8"/>
            <stop offset=".54" stop-color="#9ed8f7"/>
            <stop offset=".59" stop-color="#91d4f6"/>
            <stop offset=".64" stop-color="#7bcef4"/>
            <stop offset=".69" stop-color="#5cc5f1"/>
            <stop offset=".74" stop-color="#34baed"/>
            <stop offset=".79" stop-color="#04ace9"/>
            <stop offset=".79" stop-color="#00abe9"/>
            <stop offset="1" stop-color="#1852a1"/>
        </linearGradient>
        <linearGradient id="IP_PG_9_Unbenannter_Verlauf_112" x1="638.85" y1="996.08" x2="207.96" y2="84.37" gradientTransform="translate(266.5 -165.14) rotate(25.3)" gradientUnits="userSpaceOnUse">
            <stop offset="0" stop-color="#1852a1"/>
            <stop offset=".17" stop-color="#088bcf"/>
            <stop offset=".25" stop-color="#00abe9"/>
            <stop offset=".27" stop-color="#12b0ea"/>
            <stop offset=".31" stop-color="#3ebcee"/>
            <stop offset=".35" stop-color="#62c7f2"/>
            <stop offset=".38" stop-color="#7ecff4"/>
            <stop offset=".42" stop-color="#92d5f6"/>
            <stop offset=".46" stop-color="#9ed8f7"/>
            <stop offset=".5" stop-color="#a3daf8"/>
            <stop offset=".55" stop-color="#9fd8f7"/>
            <stop offset=".6" stop-color="#93d5f6"/>
            <stop offset=".64" stop-color="#80d0f4"/>
            <stop offset=".69" stop-color="#65c8f2"/>
            <stop offset=".73" stop-color="#43beef"/>
            <stop offset=".78" stop-color="#19b2eb"/>
            <stop offset=".8" stop-color="#00abe9"/>
            <stop offset=".86" stop-color="#0596d8"/>
            <stop offset=".97" stop-color="#1460ac"/>
            <stop offset="1" stop-color="#1852a1"/>
        </linearGradient>
        <linearGradient id="IP_PG_9_Unbenannter_Verlauf_105" x1="377.51" y1="734.36" x2="377.51" y2="280.11" gradientTransform="translate(266.5 -165.14) rotate(25.3)" gradientUnits="userSpaceOnUse">
            <stop offset="0" stop-color="#1852a1"/>
            <stop offset=".03" stop-color="#1265b0"/>
            <stop offset=".1" stop-color="#0597d9"/>
            <stop offset=".12" stop-color="#00abe9"/>
            <stop offset=".13" stop-color="#02abe9"/>
            <stop offset=".15" stop-color="#28b6ec"/>
            <stop offset=".17" stop-color="#49c0ef"/>
            <stop offset=".2" stop-color="#65c8f2"/>
            <stop offset=".23" stop-color="#7ccef4"/>
            <stop offset=".26" stop-color="#8dd3f6"/>
            <stop offset=".3" stop-color="#99d7f7"/>
            <stop offset=".36" stop-color="#a1d9f7"/>
            <stop offset=".5" stop-color="#a3daf8"/>
            <stop offset=".64" stop-color="#a1d9f7"/>
            <stop offset=".7" stop-color="#9ad7f7"/>
            <stop offset=".74" stop-color="#8dd3f6"/>
            <stop offset=".78" stop-color="#7ccef4"/>
            <stop offset=".81" stop-color="#65c8f2"/>
            <stop offset=".83" stop-color="#49c0ef"/>
            <stop offset=".86" stop-color="#29b6ec"/>
            <stop offset=".88" stop-color="#04ace9"/>
            <stop offset=".88" stop-color="#00abe9"/>
            <stop offset=".91" stop-color="#0596d8"/>
            <stop offset=".98" stop-color="#1362ae"/>
            <stop offset="1" stop-color="#1852a1"/>
        </linearGradient>
        <linearGradient id="IP_PG_9_Unbenannter_Verlauf_102-2" x1="691.41" y1="732.2" x2="691.41" y2="277.96" xlink:href="#IP_PG_9_Unbenannter_Verlauf_102"/>
        <linearGradient id="IP_PG_9_Unbenannter_Verlauf_94-2" x1="721.8" y1="776.27" x2="721.8" y2="233.88" xlink:href="#IP_PG_9_Unbenannter_Verlauf_94"/>
        <linearGradient id="IP_PG_9_Unbenannter_Verlauf_83" x1="780.28" y1="917.36" x2="780.28" y2="99.7" gradientTransform="translate(266.5 -165.14) rotate(25.3)" gradientUnits="userSpaceOnUse">
            <stop offset=".12" stop-color="#1852a1"/>
            <stop offset=".15" stop-color="#106db7"/>
            <stop offset=".2" stop-color="#078fd2"/>
            <stop offset=".25" stop-color="#02a3e2"/>
            <stop offset=".27" stop-color="#00abe9"/>
            <stop offset=".28" stop-color="#07ade9"/>
            <stop offset=".29" stop-color="#2cb7ed"/>
            <stop offset=".3" stop-color="#4cc1f0"/>
            <stop offset=".32" stop-color="#67c8f2"/>
            <stop offset=".33" stop-color="#7dcff4"/>
            <stop offset=".35" stop-color="#8ed4f6"/>
            <stop offset=".37" stop-color="#9ad7f7"/>
            <stop offset=".41" stop-color="#a1d9f7"/>
            <stop offset=".5" stop-color="#a3daf8"/>
            <stop offset=".6" stop-color="#a1d9f7"/>
            <stop offset=".64" stop-color="#9ad7f7"/>
            <stop offset=".66" stop-color="#8ed4f6"/>
            <stop offset=".68" stop-color="#7dcff4"/>
            <stop offset=".7" stop-color="#67c8f2"/>
            <stop offset=".72" stop-color="#4cc1f0"/>
            <stop offset=".73" stop-color="#2cb7ed"/>
            <stop offset=".75" stop-color="#07ade9"/>
            <stop offset=".75" stop-color="#00abe9"/>
            <stop offset=".78" stop-color="#01a4e3"/>
            <stop offset=".81" stop-color="#0692d5"/>
            <stop offset=".86" stop-color="#0e74bd"/>
            <stop offset=".9" stop-color="#1852a1"/>
        </linearGradient>
        <linearGradient id="IP_PG_9_Unbenannter_Verlauf_83-2" x1="2592.53" y1="-53.29" x2="2592.53" y2="714.8" gradientTransform="translate(2866.6 723.02) rotate(-180)" xlink:href="#IP_PG_9_Unbenannter_Verlauf_83"/>
        <linearGradient id="IP_PG_9_Unbenannter_Verlauf_131-2" x1="906.67" y1="869.51" x2="518.28" y2="47.72" xlink:href="#IP_PG_9_Unbenannter_Verlauf_131"/>
        <linearGradient id="IP_PG_9_Unbenannter_Verlauf_112-2" x1="794.07" y1="922.72" x2="366.78" y2="18.61" xlink:href="#IP_PG_9_Unbenannter_Verlauf_112"/>
        <linearGradient id="IP_PG_9_Unbenannter_Verlauf_105-2" x1="627.57" y1="734.36" x2="627.57" y2="280.11" xlink:href="#IP_PG_9_Unbenannter_Verlauf_105"/>
        <radialGradient id="IP_PG_9_Unbenannter_Verlauf_290" cx="500.28" cy="507.25" fx="500.28" fy="507.25" r="167.25" gradientUnits="userSpaceOnUse">
            <stop offset=".69" stop-color="#b8e1ee"/>
            <stop offset="1" stop-color="#fff" stop-opacity="0"/>
        </radialGradient>
        <radialGradient id="IP_PG_9_Unbenannter_Verlauf_280" cx="-18.95" cy="-1089.66" fx="-18.95" fy="-1089.66" r="129.17" gradientTransform="translate(-132.08 1394.86) rotate(36.46)" gradientUnits="userSpaceOnUse">
            <stop offset=".88" stop-color="#b8e1ee"/>
            <stop offset="1" stop-color="#fff" stop-opacity=".8"/>
        </radialGradient>
        <radialGradient id="IP_PG_9_Unbenannter_Verlauf_261" cx="-34.35" cy="-1102.25" fx="-34.35" fy="-1102.25" r="113.68" gradientTransform="translate(-132.08 1394.86) rotate(36.46)" gradientUnits="userSpaceOnUse">
            <stop offset="0" stop-color="#69c6e3"/>
            <stop offset="1" stop-color="#69c6e3" stop-opacity="0"/>
        </radialGradient>
        <radialGradient id="IP_PG_9_Unbenannter_Verlauf_260" cx="-44.83" cy="-1117.11" fx="-44.83" fy="-1117.11" r="64.97" gradientTransform="translate(-132.08 1394.86) rotate(36.46)" gradientUnits="userSpaceOnUse">
            <stop offset="0" stop-color="#36bcdc"/>
            <stop offset="1" stop-color="#36bcdc" stop-opacity="0"/>
        </radialGradient>
    </defs>
    <g id="ip_pg_9">
        <g class="IP_PG_9-bg">
            <rect class="cls-IP-PG-9-20" x="0" y="8.4" width="1000" height="1000"/>
            <path class="cls-IP-PG-9-23" d="M1000.01,394.46C811.24,231.32,539.79,129.01,238.11,129.01c-81.95,0-161.67,7.55-238.11,21.82V1008.4H1000.01V394.46Z"/>
            <path class="cls-IP-PG-9-35" d="M1000.02,754.69c-188.04-224.19-490.23-369.59-830.98-369.59C111.47,385.1,55,389.25,0,397.23V1008.4H1000.01v-253.71Z"/>
        </g>
        <g class="IP_PG_9-bg-stars">
            <path class="cls-IP-PG-9-16" d="M821.15,621.78l-7.43,2.09c-6.56,1.84-11.68,6.97-13.53,13.53l-2.09,7.43-2.1-7.44c-1.85-6.55-6.96-11.67-13.51-13.51l-7.44-2.1,7.43-2.09c6.56-1.84,11.68-6.97,13.53-13.53l2.09-7.43,2.1,7.44c1.85,6.55,6.96,11.67,13.51,13.51l7.44,2.1Z"/>
            <path class="cls-IP-PG-9-16" d="M601.94,466.7l-7.43,2.09c-6.56,1.84-11.68,6.97-13.53,13.53l-2.09,7.43-2.1-7.44c-1.85-6.55-6.96-11.67-13.51-13.51l-7.44-2.1,7.43-2.09c6.56-1.84,11.68-6.97,13.53-13.53l2.09-7.43,2.1,7.44c1.85,6.55,6.96,11.67,13.51,13.51l7.44,2.1Z"/>
            <path class="cls-IP-PG-9-16" d="M761.89,118.34l-7.43,2.09c-6.56,1.84-11.68,6.97-13.53,13.53l-2.09,7.43-2.1-7.44c-1.85-6.55-6.96-11.67-13.51-13.51l-7.44-2.1,7.43-2.09c6.56-1.84,11.68-6.97,13.53-13.53l2.09-7.43,2.1,7.44c1.85,6.55,6.96,11.67,13.51,13.51l7.44,2.1Z"/>
            <path class="cls-IP-PG-9-16" d="M410.87,610.34l-7.43,2.09c-6.56,1.84-11.68,6.97-13.53,13.53l-2.09,7.43-2.1-7.44c-1.85-6.55-6.96-11.67-13.51-13.51l-7.44-2.1,7.43-2.09c6.56-1.84,11.68-6.97,13.53-13.53l2.09-7.43,2.1,7.44c1.85,6.55,6.96,11.67,13.51,13.51l7.44,2.1Z"/>
            <path class="cls-IP-PG-9-16" d="M242.27,832.1l-7.43,2.09c-6.56,1.84-11.68,6.97-13.53,13.53l-2.09,7.43-2.1-7.44c-1.85-6.55-6.96-11.67-13.51-13.51l-7.44-2.1,7.43-2.09c6.56-1.84,11.68-6.97,13.53-13.53l2.09-7.43,2.1,7.44c1.85,6.55,6.96,11.67,13.51,13.51l7.44,2.1Z"/>
            <path class="cls-IP-PG-9-16" d="M583.96,871.14l-5.15,1.45c-4.55,1.28-8.11,4.84-9.39,9.39l-1.45,5.15-1.46-5.16c-1.28-4.54-4.83-8.09-9.37-9.37l-5.16-1.46,5.15-1.45c4.55-1.28,8.11-4.84,9.39-9.39l1.45-5.15,1.46,5.16c1.28,4.54,4.83,8.09,9.37,9.37l5.16,1.46Z"/>
            <path class="cls-IP-PG-9-16" d="M93.23,552.72l-5.15,1.45c-4.55,1.28-8.11,4.84-9.39,9.39l-1.45,5.15-1.46-5.16c-1.28-4.54-4.83-8.09-9.37-9.37l-5.16-1.46,5.15-1.45c4.55-1.28,8.11-4.84,9.39-9.39l1.45-5.15,1.46,5.16c1.28,4.54,4.83,8.09,9.37,9.37l5.16,1.46Z"/>
            <path class="cls-IP-PG-9-16" d="M891.7,518.79l-5.15,1.45c-4.55,1.28-8.11,4.84-9.39,9.39l-1.45,5.15-1.46-5.16c-1.28-4.54-4.83-8.09-9.37-9.37l-5.16-1.46,5.15-1.45c4.55-1.28,8.11-4.84,9.39-9.39l1.45-5.15,1.46,5.16c1.28,4.54,4.83,8.09,9.37,9.37l5.16,1.46Z"/>
            <path class="cls-IP-PG-9-16" d="M571.84,186.18l-5.15,1.45c-4.55,1.28-8.11,4.84-9.39,9.39l-1.45,5.15-1.46-5.16c-1.28-4.54-4.83-8.09-9.37-9.37l-5.16-1.46,5.15-1.45c4.55-1.28,8.11-4.84,9.39-9.39l1.45-5.15,1.46,5.16c1.28,4.54,4.83,8.09,9.37,9.37l5.16,1.46Z"/>
            <path class="cls-IP-PG-9-16" d="M207.89,260.38l-10.37,2.92c-9.16,2.58-16.32,9.73-18.89,18.89l-2.92,10.37-2.93-10.38c-2.58-9.14-9.72-16.29-18.87-18.87l-10.38-2.93,10.37-2.92c9.16-2.58,16.32-9.73,18.89-18.89l2.92-10.37,2.93,10.38c2.58,9.14,9.72,16.29,18.87,18.87l10.38,2.93Z"/>
            <circle class="cls-IP-PG-9-34" cx="738.85" cy="118.34" r="29.83"/>
            <circle class="cls-IP-PG-9-7" cx="578.9" cy="466.7" r="29.83"/>
            <circle class="cls-IP-PG-9-9" cx="387.82" cy="610.34" r="29.83"/>
            <circle class="cls-IP-PG-9-6" cx="77.24" cy="552.72" r="18.44"/>
            <circle class="cls-IP-PG-9-10" cx="555.85" cy="186.18" r="18.44"/>
            <circle class="cls-IP-PG-9-11" cx="875.72" cy="518.79" r="18.44"/>
            <circle class="cls-IP-PG-9-12" cx="567.97" cy="871.14" r="18.44"/>
            <circle class="cls-IP-PG-9-8" cx="219.23" cy="832.1" r="29.83"/>
            <circle class="cls-IP-PG-9-13" cx="798.11" cy="621.78" r="29.83"/>
            <circle class="cls-IP-PG-9-1" cx="175.71" cy="260.38" r="37.83"/>
        </g>
        <g class="IP_PG_9-bg-specks">
            <circle class="cls-IP-PG-9-16" cx="630.73" cy="326.44" r="3.87"/>
            <circle class="cls-IP-PG-9-16" cx="715.8" cy="938.73" r="3.87"/>
            <circle class="cls-IP-PG-9-16" cx="731.99" cy="751.32" r="3.87"/>
            <circle class="cls-IP-PG-9-16" cx="484.43" cy="926.46" r="3.87"/>
            <circle class="cls-IP-PG-9-16" cx="282.37" cy="666.4" r="3.87"/>
            <circle class="cls-IP-PG-9-16" cx="267.11" cy="714.91" r="3.87"/>
            <circle class="cls-IP-PG-9-16" cx="97.1" cy="598.73" r="3.87"/>
            <circle class="cls-IP-PG-9-16" cx="89.36" cy="264.25" r="3.87"/>
            <circle class="cls-IP-PG-9-16" cx="571.84" cy="606.47" r="3.87"/>
            <circle class="cls-IP-PG-9-16" cx="305.1" cy="475.83" r="3.87"/>
            <circle class="cls-IP-PG-9-16" cx="263.24" cy="202.17" r="3.87"/>
            <circle class="cls-IP-PG-9-16" cx="175.71" cy="365.38" r="3.87"/>
            <circle class="cls-IP-PG-9-16" cx="419.68" cy="95.3" r="3.87"/>
            <circle class="cls-IP-PG-9-16" cx="561.65" cy="755.19" r="3.87"/>
            <circle class="cls-IP-PG-9-16" cx="415.81" cy="308.06" r="3.87"/>
            <circle class="cls-IP-PG-9-16" cx="652.46" cy="114.47" r="3.87"/>
            <circle class="cls-IP-PG-9-16" cx="634.6" cy="75.88" r="3.87"/>
            <circle class="cls-IP-PG-9-16" cx="798.11" cy="260.38" r="3.87"/>
            <circle class="cls-IP-PG-9-16" cx="931.53" cy="347.5" r="3.87"/>
            <circle class="cls-IP-PG-9-16" cx="761.89" cy="493.61" r="3.87"/>
            <circle class="cls-IP-PG-9-16" cx="903.62" cy="662.53" r="3.87"/>
        </g>
        <g class="IP_PG_9-field">
            <path class="cls-IP-PG-9-29" d="M304.16,645.76c-23.28,0-45.92-4.95-66.93-14.88-44.87-21.21-76.9-62.55-90.19-116.41-13.25-53.68-6.29-113.4,19.59-168.16,25.88-54.76,67.61-98.05,117.49-121.89,50.06-23.92,102.34-25.42,147.21-4.22,44.87,21.21,76.9,62.55,90.19,116.41,13.25,53.68,6.29,113.4-19.59,168.16l-2.26-1.07,2.26,1.07c-25.88,54.76-67.61,98.05-117.49,121.89-26.61,12.72-53.85,19.1-80.27,19.1Zm60.23-435.45c-25.69,0-52.2,6.21-78.12,18.6-48.85,23.35-89.73,65.79-115.13,119.52-25.39,53.73-32.23,112.26-19.26,164.83,12.93,52.38,43.99,92.54,87.48,113.09,43.48,20.55,94.24,19.06,142.91-4.21,48.85-23.35,89.73-65.79,115.13-119.52,25.39-53.73,32.23-112.26,19.26-164.83-12.93-52.38-43.99-92.54-87.48-113.09-20.33-9.61-42.25-14.4-64.8-14.4Z"/>
            <path class="cls-IP-PG-9-32" d="M270.77,675.49c-27.77,0-54.78-5.91-79.86-17.76-53.54-25.3-91.76-74.64-107.62-138.93-15.82-64.1-7.51-135.42,23.41-200.83s80.74-117.11,140.31-145.58c59.74-28.55,122.13-30.34,175.67-5.04,53.54,25.3,91.76,74.64,107.62,138.93,15.82,64.1,7.51,135.42-23.41,200.83-30.91,65.41-80.74,117.11-140.31,145.58-31.76,15.18-64.28,22.8-95.81,22.8ZM342.82,154.61c-30.8,0-62.58,7.45-93.66,22.3-58.53,27.98-107.53,78.83-137.95,143.2-62.72,132.71-26.01,282.14,81.83,333.1,107.84,50.97,246.6-15.53,309.32-148.24l2.26,1.07-2.26-1.07c30.42-64.37,38.62-134.51,23.07-197.5-15.5-62.8-52.75-110.96-104.91-135.61-24.38-11.52-50.67-17.27-77.72-17.27Z"/>
            <path class="cls-IP-PG-9-28" d="M565.05,8.4h5.15c4.08,16.44,7.42,33.5,10.01,51.13,9.72,66.28,8.31,137.42-4.18,211.47-12.93,76.62-37.23,153-72.22,227.04-34.99,74.04-78.59,141.3-129.57,199.93-49.28,56.66-103.35,102.91-160.73,137.48-57.46,34.61-115.33,55.77-172.03,62.88-14,1.76-27.8,2.63-41.34,2.63l-.13-5c13.38,0,27.01-.86,40.85-2.59,56-7.02,113.22-27.95,170.07-62.2,56.93-34.3,110.61-80.21,159.54-136.48,50.69-58.28,94.03-125.16,128.83-198.78,34.79-73.62,58.95-149.57,71.81-225.73,12.41-73.53,13.81-144.15,4.17-209.91-2.63-17.9-6.03-35.2-10.21-51.86"/>
            <path class="cls-IP-PG-9-30" d="M664.42,0c-.02,.12-.04,.25-.06,.37m3.65,8.03c-30.71,170.41-85.69,340.16-163.54,504.89l-2.26-1.07,2.26,1.07c-80.97,171.32-181.85,326.98-299.83,462.64-9.56,11-19.21,21.82-28.92,32.48h-6.78c10.74-11.71,21.38-23.63,31.93-35.76,117.68-135.31,218.31-290.58,299.09-461.49,77.53-164.04,132.32-333.07,162.98-502.75h5.08Z"/>
            <path class="cls-IP-PG-9-31" d="M324.26,666.69c-10.76,0-20.91-2.18-30.23-6.59-29.6-13.99-47.13-48.64-49.35-97.56-2.2-48.36,10.8-105.06,36.61-159.67,25.81-54.61,61.37-100.65,100.12-129.65,39.21-29.34,77.11-37.79,106.71-23.81,29.6,13.99,47.13,48.64,49.35,97.56,2.2,48.36-10.8,105.06-36.61,159.67h0c-25.81,54.61-61.37,100.65-100.12,129.65-26.86,20.09-53.1,30.39-76.48,30.39ZM457.87,247.83c-22.28,0-47.5,9.96-73.46,29.39-38.12,28.52-73.13,73.9-98.6,127.78-25.47,53.88-38.3,109.75-36.14,157.3,2.14,46.99,18.65,80.11,46.49,93.27,27.84,13.16,63.92,4.89,101.58-23.29,38.12-28.52,73.13-73.9,98.6-127.78l2.26,1.07-2.26-1.07c25.47-53.88,38.3-109.75,36.14-157.3-2.14-46.99-18.65-80.11-46.49-93.27-8.64-4.08-18.08-6.11-28.11-6.11Z"/>
            <path class="cls-IP-PG-9-3" d="M645.68,807.17c-23.28,0-45.92-4.95-66.93-14.88-44.87-21.21-76.9-62.55-90.19-116.41-13.25-53.68-6.29-113.4,19.59-168.16,25.88-54.76,67.61-98.05,117.49-121.89,50.06-23.92,102.34-25.42,147.21-4.22,44.87,21.21,76.9,62.55,90.19,116.41,13.25,53.68,6.29,113.4-19.59,168.16-25.88,54.76-67.61,98.05-117.49,121.89-26.61,12.72-53.85,19.1-80.27,19.1Zm-135.27-298.39l2.26,1.07c-52.33,110.73-21.73,235.41,68.22,277.92,20.53,9.7,42.4,14.3,64.56,14.3,74.93,0,153.09-52.56,193.48-138.03,25.39-53.73,32.23-112.26,19.26-164.83-12.93-52.38-43.99-92.54-87.48-113.09-43.48-20.55-94.24-19.06-142.91,4.21-48.85,23.35-89.73,65.79-115.13,119.52l-2.26-1.07Z"/>
            <path class="cls-IP-PG-9-15" d="M667.25,862.87c-27.77,0-54.78-5.91-79.86-17.76-53.54-25.3-91.76-74.64-107.62-138.93-15.82-64.1-7.51-135.42,23.41-200.83s80.74-117.11,140.31-145.58c59.74-28.55,122.13-30.34,175.67-5.04,53.54,25.3,91.76,74.64,107.62,138.93,15.82,64.1,7.51,135.42-23.41,200.83s-80.74,117.11-140.31,145.58c-31.76,15.18-64.28,22.8-95.81,22.8Zm72.05-520.89c-30.8,0-62.58,7.45-93.66,22.3-58.53,27.98-107.53,78.83-137.95,143.2-30.42,64.37-38.62,134.51-23.07,197.5,15.5,62.8,52.75,110.96,104.91,135.61,52.15,24.65,113.01,22.86,171.37-5.03,58.53-27.98,107.53-78.83,137.95-143.2,62.72-132.71,26.01-282.14-81.83-333.1-24.38-11.52-50.67-17.27-77.72-17.27Z"/>
            <path class="cls-IP-PG-9-33" d="M608.52,1008.4c-9.78-2.79-19.3-6.37-28.54-10.74-33.43-15.8-61.21-40.96-82.55-74.76-20.55-32.56-34.29-71.73-40.85-116.42-13.44-91.69,4.81-196.47,51.39-295.04l2.26,1.07-2.26-1.07c46.58-98.57,115.96-179.19,195.33-227.01,38.69-23.31,77.68-37.56,115.88-42.35,39.67-4.97,76.73,.52,110.17,16.32,27.53,13.01,51.23,32.37,70.65,57.68v8.49c-19.18-26.68-43.53-47.81-72.79-61.64-24.8-11.72-51.67-17.61-80.17-17.61-8.92,0-18.01,.58-27.24,1.74-37.5,4.7-75.83,18.72-113.93,41.67-78.54,47.32-147.23,127.17-193.39,224.86s-64.27,201.45-50.96,292.17c6.45,44,19.95,82.52,40.13,114.48,20.82,32.99,47.89,57.52,80.45,72.91,15.75,7.44,32.33,12.53,49.63,15.26h-23.22m391.5-260.95c-46.57,97.28-115.37,176.82-193.99,224.18-28.73,17.31-57.61,29.62-86.22,36.77h-25.72c36.05-5.24,72.81-19.04,109.36-41.05,78.54-47.32,147.23-127.17,193.39-224.86,1.07-2.27,2.13-4.54,3.17-6.81m0,0v11.77s0-11.77,0-11.77"/>
            <path class="cls-IP-PG-9-14" d="M391.7,8.22c9.78,2.79,19.3,6.37,28.54,10.74,33.43,15.8,61.21,40.96,82.55,74.76,20.55,32.56,34.29,71.73,40.85,116.42,13.44,91.69-4.81,196.47-51.39,295.04l-2.26-1.07,2.26,1.07c-46.58,98.57-115.96,179.19-195.33,227.01-38.69,23.31-77.68,37.56-115.88,42.35-39.67,4.97-76.73-.52-110.17-16.32-27.53-13.01-51.23-32.37-70.65-57.68v-8.49c19.18,26.68,43.53,47.81,72.79,61.64,24.8,11.72,51.67,17.61,80.17,17.61,8.92,0,18.01-.58,27.24-1.74,37.5-4.7,75.83-18.72,113.93-41.67,78.54-47.32,147.23-127.17,193.39-224.86s64.27-201.45,50.96-292.17c-6.45-44-19.95-82.52-40.13-114.48-20.82-32.99-47.89-57.52-80.45-72.91-15.75-7.44-32.33-12.53-49.63-15.26h23.22M.21,269.17C46.78,171.89,115.58,92.35,194.19,44.99c28.73-17.31,57.61-29.62,86.22-36.77h25.72c-36.05,5.24-72.81,19.04-109.36,41.05C118.23,96.59,49.55,176.45,3.38,274.13c-1.07,2.27-2.13,4.54-3.17,6.81m0,0v-11.77s0,11.77,0,11.77"/>
            <path class="cls-IP-PG-9-2" d="M450.24,1008.4c-6.18-21.54-11.02-44.21-14.49-67.92-9.72-66.28-8.31-137.42,4.18-211.47,12.93-76.61,37.23-153,72.22-227.04l2.26,1.07-2.26-1.07c34.99-74.04,78.59-141.3,129.57-199.93,49.28-56.66,103.35-102.91,160.73-137.48,57.46-34.61,115.33-55.77,172.03-62.88,8.59-1.08,17.1-1.82,25.52-2.24v5.01c-8.22,.41-16.52,1.14-24.9,2.19-56,7.02-113.22,27.95-170.07,62.2-56.93,34.3-110.61,80.21-159.54,136.48-50.69,58.28-94.03,125.16-128.83,198.78-34.79,73.62-58.95,149.57-71.81,225.73-12.41,73.53-13.81,144.15-4.17,209.91,3.52,24,8.45,46.91,14.75,68.65h-5.2Z"/>
            <path class="cls-IP-PG-9-4" d="M842.52,8.4c-13.13,14.16-26.12,28.62-38.96,43.4-117.68,135.31-218.31,290.58-299.09,461.49l-2.26-1.07,2.26,1.07c-76.37,161.58-130.67,328-161.58,495.11h-5.08c30.96-167.84,85.46-334.98,162.15-497.25,80.97-171.32,181.85-326.98,299.83-462.64,11.86-13.63,23.83-27.01,35.93-40.11h6.81"/>
            <path class="cls-IP-PG-9-5" d="M550.34,773.54c-10.76,0-20.91-2.18-30.23-6.59-29.6-13.99-47.12-48.64-49.35-97.56-2.2-48.36,10.8-105.06,36.61-159.67,25.81-54.61,61.37-100.65,100.12-129.65,39.21-29.34,77.11-37.79,106.71-23.81,29.6,13.99,47.13,48.64,49.35,97.56,2.2,48.36-10.8,105.06-36.61,159.67-25.81,54.61-61.37,100.65-100.12,129.65-26.86,20.09-53.1,30.39-76.48,30.39Zm133.64-418.85c-56.1,0-127.62,63.07-172.1,157.17-52.33,110.73-47.69,223.14,10.35,250.57,27.84,13.16,63.92,4.89,101.58-23.29,38.12-28.52,73.13-73.9,98.6-127.78,52.33-110.73,47.69-223.14-10.35-250.57-8.72-4.12-18.16-6.09-28.08-6.09Z"/>
        </g>
        <g class="IP_PG_9-star-shine-base">
                <circle class="cls-IP-PG-9-24" cx="500.28" cy="507.25" r="167.25"/>
            </g>
        <g class="IP_PG_9-star-base">
                <circle class="cls-IP-PG-9-17" cx="500.28" cy="507.25" r="135.77"/>
                <circle class="cls-IP-PG-9-25" cx="500.28" cy="507.25" r="129.17"/>
                <circle class="cls-IP-PG-9-26" cx="495.38" cy="487.97" r="113.68"/>
                <circle class="cls-IP-PG-9-27" cx="495.78" cy="469.79" r="64.97"/>
            </g>
        <g class="IP_PG_9-star-sparkle cls-IP-PG-9-22">
            <circle class="cls-IP-PG-9-16" cx="478.28" cy="446.94" r="2.35"/>
            <circle class="cls-IP-PG-9-16" cx="499.59" cy="440.17" r="2.35"/>
            <circle class="cls-IP-PG-9-16" cx="503.42" cy="431.02" r="2.35"/>
            <circle class="cls-IP-PG-9-16" cx="486.93" cy="453.33" r="2.87"/>
            <circle class="cls-IP-PG-9-16" cx="431.48" cy="438.16" r="2.35"/>
            <circle class="cls-IP-PG-9-16" cx="438.25" cy="421.08" r="2.35"/>
            <circle class="cls-IP-PG-9-16" cx="434.9" cy="450.8" r="3.36"/>
            <circle class="cls-IP-PG-9-16" cx="408.68" cy="572.77" r="2.87"/>
            <circle class="cls-IP-PG-9-16" cx="397.14" cy="438.54" r="2.35"/>
            <circle class="cls-IP-PG-9-16" cx="410.43" cy="556.86" r="3.36"/>
            <circle class="cls-IP-PG-9-16" cx="390.91" cy="511.19" r="2.87"/>
            <circle class="cls-IP-PG-9-16" cx="399" cy="453.55" r="2.35"/>
            <circle class="cls-IP-PG-9-16" cx="397.16" cy="476.93" r="2.87"/>
            <circle class="cls-IP-PG-9-16" cx="440.01" cy="463.12" r="2.35"/>
            <circle class="cls-IP-PG-9-16" cx="404.69" cy="487.71" r="2.87"/>
            <circle class="cls-IP-PG-9-16" cx="427.31" cy="465.03" r="2.35"/>
            <circle class="cls-IP-PG-9-16" cx="464.59" cy="488.39" r="3.36"/>
            <circle class="cls-IP-PG-9-16" cx="453.07" cy="493.5" r="2.87"/>
            <circle class="cls-IP-PG-9-16" cx="520.39" cy="432.92" r="2.35"/>
            <circle class="cls-IP-PG-9-16" cx="461.74" cy="460.53" r="2.87"/>
            <circle class="cls-IP-PG-9-16" cx="584.47" cy="422.28" r="2.35"/>
            <circle class="cls-IP-PG-9-16" cx="587.53" cy="436.24" r="3.36"/>
            <circle class="cls-IP-PG-9-16" cx="537.66" cy="413.51" r="2.35"/>
            <circle class="cls-IP-PG-9-16" cx="541.09" cy="426.14" r="3.36"/>
            <circle class="cls-IP-PG-9-16" cx="524.9" cy="457.66" r="3.36"/>
            <circle class="cls-IP-PG-9-16" cx="514.49" cy="461.26" r="2.87"/>
            <circle class="cls-IP-PG-9-16" cx="546.2" cy="438.46" r="2.35"/>
            <circle class="cls-IP-PG-9-16" cx="533.5" cy="440.37" r="2.35"/>
            <circle class="cls-IP-PG-9-16" cx="559.25" cy="468.84" r="2.87"/>
            <circle class="cls-IP-PG-9-16" cx="572.84" cy="475.32" r="3.36"/>
            <circle class="cls-IP-PG-9-16" cx="567.93" cy="435.87" r="2.87"/>
            <circle class="cls-IP-PG-9-16" cx="524.51" cy="399.13" r="2.87"/>
            <circle class="cls-IP-PG-9-16" cx="481.36" cy="426.7" r="3.36"/>
            <circle class="cls-IP-PG-9-16" cx="489.65" cy="417.05" r="2.35"/>
            <circle class="cls-IP-PG-9-16" cx="486.96" cy="392.04" r="3.36"/>
            <circle class="cls-IP-PG-9-16" cx="497.6" cy="389.21" r="2.87"/>
            <circle class="cls-IP-PG-9-16" cx="477.12" cy="408.66" r="2.35"/>
            <circle class="cls-IP-PG-9-16" cx="417.97" cy="422.23" r="2.87"/>
            <circle class="cls-IP-PG-9-16" cx="449.67" cy="399.43" r="2.35"/>
            <circle class="cls-IP-PG-9-16" cx="436.97" cy="401.34" r="2.35"/>
            <circle class="cls-IP-PG-9-16" cx="474.88" cy="579.9" r="2.35"/>
            <circle class="cls-IP-PG-9-16" cx="496.18" cy="573.13" r="2.35"/>
            <circle class="cls-IP-PG-9-16" cx="500.02" cy="563.98" r="2.35"/>
            <circle class="cls-IP-PG-9-16" cx="483.53" cy="586.29" r="2.87"/>
            <circle class="cls-IP-PG-9-16" cx="443.44" cy="566.24" r="2.35"/>
            <circle class="cls-IP-PG-9-16" cx="431.5" cy="583.76" r="3.36"/>
            <circle class="cls-IP-PG-9-16" cx="436.6" cy="596.08" r="2.35"/>
            <circle class="cls-IP-PG-9-16" cx="423.91" cy="597.99" r="2.35"/>
            <circle class="cls-IP-PG-9-16" cx="461.19" cy="621.35" r="3.36"/>
            <circle class="cls-IP-PG-9-16" cx="458.34" cy="593.49" r="2.87"/>
            <circle class="cls-IP-PG-9-16" cx="443.7" cy="553.93" r="2.87"/>
            <circle class="cls-IP-PG-9-16" cx="521.49" cy="590.62" r="3.36"/>
            <circle class="cls-IP-PG-9-16" cx="511.08" cy="594.22" r="2.87"/>
            <circle class="cls-IP-PG-9-16" cx="430.18" cy="507.37" r="2.35"/>
            <circle class="cls-IP-PG-9-16" cx="455.49" cy="524.87" r="3.36"/>
            <circle class="cls-IP-PG-9-16" cx="477.96" cy="559.66" r="3.36"/>
            <circle class="cls-IP-PG-9-16" cx="460.91" cy="542.59" r="2.35"/>
            <circle class="cls-IP-PG-9-16" cx="419.1" cy="548.2" r="2.35"/>
            <circle class="cls-IP-PG-9-16" cx="390.57" cy="534.52" r="2.35"/>
            <circle class="cls-IP-PG-9-16" cx="399.42" cy="534.42" r="2.87"/>
            <circle class="cls-IP-PG-9-16" cx="416.64" cy="523.08" r="2.35"/>
            <circle class="cls-IP-PG-9-16" cx="456.6" cy="506.3" r="2.35"/>
            <circle class="cls-IP-PG-9-16" cx="418" cy="488.08" r="2.35"/>
            <circle class="cls-IP-PG-9-16" cx="521.61" cy="484.65" r="2.35"/>
            <circle class="cls-IP-PG-9-16" cx="515.6" cy="476.76" r="2.35"/>
            <circle class="cls-IP-PG-9-16" cx="489.27" cy="526.88" r="2.35"/>
            <circle class="cls-IP-PG-9-16" cx="549.42" cy="471.48" r="3.36"/>
            <circle class="cls-IP-PG-9-16" cx="547.33" cy="482.29" r="2.87"/>
            <circle class="cls-IP-PG-9-16" cx="500.83" cy="493.7" r="3.36"/>
            <circle class="cls-IP-PG-9-16" cx="477.53" cy="499.92" r="2.35"/>
            <circle class="cls-IP-PG-9-16" cx="530.57" cy="625.54" r="2.35"/>
            <circle class="cls-IP-PG-9-16" cx="557.6" cy="602.92" r="3.36"/>
            <circle class="cls-IP-PG-9-16" cx="561.84" cy="614.8" r="2.87"/>
            <circle class="cls-IP-PG-9-16" cx="529.61" cy="603.68" r="2.87"/>
            <circle class="cls-IP-PG-9-16" cx="553.32" cy="570.49" r="2.35"/>
            <circle class="cls-IP-PG-9-16" cx="570.07" cy="590.88" r="2.35"/>
            <circle class="cls-IP-PG-9-16" cx="558.95" cy="584.48" r="2.35"/>
            <circle class="cls-IP-PG-9-16" cx="568.23" cy="483.36" r="2.35"/>
            <circle class="cls-IP-PG-9-16" cx="584.7" cy="502.38" r="3.36"/>
            <circle class="cls-IP-PG-9-16" cx="577.57" cy="510.77" r="2.87"/>
            <circle class="cls-IP-PG-9-16" cx="619.96" cy="494.53" r="2.87"/>
            <circle class="cls-IP-PG-9-16" cx="602.57" cy="548.52" r="2.35"/>
            <circle class="cls-IP-PG-9-16" cx="595.59" cy="527.29" r="2.35"/>
            <circle class="cls-IP-PG-9-16" cx="586.4" cy="523.54" r="2.35"/>
            <circle class="cls-IP-PG-9-16" cx="608.88" cy="539.81" r="2.87"/>
            <circle class="cls-IP-PG-9-16" cx="612.83" cy="501.8" r="3.36"/>
            <circle class="cls-IP-PG-9-16" cx="616.53" cy="512.18" r="2.87"/>
            <circle class="cls-IP-PG-9-16" cx="582.3" cy="545.64" r="3.36"/>
            <circle class="cls-IP-PG-9-16" cx="572.57" cy="537.45" r="2.35"/>
            <circle class="cls-IP-PG-9-16" cx="564.3" cy="550.06" r="2.35"/>
            <circle class="cls-IP-PG-9-16" cx="593.42" cy="494.33" r="2.35"/>
            <circle class="cls-IP-PG-9-16" cx="598.49" cy="511.86" r="2.87"/>
            <circle class="cls-IP-PG-9-16" cx="599.56" cy="461.42" r="2.35"/>
            <circle class="cls-IP-PG-9-16" cx="589.81" cy="459.64" r="2.35"/>
            <circle class="cls-IP-PG-9-16" cx="615.14" cy="470.94" r="2.87"/>
            <circle class="cls-IP-PG-9-16" cx="522.63" cy="524.55" r="2.35"/>
            <circle class="cls-IP-PG-9-16" cx="510.28" cy="521.06" r="2.35"/>
            <circle class="cls-IP-PG-9-16" cx="534.65" cy="557.69" r="3.36"/>
            <circle class="cls-IP-PG-9-16" cx="522.05" cy="557.61" r="2.87"/>
            <circle class="cls-IP-PG-9-16" cx="541.71" cy="573.52" r="2.35"/>
            <circle class="cls-IP-PG-9-16" cx="563.04" cy="533.5" r="2.35"/>
            <circle class="cls-IP-PG-9-16" cx="572.91" cy="529.21" r="2.87"/>
            <circle class="cls-IP-PG-9-16" cx="547.06" cy="520.72" r="3.36"/>
            <circle class="cls-IP-PG-9-16" cx="542.84" cy="508.71" r="2.35"/>
            <circle class="cls-IP-PG-9-16" cx="529.31" cy="515.37" r="2.35"/>
        </g>
        <g class="IP_PG_9-star-specks">
                <path class="cls-IP-PG-9-17" d="M434.36,592.31c-4.62-3.42-5.6-9.96-2.19-14.58s9.96-5.6,14.58-2.19,5.6,9.96,2.19,14.58-9.96,5.6-14.58,2.19Zm9.29-12.57c-2.31-1.71-5.57-1.22-7.28,1.09s-1.22,5.57,1.09,7.28,5.57,1.22,7.28-1.09,1.22-5.57-1.09-7.28Z"/>
                <path class="cls-IP-PG-9-17" d="M606.58,528.61c-4.62-3.42-5.6-9.96-2.19-14.58s9.96-5.6,14.58-2.19,5.6,9.96,2.19,14.58-9.96,5.6-14.58,2.19Zm9.29-12.57c-2.31-1.71-5.57-1.22-7.28,1.09s-1.22,5.57,1.09,7.28,5.57,1.22,7.28-1.09,1.22-5.57-1.09-7.28Z"/>
                <path class="cls-IP-PG-9-16" d="M440.15,513.32c-4.62-3.42-5.6-9.96-2.19-14.58s9.96-5.6,14.58-2.19,5.6,9.96,2.19,14.58-9.96,5.6-14.58,2.19Zm9.29-12.57c-2.31-1.71-5.57-1.22-7.28,1.09s-1.22,5.57,1.09,7.28,5.57,1.22,7.28-1.09,1.22-5.57-1.09-7.28Z"/>
                <path class="cls-IP-PG-9-19" d="M568.68,601.8c-3.46-2.56-4.2-7.46-1.64-10.92s7.46-4.2,10.92-1.64,4.2,7.46,1.64,10.92-7.46,4.2-10.92,1.64Zm6.18-8.37c-1.15-.85-2.78-.61-3.62,.54s-.61,2.78,.54,3.62,2.78,.61,3.62-.54,.61-2.78-.54-3.62Z"/>
                <path class="cls-IP-PG-9-19" d="M418.5,484.35c-3.46-2.56-4.2-7.46-1.64-10.92s7.46-4.2,10.92-1.64,4.2,7.46,1.64,10.92-7.46,4.2-10.92,1.64Zm6.18-8.37c-1.15-.85-2.78-.61-3.62,.54s-.61,2.78,.54,3.62,2.78,.61,3.62-.54,.61-2.78-.54-3.62Z"/>
                <path class="cls-IP-PG-9-16" d="M474.97,508.15c-5.39-3.98-6.53-11.6-2.55-16.99s11.6-6.53,16.99-2.55,6.53,11.6,2.55,16.99-11.6,6.53-16.99,2.55Zm11.34-15.35c-3.07-2.27-7.42-1.62-9.69,1.45s-1.62,7.42,1.45,9.69,7.42,1.62,9.69-1.45,1.62-7.42-1.45-9.69Z"/>
                <path class="cls-IP-PG-9-16" d="M496.89,527.37c-2.85-2.11-3.46-6.14-1.35-8.99s6.14-3.46,8.99-1.35,3.46,6.14,1.35,8.99-6.14,3.46-8.99,1.35Zm4.54-6.14c-.54-.4-1.29-.28-1.69,.25s-.28,1.3,.25,1.69,1.29,.28,1.69-.25,.28-1.29-.25-1.69Z"/>
                <path class="cls-IP-PG-9-16" d="M570.16,496.72c-2.85-2.11-3.46-6.14-1.35-8.99s6.14-3.46,8.99-1.35,3.46,6.14,1.35,8.99-6.14,3.46-8.99,1.35Zm4.54-6.14c-.54-.4-1.29-.28-1.69,.25s-.28,1.3,.25,1.69,1.29,.28,1.69-.25,.28-1.29-.25-1.69Z"/>
                <path class="cls-IP-PG-9-16" d="M533.7,448.09c-3.74-2.76-4.53-8.05-1.77-11.78s8.05-4.53,11.78-1.77,4.53,8.05,1.77,11.78-8.05,4.53-11.78,1.77Zm6.91-9.36c-1.42-1.05-3.43-.75-4.49,.67s-.75,3.43,.67,4.49,3.43,.75,4.49-.67,.75-3.43-.67-4.49Z"/>
                <path class="cls-IP-PG-9-18" d="M537.57,471.86c-2.38-1.76-4.39-4.35-5.72-7.39-3.29-7.55-1.47-15.37,4.13-17.81s12.57,1.56,15.86,9.11c1.5,3.43,1.98,7.1,1.35,10.33-.68,3.53-2.68,6.26-5.48,7.48s-6.16,.83-9.21-1.08c-.32-.2-.63-.41-.93-.63Zm5.41-19.31c-1.69-1.25-3.49-1.73-4.91-1.11-2.78,1.21-3.44,6.32-1.43,10.94,1.06,2.44,2.75,4.51,4.62,5.68,.92,.58,2.72,1.44,4.36,.72h0c1.64-.72,2.24-2.62,2.44-3.69,.42-2.17,.05-4.82-1.01-7.26-.98-2.25-2.48-4.11-4.07-5.29Z"/>
                <path class="cls-IP-PG-9-19" d="M414.71,611.74c-2.31-1.7-4.34-4.25-5.72-7.42-1.5-3.43-1.98-7.1-1.35-10.33,.68-3.53,2.68-6.26,5.48-7.48,5.6-2.44,12.57,1.56,15.86,9.11,3.29,7.55,1.47,15.37-4.13,17.81-3.25,1.42-6.96,.67-10.14-1.69Zm5.41-19.33c-1.69-1.25-3.49-1.73-4.91-1.11-1.64,.72-2.24,2.62-2.44,3.69-.42,2.17-.05,4.82,1.01,7.26,2.01,4.62,6.21,7.61,8.99,6.4l1.04,2.39-1.04-2.39c2.78-1.21,3.44-6.32,1.43-10.94-.98-2.25-2.48-4.11-4.07-5.29Z"/>
                <path class="cls-IP-PG-9-21" d="M571.9,520.21c-2.38-1.76-4.39-4.35-5.72-7.39-3.29-7.55-1.47-15.37,4.13-17.81,5.6-2.44,12.57,1.56,15.86,9.11,1.5,3.43,1.98,7.1,1.35,10.33-.68,3.53-2.68,6.26-5.48,7.48h0c-2.8,1.22-6.16,.83-9.21-1.08-.32-.2-.63-.41-.93-.63Zm5.41-19.31c-1.69-1.25-3.49-1.73-4.91-1.11-2.78,1.21-3.44,6.32-1.43,10.94,1.06,2.44,2.75,4.51,4.62,5.68,.92,.58,2.72,1.44,4.36,.72h0c1.64-.72,2.24-2.62,2.44-3.69,.42-2.17,.05-4.82-1.01-7.26-.98-2.25-2.48-4.11-4.07-5.29Z"/>
                <path class="cls-IP-PG-9-16" d="M592.64,502.87c-2.73-2.02-5.03-4.98-6.55-8.48-3.75-8.61-1.73-17.52,4.61-20.28,3.19-1.39,6.88-.95,10.38,1.23,3.19,1.99,5.9,5.26,7.61,9.21,1.72,3.94,2.27,8.15,1.55,11.85-.78,4.05-2.97,7.05-6.17,8.44s-6.88,.95-10.38-1.23c-.36-.22-.71-.47-1.06-.72Zm6.38-22.63c-.23-.17-.47-.33-.71-.48-1.16-.72-3.42-1.8-5.53-.88-3.53,1.54-4.41,7.68-1.91,13.42,1.28,2.94,3.32,5.44,5.59,6.86,1.16,.72,3.42,1.8,5.53,.88s2.87-3.31,3.13-4.65c.51-2.63,.07-5.83-1.22-8.77-1.15-2.63-2.9-4.91-4.89-6.38Z"/>
                <path class="cls-IP-PG-9-21" d="M398.39,509.83c-2.64-1.95-4.97-4.87-6.56-8.52-1.72-3.94-2.27-8.15-1.55-11.85,.78-4.05,2.97-7.05,6.17-8.44,3.19-1.39,6.88-.95,10.38,1.23,3.19,1.99,5.9,5.26,7.61,9.21,1.72,3.94,2.27,8.15,1.55,11.85-.78,4.05-2.97,7.05-6.17,8.44h0c-3.66,1.59-7.84,.74-11.44-1.92Zm6.38-22.66c-.23-.17-.47-.33-.71-.48-1.16-.72-3.42-1.8-5.53-.88-2.12,.92-2.87,3.31-3.13,4.65-.51,2.63-.07,5.83,1.22,8.77,2.5,5.73,7.59,9.28,11.12,7.74h0c2.12-.92,2.87-3.31,3.13-4.65,.51-2.63,.07-5.83-1.22-8.77-1.15-2.63-2.9-4.91-4.89-6.38Z"/>
                <path class="cls-IP-PG-9-16" d="M388.96,490.68c-2.35-1.74-4.12-4.42-5.1-7.81-1.28-4.44-1.07-9.66,.6-14.69,3.62-10.91,12.67-17.4,20.6-14.77,7.93,2.63,11.31,13.24,7.69,24.15-3.62,10.91-12.67,17.4-20.6,14.77-1.15-.38-2.22-.94-3.18-1.65Zm16.16-31.43c-.52-.38-1.09-.68-1.7-.89-4.98-1.65-11.39,3.59-14,11.46-1.34,4.04-1.53,8.16-.54,11.6,.89,3.09,2.64,5.21,4.91,5.96,4.98,1.65,11.39-3.59,14-11.46,2.29-6.9,1.03-13.93-2.68-16.67Z"/>
                <path class="cls-IP-PG-9-16" d="M444.53,627.26c-3.3-2.44-5.94-5.44-7.63-8.71-2.45-4.76-2.64-9.54-.53-13.47s6.2-6.41,11.52-7c4.96-.54,10.47,.65,15.51,3.36,5.04,2.71,9.08,6.64,11.37,11.08,2.45,4.76,2.64,9.54,.53,13.47-2.11,3.93-6.2,6.41-11.52,7-4.96,.54-10.47-.65-15.51-3.36-1.32-.71-2.57-1.5-3.74-2.36Zm19.53-19.24c-.97-.72-2.02-1.38-3.12-1.97-4.12-2.22-8.55-3.2-12.47-2.77-3.56,.39-6.22,1.91-7.49,4.28s-1.07,5.43,.57,8.61c1.81,3.5,5.07,6.65,9.2,8.87,8.06,4.33,17.2,3.64,19.96-1.51,1.27-2.37,1.07-5.43-.57-8.61-1.32-2.56-3.42-4.94-6.07-6.9Z"/>
                <path class="cls-IP-PG-9-19" d="M455.5,418.05c-1.62-1.2-2.9-2.71-3.78-4.49-1.97-4-1.61-8.78,1.01-13.44,2.44-4.35,6.62-8.13,11.76-10.66,5.14-2.53,10.69-3.52,15.62-2.8,5.29,.77,9.29,3.4,11.26,7.41,1.97,4,1.61,8.78-1.01,13.44-2.44,4.35-6.62,8.13-11.76,10.66-5.14,2.53-10.69,3.52-15.62,2.8-2.94-.43-5.47-1.43-7.49-2.92Zm28.99-24.27c-1.33-.98-3.07-1.65-5.13-1.96-3.9-.57-8.36,.25-12.57,2.32-4.2,2.07-7.58,5.1-9.51,8.53-1.75,3.12-2.07,6.17-.88,8.58,1.19,2.41,3.79,4.03,7.33,4.55,3.9,.57,8.36-.25,12.57-2.32,4.2-2.07,7.58-5.1,9.51-8.53,1.75-3.12,2.07-6.17,.88-8.58-.5-1.01-1.24-1.88-2.2-2.59Z"/>
                <path class="cls-IP-PG-9-21" d="M541.54,623.86c-2.04-1.51-3.36-3.55-3.7-5.83-.87-5.81,4.55-11.28,12.35-12.45,7.8-1.17,14.59,2.46,15.46,8.28h0c.87,5.81-4.55,11.28-12.35,12.45-3.54,.53-7.05,.07-9.88-1.31-.68-.33-1.31-.71-1.88-1.14Zm17.4-11.6c-1.88-1.39-5.11-1.94-7.96-1.52-4.14,.62-8.43,3.45-7.97,6.51,.24,1.62,1.8,2.6,2.71,3.05,1.86,.91,4.35,1.21,6.82,.84,4.14-.62,8.43-3.45,7.97-6.51-.14-.95-.72-1.75-1.56-2.37Z"/>
                <path class="cls-IP-PG-9-21" d="M430.59,416.34c-2.04-1.51-3.36-3.55-3.7-5.83-.44-2.91,.76-5.94,3.29-8.3,2.3-2.15,5.52-3.62,9.06-4.15s7.05-.07,9.88,1.31c3.11,1.51,5.15,4.05,5.58,6.96,.44,2.91-.76,5.94-3.29,8.3-2.3,2.15-5.52,3.62-9.06,4.15-3.54,.53-7.05,.07-9.88-1.31-.68-.33-1.31-.71-1.88-1.14Zm17.35-11.62c-.39-.29-.78-.51-1.1-.66-1.86-.91-4.35-1.21-6.82-.84-2.47,.37-4.76,1.39-6.27,2.81-.74,.69-1.94,2.08-1.69,3.71,.24,1.62,1.8,2.61,2.71,3.05,1.86,.91,4.35,1.21,6.82,.84,2.47-.37,4.76-1.39,6.27-2.81,.74-.69,1.94-2.08,1.69-3.71h0c-.16-1.06-.88-1.85-1.61-2.39Z"/>
                <path class="cls-IP-PG-9-18" d="M508.04,448.17c-3.28-2.42-4.82-6.06-3.6-9.28,.8-2.12,2.71-3.69,5.25-4.31,2.22-.54,4.77-.34,7.18,.57,2.41,.91,4.46,2.45,5.76,4.32,1.49,2.14,1.89,4.59,1.09,6.71-1.57,4.14-7.03,5.79-12.43,3.74-1.21-.46-2.3-1.05-3.24-1.75Zm8.95-7.07c-.58-.43-1.25-.79-1.97-1.06-1.41-.53-2.91-.67-4.09-.38-.4,.1-1.35,.4-1.61,1.09-.39,1.02,.91,3.2,3.81,4.3,2.9,1.1,5.32,.31,5.7-.71h0c.26-.69-.25-1.55-.49-1.88-.34-.49-.8-.95-1.35-1.36Z"/>
            </g>
    </g>
</svg>