<svg viewBox="0 0 1000.02 1000" xmlns="http://www.w3.org/2000/svg" xmlns:xlink="http://www.w3.org/1999/xlink">
    <g>
        <radialGradient id="IP_PG_1a" cx="257.45" cy="2603.09" gradientTransform="matrix(1 0 0 1.26 0 -1395.66)" gradientUnits="userSpaceOnUse" r="1400.42">
            <stop offset=".84" stop-color="#221d43"/>
            <stop offset=".88" stop-color="#211c41" stop-opacity=".94"/>
            <stop offset=".92" stop-color="#201b3e" stop-opacity=".76"/>
            <stop offset=".96" stop-color="#1e1839" stop-opacity=".45"/>
            <stop offset="1" stop-color="#1b1532" stop-opacity=".03"/>
            <stop offset="1" stop-color="#1b1532" stop-opacity="0"/>
        </radialGradient>
        <radialGradient id="IP_PG_1b" cx="199.55" cy="3249.55" gradientTransform="matrix(1 0 0 1.4 0 -2272.69)" gradientUnits="userSpaceOnUse" r="1359.71">
            <stop offset=".87" stop-color="#2a2458"/>
            <stop offset=".89" stop-color="#292357" stop-opacity=".95"/>
            <stop offset=".92" stop-color="#282254" stop-opacity=".81"/>
            <stop offset=".95" stop-color="#26214f" stop-opacity=".58"/>
            <stop offset=".98" stop-color="#241e48" stop-opacity=".26"/>
            <stop offset="1" stop-color="#221d43" stop-opacity="0"/>
        </radialGradient>
        <radialGradient id="IP_PG_1c" cx="184.33" cy="591.51" fx="184.33" fy="591.51" gradientUnits="userSpaceOnUse" r="128.4">
            <stop offset=".81" stop-color="#b8e1ee" stop-opacity="0"/>
            <stop offset=".9" stop-color="#b8e1ee" stop-opacity=".3"/>
            <stop offset="1" stop-color="#b8e1ee" stop-opacity="0"/>
        </radialGradient>
        <linearGradient id="IP_PG_1d">
            <stop offset=".81" stop-color="#69c6e3" stop-opacity="0"/>
            <stop offset=".9" stop-color="#69c6e3" stop-opacity=".3"/>
            <stop offset="1" stop-color="#69c6e3" stop-opacity="0"/>
        </linearGradient>
        <radialGradient id="IP_PG_1e" cx="123.86" cy="355.17" fx="123.86" fy="355.17" gradientUnits="userSpaceOnUse" r="93.72" xlink:href="#IP_PG_1d"/>
        <radialGradient id="IP_PG_1f" cx="368.86" cy="570.13" gradientUnits="userSpaceOnUse" r="93.72" xlink:href="#IP_PG_1d"/>
        <radialGradient id="IP_PG_1g" cx="240.99" cy="284.68" gradientUnits="userSpaceOnUse" r="50.9">
            <stop offset=".81" stop-color="#b8e1ee" stop-opacity="0"/>
            <stop offset=".91" stop-color="#b8e1ee" stop-opacity=".3"/>
            <stop offset="1" stop-color="#b8e1ee" stop-opacity="0"/>
        </radialGradient>
        <radialGradient id="IP_PG_1h" cx="467.38" cy="453.3" gradientUnits="userSpaceOnUse" r="27.46">
            <stop offset=".81" stop-color="#0d79bf" stop-opacity="0"/>
            <stop offset=".9" stop-color="#0d79bf" stop-opacity=".3"/>
            <stop offset="1" stop-color="#0d79bf" stop-opacity="0"/>
        </radialGradient>
        <radialGradient id="IP_PG_1i" cx="413.33" cy="398.77" fx="413.33" fy="398.77" r="83.25" xlink:href="#IP_PG_1c"/>
        <radialGradient id="IP_PG_1j" cx="256.95" cy="663" fx="256.95" fy="663" r="50.9" xlink:href="#IP_PG_1e"/>
        <radialGradient id="IP_PG_1k" cx="259.41" cy="477.43" gradientUnits="userSpaceOnUse" r="259.4">
            <stop offset=".76" stop-color="#00abe9"/>
            <stop offset="1" stop-color="#b8e1ee" stop-opacity="0"/>
        </radialGradient>
        <radialGradient id="IP_PG_1l" cx="259.41" cy="477.43" gradientUnits="userSpaceOnUse" r="214.1">
            <stop offset=".93" stop-color="#00abe9" stop-opacity=".9"/>
            <stop offset="1" stop-color="#fff" stop-opacity=".2"/>
        </radialGradient>
        <radialGradient id="IP_PG_1m" cx="358.14" cy="348.47" gradientTransform="matrix(.99887337 .04745513 -.04745513 .99887337 -81.78 113)" gradientUnits="userSpaceOnUse" r="197.86">
            <stop offset=".81" stop-color="#69c6e3"/>
            <stop offset="1" stop-color="#b8e1ee" stop-opacity=".8"/>
        </radialGradient>
        <radialGradient id="IP_PG_1n" cx="235.82" cy="458.81" gradientUnits="userSpaceOnUse" r="174.13">
            <stop offset="0" stop-color="#00abe9"/>
            <stop offset="1" stop-color="#00abe9" stop-opacity="0"/>
        </radialGradient>
        <radialGradient id="IP_PG_1o" cx="219.75" cy="436.05" gradientUnits="userSpaceOnUse" r="99.52">
            <stop offset="0" stop-color="#0d79bf" stop-opacity=".8"/>
            <stop offset="1" stop-color="#0d79bf" stop-opacity="0"/>
        </radialGradient>
        <linearGradient id="IP_PG_1p">
            <stop offset=".81" stop-color="#e95313" stop-opacity="0"/>
            <stop offset=".9" stop-color="#e95313" stop-opacity=".3"/>
            <stop offset="1" stop-color="#e95313" stop-opacity="0"/>
        </linearGradient>
        <radialGradient id="IP_PG_1q" cx="717.3" cy="609.13" fx="717.3" fy="609.13" gradientUnits="userSpaceOnUse" r="108.53" xlink:href="#IP_PG_1p"/>
        <radialGradient id="IP_PG_1r" cx="666.19" cy="409.36" fx="666.19" fy="409.36" gradientUnits="userSpaceOnUse" r="79.21">
            <stop offset=".81" stop-color="#ef7925" stop-opacity="0"/>
            <stop offset=".9" stop-color="#ef7925" stop-opacity=".3"/>
            <stop offset="1" stop-color="#ef7925" stop-opacity="0"/>
        </radialGradient>
        <radialGradient id="IP_PG_1s" cx="873.27" cy="591.06" gradientUnits="userSpaceOnUse" r="79.21">
            <stop offset=".81" stop-color="#f59e22" stop-opacity="0"/>
            <stop offset=".9" stop-color="#f59e22" stop-opacity=".3"/>
            <stop offset="1" stop-color="#f59e22" stop-opacity="0"/>
        </radialGradient>
        <radialGradient id="IP_PG_1t" cx="765.19" cy="349.78" gradientUnits="userSpaceOnUse" r="43.02" xlink:href="#IP_PG_1p"/>
        <radialGradient id="IP_PG_1u" cx="956.54" cy="492.31" gradientUnits="userSpaceOnUse" r="23.21">
            <stop offset=".81" stop-color="#fed178" stop-opacity="0"/>
            <stop offset=".9" stop-color="#fed178" stop-opacity=".3"/>
            <stop offset="1" stop-color="#fed178" stop-opacity="0"/>
        </radialGradient>
        <radialGradient id="IP_PG_1v" cx="910.86" cy="446.22" fx="910.86" fy="446.22" r="70.37" xlink:href="#IP_PG_1q"/>
        <radialGradient id="IP_PG_1w" cx="778.68" cy="669.56" fx="778.68" fy="669.56" r="43.02" xlink:href="#IP_PG_1r"/>
        <radialGradient id="IP_PG_1x" cx="780.76" cy="512.7" gradientUnits="userSpaceOnUse" r="219.25">
            <stop offset=".76" stop-color="#ef7925"/>
            <stop offset="1" stop-color="#fed178" stop-opacity="0"/>
        </radialGradient>
        <radialGradient id="IP_PG_1y" cx="780.76" cy="512.7" gradientUnits="userSpaceOnUse" r="180.97">
            <stop offset=".93" stop-color="#ef7925" stop-opacity=".9"/>
            <stop offset="1" stop-color="#fff" stop-opacity=".2"/>
        </radialGradient>
        <radialGradient id="IP_PG_1z" cx="880.58" cy="358.84" gradientTransform="matrix(.99887337 .04745513 -.04745513 .99887337 -81.78 113)" gradientUnits="userSpaceOnUse" r="167.24">
            <stop offset=".88" stop-color="#f59e22"/>
            <stop offset="1" stop-color="#fed178" stop-opacity=".8"/>
        </radialGradient>
        <radialGradient id="IP_PG_1A" cx="760.82" cy="496.97" gradientUnits="userSpaceOnUse" r="147.18">
            <stop offset="0" stop-color="#ef7925"/>
            <stop offset="1" stop-color="#e95313" stop-opacity="0"/>
        </radialGradient>
        <radialGradient id="IP_PG_1B" cx="747.24" cy="477.73" gradientUnits="userSpaceOnUse" r="84.12">
            <stop offset="0" stop-color="#e95313" stop-opacity=".7"/>
            <stop offset=".19" stop-color="#e95313" stop-opacity=".59"/>
            <stop offset=".59" stop-color="#e95313" stop-opacity=".31"/>
            <stop offset="1" stop-color="#e95313" stop-opacity="0"/>
        </radialGradient>
        <radialGradient id="IP_PG_1C" cx="705.81" cy="588.18" gradientUnits="userSpaceOnUse" r="51">
            <stop offset="0" stop-color="#e95313" stop-opacity=".8"/>
            <stop offset="1" stop-color="#e95313" stop-opacity="0"/>
        </radialGradient>
    </g>
    <g>
        <g class="IP_PG_1-bg">
            <path d="m0 0h1000v1000h-1000z" fill="#1b1532"/>
            <path d="m1000.01 386.06c-188.77-163.14-460.22-265.45-761.9-265.45-81.95 0-161.67 7.55-238.11 21.82v857.57h1000.01z" fill="url(#IP_PG_1a)"/>
            <path d="m1000.02 746.29c-188.04-224.19-490.23-369.59-830.98-369.59-57.57 0-114.04 4.15-169.04 12.13v611.17h1000.01v-253.71z" fill="url(#IP_PG_1b)"/>
        </g>
        <g class="IP_PG_1-compound-left">
            <g class="IP_PG_1-massive-star">
            <path d="m184.33 719.91c-70.8 0-128.4-57.6-128.4-128.4s57.6-128.4 128.4-128.4 128.4 57.6 128.4 128.4-57.6 128.4-128.4 128.4zm0-232.2c-57.24 0-103.8 46.56-103.8 103.8s46.56 103.8 103.8 103.8 103.8-46.56 103.8-103.8-46.56-103.8-103.8-103.8z" fill="url(#IP_PG_1c)"/>
            <path d="m123.86 448.88c-51.68 0-93.72-42.04-93.72-93.72s42.04-93.72 93.72-93.72 93.72 42.04 93.72 93.72-42.04 93.72-93.72 93.72zm0-169.48c-41.78 0-75.76 33.99-75.76 75.76s33.99 75.76 75.76 75.76 75.76-33.99 75.76-75.76-33.99-75.76-75.76-75.76z" fill="url(#IP_PG_1e)"/>
            <path d="m368.86 663.85c-51.68 0-93.72-42.04-93.72-93.72s42.04-93.72 93.72-93.72 93.72 42.04 93.72 93.72-42.04 93.72-93.72 93.72zm0-169.48c-41.78 0-75.76 33.99-75.76 75.76s33.99 75.76 75.76 75.76 75.76-33.99 75.76-75.76-33.99-75.76-75.76-75.76z" fill="url(#IP_PG_1f)"/>
            <path d="m240.99 335.58c-28.06 0-50.9-22.83-50.9-50.9s22.83-50.9 50.9-50.9 50.9 22.83 50.9 50.9-22.83 50.9-50.9 50.9zm0-92.04c-22.69 0-41.15 18.46-41.15 41.15s18.46 41.15 41.15 41.15 41.15-18.46 41.15-41.15-18.46-41.15-41.15-41.15z" fill="url(#IP_PG_1g)"/>
            <path d="m467.38 480.76c-15.14 0-27.46-12.32-27.46-27.46s12.32-27.46 27.46-27.46 27.46 12.32 27.46 27.46-12.32 27.46-27.46 27.46zm0-49.66c-12.24 0-22.2 9.96-22.2 22.2s9.96 22.2 22.2 22.2 22.2-9.96 22.2-22.2-9.96-22.2-22.2-22.2z" fill="url(#IP_PG_1h)"/>
            <path d="m413.33 482.03c-45.91 0-83.25-37.35-83.25-83.25s37.35-83.25 83.25-83.25 83.25 37.35 83.25 83.25-37.35 83.25-83.25 83.25zm0-150.56c-37.11 0-67.3 30.19-67.3 67.3s30.19 67.3 67.3 67.3 67.3-30.19 67.3-67.3-30.19-67.3-67.3-67.3z" fill="url(#IP_PG_1i)"/>
            <path d="m256.95 713.9c-28.06 0-50.9-22.83-50.9-50.9s22.83-50.9 50.9-50.9 50.9 22.83 50.9 50.9-22.83 50.9-50.9 50.9zm0-92.04c-22.69 0-41.15 18.46-41.15 41.15s18.46 41.15 41.15 41.15 41.15-18.46 41.15-41.15-18.46-41.15-41.15-41.15z" fill="url(#IP_PG_1j)"/>
            <circle cx="259.41" cy="477.43" fill="url(#IP_PG_1k)" r="259.4"/>
            <path d="m272.74 265.32c13.44-4.1 28.02-1.79 39.53 6.26 7.45 5.21 16.28 8.07 25.36 8.24 14.05.26 27.2 6.96 35.66 18.17 5.47 7.25 12.99 12.71 21.57 15.67 13.28 4.58 23.72 15.02 28.3 28.3 2.97 8.59 8.42 16.1 15.67 21.57 11.21 8.46 17.91 21.61 18.17 35.66.17 9.09 3.03 17.91 8.24 25.36 8.05 11.52 10.36 26.09 6.26 39.53-2.65 8.69-2.65 17.98 0 26.67 4.1 13.44 1.79 28.02-6.26 39.53-5.21 7.45-8.07 16.28-8.24 25.36-.26 14.05-6.96 27.2-18.17 35.66-7.25 5.47-12.71 12.99-15.67 21.57-4.58 13.28-15.02 23.72-28.3 28.3-8.59 2.97-16.1 8.42-21.57 15.67-8.46 11.21-21.61 17.91-35.66 18.17-9.09.17-17.91 3.03-25.36 8.24-11.52 8.05-26.09 10.36-39.53 6.26-8.69-2.65-17.98-2.65-26.67 0-13.44 4.1-28.02 1.79-39.53-6.26-7.45-5.21-16.28-8.07-25.36-8.24-14.05-.26-27.2-6.96-35.66-18.17-5.47-7.25-12.99-12.71-21.57-15.67-13.28-4.58-23.72-15.02-28.3-28.3-2.97-8.59-8.42-16.1-15.67-21.57-11.21-8.46-17.91-21.61-18.17-35.66-.17-9.09-3.03-17.91-8.24-25.36-8.05-11.52-10.36-26.09-6.26-39.53 2.65-8.69 2.65-17.98 0-26.67-4.1-13.44-1.79-28.02 6.26-39.53 5.21-7.45 8.07-16.28 8.24-25.36.26-14.05 6.96-27.2 18.17-35.66 7.25-5.47 12.71-12.99 15.67-21.57 4.58-13.28 15.02-23.72 28.3-28.3 8.59-2.97 16.1-8.42 21.57-15.67 8.46-11.21 21.61-17.91 35.66-18.17 9.09-.17 17.91-3.03 25.36-8.24 11.52-8.05 26.09-10.36 39.53-6.26 8.69 2.65 17.98 2.65 26.67 0z" fill="url(#IP_PG_1l)"/>
            <circle cx="259.41" cy="478.09" fill="#69c6e3" r="207.97"/>
            <circle cx="259.41" cy="478.09" fill="url(#IP_PG_1m)" r="197.86"/>
            <circle cx="235.82" cy="458.81" fill="url(#IP_PG_1n)" r="174.13"/>
            <circle cx="219.75" cy="436.05" fill="url(#IP_PG_1o)" r="99.52"/>
            <g opacity=".8">
                <circle cx="177.44" cy="423.82" fill="#b8e1ee" r="3.6"/>
                <circle cx="197.52" cy="396.09" fill="#b8e1ee" r="3.6"/>
                <circle cx="193.92" cy="381.33" fill="#b8e1ee" r="3.6"/>
                <circle cx="193.92" cy="423.82" fill="#b8e1ee" r="4.4"/>
                <circle cx="111.79" cy="455.62" fill="#b8e1ee" r="3.6"/>
                <circle cx="104.58" cy="428.4" fill="#b8e1ee" r="3.6"/>
                <circle cx="127.52" cy="468.07" fill="#b8e1ee" r="5.15"/>
                <circle cx="206.25" cy="642.2" fill="#b8e1ee" r="4.4"/>
                <circle cx="69.83" cy="487.35" fill="#fff" r="3.6"/>
                <circle cx="193.92" cy="621.01" fill="#fff" r="5.15"/>
                <circle cx="128.3" cy="582.5" fill="#b8e1ee" r="4.4"/>
                <circle cx="85.8" cy="504.14" fill="#b8e1ee" r="3.6"/>
                <circle cx="104.81" cy="534.62" fill="#fff" r="4.4"/>
                <circle cx="145.03" cy="478.6" fill="#b8e1ee" r="3.6"/>
                <circle cx="123.9" cy="541.04" fill="#b8e1ee" r="4.4"/>
                <circle cx="131.12" cy="492.5" fill="#b8e1ee" r="3.6"/>
                <circle cx="198.31" cy="487.35" fill="#b8e1ee" r="5.15"/>
                <circle cx="188.77" cy="504.14" fill="#fff" r="4.4"/>
                <circle cx="216.55" cy="368.22" fill="#b8e1ee" r="3.6"/>
                <circle cx="169.44" cy="455.62" fill="#b8e1ee" r="4.4"/>
                <circle cx="285.8" cy="296.78" fill="#b8e1ee" r="3.6"/>
                <circle cx="302.28" cy="311.19" fill="#b8e1ee" r="5.15"/>
                <circle cx="220.15" cy="328.58" fill="#b8e1ee" r="3.6"/>
                <circle cx="235.88" cy="341.03" fill="#fff" r="5.15"/>
                <circle cx="244.63" cy="394.6" fill="#b8e1ee" r="5.15"/>
                <circle cx="235.08" cy="408.5" fill="#b8e1ee" r="4.4"/>
                <circle cx="239.48" cy="365.46" fill="#fff" r="3.6"/>
                <circle cx="297.13" cy="377.1" fill="#fff" r="4.4"/>
                <circle cx="319.76" cy="372.7" fill="#b8e1ee" r="5.15"/>
                <circle cx="277.8" cy="328.58" fill="#b8e1ee" r="4.4"/>
                <circle cx="190.86" cy="322.85" fill="#b8e1ee" r="4.4"/>
                <circle cx="162.81" cy="396.09" fill="#b8e1ee" r="5.15"/>
                <circle cx="164.23" cy="376.65" fill="#fff" r="3.6"/>
                <circle cx="138.15" cy="348.29" fill="#b8e1ee" r="5.15"/>
                <circle cx="148.69" cy="335.12" fill="#b8e1ee" r="4.4"/>
                <circle cx="141.16" cy="377.72" fill="#b8e1ee" r="3.6"/>
                <circle cx="80.64" cy="448.29" fill="#b8e1ee" r="4.4"/>
                <circle cx="98.95" cy="391.35" fill="#b8e1ee" r="3.6"/>
                <circle cx="85.04" cy="405.25" fill="#b8e1ee" r="3.6"/>
                <circle cx="294.28" cy="590.71" fill="#fff" r="3.6"/>
                <circle cx="314.36" cy="562.98" fill="#fff" r="3.6"/>
                <circle cx="310.76" cy="548.22" fill="#b8e1ee" r="3.6"/>
                <circle cx="310.76" cy="590.71" fill="#b8e1ee" r="4.4"/>
                <circle cx="243.12" cy="602.5" fill="#b8e1ee" r="3.6"/>
                <circle cx="244.36" cy="634.96" fill="#fff" r="5.15"/>
                <circle cx="261.87" cy="645.49" fill="#fff" r="3.6"/>
                <g fill="#b8e1ee">
                    <circle cx="247.96" cy="659.4" r="3.6"/>
                    <circle cx="315.16" cy="654.25" r="5.15"/>
                    <circle cx="286.28" cy="622.52" r="4.4"/>
                    <circle cx="232.24" cy="587.11" r="4.4"/>
                    <circle cx="361.47" cy="561.49" r="5.15"/>
                    <circle cx="351.93" cy="575.4" r="4.4"/>
                    <circle cx="173.19" cy="542.06" r="3.6"/>
                    <circle cx="220.3" cy="540.57" r="5.15"/>
                    <circle cx="279.66" cy="562.98" r="5.15"/>
                    <circle cx="243.12" cy="557.47" r="3.6"/>
                    <circle cx="196.71" cy="602.44" r="3.6"/>
                    <circle cx="149.12" cy="611.56" r="3.6"/>
                    <circle cx="159.93" cy="603.37" r="4.4"/>
                </g>
                <circle cx="170.81" cy="573.73" fill="#fff" r="3.6"/>
                <circle cx="204.77" cy="516.68" fill="#fff" r="3.6"/>
                <circle cx="140.64" cy="529.38" fill="#b8e1ee" r="3.6"/>
                <circle cx="265.14" cy="430.84" fill="#b8e1ee" r="3.6"/>
                <circle cx="250.56" cy="426.58" fill="#b8e1ee" r="3.6"/>
                <circle cx="263.75" cy="512.3" fill="#b8e1ee" r="3.6"/>
                <circle cx="287.41" cy="389.3" fill="#b8e1ee" r="5.15"/>
                <circle cx="294.68" cy="404.52" fill="#b8e1ee" r="4.4"/>
                <circle cx="247.79" cy="460.9" fill="#b8e1ee" r="5.15"/>
                <circle cx="224.75" cy="489.78" fill="#fff" r="3.6"/>
                <circle cx="404.44" cy="596.25" fill="#fff" r="3.6"/>
                <circle cx="417.15" cy="543.77" fill="#b8e1ee" r="5.15"/>
                <circle cx="433.18" cy="554.54" fill="#b8e1ee" r="4.4"/>
                <circle cx="383.35" cy="570.19" fill="#b8e1ee" r="4.4"/>
                <circle cx="382.35" cy="507.71" fill="#b8e1ee" r="3.6"/>
                <circle cx="421.55" cy="517.59" fill="#b8e1ee" r="3.6"/>
                <circle cx="402.01" cy="519.82" fill="#b8e1ee" r="3.6"/>
                <circle cx="321.4" cy="386.81" fill="#fff" r="3.6"/>
                <circle cx="359" cy="395.24" fill="#b8e1ee" r="5.15"/>
                <circle cx="357.85" cy="412.07" fill="#b8e1ee" r="4.4"/>
                <circle cx="395.3" cy="353.48" fill="#b8e1ee" r="4.4"/>
                <circle cx="423.02" cy="435.82" fill="#b8e1ee" r="3.6"/>
                <circle cx="395.09" cy="416.02" fill="#fff" r="3.6"/>
                <circle cx="380.37" cy="419.77" fill="#b8e1ee" r="3.6"/>
                <circle cx="422.86" cy="419.34" fill="#b8e1ee" r="4.4"/>
                <circle cx="393.13" cy="368.92" fill="#b8e1ee" r="5.15"/>
                <circle cx="407.14" cy="378.33" fill="#fff" r="4.4"/>
                <circle cx="395.44" cy="450.72" fill="#b8e1ee" r="5.15"/>
                <circle cx="375.99" cy="449.49" fill="#b8e1ee" r="3.6"/>
                <circle cx="377.29" cy="472.55" fill="#fff" r="3.6"/>
                <circle cx="362.41" cy="377.38" fill="#b8e1ee" r="3.6"/>
                <circle cx="384.63" cy="394.37" fill="#b8e1ee" r="4.4"/>
                <circle cx="340.03" cy="331.25" fill="#b8e1ee" r="3.6"/>
                <circle cx="326.38" cy="337.94" fill="#b8e1ee" r="3.6"/>
                <circle cx="367.89" cy="328.81" fill="#b8e1ee" r="4.4"/>
                <circle cx="302.72" cy="479.05" fill="#b8e1ee" r="3.6"/>
                <circle cx="284.33" cy="486.01" fill="#b8e1ee" r="3.6"/>
                <circle cx="347.7" cy="508.94" fill="#fff" r="5.15"/>
                <circle cx="332.1" cy="520.31" fill="#b8e1ee" r="4.4"/>
                <circle cx="370.8" cy="522.02" fill="#b8e1ee" r="3.6"/>
                <circle cx="360.66" cy="453.3" fill="#b8e1ee" r="3.6"/>
                <circle cx="368.9" cy="439.03" fill="#b8e1ee" r="4.4"/>
                <circle cx="329.33" cy="452.1" fill="#b8e1ee" r="5.15"/>
                <circle cx="313.21" cy="441.15" fill="#b8e1ee" r="3.6"/>
                <circle cx="302.6" cy="461.66" fill="#b8e1ee" r="3.6"/>
                <circle cx="253.39" cy="351.56" fill="#b8e1ee" r="3.6"/>
            </g>
            <path d="m102.34 513.2c-5.43 0-9.85-4.42-9.85-9.85s4.42-9.85 9.85-9.85 9.85 4.42 9.85 9.85-4.42 9.85-9.85 9.85zm0-11.7c-1.02 0-1.85.83-1.85 1.85s.83 1.85 1.85 1.85 1.85-.83 1.85-1.85-.83-1.85-1.85-1.85z" fill="#fff"/>
            <path d="m176.23 519.32c-8.8 0-15.97-7.16-15.97-15.97s7.16-15.97 15.97-15.97 15.97 7.16 15.97 15.97-7.16 15.97-15.97 15.97zm0-23.94c-4.4 0-7.97 3.58-7.97 7.97s3.58 7.97 7.97 7.97 7.97-3.58 7.97-7.97-3.58-7.97-7.97-7.97z" fill="#0d79bf"/>
            <path d="m125.87 540.55c-4.54 0-9.37-1.36-13.77-3.9-4.97-2.87-8.9-6.95-11.07-11.5-2.37-4.98-2.39-10.15-.05-14.21 2.34-4.05 6.83-6.63 12.33-7.06 5.01-.39 10.52.97 15.49 3.84s8.9 6.95 11.07 11.5c2.37 4.98 2.39 10.15.05 14.21-2.34 4.05-6.83 6.63-12.33 7.06-.57.05-1.14.07-1.72.07zm-10.87-28.74c-.36 0-.72.01-1.08.04-1.66.13-4.66.71-6.03 3.08-1.37 2.38-.37 5.26.34 6.77 1.46 3.06 4.32 5.98 7.85 8.02s7.49 3.06 10.87 2.79c1.66-.13 4.66-.7 6.03-3.08 1.37-2.38.37-5.26-.34-6.77-1.46-3.06-4.32-5.98-7.85-8.02-3.16-1.83-6.67-2.83-9.8-2.83z" fill="#00abe9"/>
            <path d="m135.66 500.35c-5.03 0-10.56-1.48-15.83-4.52-12.46-7.2-18.08-20.02-12.79-29.19 5.3-9.17 19.21-10.72 31.67-3.52s18.08 20.02 12.79 29.19c-3.06 5.29-8.98 8.04-15.84 8.04zm-12.83-33.73c-4.01 0-7.33 1.35-8.87 4.02-2.95 5.11 1.56 13.48 9.86 18.27 8.29 4.79 17.8 4.52 20.75-.59s-1.56-13.48-9.86-18.27c-3.97-2.29-8.21-3.42-11.88-3.42z" fill="#b8e1ee"/>
            <path d="m359.19 400.31c-8.8 0-15.97-7.16-15.97-15.97s7.16-15.97 15.97-15.97 15.97 7.16 15.97 15.97-7.16 15.97-15.97 15.97zm0-23.94c-4.4 0-7.97 3.58-7.97 7.97s3.58 7.97 7.97 7.97 7.97-3.58 7.97-7.97-3.58-7.97-7.97-7.97z" fill="#00abe9"/>
            <path d="m352.67 442.13c-4.39 0-9.21-1.29-13.8-3.94-10.92-6.3-15.81-17.59-11.12-25.7 2.34-4.05 6.83-6.63 12.33-7.06 5.02-.4 10.52.97 15.49 3.84 10.92 6.31 15.81 17.6 11.12 25.7-2.72 4.7-7.97 7.15-14.03 7.15zm-10.89-28.77c-.36 0-.72.01-1.08.04-1.66.13-4.66.7-6.03 3.08-2.32 4.02 1.51 10.92 8.2 14.78s14.58 3.72 16.9-.29c2.32-4.02-1.51-10.92-8.2-14.78-3.16-1.83-6.67-2.83-9.8-2.83z" fill="#fff"/>
            <path d="m403.54 434.1c-6.28 0-12.27-1.29-17.33-3.79-7.35-3.63-11.93-9.35-12.91-16.11s1.8-13.55 7.83-19.11c5.61-5.18 13.49-8.72 22.17-9.98 8.68-1.25 17.23-.08 24.08 3.3 7.35 3.63 11.93 9.35 12.91 16.11s-1.8 13.55-7.83 19.11c-5.61 5.18-13.49 8.72-22.17 9.98-2.27.33-4.53.49-6.76.49zm6.38-41.47c-1.79 0-3.63.13-5.49.4-13.87 2-24.5 11.18-23.22 20.03.59 4.08 3.62 7.66 8.54 10.09 5.41 2.67 12.3 3.58 19.4 2.56s13.45-3.84 17.89-7.94c4.03-3.72 5.92-8.01 5.33-12.09-1.11-7.67-10.85-13.04-22.45-13.04z" fill="#b8e1ee"/>
            <path d="m208.39 607.97c-7.12 0-12.91-5.79-12.91-12.91s5.79-12.91 12.91-12.91 12.91 5.79 12.91 12.91-5.79 12.91-12.91 12.91zm0-17.82c-2.71 0-4.91 2.2-4.91 4.91s2.2 4.91 4.91 4.91 4.91-2.2 4.91-4.91-2.2-4.91-4.91-4.91z" fill="#b8e1ee"/>
            <path d="m234.82 633.76c-4.39 0-9.21-1.29-13.8-3.93-4.97-2.87-8.9-6.95-11.07-11.5-2.37-4.98-2.39-10.15-.05-14.21 4.68-8.11 16.9-9.52 27.82-3.22s15.81 17.6 11.12 25.71c-2.71 4.7-7.97 7.15-14.03 7.15zm-10.93-28.74c-3.21 0-5.88 1.04-7.07 3.1-1.37 2.38-.37 5.26.34 6.77 1.46 3.06 4.32 5.98 7.85 8.02 6.68 3.86 14.58 3.72 16.9-.29 2.32-4.02-1.51-10.92-8.2-14.78-3.25-1.88-6.79-2.81-9.83-2.81z" fill="#fff"/>
            <path d="m176.86 631.43c-6.25 0-11.46-3.08-12.89-8.15-1.84-6.53 3.39-13.52 11.91-15.93 3.8-1.07 7.72-1.04 11.04.08 3.79 1.28 6.5 3.93 7.44 7.27 1.84 6.53-3.39 13.52-11.91 15.93-1.91.54-3.79.79-5.59.79zm4.59-16.86c-1.1 0-2.26.16-3.4.48-4.58 1.29-6.84 4.45-6.38 6.06.45 1.61 4.03 3.12 8.61 1.83s6.84-4.45 6.38-6.06c-.31-1.09-1.72-1.67-2.31-1.87-.87-.29-1.86-.44-2.9-.44z" fill="#00abe9"/>
            <path d="m188.92 354.41c5.08-7.19 14.92-9 21.94-4.04 7.01 4.96 8.59 14.84 3.5 22.03s-14.93 9-21.94 4.04-8.59-14.84-3.5-22.03z" fill="#69c6e3"/>
            <path d="m236.45 297.52c3.13-4.43 9.2-5.55 13.53-2.49s5.3 9.15 2.16 13.59c-3.13 4.43-9.2 5.55-13.53 2.49s-5.3-9.15-2.16-13.59z" fill="#fff"/>
            <path d="m201.08 301.33c2.62-3.71 6.49-6.88 11.06-9.05 5.16-2.44 10.68-3.35 15.55-2.56 5.33.86 9.47 3.76 11.35 7.96 1.88 4.19 1.33 9.31-1.49 14.04-2.58 4.32-6.85 8.05-12 10.49s-10.68 3.35-15.55 2.56c-5.33-.86-9.47-3.76-11.35-7.96-1.88-4.19-1.33-9.31 1.5-14.04.29-.49.61-.97.94-1.44z" fill="#69c6e3"/>
            <path d="m386.93 482.08c-1.85 0-3.63-.42-5.25-1.26-3.65-1.89-5.99-5.62-6.6-10.5-.57-4.55.45-9.64 2.87-14.32s5.98-8.45 10.03-10.62c4.34-2.32 8.74-2.56 12.39-.68 3.65 1.89 5.99 5.62 6.6 10.5.57 4.55-.45 9.64-2.87 14.32s-5.98 8.45-10.03 10.62c-2.41 1.29-4.83 1.94-7.14 1.94z" fill="#0d79bf"/>
            <path d="m367.57 494.45c-2.34 0-4.43-.79-5.92-2.29-3.82-3.82-2.8-10.84 2.33-15.97s12.15-6.16 15.97-2.33c3.82 3.82 2.8 10.84-2.33 15.97-2.33 2.33-5.18 3.91-8.03 4.43-.69.13-1.36.19-2.02.19z" fill="#00abe9"/>
            <path d="m268.4 507.75c-5.09 0-9.22-4.14-9.22-9.22s4.14-9.22 9.22-9.22 9.22 4.14 9.22 9.22-4.14 9.22-9.22 9.22z" fill="#fff"/>
            <path d="m287.28 526.23c-3.14 0-6.58-.92-9.86-2.81-3.55-2.05-6.36-4.97-7.91-8.22-1.7-3.56-1.71-7.26-.04-10.15 3.35-5.79 12.08-6.81 19.88-2.3s11.3 12.57 7.95 18.37c-1.94 3.36-5.69 5.11-10.02 5.11z" fill="#b8e1ee"/>
            <path d="m245.86 524.52c-4.46 0-8.19-2.2-9.21-5.82-1.32-4.66 2.42-9.66 8.51-11.38 2.72-.77 5.52-.75 7.89.06 2.71.92 4.64 2.81 5.32 5.2 1.32 4.67-2.42 9.66-8.51 11.38-1.36.38-2.71.57-4 .57z" fill="#00abe9"/>
        </g>
            <path d="m41.13 551.21s-1.62 10.67-1.29 17.78c0 0-4.2 13.58-7.44 19.4-3.23 5.82-4.85 22.31 0 30.72s14.23 18.75 17.78 33.63c3.56 14.87 17.14 27.16 27.16 35.57s32.01 30.39 34.92 38.8 3.08 17.94 10.23 24.44 33.79 26 61.74 28.59c27.94 2.6 46.14 2.27 59.14 0s38.02-3.25 45.82-1.95 16.9-4.55 24.7-12.67 13.32-15.27 25.67-17.55c12.35-2.27 18.52-9.42 27.3-20.8 8.77-11.37 31.84-29.89 39.64-37.69s7.47-10.72 17.55-19.82c10.07-9.1 14.62-24.37 26-36.72 11.37-12.35 13.65-17.22 14.95-38.02s2.27-35.09 0-37.37-17.55-6.82-24.7 5.52c-7.15 12.35-11.17 24.9-15.66 41.04 0 0-11.62 16.56-13.47 22.11 0 0 6.69-24.05 7.62-39.43s3.73-32.86-.23-38.22-20.51-13.75-32.39 0-16.78 38.45-19.34 54.76-27.5 53.83-31.69 60.59c0 0 6.52-16.31 11.42-43.11 4.89-26.8 10.49-43.34 9.55-66.18 0 0 1.4-6.76-.7-11.65s-16.55-15.38-33.32-4.66c-16.78 10.72-22.14 66.41-25.17 70.84s-18.44 52.67-49.07 73.17c0 0-16.42 14.68-22.94 10.49s-7.22-9.09-5.83-26.33c1.4-17.24 5.09-41.45 9.68-61.53 4.58-20.08 7.2-47.8 6.55-54.79s-2.62-15.5-14.63-19.21-24.45 6.77-29.47 15.5-10.26 20.96-13.1 29.25-4.37 31-5.68 34.49-12.01 27.81-15.5 45.88c0 0-45.17-27.66-65.72-53.07 0 0 2.16-30.01-12.44-49.47s-29.63-13.84-37.66-2.33z"/>
        </g>
        <g class="IP_PG_1-compound-right">
            <g class="IP_PG_1-sun-like-star">
            <path d="m717.3 717.66c-59.84 0-108.53-48.69-108.53-108.53s48.69-108.53 108.53-108.53 108.53 48.69 108.53 108.53-48.69 108.53-108.53 108.53zm0-196.26c-48.38 0-87.74 39.36-87.74 87.74s39.36 87.74 87.74 87.74 87.74-39.36 87.74-87.74-39.36-87.74-87.74-87.74z" fill="url(#IP_PG_1q)"/>
            <path d="m666.19 488.58c-43.68 0-79.21-35.54-79.21-79.21s35.54-79.21 79.21-79.21 79.21 35.54 79.21 79.21-35.54 79.21-79.21 79.21zm0-143.25c-35.31 0-64.04 28.73-64.04 64.04s28.73 64.04 64.04 64.04 64.04-28.73 64.04-64.04-28.73-64.04-64.04-64.04z" fill="url(#IP_PG_1r)"/>
            <path d="m873.27 670.27c-43.68 0-79.21-35.54-79.21-79.21s35.54-79.21 79.21-79.21 79.21 35.54 79.21 79.21-35.54 79.21-79.21 79.21zm0-143.25c-35.31 0-64.04 28.73-64.04 64.04s28.73 64.04 64.04 64.04 64.04-28.73 64.04-64.04-28.73-64.04-64.04-64.04z" fill="url(#IP_PG_1s)"/>
            <path d="m765.19 392.8c-23.72 0-43.02-19.3-43.02-43.02s19.3-43.02 43.02-43.02 43.02 19.3 43.02 43.02-19.3 43.02-43.02 43.02zm0-77.8c-19.18 0-34.78 15.6-34.78 34.78s15.6 34.78 34.78 34.78 34.78-15.6 34.78-34.78-15.6-34.78-34.78-34.78z" fill="url(#IP_PG_1t)"/>
            <path d="m956.54 515.52c-12.8 0-23.21-10.41-23.21-23.21s10.41-23.21 23.21-23.21 23.21 10.41 23.21 23.21-10.41 23.21-23.21 23.21zm0-41.97c-10.35 0-18.76 8.42-18.76 18.76s8.42 18.76 18.76 18.76 18.76-8.42 18.76-18.76-8.42-18.76-18.76-18.76z" fill="url(#IP_PG_1u)"/>
            <path d="m910.86 516.59c-38.8 0-70.37-31.57-70.37-70.37s31.57-70.37 70.37-70.37 70.37 31.57 70.37 70.37-31.57 70.37-70.37 70.37zm0-127.26c-31.37 0-56.89 25.52-56.89 56.89s25.52 56.89 56.89 56.89 56.89-25.52 56.89-56.89-25.52-56.89-56.89-56.89z" fill="url(#IP_PG_1v)"/>
            <path d="m778.68 712.58c-23.72 0-43.02-19.3-43.02-43.02s19.3-43.02 43.02-43.02 43.02 19.3 43.02 43.02-19.3 43.02-43.02 43.02zm0-77.8c-19.18 0-34.78 15.6-34.78 34.78s15.6 34.78 34.78 34.78 34.78-15.6 34.78-34.78-15.6-34.78-34.78-34.78z" fill="url(#IP_PG_1w)"/>
            <circle cx="780.76" cy="512.7" fill="url(#IP_PG_1x)" r="219.25"/>
            <path d="m792.03 333.42c11.36-3.46 23.68-1.51 33.41 5.29 6.3 4.4 13.76 6.83 21.44 6.97 11.87.22 22.99 5.88 30.14 15.36 4.63 6.13 10.98 10.74 18.24 13.25 11.23 3.88 20.05 12.7 23.92 23.92 2.51 7.26 7.12 13.61 13.25 18.24 9.48 7.15 15.14 18.27 15.36 30.14.14 7.68 2.57 15.14 6.97 21.44 6.8 9.73 8.76 22.05 5.29 33.41-2.24 7.35-2.24 15.19 0 22.54 3.46 11.36 1.51 23.68-5.29 33.41-4.4 6.3-6.83 13.76-6.97 21.44-.22 11.87-5.88 22.99-15.36 30.14-6.13 4.63-10.74 10.98-13.25 18.24-3.88 11.23-12.7 20.05-23.92 23.92-7.26 2.51-13.61 7.12-18.24 13.25-7.15 9.48-18.27 15.14-30.14 15.36-7.68.14-15.14 2.57-21.44 6.97-9.73 6.8-22.05 8.76-33.41 5.29-7.35-2.24-15.19-2.24-22.54 0-11.36 3.46-23.68 1.51-33.41-5.29-6.3-4.4-13.76-6.83-21.44-6.97-11.87-.22-22.99-5.88-30.14-15.36-4.63-6.13-10.98-10.74-18.24-13.25-11.23-3.88-20.05-12.7-23.92-23.92-2.51-7.26-7.12-13.61-13.25-18.24-9.48-7.15-15.14-18.27-15.36-30.14-.14-7.68-2.57-15.14-6.97-21.44-6.8-9.73-8.76-22.05-5.29-33.41 2.24-7.35 2.24-15.19 0-22.54-3.46-11.36-1.51-23.68 5.29-33.41 4.4-6.3 6.83-13.76 6.97-21.44.22-11.87 5.88-22.99 15.36-30.14 6.13-4.63 10.74-10.98 13.25-18.24 3.88-11.23 12.7-20.05 23.92-23.92 7.26-2.51 13.61-7.12 18.24-13.25 7.15-9.48 18.27-15.14 30.14-15.36 7.68-.14 15.14-2.57 21.44-6.97 9.73-6.8 22.05-8.76 33.41-5.29 7.35 2.24 15.19 2.24 22.54 0z" fill="url(#IP_PG_1y)"/>
            <circle cx="780.76" cy="513.26" fill="#f59e22" r="175.78"/>
            <circle cx="780.76" cy="513.26" fill="url(#IP_PG_1z)" r="167.24"/>
            <circle cx="760.82" cy="496.97" fill="url(#IP_PG_1A)" r="147.18"/>
            <circle cx="747.24" cy="477.73" fill="url(#IP_PG_1B)" r="84.12"/>
            <circle cx="705.81" cy="588.18" fill="url(#IP_PG_1C)" r="51"/>
            <g opacity=".65">
                <circle cx="711.44" cy="467.39" fill="#fed178" r="3.05"/>
                <circle cx="728.41" cy="443.95" fill="#fed178" r="3.05"/>
                <circle cx="725.37" cy="431.47" fill="#fed178" r="3.05"/>
                <circle cx="725.37" cy="467.39" fill="#fed178" r="3.72"/>
                <circle cx="655.95" cy="494.27" fill="#fed178" r="3.05"/>
                <circle cx="649.86" cy="471.27" fill="#fed178" r="3.05"/>
                <circle cx="669.24" cy="504.8" fill="#fed178" r="4.35"/>
                <circle cx="735.79" cy="651.98" fill="#fed178" r="3.72"/>
                <circle cx="620.49" cy="521.09" fill="#fff" r="3.05"/>
                <circle cx="725.37" cy="634.07" fill="#fff" r="4.35"/>
                <circle cx="669.9" cy="601.52" fill="#fed178" r="3.72"/>
                <circle cx="633.98" cy="535.28" fill="#fed178" r="3.05"/>
                <circle cx="650.05" cy="561.05" fill="#fff" r="3.72"/>
                <circle cx="684.04" cy="513.69" fill="#fed178" r="3.05"/>
                <circle cx="666.19" cy="566.48" fill="#fed178" r="3.72"/>
                <circle cx="672.29" cy="525.45" fill="#fed178" r="3.05"/>
                <circle cx="729.08" cy="521.09" fill="#fed178" r="4.35"/>
                <circle cx="721.01" cy="535.28" fill="#fff" r="3.72"/>
                <circle cx="744.5" cy="420.39" fill="#fed178" r="3.05"/>
                <circle cx="704.68" cy="494.27" fill="#fed178" r="3.72"/>
                <circle cx="803.03" cy="360.01" fill="#fed178" r="3.05"/>
                <circle cx="816.96" cy="372.2" fill="#fed178" r="4.35"/>
                <circle cx="747.54" cy="386.9" fill="#fed178" r="3.05"/>
                <circle cx="760.83" cy="397.42" fill="#fff" r="4.35"/>
                <circle cx="768.23" cy="442.69" fill="#fed178" r="4.35"/>
                <circle cx="760.16" cy="454.45" fill="#fed178" r="3.72"/>
                <circle cx="775.63" cy="406.32" fill="#fed178" r="3.05"/>
                <circle cx="763.88" cy="418.07" fill="#fff" r="3.05"/>
                <circle cx="812.61" cy="427.9" fill="#fff" r="3.72"/>
                <circle cx="831.74" cy="424.19" fill="#fed178" r="4.35"/>
                <circle cx="796.27" cy="386.9" fill="#fed178" r="3.72"/>
                <circle cx="722.79" cy="382.05" fill="#fed178" r="3.72"/>
                <circle cx="699.08" cy="443.95" fill="#fed178" r="4.35"/>
                <circle cx="700.28" cy="427.52" fill="#fff" r="3.05"/>
                <circle cx="678.23" cy="403.55" fill="#fed178" r="4.35"/>
                <circle cx="687.14" cy="392.42" fill="#fed178" r="3.72"/>
                <circle cx="680.78" cy="428.43" fill="#fed178" r="3.05"/>
                <circle cx="629.62" cy="488.08" fill="#fed178" r="3.72"/>
                <circle cx="645.09" cy="439.95" fill="#fed178" r="3.05"/>
                <circle cx="633.34" cy="451.7" fill="#fed178" r="3.05"/>
                <circle cx="810.2" cy="608.46" fill="#fff" r="3.05"/>
                <circle cx="827.17" cy="585.02" fill="#fff" r="3.05"/>
                <circle cx="824.13" cy="572.54" fill="#fed178" r="3.05"/>
                <circle cx="824.13" cy="608.46" fill="#fed178" r="3.72"/>
                <circle cx="766.96" cy="618.42" fill="#fed178" r="3.05"/>
                <circle cx="768" cy="645.86" fill="#fff" r="4.35"/>
                <circle cx="782.8" cy="654.76" fill="#fff" r="3.05"/>
                <g fill="#fed178">
                    <circle cx="771.05" cy="666.51" r="3.05"/>
                    <circle cx="827.84" cy="662.16" r="4.35"/>
                    <circle cx="803.44" cy="635.34" r="3.72"/>
                    <circle cx="757.76" cy="605.41" r="3.72"/>
                    <circle cx="866.99" cy="583.76" r="4.35"/>
                    <circle cx="858.92" cy="595.51" r="3.72"/>
                    <circle cx="707.85" cy="567.34" r="3.05"/>
                    <circle cx="747.67" cy="566.08" r="4.35"/>
                    <circle cx="797.84" cy="585.02" r="4.35"/>
                    <circle cx="766.96" cy="580.36" r="3.05"/>
                    <circle cx="727.73" cy="618.37" r="3.05"/>
                    <circle cx="687.5" cy="626.08" r="3.05"/>
                    <circle cx="696.64" cy="619.16" r="3.72"/>
                </g>
                <circle cx="705.84" cy="594.11" fill="#fff" r="3.05"/>
                <circle cx="734.54" cy="545.88" fill="#fff" r="3.05"/>
                <circle cx="680.33" cy="556.62" fill="#fed178" r="3.05"/>
                <circle cx="785.57" cy="473.33" fill="#fed178" r="3.05"/>
                <circle cx="773.24" cy="469.73" fill="#fed178" r="3.05"/>
                <circle cx="784.39" cy="542.18" fill="#fed178" r="3.05"/>
                <circle cx="804.39" cy="438.21" fill="#fed178" r="4.35"/>
                <circle cx="810.54" cy="451.08" fill="#fed178" r="3.72"/>
                <circle cx="770.9" cy="498.73" fill="#fed178" r="4.35"/>
                <circle cx="751.43" cy="523.15" fill="#fff" r="3.05"/>
                <circle cx="903.31" cy="613.14" fill="#fff" r="3.05"/>
                <circle cx="914.06" cy="568.78" fill="#fed178" r="4.35"/>
                <circle cx="927.6" cy="577.88" fill="#fed178" r="3.72"/>
                <circle cx="885.49" cy="591.11" fill="#fed178" r="3.72"/>
                <circle cx="884.64" cy="538.3" fill="#fed178" r="3.05"/>
                <circle cx="917.77" cy="546.65" fill="#fed178" r="3.05"/>
                <circle cx="901.26" cy="548.54" fill="#fed178" r="3.05"/>
                <circle cx="833.12" cy="436.11" fill="#fff" r="3.05"/>
                <circle cx="864.9" cy="443.24" fill="#fed178" r="4.35"/>
                <circle cx="863.93" cy="457.46" fill="#fed178" r="3.72"/>
                <circle cx="895.59" cy="407.94" fill="#fed178" r="3.72"/>
                <circle cx="919.02" cy="477.54" fill="#fed178" r="3.05"/>
                <circle cx="895.41" cy="460.8" fill="#fff" r="3.05"/>
                <circle cx="882.96" cy="463.97" fill="#fed178" r="3.05"/>
                <circle cx="918.88" cy="463.61" fill="#fed178" r="3.72"/>
                <circle cx="893.75" cy="420.99" fill="#fed178" r="4.35"/>
                <circle cx="905.59" cy="428.95" fill="#fff" r="3.72"/>
                <circle cx="895.7" cy="490.13" fill="#fed178" r="4.35"/>
                <circle cx="879.26" cy="489.1" fill="#fed178" r="3.05"/>
                <circle cx="880.36" cy="508.59" fill="#fff" r="3.05"/>
                <circle cx="867.79" cy="428.14" fill="#fed178" r="3.05"/>
                <circle cx="886.57" cy="442.5" fill="#fed178" r="3.72"/>
                <circle cx="848.87" cy="389.15" fill="#fed178" r="3.05"/>
                <circle cx="837.33" cy="394.81" fill="#fed178" r="3.05"/>
                <circle cx="872.41" cy="387.08" fill="#fed178" r="3.72"/>
                <circle cx="817.34" cy="514.08" fill="#fed178" r="3.05"/>
                <circle cx="801.79" cy="519.96" fill="#fed178" r="3.05"/>
                <circle cx="855.36" cy="539.34" fill="#fff" r="4.35"/>
                <circle cx="842.17" cy="548.95" fill="#fed178" r="3.72"/>
                <circle cx="874.88" cy="550.39" fill="#fed178" r="3.05"/>
                <circle cx="866.3" cy="492.31" fill="#fed178" r="3.05"/>
                <circle cx="873.27" cy="480.25" fill="#fed178" r="3.72"/>
                <circle cx="839.82" cy="491.3" fill="#fed178" r="4.35"/>
                <circle cx="826.2" cy="482.04" fill="#fed178" r="3.05"/>
                <circle cx="817.23" cy="499.38" fill="#fed178" r="3.05"/>
            </g>
            <path d="m645.99 542.94c-4.59 0-8.32-3.73-8.32-8.32s3.73-8.32 8.32-8.32 8.32 3.73 8.32 8.32-3.73 8.32-8.32 8.32zm0-9.89c-.86 0-1.57.7-1.57 1.57s.7 1.57 1.57 1.57 1.57-.7 1.57-1.57-.7-1.57-1.57-1.57z" fill="#fff"/>
            <path d="m708.44 548.11c-7.44 0-13.5-6.05-13.5-13.5s6.05-13.5 13.5-13.5 13.5 6.05 13.5 13.5-6.05 13.5-13.5 13.5zm0-20.24c-3.72 0-6.74 3.02-6.74 6.74s3.02 6.74 6.74 6.74 6.74-3.02 6.74-6.74-3.02-6.74-6.74-6.74z" fill="#f59e22"/>
            <path d="m665.87 566.06c-3.84 0-7.92-1.15-11.64-3.3-4.2-2.43-7.52-5.88-9.36-9.72-2.01-4.21-2.02-8.58-.04-12.01s5.78-5.6 10.42-5.97c4.24-.33 8.89.82 13.1 3.24 4.2 2.42 7.52 5.88 9.36 9.72 2.01 4.21 2.02 8.58.04 12.01s-5.78 5.6-10.42 5.96c-.48.04-.96.06-1.45.06zm-9.19-24.29c-.31 0-.61.01-.91.04-1.41.11-3.94.6-5.1 2.61s-.32 4.45.29 5.72c1.23 2.58 3.65 5.05 6.64 6.78 2.99 1.72 6.33 2.58 9.19 2.36 1.41-.11 3.94-.6 5.1-2.61 1.16-2.01.32-4.45-.29-5.72-1.23-2.58-3.65-5.05-6.64-6.78-2.67-1.54-5.64-2.39-8.28-2.39z" fill="#ef7925"/>
            <path d="m674.15 532.08c-4.25 0-8.93-1.25-13.38-3.82-10.53-6.08-15.28-16.92-10.81-24.67 4.48-7.75 16.24-9.06 26.77-2.98s15.28 16.92 10.81 24.67c-2.58 4.47-7.59 6.8-13.39 6.8zm-10.84-28.51c-3.39 0-6.19 1.14-7.5 3.4-2.49 4.32 1.32 11.39 8.33 15.44s15.04 3.82 17.54-.5c2.49-4.32-1.32-11.39-8.33-15.44-3.35-1.94-6.94-2.89-10.04-2.89z" fill="#fed178"/>
            <path d="m863.89 445.95c-7.37-1.03-12.49-8.13-11.42-15.82 1.07-7.7 7.95-13.12 15.32-12.09s12.49 8.13 11.42 15.82c-1.07 7.7-7.95 13.12-15.32 12.09zm2.92-20.93c-3.68-.51-7.11 2.19-7.65 6.04s2.02 7.39 5.7 7.9 7.11-2.19 7.65-6.04c.54-3.84-2.02-7.39-5.7-7.9z" fill="#ef7925"/>
            <path d="m853.32 481.74c-3.68-.51-7.55-2.2-11.07-5.05-8.37-6.79-11.08-17.23-6.17-23.77 2.45-3.27 6.53-4.99 11.18-4.73 4.25.24 8.69 2.08 12.5 5.17 8.37 6.79 11.08 17.23 6.17 23.77-2.85 3.79-7.54 5.32-12.62 4.61zm-5.6-26.42c-.31-.04-.61-.07-.91-.09-1.41-.08-3.99.07-5.43 1.99-2.43 3.24-.07 9.73 5.06 13.88 5.13 4.16 11.75 4.96 14.19 1.72 2.43-3.24.07-9.73-5.06-13.88-2.42-1.97-5.24-3.26-7.85-3.62z" fill="#e26713"/>
            <path d="m896.89 480.67c-5.26-.73-10.11-2.56-14.04-5.34-5.71-4.03-8.85-9.57-8.84-15.59 0-6.03 3.16-11.63 8.88-15.79 5.33-3.87 12.35-6.05 19.78-6.13 7.42-.08 14.44 1.94 19.76 5.7 5.71 4.03 8.85 9.57 8.84 15.59 0 6.03-3.16 11.63-8.88 15.79-5.33 3.87-12.35 6.05-19.78 6.13-1.94.02-3.85-.1-5.72-.36zm10.41-35.5c-1.5-.21-3.05-.31-4.64-.29-11.85.13-21.88 6.9-21.89 14.79 0 3.63 2.1 7.12 5.91 9.81 4.21 2.97 9.86 4.57 15.93 4.5s11.73-1.79 15.94-4.85c3.83-2.78 5.94-6.31 5.94-9.94 0-6.83-7.49-12.67-17.2-14.02z" fill="#fed178"/>
            <path d="m735.63 623.04c-6.02 0-10.91-4.89-10.91-10.91s4.89-10.91 10.91-10.91 10.91 4.89 10.91 10.91-4.89 10.91-10.91 10.91zm0-15.06c-2.29 0-4.15 1.86-4.15 4.15s1.86 4.15 4.15 4.15 4.15-1.86 4.15-4.15-1.86-4.15-4.15-4.15z" fill="#fed178"/>
            <path d="m757.96 644.84c-3.71 0-7.78-1.09-11.66-3.33-4.2-2.43-7.52-5.88-9.36-9.72-2.01-4.21-2.02-8.58-.04-12.01 3.96-6.85 14.29-8.05 23.52-2.72s13.36 14.87 9.4 21.73c-2.29 3.97-6.73 6.05-11.86 6.05zm-9.24-24.3c-2.72 0-4.97.88-5.97 2.62-1.16 2.01-.32 4.45.29 5.72 1.23 2.58 3.65 5.05 6.64 6.78 5.65 3.26 12.33 3.15 14.29-.25 1.96-3.39-1.28-9.23-6.93-12.5-2.75-1.59-5.74-2.37-8.31-2.37z" fill="#e26713"/>
            <path d="m708.97 642.87c-5.28 0-9.68-2.6-10.89-6.89-1.56-5.52 2.86-11.43 10.06-13.46 3.21-.91 6.52-.88 9.33.07 3.2 1.08 5.49 3.33 6.29 6.15 1.56 5.52-2.86 11.43-10.06 13.46-1.61.45-3.21.67-4.73.67zm3.88-14.25c-.93 0-1.91.14-2.87.41-3.87 1.09-5.78 3.76-5.4 5.12s3.41 2.64 7.28 1.55 5.78-3.76 5.4-5.12c-.26-.92-1.45-1.41-1.96-1.58-.73-.25-1.57-.37-2.45-.37z" fill="#ef7925"/>
            <path d="m719.17 408.72c4.3-6.08 12.62-7.61 18.54-3.42 5.93 4.19 7.26 12.55 2.96 18.62-4.3 6.08-12.62 7.61-18.54 3.42-5.93-4.19-7.26-12.55-2.96-18.62z" fill="#f59e22"/>
            <path d="m759.34 360.64c2.65-3.75 7.78-4.69 11.44-2.11s4.48 7.74 1.83 11.48c-2.65 3.75-7.78 4.69-11.44 2.11s-4.48-7.74-1.83-11.48z" fill="#fff"/>
            <path d="m729.44 363.86c2.21-3.13 5.49-5.82 9.35-7.65 4.36-2.06 9.03-2.83 13.15-2.17 4.51.73 8 3.18 9.59 6.73 1.59 3.54 1.13 7.87-1.26 11.87-2.18 3.65-5.79 6.8-10.15 8.87-4.36 2.06-9.03 2.83-13.15 2.17-4.51-.73-8-3.18-9.59-6.73-1.59-3.54-1.13-7.87 1.26-11.87.25-.41.51-.82.79-1.22z" fill="#ef7925"/>
            <path d="m886.54 516.64c-1.57 0-3.06-.35-4.44-1.06-3.08-1.59-5.06-4.75-5.58-8.88-.48-3.85.38-8.15 2.43-12.1s5.06-7.14 8.48-8.97c3.67-1.96 7.39-2.17 10.47-.57 3.08 1.59 5.06 4.75 5.58 8.88.48 3.85-.38 8.15-2.43 12.1s-5.06 7.14-8.48 8.97c-2.03 1.09-4.08 1.64-6.03 1.64z" fill="#e26713"/>
            <path d="m870.17 527.09c-1.97 0-3.74-.67-5.01-1.94-3.23-3.23-2.37-9.16 1.97-13.5s10.27-5.2 13.5-1.97 2.37 9.16-1.97 13.5c-1.97 1.97-4.38 3.3-6.79 3.75-.58.11-1.15.16-1.7.16z" fill="#ef7925"/>
            <path d="m786.35 538.34c-4.3 0-7.8-3.5-7.8-7.8s3.5-7.8 7.8-7.8 7.8 3.5 7.8 7.8-3.5 7.8-7.8 7.8z" fill="#fff"/>
            <path d="m802.31 553.91c-2.65 0-5.56-.78-8.33-2.38-3-1.73-5.38-4.2-6.69-6.95-1.43-3.01-1.45-6.13-.03-8.58 2.83-4.9 10.21-5.75 16.81-1.94s9.55 10.63 6.72 15.53c-1.64 2.84-4.81 4.32-8.47 4.32z" fill="#fed178"/>
            <path d="m767.3 552.51c-3.77 0-6.92-1.86-7.78-4.92-1.11-3.94 2.05-8.17 7.19-9.62 2.3-.65 4.66-.63 6.67.05 2.29.78 3.93 2.38 4.5 4.39 1.11 3.94-2.05 8.17-7.19 9.62-1.15.32-2.29.48-3.38.48z" fill="#fed178"/>
        </g>
            <path d="m983.03 551.21s1.62 10.67 1.29 17.78c0 0 4.2 13.58 7.44 19.4s4.85 22.31 0 30.72-14.23 18.75-17.78 33.63c-3.56 14.87-17.14 27.16-27.16 35.57s-32.01 30.39-34.92 38.8-3.08 17.94-10.23 24.44-33.79 26-61.74 28.59c-27.94 2.6-46.14 2.27-59.14 0s-38.02-3.25-45.82-1.95-16.9-4.55-24.7-12.67-13.32-15.27-25.67-17.55-18.52-9.42-27.3-20.8c-8.77-11.37-31.84-29.89-39.64-37.69s-7.47-10.72-17.55-19.82c-10.07-9.1-14.62-24.37-26-36.72-11.37-12.35-13.65-17.22-14.95-38.02s-2.27-35.09 0-37.37 17.55-6.82 24.7 5.52c7.15 12.35 11.17 24.9 15.66 41.04 0 0 11.62 16.56 13.47 22.11 0 0-6.69-24.05-7.62-39.43s-3.73-32.86.23-38.22 20.51-13.75 32.39 0 16.78 38.45 19.34 54.76 27.5 53.83 31.69 60.59c0 0-6.52-16.31-11.42-43.11s-10.49-43.34-9.55-66.18c0 0-1.4-6.76.7-11.65s16.55-15.38 33.32-4.66c16.78 10.72 22.14 66.41 25.17 70.84s18.44 52.67 49.07 73.17c0 0 16.42 14.68 22.94 10.49s7.22-9.09 5.83-26.33c-1.4-17.24-5.09-41.45-9.68-61.53-4.58-20.08-7.2-47.8-6.55-54.79s2.62-15.5 14.63-19.21 24.45 6.77 29.47 15.5 10.26 20.96 13.1 29.25 4.37 31 5.68 34.49 12.01 27.81 15.5 45.88c0 0 45.17-27.66 65.72-53.07 0 0-2.16-30.01 12.44-49.47s29.63-13.84 37.66-2.33z"/>
        </g>
    </g>
</svg>