<?xml version="1.0" encoding="UTF-8"?>
<svg id="Ebene_2" xmlns="http://www.w3.org/2000/svg" xmlns:xlink="http://www.w3.org/1999/xlink"
     viewBox="0 0 1000.02 1000">
    <defs>
        <style>
            .cls-1{fill:url(#Unbenannter_Verlauf_40-10);}
            .cls-2{fill:url(#Unbenannter_Verlauf_18-2);}
            .cls-2,.cls-3,.cls-4,.cls-5,.cls-6{opacity:.25;}
            .cls-3{fill:url(#Unbenannter_Verlauf_18-5);}
            .cls-4{fill:url(#Unbenannter_Verlauf_24-3);}
            .cls-5{fill:url(#Unbenannter_Verlauf_24-2);}
            .cls-6{fill:url(#Unbenannter_Verlauf_24-4);}
            .cls-7{fill:url(#Unbenannter_Verlauf_40-2);}
            .cls-8{fill:url(#Unbenannter_Verlauf_40-9);}
            .cls-9{fill:url(#Unbenannter_Verlauf_40-4);}
            .cls-10{fill:url(#Unbenannter_Verlauf_40-3);}
            .cls-11{fill:url(#Unbenannter_Verlauf_40-6);}
            .cls-12{fill:url(#Unbenannter_Verlauf_40-5);}
            .cls-13{fill:url(#Unbenannter_Verlauf_40-8);}
            .cls-14{fill:url(#Unbenannter_Verlauf_40-7);}
            .cls-15{fill:url(#Unbenannter_Verlauf_24-5);}
            .cls-15,
            .cls-16,
            .cls-17,
            .cls-18,
            .cls-19{opacity:.35;}
            .cls-16{fill:url(#Unbenannter_Verlauf_18-4);}
            .cls-17{fill:url(#Unbenannter_Verlauf_18-3);}
            .cls-18{fill:url(#Unbenannter_Verlauf_18);}
            .cls-19{fill:url(#Unbenannter_Verlauf_24);}
            .cls-20{fill:url(#Unbenannter_Verlauf_13);}
            .cls-20,
            .cls-21{opacity:.5;}
            .cls-22,
            .cls-23{fill:#fff;}
            .cls-24{fill:#1b1532;}
            .cls-25{fill:url(#Unbenannter_Verlauf_336);}
            .cls-26{fill:url(#Unbenannter_Verlauf_29);}
            .cls-27{fill:url(#Unbenannter_Verlauf_32);}
            .cls-28{fill:url(#Unbenannter_Verlauf_39);}
            .cls-29{fill:url(#Unbenannter_Verlauf_34);}
            .cls-30{fill:url(#Unbenannter_Verlauf_31);}
            .cls-31{fill:url(#Unbenannter_Verlauf_42);}
            .cls-32{fill:url(#Unbenannter_Verlauf_37);}
            .cls-33{fill:url(#Unbenannter_Verlauf_40);}
            .cls-34{fill:url(#Unbenannter_Verlauf_295);}
            .cls-34,
            .cls-23{opacity:.75;}
            .cls-21{fill:url(#Unbenannter_Verlauf_297);}
            .cls-35{fill:url(#Unbenannter_Verlauf_4);}
        </style>
        <radialGradient id="Unbenannter_Verlauf_295" cx="257.45" cy="2855.82" fx="257.45" fy="2855.82" r="1400.42" gradientTransform="translate(0 -1713.67) scale(1 1.26)" gradientUnits="userSpaceOnUse">
            <stop offset=".84" stop-color="#221d43"/>
            <stop offset=".88" stop-color="#211c41" stop-opacity=".94"/>
            <stop offset=".92" stop-color="#201b3e" stop-opacity=".76"/>
            <stop offset=".96" stop-color="#1e1839" stop-opacity=".45"/>
            <stop offset="1" stop-color="#1b1532" stop-opacity=".03"/>
            <stop offset="1" stop-color="#1b1532" stop-opacity="0"/>
        </radialGradient>
        <radialGradient id="Unbenannter_Verlauf_297" cx="199.55" cy="3602.32" fx="199.55" fy="3602.32" r="1359.71" gradientTransform="translate(0 -2767.11) scale(1 1.4)" gradientUnits="userSpaceOnUse">
            <stop offset=".87" stop-color="#2a2458"/>
            <stop offset=".89" stop-color="#292357" stop-opacity=".95"/>
            <stop offset=".92" stop-color="#282254" stop-opacity=".81"/>
            <stop offset=".95" stop-color="#26214f" stop-opacity=".58"/>
            <stop offset=".98" stop-color="#241e48" stop-opacity=".26"/>
            <stop offset="1" stop-color="#221d43" stop-opacity="0"/>
        </radialGradient>
        <radialGradient id="Unbenannter_Verlauf_40" cx="738.85" cy="109.94" fx="738.85" fy="109.94" r="29.83" gradientUnits="userSpaceOnUse">
            <stop offset="0" stop-color="#fcea10"/>
            <stop offset="0" stop-color="#fff" stop-opacity=".94"/>
            <stop offset="1" stop-color="#fff" stop-opacity="0"/>
        </radialGradient>
        <radialGradient id="Unbenannter_Verlauf_40-2" cx="578.9" cy="458.29" fx="578.9" fy="458.29" xlink:href="#Unbenannter_Verlauf_40"/>
        <radialGradient id="Unbenannter_Verlauf_40-3" cx="387.82" cy="601.93" fx="387.82" fy="601.93" xlink:href="#Unbenannter_Verlauf_40"/>
        <radialGradient id="Unbenannter_Verlauf_40-4" cx="77.24" cy="544.32" fx="77.24" fy="544.32" r="18.44" xlink:href="#Unbenannter_Verlauf_40"/>
        <radialGradient id="Unbenannter_Verlauf_40-5" cx="555.85" cy="177.77" fx="555.85" fy="177.77" r="18.44" xlink:href="#Unbenannter_Verlauf_40"/>
        <radialGradient id="Unbenannter_Verlauf_40-6" cx="875.72" cy="510.38" fx="875.72" fy="510.38" r="18.44" xlink:href="#Unbenannter_Verlauf_40"/>
        <radialGradient id="Unbenannter_Verlauf_40-7" cx="567.97" cy="862.73" fx="567.97" fy="862.73" r="18.44" xlink:href="#Unbenannter_Verlauf_40"/>
        <radialGradient id="Unbenannter_Verlauf_40-8" cx="219.23" cy="823.7" fx="219.23" fy="823.7" xlink:href="#Unbenannter_Verlauf_40"/>
        <radialGradient id="Unbenannter_Verlauf_40-9" cx="798.11" cy="613.37" fx="798.11" fy="613.37" xlink:href="#Unbenannter_Verlauf_40"/>
        <radialGradient id="Unbenannter_Verlauf_40-10" cx="175.71" cy="251.97" fx="175.71" fy="251.97" r="37.83" xlink:href="#Unbenannter_Verlauf_40"/>
        <radialGradient id="Unbenannter_Verlauf_18" cx="474" cy="432.95" fx="474" fy="432.95" r="26.01" gradientUnits="userSpaceOnUse">
            <stop offset=".5" stop-color="#b8e1ee"/>
            <stop offset=".82" stop-color="#8aced3" stop-opacity=".37"/>
            <stop offset="1" stop-color="#70c4c4" stop-opacity="0"/>
        </radialGradient>
        <radialGradient id="Unbenannter_Verlauf_24" cx="609.69" cy="510.98" fx="609.69" fy="510.98" r="26.01" gradientUnits="userSpaceOnUse">
            <stop offset="0" stop-color="#b8e1ee" stop-opacity="0"/>
            <stop offset=".12" stop-color="#b8e1ee" stop-opacity=".01"/>
            <stop offset=".22" stop-color="#b8e1ee" stop-opacity=".06"/>
            <stop offset=".31" stop-color="#b8e1ee" stop-opacity=".13"/>
            <stop offset=".39" stop-color="#b8e1ee" stop-opacity=".23"/>
            <stop offset=".47" stop-color="#b8e1ee" stop-opacity=".36"/>
            <stop offset=".55" stop-color="#b8e1ee" stop-opacity=".52"/>
            <stop offset=".63" stop-color="#b8e1ee" stop-opacity=".71"/>
            <stop offset=".7" stop-color="#b8e1ee" stop-opacity=".92"/>
            <stop offset=".73" stop-color="#b8e1ee"/>
            <stop offset=".9" stop-color="#8aced3" stop-opacity=".37"/>
            <stop offset="1" stop-color="#70c4c4" stop-opacity="0"/>
        </radialGradient>
        <radialGradient id="Unbenannter_Verlauf_18-2" cx="493.26" cy="668.04" fx="493.26" fy="668.04" r="26.01" xlink:href="#Unbenannter_Verlauf_18"/>
        <radialGradient id="Unbenannter_Verlauf_24-2" cx="370" cy="583.95" fx="370" fy="583.95" r="15.88" xlink:href="#Unbenannter_Verlauf_24"/>
        <radialGradient id="Unbenannter_Verlauf_24-3" cx="532.77" cy="338.44" fx="532.77" fy="338.44" r="15.88" xlink:href="#Unbenannter_Verlauf_24"/>
        <radialGradient id="Unbenannter_Verlauf_18-3" cx="548.64" cy="576.18" fx="548.64" fy="576.18" r="15.88" xlink:href="#Unbenannter_Verlauf_18"/>
        <radialGradient id="Unbenannter_Verlauf_18-4" cx="245.74" cy="406.94" fx="245.74" fy="406.94" r="15.88" xlink:href="#Unbenannter_Verlauf_18"/>
        <radialGradient id="Unbenannter_Verlauf_24-4" cx="408.47" cy="213.02" fx="408.47" fy="213.02" r="15.88" xlink:href="#Unbenannter_Verlauf_24"/>
        <radialGradient id="Unbenannter_Verlauf_24-5" cx="558.69" cy="824.97" fx="558.69" fy="824.97" r="15.88" xlink:href="#Unbenannter_Verlauf_24"/>
        <radialGradient id="Unbenannter_Verlauf_18-5" cx="723.73" cy="568.08" fx="723.73" fy="568.08" r="15.88" xlink:href="#Unbenannter_Verlauf_18"/>
        <linearGradient id="Unbenannter_Verlauf_31" x1="-44.85" y1="767.99" x2="-85.23" y2="788.04" gradientTransform="translate(604.5 -288.49) rotate(-6.14) scale(1.3 1.05) skewX(-10.99)" gradientUnits="userSpaceOnUse">
            <stop offset="0" stop-color="#fff" stop-opacity=".9"/>
            <stop offset=".04" stop-color="#fff" stop-opacity=".85"/>
            <stop offset=".31" stop-color="#fff" stop-opacity=".55"/>
            <stop offset=".55" stop-color="#fff" stop-opacity=".32"/>
            <stop offset=".75" stop-color="#fff" stop-opacity=".14"/>
            <stop offset=".91" stop-color="#fff" stop-opacity=".04"/>
            <stop offset="1" stop-color="#fff" stop-opacity="0"/>
        </linearGradient>
        <linearGradient id="Unbenannter_Verlauf_39" x1="-459.59" y1="180.08" x2="-503.41" y2="167" gradientTransform="translate(1179.58 385.97) rotate(7.71) scale(1.72 1.03) skewX(12.24)" gradientUnits="userSpaceOnUse">
            <stop offset="0" stop-color="#fff" stop-opacity=".7"/>
            <stop offset=".07" stop-color="#fff" stop-opacity=".54"/>
            <stop offset=".15" stop-color="#fff" stop-opacity=".39"/>
            <stop offset=".23" stop-color="#fff" stop-opacity=".27"/>
            <stop offset=".32" stop-color="#fff" stop-opacity=".17"/>
            <stop offset=".42" stop-color="#fff" stop-opacity=".1"/>
            <stop offset=".54" stop-color="#fff" stop-opacity=".04"/>
            <stop offset=".68" stop-color="#fff" stop-opacity="0"/>
            <stop offset=".94" stop-color="#fff" stop-opacity="0"/>
        </linearGradient>
        <linearGradient id="Unbenannter_Verlauf_34" x1="134.98" y1="952.69" x2="177.42" y2="902" gradientTransform="translate(751.82 -895.52) rotate(-16.57) scale(1.39 1.3) skewX(-29.91)" gradientUnits="userSpaceOnUse">
            <stop offset="0" stop-color="#fff" stop-opacity=".7"/>
            <stop offset=".07" stop-color="#fff" stop-opacity=".61"/>
            <stop offset=".22" stop-color="#fff" stop-opacity=".42"/>
            <stop offset=".37" stop-color="#fff" stop-opacity=".27"/>
            <stop offset=".53" stop-color="#fff" stop-opacity=".15"/>
            <stop offset=".67" stop-color="#fff" stop-opacity=".07"/>
            <stop offset=".81" stop-color="#fff" stop-opacity=".02"/>
            <stop offset=".95" stop-color="#fff" stop-opacity="0"/>
        </linearGradient>
        <linearGradient id="Unbenannter_Verlauf_32" x1="57.89" y1="110.9" x2="108.3" y2="153.76" gradientTransform="translate(438.51 388.93) rotate(13.14) scale(1.39 1.18) skewX(23.28)" gradientUnits="userSpaceOnUse">
            <stop offset="0" stop-color="#fff" stop-opacity=".7"/>
            <stop offset=".1" stop-color="#fff" stop-opacity=".55"/>
            <stop offset=".24" stop-color="#fff" stop-opacity=".38"/>
            <stop offset=".38" stop-color="#fff" stop-opacity=".24"/>
            <stop offset=".52" stop-color="#fff" stop-opacity=".14"/>
            <stop offset=".66" stop-color="#fff" stop-opacity=".06"/>
            <stop offset=".8" stop-color="#fff" stop-opacity=".02"/>
            <stop offset=".95" stop-color="#fff" stop-opacity="0"/>
        </linearGradient>
        <linearGradient id="Unbenannter_Verlauf_37" x1="-20.09" y1="766.35" x2="20.52" y2="747.8" gradientTransform="translate(749.71 -394.06) rotate(-8.34) scale(1.4 1.07) skewX(-14.47)" gradientUnits="userSpaceOnUse">
            <stop offset="0" stop-color="#fff"/>
            <stop offset=".08" stop-color="#fff" stop-opacity=".79"/>
            <stop offset=".17" stop-color="#fff" stop-opacity=".61"/>
            <stop offset=".26" stop-color="#fff" stop-opacity=".44"/>
            <stop offset=".35" stop-color="#fff" stop-opacity=".31"/>
            <stop offset=".45" stop-color="#fff" stop-opacity=".19"/>
            <stop offset=".56" stop-color="#fff" stop-opacity=".11"/>
            <stop offset=".68" stop-color="#fff" stop-opacity=".05"/>
            <stop offset=".81" stop-color="#fff" stop-opacity=".01"/>
            <stop offset="1" stop-color="#fff" stop-opacity="0"/>
        </linearGradient>
        <linearGradient id="Unbenannter_Verlauf_29" x1="-288.94" y1="-206.72" x2="-327.95" y2="-229.25" gradientTransform="translate(1101.53 981.75) rotate(21.3) scale(1.91 1.26) skewX(32.88)" gradientUnits="userSpaceOnUse">
            <stop offset="0" stop-color="#fff" stop-opacity=".9"/>
            <stop offset=".07" stop-color="#fff" stop-opacity=".79"/>
            <stop offset=".25" stop-color="#fff" stop-opacity=".55"/>
            <stop offset=".42" stop-color="#fff" stop-opacity=".36"/>
            <stop offset=".58" stop-color="#fff" stop-opacity=".2"/>
            <stop offset=".73" stop-color="#fff" stop-opacity=".09"/>
            <stop offset=".85" stop-color="#fff" stop-opacity=".02"/>
            <stop offset=".95" stop-color="#fff" stop-opacity="0"/>
        </linearGradient>
        <linearGradient id="Unbenannter_Verlauf_336" x1="1699.19" y1="4713.59" x2="1704.75" y2="4745.13" gradientTransform="translate(-1884.02 -6674.97) rotate(7.55) scale(1.05 1.46) skewX(17.57)" gradientUnits="userSpaceOnUse">
            <stop offset="0" stop-color="#fff" stop-opacity=".5"/>
            <stop offset=".9" stop-color="#fff" stop-opacity="0"/>
        </linearGradient>
        <radialGradient id="Unbenannter_Verlauf_42" cx="500.01" cy="500" fx="500.01" fy="500" r="104.74" gradientUnits="userSpaceOnUse">
            <stop offset=".76" stop-color="#70c4c4"/>
            <stop offset="1" stop-color="#9fd5d5" stop-opacity="0"/>
        </radialGradient>
        <radialGradient id="Unbenannter_Verlauf_4" cx="541.8" cy="392.68" fx="541.8" fy="392.68" r="79.89" gradientTransform="translate(-22.52 82.29) rotate(2.72)" gradientUnits="userSpaceOnUse">
            <stop offset="0" stop-color="#70c4c4"/>
            <stop offset="1" stop-color="#fff" stop-opacity=".8"/>
        </radialGradient>
        <radialGradient id="Unbenannter_Verlauf_13" cx="500.01" cy="500" fx="500.01" fy="500" r="447.71" gradientUnits="userSpaceOnUse">
            <stop offset="0" stop-color="#b8e1ee" stop-opacity="0"/>
            <stop offset=".15" stop-color="#b4dfec" stop-opacity=".02"/>
            <stop offset=".31" stop-color="#abdbe6" stop-opacity=".08"/>
            <stop offset=".46" stop-color="#9bd5dd" stop-opacity=".18"/>
            <stop offset=".61" stop-color="#85ccd0" stop-opacity=".32"/>
            <stop offset=".73" stop-color="#70c4c4" stop-opacity=".46"/>
            <stop offset=".77" stop-color="#83cbcf" stop-opacity=".55"/>
            <stop offset=".86" stop-color="#b3dfeb" stop-opacity=".78"/>
            <stop offset=".86" stop-color="#b8e1ee" stop-opacity=".8"/>
            <stop offset=".88" stop-color="#afdde8" stop-opacity=".78"/>
            <stop offset=".9" stop-color="#97d3db" stop-opacity=".71"/>
            <stop offset=".93" stop-color="#71c4c4" stop-opacity=".6"/>
            <stop offset=".93" stop-color="#70c4c4" stop-opacity=".6"/>
            <stop offset=".94" stop-color="#70c4c4" stop-opacity=".56"/>
            <stop offset=".96" stop-color="#70c4c4" stop-opacity=".43"/>
            <stop offset=".98" stop-color="#70c4c4" stop-opacity=".24"/>
            <stop offset="1" stop-color="#70c4c4" stop-opacity="0"/>
        </radialGradient>
    </defs>
    <g id="design_3">
        <g>
            <rect class="cls-24" x="0" width="1000" height="1000"/>
            <path class="cls-34"
                  d="M1000.01,386.06C811.24,222.92,539.79,120.61,238.11,120.61,156.16,120.61,76.44,128.16,0,142.43V1000H1000.01V386.06Z"/>
            <path class="cls-21"
                  d="M1000.02,746.29c-188.04-224.19-490.23-369.59-830.98-369.59-57.57,0-114.04,4.15-169.04,12.13V1000H1000.01v-253.71Z"/>
            <path class="cls-22"
                  d="M821.15,613.37l-7.43,2.09c-6.56,1.84-11.68,6.97-13.53,13.53l-2.09,7.43-2.1-7.44c-1.85-6.55-6.96-11.67-13.51-13.51l-7.44-2.1,7.43-2.09c6.56-1.84,11.68-6.97,13.53-13.53l2.09-7.43,2.1,7.44c1.85,6.55,6.96,11.67,13.51,13.51l7.44,2.1Z"/>
            <path class="cls-22"
                  d="M601.94,458.29l-7.43,2.09c-6.56,1.84-11.68,6.97-13.53,13.53l-2.09,7.43-2.1-7.44c-1.85-6.55-6.96-11.67-13.51-13.51l-7.44-2.1,7.43-2.09c6.56-1.84,11.68-6.97,13.53-13.53l2.09-7.43,2.1,7.44c1.85,6.55,6.96,11.67,13.51,13.51l7.44,2.1Z"/>
            <path class="cls-22"
                  d="M761.89,109.94l-7.43,2.09c-6.56,1.84-11.68,6.97-13.53,13.53l-2.09,7.43-2.1-7.44c-1.85-6.55-6.96-11.67-13.51-13.51l-7.44-2.1,7.43-2.09c6.56-1.84,11.68-6.97,13.53-13.53l2.09-7.43,2.1,7.44c1.85,6.55,6.96,11.67,13.51,13.51l7.44,2.1Z"/>
            <path class="cls-22"
                  d="M410.87,601.93l-7.43,2.09c-6.56,1.84-11.68,6.97-13.53,13.53l-2.09,7.43-2.1-7.44c-1.85-6.55-6.96-11.67-13.51-13.51l-7.44-2.1,7.43-2.09c6.56-1.84,11.68-6.97,13.53-13.53l2.09-7.43,2.1,7.44c1.85,6.55,6.96,11.67,13.51,13.51l7.44,2.1Z"/>
            <path class="cls-22"
                  d="M242.27,823.7l-7.43,2.09c-6.56,1.84-11.68,6.97-13.53,13.53l-2.09,7.43-2.1-7.44c-1.85-6.55-6.96-11.67-13.51-13.51l-7.44-2.1,7.43-2.09c6.56-1.84,11.68-6.97,13.53-13.53l2.09-7.43,2.1,7.44c1.85,6.55,6.96,11.67,13.51,13.51l7.44,2.1Z"/>
            <path class="cls-22"
                  d="M583.96,862.73l-5.15,1.45c-4.55,1.28-8.11,4.84-9.39,9.39l-1.45,5.15-1.46-5.16c-1.28-4.54-4.83-8.09-9.37-9.37l-5.16-1.46,5.15-1.45c4.55-1.28,8.11-4.84,9.39-9.39l1.45-5.15,1.46,5.16c1.28,4.54,4.83,8.09,9.37,9.37l5.16,1.46Z"/>
            <path class="cls-22"
                  d="M93.23,544.32l-5.15,1.45c-4.55,1.28-8.11,4.84-9.39,9.39l-1.45,5.15-1.46-5.16c-1.28-4.54-4.83-8.09-9.37-9.37l-5.16-1.46,5.15-1.45c4.55-1.28,8.11-4.84,9.39-9.39l1.45-5.15,1.46,5.16c1.28,4.54,4.83,8.09,9.37,9.37l5.16,1.46Z"/>
            <path class="cls-22"
                  d="M891.7,510.38l-5.15,1.45c-4.55,1.28-8.11,4.84-9.39,9.39l-1.45,5.15-1.46-5.16c-1.28-4.54-4.83-8.09-9.37-9.37l-5.16-1.46,5.15-1.45c4.55-1.28,8.11-4.84,9.39-9.39l1.45-5.15,1.46,5.16c1.28,4.54,4.83,8.09,9.37,9.37l5.16,1.46Z"/>
            <path class="cls-22"
                  d="M571.84,177.77l-5.15,1.45c-4.55,1.28-8.11,4.84-9.39,9.39l-1.45,5.15-1.46-5.16c-1.28-4.54-4.83-8.09-9.37-9.37l-5.16-1.46,5.15-1.45c4.55-1.28,8.11-4.84,9.39-9.39l1.45-5.15,1.46,5.16c1.28,4.54,4.83,8.09,9.37,9.37l5.16,1.46Z"/>
            <path class="cls-22"
                  d="M207.89,251.97l-10.37,2.92c-9.16,2.58-16.32,9.73-18.89,18.89l-2.92,10.37-2.93-10.38c-2.58-9.14-9.72-16.29-18.87-18.87l-10.38-2.93,10.37-2.92c9.16-2.58,16.32-9.73,18.89-18.89l2.92-10.37,2.93,10.38c2.58,9.14,9.72,16.29,18.87,18.87l10.38,2.93Z"/>
            <circle class="cls-22" cx="630.73" cy="318.04" r="3.87"/>
            <circle class="cls-22" cx="715.8" cy="930.33" r="3.87"/>
            <circle class="cls-22" cx="731.99" cy="742.92" r="3.87"/>
            <circle class="cls-22" cx="484.43" cy="918.05" r="3.87"/>
            <circle class="cls-22" cx="282.37" cy="658" r="3.87"/>
            <circle class="cls-22" cx="267.11" cy="706.5" r="3.87"/>
            <circle class="cls-22" cx="97.1" cy="590.33" r="3.87"/>
            <circle class="cls-22" cx="89.36" cy="255.84" r="3.87"/>
            <circle class="cls-22" cx="571.84" cy="598.07" r="3.87"/>
            <circle class="cls-22" cx="305.1" cy="467.43" r="3.87"/>
            <circle class="cls-22" cx="263.24" cy="193.76" r="3.87"/>
            <circle class="cls-22" cx="175.71" cy="356.97" r="3.87"/>
            <circle class="cls-22" cx="419.68" cy="86.89" r="3.87"/>
            <circle class="cls-22" cx="561.65" cy="746.78" r="3.87"/>
            <circle class="cls-22" cx="415.81" cy="299.66" r="3.87"/>
            <circle class="cls-22" cx="652.46" cy="106.07" r="3.87"/>
            <circle class="cls-22" cx="634.6" cy="67.47" r="3.87"/>
            <circle class="cls-22" cx="798.11" cy="251.97" r="3.87"/>
            <circle class="cls-22" cx="931.53" cy="339.1" r="3.87"/>
            <circle class="cls-22" cx="761.89" cy="485.21" r="3.87"/>
            <circle class="cls-22" cx="903.62" cy="654.13" r="3.87"/>
            <circle class="cls-33" cx="738.85" cy="109.94" r="29.83"/>
            <circle class="cls-7" cx="578.9" cy="458.29" r="29.83"/>
            <circle class="cls-10" cx="387.82" cy="601.93" r="29.83"/>
            <circle class="cls-9" cx="77.24" cy="544.32" r="18.44"/>
            <circle class="cls-12" cx="555.85" cy="177.77" r="18.44"/>
            <circle class="cls-11" cx="875.72" cy="510.38" r="18.44"/>
            <circle class="cls-14" cx="567.97" cy="862.73" r="18.44"/>
            <circle class="cls-13" cx="219.23" cy="823.7" r="29.83"/>
            <circle class="cls-8" cx="798.11" cy="613.37" r="29.83"/>
            <circle class="cls-1" cx="175.71" cy="251.97" r="37.83"/>
        </g>
        <circle class="cls-18" cx="474" cy="432.95" r="26.01"/>
        <circle class="cls-19" cx="609.69" cy="510.98" r="26.01"/>
        <circle class="cls-2" cx="493.26" cy="668.04" r="26.01"/>
        <circle class="cls-5" cx="370" cy="583.95" r="15.88"/>
        <circle class="cls-4" cx="532.77" cy="338.44" r="15.88"/>
        <circle class="cls-17" cx="548.64" cy="576.18" r="15.88"/>
        <circle class="cls-16" cx="245.74" cy="406.94" r="15.88"/>
        <circle class="cls-6" cx="408.47" cy="213.02" r="15.88"/>
        <circle class="cls-15" cx="558.69" cy="824.97" r="15.88"/>
        <circle class="cls-3" cx="723.73" cy="568.08" r="15.88"/>
        <polygon class="cls-30" points="437.45 531.59 442.86 542.94 392.72 574.64 381.27 550.65 437.45 531.59"/>
        <polygon class="cls-28" points="438.37 468.48 434.46 480.42 358.77 463.04 367.04 437.78 438.37 468.48"/>
        <polygon class="cls-29" points="554.38 462.79 544.75 454.71 612.77 362.78 633.12 379.87 554.38 462.79"/>
        <polygon class="cls-27" points="545.63 550.21 553.97 540.81 636.11 604.28 618.47 624.17 545.63 550.21"/>
        <polygon class="cls-32" points="568.48 464.26 564.72 457.1 620.02 422.94 627.97 438.07 568.48 464.26"/>
        <polygon class="cls-26" points="443.94 449.93 438.56 455.96 357.96 390.17 369.32 377.41 443.94 449.93"/>
        <polygon class="cls-25" points="523.2 573.54 530.97 571.35 548.13 615.54 531.69 620.18 523.2 573.54"/>
        <g>
            <circle class="cls-31" cx="500.01" cy="500" r="104.74"/>
            <circle class="cls-23" cx="500.01" cy="500.27" r="83.98"/>
            <circle class="cls-35" cx="500.01" cy="500.27" r="79.89"/>
        </g>
        <circle class="cls-20" cx="500.01" cy="500" r="447.71"/>
    </g>
</svg>