<?xml version="1.0" encoding="UTF-8"?>
<svg id="IP_PG_4" xmlns="http://www.w3.org/2000/svg" xmlns:xlink="http://www.w3.org/1999/xlink" viewBox="0 0 1000.02 1000">
    <defs>
        <style>
            .cls-IP-PG-4-1{fill:#ea516e;}
            .cls-IP-PG-4-2,
            .cls-IP-PG-4-3{fill:#fff;}
            .cls-IP-PG-4-4{fill:#f088a1;}
            .cls-IP-PG-4-5{fill:#69c6e3;}
            .cls-IP-PG-4-6{fill:#b8e1ee;}
            .cls-IP-PG-4-7,
            .cls-IP-PG-4-8{fill:#05a7c1;}
            .cls-IP-PG-4-9{fill:#1b1532;}
            .cls-IP-PG-4-10{fill:#36bcdc;}
            .cls-IP-PG-4-11,
            .cls-IP-PG-4-8,
            .cls-IP-PG-4-3{opacity:.75;}
            .cls-IP-PG-4-12{fill:url(#IP_PG_4_Unbenannter_Verlauf_280);}
            .cls-IP-PG-4-13{fill:url(#IP_PG_4_Unbenannter_Verlauf_295);}
            .cls-IP-PG-4-14{fill:url(#IP_PG_4_Unbenannter_Verlauf_297);}
            .cls-IP-PG-4-15{fill:url(#IP_PG_4_Unbenannter_Verlauf_261);}
            .cls-IP-PG-4-16{fill:url(#IP_PG_4_Unbenannter_Verlauf_260);}
        </style>
        <radialGradient id="IP_PG_4_Unbenannter_Verlauf_295" cx="257.45" cy="2885.16" fx="257.45" fy="2885.16" r="1400.42" gradientTransform="translate(0 -1750.58) scale(1 1.26)" gradientUnits="userSpaceOnUse">
            <stop offset=".84" stop-color="#221d43"/>
            <stop offset=".88" stop-color="#211c41" stop-opacity=".94"/>
            <stop offset=".92" stop-color="#201b3e" stop-opacity=".76"/>
            <stop offset=".96" stop-color="#1e1839" stop-opacity=".45"/>
            <stop offset="1" stop-color="#1b1532" stop-opacity=".03"/>
            <stop offset="1" stop-color="#1b1532" stop-opacity="0"/>
        </radialGradient>
        <radialGradient id="IP_PG_4_Unbenannter_Verlauf_297" cx="199.55" cy="3643.26" fx="199.55" fy="3643.26" r="1359.71" gradientTransform="translate(0 -2824.49) scale(1 1.4)" gradientUnits="userSpaceOnUse">
            <stop offset=".87" stop-color="#2a2458"/>
            <stop offset=".89" stop-color="#292357" stop-opacity=".95"/>
            <stop offset=".92" stop-color="#282254" stop-opacity=".81"/>
            <stop offset=".95" stop-color="#26214f" stop-opacity=".58"/>
            <stop offset=".98" stop-color="#241e48" stop-opacity=".26"/>
            <stop offset="1" stop-color="#221d43" stop-opacity="0"/>
        </radialGradient>
        <radialGradient id="IP_PG_4_Unbenannter_Verlauf_280" cx="500.01" cy="500" fx="500.01" fy="500" r="321.73" gradientUnits="userSpaceOnUse">
            <stop offset=".88" stop-color="#b8e1ee"/>
            <stop offset="1" stop-color="#fff" stop-opacity=".8"/>
        </radialGradient>
        <radialGradient id="IP_PG_4_Unbenannter_Verlauf_261" cx="461.65" cy="468.65" fx="461.65" fy="468.65" r="283.15" gradientUnits="userSpaceOnUse">
            <stop offset="0" stop-color="#69c6e3"/>
            <stop offset="1" stop-color="#69c6e3" stop-opacity="0"/>
        </radialGradient>
        <radialGradient id="IP_PG_4_Unbenannter_Verlauf_260" cx="435.53" cy="431.63" fx="435.53" fy="431.63" r="161.83" gradientUnits="userSpaceOnUse">
            <stop offset="0" stop-color="#36bcdc"/>
            <stop offset="1" stop-color="#36bcdc" stop-opacity="0"/>
        </radialGradient>
    </defs>
    <g id="ip_pg_4">
        <g class="IP_PG_4-bg">
            <rect class="cls-IP-PG-4-9" x="0" width="1000" height="1000"/>
            <path class="cls-IP-PG-4-13" d="M1000.01,386.06C811.24,222.92,539.79,120.61,238.11,120.61,156.16,120.61,76.44,128.16,0,142.43V1000H1000.01V386.06Z"/>
            <path class="cls-IP-PG-4-14" d="M1000.02,746.29c-188.04-224.19-490.23-369.59-830.98-369.59-57.57,0-114.04,4.15-169.04,12.13V1000H1000.01v-253.71Z"/>
        </g>
        <g class="IP_PG_4-star-main-base">
            <circle class="cls-IP-PG-4-5" cx="500.01" cy="500" r="338.18"/>
            <circle class="cls-IP-PG-4-12" cx="500.01" cy="500" r="321.73"/>
            <circle class="cls-IP-PG-4-15" cx="461.65" cy="468.65" r="283.15"/>
            <circle class="cls-IP-PG-4-16" cx="435.53" cy="431.63" r="161.83"/>
        </g>
        <g class="IP_PG_4-star-sparkles cls-IP-PG-4-11">
            <circle class="cls-IP-PG-4-2" cx="366.66" cy="411.75" r="5.86"/>
            <circle class="cls-IP-PG-4-2" cx="399.31" cy="366.66" r="5.86"/>
            <circle class="cls-IP-PG-4-2" cx="393.45" cy="342.65" r="5.86"/>
            <circle class="cls-IP-PG-4-2" cx="393.45" cy="411.75" r="7.15"/>
            <circle class="cls-IP-PG-4-2" cx="259.91" cy="463.47" r="5.86"/>
            <circle class="cls-IP-PG-4-2" cx="248.19" cy="419.21" r="5.86"/>
            <circle class="cls-IP-PG-4-2" cx="285.48" cy="483.71" r="8.38"/>
            <circle class="cls-IP-PG-4-2" cx="413.5" cy="766.86" r="7.15"/>
            <circle class="cls-IP-PG-4-2" cx="191.68" cy="515.06" r="5.86"/>
            <circle class="cls-IP-PG-4-2" cx="393.45" cy="732.4" r="8.38"/>
            <circle class="cls-IP-PG-4-2" cx="286.75" cy="669.79" r="7.15"/>
            <circle class="cls-IP-PG-4-2" cx="217.64" cy="542.36" r="5.86"/>
            <circle class="cls-IP-PG-4-2" cx="248.56" cy="591.93" r="7.15"/>
            <circle class="cls-IP-PG-4-2" cx="313.95" cy="500.83" r="5.86"/>
            <circle class="cls-IP-PG-4-2" cx="279.6" cy="602.37" r="7.15"/>
            <circle class="cls-IP-PG-4-2" cx="291.34" cy="523.44" r="5.86"/>
            <circle class="cls-IP-PG-4-2" cx="400.6" cy="515.06" r="8.38"/>
            <circle class="cls-IP-PG-4-2" cx="385.08" cy="542.36" r="7.15"/>
            <circle class="cls-IP-PG-4-2" cx="430.26" cy="321.33" r="5.86"/>
            <circle class="cls-IP-PG-4-2" cx="353.65" cy="463.47" r="7.15"/>
            <circle class="cls-IP-PG-4-2" cx="542.86" cy="205.18" r="5.86"/>
            <circle class="cls-IP-PG-4-2" cx="569.66" cy="228.61" r="8.38"/>
            <circle class="cls-IP-PG-4-2" cx="436.12" cy="256.89" r="5.86"/>
            <circle class="cls-IP-PG-4-2" cx="461.68" cy="277.13" r="8.38"/>
            <circle class="cls-IP-PG-4-2" cx="475.92" cy="364.23" r="8.38"/>
            <circle class="cls-IP-PG-4-2" cx="460.4" cy="386.85" r="7.15"/>
            <circle class="cls-IP-PG-4-2" cx="490.16" cy="294.25" r="5.86"/>
            <circle class="cls-IP-PG-4-2" cx="467.54" cy="316.86" r="5.86"/>
            <circle class="cls-IP-PG-4-2" cx="561.28" cy="335.78" r="7.15"/>
            <circle class="cls-IP-PG-4-2" cx="598.08" cy="328.63" r="8.38"/>
            <circle class="cls-IP-PG-4-2" cx="529.86" cy="256.89" r="7.15"/>
            <circle class="cls-IP-PG-4-2" cx="388.49" cy="247.56" r="7.15"/>
            <circle class="cls-IP-PG-4-2" cx="342.87" cy="366.66" r="8.38"/>
            <circle class="cls-IP-PG-4-2" cx="345.19" cy="335.05" r="5.86"/>
            <circle class="cls-IP-PG-4-2" cx="302.77" cy="288.94" r="8.38"/>
            <circle class="cls-IP-PG-4-2" cx="319.91" cy="267.51" r="7.15"/>
            <circle class="cls-IP-PG-4-2" cx="307.67" cy="336.79" r="5.86"/>
            <circle class="cls-IP-PG-4-2" cx="209.26" cy="451.55" r="7.15"/>
            <circle class="cls-IP-PG-4-2" cx="239.02" cy="358.95" r="5.86"/>
            <circle class="cls-IP-PG-4-2" cx="216.41" cy="381.56" r="5.86"/>
            <circle class="cls-IP-PG-4-2" cx="556.66" cy="683.14" r="5.86"/>
            <circle class="cls-IP-PG-4-2" cx="589.31" cy="638.04" r="5.86"/>
            <circle class="cls-IP-PG-4-2" cx="583.45" cy="614.04" r="5.86"/>
            <circle class="cls-IP-PG-4-2" cx="583.45" cy="683.14" r="7.15"/>
            <circle class="cls-IP-PG-4-2" cx="473.47" cy="702.31" r="5.86"/>
            <circle class="cls-IP-PG-4-2" cx="475.48" cy="755.09" r="8.38"/>
            <circle class="cls-IP-PG-4-2" cx="503.95" cy="772.21" r="5.86"/>
            <circle class="cls-IP-PG-4-2" cx="481.34" cy="794.82" r="5.86"/>
            <circle class="cls-IP-PG-4-2" cx="590.6" cy="786.45" r="8.38"/>
            <circle class="cls-IP-PG-4-2" cx="543.65" cy="734.85" r="7.15"/>
            <circle class="cls-IP-PG-4-2" cx="455.77" cy="677.28" r="7.15"/>
            <circle class="cls-IP-PG-4-2" cx="665.92" cy="635.62" r="8.38"/>
            <circle class="cls-IP-PG-4-2" cx="650.39" cy="658.23" r="7.15"/>
            <circle class="cls-IP-PG-4-2" cx="359.75" cy="604.03" r="5.86"/>
            <circle class="cls-IP-PG-4-2" cx="436.36" cy="601.6" r="8.38"/>
            <circle class="cls-IP-PG-4-2" cx="532.87" cy="638.04" r="8.38"/>
            <circle class="cls-IP-PG-4-2" cx="473.47" cy="629.08" r="5.86"/>
            <circle class="cls-IP-PG-4-2" cx="398" cy="702.2" r="5.86"/>
            <circle class="cls-IP-PG-4-2" cx="320.6" cy="717.03" r="5.86"/>
            <circle class="cls-IP-PG-4-2" cx="338.18" cy="703.72" r="7.15"/>
            <circle class="cls-IP-PG-4-2" cx="355.88" cy="655.52" r="5.86"/>
            <circle class="cls-IP-PG-4-2" cx="411.1" cy="562.75" r="5.86"/>
            <circle class="cls-IP-PG-4-2" cx="306.82" cy="583.41" r="5.86"/>
            <circle class="cls-IP-PG-4-2" cx="509.27" cy="423.17" r="5.86"/>
            <circle class="cls-IP-PG-4-2" cx="485.55" cy="416.24" r="5.86"/>
            <circle class="cls-IP-PG-4-2" cx="507.01" cy="555.63" r="5.86"/>
            <circle class="cls-IP-PG-4-2" cx="545.48" cy="355.62" r="8.38"/>
            <circle class="cls-IP-PG-4-2" cx="557.3" cy="380.37" r="7.15"/>
            <circle class="cls-IP-PG-4-2" cx="481.05" cy="472.05" r="8.38"/>
            <circle class="cls-IP-PG-4-2" cx="443.59" cy="519.01" r="5.86"/>
            <circle class="cls-IP-PG-4-2" cx="735.78" cy="692.14" r="5.86"/>
            <circle class="cls-IP-PG-4-2" cx="756.46" cy="606.8" r="8.38"/>
            <circle class="cls-IP-PG-4-2" cx="782.51" cy="624.32" r="7.15"/>
            <circle class="cls-IP-PG-4-2" cx="701.49" cy="649.76" r="7.15"/>
            <circle class="cls-IP-PG-4-2" cx="699.86" cy="548.17" r="5.86"/>
            <circle class="cls-IP-PG-4-2" cx="763.61" cy="564.23" r="5.86"/>
            <circle class="cls-IP-PG-4-2" cx="731.84" cy="567.86" r="5.86"/>
            <circle class="cls-IP-PG-4-2" cx="600.76" cy="351.57" r="5.86"/>
            <circle class="cls-IP-PG-4-2" cx="661.89" cy="365.28" r="8.38"/>
            <circle class="cls-IP-PG-4-2" cx="660.03" cy="392.65" r="7.15"/>
            <circle class="cls-IP-PG-4-2" cx="720.92" cy="297.37" r="7.15"/>
            <circle class="cls-IP-PG-4-2" cx="766" cy="431.27" r="5.86"/>
            <circle class="cls-IP-PG-4-2" cx="720.58" cy="399.06" r="5.86"/>
            <circle class="cls-IP-PG-4-2" cx="696.64" cy="405.16" r="5.86"/>
            <circle class="cls-IP-PG-4-2" cx="765.73" cy="404.48" r="7.15"/>
            <circle class="cls-IP-PG-4-2" cx="717.4" cy="322.49" r="8.38"/>
            <circle class="cls-IP-PG-4-2" cx="740.17" cy="337.79" r="7.15"/>
            <circle class="cls-IP-PG-4-2" cx="721.14" cy="455.5" r="8.38"/>
            <circle class="cls-IP-PG-4-2" cx="689.52" cy="453.5" r="5.86"/>
            <circle class="cls-IP-PG-4-2" cx="691.63" cy="491" r="5.86"/>
            <circle class="cls-IP-PG-4-2" cx="667.44" cy="336.25" r="5.86"/>
            <circle class="cls-IP-PG-4-2" cx="703.57" cy="363.87" r="7.15"/>
            <circle class="cls-IP-PG-4-2" cx="631.04" cy="261.23" r="5.86"/>
            <circle class="cls-IP-PG-4-2" cx="608.86" cy="272.11" r="5.86"/>
            <circle class="cls-IP-PG-4-2" cx="676.34" cy="257.25" r="7.15"/>
            <circle class="cls-IP-PG-4-2" cx="570.39" cy="501.57" r="5.86"/>
            <circle class="cls-IP-PG-4-2" cx="540.48" cy="512.89" r="5.86"/>
            <circle class="cls-IP-PG-4-2" cx="643.53" cy="550.16" r="8.38"/>
            <circle class="cls-IP-PG-4-2" cx="618.15" cy="568.66" r="7.15"/>
            <circle class="cls-IP-PG-4-2" cx="681.09" cy="571.43" r="5.86"/>
            <circle class="cls-IP-PG-4-2" cx="664.59" cy="459.69" r="5.86"/>
            <circle class="cls-IP-PG-4-2" cx="677.99" cy="436.48" r="7.15"/>
            <circle class="cls-IP-PG-4-2" cx="613.64" cy="457.74" r="8.38"/>
            <circle class="cls-IP-PG-4-2" cx="587.43" cy="439.93" r="5.86"/>
            <circle class="cls-IP-PG-4-2" cx="570.18" cy="473.29" r="5.86"/>
        </g>
        <g class="IP_PG_4-star-specks">
            <path class="cls-IP-PG-4-5" d="M493.87,767.99c-14.32,0-25.96-11.65-25.96-25.96s11.65-25.97,25.96-25.97,25.96,11.65,25.96,25.97-11.65,25.96-25.96,25.96Zm0-38.93c-7.15,0-12.96,5.82-12.96,12.97s5.82,12.96,12.96,12.96,12.96-5.82,12.96-12.96-5.82-12.97-12.96-12.97Z"/>
            <path class="cls-IP-PG-4-5" d="M744.55,385.43c-14.32,0-25.96-11.65-25.96-25.96s11.65-25.97,25.96-25.97,25.96,11.65,25.96,25.97-11.65,25.96-25.96,25.96Zm0-38.93c-7.15,0-12.96,5.82-12.96,12.97s5.82,12.96,12.96,12.96,12.96-5.82,12.96-12.96-5.82-12.97-12.96-12.97Z"/>
            <path class="cls-IP-PG-4-2" d="M388.55,601.18c-14.32,0-25.97-11.65-25.97-25.96s11.65-25.97,25.97-25.97,25.96,11.65,25.96,25.97-11.65,25.96-25.96,25.96Zm0-38.93c-7.15,0-12.97,5.82-12.97,12.97s5.82,12.96,12.97,12.96,12.96-5.82,12.96-12.96-5.82-12.97-12.96-12.97Z"/>
            <path class="cls-IP-PG-4-7" d="M776.97,588.16c-10.73,0-19.46-8.73-19.46-19.46s8.73-19.46,19.46-19.46,19.45,8.73,19.45,19.46-8.73,19.46-19.45,19.46Zm0-25.91c-3.56,0-6.46,2.9-6.46,6.46s2.9,6.46,6.46,6.46,6.45-2.9,6.45-6.46-2.9-6.46-6.45-6.46Z"/>
            <path class="cls-IP-PG-4-7" d="M302.29,575.2c-10.73,0-19.45-8.73-19.45-19.46s8.73-19.45,19.45-19.45,19.46,8.73,19.46,19.45-8.73,19.46-19.46,19.46Zm0-25.91c-3.56,0-6.45,2.9-6.45,6.45s2.9,6.46,6.45,6.46,6.46-2.9,6.46-6.46-2.9-6.45-6.46-6.45Z"/>
            <path class="cls-IP-PG-4-2" d="M450.64,539.27c-16.69,0-30.26-13.58-30.26-30.26s13.58-30.26,30.26-30.26,30.26,13.58,30.26,30.26-13.58,30.26-30.26,30.26Zm0-47.53c-9.52,0-17.26,7.74-17.26,17.26s7.74,17.26,17.26,17.26,17.26-7.74,17.26-17.26-7.74-17.26-17.26-17.26Z"/>
            <path class="cls-IP-PG-4-2" d="M523,545.33c-8.83,0-16.01-7.18-16.01-16.01s7.18-16.01,16.01-16.01,16.01,7.18,16.01,16.01-7.18,16.01-16.01,16.01Zm0-19.02c-1.66,0-3.01,1.35-3.01,3.01s1.35,3.01,3.01,3.01,3.01-1.35,3.01-3.01-1.35-3.01-3.01-3.01Z"/>
            <path class="cls-IP-PG-4-2" d="M624.41,375.48c-8.83,0-16.01-7.18-16.01-16.01s7.18-16.01,16.01-16.01,16.01,7.18,16.01,16.01-7.18,16.01-16.01,16.01Zm0-19.02c-1.66,0-3.01,1.35-3.01,3.01s1.35,3.01,3.01,3.01,3.01-1.35,3.01-3.01-1.35-3.01-3.01-3.01Z"/>
            <path class="cls-IP-PG-4-2" d="M479.38,332.03c-11.57,0-20.99-9.42-20.99-20.99s9.42-20.99,20.99-20.99,20.99,9.42,20.99,20.99-9.42,20.99-20.99,20.99Zm0-28.98c-4.41,0-7.99,3.58-7.99,7.99s3.58,7.99,7.99,7.99,7.99-3.58,7.99-7.99-3.58-7.99-7.99-7.99Z"/>
            <path class="cls-IP-PG-4-6" d="M522.35,373.96c-7.14,0-14.97-2.09-22.43-6.4-8.08-4.67-14.48-11.31-18-18.7-3.86-8.09-3.89-16.51-.09-23.1,7.61-13.19,27.49-15.49,45.24-5.23,17.76,10.25,25.7,28.61,18.09,41.8h0c-4.41,7.65-12.95,11.63-22.81,11.63Zm-17.77-46.74c-5.23,0-9.56,1.69-11.49,5.04-2.23,3.87-.61,8.55,.56,11,2.37,4.97,7.03,9.72,12.77,13.04,10.87,6.27,23.71,6.05,27.48-.48h0c3.77-6.53-2.46-17.76-13.33-24.04-5.29-3.05-11.04-4.57-15.99-4.57Z"/>
            <path class="cls-IP-PG-4-7" d="M483.26,835.99c-7.14,0-14.97-2.09-22.43-6.4-17.76-10.25-25.7-28.61-18.09-41.8,3.8-6.59,11.11-10.77,20.05-11.47,8.17-.64,17.11,1.58,25.19,6.24,17.76,10.25,25.7,28.61,18.09,41.8h0c-4.42,7.65-12.95,11.63-22.81,11.63Zm-17.71-46.78c-.59,0-1.18,.02-1.75,.07-2.7,.21-7.57,1.15-9.81,5.01-3.77,6.53,2.46,17.76,13.33,24.04,10.87,6.28,23.71,6.05,27.49-.48,3.77-6.53-2.46-17.76-13.33-24.04-5.14-2.97-10.85-4.61-15.93-4.61Z"/>
            <path class="cls-IP-PG-4-10" d="M662.66,419.96c-7.38,0-15.23-2.21-22.4-6.35-8.08-4.67-14.47-11.31-18-18.7-3.86-8.09-3.89-16.51-.09-23.1,3.8-6.59,11.11-10.77,20.05-11.48,8.15-.64,17.11,1.58,25.19,6.24,8.08,4.67,14.47,11.31,18,18.7,3.86,8.09,3.89,16.51,.09,23.1-3.8,6.59-11.11,10.77-20.05,11.47-.92,.07-1.86,.11-2.8,.11Zm-17.67-46.73c-.59,0-1.17,.02-1.75,.07-2.7,.21-7.57,1.15-9.81,5.02-2.23,3.87-.61,8.55,.56,11,2.37,4.97,7.03,9.72,12.77,13.04,5.74,3.32,12.18,4.97,17.68,4.54,2.7-.21,7.57-1.15,9.81-5.01h0c2.23-3.87,.61-8.55-.56-11-2.37-4.97-7.03-9.72-12.77-13.04-5.14-2.97-10.85-4.61-15.93-4.61Z"/>
            <path class="cls-IP-PG-4-2" d="M678.59,354.59c-8.18,0-17.17-2.41-25.75-7.36-20.27-11.7-29.4-32.55-20.79-47.46,8.61-14.91,31.23-17.42,51.5-5.72,20.27,11.7,29.4,32.55,20.79,47.46h0c-4.97,8.6-14.6,13.08-25.75,13.08Zm-20.86-54.85c-6.51,0-11.92,2.19-14.42,6.53-4.8,8.31,2.54,21.91,16.03,29.7,13.49,7.79,28.94,7.35,33.74-.97,4.8-8.31-2.54-21.91-16.03-29.7-6.45-3.72-13.35-5.57-19.32-5.57Z"/>
            <path class="cls-IP-PG-4-10" d="M299.67,655.95c-8.45,0-17.46-2.54-25.69-7.29-9.28-5.36-16.61-12.97-20.65-21.43-4.43-9.28-4.48-18.52-.14-26.03,4.33-7.51,12.37-12.09,22.62-12.89,9.35-.74,19.6,1.81,28.88,7.17,9.28,5.36,16.61,12.96,20.65,21.43,4.43,9.28,4.48,18.52,.14,26.03h0c-4.34,7.51-12.37,12.09-22.62,12.89-1.05,.08-2.12,.12-3.19,.12Zm-20.71-54.77c-.72,0-1.43,.03-2.13,.08-3.39,.27-9.5,1.46-12.38,6.43s-.85,10.87,.62,13.93c2.88,6.02,8.49,11.77,15.42,15.77,6.92,4,14.72,5.99,21.36,5.47,3.39-.27,9.5-1.46,12.38-6.43h0c2.87-4.98,.85-10.87-.62-13.93-2.88-6.02-8.49-11.77-15.42-15.77-6.2-3.58-13.08-5.55-19.23-5.55Z"/>
            <path class="cls-IP-PG-4-2" d="M252.39,631.62c-17.23,0-34.66-15.23-42.24-38.42-4.1-12.55-4.57-25.55-1.33-36.59,3.5-11.92,10.87-20.25,20.74-23.48,9.87-3.23,20.74-.85,30.6,6.7,9.15,6.99,16.44,17.76,20.55,30.31,8.9,27.22,.37,53.61-19.41,60.07h0c-2.93,.96-5.91,1.42-8.91,1.42Zm-14.06-86.88c-1.63,0-3.22,.25-4.73,.74-5.68,1.86-10.05,7.11-12.31,14.79-2.51,8.55-2.08,18.81,1.21,28.89,6.41,19.61,22.33,32.76,34.75,28.69,12.43-4.06,17.51-24.06,11.09-43.68-3.29-10.08-9.01-18.61-16.09-24.03-4.66-3.56-9.47-5.41-13.93-5.41Z"/>
            <path class="cls-IP-PG-4-2" d="M565.98,822.94c-10.22,0-19.95-2.1-28.18-6.16-11.95-5.9-19.41-15.2-20.99-26.2-1.59-11,2.93-22.03,12.72-31.07,9.13-8.42,21.93-14.19,36.05-16.23,14.12-2.04,28.03-.13,39.16,5.37,11.95,5.9,19.41,15.2,20.99,26.2,1.59,11-2.93,22.03-12.72,31.07-9.13,8.42-21.93,14.19-36.05,16.23-3.69,.53-7.37,.8-10.99,.8Zm10.38-67.44c-2.92,0-5.9,.21-8.92,.65-22.55,3.26-39.84,18.17-37.76,32.57,.96,6.63,5.89,12.46,13.88,16.4,8.8,4.34,20.01,5.82,31.55,4.16,11.54-1.67,21.87-6.25,29.09-12.91,6.55-6.05,9.63-13.03,8.67-19.66-1.8-12.47-17.65-21.2-36.51-21.2Z"/>
            <path class="cls-IP-PG-4-7" d="M278.26,387.61c-5.01,0-9.81-1.13-14.21-3.41h0c-9.87-5.11-16.21-15.2-17.87-28.42-1.54-12.33,1.22-26.09,7.78-38.76s16.2-22.87,27.15-28.73c11.75-6.29,23.65-6.94,33.52-1.83,9.87,5.11,16.21,15.2,17.87,28.42,1.54,12.33-1.22,26.09-7.78,38.76s-16.2,22.87-27.15,28.73c-6.51,3.49-13.08,5.24-19.31,5.24Zm22.15-91.54c-4.12,0-8.6,1.23-13.17,3.68-8.66,4.63-16.38,12.89-21.74,23.25-5.36,10.36-7.64,21.43-6.42,31.17,1.11,8.85,4.99,15.41,10.94,18.49h0c12.92,6.69,32.68-4.76,43.15-24.99,10.47-20.23,8.4-42.98-4.52-49.66-2.49-1.29-5.28-1.93-8.25-1.93Z"/>
            <path class="cls-IP-PG-4-10" d="M755.28,672.52c-6.32,0-11.98-2.15-16.03-6.2-5.18-5.19-7.26-13.02-5.69-21.49,1.43-7.71,5.69-15.43,12-21.74,6.31-6.31,14.03-10.57,21.73-12,8.48-1.57,16.31,.5,21.49,5.69,5.18,5.19,7.26,13.02,5.69,21.49-1.43,7.71-5.69,15.43-12,21.74-6.31,6.31-14.03,10.57-21.73,12-1.86,.34-3.68,.51-5.46,.51Zm17.56-48.95c-1.2,0-2.31,.14-3.17,.3-5.07,.94-10.51,4.01-14.91,8.41-4.41,4.4-7.47,9.84-8.41,14.92-.46,2.47-.79,7.04,2.1,9.93,2.89,2.89,7.46,2.55,9.93,2.1,5.07-.94,10.51-4.01,14.91-8.41,4.41-4.4,7.47-9.84,8.41-14.92,.46-2.47,.79-7.04-2.1-9.93-1.89-1.89-4.49-2.4-6.76-2.4Z"/>
            <path class="cls-IP-PG-4-10" d="M225.83,421.07c-6.32,0-11.98-2.15-16.03-6.2-10.35-10.35-7.57-29.34,6.32-43.23,13.89-13.89,32.88-16.66,43.23-6.31,10.35,10.35,7.57,29.34-6.32,43.23-6.31,6.31-14.03,10.57-21.74,12-1.86,.34-3.68,.51-5.46,.51Zm17.67-48.99c-5.83,0-13.12,3.67-18.2,8.75-7.37,7.37-11.77,19.38-6.32,24.84,2.89,2.89,7.46,2.55,9.93,2.1,5.07-.94,10.51-4.01,14.91-8.41,7.37-7.37,11.77-19.38,6.32-24.84-1.7-1.69-4.02-2.44-6.64-2.44Z"/>
            <path class="cls-IP-PG-4-6" d="M428.09,370.18c-10.16,0-18.63-5.01-20.95-13.25-3-10.61,5.51-21.99,19.36-25.9,6.18-1.74,12.55-1.7,17.95,.13,6.16,2.09,10.57,6.4,12.1,11.83h0c2.99,10.62-5.51,21.99-19.36,25.9-3.1,.87-6.17,1.29-9.09,1.29Zm7.46-27.42c-1.78,0-3.67,.26-5.52,.79-7.44,2.1-11.12,7.24-10.38,9.86,.74,2.62,6.56,5.08,14,2.98,7.44-2.1,11.12-7.24,10.38-9.86h0c-.5-1.77-2.8-2.72-3.76-3.05-1.41-.48-3.02-.72-4.72-.72Z"/>
        </g>
        <g class="IP_PG_4-star-inner">
            <path class="cls-IP-PG-4-8" d="M499.95,838.18c186.77,0,338.18-151.41,338.18-338.18S686.72,161.82,499.95,161.82h0c-93.05,215.85-93.05,460.51,0,676.36h0Z"/>
            <path class="cls-IP-PG-4-5" d="M500.01,837.08h-5.59l-2.21-5.14c-46.77-108.49-70.48-220.38-70.48-332.55,0-112.18,23.71-224.07,70.48-332.55l2.21-5.14h5.59c92.6,0,178.18,34.57,240.97,97.35,62.79,62.78,97.37,148.35,97.37,240.95s-34.58,177.89-97.38,240.36c-62.71,62.38-148.28,96.73-240.95,96.73Zm5.59-658.34c-44.38,104.73-66.88,212.58-66.88,320.65,0,108.07,22.5,215.92,66.88,320.65,85.99-1.35,165.13-33.8,223.37-91.74,59.57-59.25,92.37-140.33,92.37-228.3s-32.81-169.36-92.39-228.93c-58.31-58.3-137.44-90.97-223.35-92.33Z"/>
        </g>
        <g class="IP_PG_4-star-core">
            <path class="cls-IP-PG-4-3" d="M489.6,567.71c5.28,8.75,15.42,13.37,25.46,11.43,37.17-7.17,65.24-39.88,65.24-79.14s-28.08-71.97-65.25-79.14c-9.88-1.9-19.98,2.47-25.22,11.06-7.44,12.17-16.36,33.91-16.36,68.09s8.74,55.46,16.13,67.71Z"/>
            <path class="cls-IP-PG-4-3" d="M482.07,552.61c3.54,9.33,13.38,14.83,23.11,12.6,30.76-7.05,57.08-33.57,57.08-65.21s-25.86-57.71-56.28-65.03c-9.99-2.4-20.16,2.99-23.77,12.61-4.23,11.26-8.81,28.9-8.81,52.42s4.48,41.58,8.67,52.61Z"/>
        </g>
        <g class="IP_PG_4-arrows-outer">
            <path class="cls-IP-PG-4-4" d="M930.04,293.22c-1.2-2.49-4.19-3.53-6.68-2.33l-71.72,34.64,17.71-39.37c1.13-2.52,0-5.48-2.51-6.61-2.52-1.13-5.48,0-6.61,2.51l-23.29,51.78c-.75,1.66-.5,3.51,.48,4.9,.04,.05,.08,.1,.11,.15,.11,.15,.22,.3,.35,.44,.65,.71,1.49,1.21,2.4,1.45l54.95,13.92c.41,.1,.83,.15,1.23,.15,2.23,0,4.27-1.51,4.84-3.77,.68-2.68-.94-5.4-3.62-6.07l-41.56-10.53,71.6-34.58c2.49-1.2,3.53-4.19,2.33-6.68Z"/>
            <path class="cls-IP-PG-4-4" d="M629.92,92.06c-1.69-2.18-4.83-2.58-7.01-.89l-34.12,26.45,16.86-77.85c.58-2.7-1.13-5.36-3.83-5.95-2.7-.58-5.36,1.13-5.94,3.83l-16.86,77.85-20.12-38.19c-1.29-2.44-4.31-3.38-6.75-2.09-2.44,1.29-3.38,4.31-2.09,6.75l26.46,50.23c.9,1.7,2.63,2.67,4.43,2.67,.27,0,.54-.03,.8-.07,.1-.01,.2-.03,.3-.05,.07-.02,.15-.04,.22-.06,.86-.22,1.64-.66,2.27-1.28h.01s44.5-34.33,44.5-34.33c2.18-1.69,2.58-4.83,.89-7.02Z"/>
            <path class="cls-IP-PG-4-4" d="M925.43,704.87l-71.46-35.19,41.92-10.28c2.68-.66,4.32-3.36,3.67-6.05-.66-2.68-3.37-4.32-6.05-3.66l-53.35,13.09-.09-.04-.06,.08-1.64,.4c-1.84,.45-3.17,1.87-3.62,3.59-.02,.07-.04,.13-.05,.2-.04,.19-.07,.38-.09,.57-.02,.2-.04,.39-.04,.58,0,.07,0,.13,0,.2,.02,.58,.14,1.15,.36,1.68h0s22.94,52.07,22.94,52.07c.82,1.87,2.66,2.99,4.58,2.99,.67,0,1.36-.14,2.01-.43,2.53-1.11,3.67-4.06,2.56-6.59l-17.34-39.36,71.33,35.13c.71,.35,1.46,.52,2.21,.52,1.84,0,3.62-1.03,4.49-2.79,1.22-2.48,.2-5.47-2.28-6.69Z"/>
            <path class="cls-IP-PG-4-4" d="M624.33,902.24l-43.31-34.1h0s0,0,0,0l-1.29-1.02c-1.49-1.17-3.43-1.34-5.06-.65-.06,.03-.12,.05-.19,.08-.18,.08-.34,.18-.51,.28-.17,.1-.32,.21-.48,.33-.05,.04-.11,.09-.16,.13-.45,.38-.83,.84-1.11,1.35h-.02s-26.97,50.1-26.97,50.1c-1.31,2.43-.39,5.46,2.04,6.77,.75,.4,1.56,.59,2.36,.59,1.78,0,3.51-.96,4.41-2.64l20.41-38.03,16.26,77.97c.49,2.36,2.57,3.98,4.89,3.98,.34,0,.68-.03,1.03-.11,2.7-.56,4.44-3.21,3.87-5.92l-16.26-77.97,33.91,26.71c.92,.72,2.01,1.07,3.09,1.07,1.48,0,2.95-.65,3.93-1.91,1.71-2.17,1.33-5.31-.83-7.02Z"/>
        </g>
        <g class="IP_PG_4-arrows-inner">
            <path class="cls-IP-PG-4-1" d="M588.21,284.21l-25.67-48.73h0l-.79-1.5c-.88-1.68-2.59-2.62-4.36-2.65-.07,0-.14,0-.21,0-.19,0-.38,.02-.57,.05-.2,.02-.39,.06-.58,.11-.06,.02-.12,.03-.18,.05-.57,.17-1.1,.43-1.57,.78h-.02s-45.02,34.79-45.02,34.79c-2.18,1.69-2.58,4.83-.89,7.02,.99,1.27,2.46,1.94,3.96,1.94,1.07,0,2.15-.34,3.06-1.05l34.12-26.45-28.31,130.74c-.58,2.7,1.13,5.36,3.83,5.94,.36,.08,.71,.11,1.06,.11,2.3,0,4.38-1.6,4.88-3.94l28.31-130.74,20.12,38.19c.9,1.7,2.63,2.67,4.43,2.67,.79,0,1.58-.19,2.33-.58,2.44-1.29,3.38-4.31,2.09-6.75Z"/>
            <path class="cls-IP-PG-4-1" d="M724.36,436.65l22.59-50.23h0l.7-1.55c.78-1.73,.47-3.65-.6-5.06-.04-.06-.08-.11-.13-.17-.12-.15-.25-.29-.39-.42-.14-.14-.29-.27-.44-.39-.05-.04-.1-.08-.16-.11-.48-.35-1.01-.6-1.58-.76v-.03s-55.14-14.05-55.14-14.05c-2.68-.68-5.4,.94-6.08,3.62-.39,1.56,0,3.13,.91,4.31,.66,.84,1.59,1.48,2.71,1.77l41.84,10.6-120.46,58.18c-2.49,1.2-3.53,4.19-2.33,6.68,.16,.33,.35,.63,.56,.91,1.42,1.81,3.95,2.46,6.11,1.42l120.46-58.18-17.71,39.37c-.79,1.75-.48,3.72,.62,5.13,.48,.62,1.12,1.13,1.89,1.48,2.52,1.13,5.48,.01,6.61-2.51Z"/>
            <path class="cls-IP-PG-4-1" d="M688.05,637.79l53.49-13.12h0l1.65-.4c1.84-.45,3.17-1.88,3.62-3.59,.02-.07,.04-.13,.05-.2,.04-.19,.07-.38,.09-.57,.02-.2,.04-.39,.04-.59,0-.06,0-.13,0-.19-.02-.59-.15-1.17-.37-1.71l.02-.02-22.87-52.1c-1.11-2.53-4.07-3.67-6.59-2.56-1.47,.65-2.47,1.92-2.84,3.37-.26,1.04-.19,2.17,.28,3.22l17.41,39.5-120.01-59.1c-2.48-1.22-5.47-.2-6.69,2.28-.16,.33-.28,.66-.37,1-.56,2.23,.49,4.63,2.64,5.69l120.01,59.1-41.92,10.28c-1.87,.46-3.23,1.91-3.66,3.65-.19,.76-.2,1.58,0,2.4,.66,2.68,3.37,4.32,6.05,3.67Z"/>
            <path class="cls-IP-PG-4-1" d="M507.2,733.01l43.27,34.08h0l1.33,1.05c1.49,1.17,3.43,1.34,5.06,.64,.07-.03,.13-.05,.19-.08,.17-.08,.34-.18,.5-.28,.17-.1,.33-.21,.49-.33,.05-.04,.1-.08,.15-.12,.45-.38,.83-.84,1.12-1.35h.03s26.98-50.1,26.98-50.1c1.31-2.43,.39-5.46-2.04-6.77-1.42-.76-3.04-.77-4.4-.16-.98,.43-1.82,1.19-2.37,2.2l-20.41,38.04-27.31-130.95c-.56-2.7-3.21-4.44-5.92-3.87-.36,.07-.7,.19-1.02,.33-2.1,.94-3.35,3.24-2.86,5.59l27.31,130.95-33.91-26.71c-1.51-1.19-3.49-1.37-5.13-.64-.72,.32-1.37,.81-1.89,1.47-1.71,2.17-1.34,5.31,.83,7.02Z"/>
        </g>
    </g>
</svg>