<?xml version="1.0" encoding="UTF-8"?><svg id="Ebene_2" xmlns="http://www.w3.org/2000/svg" xmlns:xlink="http://www.w3.org/1999/xlink" viewBox="0 0 1000.02 1000.02"><defs><style>.cls-1{fill:url(#Unbenannter_Verlauf_14-10);}.cls-2{fill:url(#Unbenannter_Verlauf_14-4);}.cls-3{fill:url(#Unbenannter_Verlauf_14-2);}.cls-4{fill:url(#Unbenannter_Verlauf_14-8);}.cls-5{fill:url(#Unbenannter_Verlauf_14-3);}.cls-6{fill:url(#Unbenannter_Verlauf_14-5);}.cls-7{fill:url(#Unbenannter_Verlauf_14-6);}.cls-8{fill:url(#Unbenannter_Verlauf_14-7);}.cls-9{fill:url(#Unbenannter_Verlauf_14-9);}.cls-10{fill:#f8cd2c;}.cls-11{fill:#fff;}.cls-12{fill:#e83945;}.cls-13{fill:#ee7016;}.cls-14{fill:#fdeaa6;}.cls-15{fill:#911d7e;}.cls-16{fill:#1b1532;}.cls-17{fill:url(#Orange_Gelb);}.cls-18{fill:url(#Unbenannter_Verlauf_14);}.cls-19{fill:url(#Unbenannter_Verlauf_295);opacity:.75;}.cls-20{fill:url(#Unbenannter_Verlauf_297);opacity:.5;}</style><radialGradient id="Unbenannter_Verlauf_295" cx="257.45" cy="2888.52" fx="257.45" fy="2888.52" r="1400.42" gradientTransform="translate(0 -1754.81) scale(1 1.26)" gradientUnits="userSpaceOnUse"><stop offset=".84" stop-color="#221d43"/><stop offset=".88" stop-color="#211c41" stop-opacity=".94"/><stop offset=".92" stop-color="#201b3e" stop-opacity=".76"/><stop offset=".96" stop-color="#1e1839" stop-opacity=".45"/><stop offset="1" stop-color="#1b1532" stop-opacity=".03"/><stop offset="1" stop-color="#1b1532" stop-opacity="0"/></radialGradient><radialGradient id="Unbenannter_Verlauf_297" cx="199.55" cy="3647.95" fx="199.55" fy="3647.95" r="1359.71" gradientTransform="translate(0 -2831.08) scale(1 1.4)" gradientUnits="userSpaceOnUse"><stop offset=".87" stop-color="#2a2458"/><stop offset=".89" stop-color="#292357" stop-opacity=".95"/><stop offset=".92" stop-color="#282254" stop-opacity=".81"/><stop offset=".95" stop-color="#26214f" stop-opacity=".58"/><stop offset=".98" stop-color="#241e48" stop-opacity=".26"/><stop offset="1" stop-color="#221d43" stop-opacity="0"/></radialGradient><radialGradient id="Unbenannter_Verlauf_14" cx="738.85" cy="109.94" fx="738.85" fy="109.94" r="29.83" gradientUnits="userSpaceOnUse"><stop offset="0" stop-color="#fcea10"/><stop offset="0" stop-color="#fff" stop-opacity=".94"/><stop offset="1" stop-color="#fff" stop-opacity="0"/></radialGradient><radialGradient id="Unbenannter_Verlauf_14-2" cx="578.9" cy="458.29" fx="578.9" fy="458.29" xlink:href="#Unbenannter_Verlauf_14"/><radialGradient id="Unbenannter_Verlauf_14-3" cx="387.82" cy="601.93" fx="387.82" fy="601.93" xlink:href="#Unbenannter_Verlauf_14"/><radialGradient id="Unbenannter_Verlauf_14-4" cx="77.24" cy="544.32" fx="77.24" fy="544.32" r="18.44" xlink:href="#Unbenannter_Verlauf_14"/><radialGradient id="Unbenannter_Verlauf_14-5" cx="555.85" cy="177.77" fx="555.85" fy="177.77" r="18.44" xlink:href="#Unbenannter_Verlauf_14"/><radialGradient id="Unbenannter_Verlauf_14-6" cx="875.72" cy="510.38" fx="875.72" fy="510.38" r="18.44" xlink:href="#Unbenannter_Verlauf_14"/><radialGradient id="Unbenannter_Verlauf_14-7" cx="567.97" cy="862.73" fx="567.97" fy="862.73" r="18.44" xlink:href="#Unbenannter_Verlauf_14"/><radialGradient id="Unbenannter_Verlauf_14-8" cx="219.23" cy="823.7" fx="219.23" fy="823.7" xlink:href="#Unbenannter_Verlauf_14"/><radialGradient id="Unbenannter_Verlauf_14-9" cx="798.11" cy="613.37" fx="798.11" fy="613.37" xlink:href="#Unbenannter_Verlauf_14"/><radialGradient id="Unbenannter_Verlauf_14-10" cx="175.71" cy="251.97" fx="175.71" fy="251.97" r="37.83" xlink:href="#Unbenannter_Verlauf_14"/><linearGradient id="Orange_Gelb" x1="-260.75" y1="622.37" x2="287.72" y2="622.37" gradientTransform="translate(739.2) rotate(-180) scale(1 -1)" gradientUnits="userSpaceOnUse"><stop offset="0" stop-color="#ffef26"/><stop offset=".02" stop-color="#fee921"/><stop offset=".1" stop-color="#fdd70e"/><stop offset=".19" stop-color="#fdcb03"/><stop offset=".28" stop-color="#fdc800"/><stop offset=".67" stop-color="#f18f34"/><stop offset=".89" stop-color="#e95f32"/><stop offset="1" stop-color="#e3312d"/></linearGradient></defs><g id="design_2b"><g><rect class="cls-16" x="0" width="1000" height="1000"/><path class="cls-19" d="M1000.01,386.06C811.24,222.92,539.79,120.61,238.11,120.61,156.16,120.61,76.44,128.16,0,142.43V1000H1000.01V386.06Z"/><path class="cls-20" d="M1000.02,746.29c-188.04-224.19-490.23-369.59-830.98-369.59-57.57,0-114.04,4.15-169.04,12.13V1000H1000.01v-253.71Z"/><path class="cls-11" d="M821.15,613.37l-7.43,2.09c-6.56,1.84-11.68,6.97-13.53,13.53l-2.09,7.43-2.1-7.44c-1.85-6.55-6.96-11.67-13.51-13.51l-7.44-2.1,7.43-2.09c6.56-1.84,11.68-6.97,13.53-13.53l2.09-7.43,2.1,7.44c1.85,6.55,6.96,11.67,13.51,13.51l7.44,2.1Z"/><path class="cls-11" d="M601.94,458.29l-7.43,2.09c-6.56,1.84-11.68,6.97-13.53,13.53l-2.09,7.43-2.1-7.44c-1.85-6.55-6.96-11.67-13.51-13.51l-7.44-2.1,7.43-2.09c6.56-1.84,11.68-6.97,13.53-13.53l2.09-7.43,2.1,7.44c1.85,6.55,6.96,11.67,13.51,13.51l7.44,2.1Z"/><path class="cls-11" d="M761.89,109.94l-7.43,2.09c-6.56,1.84-11.68,6.97-13.53,13.53l-2.09,7.43-2.1-7.44c-1.85-6.55-6.96-11.67-13.51-13.51l-7.44-2.1,7.43-2.09c6.56-1.84,11.68-6.97,13.53-13.53l2.09-7.43,2.1,7.44c1.85,6.55,6.96,11.67,13.51,13.51l7.44,2.1Z"/><path class="cls-11" d="M410.87,601.93l-7.43,2.09c-6.56,1.84-11.68,6.97-13.53,13.53l-2.09,7.43-2.1-7.44c-1.85-6.55-6.96-11.67-13.51-13.51l-7.44-2.1,7.43-2.09c6.56-1.84,11.68-6.97,13.53-13.53l2.09-7.43,2.1,7.44c1.85,6.55,6.96,11.67,13.51,13.51l7.44,2.1Z"/><path class="cls-11" d="M242.27,823.7l-7.43,2.09c-6.56,1.84-11.68,6.97-13.53,13.53l-2.09,7.43-2.1-7.44c-1.85-6.55-6.96-11.67-13.51-13.51l-7.44-2.1,7.43-2.09c6.56-1.84,11.68-6.97,13.53-13.53l2.09-7.43,2.1,7.44c1.85,6.55,6.96,11.67,13.51,13.51l7.44,2.1Z"/><path class="cls-11" d="M583.96,862.73l-5.15,1.45c-4.55,1.28-8.11,4.84-9.39,9.39l-1.45,5.15-1.46-5.16c-1.28-4.54-4.83-8.09-9.37-9.37l-5.16-1.46,5.15-1.45c4.55-1.28,8.11-4.84,9.39-9.39l1.45-5.15,1.46,5.16c1.28,4.54,4.83,8.09,9.37,9.37l5.16,1.46Z"/><path class="cls-11" d="M93.23,544.32l-5.15,1.45c-4.55,1.28-8.11,4.84-9.39,9.39l-1.45,5.15-1.46-5.16c-1.28-4.54-4.83-8.09-9.37-9.37l-5.16-1.46,5.15-1.45c4.55-1.28,8.11-4.84,9.39-9.39l1.45-5.15,1.46,5.16c1.28,4.54,4.83,8.09,9.37,9.37l5.16,1.46Z"/><path class="cls-11" d="M891.7,510.38l-5.15,1.45c-4.55,1.28-8.11,4.84-9.39,9.39l-1.45,5.15-1.46-5.16c-1.28-4.54-4.83-8.09-9.37-9.37l-5.16-1.46,5.15-1.45c4.55-1.28,8.11-4.84,9.39-9.39l1.45-5.15,1.46,5.16c1.28,4.54,4.83,8.09,9.37,9.37l5.16,1.46Z"/><path class="cls-11" d="M571.84,177.77l-5.15,1.45c-4.55,1.28-8.11,4.84-9.39,9.39l-1.45,5.15-1.46-5.16c-1.28-4.54-4.83-8.09-9.37-9.37l-5.16-1.46,5.15-1.45c4.55-1.28,8.11-4.84,9.39-9.39l1.45-5.15,1.46,5.16c1.28,4.54,4.83,8.09,9.37,9.37l5.16,1.46Z"/><path class="cls-11" d="M207.89,251.97l-10.37,2.92c-9.16,2.58-16.32,9.73-18.89,18.89l-2.92,10.37-2.93-10.38c-2.58-9.14-9.72-16.29-18.87-18.87l-10.38-2.93,10.37-2.92c9.16-2.58,16.32-9.73,18.89-18.89l2.92-10.37,2.93,10.38c2.58,9.14,9.72,16.29,18.87,18.87l10.38,2.93Z"/><circle class="cls-11" cx="630.73" cy="318.04" r="3.87"/><circle class="cls-11" cx="715.8" cy="930.33" r="3.87"/><circle class="cls-11" cx="731.99" cy="742.92" r="3.87"/><circle class="cls-11" cx="484.43" cy="918.05" r="3.87"/><circle class="cls-11" cx="282.37" cy="658" r="3.87"/><circle class="cls-11" cx="267.11" cy="706.5" r="3.87"/><circle class="cls-11" cx="97.1" cy="590.33" r="3.87"/><circle class="cls-11" cx="89.36" cy="255.84" r="3.87"/><circle class="cls-11" cx="571.84" cy="598.07" r="3.87"/><circle class="cls-11" cx="305.1" cy="467.43" r="3.87"/><circle class="cls-11" cx="263.24" cy="193.76" r="3.87"/><circle class="cls-11" cx="175.71" cy="356.97" r="3.87"/><circle class="cls-11" cx="419.68" cy="86.89" r="3.87"/><circle class="cls-11" cx="561.65" cy="746.78" r="3.87"/><circle class="cls-11" cx="415.81" cy="299.66" r="3.87"/><circle class="cls-11" cx="652.46" cy="106.07" r="3.87"/><circle class="cls-11" cx="634.6" cy="67.47" r="3.87"/><circle class="cls-11" cx="798.11" cy="251.97" r="3.87"/><circle class="cls-11" cx="931.53" cy="339.1" r="3.87"/><circle class="cls-11" cx="761.89" cy="485.21" r="3.87"/><circle class="cls-11" cx="903.62" cy="654.13" r="3.87"/><circle class="cls-18" cx="738.85" cy="109.94" r="29.83"/><circle class="cls-3" cx="578.9" cy="458.29" r="29.83"/><circle class="cls-5" cx="387.82" cy="601.93" r="29.83"/><circle class="cls-2" cx="77.24" cy="544.32" r="18.44"/><circle class="cls-6" cx="555.85" cy="177.77" r="18.44"/><circle class="cls-7" cx="875.72" cy="510.38" r="18.44"/><circle class="cls-8" cx="567.97" cy="862.73" r="18.44"/><circle class="cls-4" cx="219.23" cy="823.7" r="29.83"/><circle class="cls-9" cx="798.11" cy="613.37" r="29.83"/><circle class="cls-1" cx="175.71" cy="251.97" r="37.83"/></g><path d="M857.01,999.98c-22.69-8.28-42.69-16-58.16-22.63-96.29-41.27-290.08-137.72-290.08-137.72,26.1,55.06,59.53,111.19,99.68,160.35"/><path class="cls-11" d="M999.95,253.07c-141.94-19.06-258.77,27.8-309.65,52.27-69.04,33.21-155.72,65.49-266.33,51.67-110.61-13.83-207.37-3.84-255.42,24.01-47.73,27.66-77.86,80.04-32.02,155,45.84,74.95,115.7,136.8,248.87,227.04,133.17,90.23,253.23,142.63,379.85,197.2,29.92,12.89,63.77,26.36,99.33,39.72h135.36s0-746.9,0-746.9Z"/><path class="cls-17" d="M999.95,324.27c-48.28-7.67-95.16-6.25-143.08,1.8-97.88,16.46-181.9,72.76-233.01,123-51.11,50.24-38.11,59.77-74.49,73.63-36.38,13.86-97.84,20.69-97.88,64.97-.04,40.44,25.12,64.1,74.49,104.81,49.37,40.71,162.85,114.34,341.29,187.97,46.94,19.37,91.77,34.24,132.68,45.09V324.27Z"/><path d="M999.94,906.53c-38.02-12.06-80.26-27.74-127.09-47.92-338.15-145.68-322.2-248.82-322.2-248.82,45.72-126.54,119.1-178.64,210.54-230.75,48.5-27.63,139.77-48.09,238.75-31.86V906.53Z"/><path class="cls-15" d="M999.94,174.5c-22.09-2.56-44.4-3.85-66.89-3.85-117.85,0-215.44,35.04-276.54,64.43-48.57,23.36-107.97,47.24-180.34,47.24-13.99,0-28.3-.9-42.52-2.68-35.97-4.5-71.31-6.78-105.03-6.78-58.82,0-141.12,7.06-199.16,40.7-45.56,26.41-77.01,66.04-88.56,111.59-8.5,33.53-10.35,87.04,29.12,151.56,50.89,83.21,124.52,151.21,271.65,250.9,113.95,77.21,218.65,127.87,319.36,172.37h-24.28c-94.89-42.55-193.62-91.7-300.62-164.2-148.42-100.57-222.82-169.39-274.53-253.92-41.26-67.46-39.23-123.77-30.27-159.14,12.21-48.15,45.3-89.95,93.18-117.7,59.94-34.74,144.08-42.03,204.11-42.03,34.13,0,69.87,2.31,106.25,6.85,13.81,1.73,27.71,2.6,41.29,2.6,70.39,0,128.5-23.39,176.06-46.26,62.03-29.84,161.11-65.4,280.82-65.4,22.49,0,44.8,1.28,66.89,3.79v9.94Z"/><path class="cls-14" d="M999.94,307.94c-22.05-3.34-44.38-5.03-66.94-5.03-92.93,0-170.5,27.93-219.21,51.36-58.38,28.08-138.15,60.31-237.67,60.31-19.46,0-39.28-1.24-58.92-3.7-30.55-3.82-60.37-5.75-88.62-5.75-57.6,0-108.5,8.76-132.84,22.87-10.24,5.94-23.18,15.9-26.67,29.66-3.28,12.94,1.34,29.77,13.74,50.04,40,65.4,103.16,122.43,233.01,210.42,131.51,89.11,253.2,141.56,370.88,192.29,61.06,26.32,138.69,54.99,213.25,80.14l-.05,9.47h-39.26c-64.9-22.51-129.73-46.91-182.53-69.67-118.61-51.12-241.26-103.99-374.47-194.25-132.69-89.91-197.56-148.74-239.35-217.07-15.56-25.45-21.04-47.89-16.27-66.71,5.35-21.08,22.98-35.08,36.83-43.11,27.87-16.15,81.6-25.8,143.73-25.8,29.15,0,59.87,1.99,91.31,5.92,18.75,2.34,37.67,3.53,56.23,3.53,95.13,0,171.96-31.08,228.26-58.17,50.75-24.41,131.6-53.5,228.62-53.5,22.55,0,44.88,1.61,66.94,4.79v21.95Z"/><path class="cls-10" d="M999.99,285.99c-22.06-3.18-44.39-4.8-66.94-4.8-97.02,0-177.88,29.1-228.62,53.5-56.3,27.08-133.13,58.17-228.26,58.17-18.56,0-37.47-1.19-56.23-3.53-31.44-3.93-62.16-5.92-91.32-5.92-63.05,0-115.44,9.4-143.73,25.8-13.85,8.03-31.49,22.02-36.83,43.11-4.77,18.82,.7,41.26,16.27,66.71,41.79,68.33,106.66,127.16,239.35,217.07,133.21,90.26,255.86,143.13,374.47,194.25,52.9,22.8,117.55,47.12,182.58,69.68h-64.74c-45.59-16.65-88.81-33.51-126.44-49.73-119.54-51.52-243.14-104.8-378.05-196.22-135.52-91.83-202.12-152.46-245.69-223.71-18.73-30.62-25.05-58.68-18.79-83.38,7.2-28.41,29.53-46.44,46.99-56.56,31.5-18.25,87.85-28.72,154.62-28.72,30.05,0,61.68,2.05,94.01,6.09,17.86,2.23,35.88,3.37,53.53,3.37,90.74,0,164.62-29.94,218.85-56.02,52.78-25.39,136.93-55.65,238.04-55.65,22.53,0,44.84,1.52,66.9,4.56l.04,21.95Z"/><path class="cls-13" d="M999.94,264.04c-39.98-5.44-81.38-6.02-122.86-1.47-77.96,8.56-142.04,33.31-182.07,52.56-70.75,34.03-158.44,66.9-272.38,52.65-106.34-13.29-201.6-4.62-248.62,22.63-17.46,10.12-39.79,28.15-46.99,56.56-6.26,24.7,.06,52.75,18.79,83.38,43.58,71.25,110.17,131.88,245.69,223.71,134.91,91.42,258.52,144.69,378.06,196.22,37.44,16.14,81.04,33.16,126.39,49.73h-61.72c-26.01-10.06-50.75-20.08-73.27-29.79-120.46-51.92-245.03-105.62-381.64-198.18-138.36-93.75-206.67-156.19-252.04-230.36-21.9-35.8-29.07-69.46-21.32-100.04,7.17-28.29,26.93-52.5,57.15-70.01,50.92-29.51,151.39-39.24,262.21-25.39,108.35,13.55,192.38-18.02,260.28-50.68,41.56-19.99,108.1-45.68,189.11-54.58,42.26-4.64,84.46-4.18,125.23,1.12v21.93Z"/><path class="cls-12" d="M999.94,218.28c-21.89-2.72-44.59-4.2-66.89-4.2-109.67,0-200.68,32.7-257.72,60.14-52.98,25.48-118.07,51.53-199.17,51.53-15.78,0-31.9-1.01-47.9-3.01-34.19-4.27-67.71-6.44-99.64-6.44-53.5,0-127.69,6.05-177.38,34.85-35.87,20.79-59.46,50.07-68.24,84.69-9.38,37-1.28,76.78,24.07,118.23,47.32,77.36,117.5,141.76,258.96,237.61,138.47,93.82,264.08,147.97,385.55,200.33,6.16,2.66,12.49,5.33,18.96,8.03h-45.2c-116.28-50.21-236.73-103.84-369.28-193.65-143.78-97.42-215.37-163.3-264.15-243.05-27.94-45.69-36.74-90.05-26.14-131.86,9.98-39.36,36.45-72.45,76.55-95.69,53.11-30.78,130.62-37.24,186.29-37.24,32.66,0,66.93,2.21,101.84,6.58,15.27,1.91,30.65,2.88,45.7,2.88,77.53,0,140.29-25.16,191.47-49.78,58.7-28.24,152.4-61.89,265.42-61.89,22.3,0,45,1.44,66.89,4.07v17.9Z"/></g></svg>