<?xml version="1.0" encoding="UTF-8"?>
<svg id="BlackDwarf" xmlns="http://www.w3.org/2000/svg" viewBox="0 0 843.61 849.29">
    <defs>
        <style>
            .cls-black-dwarf-1{fill:url(#black_dwarf_Unbenannter_Verlauf_89); opacity:.9;}
            .cls-black-dwarf-2{fill:url(#black_dwarf_Unbenannter_Verlauf_60);}
            .cls-black-dwarf-3{fill:url(#black_dwarf_Unbenannter_Verlauf_65);}
            .cls-black-dwarf-4{fill:url(#black_dwarf_Unbenannter_Verlauf_32);}
            .cls-black-dwarf-5,
            .cls-black-dwarf-6{opacity:.5;}
            .cls-black-dwarf-5,
            .cls-black-dwarf-7{fill:#3b2e87;}
            .cls-black-dwarf-6,
            .cls-black-dwarf-8{fill:#584b9a;}
            .cls-black-dwarf-8{opacity:.25;}
            .cls-black-dwarf-7{opacity:.35;}
        </style>
        <radialGradient id="black_dwarf_Unbenannter_Verlauf_32" cx="421.8" cy="427.48" fx="421.8" fy="427.48" r="421.8" gradientTransform="matrix(1, 0, 0, 1, 0, 0)" gradientUnits="userSpaceOnUse">
            <stop offset=".76" stop-color="#3b2e87"/>
            <stop offset="1" stop-color="#584b9a" stop-opacity="0"/>
        </radialGradient>
        <radialGradient id="black_dwarf_Unbenannter_Verlauf_60" cx="360.62" cy="341" fx="360.62" fy="341" r="341" gradientTransform="matrix(1, 0, 0, 1, 0, 0)" gradientUnits="userSpaceOnUse">
            <stop offset=".9" stop-color="#3b2e87"/>
            <stop offset="1" stop-color="#3b2e87" stop-opacity="0"/>
        </radialGradient>
        <radialGradient id="black_dwarf_Unbenannter_Verlauf_65" cx="502.61" cy="472.53" fx="502.61" fy="472.53" r="341" gradientTransform="matrix(1, 0, 0, 1, 0, 0)" gradientUnits="userSpaceOnUse">
            <stop offset=".9" stop-color="#3b2e87"/>
            <stop offset="1" stop-color="#3b2e87" stop-opacity="0"/>
        </radialGradient>
        <linearGradient id="black_dwarf_Unbenannter_Verlauf_89" x1="330.66" y1="296.15" x2="645.28" y2="732.51" gradientTransform="matrix(1, 0, 0, 1, 0, 0)" gradientUnits="userSpaceOnUse">
            <stop offset="0" stop-color="#3b2e87" stop-opacity="0"/>
            <stop offset=".81" stop-color="#3b2e87" stop-opacity=".8"/>
            <stop offset="1" stop-color="#584b9a" stop-opacity=".9"/>
        </linearGradient>
    </defs>
    <g id="black_dwarf">
        <g>
            <g class="black-dwarf-shine-purple">
                <circle class="black-dwarf-shine-purple-main cls-black-dwarf-4" cx="421.8" cy="427.48" r="421.8"/>
                <circle class="black-dwarf-shine-purple-left cls-black-dwarf-2" cx="360.62" cy="341" r="341"/>
                <circle class="black-dwarf-shine-purple-right cls-black-dwarf-3" cx="502.61" cy="472.53" r="341"/>
            </g>
            <g class="black-dwarf-main-body">
                <circle class="cls-black-dwarf-6" cx="421.8" cy="428.56" r="357.42"/>
                <circle class="cls-black-dwarf-6" cx="421.8" cy="428.56" r="338.18"/>
                <circle cx="421.8" cy="428.56" r="321.73"/>
            </g>
            <g class="black-dwarf-highlights">
                <path class="cls-black-dwarf-1" d="M637.4,189.74c68.99,62.35,110.54,153.97,105.77,254.11-8.44,177.49-159.17,314.53-336.66,306.09-77.65-3.69-147.56-34.62-200.93-83.11,0,0,168.99,72.14,251.62-60.78,57.77-92.93-19.29-149.17,24.28-210.46,25.95-36.51,152.37-48.24,149.86-142-1.48-55.24,6.06-63.85,6.06-63.85Z"/>
                <path class="cls-black-dwarf-8" d="M688.62,248.74c37.46,55.49,57.98,123.09,54.56,195.11-7.75,162.94-135.41,291.78-293.6,305.29,0,0,46.29-13.91,66.24-61.04,22.33-52.74-6.02-120.82,95.44-149.02,90.36-25.12,105.49-116.48,102.14-176.29s-24.77-114.04-24.77-114.04Z"/>
                <circle class="cls-black-dwarf-5" cx="313.43" cy="283.97" r="78.82"/>
                <circle class="cls-black-dwarf-7" cx="208.55" cy="395.59" r="32.05"/>
                <circle class="cls-black-dwarf-7" cx="659.38" cy="480.92" r="39.41"/>
            </g>
        </g>
    </g>
</svg>