<?xml version="1.0" encoding="UTF-8"?>
<svg id="BlackHole" xmlns="http://www.w3.org/2000/svg" viewBox="0 0 872.72 495.38">
    <defs>
        <style>
            .cls-black-hole-1{fill:#fff;}
            .cls-black-hole-2{fill:#fdeaa6;}
            .cls-black-hole-3{fill:#f8cd2c;}
            .cls-black-hole-4{fill:#ee7016;}
            .cls-black-hole-5{fill:#e83945;}
            .cls-black-hole-6{fill:#911d7e;}
        </style>
    </defs>
    <g id="black_hole">
        <g>
            <g>
                <g class="black-hole-main-body-bottom">
                    <path d="M653.12,318.87c-29.43,62.1-77.28,126.89-140.15,149.42-87.94,31.51-193.46-16.49-193.46-16.49,0,0,137.9-42.26,186.67-63.17,48.77-20.9,146.94-69.76,146.94-69.76Z"/>
                </g>
                <g class="black-hole-light-orbits">
                    <path class="cls-black-hole-1" d="M318.62,49.34s-52.34,27.65-85.89,74.09c-33.54,46.44-42.98,99.2-58.24,122.38-24.56,37.32-58.15,54.51-91.29,81.68-52.21,42.79-62.12,70.33-63.59,89.5-1.47,19.17,10.39,50.72,80.8,57.36s159.24-9.58,209-21.75c49.76-12.16,149.65-44.97,213.79-72.62,64.14-27.65,124.96-54.19,192.41-99.89,67.45-45.71,102.84-77.04,126.06-115.01s7.96-64.5-16.22-78.51c-24.34-14.11-73.35-19.17-129.38-12.16-56.03,7-99.94-9.35-134.91-26.17-35.49-17.07-134.36-55.66-242.54,1.11Z"/>
                    <path class="cls-black-hole-2" d="M135.45,459.38c-11.9,0-23.16-.49-33.49-1.47-42.86-4.04-67.49-18.87-65.89-39.67,.62-8.13,2.52-32.87,57.6-78,8.86-7.27,17.99-13.96,26.82-20.43,23.82-17.47,48.43-35.51,67.8-64.93,6.96-10.58,12.37-25.01,18.62-41.72,8.93-23.85,20.04-53.52,39.21-80.07,30.68-42.48,79.74-68.9,80.23-69.17,35.32-18.53,72.95-27.92,111.86-27.92,49.15,0,90.1,14.74,115.81,27.1,28.52,13.72,67.43,29.46,115.62,29.46,9.4,0,18.98-.6,28.48-1.79,15.93-1.99,31.49-3,46.25-3,31.47,0,58.69,4.88,72.81,13.07,7.02,4.07,15.95,11.16,18.66,21.84,2.42,9.53-.36,20.9-8.24,33.79-21.17,34.61-54.03,64.41-121.24,109.96-67.47,45.72-129.6,72.5-189.68,98.4-63.55,27.39-162.3,59.79-211.18,71.74-21.9,5.35-98.87,22.82-170.04,22.82ZM438.21,47c-37.12,0-73.02,8.97-106.72,26.65-.44,.23-47.38,25.63-76.45,65.88-18.31,25.35-29.13,54.26-37.83,77.48-6.49,17.33-12.09,32.3-19.73,43.91-20.45,31.07-45.87,49.71-70.46,67.74-8.73,6.4-17.74,13.01-26.38,20.09-22.21,18.2-37.79,34.74-46.3,49.17-6.52,11.04-7.03,17.63-7.3,21.17-1.03,13.42,21.46,24.62,55.96,27.87,9.99,.94,20.91,1.42,32.46,1.42,69.94,0,145.84-17.22,167.43-22.5,48.46-11.84,146.39-43.98,209.44-71.16,59.62-25.7,121.26-52.27,187.87-97.4,65.78-44.57,97.76-73.46,118.03-106.59,6.28-10.27,8.62-18.8,6.96-25.35-1.77-6.97-8.32-12.01-13.51-15.02-12.33-7.14-38.11-11.58-67.29-11.58-14.31,0-29.42,.98-44.89,2.92-9.95,1.24-19.99,1.87-29.85,1.87-50.41,0-90.82-16.33-120.39-30.55-24.68-11.87-63.97-26.01-111.04-26.01Z"/>
                    <path class="cls-black-hole-3" d="M135.45,470.38c-12.23,0-23.85-.51-34.52-1.52-29.48-2.78-51.64-10.55-64.06-22.47-10.77-10.34-12.35-21.47-11.77-28.99,1.24-16.12,8.97-42.54,61.59-85.67,9.11-7.47,18.36-14.25,27.3-20.81,24.08-17.65,46.82-34.33,65.1-62.1,6.28-9.55,11.48-23.44,17.51-39.53,9.16-24.47,20.56-54.9,40.6-82.65,32.24-44.64,83.48-72.17,83.99-72.45,36.94-19.38,76.3-29.2,117.02-29.2,51.21,0,93.84,15.33,120.58,28.19,27.47,13.21,64.89,28.38,110.86,28.38,8.95,0,18.07-.57,27.12-1.71,16.38-2.05,32.4-3.08,47.62-3.08,33.82,0,62.37,5.3,78.32,14.55,8.85,5.13,20.15,14.26,23.8,28.65,3.17,12.51-.03,26.72-9.52,42.23-22.08,36.09-55.81,66.81-124.46,113.32-68.34,46.31-130.95,73.3-191.51,99.4-64.04,27.61-163.61,60.27-212.92,72.32-22.2,5.43-100.25,23.13-172.66,23.13ZM438.21,36c-38.92,0-76.56,9.4-111.88,27.93-.47,.25-49.56,26.72-80.21,69.16-19.18,26.55-30.28,56.22-39.21,80.06-6.26,16.72-11.66,31.15-18.62,41.73-19.37,29.42-42.88,46.67-67.78,64.92-8.83,6.47-17.95,13.16-26.84,20.44-49.36,40.46-56.52,63.89-57.6,78-.4,5.15,.74,12.84,8.42,20.21,10.62,10.19,30.49,16.92,57.48,19.46,10.33,.97,21.6,1.47,33.49,1.47,71.18,0,148.15-17.46,170.04-22.82,48.88-11.95,147.63-44.35,211.18-71.74,60.08-25.9,122.21-52.67,189.69-98.4,67.21-45.54,100.07-75.34,121.24-109.96,7.88-12.89,10.66-24.26,8.24-33.79-2.71-10.68-11.64-17.77-18.66-21.84-14.33-8.3-40.87-13.07-72.81-13.07-14.77,0-30.33,1.01-46.25,3-9.5,1.19-19.08,1.79-28.48,1.79-48.19,0-87.11-15.75-115.62-29.46-25.71-12.36-66.67-27.1-115.81-27.1Z"/>
                    <path class="cls-black-hole-4" d="M135.52,481.39c-12.09,0-24.05-.48-35.62-1.57-32.44-3.06-56.21-11.63-70.64-25.49-14.61-14.02-15.74-29.68-15.12-37.77,1.39-18.13,9.71-47.54,65.59-93.33,9.33-7.64,18.71-14.52,27.77-21.17,23.26-17.05,45.22-33.16,62.41-59.28,5.6-8.51,10.6-21.87,16.39-37.34,9.39-25.08,21.07-56.29,41.98-85.24,33.91-46.95,85.59-74.58,87.78-75.73h.01c47.58-24.97,98.61-34.68,151.69-28.85,41.03,4.5,74.74,17.52,95.8,27.65,34.4,16.55,76.97,32.53,131.84,25.67,56.13-7.02,107.03-2.09,132.82,12.86,15.31,8.87,25.32,21.14,28.95,35.46,3.93,15.49,.29,32.54-10.8,50.68-22.98,37.57-57.58,69.2-127.67,116.69-69.2,46.89-132.3,74.09-193.32,100.39-64.54,27.82-164.93,60.75-214.66,72.91-24.8,6.06-102.37,23.45-175.2,23.45ZM321.19,54.21c-.85,.45-51.74,27.79-83.99,72.44-20.04,27.75-31.44,58.19-40.6,82.65-6.02,16.09-11.22,29.98-17.51,39.53-18.28,27.77-41.02,44.45-65.1,62.1-8.95,6.56-18.21,13.35-27.3,20.81-52.62,43.13-60.36,69.55-61.6,85.67-.47,6.16,.43,18.11,11.77,28.99,12.6,12.09,34.16,19.65,64.06,22.47,11.26,1.06,22.92,1.53,34.71,1.53,71.49,0,148.01-17.16,172.47-23.14,49.31-12.05,148.88-44.72,212.92-72.32,60.55-26.1,123.17-53.09,191.5-99.39,68.65-46.52,102.38-77.23,124.46-113.32,9.49-15.51,12.69-29.72,9.52-42.23-3.65-14.39-14.96-23.52-23.8-28.65-23.82-13.8-72.07-18.2-125.94-11.47-57.72,7.22-102.14-9.43-137.98-26.67-20.28-9.75-52.74-22.29-92.23-26.62-50.86-5.59-99.77,3.72-145.37,27.64Z"/>
                    <path class="cls-black-hole-5" d="M135.45,490.38c-12.86,0-25.1-.54-36.4-1.6C7.38,480.14,4.01,430.79,5.15,415.87c1.52-19.78,10.31-51.62,68.86-99.6,9.5-7.79,18.96-14.73,28.12-21.44,22.62-16.59,43.96-32.23,60.26-57,5.05-7.67,9.88-20.59,15.48-35.54,9.58-25.58,21.5-57.42,43.11-87.35,35.11-48.62,88.61-77.23,90.87-78.42,39.86-20.92,82.37-31.52,126.35-31.52,54.99,0,100.63,16.4,129.25,30.17,27.14,13.05,60.51,26.4,102.19,26.4,8.12,0,16.41-.52,24.64-1.55,17.2-2.15,34.05-3.24,50.1-3.24,37.79,0,69.16,6.12,88.35,17.25,17.45,10.12,28.92,24.31,33.16,41.04,4.54,17.93,.56,37.3-11.84,57.58-23.72,38.79-59.04,71.16-130.3,119.44-69.9,47.37-133.4,74.74-194.81,101.21-64.95,27.99-166.01,61.14-216.09,73.38-29.15,7.13-104.8,23.7-177.4,23.7ZM438.21,14c-42.51,0-83.61,10.25-122.16,30.48-2.17,1.15-53.87,28.8-87.76,75.73-20.91,28.95-32.59,60.16-41.98,85.24-5.79,15.46-10.79,28.82-16.39,37.33-17.19,26.12-39.16,42.22-62.41,59.28-9.1,6.67-18.46,13.54-27.77,21.17C23.84,369.02,15.52,398.43,14.13,416.56c-.99,12.85,2.27,55.39,85.76,63.26,11.02,1.04,22.98,1.56,35.55,1.56,71.62,0,146.43-16.4,175.27-23.45,49.73-12.16,150.12-45.09,214.66-72.91,61.02-26.3,124.12-53.5,193.32-100.39,70.08-47.49,104.69-79.11,127.67-116.69,11.09-18.14,14.72-35.19,10.8-50.68-3.63-14.33-13.64-26.59-28.95-35.46-17.84-10.34-47.61-16.03-83.84-16.03-15.68,0-32.16,1.07-48.98,3.17-8.6,1.08-17.26,1.62-25.75,1.62-43.49,0-78.03-13.79-106.09-27.29-27.77-13.36-72.06-29.28-125.35-29.28Z"/>
                    <path class="cls-black-hole-6" d="M135.45,495.38c-13.01,0-25.41-.55-36.87-1.63-35.66-3.36-62.25-13.23-79.02-29.32C.8,446.43-.64,426.04,.17,415.49c2.56-33.34,24.36-65.13,70.67-103.09,9.62-7.89,19.15-14.87,28.37-21.63,23.18-16.99,43.19-31.67,59-55.68,4.74-7.2,9.48-19.87,14.98-34.55,9.68-25.87,21.73-58.05,43.74-88.53,35.78-49.54,90.28-78.7,92.59-79.92C350.11,10.8,393.4,0,438.21,0c55.93,0,102.33,16.67,131.41,30.66,26.63,12.81,59.34,25.91,100.02,25.91,7.92,0,16-.51,24.02-1.51,17.4-2.17,34.46-3.28,50.72-3.28,38.65,0,70.92,6.36,90.86,17.92,18.64,10.81,30.92,26.07,35.5,44.14,4.89,19.28,.71,39.95-12.42,61.42-24.13,39.46-59.84,72.24-131.76,120.97-70.29,47.63-134.01,75.09-195.63,101.65-65.18,28.09-166.61,61.36-216.89,73.65-29.33,7.17-105.45,23.85-178.59,23.85ZM438.21,5c-43.98,0-86.5,10.6-126.36,31.52-2.25,1.19-55.76,29.81-90.86,78.42-21.62,29.93-33.54,61.77-43.11,87.35-5.6,14.96-10.44,27.88-15.48,35.55-16.3,24.77-36.65,39.69-60.22,56.97-9.16,6.72-18.64,13.66-28.16,21.47C28.84,353.29,7.6,384.01,5.15,415.87c-.74,9.67,.59,28.38,17.86,44.95,15.94,15.3,41.52,24.7,76.03,27.95,11.3,1.06,23.54,1.6,36.4,1.6,72.6,0,148.25-16.58,177.41-23.7,50.08-12.24,151.14-45.39,216.09-73.38,61.41-26.47,124.91-53.84,194.81-101.2,71.26-48.29,106.58-80.66,130.3-119.44,12.4-20.28,16.39-39.65,11.84-57.58-4.24-16.73-15.71-30.92-33.16-41.04-19.19-11.12-50.56-17.25-88.35-17.25-16.05,0-32.91,1.09-50.1,3.24-8.23,1.03-16.51,1.55-24.64,1.55-41.68,0-75.05-13.35-102.19-26.4-28.61-13.76-74.26-30.17-129.25-30.17Z"/>
                    <path class="cls-black-hole-2" d="M249.6,184.51s18.77-67.86,74.49-98.14c55.72-30.28,103.11-35.98,152.7-27.64,49.58,8.34,92.14,36.86,118.03,62.31,25.89,25.45,19.31,30.28,37.73,37.3s49.56,10.48,49.58,32.91c.02,20.48-12.72,32.47-37.73,53.09-25.01,20.62-82.49,57.92-172.88,95.22-90.39,37.3-165.42,41.68-174.2,26.33s-49.08-151.44-47.73-181.37Z"/>
                </g>
                <g class="black-hole-main-body-top">
                    <path d="M247.32,357.58s-54.4-112.58,26.93-212.23,204.68-86.18,251.01-59.79c46.32,26.39,83.49,52.79,106.65,116.89,0,0,8.08,52.25-163.21,126.04-171.29,73.79-221.38,29.09-221.38,29.09Z"/>
                </g>
            </g>
        </g>
    </g>
</svg>