<?xml version="1.0" encoding="UTF-8"?>
<svg id="MainSequenceStar" xmlns="http://www.w3.org/2000/svg" xmlns:xlink="http://www.w3.org/1999/xlink" viewBox="0 0 843.61 843.61">
    <defs>
        <style>
            .cls-main-sequence-star-1{fill:url(#main_sequence_star_Unbenannter_Verlauf_81-7);}
            .cls-main-sequence-star-2{fill:url(#main_sequence_star_Unbenannter_Verlauf_81-4);}
            .cls-main-sequence-star-3{fill:url(#main_sequence_star_Unbenannter_Verlauf_81-2);}
            .cls-main-sequence-star-4{fill:url(#main_sequence_star_Unbenannter_Verlauf_81-6);}
            .cls-main-sequence-star-5{fill:url(#main_sequence_star_Unbenannter_Verlauf_81-5);}
            .cls-main-sequence-star-6{fill:url(#main_sequence_star_Unbenannter_Verlauf_81-3);}
            .cls-main-sequence-star-7{fill:#fff;}
            .cls-main-sequence-star-8{fill:#ffec7c;}
            .cls-main-sequence-star-9{opacity:.75;}
            .cls-main-sequence-star-10{fill:url(#main_sequence_star_Unbenannter_Verlauf_86);}
            .cls-main-sequence-star-11{fill:url(#main_sequence_star_Unbenannter_Verlauf_81);}
            .cls-main-sequence-star-12{fill:url(#main_sequence_star_Unbenannter_Verlauf_16);}
            .cls-main-sequence-star-13{fill:url(#main_sequence_star_Unbenannter_Verlauf_24);}
            .cls-main-sequence-star-14{fill:url(#main_sequence_star_Unbenannter_Verlauf_26);}
            .cls-main-sequence-star-15{fill:url(#main_sequence_star_Unbenannter_Verlauf_20);}
        </style>
        <radialGradient id="main_sequence_star_Unbenannter_Verlauf_81" cx="299.73" cy="607.31" fx="299.73" fy="607.31" r="208.79" gradientTransform="matrix(1, 0, 0, 1, 0, 0)" gradientUnits="userSpaceOnUse">
            <stop offset=".81" stop-color="#ffe045" stop-opacity="0"/>
            <stop offset=".9" stop-color="#ffe045" stop-opacity=".3"/>
            <stop offset="1" stop-color="#ffe045" stop-opacity="0"/>
        </radialGradient>
        <radialGradient id="main_sequence_star_Unbenannter_Verlauf_81-2" cx="201.4" cy="222.99" fx="201.4" fy="222.99" r="152.39" xlink:href="#main_sequence_star_Unbenannter_Verlauf_81"/>
        <radialGradient id="main_sequence_star_Unbenannter_Verlauf_81-3" cx="599.78" cy="572.55" fx="599.78" fy="572.55" r="152.39" xlink:href="#main_sequence_star_Unbenannter_Verlauf_81"/>
        <radialGradient id="main_sequence_star_Unbenannter_Verlauf_81-4" cx="391.85" cy="108.38" fx="391.85" fy="108.38" r="82.76" xlink:href="#main_sequence_star_Unbenannter_Verlauf_81"/>
        <radialGradient id="main_sequence_star_Unbenannter_Verlauf_81-5" cx="759.98" cy="382.57" fx="759.98" fy="382.57" r="44.65" xlink:href="#main_sequence_star_Unbenannter_Verlauf_81"/>
        <radialGradient id="main_sequence_star_Unbenannter_Verlauf_81-6" cx="672.09" cy="293.9" fx="672.09" fy="293.9" r="135.38" xlink:href="#main_sequence_star_Unbenannter_Verlauf_81"/>
        <radialGradient id="main_sequence_star_Unbenannter_Verlauf_81-7" cx="417.81" cy="723.57" fx="417.81" fy="723.57" r="82.76" xlink:href="#main_sequence_star_Unbenannter_Verlauf_81"/>
        <radialGradient id="main_sequence_star_Unbenannter_Verlauf_86" cx="421.8" cy="421.8" fx="421.8" fy="421.8" r="421.8" gradientTransform="matrix(1, 0, 0, 1, 0, 0)" gradientUnits="userSpaceOnUse">
            <stop offset=".76" stop-color="#f9f0af"/>
            <stop offset="1" stop-color="#fff" stop-opacity="0"/>
        </radialGradient>
        <radialGradient id="main_sequence_star_Unbenannter_Verlauf_26" cx="421.8" cy="421.8" fx="421.8" fy="421.8" r="348.15" gradientTransform="matrix(1, 0, 0, 1, 0, 0)" gradientUnits="userSpaceOnUse">
            <stop offset=".93" stop-color="#f9f0af" stop-opacity=".9"/>
            <stop offset="1" stop-color="#fff" stop-opacity=".4"/>
        </radialGradient>
        <radialGradient id="main_sequence_star_Unbenannter_Verlauf_16" cx="471.54" cy="203.36" fx="471.54" fy="203.36" r="321.73" gradientTransform="translate(-39.54 197.35) rotate(2.72)" gradientUnits="userSpaceOnUse">
            <stop offset=".88" stop-color="#f9f0af"/>
            <stop offset="1" stop-color="#fff" stop-opacity=".8"/>
        </radialGradient>
        <radialGradient id="main_sequence_star_Unbenannter_Verlauf_20" cx="383.45" cy="391.53" fx="383.45" fy="391.53" r="283.15" gradientTransform="matrix(1, 0, 0, 1, 0, 0)" gradientUnits="userSpaceOnUse">
            <stop offset="0" stop-color="#ffec7c"/>
            <stop offset="1" stop-color="#ffec7c" stop-opacity="0"/>
        </radialGradient>
        <radialGradient id="main_sequence_star_Unbenannter_Verlauf_24" cx="357.33" cy="354.52" fx="357.33" fy="354.52" r="161.83" gradientTransform="matrix(1, 0, 0, 1, 0, 0)" gradientUnits="userSpaceOnUse">
            <stop offset="0" stop-color="#ffe045"/>
            <stop offset="1" stop-color="#ffe045" stop-opacity="0"/>
        </radialGradient>
    </defs>
    <g id="main_sequence_star">
        <g class="main-sequence-star-shine-circles">
            <path class="cls-main-sequence-star-11" d="M299.73,816.1c-115.13,0-208.79-93.66-208.79-208.79s93.66-208.79,208.79-208.79,208.79,93.66,208.79,208.79-93.66,208.79-208.79,208.79Zm0-377.58c-93.07,0-168.79,75.72-168.79,168.79s75.72,168.79,168.79,168.79,168.79-75.72,168.79-168.79-75.72-168.79-168.79-168.79Z"/>
            <path class="cls-main-sequence-star-3" d="M201.4,375.39c-84.03,0-152.39-68.36-152.39-152.39S117.37,70.6,201.4,70.6s152.39,68.36,152.39,152.39-68.36,152.39-152.39,152.39Zm0-275.59c-67.93,0-123.2,55.27-123.2,123.2s55.27,123.2,123.2,123.2,123.2-55.27,123.2-123.2-55.27-123.2-123.2-123.2Z"/>
            <path class="cls-main-sequence-star-6" d="M599.78,724.94c-84.03,0-152.39-68.36-152.39-152.39s68.36-152.39,152.39-152.39,152.39,68.36,152.39,152.39-68.36,152.39-152.39,152.39Zm0-275.59c-67.93,0-123.2,55.27-123.2,123.2s55.27,123.2,123.2,123.2,123.2-55.27,123.2-123.2-55.27-123.2-123.2-123.2Z"/>
            <path class="cls-main-sequence-star-2" d="M391.85,191.14c-45.64,0-82.76-37.13-82.76-82.76s37.13-82.76,82.76-82.76,82.76,37.13,82.76,82.76-37.13,82.76-82.76,82.76Zm0-149.67c-36.89,0-66.91,30.01-66.91,66.91s30.01,66.91,66.91,66.91,66.91-30.01,66.91-66.91-30.01-66.91-66.91-66.91Z"/>
            <path class="cls-main-sequence-star-5" d="M759.98,427.22c-24.62,0-44.65-20.03-44.65-44.65s20.03-44.65,44.65-44.65,44.65,20.03,44.65,44.65-20.03,44.65-44.65,44.65Zm0-80.75c-19.9,0-36.1,16.19-36.1,36.1s16.19,36.1,36.1,36.1,36.1-16.19,36.1-36.1-16.19-36.1-36.1-36.1Z"/>
            <path class="cls-main-sequence-star-4" d="M672.09,429.28c-74.65,0-135.38-60.73-135.38-135.38s60.73-135.38,135.38-135.38,135.38,60.73,135.38,135.38-60.73,135.38-135.38,135.38Zm0-244.82c-60.35,0-109.44,49.1-109.44,109.44s49.1,109.44,109.44,109.44,109.44-49.1,109.44-109.44-49.1-109.44-109.44-109.44Z"/>
            <path class="cls-main-sequence-star-1" d="M417.81,806.33c-45.64,0-82.76-37.13-82.76-82.76s37.13-82.76,82.76-82.76,82.76,37.13,82.76,82.76-37.13,82.76-82.76,82.76Zm0-149.67c-36.89,0-66.91,30.01-66.91,66.91s30.01,66.91,66.91,66.91,66.91-30.01,66.91-66.91-30.01-66.91-66.91-66.91Z"/>
        </g>
        <g class="main-sequence-star-shine-base">
            <circle class="cls-main-sequence-star-10" cx="421.8" cy="421.8" r="421.8"/>
            <path class="cls-main-sequence-star-14" d="M443.49,76.89h0c21.85-6.66,45.56-2.91,64.28,10.18h0c12.11,8.47,26.47,13.13,41.24,13.4h0c22.84,.42,44.23,11.31,57.99,29.55h0c8.9,11.79,21.12,20.67,35.08,25.49h0c21.6,7.46,38.57,24.43,46.02,46.02h0c4.82,13.97,13.7,26.18,25.49,35.08h0c18.23,13.76,29.13,35.15,29.55,57.99h0c.27,14.77,4.94,29.13,13.4,41.24h0c13.09,18.73,16.84,42.43,10.18,64.28h0c-4.31,14.13-4.31,29.23,0,43.36h0c6.66,21.85,2.91,45.56-10.18,64.28h0c-8.47,12.11-13.13,26.47-13.4,41.24h0c-.42,22.84-11.31,44.23-29.55,57.99h0c-11.79,8.9-20.67,21.12-25.49,35.08h0c-7.46,21.6-24.43,38.57-46.02,46.02h0c-13.97,4.82-26.18,13.7-35.08,25.49h0c-13.76,18.23-35.15,29.13-57.99,29.55h0c-14.77,.27-29.13,4.94-41.24,13.4h0c-18.73,13.09-42.43,16.84-64.28,10.18h0c-14.13-4.31-29.23-4.31-43.36,0h0c-21.85,6.66-45.56,2.91-64.28-10.18h0c-12.11-8.47-26.47-13.13-41.24-13.4h0c-22.84-.42-44.23-11.31-57.99-29.55h0c-8.9-11.79-21.12-20.67-35.08-25.49h0c-21.6-7.46-38.57-24.43-46.02-46.02h0c-4.82-13.97-13.7-26.18-25.49-35.08h0c-18.23-13.76-29.13-35.15-29.55-57.99h0c-.27-14.77-4.94-29.13-13.4-41.24h0c-13.09-18.73-16.84-42.43-10.18-64.28h0c4.31-14.13,4.31-29.23,0-43.36h0c-6.66-21.85-2.91-45.56,10.18-64.28h0c8.47-12.11,13.13-26.47,13.4-41.24h0c.42-22.84,11.31-44.23,29.55-57.99h0c11.79-8.9,20.67-21.12,25.49-35.08h0c7.46-21.6,24.43-38.57,46.02-46.02h0c13.97-4.82,26.18-13.7,35.08-25.49h0c13.76-18.23,35.15-29.13,57.99-29.55h0c14.77-.27,29.13-4.94,41.24-13.4h0c18.73-13.09,42.43-16.84,64.28-10.18h0c14.13,4.31,29.23,4.31,43.36,0Z"/>
        </g>
        <g class="main-sequence-star-main-body">
            <circle class="cls-main-sequence-star-8" cx="421.8" cy="422.88" r="338.18"/>
            <circle class="cls-main-sequence-star-12" cx="421.8" cy="422.88" r="321.73"/>
            <circle class="cls-main-sequence-star-13" cx="357.33" cy="354.52" r="161.83"/>
            <circle class="cls-main-sequence-star-15" cx="383.45" cy="391.53" r="283.15"/>
        </g>
        <g class="main-sequence-star-sparkles">
            <circle class="cls-main-sequence-star-7" cx="288.45" cy="334.64" r="5.86"/>
            <circle class="cls-main-sequence-star-7" cx="321.11" cy="289.54" r="5.86"/>
            <circle class="cls-main-sequence-star-7" cx="315.25" cy="265.54" r="5.86"/>
            <circle class="cls-main-sequence-star-7" cx="315.25" cy="334.64" r="7.15"/>
            <circle class="cls-main-sequence-star-7" cx="181.71" cy="386.35" r="5.86"/>
            <circle class="cls-main-sequence-star-7" cx="169.99" cy="342.09" r="5.86"/>
            <circle class="cls-main-sequence-star-7" cx="207.27" cy="406.59" r="8.38"/>
            <circle class="cls-main-sequence-star-7" cx="335.3" cy="689.74" r="7.15"/>
            <circle class="cls-main-sequence-star-7" cx="113.48" cy="437.95" r="5.86"/>
            <circle class="cls-main-sequence-star-7" cx="315.25" cy="655.29" r="8.38"/>
            <circle class="cls-main-sequence-star-7" cx="208.55" cy="592.67" r="7.15"/>
            <circle class="cls-main-sequence-star-7" cx="139.43" cy="465.24" r="5.86"/>
            <circle class="cls-main-sequence-star-7" cx="170.35" cy="514.81" r="7.15"/>
            <circle class="cls-main-sequence-star-7" cx="235.75" cy="423.71" r="5.86"/>
            <circle class="cls-main-sequence-star-7" cx="201.4" cy="525.25" r="7.15"/>
            <circle class="cls-main-sequence-star-7" cx="213.13" cy="446.32" r="5.86"/>
            <circle class="cls-main-sequence-star-7" cx="322.4" cy="437.95" r="8.38"/>
            <circle class="cls-main-sequence-star-7" cx="306.87" cy="465.24" r="7.15"/>
            <circle class="cls-main-sequence-star-7" cx="352.05" cy="244.22" r="5.86"/>
            <circle class="cls-main-sequence-star-7" cx="275.45" cy="386.35" r="7.15"/>
            <circle class="cls-main-sequence-star-7" cx="464.66" cy="128.06" r="5.86"/>
            <circle class="cls-main-sequence-star-7" cx="491.45" cy="151.5" r="8.38"/>
            <circle class="cls-main-sequence-star-7" cx="357.91" cy="179.77" r="5.86"/>
            <circle class="cls-main-sequence-star-7" cx="383.48" cy="200.01" r="8.38"/>
            <circle class="cls-main-sequence-star-7" cx="397.71" cy="287.12" r="8.38"/>
            <circle class="cls-main-sequence-star-7" cx="382.19" cy="309.73" r="7.15"/>
            <circle class="cls-main-sequence-star-7" cx="411.95" cy="217.13" r="5.86"/>
            <circle class="cls-main-sequence-star-7" cx="389.34" cy="239.74" r="5.86"/>
            <circle class="cls-main-sequence-star-7" cx="483.08" cy="258.66" r="7.15"/>
            <circle class="cls-main-sequence-star-7" cx="519.88" cy="251.51" r="8.38"/>
            <circle class="cls-main-sequence-star-7" cx="451.65" cy="179.77" r="7.15"/>
            <circle class="cls-main-sequence-star-7" cx="310.28" cy="170.44" r="7.15"/>
            <circle class="cls-main-sequence-star-7" cx="264.67" cy="289.54" r="8.38"/>
            <circle class="cls-main-sequence-star-7" cx="266.98" cy="257.93" r="5.86"/>
            <circle class="cls-main-sequence-star-7" cx="224.57" cy="211.82" r="8.38"/>
            <circle class="cls-main-sequence-star-7" cx="241.7" cy="190.39" r="7.15"/>
            <circle class="cls-main-sequence-star-7" cx="229.47" cy="259.67" r="5.86"/>
            <circle class="cls-main-sequence-star-7" cx="131.06" cy="374.43" r="7.15"/>
            <circle class="cls-main-sequence-star-7" cx="160.82" cy="281.83" r="5.86"/>
            <circle class="cls-main-sequence-star-7" cx="138.2" cy="304.44" r="5.86"/>
            <circle class="cls-main-sequence-star-7" cx="478.45" cy="606.02" r="5.86"/>
            <circle class="cls-main-sequence-star-7" cx="511.11" cy="560.92" r="5.86"/>
            <circle class="cls-main-sequence-star-7" cx="505.25" cy="536.92" r="5.86"/>
            <circle class="cls-main-sequence-star-7" cx="505.25" cy="606.02" r="7.15"/>
            <circle class="cls-main-sequence-star-7" cx="395.26" cy="625.19" r="5.86"/>
            <circle class="cls-main-sequence-star-7" cx="397.27" cy="677.98" r="8.38"/>
            <circle class="cls-main-sequence-star-7" cx="425.74" cy="695.09" r="5.86"/>
            <circle class="cls-main-sequence-star-7" cx="403.13" cy="717.71" r="5.86"/>
            <circle class="cls-main-sequence-star-7" cx="512.39" cy="709.33" r="8.38"/>
            <circle class="cls-main-sequence-star-7" cx="465.44" cy="657.73" r="7.15"/>
            <circle class="cls-main-sequence-star-7" cx="377.56" cy="600.16" r="7.15"/>
            <circle class="cls-main-sequence-star-7" cx="587.71" cy="558.5" r="8.38"/>
            <circle class="cls-main-sequence-star-7" cx="572.19" cy="581.12" r="7.15"/>
            <circle class="cls-main-sequence-star-7" cx="281.55" cy="526.91" r="5.86"/>
            <circle class="cls-main-sequence-star-7" cx="358.15" cy="524.48" r="8.38"/>
            <circle class="cls-main-sequence-star-7" cx="454.67" cy="560.92" r="8.38"/>
            <circle class="cls-main-sequence-star-7" cx="395.26" cy="551.96" r="5.86"/>
            <circle class="cls-main-sequence-star-7" cx="319.79" cy="625.09" r="5.86"/>
            <circle class="cls-main-sequence-star-7" cx="242.4" cy="639.92" r="5.86"/>
            <circle class="cls-main-sequence-star-7" cx="259.98" cy="626.61" r="7.15"/>
            <circle class="cls-main-sequence-star-7" cx="277.68" cy="578.41" r="5.86"/>
            <circle class="cls-main-sequence-star-7" cx="332.9" cy="485.63" r="5.86"/>
            <circle class="cls-main-sequence-star-7" cx="228.61" cy="506.29" r="5.86"/>
            <circle class="cls-main-sequence-star-7" cx="431.07" cy="346.05" r="5.86"/>
            <circle class="cls-main-sequence-star-7" cx="407.35" cy="339.12" r="5.86"/>
            <circle class="cls-main-sequence-star-7" cx="428.8" cy="478.51" r="5.86"/>
            <circle class="cls-main-sequence-star-7" cx="467.27" cy="278.5" r="8.38"/>
            <circle class="cls-main-sequence-star-7" cx="479.1" cy="303.25" r="7.15"/>
            <circle class="cls-main-sequence-star-7" cx="402.85" cy="394.93" r="8.38"/>
            <circle class="cls-main-sequence-star-7" cx="365.38" cy="441.89" r="5.86"/>
            <circle class="cls-main-sequence-star-7" cx="657.58" cy="615.02" r="5.86"/>
            <circle class="cls-main-sequence-star-7" cx="678.25" cy="529.68" r="8.38"/>
            <circle class="cls-main-sequence-star-7" cx="704.31" cy="547.2" r="7.15"/>
            <circle class="cls-main-sequence-star-7" cx="623.29" cy="572.64" r="7.15"/>
            <circle class="cls-main-sequence-star-7" cx="621.66" cy="471.05" r="5.86"/>
            <circle class="cls-main-sequence-star-7" cx="685.4" cy="487.11" r="5.86"/>
            <circle class="cls-main-sequence-star-7" cx="653.63" cy="490.74" r="5.86"/>
            <circle class="cls-main-sequence-star-7" cx="522.55" cy="274.45" r="5.86"/>
            <circle class="cls-main-sequence-star-7" cx="583.69" cy="288.16" r="8.38"/>
            <circle class="cls-main-sequence-star-7" cx="581.82" cy="315.53" r="7.15"/>
            <circle class="cls-main-sequence-star-7" cx="642.72" cy="220.25" r="7.15"/>
            <circle class="cls-main-sequence-star-7" cx="687.8" cy="354.15" r="5.86"/>
            <circle class="cls-main-sequence-star-7" cx="642.38" cy="321.95" r="5.86"/>
            <circle class="cls-main-sequence-star-7" cx="618.43" cy="328.05" r="5.86"/>
            <circle class="cls-main-sequence-star-7" cx="687.53" cy="327.36" r="7.15"/>
            <circle class="cls-main-sequence-star-7" cx="639.19" cy="245.37" r="8.38"/>
            <circle class="cls-main-sequence-star-7" cx="661.96" cy="260.67" r="7.15"/>
            <circle class="cls-main-sequence-star-7" cx="642.94" cy="378.38" r="8.38"/>
            <circle class="cls-main-sequence-star-7" cx="611.31" cy="376.39" r="5.86"/>
            <circle class="cls-main-sequence-star-7" cx="613.42" cy="413.88" r="5.86"/>
            <circle class="cls-main-sequence-star-7" cx="589.24" cy="259.13" r="5.86"/>
            <circle class="cls-main-sequence-star-7" cx="625.36" cy="286.75" r="7.15"/>
            <circle class="cls-main-sequence-star-7" cx="552.84" cy="184.11" r="5.86"/>
            <circle class="cls-main-sequence-star-7" cx="530.65" cy="194.99" r="5.86"/>
            <circle class="cls-main-sequence-star-7" cx="598.14" cy="180.14" r="7.15"/>
            <circle class="cls-main-sequence-star-7" cx="492.18" cy="424.45" r="5.86"/>
            <circle class="cls-main-sequence-star-7" cx="462.27" cy="435.77" r="5.86"/>
            <circle class="cls-main-sequence-star-7" cx="565.32" cy="473.04" r="8.38"/>
            <circle class="cls-main-sequence-star-7" cx="539.95" cy="491.54" r="7.15"/>
            <circle class="cls-main-sequence-star-7" cx="602.89" cy="494.31" r="5.86"/>
            <circle class="cls-main-sequence-star-7" cx="586.39" cy="382.57" r="5.86"/>
            <circle class="cls-main-sequence-star-7" cx="599.78" cy="359.36" r="7.15"/>
            <circle class="cls-main-sequence-star-7" cx="535.44" cy="380.62" r="8.38"/>
            <circle class="cls-main-sequence-star-7" cx="509.22" cy="362.81" r="5.86"/>
            <circle class="cls-main-sequence-star-7" cx="491.97" cy="396.17" r="5.86"/>
        </g>
    </g>
</svg>