<?xml version="1.0" encoding="UTF-8"?>
<svg id="NeutronStar" xmlns="http://www.w3.org/2000/svg" xmlns:xlink="http://www.w3.org/1999/xlink" viewBox="0 0 891.4 902.92">
    <defs>
        <style>
            .cls-neutron-star--1{fill:#fff;}
            .cls-neutron-star--2{fill:#69c6e3;}
            .cls-neutron-star--3{fill:#b8e1ee;}
            .cls-neutron-star--4{fill:#05a7c1;}
            .cls-neutron-star--5{fill:#36bcdc;}
            .cls-neutron-star--6{opacity:.75;}
            .cls-neutron-star--7{fill:url(#neutron_star_Unbenannter_Verlauf_290);}
            .cls-neutron-star--8{fill:url(#neutron_star_Unbenannter_Verlauf_280);}
            .cls-neutron-star--9{fill:url(#neutron_star_Unbenannter_Verlauf_261);}
            .cls-neutron-star--10{fill:url(#neutron_star_Unbenannter_Verlauf_260);}
            .cls-neutron-star--11{fill:url(#neutron_star_Unbenannter_Verlauf_338);}
            .cls-neutron-star--12{fill:url(#neutron_star_Unbenannter_Verlauf_330);}
            .cls-neutron-star--13{fill:url(#neutron_star_Unbenannter_Verlauf_334);}
            .cls-neutron-star--14{fill:url(#neutron_star_Unbenannter_Verlauf_336);}
            .cls-neutron-star--15{fill:url(#neutron_star_Unbenannter_Verlauf_332);}
            .cls-neutron-star--16{fill:url(#neutron_star_Unbenannter_Verlauf_324);}
            .cls-neutron-star--17{fill:url(#neutron_star_Unbenannter_Verlauf_326);}
            .cls-neutron-star--18{fill:url(#neutron_star_Unbenannter_Verlauf_359);}
        </style>
        <linearGradient id="neutron_star_Unbenannter_Verlauf_334" x1="206.58" y1="582.9" x2="35.4" y2="645.2" gradientTransform="matrix(1, 0, 0, 1, 0, 0)" gradientUnits="userSpaceOnUse">
            <stop offset="0" stop-color="#fff" stop-opacity=".9"/>
            <stop offset="1" stop-color="#fff" stop-opacity="0"/>
        </linearGradient>
        <linearGradient id="neutron_star_Unbenannter_Verlauf_330" x1="191.23" y1="290.3" x2="9.23" y2="258.21" gradientTransform="matrix(1, 0, 0, 1, 0, 0)" gradientUnits="userSpaceOnUse">
            <stop offset="0" stop-color="#fff" stop-opacity=".7"/>
            <stop offset=".94" stop-color="#fff" stop-opacity="0"/>
        </linearGradient>
        <linearGradient id="neutron_star_Unbenannter_Verlauf_324" x1="604.62" y1="205.59" x2="835.97" y2="72.01" gradientTransform="matrix(1, 0, 0, 1, 0, 0)" gradientUnits="userSpaceOnUse">
            <stop offset="0" stop-color="#fff" stop-opacity=".7"/>
            <stop offset=".95" stop-color="#fff" stop-opacity="0"/>
        </linearGradient>
        <linearGradient id="neutron_star_Unbenannter_Verlauf_326" x1="684.18" y1="567.31" x2="817.88" y2="798.88" gradientTransform="matrix(1, 0, 0, 1, 0, 0)" gradientUnits="userSpaceOnUse">
            <stop offset="0" stop-color="#fff" stop-opacity=".7"/>
            <stop offset=".95" stop-color="#fff" stop-opacity="0"/>
        </linearGradient>
        <linearGradient id="neutron_star_Unbenannter_Verlauf_338" x1="719.32" y1="276.05" x2="867.11" y2="172.57" gradientTransform="matrix(1, 0, 0, 1, 0, 0)" gradientUnits="userSpaceOnUse">
            <stop offset="0" stop-color="#fff"/>
            <stop offset="1" stop-color="#fff" stop-opacity="0"/>
        </linearGradient>
        <linearGradient id="neutron_star_Unbenannter_Verlauf_332" x1="219.16" y1="205.69" x2="61.49" y2="114.66" gradientTransform="matrix(1, 0, 0, 1, 0, 0)" gradientUnits="userSpaceOnUse">
            <stop offset="0" stop-color="#fff" stop-opacity=".9"/>
            <stop offset=".95" stop-color="#fff" stop-opacity="0"/>
        </linearGradient>
        <linearGradient id="neutron_star_Unbenannter_Verlauf_336" x1="1949.88" y1="5623.75" x2="1972.35" y2="5751.18" gradientTransform="translate(-2237.96 -7928.96) rotate(7.55) scale(1.05 1.46) skewX(17.57)" gradientUnits="userSpaceOnUse">
            <stop offset="0" stop-color="#fff" stop-opacity=".5"/>
            <stop offset=".9" stop-color="#fff" stop-opacity="0"/>
        </linearGradient>
        <radialGradient id="neutron_star_Unbenannter_Verlauf_290" cx="469.59" cy="421.8" fx="469.59" fy="421.8" r="421.8" gradientTransform="matrix(1, 0, 0, 1, 0, 0)" gradientUnits="userSpaceOnUse">
            <stop offset=".69" stop-color="#b8e1ee"/>
            <stop offset="1" stop-color="#fff" stop-opacity="0"/>
        </radialGradient>
        <radialGradient id="neutron_star_Unbenannter_Verlauf_359" cx="469.59" cy="421.8" fx="469.59" fy="421.8" r="348.15" gradientTransform="matrix(1, 0, 0, 1, 0, 0)" gradientUnits="userSpaceOnUse">
            <stop offset=".93" stop-color="#b8e1ee" stop-opacity=".9"/>
            <stop offset="1" stop-color="#fff" stop-opacity=".4"/>
        </radialGradient>
        <radialGradient id="neutron_star_Unbenannter_Verlauf_280" cx="418.24" cy="425.71" fx="418.24" fy="425.71" r="321.73" gradientTransform="translate(72.05 -22.22) rotate(2.72)" gradientUnits="userSpaceOnUse">
            <stop offset=".88" stop-color="#b8e1ee"/>
            <stop offset="1" stop-color="#fff" stop-opacity=".8"/>
        </radialGradient>
        <radialGradient id="neutron_star_Unbenannter_Verlauf_261" cx="431.23" cy="391.53" fx="431.23" fy="391.53" r="283.15" gradientTransform="matrix(1, 0, 0, 1, 0, 0)" gradientUnits="userSpaceOnUse">
            <stop offset="0" stop-color="#69c6e3"/>
            <stop offset="1" stop-color="#69c6e3" stop-opacity="0"/>
        </radialGradient>
        <radialGradient id="neutron_star_Unbenannter_Verlauf_260" cx="405.11" cy="354.52" fx="405.11" fy="354.52" r="161.83" gradientTransform="matrix(1, 0, 0, 1, 0, 0)" gradientUnits="userSpaceOnUse">
            <stop offset="0" stop-color="#36bcdc"/>
            <stop offset="1" stop-color="#36bcdc" stop-opacity="0"/>
        </radialGradient>
    </defs>
    <g id="neutron_star">
        <g class="neutron-star-shine-outward">
            <polygon class="cls-neutron-star--13" points="187.57 544.94 209.45 590.78 63.37 691.91 17.11 594.97 187.57 544.94"/>
            <polygon class="cls-neutron-star--12" points="191.3 289.89 175.51 338.16 0 310.57 33.4 208.49 191.3 289.89"/>
            <polygon class="cls-neutron-star--16" points="660.08 266.93 621.18 234.27 763.76 20.35 846.02 89.41 660.08 266.93"/>
            <polygon class="cls-neutron-star--17" points="624.72 620.18 658.42 582.18 868.39 730.52 797.12 810.87 624.72 620.18"/>
            <polygon class="cls-neutron-star--11" points="717.07 272.84 701.88 243.94 848.65 146.21 880.77 207.32 717.07 272.84"/>
            <polygon class="cls-neutron-star--15" points="213.8 214.96 192.08 239.34 49.02 136.25 94.96 84.7 213.8 214.96"/>
            <polygon class="cls-neutron-star--14" points="534.09 714.46 565.52 705.59 634.86 884.17 568.41 902.92 534.09 714.46"/>
        </g>
        <g class="neutron-star-shine-base">
            <path class="cls-neutron-star--18" d="M491.27,76.89h0c21.85-6.66,45.56-2.91,64.28,10.18h0c12.11,8.47,26.47,13.13,41.24,13.4h0c22.84,.42,44.23,11.31,57.99,29.55h0c8.9,11.79,21.12,20.67,35.08,25.49h0c21.6,7.46,38.57,24.43,46.02,46.02h0c4.82,13.97,13.7,26.18,25.49,35.08h0c18.23,13.76,29.13,35.15,29.55,57.99h0c.27,14.77,4.94,29.13,13.4,41.24h0c13.09,18.73,16.84,42.43,10.18,64.28h0c-4.31,14.13-4.31,29.23,0,43.36h0c6.66,21.85,2.91,45.56-10.18,64.28h0c-8.47,12.11-13.13,26.47-13.4,41.24h0c-.42,22.84-11.31,44.23-29.55,57.99h0c-11.79,8.9-20.67,21.12-25.49,35.08h0c-7.46,21.6-24.43,38.57-46.02,46.02h0c-13.97,4.82-26.18,13.7-35.08,25.49h0c-13.76,18.23-35.15,29.13-57.99,29.55h0c-14.77,.27-29.13,4.94-41.24,13.4h0c-18.73,13.09-42.43,16.84-64.28,10.18h0c-14.13-4.31-29.23-4.31-43.36,0h0c-21.85,6.66-45.56,2.91-64.28-10.18h0c-12.11-8.47-26.47-13.13-41.24-13.4h0c-22.84-.42-44.23-11.31-57.99-29.55h0c-8.9-11.79-21.12-20.67-35.08-25.49h0c-21.6-7.46-38.57-24.43-46.02-46.02h0c-4.82-13.97-13.7-26.18-25.49-35.08h0c-18.23-13.76-29.13-35.15-29.55-57.99h0c-.27-14.77-4.94-29.13-13.4-41.24h0c-13.09-18.73-16.84-42.43-10.18-64.28h0c4.31-14.13,4.31-29.23,0-43.36h0c-6.66-21.85-2.91-45.56,10.18-64.28h0c8.47-12.11,13.13-26.47,13.4-41.24h0c.42-22.84,11.31-44.23,29.55-57.99h0c11.79-8.9,20.67-21.12,25.49-35.08h0c7.46-21.6,24.43-38.57,46.02-46.02h0c13.97-4.82,26.18-13.7,35.08-25.49h0c13.76-18.23,35.15-29.13,57.99-29.55h0c14.77-.27,29.13-4.94,41.24-13.4h0c18.73-13.09,42.43-16.84,64.28-10.18h0c14.13,4.31,29.23,4.31,43.36,0Z"/>
            <circle class="cls-neutron-star--7" cx="469.59" cy="421.8" r="421.8"/>
        </g>
        <g class="neutron-star-main-body">
            <circle class="cls-neutron-star--2" cx="469.59" cy="422.88" r="338.18"/>
            <circle class="cls-neutron-star--8" cx="469.59" cy="422.88" r="321.73"/>
            <circle class="cls-neutron-star--9" cx="431.23" cy="391.53" r="283.15"/>
            <circle class="cls-neutron-star--10" cx="405.11" cy="354.52" r="161.83"/>
        </g>
        <g class="neutron-star-sparkles cls-neutron-star--6">
            <circle class="cls-neutron-star--1" cx="336.24" cy="334.64" r="5.86"/>
            <circle class="cls-neutron-star--1" cx="368.9" cy="289.54" r="5.86"/>
            <circle class="cls-neutron-star--1" cx="363.04" cy="265.54" r="5.86"/>
            <circle class="cls-neutron-star--1" cx="363.04" cy="334.64" r="7.15"/>
            <circle class="cls-neutron-star--1" cx="229.49" cy="386.35" r="5.86"/>
            <circle class="cls-neutron-star--1" cx="217.77" cy="342.09" r="5.86"/>
            <circle class="cls-neutron-star--1" cx="255.06" cy="406.59" r="8.38"/>
            <circle class="cls-neutron-star--1" cx="383.09" cy="689.74" r="7.15"/>
            <circle class="cls-neutron-star--1" cx="161.27" cy="437.95" r="5.86"/>
            <circle class="cls-neutron-star--1" cx="363.04" cy="655.29" r="8.38"/>
            <circle class="cls-neutron-star--1" cx="256.33" cy="592.67" r="7.15"/>
            <circle class="cls-neutron-star--1" cx="187.22" cy="465.24" r="5.86"/>
            <circle class="cls-neutron-star--1" cx="218.14" cy="514.81" r="7.15"/>
            <circle class="cls-neutron-star--1" cx="283.53" cy="423.71" r="5.86"/>
            <circle class="cls-neutron-star--1" cx="249.19" cy="525.25" r="7.15"/>
            <circle class="cls-neutron-star--1" cx="260.92" cy="446.32" r="5.86"/>
            <circle class="cls-neutron-star--1" cx="370.18" cy="437.95" r="8.38"/>
            <circle class="cls-neutron-star--1" cx="354.66" cy="465.24" r="7.15"/>
            <circle class="cls-neutron-star--1" cx="399.84" cy="244.22" r="5.86"/>
            <circle class="cls-neutron-star--1" cx="323.23" cy="386.35" r="7.15"/>
            <circle class="cls-neutron-star--1" cx="512.45" cy="128.06" r="5.86"/>
            <circle class="cls-neutron-star--1" cx="539.24" cy="151.5" r="8.38"/>
            <circle class="cls-neutron-star--1" cx="405.7" cy="179.77" r="5.86"/>
            <circle class="cls-neutron-star--1" cx="431.26" cy="200.01" r="8.38"/>
            <circle class="cls-neutron-star--1" cx="445.5" cy="287.12" r="8.38"/>
            <circle class="cls-neutron-star--1" cx="429.98" cy="309.73" r="7.15"/>
            <circle class="cls-neutron-star--1" cx="459.74" cy="217.13" r="5.86"/>
            <circle class="cls-neutron-star--1" cx="437.13" cy="239.74" r="5.86"/>
            <circle class="cls-neutron-star--1" cx="530.86" cy="258.66" r="7.15"/>
            <circle class="cls-neutron-star--1" cx="567.67" cy="251.51" r="8.38"/>
            <circle class="cls-neutron-star--1" cx="499.44" cy="179.77" r="7.15"/>
            <circle class="cls-neutron-star--1" cx="358.07" cy="170.44" r="7.15"/>
            <circle class="cls-neutron-star--1" cx="312.46" cy="289.54" r="8.38"/>
            <circle class="cls-neutron-star--1" cx="314.77" cy="257.93" r="5.86"/>
            <circle class="cls-neutron-star--1" cx="272.36" cy="211.82" r="8.38"/>
            <circle class="cls-neutron-star--1" cx="289.49" cy="190.39" r="7.15"/>
            <circle class="cls-neutron-star--1" cx="277.25" cy="259.67" r="5.86"/>
            <circle class="cls-neutron-star--1" cx="178.84" cy="374.43" r="7.15"/>
            <circle class="cls-neutron-star--1" cx="208.6" cy="281.83" r="5.86"/>
            <circle class="cls-neutron-star--1" cx="185.99" cy="304.44" r="5.86"/>
            <circle class="cls-neutron-star--1" cx="526.24" cy="606.02" r="5.86"/>
            <circle class="cls-neutron-star--1" cx="558.89" cy="560.92" r="5.86"/>
            <circle class="cls-neutron-star--1" cx="553.03" cy="536.92" r="5.86"/>
            <circle class="cls-neutron-star--1" cx="553.03" cy="606.02" r="7.15"/>
            <circle class="cls-neutron-star--1" cx="443.05" cy="625.19" r="5.86"/>
            <circle class="cls-neutron-star--1" cx="445.06" cy="677.98" r="8.38"/>
            <circle class="cls-neutron-star--1" cx="473.53" cy="695.09" r="5.86"/>
            <circle class="cls-neutron-star--1" cx="450.92" cy="717.71" r="5.86"/>
            <circle class="cls-neutron-star--1" cx="560.18" cy="709.33" r="8.38"/>
            <circle class="cls-neutron-star--1" cx="513.23" cy="657.73" r="7.15"/>
            <circle class="cls-neutron-star--1" cx="425.35" cy="600.16" r="7.15"/>
            <circle class="cls-neutron-star--1" cx="635.5" cy="558.5" r="8.38"/>
            <circle class="cls-neutron-star--1" cx="619.97" cy="581.12" r="7.15"/>
            <circle class="cls-neutron-star--1" cx="329.34" cy="526.91" r="5.86"/>
            <circle class="cls-neutron-star--1" cx="405.94" cy="524.48" r="8.38"/>
            <circle class="cls-neutron-star--1" cx="502.45" cy="560.92" r="8.38"/>
            <circle class="cls-neutron-star--1" cx="443.05" cy="551.96" r="5.86"/>
            <circle class="cls-neutron-star--1" cx="367.58" cy="625.09" r="5.86"/>
            <circle class="cls-neutron-star--1" cx="290.18" cy="639.92" r="5.86"/>
            <circle class="cls-neutron-star--1" cx="307.76" cy="626.61" r="7.15"/>
            <circle class="cls-neutron-star--1" cx="325.46" cy="578.41" r="5.86"/>
            <circle class="cls-neutron-star--1" cx="380.68" cy="485.63" r="5.86"/>
            <circle class="cls-neutron-star--1" cx="276.4" cy="506.29" r="5.86"/>
            <circle class="cls-neutron-star--1" cx="478.85" cy="346.05" r="5.86"/>
            <circle class="cls-neutron-star--1" cx="455.14" cy="339.12" r="5.86"/>
            <circle class="cls-neutron-star--1" cx="476.59" cy="478.51" r="5.86"/>
            <circle class="cls-neutron-star--1" cx="515.06" cy="278.5" r="8.38"/>
            <circle class="cls-neutron-star--1" cx="526.88" cy="303.25" r="7.15"/>
            <circle class="cls-neutron-star--1" cx="450.63" cy="394.93" r="8.38"/>
            <circle class="cls-neutron-star--1" cx="413.17" cy="441.89" r="5.86"/>
            <circle class="cls-neutron-star--1" cx="705.36" cy="615.02" r="5.86"/>
            <circle class="cls-neutron-star--1" cx="726.04" cy="529.68" r="8.38"/>
            <circle class="cls-neutron-star--1" cx="752.1" cy="547.2" r="7.15"/>
            <circle class="cls-neutron-star--1" cx="671.08" cy="572.64" r="7.15"/>
            <circle class="cls-neutron-star--1" cx="669.44" cy="471.05" r="5.86"/>
            <circle class="cls-neutron-star--1" cx="733.19" cy="487.11" r="5.86"/>
            <circle class="cls-neutron-star--1" cx="701.42" cy="490.74" r="5.86"/>
            <circle class="cls-neutron-star--1" cx="570.34" cy="274.45" r="5.86"/>
            <circle class="cls-neutron-star--1" cx="631.47" cy="288.16" r="8.38"/>
            <circle class="cls-neutron-star--1" cx="629.61" cy="315.53" r="7.15"/>
            <circle class="cls-neutron-star--1" cx="690.5" cy="220.25" r="7.15"/>
            <circle class="cls-neutron-star--1" cx="735.58" cy="354.15" r="5.86"/>
            <circle class="cls-neutron-star--1" cx="690.16" cy="321.95" r="5.86"/>
            <circle class="cls-neutron-star--1" cx="666.22" cy="328.05" r="5.86"/>
            <circle class="cls-neutron-star--1" cx="735.32" cy="327.36" r="7.15"/>
            <circle class="cls-neutron-star--1" cx="686.98" cy="245.37" r="8.38"/>
            <circle class="cls-neutron-star--1" cx="709.75" cy="260.67" r="7.15"/>
            <circle class="cls-neutron-star--1" cx="690.72" cy="378.38" r="8.38"/>
            <circle class="cls-neutron-star--1" cx="659.1" cy="376.39" r="5.86"/>
            <circle class="cls-neutron-star--1" cx="661.21" cy="413.88" r="5.86"/>
            <circle class="cls-neutron-star--1" cx="637.03" cy="259.13" r="5.86"/>
            <circle class="cls-neutron-star--1" cx="673.15" cy="286.75" r="7.15"/>
            <circle class="cls-neutron-star--1" cx="600.62" cy="184.11" r="5.86"/>
            <circle class="cls-neutron-star--1" cx="578.44" cy="194.99" r="5.86"/>
            <circle class="cls-neutron-star--1" cx="645.92" cy="180.14" r="7.15"/>
            <circle class="cls-neutron-star--1" cx="539.97" cy="424.45" r="5.86"/>
            <circle class="cls-neutron-star--1" cx="510.06" cy="435.77" r="5.86"/>
            <circle class="cls-neutron-star--1" cx="613.11" cy="473.04" r="8.38"/>
            <circle class="cls-neutron-star--1" cx="587.74" cy="491.54" r="7.15"/>
            <circle class="cls-neutron-star--1" cx="650.67" cy="494.31" r="5.86"/>
            <circle class="cls-neutron-star--1" cx="634.17" cy="382.57" r="5.86"/>
            <circle class="cls-neutron-star--1" cx="647.57" cy="359.36" r="7.15"/>
            <circle class="cls-neutron-star--1" cx="583.23" cy="380.62" r="8.38"/>
            <circle class="cls-neutron-star--1" cx="557.01" cy="362.81" r="5.86"/>
            <circle class="cls-neutron-star--1" cx="539.76" cy="396.17" r="5.86"/>
        </g>
        <g class="neutron-star-specks">
            <path class="cls-neutron-star--2" d="M463.45,690.88c-14.32,0-25.96-11.65-25.96-25.96s11.65-25.97,25.96-25.97,25.96,11.65,25.96,25.97-11.65,25.96-25.96,25.96Zm0-38.93c-7.15,0-12.96,5.82-12.96,12.97s5.82,12.96,12.96,12.96,12.96-5.82,12.96-12.96-5.82-12.97-12.96-12.97Z"/>
            <path class="cls-neutron-star--2" d="M714.14,308.32c-14.32,0-25.96-11.65-25.96-25.96s11.65-25.97,25.96-25.97,25.96,11.65,25.96,25.97-11.65,25.96-25.96,25.96Zm0-38.93c-7.15,0-12.96,5.82-12.96,12.97s5.82,12.96,12.96,12.96,12.96-5.82,12.96-12.96-5.82-12.97-12.96-12.97Z"/>
            <path class="cls-neutron-star--1" d="M358.13,524.06c-14.32,0-25.97-11.65-25.97-25.96s11.65-25.97,25.97-25.97,25.96,11.65,25.96,25.97-11.65,25.96-25.96,25.96Zm0-38.93c-7.15,0-12.97,5.82-12.97,12.97s5.82,12.96,12.97,12.96,12.96-5.82,12.96-12.96-5.82-12.97-12.96-12.97Z"/>
            <path class="cls-neutron-star--4" d="M746.56,511.04c-10.73,0-19.46-8.73-19.46-19.46s8.73-19.46,19.46-19.46,19.45,8.73,19.45,19.46-8.73,19.46-19.45,19.46Zm0-25.91c-3.56,0-6.46,2.9-6.46,6.46s2.9,6.46,6.46,6.46,6.45-2.9,6.45-6.46-2.9-6.46-6.45-6.46Z"/>
            <path class="cls-neutron-star--4" d="M271.88,498.08c-10.73,0-19.45-8.73-19.45-19.46s8.73-19.45,19.45-19.45,19.46,8.73,19.46,19.45-8.73,19.46-19.46,19.46Zm0-25.91c-3.56,0-6.45,2.9-6.45,6.45s2.9,6.46,6.45,6.46,6.46-2.9,6.46-6.46-2.9-6.45-6.46-6.45Z"/>
            <path class="cls-neutron-star--1" d="M420.22,462.15c-16.69,0-30.26-13.58-30.26-30.26s13.58-30.26,30.26-30.26,30.26,13.58,30.26,30.26-13.58,30.26-30.26,30.26Zm0-47.53c-9.52,0-17.26,7.74-17.26,17.26s7.74,17.26,17.26,17.26,17.26-7.74,17.26-17.26-7.74-17.26-17.26-17.26Z"/>
            <path class="cls-neutron-star--1" d="M492.58,468.21c-8.83,0-16.01-7.18-16.01-16.01s7.18-16.01,16.01-16.01,16.01,7.18,16.01,16.01-7.18,16.01-16.01,16.01Zm0-19.02c-1.66,0-3.01,1.35-3.01,3.01s1.35,3.01,3.01,3.01,3.01-1.35,3.01-3.01-1.35-3.01-3.01-3.01Z"/>
            <path class="cls-neutron-star--1" d="M593.99,298.36c-8.83,0-16.01-7.18-16.01-16.01s7.18-16.01,16.01-16.01,16.01,7.18,16.01,16.01-7.18,16.01-16.01,16.01Zm0-19.02c-1.66,0-3.01,1.35-3.01,3.01s1.35,3.01,3.01,3.01,3.01-1.35,3.01-3.01-1.35-3.01-3.01-3.01Z"/>
            <path class="cls-neutron-star--1" d="M448.96,254.91c-11.57,0-20.99-9.42-20.99-20.99s9.42-20.99,20.99-20.99,20.99,9.42,20.99,20.99-9.42,20.99-20.99,20.99Zm0-28.98c-4.41,0-7.99,3.58-7.99,7.99s3.58,7.99,7.99,7.99,7.99-3.58,7.99-7.99-3.58-7.99-7.99-7.99Z"/>
            <path class="cls-neutron-star--3" d="M491.93,296.84c-7.14,0-14.97-2.09-22.43-6.4-8.08-4.67-14.48-11.31-18-18.7-3.86-8.09-3.89-16.51-.09-23.1,7.61-13.19,27.49-15.49,45.24-5.23,17.76,10.25,25.7,28.61,18.09,41.8h0c-4.41,7.65-12.95,11.63-22.81,11.63Zm-17.77-46.74c-5.23,0-9.56,1.69-11.49,5.04-2.23,3.87-.61,8.55,.56,11,2.37,4.97,7.03,9.72,12.77,13.04,10.87,6.27,23.71,6.05,27.48-.48h0c3.77-6.53-2.46-17.76-13.33-24.04-5.29-3.05-11.04-4.57-15.99-4.57Z"/>
            <path class="cls-neutron-star--4" d="M452.84,758.87c-7.14,0-14.97-2.09-22.43-6.4-17.76-10.25-25.7-28.61-18.09-41.8,3.8-6.59,11.11-10.77,20.05-11.47,8.17-.64,17.11,1.58,25.19,6.24,17.76,10.25,25.7,28.61,18.09,41.8h0c-4.42,7.65-12.95,11.63-22.81,11.63Zm-17.71-46.78c-.59,0-1.18,.02-1.75,.07-2.7,.21-7.57,1.15-9.81,5.01-3.77,6.53,2.46,17.76,13.33,24.04,10.87,6.28,23.71,6.05,27.49-.48,3.77-6.53-2.46-17.76-13.33-24.04-5.14-2.97-10.85-4.61-15.93-4.61Z"/>
            <path class="cls-neutron-star--5" d="M632.24,342.84c-7.38,0-15.23-2.21-22.4-6.35-8.08-4.67-14.47-11.31-18-18.7-3.86-8.09-3.89-16.51-.09-23.1,3.8-6.59,11.11-10.77,20.05-11.48,8.15-.64,17.11,1.58,25.19,6.24,8.08,4.67,14.47,11.31,18,18.7,3.86,8.09,3.89,16.51,.09,23.1-3.8,6.59-11.11,10.77-20.05,11.47-.92,.07-1.86,.11-2.8,.11Zm-17.67-46.73c-.59,0-1.17,.02-1.75,.07-2.7,.21-7.57,1.15-9.81,5.02-2.23,3.87-.61,8.55,.56,11,2.37,4.97,7.03,9.72,12.77,13.04,5.74,3.32,12.18,4.97,17.68,4.54,2.7-.21,7.57-1.15,9.81-5.01h0c2.23-3.87,.61-8.55-.56-11-2.37-4.97-7.03-9.72-12.77-13.04-5.14-2.97-10.85-4.61-15.93-4.61Z"/>
            <path class="cls-neutron-star--1" d="M648.18,277.47c-8.18,0-17.17-2.41-25.75-7.36-20.27-11.7-29.4-32.55-20.79-47.46,8.61-14.91,31.23-17.42,51.5-5.72,20.27,11.7,29.4,32.55,20.79,47.46h0c-4.97,8.6-14.6,13.08-25.75,13.08Zm-20.86-54.85c-6.51,0-11.92,2.19-14.42,6.53-4.8,8.31,2.54,21.91,16.03,29.7,13.49,7.79,28.94,7.35,33.74-.97,4.8-8.31-2.54-21.91-16.03-29.7-6.45-3.72-13.35-5.57-19.32-5.57Z"/>
            <path class="cls-neutron-star--5" d="M269.26,578.83c-8.45,0-17.46-2.54-25.69-7.29-9.28-5.36-16.61-12.97-20.65-21.43-4.43-9.28-4.48-18.52-.14-26.03,4.33-7.51,12.37-12.09,22.62-12.89,9.35-.74,19.6,1.81,28.88,7.17,9.28,5.36,16.61,12.96,20.65,21.43,4.43,9.28,4.48,18.52,.14,26.03h0c-4.34,7.51-12.37,12.09-22.62,12.89-1.05,.08-2.12,.12-3.19,.12Zm-20.71-54.77c-.72,0-1.43,.03-2.13,.08-3.39,.27-9.5,1.46-12.38,6.43s-.85,10.87,.62,13.93c2.88,6.02,8.49,11.77,15.42,15.77,6.92,4,14.72,5.99,21.36,5.47,3.39-.27,9.5-1.46,12.38-6.43h0c2.87-4.98,.85-10.87-.62-13.93-2.88-6.02-8.49-11.77-15.42-15.77-6.2-3.58-13.08-5.55-19.23-5.55Z"/>
            <path class="cls-neutron-star--1" d="M221.97,554.5c-17.23,0-34.66-15.23-42.24-38.42-4.1-12.55-4.57-25.55-1.33-36.59,3.5-11.92,10.87-20.25,20.74-23.48,9.87-3.23,20.74-.85,30.6,6.7,9.15,6.99,16.44,17.76,20.55,30.31,8.9,27.22,.37,53.61-19.41,60.07h0c-2.93,.96-5.91,1.42-8.91,1.42Zm-14.06-86.88c-1.63,0-3.22,.25-4.73,.74-5.68,1.86-10.05,7.11-12.31,14.79-2.51,8.55-2.08,18.81,1.21,28.89,6.41,19.61,22.33,32.76,34.75,28.69,12.43-4.06,17.51-24.06,11.09-43.68-3.29-10.08-9.01-18.61-16.09-24.03-4.66-3.56-9.47-5.41-13.93-5.41Z"/>
            <path class="cls-neutron-star--1" d="M535.56,745.82c-10.22,0-19.95-2.1-28.18-6.16-11.95-5.9-19.41-15.2-20.99-26.2-1.59-11,2.93-22.03,12.72-31.07,9.13-8.42,21.93-14.19,36.05-16.23,14.12-2.04,28.03-.13,39.16,5.37,11.95,5.9,19.41,15.2,20.99,26.2,1.59,11-2.93,22.03-12.72,31.07-9.13,8.42-21.93,14.19-36.05,16.23-3.69,.53-7.37,.8-10.99,.8Zm10.38-67.44c-2.92,0-5.9,.21-8.92,.65-22.55,3.26-39.84,18.17-37.76,32.57,.96,6.63,5.89,12.46,13.88,16.4,8.8,4.34,20.01,5.82,31.55,4.16,11.54-1.67,21.87-6.25,29.09-12.91,6.55-6.05,9.63-13.03,8.67-19.66-1.8-12.47-17.65-21.2-36.51-21.2Z"/>
            <path class="cls-neutron-star--4" d="M247.84,310.49c-5.01,0-9.81-1.13-14.21-3.41h0c-9.87-5.11-16.21-15.2-17.87-28.42-1.54-12.33,1.22-26.09,7.78-38.76s16.2-22.87,27.15-28.73c11.75-6.29,23.65-6.94,33.52-1.83,9.87,5.11,16.21,15.2,17.87,28.42,1.54,12.33-1.22,26.09-7.78,38.76s-16.2,22.87-27.15,28.73c-6.51,3.49-13.08,5.24-19.31,5.24Zm22.15-91.54c-4.12,0-8.6,1.23-13.17,3.68-8.66,4.63-16.38,12.89-21.74,23.25-5.36,10.36-7.64,21.43-6.42,31.17,1.11,8.85,4.99,15.41,10.94,18.49h0c12.92,6.69,32.68-4.76,43.15-24.99,10.47-20.23,8.4-42.98-4.52-49.66-2.49-1.29-5.28-1.93-8.25-1.93Z"/>
            <path class="cls-neutron-star--5" d="M724.86,595.41c-6.32,0-11.98-2.15-16.03-6.2-5.18-5.19-7.26-13.02-5.69-21.49,1.43-7.71,5.69-15.43,12-21.74,6.31-6.31,14.03-10.57,21.73-12,8.48-1.57,16.31,.5,21.49,5.69,5.18,5.19,7.26,13.02,5.69,21.49-1.43,7.71-5.69,15.43-12,21.74-6.31,6.31-14.03,10.57-21.73,12-1.86,.34-3.68,.51-5.46,.51Zm17.56-48.95c-1.2,0-2.31,.14-3.17,.3-5.07,.94-10.51,4.01-14.91,8.41-4.41,4.4-7.47,9.84-8.41,14.92-.46,2.47-.79,7.04,2.1,9.93,2.89,2.89,7.46,2.55,9.93,2.1,5.07-.94,10.51-4.01,14.91-8.41,4.41-4.4,7.47-9.84,8.41-14.92,.46-2.47,.79-7.04-2.1-9.93-1.89-1.89-4.49-2.4-6.76-2.4Z"/>
            <path class="cls-neutron-star--5" d="M195.41,343.95c-6.32,0-11.98-2.15-16.03-6.2-10.35-10.35-7.57-29.34,6.32-43.23,13.89-13.89,32.88-16.66,43.23-6.31,10.35,10.35,7.57,29.34-6.32,43.23-6.31,6.31-14.03,10.57-21.74,12-1.86,.34-3.68,.51-5.46,.51Zm17.67-48.99c-5.83,0-13.12,3.67-18.2,8.75-7.37,7.37-11.77,19.38-6.32,24.84,2.89,2.89,7.46,2.55,9.93,2.1,5.07-.94,10.51-4.01,14.91-8.41,7.37-7.37,11.77-19.38,6.32-24.84-1.7-1.69-4.02-2.44-6.64-2.44Z"/>
            <path class="cls-neutron-star--3" d="M397.68,293.06c-10.16,0-18.63-5.01-20.95-13.25-3-10.61,5.51-21.99,19.36-25.9,6.18-1.74,12.55-1.7,17.95,.13,6.16,2.09,10.57,6.4,12.1,11.83h0c2.99,10.62-5.51,21.99-19.36,25.9-3.1,.87-6.17,1.29-9.09,1.29Zm7.46-27.42c-1.78,0-3.67,.26-5.52,.79-7.44,2.1-11.12,7.24-10.38,9.86,.74,2.62,6.56,5.08,14,2.98,7.44-2.1,11.12-7.24,10.38-9.86h0c-.5-1.77-2.8-2.72-3.76-3.05-1.41-.48-3.02-.72-4.72-.72Z"/>
        </g>
    </g>
</svg>