<?xml version="1.0" encoding="UTF-8"?>
<svg id="RedSuperGiantStar" xmlns="http://www.w3.org/2000/svg" xmlns:xlink="http://www.w3.org/1999/xlink" viewBox="0 0 891.4 902.92">
    <defs>
        <style>
            .cls-red-super-giant-star-1{fill:url(#red_super_giant_star_Unbenannter_Verlauf_139-2);}
            .cls-red-super-giant-star-2{fill:url(#red_super_giant_star_Unbenannter_Verlauf_22-2);}
            .cls-red-super-giant-star-3{fill:#ec646d;}
            .cls-red-super-giant-star-4{fill:#e95313;}
            .cls-red-super-giant-star-5{fill:#ef7925;}
            .cls-red-super-giant-star-6{fill:#fff;}
            .cls-red-super-giant-star-7{fill:#e73738;}
            .cls-red-super-giant-star-8{fill:#b81918;}
            .cls-red-super-giant-star-9{fill:#d11918;}
            .cls-red-super-giant-star-10{fill:#961914;}
            .cls-red-super-giant-star-11{opacity:.75;}
            .cls-red-super-giant-star-12{fill:url(#red_super_giant_star_Unbenannter_Verlauf_122);}
            .cls-red-super-giant-star-13{fill:url(#red_super_giant_star_Unbenannter_Verlauf_128);}
            .cls-red-super-giant-star-14{fill:url(#red_super_giant_star_Unbenannter_Verlauf_116);}
            .cls-red-super-giant-star-15{fill:url(#red_super_giant_star_Unbenannter_Verlauf_139);}
            .cls-red-super-giant-star-16{fill:url(#red_super_giant_star_Unbenannter_Verlauf_133);}
            .cls-red-super-giant-star-17{fill:url(#red_super_giant_star_Unbenannter_Verlauf_100);}
            .cls-red-super-giant-star-18{fill:url(#red_super_giant_star_Unbenannter_Verlauf_112);}
            .cls-red-super-giant-star-19{fill:url(#red_super_giant_star_Unbenannter_Verlauf_107);}
            .cls-red-super-giant-star-20{fill:url(#red_super_giant_star_Unbenannter_Verlauf_105);}
            .cls-red-super-giant-star-21{fill:url(#red_super_giant_star_Unbenannter_Verlauf_78);}
            .cls-red-super-giant-star-22{fill:url(#red_super_giant_star_Unbenannter_Verlauf_92);}
            .cls-red-super-giant-star-23{fill:url(#red_super_giant_star_Unbenannter_Verlauf_90);}
            .cls-red-super-giant-star-24{fill:url(#red_super_giant_star_Unbenannter_Verlauf_95);}
            .cls-red-super-giant-star-25{fill:url(#red_super_giant_star_Unbenannter_Verlauf_64);}
            .cls-red-super-giant-star-26{fill:url(#red_super_giant_star_Unbenannter_Verlauf_55);}
            .cls-red-super-giant-star-27{fill:url(#red_super_giant_star_Unbenannter_Verlauf_22);}
            .cls-red-super-giant-star-28{fill:url(#red_super_giant_star_Unbenannter_Verlauf_46);}
        </style>
        <linearGradient id="red_super_giant_star_Unbenannter_Verlauf_128" x1="206.58" y1="582.9" x2="35.4" y2="645.2" gradientTransform="matrix(1, 0, 0, 1, 0, 0)" gradientUnits="userSpaceOnUse">
            <stop offset="0" stop-color="#d11918" stop-opacity=".9"/>
            <stop offset="1" stop-color="#e73738" stop-opacity="0"/>
        </linearGradient>
        <linearGradient id="red_super_giant_star_Unbenannter_Verlauf_133" x1="191.23" y1="290.3" x2="9.23" y2="258.21" gradientTransform="matrix(1, 0, 0, 1, 0, 0)" gradientUnits="userSpaceOnUse">
            <stop offset="0" stop-color="#d11918" stop-opacity=".7"/>
            <stop offset=".94" stop-color="#e73738" stop-opacity="0"/>
        </linearGradient>
        <linearGradient id="red_super_giant_star_Unbenannter_Verlauf_107" x1="604.62" y1="205.59" x2="835.97" y2="72.01" gradientTransform="matrix(1, 0, 0, 1, 0, 0)" gradientUnits="userSpaceOnUse">
            <stop offset="0" stop-color="#d11918" stop-opacity=".7"/>
            <stop offset=".95" stop-color="#e73738" stop-opacity="0"/>
        </linearGradient>
        <linearGradient id="red_super_giant_star_Unbenannter_Verlauf_116" x1="684.18" y1="567.31" x2="817.88" y2="798.88" gradientTransform="matrix(1, 0, 0, 1, 0, 0)" gradientUnits="userSpaceOnUse">
            <stop offset="0" stop-color="#d11918" stop-opacity=".7"/>
            <stop offset=".95" stop-color="#e73738" stop-opacity="0"/>
        </linearGradient>
        <linearGradient id="red_super_giant_star_Unbenannter_Verlauf_112" x1="719.32" y1="276.05" x2="867.11" y2="172.57" gradientTransform="matrix(1, 0, 0, 1, 0, 0)" gradientUnits="userSpaceOnUse">
            <stop offset="0" stop-color="#d11918"/>
            <stop offset="1" stop-color="#e73738" stop-opacity="0"/>
        </linearGradient>
        <linearGradient id="red_super_giant_star_Unbenannter_Verlauf_100" x1="219.16" y1="205.69" x2="61.49" y2="114.66" gradientTransform="matrix(1, 0, 0, 1, 0, 0)" gradientUnits="userSpaceOnUse">
            <stop offset="0" stop-color="#d11918" stop-opacity=".9"/>
            <stop offset=".95" stop-color="#e73738" stop-opacity="0"/>
        </linearGradient>
        <linearGradient id="red_super_giant_star_Unbenannter_Verlauf_122" x1="1566.38" y1="4265.04" x2="1588.85" y2="4392.46" gradientTransform="translate(-1652.52 -5854.78) rotate(7.55) scale(1.05 1.46) skewX(17.57)" gradientUnits="userSpaceOnUse">
            <stop offset="0" stop-color="#d11918" stop-opacity=".5"/>
            <stop offset=".9" stop-color="#e73738" stop-opacity="0"/>
        </linearGradient>
        <radialGradient id="red_super_giant_star_Unbenannter_Verlauf_78" cx="469.59" cy="421.8" fx="469.59" fy="421.8" r="421.8" gradientTransform="matrix(1, 0, 0, 1, 0, 0)" gradientUnits="userSpaceOnUse">
            <stop offset=".69" stop-color="#b81918"/>
            <stop offset="1" stop-color="#f59e22" stop-opacity="0"/>
        </radialGradient>
        <radialGradient id="red_super_giant_star_Unbenannter_Verlauf_22" cx="349.02" cy="607.91" fx="349.02" fy="607.91" r="208.79" gradientTransform="matrix(1, 0, 0, 1, 0, 0)" gradientUnits="userSpaceOnUse">
            <stop offset=".81" stop-color="#ef7925" stop-opacity="0"/>
            <stop offset=".9" stop-color="#ef7925" stop-opacity=".3"/>
            <stop offset="1" stop-color="#ef7925" stop-opacity="0"/>
        </radialGradient>
        <radialGradient id="red_super_giant_star_Unbenannter_Verlauf_55" cx="250.69" cy="223.59" fx="250.69" fy="223.59" r="152.39" gradientTransform="matrix(1, 0, 0, 1, 0, 0)" gradientUnits="userSpaceOnUse">
            <stop offset=".81" stop-color="#d11918" stop-opacity="0"/>
            <stop offset=".91" stop-color="#d11918" stop-opacity=".3"/>
            <stop offset="1" stop-color="#d11918" stop-opacity="0"/>
        </radialGradient>
        <radialGradient id="red_super_giant_star_Unbenannter_Verlauf_46" cx="649.08" cy="573.15" fx="649.08" fy="573.15" r="152.39" gradientTransform="matrix(1, 0, 0, 1, 0, 0)" gradientUnits="userSpaceOnUse">
            <stop offset=".81" stop-color="#d11918" stop-opacity="0"/>
            <stop offset=".9" stop-color="#d11918" stop-opacity=".3"/>
            <stop offset="1" stop-color="#d11918" stop-opacity="0"/>
        </radialGradient>
        <radialGradient id="red_super_giant_star_Unbenannter_Verlauf_64" cx="441.15" cy="108.98" fx="441.15" fy="108.98" r="82.76" gradientTransform="matrix(1, 0, 0, 1, 0, 0)" gradientUnits="userSpaceOnUse">
            <stop offset=".81" stop-color="#e95313" stop-opacity="0"/>
            <stop offset=".9" stop-color="#e95313" stop-opacity=".3"/>
            <stop offset="1" stop-color="#e95313" stop-opacity="0"/>
        </radialGradient>
        <radialGradient id="red_super_giant_star_Unbenannter_Verlauf_22-2" cx="809.28" cy="383.17" fx="809.28" fy="383.17" r="44.65" xlink:href="#red_super_giant_star_Unbenannter_Verlauf_22"/>
        <radialGradient id="red_super_giant_star_Unbenannter_Verlauf_139" cx="721.39" cy="294.5" fx="721.39" fy="294.5" r="135.38" gradientTransform="matrix(1, 0, 0, 1, 0, 0)" gradientUnits="userSpaceOnUse">
            <stop offset=".81" stop-color="#f59e22" stop-opacity="0"/>
            <stop offset=".91" stop-color="#f59e22" stop-opacity=".3"/>
            <stop offset="1" stop-color="#f59e22" stop-opacity="0"/>
        </radialGradient>
        <radialGradient id="red_super_giant_star_Unbenannter_Verlauf_139-2" cx="467.11" cy="724.17" fx="467.11" fy="724.17" r="82.76" xlink:href="#red_super_giant_star_Unbenannter_Verlauf_139"/>
        <radialGradient id="red_super_giant_star_Unbenannter_Verlauf_92" cx="471.1" cy="422.41" fx="471.1" fy="422.41" r="348.15" gradientTransform="matrix(1, 0, 0, 1, 0, 0)" gradientUnits="userSpaceOnUse">
            <stop offset=".94" stop-color="#d11918" stop-opacity=".9"/>
            <stop offset="1" stop-color="#e73738" stop-opacity=".4"/>
        </radialGradient>
        <radialGradient id="red_super_giant_star_Unbenannter_Verlauf_105" cx="569.1" cy="250.32" fx="569.1" fy="250.32" r="321.73" gradientTransform="translate(-85.47 146.41) rotate(2.72)" gradientUnits="userSpaceOnUse">
            <stop offset=".88" stop-color="#d11918"/>
            <stop offset="1" stop-color="#e73738" stop-opacity=".8"/>
        </radialGradient>
        <radialGradient id="red_super_giant_star_Unbenannter_Verlauf_95" cx="432.74" cy="392.13" fx="432.74" fy="392.13" r="283.15" gradientTransform="matrix(1, 0, 0, 1, 0, 0)" gradientUnits="userSpaceOnUse">
            <stop offset="0" stop-color="#b81918"/>
            <stop offset="1" stop-color="#b81918" stop-opacity="0"/>
        </radialGradient>
        <radialGradient id="red_super_giant_star_Unbenannter_Verlauf_90" cx="406.62" cy="355.12" fx="406.62" fy="355.12" r="161.83" gradientTransform="matrix(1, 0, 0, 1, 0, 0)" gradientUnits="userSpaceOnUse">
            <stop offset="0" stop-color="#961914"/>
            <stop offset="1" stop-color="#961914" stop-opacity="0"/>
        </radialGradient>
    </defs>
    <g id="red_super_giant_star">
        <g>
            <g class="red-super-giant-star-shine-outward">
                <polygon class="cls-red-super-giant-star-13" points="187.57 544.94 209.45 590.78 63.37 691.91 17.11 594.97 187.57 544.94"/>
                <polygon class="cls-red-super-giant-star-16" points="191.3 289.89 175.51 338.16 0 310.57 33.4 208.49 191.3 289.89"/>
                <polygon class="cls-red-super-giant-star-19" points="660.08 266.93 621.18 234.27 763.76 20.35 846.02 89.41 660.08 266.93"/>
                <polygon class="cls-red-super-giant-star-14" points="624.72 620.18 658.42 582.18 868.39 730.52 797.12 810.87 624.72 620.18"/>
                <polygon class="cls-red-super-giant-star-18" points="717.07 272.84 701.88 243.94 848.65 146.21 880.77 207.32 717.07 272.84"/>
                <polygon class="cls-red-super-giant-star-17" points="213.8 214.96 192.08 239.34 49.02 136.25 94.96 84.7 213.8 214.96"/>
                <polygon class="cls-red-super-giant-star-12" points="534.09 714.46 565.52 705.59 634.86 884.17 568.41 902.92 534.09 714.46"/>
            </g>
            <g class="red-super-giant-star-shine-base">
                <circle class="cls-red-super-giant-star-21" cx="469.59" cy="421.8" r="421.8"/>
                <path class="cls-red-super-giant-star-22" d="M492.78,77.49h0c21.85-6.66,45.56-2.91,64.28,10.18h0c12.11,8.47,26.47,13.13,41.24,13.4h0c22.84,.42,44.23,11.31,57.99,29.55h0c8.9,11.79,21.12,20.67,35.08,25.49h0c21.6,7.46,38.57,24.43,46.02,46.02h0c4.82,13.97,13.7,26.18,25.49,35.08h0c18.23,13.76,29.13,35.15,29.55,57.99h0c.27,14.77,4.94,29.13,13.4,41.24h0c13.09,18.73,16.84,42.43,10.18,64.28h0c-4.31,14.13-4.31,29.23,0,43.36h0c6.66,21.85,2.91,45.56-10.18,64.28h0c-8.47,12.11-13.13,26.47-13.4,41.24h0c-.42,22.84-11.31,44.23-29.55,57.99h0c-11.79,8.9-20.67,21.12-25.49,35.08h0c-7.46,21.6-24.43,38.57-46.02,46.02h0c-13.97,4.82-26.18,13.7-35.08,25.49h0c-13.76,18.23-35.15,29.13-57.99,29.55h0c-14.77,.27-29.13,4.94-41.24,13.4h0c-18.73,13.09-42.43,16.84-64.28,10.18h0c-14.13-4.31-29.23-4.31-43.36,0h0c-21.85,6.66-45.56,2.91-64.28-10.18h0c-12.11-8.47-26.47-13.13-41.24-13.4h0c-22.84-.42-44.23-11.31-57.99-29.55h0c-8.9-11.79-21.12-20.67-35.08-25.49h0c-21.6-7.46-38.57-24.43-46.02-46.02h0c-4.82-13.97-13.7-26.18-25.49-35.08h0c-18.23-13.76-29.13-35.15-29.55-57.99h0c-.27-14.77-4.94-29.13-13.4-41.24h0c-13.09-18.73-16.84-42.43-10.18-64.28h0c4.31-14.13,4.31-29.23,0-43.36h0c-6.66-21.85-2.91-45.56,10.18-64.28h0c8.47-12.11,13.13-26.47,13.4-41.24h0c.42-22.84,11.31-44.23,29.55-57.99h0c11.79-8.9,20.67-21.12,25.49-35.08h0c7.46-21.6,24.43-38.57,46.02-46.02h0c13.97-4.82,26.18-13.7,35.08-25.49h0c13.76-18.23,35.15-29.13,57.99-29.55h0c14.77-.27,29.13-4.94,41.24-13.4h0c18.73-13.09,42.43-16.84,64.28-10.18h0c14.13,4.31,29.23,4.31,43.36,0Z"/>
            </g>
            <g class="red-super-giant-star-shine-circle">
                <path class="cls-red-super-giant-star-27" d="M349.02,816.7c-115.13,0-208.79-93.66-208.79-208.79s93.66-208.79,208.79-208.79,208.79,93.66,208.79,208.79-93.66,208.79-208.79,208.79Zm0-377.58c-93.07,0-168.79,75.72-168.79,168.79s75.72,168.79,168.79,168.79,168.79-75.72,168.79-168.79-75.72-168.79-168.79-168.79Z"/>
                <path class="cls-red-super-giant-star-26" d="M250.69,375.99c-84.03,0-152.39-68.36-152.39-152.39S166.66,71.2,250.69,71.2s152.39,68.36,152.39,152.39-68.36,152.39-152.39,152.39Zm0-275.59c-67.93,0-123.2,55.27-123.2,123.2s55.27,123.2,123.2,123.2,123.2-55.27,123.2-123.2-55.27-123.2-123.2-123.2Z"/>
                <path class="cls-red-super-giant-star-28" d="M649.08,725.54c-84.03,0-152.39-68.36-152.39-152.39s68.36-152.39,152.39-152.39,152.39,68.36,152.39,152.39-68.36,152.39-152.39,152.39Zm0-275.59c-67.93,0-123.2,55.27-123.2,123.2s55.27,123.2,123.2,123.2,123.2-55.27,123.2-123.2-55.27-123.2-123.2-123.2Z"/>
                <path class="cls-red-super-giant-star-25" d="M441.15,191.74c-45.64,0-82.76-37.13-82.76-82.76s37.13-82.76,82.76-82.76,82.76,37.13,82.76,82.76-37.13,82.76-82.76,82.76Zm0-149.67c-36.89,0-66.91,30.01-66.91,66.91s30.01,66.91,66.91,66.91,66.91-30.01,66.91-66.91-30.01-66.91-66.91-66.91Z"/>
                <path class="cls-red-super-giant-star-2" d="M809.28,427.82c-24.62,0-44.65-20.03-44.65-44.65s20.03-44.65,44.65-44.65,44.65,20.03,44.65,44.65-20.03,44.65-44.65,44.65Zm0-80.75c-19.9,0-36.1,16.19-36.1,36.1s16.19,36.1,36.1,36.1,36.1-16.19,36.1-36.1-16.19-36.1-36.1-36.1Z"/>
                <path class="cls-red-super-giant-star-15" d="M721.39,429.88c-74.65,0-135.38-60.73-135.38-135.38s60.73-135.38,135.38-135.38,135.38,60.73,135.38,135.38-60.73,135.38-135.38,135.38Zm0-244.82c-60.35,0-109.44,49.1-109.44,109.44s49.1,109.44,109.44,109.44,109.44-49.1,109.44-109.44-49.1-109.44-109.44-109.44Z"/>
                <path class="cls-red-super-giant-star-1" d="M467.11,806.93c-45.64,0-82.76-37.13-82.76-82.76s37.13-82.76,82.76-82.76,82.76,37.13,82.76,82.76-37.13,82.76-82.76,82.76Zm0-149.67c-36.89,0-66.91,30.01-66.91,66.91s30.01,66.91,66.91,66.91,66.91-30.01,66.91-66.91-30.01-66.91-66.91-66.91Z"/>
            </g>
            <g class="red-super-giant-star-main-body">
                <circle class="cls-red-super-giant-star-4" cx="471.1" cy="423.48" r="338.18"/>
                <circle class="cls-red-super-giant-star-20" cx="471.1" cy="423.48" r="321.73"/>
                <circle class="cls-red-super-giant-star-24" cx="432.74" cy="392.13" r="283.15"/>
                <circle class="cls-red-super-giant-star-23" cx="406.62" cy="355.12" r="161.83"/>
            </g>
            <g class="red-super-giant-star-sparkles cls-red-super-giant-star-11">
                    <circle class="cls-red-super-giant-star-3" cx="513.95" cy="128.66" r="5.86"/>
                    <circle class="cls-red-super-giant-star-6" cx="337.75" cy="335.24" r="5.86"/>
                    <circle class="cls-red-super-giant-star-3" cx="370.4" cy="290.14" r="5.86"/>
                    <circle class="cls-red-super-giant-star-3" cx="364.54" cy="266.14" r="5.86"/>
                    <circle class="cls-red-super-giant-star-3" cx="364.54" cy="335.24" r="7.15"/>
                    <circle class="cls-red-super-giant-star-3" cx="231" cy="386.95" r="5.86"/>
                    <circle class="cls-red-super-giant-star-3" cx="219.28" cy="342.69" r="5.86"/>
                    <circle class="cls-red-super-giant-star-3" cx="256.57" cy="407.19" r="8.38"/>
                    <circle class="cls-red-super-giant-star-6" cx="384.59" cy="690.34" r="7.15"/>
                    <circle class="cls-red-super-giant-star-6" cx="162.77" cy="438.55" r="5.86"/>
                    <circle class="cls-red-super-giant-star-3" cx="364.54" cy="655.89" r="8.38"/>
                    <circle class="cls-red-super-giant-star-3" cx="257.84" cy="593.27" r="7.15"/>
                    <circle class="cls-red-super-giant-star-3" cx="188.73" cy="465.84" r="5.86"/>
                    <circle class="cls-red-super-giant-star-3" cx="219.65" cy="515.41" r="7.15"/>
                    <circle class="cls-red-super-giant-star-3" cx="285.04" cy="424.31" r="5.86"/>
                    <circle class="cls-red-super-giant-star-3" cx="250.69" cy="525.85" r="7.15"/>
                    <circle class="cls-red-super-giant-star-3" cx="262.43" cy="446.92" r="5.86"/>
                    <circle class="cls-red-super-giant-star-6" cx="371.69" cy="438.55" r="8.38"/>
                    <circle class="cls-red-super-giant-star-3" cx="356.17" cy="465.84" r="7.15"/>
                    <circle class="cls-red-super-giant-star-6" cx="401.34" cy="244.82" r="5.86"/>
                    <circle class="cls-red-super-giant-star-3" cx="324.74" cy="386.95" r="7.15"/>
                    <circle class="cls-red-super-giant-star-6" cx="540.75" cy="152.1" r="8.38"/>
                    <circle class="cls-red-super-giant-star-6" cx="407.21" cy="180.37" r="5.86"/>
                    <circle class="cls-red-super-giant-star-3" cx="432.77" cy="200.61" r="8.38"/>
                    <circle class="cls-red-super-giant-star-3" cx="447.01" cy="287.72" r="8.38"/>
                    <circle class="cls-red-super-giant-star-3" cx="431.48" cy="310.33" r="7.15"/>
                    <circle class="cls-red-super-giant-star-3" cx="461.24" cy="217.73" r="5.86"/>
                    <circle class="cls-red-super-giant-star-3" cx="438.63" cy="240.35" r="5.86"/>
                    <circle class="cls-red-super-giant-star-3" cx="532.37" cy="259.26" r="7.15"/>
                    <circle class="cls-red-super-giant-star-6" cx="569.17" cy="252.12" r="8.38"/>
                    <circle class="cls-red-super-giant-star-3" cx="500.94" cy="180.37" r="7.15"/>
                    <circle class="cls-red-super-giant-star-3" cx="359.58" cy="171.04" r="7.15"/>
                    <circle class="cls-red-super-giant-star-3" cx="313.96" cy="290.14" r="8.38"/>
                    <circle class="cls-red-super-giant-star-3" cx="316.28" cy="258.53" r="5.86"/>
                    <circle class="cls-red-super-giant-star-3" cx="273.86" cy="212.42" r="8.38"/>
                    <circle class="cls-red-super-giant-star-3" cx="291" cy="191" r="7.15"/>
                    <circle class="cls-red-super-giant-star-3" cx="278.76" cy="260.28" r="5.86"/>
                    <circle class="cls-red-super-giant-star-3" cx="180.35" cy="375.03" r="7.15"/>
                    <circle class="cls-red-super-giant-star-3" cx="210.11" cy="282.43" r="5.86"/>
                    <circle class="cls-red-super-giant-star-3" cx="187.5" cy="305.04" r="5.86"/>
                    <circle class="cls-red-super-giant-star-3" cx="527.75" cy="606.62" r="5.86"/>
                    <circle class="cls-red-super-giant-star-6" cx="560.4" cy="561.52" r="5.86"/>
                    <circle class="cls-red-super-giant-star-3" cx="554.54" cy="537.52" r="5.86"/>
                    <circle class="cls-red-super-giant-star-6" cx="554.54" cy="606.62" r="7.15"/>
                    <circle class="cls-red-super-giant-star-3" cx="444.56" cy="625.79" r="5.86"/>
                    <circle class="cls-red-super-giant-star-3" cx="446.56" cy="678.58" r="8.38"/>
                    <circle class="cls-red-super-giant-star-3" cx="475.04" cy="695.69" r="5.86"/>
                    <circle class="cls-red-super-giant-star-3" cx="452.42" cy="718.31" r="5.86"/>
                    <circle class="cls-red-super-giant-star-3" cx="561.69" cy="709.93" r="8.38"/>
                    <circle class="cls-red-super-giant-star-3" cx="514.74" cy="658.33" r="7.15"/>
                    <circle class="cls-red-super-giant-star-3" cx="426.86" cy="600.76" r="7.15"/>
                    <circle class="cls-red-super-giant-star-3" cx="637.01" cy="559.1" r="8.38"/>
                    <circle class="cls-red-super-giant-star-3" cx="621.48" cy="581.72" r="7.15"/>
                    <circle class="cls-red-super-giant-star-3" cx="330.84" cy="527.51" r="5.86"/>
                    <circle class="cls-red-super-giant-star-3" cx="407.45" cy="525.09" r="8.38"/>
                    <circle class="cls-red-super-giant-star-3" cx="503.96" cy="561.52" r="8.38"/>
                    <circle class="cls-red-super-giant-star-3" cx="444.56" cy="552.56" r="5.86"/>
                    <circle class="cls-red-super-giant-star-3" cx="369.09" cy="625.69" r="5.86"/>
                    <circle class="cls-red-super-giant-star-3" cx="291.69" cy="640.52" r="5.86"/>
                    <circle class="cls-red-super-giant-star-6" cx="309.27" cy="627.21" r="7.15"/>
                    <circle class="cls-red-super-giant-star-3" cx="326.97" cy="579.01" r="5.86"/>
                    <circle class="cls-red-super-giant-star-3" cx="382.19" cy="486.23" r="5.86"/>
                    <circle class="cls-red-super-giant-star-3" cx="277.91" cy="506.89" r="5.86"/>
                    <circle class="cls-red-super-giant-star-3" cx="480.36" cy="346.65" r="5.86"/>
                    <circle class="cls-red-super-giant-star-3" cx="456.64" cy="339.72" r="5.86"/>
                    <circle class="cls-red-super-giant-star-3" cx="478.1" cy="479.11" r="5.86"/>
                    <circle class="cls-red-super-giant-star-3" cx="516.56" cy="279.1" r="8.38"/>
                    <circle class="cls-red-super-giant-star-3" cx="528.39" cy="303.85" r="7.15"/>
                    <circle class="cls-red-super-giant-star-3" cx="452.14" cy="395.53" r="8.38"/>
                    <circle class="cls-red-super-giant-star-3" cx="414.68" cy="442.49" r="5.86"/>
                    <circle class="cls-red-super-giant-star-3" cx="706.87" cy="615.62" r="5.86"/>
                    <circle class="cls-red-super-giant-star-3" cx="727.55" cy="530.28" r="8.38"/>
                    <circle class="cls-red-super-giant-star-3" cx="753.6" cy="547.8" r="7.15"/>
                    <circle class="cls-red-super-giant-star-6" cx="672.58" cy="573.24" r="7.15"/>
                    <circle class="cls-red-super-giant-star-3" cx="670.95" cy="471.65" r="5.86"/>
                    <circle class="cls-red-super-giant-star-3" cx="734.7" cy="487.71" r="5.86"/>
                    <circle class="cls-red-super-giant-star-3" cx="702.92" cy="491.34" r="5.86"/>
                    <circle class="cls-red-super-giant-star-3" cx="571.85" cy="275.05" r="5.86"/>
                    <circle class="cls-red-super-giant-star-3" cx="632.98" cy="288.77" r="8.38"/>
                    <circle class="cls-red-super-giant-star-3" cx="631.12" cy="316.13" r="7.15"/>
                    <circle class="cls-red-super-giant-star-6" cx="692.01" cy="220.85" r="7.15"/>
                    <circle class="cls-red-super-giant-star-3" cx="737.09" cy="354.75" r="5.86"/>
                    <circle class="cls-red-super-giant-star-6" cx="691.67" cy="322.55" r="5.86"/>
                    <circle class="cls-red-super-giant-star-3" cx="667.73" cy="328.65" r="5.86"/>
                    <circle class="cls-red-super-giant-star-3" cx="736.82" cy="327.96" r="7.15"/>
                    <circle class="cls-red-super-giant-star-3" cx="688.49" cy="245.97" r="8.38"/>
                    <circle class="cls-red-super-giant-star-3" cx="711.26" cy="261.27" r="7.15"/>
                    <circle class="cls-red-super-giant-star-3" cx="692.23" cy="378.98" r="8.38"/>
                    <circle class="cls-red-super-giant-star-3" cx="660.61" cy="376.99" r="5.86"/>
                    <circle class="cls-red-super-giant-star-3" cx="662.72" cy="414.48" r="5.86"/>
                    <circle class="cls-red-super-giant-star-3" cx="638.53" cy="259.73" r="5.86"/>
                    <circle class="cls-red-super-giant-star-3" cx="674.66" cy="287.35" r="7.15"/>
                    <circle class="cls-red-super-giant-star-3" cx="602.13" cy="184.71" r="5.86"/>
                    <circle class="cls-red-super-giant-star-3" cx="579.95" cy="195.59" r="5.86"/>
                    <circle class="cls-red-super-giant-star-3" cx="647.43" cy="180.74" r="7.15"/>
                    <circle class="cls-red-super-giant-star-6" cx="541.47" cy="425.05" r="5.86"/>
                    <circle class="cls-red-super-giant-star-3" cx="511.57" cy="436.37" r="5.86"/>
                    <circle class="cls-red-super-giant-star-3" cx="614.61" cy="473.64" r="8.38"/>
                    <circle class="cls-red-super-giant-star-3" cx="589.24" cy="492.15" r="7.15"/>
                    <circle class="cls-red-super-giant-star-3" cx="652.18" cy="494.91" r="5.86"/>
                    <circle class="cls-red-super-giant-star-6" cx="635.68" cy="383.17" r="5.86"/>
                    <circle class="cls-red-super-giant-star-3" cx="649.08" cy="359.96" r="7.15"/>
                    <circle class="cls-red-super-giant-star-3" cx="584.73" cy="381.22" r="8.38"/>
                    <circle class="cls-red-super-giant-star-6" cx="558.52" cy="363.41" r="5.86"/>
                    <circle class="cls-red-super-giant-star-3" cx="541.27" cy="396.77" r="5.86"/>
            </g>
            <g class="red-super-giant-star-specks">
                <path class="cls-red-super-giant-star-5" d="M465.57,693.15c-14.32,0-25.96-11.65-25.96-25.96s11.65-25.97,25.96-25.97,25.96,11.65,25.96,25.97-11.65,25.96-25.96,25.96Zm0-38.93c-7.15,0-12.96,5.82-12.96,12.97s5.82,12.96,12.96,12.96,12.96-5.82,12.96-12.96-5.82-12.97-12.96-12.97Z"/>
                <path class="cls-red-super-giant-star-4" d="M716.26,310.59c-14.32,0-25.96-11.65-25.96-25.96s11.65-25.97,25.96-25.97,25.96,11.65,25.96,25.97-11.65,25.96-25.96,25.96Zm0-38.93c-7.15,0-12.96,5.82-12.96,12.97s5.82,12.96,12.96,12.96,12.96-5.82,12.96-12.96-5.82-12.97-12.96-12.97Z"/>
                <path class="cls-red-super-giant-star-3" d="M360.26,526.34c-14.32,0-25.97-11.65-25.97-25.96s11.65-25.97,25.97-25.97,25.96,11.65,25.96,25.97-11.65,25.96-25.96,25.96Zm0-38.93c-7.15,0-12.97,5.82-12.97,12.97s5.82,12.96,12.97,12.96,12.96-5.82,12.96-12.96-5.82-12.97-12.96-12.97Z"/>
                <path class="cls-red-super-giant-star-5" d="M748.68,513.32c-10.73,0-19.46-8.73-19.46-19.46s8.73-19.46,19.46-19.46,19.45,8.73,19.45,19.46-8.73,19.46-19.45,19.46Zm0-25.91c-3.56,0-6.46,2.9-6.46,6.46s2.9,6.46,6.46,6.46,6.45-2.9,6.45-6.46-2.9-6.46-6.45-6.46Z"/>
                <path class="cls-red-super-giant-star-10" d="M274,500.36c-10.73,0-19.45-8.73-19.45-19.46s8.73-19.45,19.45-19.45,19.46,8.73,19.46,19.45-8.73,19.46-19.46,19.46Zm0-25.91c-3.56,0-6.45,2.9-6.45,6.45s2.9,6.46,6.45,6.46,6.46-2.9,6.46-6.46-2.9-6.45-6.46-6.45Z"/>
                <path class="cls-red-super-giant-star-9" d="M422.34,464.43c-16.69,0-30.26-13.58-30.26-30.26s13.58-30.26,30.26-30.26,30.26,13.58,30.26,30.26-13.58,30.26-30.26,30.26Zm0-47.53c-9.52,0-17.26,7.74-17.26,17.26s7.74,17.26,17.26,17.26,17.26-7.74,17.26-17.26-7.74-17.26-17.26-17.26Z"/>
                <path class="cls-red-super-giant-star-3" d="M494.71,470.48c-8.83,0-16.01-7.18-16.01-16.01s7.18-16.01,16.01-16.01,16.01,7.18,16.01,16.01-7.18,16.01-16.01,16.01Zm0-19.02c-1.66,0-3.01,1.35-3.01,3.01s1.35,3.01,3.01,3.01,3.01-1.35,3.01-3.01-1.35-3.01-3.01-3.01Z"/>
                <path class="cls-red-super-giant-star-10" d="M596.11,300.64c-8.83,0-16.01-7.18-16.01-16.01s7.18-16.01,16.01-16.01,16.01,7.18,16.01,16.01-7.18,16.01-16.01,16.01Zm0-19.02c-1.66,0-3.01,1.35-3.01,3.01s1.35,3.01,3.01,3.01,3.01-1.35,3.01-3.01-1.35-3.01-3.01-3.01Z"/>
                <path class="cls-red-super-giant-star-4" d="M451.08,257.18c-11.57,0-20.99-9.42-20.99-20.99s9.42-20.99,20.99-20.99,20.99,9.42,20.99,20.99-9.42,20.99-20.99,20.99Zm0-28.98c-4.41,0-7.99,3.58-7.99,7.99s3.58,7.99,7.99,7.99,7.99-3.58,7.99-7.99-3.58-7.99-7.99-7.99Z"/>
                <path class="cls-red-super-giant-star-7" d="M494.05,299.12c-7.14,0-14.97-2.09-22.43-6.4-8.08-4.67-14.48-11.31-18-18.7-3.86-8.09-3.89-16.51-.09-23.1,7.61-13.19,27.49-15.49,45.24-5.23,17.76,10.25,25.7,28.61,18.09,41.8h0c-4.41,7.65-12.95,11.63-22.81,11.63Zm-17.77-46.74c-5.23,0-9.56,1.69-11.49,5.04-2.23,3.87-.61,8.55,.56,11,2.37,4.97,7.03,9.72,12.77,13.04,10.87,6.27,23.71,6.05,27.48-.48h0c3.77-6.53-2.46-17.76-13.33-24.04-5.29-3.05-11.04-4.57-15.99-4.57Z"/>
                <path class="cls-red-super-giant-star-10" d="M454.96,761.15c-7.14,0-14.97-2.09-22.43-6.4-17.76-10.25-25.7-28.61-18.09-41.8,3.8-6.59,11.11-10.77,20.05-11.47,8.17-.64,17.11,1.58,25.19,6.24,17.76,10.25,25.7,28.61,18.09,41.8h0c-4.42,7.65-12.95,11.63-22.81,11.63Zm-17.71-46.78c-.59,0-1.18,.02-1.75,.07-2.7,.21-7.57,1.15-9.81,5.01-3.77,6.53,2.46,17.76,13.33,24.04,10.87,6.28,23.71,6.05,27.49-.48,3.77-6.53-2.46-17.76-13.33-24.04-5.14-2.97-10.85-4.61-15.93-4.61Z"/>
                <path class="cls-red-super-giant-star-8" d="M634.37,345.12c-7.38,0-15.23-2.21-22.4-6.35-8.08-4.67-14.47-11.31-18-18.7-3.86-8.09-3.89-16.51-.09-23.1,3.8-6.59,11.11-10.77,20.05-11.48,8.15-.64,17.11,1.58,25.19,6.24,8.08,4.67,14.47,11.31,18,18.7,3.86,8.09,3.89,16.51,.09,23.1-3.8,6.59-11.11,10.77-20.05,11.47-.92,.07-1.86,.11-2.8,.11Zm-17.67-46.73c-.59,0-1.17,.02-1.75,.07-2.7,.21-7.57,1.15-9.81,5.02-2.23,3.87-.61,8.55,.56,11,2.37,4.97,7.03,9.72,12.77,13.04,5.74,3.32,12.18,4.97,17.68,4.54,2.7-.21,7.57-1.15,9.81-5.01h0c2.23-3.87,.61-8.55-.56-11-2.37-4.97-7.03-9.72-12.77-13.04-5.14-2.97-10.85-4.61-15.93-4.61Z"/>
                <path class="cls-red-super-giant-star-3" d="M650.3,279.75c-8.18,0-17.17-2.41-25.75-7.36-20.27-11.7-29.4-32.55-20.79-47.46,8.61-14.91,31.23-17.42,51.5-5.72,20.27,11.7,29.4,32.55,20.79,47.46h0c-4.97,8.6-14.6,13.08-25.75,13.08Zm-20.86-54.85c-6.51,0-11.92,2.19-14.42,6.53-4.8,8.31,2.54,21.91,16.03,29.7,13.49,7.79,28.94,7.35,33.74-.97,4.8-8.31-2.54-21.91-16.03-29.7-6.45-3.72-13.35-5.57-19.32-5.57Z"/>
                <path class="cls-red-super-giant-star-4" d="M271.38,581.1c-8.45,0-17.46-2.54-25.69-7.29-9.28-5.36-16.61-12.97-20.65-21.43-4.43-9.28-4.48-18.52-.14-26.03,4.33-7.51,12.37-12.09,22.62-12.89,9.35-.74,19.6,1.81,28.88,7.17,9.28,5.36,16.61,12.96,20.65,21.43,4.43,9.28,4.48,18.52,.14,26.03h0c-4.34,7.51-12.37,12.09-22.62,12.89-1.05,.08-2.12,.12-3.19,.12Zm-20.71-54.77c-.72,0-1.43,.03-2.13,.08-3.39,.27-9.5,1.46-12.38,6.43s-.85,10.87,.62,13.93c2.88,6.02,8.49,11.77,15.42,15.77,6.92,4,14.72,5.99,21.36,5.47,3.39-.27,9.5-1.46,12.38-6.43h0c2.87-4.98,.85-10.87-.62-13.93-2.88-6.02-8.49-11.77-15.42-15.77-6.2-3.58-13.08-5.55-19.23-5.55Z"/>
                <path class="cls-red-super-giant-star-3" d="M224.1,556.77c-17.23,0-34.66-15.23-42.24-38.42-4.1-12.55-4.57-25.55-1.33-36.59,3.5-11.92,10.87-20.25,20.74-23.48,9.87-3.23,20.74-.85,30.6,6.7,9.15,6.99,16.44,17.76,20.55,30.31,8.9,27.22,.37,53.61-19.41,60.07h0c-2.93,.96-5.91,1.42-8.91,1.42Zm-14.06-86.88c-1.63,0-3.22,.25-4.73,.74-5.68,1.86-10.05,7.11-12.31,14.79-2.51,8.55-2.08,18.81,1.21,28.89,6.41,19.61,22.33,32.76,34.75,28.69,12.43-4.06,17.51-24.06,11.09-43.68-3.29-10.08-9.01-18.61-16.09-24.03-4.66-3.56-9.47-5.41-13.93-5.41Z"/>
                <path class="cls-red-super-giant-star-3" d="M537.69,748.09c-10.22,0-19.95-2.1-28.18-6.16-11.95-5.9-19.41-15.2-20.99-26.2-1.59-11,2.93-22.03,12.72-31.07,9.13-8.42,21.93-14.19,36.05-16.23,14.12-2.04,28.03-.13,39.16,5.37,11.95,5.9,19.41,15.2,20.99,26.2,1.59,11-2.93,22.03-12.72,31.07-9.13,8.42-21.93,14.19-36.05,16.23-3.69,.53-7.37,.8-10.99,.8Zm10.38-67.44c-2.92,0-5.9,.21-8.92,.65-22.55,3.26-39.84,18.17-37.76,32.57,.96,6.63,5.89,12.46,13.88,16.4,8.8,4.34,20.01,5.82,31.55,4.16,11.54-1.67,21.87-6.25,29.09-12.91,6.55-6.05,9.63-13.03,8.67-19.66-1.8-12.47-17.65-21.2-36.51-21.2Z"/>
                <path class="cls-red-super-giant-star-10" d="M249.96,312.76c-5.01,0-9.81-1.13-14.21-3.41h0c-9.87-5.11-16.21-15.2-17.87-28.42-1.54-12.33,1.22-26.09,7.78-38.76s16.2-22.87,27.15-28.73c11.75-6.29,23.65-6.94,33.52-1.83,9.87,5.11,16.21,15.2,17.87,28.42,1.54,12.33-1.22,26.09-7.78,38.76s-16.2,22.87-27.15,28.73c-6.51,3.49-13.08,5.24-19.31,5.24Zm22.15-91.54c-4.12,0-8.6,1.23-13.17,3.68-8.66,4.63-16.38,12.89-21.74,23.25-5.36,10.36-7.64,21.43-6.42,31.17,1.11,8.85,4.99,15.41,10.94,18.49h0c12.92,6.69,32.68-4.76,43.15-24.99,10.47-20.23,8.4-42.98-4.52-49.66-2.49-1.29-5.28-1.93-8.25-1.93Z"/>
                <path class="cls-red-super-giant-star-8" d="M726.99,597.68c-6.32,0-11.98-2.15-16.03-6.2-5.18-5.19-7.26-13.02-5.69-21.49,1.43-7.71,5.69-15.43,12-21.74,6.31-6.31,14.03-10.57,21.73-12,8.48-1.57,16.31,.5,21.49,5.69,5.18,5.19,7.26,13.02,5.69,21.49-1.43,7.71-5.69,15.43-12,21.74-6.31,6.31-14.03,10.57-21.73,12-1.86,.34-3.68,.51-5.46,.51Zm17.56-48.95c-1.2,0-2.31,.14-3.17,.3-5.07,.94-10.51,4.01-14.91,8.41-4.41,4.4-7.47,9.84-8.41,14.92-.46,2.47-.79,7.04,2.1,9.93,2.89,2.89,7.46,2.55,9.93,2.1,5.07-.94,10.51-4.01,14.91-8.41,4.41-4.4,7.47-9.84,8.41-14.92,.46-2.47,.79-7.04-2.1-9.93-1.89-1.89-4.49-2.4-6.76-2.4Z"/>
                <path class="cls-red-super-giant-star-8" d="M197.54,346.22c-6.32,0-11.98-2.15-16.03-6.2-10.35-10.35-7.57-29.34,6.32-43.23,13.89-13.89,32.88-16.66,43.23-6.31,10.35,10.35,7.57,29.34-6.32,43.23-6.31,6.31-14.03,10.57-21.74,12-1.86,.34-3.68,.51-5.46,.51Zm17.67-48.99c-5.83,0-13.12,3.67-18.2,8.75-7.37,7.37-11.77,19.38-6.32,24.84,2.89,2.89,7.46,2.55,9.93,2.1,5.07-.94,10.51-4.01,14.91-8.41,7.37-7.37,11.77-19.38,6.32-24.84-1.7-1.69-4.02-2.44-6.64-2.44Z"/>
                <path class="cls-red-super-giant-star-5" d="M399.8,295.34c-10.16,0-18.63-5.01-20.95-13.25-3-10.61,5.51-21.99,19.36-25.9,6.18-1.74,12.55-1.7,17.95,.13,6.16,2.09,10.57,6.4,12.1,11.83h0c2.99,10.62-5.51,21.99-19.36,25.9-3.1,.87-6.17,1.29-9.09,1.29Zm7.46-27.42c-1.78,0-3.67,.26-5.52,.79-7.44,2.1-11.12,7.24-10.38,9.86,.74,2.62,6.56,5.08,14,2.98,7.44-2.1,11.12-7.24,10.38-9.86h0c-.5-1.77-2.8-2.72-3.76-3.05-1.41-.48-3.02-.72-4.72-.72Z"/>
            </g>
        </g>
    </g>
</svg>