<?xml version="1.0" encoding="UTF-8"?>
<svg id="SunLikeStar" xmlns="http://www.w3.org/2000/svg" xmlns:xlink="http://www.w3.org/1999/xlink" viewBox="0 0 843.61 843.61">
    <defs>
        <style>
            .cls-sun-like-star-1{fill:url(#sun_like_star_Unbenannter_Verlauf_84-2);}
            .cls-sun-like-star-2{fill:url(#sun_like_star_Unbenannter_Verlauf_91-2);}
            .cls-sun-like-star-3{fill:#f59e22;}.cls-sun-like-star-4{fill:#ef7925;}
            .cls-sun-like-star-5{fill:#fff;}.cls-sun-like-star-6{fill:#fed178;}
            .cls-sun-like-star-7{fill:#e26713;}.cls-sun-like-star-8{opacity:.65;}
            .cls-sun-like-star-9{fill:url(#sun_like_star_Unbenannter_Verlauf_155);}
            .cls-sun-like-star-10{fill:url(#sun_like_star_Unbenannter_Verlauf_116);}
            .cls-sun-like-star-11{fill:url(#sun_like_star_Unbenannter_Verlauf_104);}
            .cls-sun-like-star-12{fill:url(#sun_like_star_Unbenannter_Verlauf_77);}
            .cls-sun-like-star-13{fill:url(#sun_like_star_Unbenannter_Verlauf_91);}
            .cls-sun-like-star-14{fill:url(#sun_like_star_Unbenannter_Verlauf_98);}
            .cls-sun-like-star-15{fill:url(#sun_like_star_Unbenannter_Verlauf_67);}
            .cls-sun-like-star-16{fill:url(#sun_like_star_Unbenannter_Verlauf_84);}
            .cls-sun-like-star-17{fill:url(#sun_like_star_Unbenannter_Verlauf_47);}
            .cls-sun-like-star-18{fill:url(#sun_like_star_Unbenannter_Verlauf_41);}
            .cls-sun-like-star-19{fill:url(#sun_like_star_Unbenannter_Verlauf_3);}
        </style>
        <radialGradient id="sun_like_star_Unbenannter_Verlauf_84" cx="299.73" cy="607.31" fx="299.73" fy="607.31" r="208.79" gradientTransform="matrix(1, 0, 0, 1, 0, 0)" gradientUnits="userSpaceOnUse">
            <stop offset=".81" stop-color="#e95313" stop-opacity="0"/>
            <stop offset=".9" stop-color="#e95313" stop-opacity=".3"/>
            <stop offset="1" stop-color="#e95313" stop-opacity="0"/>
        </radialGradient>
        <radialGradient id="sun_like_star_Unbenannter_Verlauf_91" cx="201.4" cy="222.99" fx="201.4" fy="222.99" r="152.39" gradientTransform="matrix(1, 0, 0, 1, 0, 0)" gradientUnits="userSpaceOnUse">
            <stop offset=".81" stop-color="#ef7925" stop-opacity="0"/>
            <stop offset=".9" stop-color="#ef7925" stop-opacity=".3"/>
            <stop offset="1" stop-color="#ef7925" stop-opacity="0"/>
        </radialGradient>
        <radialGradient id="sun_like_star_Unbenannter_Verlauf_98" cx="599.78" cy="572.55" fx="599.78" fy="572.55" r="152.39" gradientTransform="matrix(1, 0, 0, 1, 0, 0)" gradientUnits="userSpaceOnUse">
            <stop offset=".81" stop-color="#f59e22" stop-opacity="0"/>
            <stop offset=".9" stop-color="#f59e22" stop-opacity=".3"/>
            <stop offset="1" stop-color="#f59e22" stop-opacity="0"/>
        </radialGradient>
        <radialGradient id="sun_like_star_Unbenannter_Verlauf_77" cx="391.85" cy="108.38" fx="391.85" fy="108.38" r="82.76" gradientTransform="matrix(1, 0, 0, 1, 0, 0)" gradientUnits="userSpaceOnUse">
            <stop offset=".81" stop-color="#e95313" stop-opacity="0"/>
            <stop offset=".9" stop-color="#e95313" stop-opacity=".3"/>
            <stop offset="1" stop-color="#e95313" stop-opacity="0"/>
        </radialGradient>
        <radialGradient id="sun_like_star_Unbenannter_Verlauf_104" cx="759.98" cy="382.57" fx="759.98" fy="382.57" r="44.65" gradientTransform="matrix(1, 0, 0, 1, 0, 0)" gradientUnits="userSpaceOnUse">
            <stop offset=".81" stop-color="#fed178" stop-opacity="0"/>
            <stop offset=".9" stop-color="#fed178" stop-opacity=".3"/>
            <stop offset="1" stop-color="#fed178" stop-opacity="0"/>
        </radialGradient>
        <radialGradient id="sun_like_star_Unbenannter_Verlauf_84-2" cx="672.09" cy="293.9" fx="672.09" fy="293.9" r="135.38" xlink:href="#sun_like_star_Unbenannter_Verlauf_84"/>
        <radialGradient id="sun_like_star_Unbenannter_Verlauf_91-2" cx="417.81" cy="723.57" fx="417.81" fy="723.57" r="82.76" xlink:href="#sun_like_star_Unbenannter_Verlauf_91"/>
        <radialGradient id="sun_like_star_Unbenannter_Verlauf_155" cx="421.8" cy="421.8" fx="421.8" fy="421.8" r="421.8" gradientTransform="matrix(1, 0, 0, 1, 0, 0)" gradientUnits="userSpaceOnUse">
            <stop offset=".76" stop-color="#ef7925"/>
            <stop offset="1" stop-color="#fed178" stop-opacity="0"/>
        </radialGradient>
        <radialGradient id="sun_like_star_Unbenannter_Verlauf_3" cx="421.8" cy="421.8" fx="421.8" fy="421.8" r="348.15" gradientTransform="matrix(1, 0, 0, 1, 0, 0)" gradientUnits="userSpaceOnUse">
            <stop offset=".93" stop-color="#ef7925" stop-opacity=".9"/>
            <stop offset="1" stop-color="#fff" stop-opacity=".2"/>
        </radialGradient>
        <radialGradient id="sun_like_star_Unbenannter_Verlauf_47" cx="1066.2" cy="-277.07" fx="1066.2" fy="-277.07" r="321.73" gradientTransform="translate(-656.35 648.98) rotate(2.72)" gradientUnits="userSpaceOnUse">
            <stop offset=".88" stop-color="#f59e22"/>
            <stop offset="1" stop-color="#fed178" stop-opacity=".8"/>
        </radialGradient>
        <radialGradient id="sun_like_star_Unbenannter_Verlauf_41" cx="383.45" cy="391.53" fx="383.45" fy="391.53" r="283.15" gradientTransform="matrix(1, 0, 0, 1, 0, 0)" gradientUnits="userSpaceOnUse">
            <stop offset="0" stop-color="#ef7925"/>
            <stop offset="1" stop-color="#e95313" stop-opacity="0"/>
        </radialGradient>
        <radialGradient id="sun_like_star_Unbenannter_Verlauf_116" cx="357.33" cy="354.52" fx="357.33" fy="354.52" r="161.83" gradientTransform="matrix(1, 0, 0, 1, 0, 0)" gradientUnits="userSpaceOnUse">
            <stop offset="0" stop-color="#e95313" stop-opacity=".7"/>
            <stop offset=".19" stop-color="#e95313" stop-opacity=".59"/>
            <stop offset=".59" stop-color="#e95313" stop-opacity=".31"/>
            <stop offset="1" stop-color="#e95313" stop-opacity="0"/>
        </radialGradient>
        <radialGradient id="sun_like_star_Unbenannter_Verlauf_67" cx="277.63" cy="567" fx="277.63" fy="567" r="98.11" gradientTransform="matrix(1, 0, 0, 1, 0, 0)" gradientUnits="userSpaceOnUse">
            <stop offset="0" stop-color="#e95313" stop-opacity=".8"/>
            <stop offset="1" stop-color="#e95313" stop-opacity="0"/>
        </radialGradient>
    </defs>
    <g id="sun_like_star">
        <g>
            <g class="sun-like-star-shine-circle">
                <path class="cls-sun-like-star-16" d="M299.73,816.1c-115.13,0-208.79-93.66-208.79-208.79s93.66-208.79,208.79-208.79,208.79,93.66,208.79,208.79-93.66,208.79-208.79,208.79Zm0-377.58c-93.07,0-168.79,75.72-168.79,168.79s75.72,168.79,168.79,168.79,168.79-75.72,168.79-168.79-75.72-168.79-168.79-168.79Z"/>
                <path class="cls-sun-like-star-13" d="M201.4,375.39c-84.03,0-152.39-68.36-152.39-152.39S117.37,70.6,201.4,70.6s152.39,68.36,152.39,152.39-68.36,152.39-152.39,152.39Zm0-275.59c-67.93,0-123.2,55.27-123.2,123.2s55.27,123.2,123.2,123.2,123.2-55.27,123.2-123.2-55.27-123.2-123.2-123.2Z"/>
                <path class="cls-sun-like-star-14" d="M599.78,724.94c-84.03,0-152.39-68.36-152.39-152.39s68.36-152.39,152.39-152.39,152.39,68.36,152.39,152.39-68.36,152.39-152.39,152.39Zm0-275.59c-67.93,0-123.2,55.27-123.2,123.2s55.27,123.2,123.2,123.2,123.2-55.27,123.2-123.2-55.27-123.2-123.2-123.2Z"/>
                <path class="cls-sun-like-star-12" d="M391.85,191.14c-45.64,0-82.76-37.13-82.76-82.76s37.13-82.76,82.76-82.76,82.76,37.13,82.76,82.76-37.13,82.76-82.76,82.76Zm0-149.67c-36.89,0-66.91,30.01-66.91,66.91s30.01,66.91,66.91,66.91,66.91-30.01,66.91-66.91-30.01-66.91-66.91-66.91Z"/>
                <path class="cls-sun-like-star-11" d="M759.98,427.22c-24.62,0-44.65-20.03-44.65-44.65s20.03-44.65,44.65-44.65,44.65,20.03,44.65,44.65-20.03,44.65-44.65,44.65Zm0-80.75c-19.9,0-36.1,16.19-36.1,36.1s16.19,36.1,36.1,36.1,36.1-16.19,36.1-36.1-16.19-36.1-36.1-36.1Z"/>
                <path class="cls-sun-like-star-1" d="M672.09,429.28c-74.65,0-135.38-60.73-135.38-135.38s60.73-135.38,135.38-135.38,135.38,60.73,135.38,135.38-60.73,135.38-135.38,135.38Zm0-244.82c-60.35,0-109.44,49.1-109.44,109.44s49.1,109.44,109.44,109.44,109.44-49.1,109.44-109.44-49.1-109.44-109.44-109.44Z"/>
                <path class="cls-sun-like-star-2" d="M417.81,806.33c-45.64,0-82.76-37.13-82.76-82.76s37.13-82.76,82.76-82.76,82.76,37.13,82.76,82.76-37.13,82.76-82.76,82.76Zm0-149.67c-36.89,0-66.91,30.01-66.91,66.91s30.01,66.91,66.91,66.91,66.91-30.01,66.91-66.91-30.01-66.91-66.91-66.91Z"/>
            </g>
            <g class="sun-like-star-shine-base">
                <circle class="cls-sun-like-star-9" cx="421.8" cy="421.8" r="421.8"/>
                <path class="cls-sun-like-star-19" d="M443.49,76.89h0c21.85-6.66,45.56-2.91,64.28,10.18h0c12.11,8.47,26.47,13.13,41.24,13.4h0c22.84,.42,44.23,11.31,57.99,29.55h0c8.9,11.79,21.12,20.67,35.08,25.49h0c21.6,7.46,38.57,24.43,46.02,46.02h0c4.82,13.97,13.7,26.18,25.49,35.08h0c18.23,13.76,29.13,35.15,29.55,57.99h0c.27,14.77,4.94,29.13,13.4,41.24h0c13.09,18.73,16.84,42.43,10.18,64.28h0c-4.31,14.13-4.31,29.23,0,43.36h0c6.66,21.85,2.91,45.56-10.18,64.28h0c-8.47,12.11-13.13,26.47-13.4,41.24h0c-.42,22.84-11.31,44.23-29.55,57.99h0c-11.79,8.9-20.67,21.12-25.49,35.08h0c-7.46,21.6-24.43,38.57-46.02,46.02h0c-13.97,4.82-26.18,13.7-35.08,25.49h0c-13.76,18.23-35.15,29.13-57.99,29.55h0c-14.77,.27-29.13,4.94-41.24,13.4h0c-18.73,13.09-42.43,16.84-64.28,10.18h0c-14.13-4.31-29.23-4.31-43.36,0h0c-21.85,6.66-45.56,2.91-64.28-10.18h0c-12.11-8.47-26.47-13.13-41.24-13.4h0c-22.84-.42-44.23-11.31-57.99-29.55h0c-8.9-11.79-21.12-20.67-35.08-25.49h0c-21.6-7.46-38.57-24.43-46.02-46.02h0c-4.82-13.97-13.7-26.18-25.49-35.08h0c-18.23-13.76-29.13-35.15-29.55-57.99h0c-.27-14.77-4.94-29.13-13.4-41.24h0c-13.09-18.73-16.84-42.43-10.18-64.28h0c4.31-14.13,4.31-29.23,0-43.36h0c-6.66-21.85-2.91-45.56,10.18-64.28h0c8.47-12.11,13.13-26.47,13.4-41.24h0c.42-22.84,11.31-44.23,29.55-57.99h0c11.79-8.9,20.67-21.12,25.49-35.08h0c7.46-21.6,24.43-38.57,46.02-46.02h0c13.97-4.82,26.18-13.7,35.08-25.49h0c13.76-18.23,35.15-29.13,57.99-29.55h0c14.77-.27,29.13-4.94,41.24-13.4h0c18.73-13.09,42.43-16.84,64.28-10.18h0c14.13,4.31,29.23,4.31,43.36,0Z"/>
            </g>
            <g class="sun-like-star-main-body">
                <circle class="cls-sun-like-star-3" cx="421.8" cy="422.88" r="338.18"/>
                <circle class="cls-sun-like-star-17" cx="421.8" cy="422.88" r="321.73"/>
                <circle class="cls-sun-like-star-18" cx="383.45" cy="391.53" r="283.15"/>
                <circle class="cls-sun-like-star-10" cx="357.33" cy="354.52" r="161.83"/>
                <circle class="cls-sun-like-star-15" cx="277.63" cy="567" r="98.11"/>
            </g>
            <g class="sun-like-star-sparkles cls-sun-like-star-8">
                <circle class="cls-sun-like-star-6" cx="288.45" cy="334.64" r="5.86"/>
                <circle class="cls-sun-like-star-6" cx="321.11" cy="289.54" r="5.86"/>
                <circle class="cls-sun-like-star-6" cx="315.25" cy="265.54" r="5.86"/>
                <circle class="cls-sun-like-star-6" cx="315.25" cy="334.64" r="7.15"/>
                <circle class="cls-sun-like-star-6" cx="181.71" cy="386.35" r="5.86"/>
                <circle class="cls-sun-like-star-6" cx="169.99" cy="342.09" r="5.86"/>
                <circle class="cls-sun-like-star-6" cx="207.27" cy="406.59" r="8.38"/>
                <circle class="cls-sun-like-star-6" cx="335.3" cy="689.74" r="7.15"/>
                <circle class="cls-sun-like-star-5" cx="113.48" cy="437.95" r="5.86"/>
                <circle class="cls-sun-like-star-5" cx="315.25" cy="655.29" r="8.38"/>
                <circle class="cls-sun-like-star-6" cx="208.55" cy="592.67" r="7.15"/>
                <circle class="cls-sun-like-star-6" cx="139.43" cy="465.24" r="5.86"/>
                <circle class="cls-sun-like-star-5" cx="170.35" cy="514.81" r="7.15"/>
                <circle class="cls-sun-like-star-6" cx="235.75" cy="423.71" r="5.86"/>
                <circle class="cls-sun-like-star-6" cx="201.4" cy="525.25" r="7.15"/>
                <circle class="cls-sun-like-star-6" cx="213.13" cy="446.32" r="5.86"/>
                <circle class="cls-sun-like-star-6" cx="322.4" cy="437.95" r="8.38"/>
                <circle class="cls-sun-like-star-5" cx="306.87" cy="465.24" r="7.15"/>
                <circle class="cls-sun-like-star-6" cx="352.05" cy="244.22" r="5.86"/>
                <circle class="cls-sun-like-star-6" cx="275.45" cy="386.35" r="7.15"/>
                <circle class="cls-sun-like-star-6" cx="464.66" cy="128.06" r="5.86"/>
                <circle class="cls-sun-like-star-6" cx="491.45" cy="151.5" r="8.38"/>
                <circle class="cls-sun-like-star-6" cx="357.91" cy="179.77" r="5.86"/>
                <circle class="cls-sun-like-star-5" cx="383.48" cy="200.01" r="8.38"/>
                <circle class="cls-sun-like-star-6" cx="397.71" cy="287.12" r="8.38"/>
                <circle class="cls-sun-like-star-6" cx="382.19" cy="309.73" r="7.15"/>
                <circle class="cls-sun-like-star-6" cx="411.95" cy="217.13" r="5.86"/>
                <circle class="cls-sun-like-star-5" cx="389.34" cy="239.74" r="5.86"/>
                <circle class="cls-sun-like-star-5" cx="483.08" cy="258.66" r="7.15"/>
                <circle class="cls-sun-like-star-6" cx="519.88" cy="251.51" r="8.38"/>
                <circle class="cls-sun-like-star-6" cx="451.65" cy="179.77" r="7.15"/>
                <circle class="cls-sun-like-star-6" cx="310.28" cy="170.44" r="7.15"/>
                <circle class="cls-sun-like-star-6" cx="264.67" cy="289.54" r="8.38"/>
                <circle class="cls-sun-like-star-5" cx="266.98" cy="257.93" r="5.86"/>
                <circle class="cls-sun-like-star-6" cx="224.57" cy="211.82" r="8.38"/>
                <circle class="cls-sun-like-star-6" cx="241.7" cy="190.39" r="7.15"/>
                <circle class="cls-sun-like-star-6" cx="229.47" cy="259.67" r="5.86"/>
                <circle class="cls-sun-like-star-6" cx="131.06" cy="374.43" r="7.15"/>
                <circle class="cls-sun-like-star-6" cx="160.82" cy="281.83" r="5.86"/>
                <circle class="cls-sun-like-star-6" cx="138.2" cy="304.44" r="5.86"/>
                <circle class="cls-sun-like-star-5" cx="478.45" cy="606.02" r="5.86"/>
                <circle class="cls-sun-like-star-5" cx="511.11" cy="560.92" r="5.86"/>
                <circle class="cls-sun-like-star-6" cx="505.25" cy="536.92" r="5.86"/>
                <circle class="cls-sun-like-star-6" cx="505.25" cy="606.02" r="7.15"/>
                <circle class="cls-sun-like-star-6" cx="395.26" cy="625.19" r="5.86"/>
                <circle class="cls-sun-like-star-5" cx="397.27" cy="677.98" r="8.38"/>
                <circle class="cls-sun-like-star-5" cx="425.74" cy="695.09" r="5.86"/>
                <circle class="cls-sun-like-star-6" cx="403.13" cy="717.71" r="5.86"/>
                <circle class="cls-sun-like-star-6" cx="512.39" cy="709.33" r="8.38"/>
                <circle class="cls-sun-like-star-6" cx="465.44" cy="657.73" r="7.15"/>
                <circle class="cls-sun-like-star-6" cx="377.56" cy="600.16" r="7.15"/>
                <circle class="cls-sun-like-star-6" cx="587.71" cy="558.5" r="8.38"/>
                <circle class="cls-sun-like-star-6" cx="572.19" cy="581.12" r="7.15"/>
                <circle class="cls-sun-like-star-6" cx="281.55" cy="526.91" r="5.86"/>
                <circle class="cls-sun-like-star-6" cx="358.15" cy="524.48" r="8.38"/>
                <circle class="cls-sun-like-star-6" cx="454.67" cy="560.92" r="8.38"/>
                <circle class="cls-sun-like-star-6" cx="395.26" cy="551.96" r="5.86"/>
                <circle class="cls-sun-like-star-6" cx="319.79" cy="625.09" r="5.86"/>
                <circle class="cls-sun-like-star-6" cx="242.4" cy="639.92" r="5.86"/>
                <circle class="cls-sun-like-star-6" cx="259.98" cy="626.61" r="7.15"/>
                <circle class="cls-sun-like-star-5" cx="277.68" cy="578.41" r="5.86"/>
                <circle class="cls-sun-like-star-5" cx="332.9" cy="485.63" r="5.86"/>
                <circle class="cls-sun-like-star-6" cx="228.61" cy="506.29" r="5.86"/>
                <circle class="cls-sun-like-star-6" cx="431.07" cy="346.05" r="5.86"/>
                <circle class="cls-sun-like-star-6" cx="407.35" cy="339.12" r="5.86"/>
                <circle class="cls-sun-like-star-6" cx="428.8" cy="478.51" r="5.86"/>
                <circle class="cls-sun-like-star-6" cx="467.27" cy="278.5" r="8.38"/>
                <circle class="cls-sun-like-star-6" cx="479.1" cy="303.25" r="7.15"/>
                <circle class="cls-sun-like-star-6" cx="402.85" cy="394.93" r="8.38"/>
                <circle class="cls-sun-like-star-5" cx="365.38" cy="441.89" r="5.86"/>
                <circle class="cls-sun-like-star-5" cx="657.58" cy="615.02" r="5.86"/>
                <circle class="cls-sun-like-star-6" cx="678.25" cy="529.68" r="8.38"/>
                <circle class="cls-sun-like-star-6" cx="704.31" cy="547.2" r="7.15"/>
                <circle class="cls-sun-like-star-6" cx="623.29" cy="572.64" r="7.15"/>
                <circle class="cls-sun-like-star-6" cx="621.66" cy="471.05" r="5.86"/>
                <circle class="cls-sun-like-star-6" cx="685.4" cy="487.11" r="5.86"/>
                <circle class="cls-sun-like-star-6" cx="653.63" cy="490.74" r="5.86"/>
                <circle class="cls-sun-like-star-5" cx="522.55" cy="274.45" r="5.86"/>
                <circle class="cls-sun-like-star-6" cx="583.69" cy="288.16" r="8.38"/>
                <circle class="cls-sun-like-star-6" cx="581.82" cy="315.53" r="7.15"/>
                <circle class="cls-sun-like-star-6" cx="642.72" cy="220.25" r="7.15"/>
                <circle class="cls-sun-like-star-6" cx="687.8" cy="354.15" r="5.86"/>
                <circle class="cls-sun-like-star-5" cx="642.38" cy="321.95" r="5.86"/>
                <circle class="cls-sun-like-star-6" cx="618.43" cy="328.05" r="5.86"/>
                <circle class="cls-sun-like-star-6" cx="687.53" cy="327.36" r="7.15"/>
                <circle class="cls-sun-like-star-6" cx="639.19" cy="245.37" r="8.38"/>
                <circle class="cls-sun-like-star-5" cx="661.96" cy="260.67" r="7.15"/>
                <circle class="cls-sun-like-star-6" cx="642.94" cy="378.38" r="8.38"/>
                <circle class="cls-sun-like-star-6" cx="611.31" cy="376.39" r="5.86"/>
                <circle class="cls-sun-like-star-5" cx="613.42" cy="413.88" r="5.86"/>
                <circle class="cls-sun-like-star-6" cx="589.24" cy="259.13" r="5.86"/>
                <circle class="cls-sun-like-star-6" cx="625.36" cy="286.75" r="7.15"/>
                <circle class="cls-sun-like-star-6" cx="552.84" cy="184.11" r="5.86"/>
                <circle class="cls-sun-like-star-6" cx="530.65" cy="194.99" r="5.86"/>
                <circle class="cls-sun-like-star-6" cx="598.14" cy="180.14" r="7.15"/>
                <circle class="cls-sun-like-star-6" cx="492.18" cy="424.45" r="5.86"/>
                <circle class="cls-sun-like-star-6" cx="462.27" cy="435.77" r="5.86"/>
                <circle class="cls-sun-like-star-5" cx="565.32" cy="473.04" r="8.38"/>
                <circle class="cls-sun-like-star-6" cx="539.95" cy="491.54" r="7.15"/>
                <circle class="cls-sun-like-star-6" cx="602.89" cy="494.31" r="5.86"/>
                <circle class="cls-sun-like-star-6" cx="586.39" cy="382.57" r="5.86"/>
                <circle class="cls-sun-like-star-6" cx="599.78" cy="359.36" r="7.15"/>
                <circle class="cls-sun-like-star-6" cx="535.44" cy="380.62" r="8.38"/>
                <circle class="cls-sun-like-star-6" cx="509.22" cy="362.81" r="5.86"/>
                <circle class="cls-sun-like-star-6" cx="491.97" cy="396.17" r="5.86"/>
            </g>
            <g class="sun-like-star-specks">
                <path class="cls-sun-like-star-5" d="M162.53,479.97c-8.83,0-16.01-7.18-16.01-16.01s7.18-16.01,16.01-16.01,16.01,7.18,16.01,16.01-7.18,16.01-16.01,16.01Zm0-19.02c-1.66,0-3.01,1.35-3.01,3.01s1.35,3.01,3.01,3.01,3.01-1.35,3.01-3.01-1.35-3.01-3.01-3.01Z"/>
                <path class="cls-sun-like-star-3" d="M282.68,489.93c-14.32,0-25.96-11.65-25.96-25.96s11.65-25.97,25.96-25.97,25.96,11.65,25.96,25.97-11.65,25.96-25.96,25.96Zm0-38.93c-7.15,0-12.96,5.82-12.96,12.97s5.82,12.96,12.96,12.96,12.96-5.82,12.96-12.96-5.82-12.97-12.96-12.97Z"/>
                <path class="cls-sun-like-star-4" d="M200.79,524.45c-7.38,0-15.23-2.21-22.4-6.35-8.08-4.67-14.47-11.31-18-18.7-3.86-8.09-3.89-16.51-.09-23.1,3.8-6.59,11.11-10.77,20.05-11.48,8.15-.64,17.11,1.58,25.19,6.24,8.08,4.67,14.47,11.31,18,18.7,3.86,8.09,3.89,16.51,.09,23.1-3.8,6.59-11.11,10.77-20.05,11.47-.92,.07-1.86,.11-2.8,.11Zm-17.67-46.73c-.59,0-1.17,.02-1.75,.07-2.7,.21-7.57,1.15-9.81,5.02-2.23,3.87-.61,8.55,.56,11,2.37,4.97,7.03,9.72,12.77,13.04,5.74,3.32,12.18,4.97,17.68,4.54,2.7-.21,7.57-1.15,9.81-5.01h0c2.23-3.87,.61-8.55-.56-11-2.37-4.97-7.03-9.72-12.77-13.04-5.14-2.97-10.85-4.61-15.93-4.61Z"/>
                <path class="cls-sun-like-star-6" d="M216.72,459.08c-8.18,0-17.17-2.41-25.75-7.36-20.27-11.7-29.4-32.55-20.79-47.46,8.61-14.91,31.23-17.42,51.5-5.72,20.27,11.7,29.4,32.55,20.79,47.46h0c-4.97,8.6-14.6,13.08-25.75,13.08Zm-20.86-54.85c-6.51,0-11.92,2.19-14.42,6.53-4.8,8.31,2.54,21.91,16.03,29.7,13.49,7.79,28.94,7.35,33.74-.97,4.8-8.31-2.54-21.91-16.03-29.7-6.45-3.72-13.35-5.57-19.32-5.57Z"/>
                <path class="cls-sun-like-star-4" d="M581.74,293.38c-14.18-1.98-24.03-15.64-21.97-30.44s15.29-25.24,29.47-23.26,24.03,15.64,21.97,30.44-15.29,25.24-29.47,23.26Zm5.62-40.26c-7.08-.99-13.68,4.22-14.71,11.62s3.89,14.21,10.97,15.2c7.08,.99,13.68-4.22,14.71-11.61s-3.89-14.21-10.97-15.2Z"/>
                <path class="cls-sun-like-star-7" d="M561.41,362.23c-7.07-.99-14.53-4.23-21.29-9.72-16.1-13.06-21.32-33.14-11.88-45.73,4.72-6.29,12.56-9.6,21.51-9.09,8.18,.46,16.72,4,24.05,9.94,16.1,13.06,21.32,33.14,11.88,45.73h0c-5.48,7.3-14.51,10.24-24.27,8.88Zm-10.78-50.83c-.59-.08-1.17-.14-1.74-.17-2.71-.15-7.67,.14-10.44,3.83-4.68,6.23-.13,18.71,9.73,26.71,9.86,8,22.61,9.54,27.29,3.31,4.68-6.23,.13-18.71-9.73-26.71-4.67-3.78-10.08-6.26-15.11-6.97Z"/>
                <path class="cls-sun-like-star-6" d="M645.22,360.17c-10.12-1.41-19.46-4.93-27.02-10.27-10.98-7.75-17.02-18.41-17.01-30,.02-11.59,6.08-22.38,17.09-30.37,10.26-7.45,23.77-11.64,38.04-11.79,14.28-.15,27.78,3.74,38.01,10.97,10.98,7.75,17.02,18.41,17.01,30-.02,11.59-6.08,22.38-17.09,30.37-10.26,7.45-23.77,11.64-38.04,11.79-3.73,.04-7.41-.2-10.99-.7Zm20.02-68.3c-2.89-.4-5.88-.6-8.93-.57-22.8,.25-42.08,13.28-42.1,28.46,0,6.99,4.03,13.69,11.38,18.88,8.09,5.71,18.97,8.79,30.65,8.66,11.67-.13,22.57-3.44,30.67-9.33,7.36-5.35,11.42-12.14,11.43-19.13,.02-13.14-14.42-24.37-33.1-26.98Z"/>
                <path class="cls-sun-like-star-6" d="M334.98,634.08c-11.57,0-20.99-9.42-20.99-20.99s9.42-20.99,20.99-20.99,20.99,9.42,20.99,20.99-9.42,20.99-20.99,20.99Zm0-28.98c-4.41,0-7.99,3.58-7.99,7.99s3.58,7.99,7.99,7.99,7.99-3.58,7.99-7.99-3.58-7.99-7.99-7.99Z"/>
                <path class="cls-sun-like-star-7" d="M377.95,676.01c-7.14,0-14.97-2.09-22.43-6.4-8.08-4.67-14.48-11.31-18-18.7-3.86-8.09-3.89-16.51-.09-23.1,7.61-13.19,27.49-15.49,45.24-5.23,17.76,10.25,25.7,28.61,18.09,41.8h0c-4.41,7.65-12.95,11.63-22.81,11.63Zm-17.77-46.74c-5.23,0-9.56,1.69-11.49,5.04-2.23,3.87-.61,8.55,.56,11,2.37,4.97,7.03,9.72,12.77,13.04,10.87,6.27,23.71,6.05,27.48-.48h0c3.77-6.53-2.46-17.76-13.33-24.04-5.29-3.05-11.04-4.57-15.99-4.57Z"/>
                <path class="cls-sun-like-star-4" d="M283.7,672.23c-10.16,0-18.63-5.01-20.95-13.25-3-10.61,5.51-21.99,19.36-25.9,6.18-1.74,12.55-1.7,17.95,.13,6.16,2.09,10.57,6.4,12.1,11.83h0c2.99,10.62-5.51,21.99-19.36,25.9-3.1,.87-6.17,1.29-9.09,1.29Zm7.46-27.42c-1.78,0-3.67,.26-5.52,.79-7.44,2.1-11.12,7.24-10.38,9.86,.74,2.62,6.56,5.08,14,2.98,7.44-2.1,11.12-7.24,10.38-9.86h0c-.5-1.77-2.8-2.72-3.76-3.05-1.41-.48-3.02-.72-4.72-.72Z"/>
                <path class="cls-sun-like-star-3" d="M303.32,221.76c8.27-11.69,24.27-14.64,35.68-6.58s13.96,24.14,5.7,35.83c-8.27,11.69-24.27,14.64-35.68,6.57s-13.96-24.14-5.7-35.83Z"/>
                <path class="cls-sun-like-star-5" d="M380.61,129.27c5.1-7.21,14.97-9.03,22-4.06,7.03,4.97,8.61,14.89,3.51,22.09-5.1,7.21-14.97,9.03-22,4.05-7.03-4.97-8.61-14.88-3.51-22.09Z"/>
                <path class="cls-sun-like-star-4" d="M323.09,135.45c4.26-6.03,10.55-11.19,17.99-14.71,8.38-3.97,17.36-5.45,25.29-4.17,8.67,1.4,15.4,6.12,18.45,12.94,3.05,6.82,2.17,15.14-2.43,22.83-4.2,7.02-11.13,13.08-19.52,17.06-8.38,3.97-17.36,5.45-25.29,4.17-8.67-1.4-15.4-6.12-18.45-12.94-3.05-6.82-2.17-15.14,2.43-22.83,.47-.79,.99-1.58,1.53-2.34Z"/>
                <path class="cls-sun-like-star-7" d="M625.31,429.38c-3.01,0-5.9-.68-8.54-2.05h0c-5.93-3.07-9.74-9.13-10.73-17.08-.93-7.41,.73-15.68,4.67-23.29s9.73-13.74,16.31-17.26c7.06-3.78,14.21-4.17,20.14-1.1,5.93,3.07,9.74,9.13,10.73,17.08,.93,7.41-.73,15.68-4.67,23.29-3.94,7.61-9.73,13.74-16.31,17.26-3.91,2.09-7.86,3.15-11.6,3.15Z"/>
                <path class="cls-sun-like-star-4" d="M593.81,449.48c-3.8,0-7.2-1.29-9.63-3.72-6.22-6.22-4.55-17.63,3.79-25.97,8.34-8.34,19.75-10.01,25.97-3.79,6.22,6.22,4.55,17.63-3.79,25.97-3.79,3.79-8.43,6.35-13.06,7.21-1.12,.21-2.21,.31-3.28,.31Z"/>
                <path class="cls-sun-like-star-5" d="M432.56,471.12c-8.27,0-15-6.73-15-15s6.73-15,15-15,15,6.73,15,15-6.73,15-15,15Z"/>
                <path class="cls-sun-like-star-6" d="M463.26,501.08c-5.1,0-10.7-1.49-16.03-4.57-5.78-3.33-10.34-8.08-12.87-13.36-2.76-5.78-2.78-11.8-.06-16.51,5.44-9.42,19.64-11.07,32.33-3.74,12.69,7.33,18.37,20.45,12.93,29.87h0c-3.15,5.46-9.26,8.31-16.3,8.31Z"/>
                <path class="cls-sun-like-star-6" d="M395.91,498.38c-7.26,0-13.31-3.58-14.97-9.47-2.14-7.59,3.94-15.72,13.84-18.51,4.42-1.25,8.97-1.21,12.82,.09,4.4,1.49,7.55,4.57,8.65,8.45h0c2.14,7.59-3.94,15.72-13.84,18.51-2.21,.62-4.41,.92-6.5,.92Z"/>
            </g>
        </g>
    </g>
</svg>