<?xml version="1.0" encoding="UTF-8"?>
<svg id="WhiteDwarf" xmlns="http://www.w3.org/2000/svg" xmlns:xlink="http://www.w3.org/1999/xlink" viewBox="0 0 903.82 903.82">
    <defs>
        <style>
            .cls-white-dwarf-1{fill:url(#white_dwarf_Unbenannter_Verlauf_36-3);}
            .cls-white-dwarf-2{fill:url(#white_dwarf_Unbenannter_Verlauf_36-2);}
            .cls-white-dwarf-3{fill:url(#white_dwarf_Unbenannter_Verlauf_36-4);}
            .cls-white-dwarf-4{fill:url(#white_dwarf_Unbenannter_Verlauf_15-2);}
            .cls-white-dwarf-5{fill:url(#white_dwarf_Unbenannter_Verlauf_15-4);}
            .cls-white-dwarf-6{fill:url(#white_dwarf_Unbenannter_Verlauf_15-3);}
            .cls-white-dwarf-7{fill:url(#white_dwarf_Unbenannter_Verlauf_15-6);}
            .cls-white-dwarf-8{fill:url(#white_dwarf_Unbenannter_Verlauf_15-5);}
            .cls-white-dwarf-9{fill:url(#white_dwarf_Unbenannter_Verlauf_15-8);}
            .cls-white-dwarf-10{fill:url(#white_dwarf_Unbenannter_Verlauf_15-7);}
            .cls-white-dwarf-11{fill:url(#white_dwarf_Unbenannter_Verlauf_15);}
            .cls-white-dwarf-12{fill:url(#white_dwarf_Unbenannter_Verlauf_36);}
            .cls-white-dwarf-13{fill:url(#white_dwarf_Unbenannter_Verlauf_42);}
            .cls-white-dwarf-14{fill:url(#white_dwarf_Unbenannter_Verlauf_4);}
            .cls-white-dwarf-15{fill:#fff;opacity:.75;}
        </style>
        <radialGradient id="white_dwarf_Unbenannter_Verlauf_42" cx="443.11" cy="433.99" fx="443.11" fy="433.99" r="421.8" gradientUnits="userSpaceOnUse">
            <stop offset=".76" stop-color="#70c4c4"/>
            <stop offset="1" stop-color="#9fd5d5" stop-opacity="0"/>
        </radialGradient>
        <radialGradient id="white_dwarf_Unbenannter_Verlauf_36" cx="337.47" cy="566.35" fx="337.47" fy="566.35" r="337.47" gradientUnits="userSpaceOnUse">
            <stop offset=".81" stop-color="#70c4c4" stop-opacity="0"/>
            <stop offset=".9" stop-color="#70c4c4" stop-opacity=".3"/>
            <stop offset="1" stop-color="#70c4c4" stop-opacity="0"/>
        </radialGradient>
        <radialGradient id="white_dwarf_Unbenannter_Verlauf_36-2" cx="381.82" cy="522" fx="381.82" fy="522" xlink:href="#white_dwarf_Unbenannter_Verlauf_36"/>
        <radialGradient id="white_dwarf_Unbenannter_Verlauf_36-3" cx="566.35" cy="337.47" fx="566.35" fy="337.47" r="337.47" xlink:href="#white_dwarf_Unbenannter_Verlauf_36"/>
        <radialGradient id="white_dwarf_Unbenannter_Verlauf_36-4" cx="528.56" cy="375.26" fx="528.56" fy="375.26" r="337.47" xlink:href="#white_dwarf_Unbenannter_Verlauf_36"/>
        <radialGradient id="white_dwarf_Unbenannter_Verlauf_4" cx="1081.04" cy="-273.86" fx="1081.04" fy="-273.86" r="321.73" gradientTransform="translate(-649.72 657.26) rotate(2.72)" gradientUnits="userSpaceOnUse">
            <stop offset="0" stop-color="#70c4c4"/>
            <stop offset="1" stop-color="#fff" stop-opacity=".8"/>
        </radialGradient>
        <radialGradient id="white_dwarf_Unbenannter_Verlauf_15" cx="-22570.21" cy="5295.17" fx="-22570.21" fy="5295.17" r="45.29" gradientTransform="translate(183.81 -22982.04) rotate(-77.19)" gradientUnits="userSpaceOnUse">
            <stop offset="0" stop-color="#fff" stop-opacity=".8"/>
            <stop offset="1" stop-color="#fff" stop-opacity="0"/>
        </radialGradient>
        <radialGradient id="white_dwarf_Unbenannter_Verlauf_15-2" cx="546.73" cy="435.83" fx="546.73" fy="435.83" r="218.78" gradientTransform="matrix(1, 0, 0, 1, 0, 0)" xlink:href="#white_dwarf_Unbenannter_Verlauf_15"/>
        <radialGradient id="white_dwarf_Unbenannter_Verlauf_15-3" cx="487.26" cy="270.6" fx="487.26" fy="270.6" r="133.17" gradientTransform="matrix(1, 0, 0, 1, 0, 0)" xlink:href="#white_dwarf_Unbenannter_Verlauf_15"/>
        <radialGradient id="white_dwarf_Unbenannter_Verlauf_15-4" cx="-19342.24" cy="6854.71" fx="-19342.24" fy="6854.71" r="103.97" gradientTransform="translate(1705.87 -19882.99) rotate(-67.47)" xlink:href="#white_dwarf_Unbenannter_Verlauf_15"/>
        <radialGradient id="white_dwarf_Unbenannter_Verlauf_15-5" cx="4414.34" cy="-7452.11" fx="4414.34" fy="-7452.11" r="66.58" gradientTransform="translate(-6701.24 5144.32) rotate(27.21)" xlink:href="#white_dwarf_Unbenannter_Verlauf_15"/>
        <radialGradient id="white_dwarf_Unbenannter_Verlauf_15-6" cx="-19754.52" cy="-29337.01" fx="-19754.52" fy="-29337.01" r="54.15" gradientTransform="translate(-32698.78 -12474.97) rotate(145.37)" xlink:href="#white_dwarf_Unbenannter_Verlauf_15"/>
        <radialGradient id="white_dwarf_Unbenannter_Verlauf_15-7" cx="-3892.73" cy="-27021.41" fx="-3892.73" fy="-27021.41" r="156.73" gradientTransform="translate(-27007.46 1806.98) rotate(95)" xlink:href="#white_dwarf_Unbenannter_Verlauf_15"/>
        <radialGradient id="white_dwarf_Unbenannter_Verlauf_15-8" cx="363.28" cy="634.56" fx="363.28" fy="634.56" r="324.02" gradientTransform="matrix(1, 0, 0, 1, 0, 0)" xlink:href="#white_dwarf_Unbenannter_Verlauf_15"/>
    </defs>
    <g id="white_dwarf">
        <g>
            <g class="white-dwarf-shine-blue">
                <circle class="cls-white-dwarf-13" cx="443.11" cy="433.99" r="421.8"/>
                <path class="white-dwarf-shine-blue-rings-left-big cls-white-dwarf-12" d="m337.47,903.82C151.39,903.82,0,752.43,0,566.35S151.39,228.88,337.47,228.88s337.47,151.39,337.47,337.47-151.39,337.47-337.47,337.47Zm0-610.28c-150.43,0-272.81,122.38-272.81,272.82s122.38,272.81,272.81,272.81,272.81-122.38,272.81-272.81-122.38-272.82-272.81-272.82Z"/>
                <path class="white-dwarf-shine-blue-rings-left-small cls-white-dwarf-2" d="m381.82,859.47c-186.08,0-337.47-151.39-337.47-337.47S195.74,184.53,381.82,184.53s337.47,151.39,337.47,337.47-151.39,337.47-337.47,337.47Zm0-610.28c-150.43,0-272.81,122.38-272.81,272.82s122.38,272.81,272.81,272.81,272.81-122.38,272.81-272.81-122.38-272.82-272.81-272.82Z"/>
                <path class="white-dwarf-shine-blue-rings-right-big cls-white-dwarf-1" d="m566.35,674.94c-186.08,0-337.47-151.39-337.47-337.47S380.27,0,566.35,0s337.47,151.39,337.47,337.47-151.39,337.47-337.47,337.47Zm0-610.28c-150.43,0-272.81,122.38-272.81,272.82s122.38,272.81,272.81,272.81,272.81-122.38,272.81-272.81-122.38-272.82-272.81-272.82Z"/>
                <path class="white-dwarf-shine-blue-rings-right-small cls-white-dwarf-3" d="m528.56,712.73c-186.08,0-337.47-151.39-337.47-337.47S342.48,37.79,528.56,37.79s337.47,151.39,337.47,337.47-151.39,337.47-337.47,337.47Zm0-610.28c-150.43,0-272.81,122.38-272.81,272.82s122.38,272.81,272.81,272.81,272.81-122.38,272.81-272.81-122.38-272.82-272.81-272.82Z"/>
            </g>
            <g class="white-dwarf-main-body">
                <circle class="cls-white-dwarf-15" cx="443.11" cy="435.06" r="338.18"/>
                <circle class="cls-white-dwarf-14" cx="443.11" cy="435.06" r="321.73"/>
            </g>
            <g class="white-dwarf-highlights">
                <circle class="cls-white-dwarf-11" cx="328.76" cy="187.47" r="26.81"/>
                <circle class="cls-white-dwarf-4" cx="593.49" cy="358.37" r="129.49"/>
                <circle class="cls-white-dwarf-6" cx="515.72" cy="223.45" r="78.82"/>
                <circle class="cls-white-dwarf-5" cx="599.71" cy="574.85" r="61.53"/>
                <circle class="cls-white-dwarf-8" cx="655.45" cy="520.79" r="39.41"/>
                <circle class="cls-white-dwarf-7" cx="229.85" cy="458.5" r="32.05"/>
                <circle class="cls-white-dwarf-10" cx="302.85" cy="323.99" r="92.76"/>
                <circle class="cls-white-dwarf-9" cx="432.53" cy="519.84" r="191.77"/>
            </g>
        </g>
    </g>
</svg>