<?xml version="1.0" encoding="UTF-8"?><svg id="Ebene_2" xmlns="http://www.w3.org/2000/svg" xmlns:xlink="http://www.w3.org/1999/xlink" viewBox="0 0 1000.02 1000.02"><defs><style>.cls-1{fill:url(#Unbenannter_Verlauf_14-10);}.cls-2{fill:url(#Unbenannter_Verlauf_14-4);}.cls-3{fill:url(#Unbenannter_Verlauf_14-2);}.cls-4{fill:url(#Unbenannter_Verlauf_14-8);}.cls-5{fill:url(#Unbenannter_Verlauf_14-3);}.cls-6{fill:url(#Unbenannter_Verlauf_14-5);}.cls-7{fill:url(#Unbenannter_Verlauf_14-6);}.cls-8{fill:url(#Unbenannter_Verlauf_14-7);}.cls-9{fill:url(#Unbenannter_Verlauf_14-9);}.cls-10{fill:url(#Unbenannter_Verlauf_62);opacity:.65;}.cls-11{fill:#eab7b7;}.cls-12{fill:#fff;}.cls-13{fill:#a2f2d7;}.cls-14{fill:url(#Unbenannter_Verlauf_14);}.cls-15{fill:url(#Unbenannter_Verlauf_8);}</style><linearGradient id="Unbenannter_Verlauf_8" x1="-95" y1="148.76" x2="877.8" y2="723.02" gradientUnits="userSpaceOnUse"><stop offset="0" stop-color="#412456"/><stop offset=".2" stop-color="#2e1a3d"/><stop offset=".36" stop-color="#241630"/><stop offset=".76" stop-color="#38204b"/><stop offset="1" stop-color="#412456"/></linearGradient><linearGradient id="Unbenannter_Verlauf_62" x1="445.92" y1="424.67" x2="651.99" y2="757.69" gradientUnits="userSpaceOnUse"><stop offset="0" stop-color="#6b247d" stop-opacity=".5"/><stop offset=".07" stop-color="#6f267e" stop-opacity=".53"/><stop offset=".18" stop-color="#7b2b82" stop-opacity=".62"/><stop offset=".31" stop-color="#8e3588" stop-opacity=".77"/><stop offset=".46" stop-color="#a94291" stop-opacity=".98"/><stop offset=".47" stop-color="#ac4492"/><stop offset=".56" stop-color="#a94291" stop-opacity=".98"/><stop offset=".66" stop-color="#a13e8e" stop-opacity=".92"/><stop offset=".77" stop-color="#95388a" stop-opacity=".82"/><stop offset=".88" stop-color="#833084" stop-opacity=".69"/><stop offset=".99" stop-color="#6d257d" stop-opacity=".52"/><stop offset="1" stop-color="#6b247d" stop-opacity=".5"/></linearGradient><radialGradient id="Unbenannter_Verlauf_14" cx="80.15" cy="546.27" fx="80.15" fy="546.27" r="18.44" gradientUnits="userSpaceOnUse"><stop offset="0" stop-color="#fcea0d"/><stop offset="0" stop-color="#fff" stop-opacity=".94"/><stop offset="1" stop-color="#fff" stop-opacity="0"/></radialGradient><radialGradient id="Unbenannter_Verlauf_14-2" cx="558.76" cy="179.72" fx="558.76" fy="179.72" xlink:href="#Unbenannter_Verlauf_14"/><radialGradient id="Unbenannter_Verlauf_14-3" cx="878.62" cy="512.34" fx="878.62" fy="512.34" xlink:href="#Unbenannter_Verlauf_14"/><radialGradient id="Unbenannter_Verlauf_14-4" cx="570.88" cy="864.69" fx="570.88" fy="864.69" xlink:href="#Unbenannter_Verlauf_14"/><radialGradient id="Unbenannter_Verlauf_14-5" cx="792.01" cy="109.21" fx="792.01" fy="109.21" xlink:href="#Unbenannter_Verlauf_14"/><radialGradient id="Unbenannter_Verlauf_14-6" cx="810.01" cy="667.21" fx="810.01" fy="667.21" xlink:href="#Unbenannter_Verlauf_14"/><radialGradient id="Unbenannter_Verlauf_14-7" cx="567.01" cy="451.21" fx="567.01" fy="451.21" xlink:href="#Unbenannter_Verlauf_14"/><radialGradient id="Unbenannter_Verlauf_14-8" cx="414.01" cy="613.21" fx="414.01" fy="613.21" r="18.44" xlink:href="#Unbenannter_Verlauf_14"/><radialGradient id="Unbenannter_Verlauf_14-9" cx="234.01" cy="829.21" fx="234.01" fy="829.21" r="18.44" xlink:href="#Unbenannter_Verlauf_14"/><radialGradient id="Unbenannter_Verlauf_14-10" cx="207.01" cy="280.21" fx="207.01" fy="280.21" r="18.44" xlink:href="#Unbenannter_Verlauf_14"/></defs><g id="design_1"><g><rect class="cls-15" width="1000.02" height="1000.02"/><path class="cls-10" d="m0,1000.02v-253.56s1.07-138.02,145.99-202.44c144.93-64.41,246.14,4.6,377.27-158.73,131.12-163.33,276.05-41.41,365.77-158.73s110.98-202.44,110.98-202.44v464.98s-55.77,136.39-239.81,198.51c-184.03,62.11-92.02,93.35-250.74,125.55-158.73,32.21-71.31,186.84-71.31,186.84H0Z"/><path class="cls-12" d="m586.87,864.69l-5.15,1.45c-4.55,1.28-8.11,4.84-9.39,9.39l-1.45,5.15-1.46-5.16c-1.28-4.54-4.83-8.09-9.37-9.37l-5.16-1.46,5.15-1.45c4.55-1.28,8.11-4.84,9.39-9.39l1.45-5.15,1.46,5.16c1.28,4.54,4.83,8.09,9.37,9.37l5.16,1.46Z"/><path class="cls-12" d="m96.14,546.27l-5.15,1.45c-4.55,1.28-8.11,4.84-9.39,9.39l-1.45,5.15-1.46-5.16c-1.28-4.54-4.83-8.09-9.37-9.37l-5.16-1.46,5.15-1.45c4.55-1.28,8.11-4.84,9.39-9.39l1.45-5.15,1.46,5.16c1.28,4.54,4.83,8.09,9.37,9.37l5.16,1.46Z"/><path class="cls-12" d="m894.61,512.34l-5.15,1.45c-4.55,1.28-8.11,4.84-9.39,9.39l-1.45,5.15-1.46-5.16c-1.28-4.54-4.83-8.09-9.37-9.37l-5.16-1.46,5.15-1.45c4.55-1.28,8.11-4.84,9.39-9.39l1.45-5.15,1.46,5.16c1.28,4.54,4.83,8.09,9.37,9.37l5.16,1.46Z"/><path class="cls-12" d="m574.75,179.72l-5.15,1.45c-4.55,1.28-8.11,4.84-9.39,9.39l-1.45,5.15-1.46-5.16c-1.28-4.54-4.83-8.09-9.37-9.37l-5.16-1.46,5.15-1.45c4.55-1.28,8.11-4.84,9.39-9.39l1.45-5.15,1.46,5.16c1.28,4.54,4.83,8.09,9.37,9.37l5.16,1.46Z"/><circle class="cls-12" cx="633.64" cy="319.99" r="3.87"/><circle class="cls-12" cx="718.71" cy="932.28" r="3.87"/><circle class="cls-12" cx="734.9" cy="744.87" r="3.87"/><circle class="cls-12" cx="487.34" cy="920.01" r="3.87"/><circle class="cls-12" cx="285.28" cy="659.95" r="3.87"/><circle class="cls-12" cx="270.01" cy="708.45" r="3.87"/><circle class="cls-12" cx="100.01" cy="592.28" r="3.87"/><circle class="cls-12" cx="92.27" cy="257.79" r="3.87"/><circle class="cls-12" cx="574.75" cy="600.02" r="3.87"/><circle class="cls-12" cx="308" cy="469.38" r="3.87"/><circle class="cls-12" cx="266.15" cy="195.71" r="3.87"/><circle class="cls-12" cx="178.61" cy="358.93" r="3.87"/><circle class="cls-12" cx="422.58" cy="88.84" r="3.87"/><circle class="cls-12" cx="564.55" cy="748.73" r="3.87"/><circle class="cls-12" cx="418.71" cy="301.61" r="3.87"/><circle class="cls-12" cx="655.37" cy="108.02" r="3.87"/><circle class="cls-12" cx="637.51" cy="69.42" r="3.87"/><circle class="cls-12" cx="801.01" cy="253.92" r="3.87"/><circle class="cls-12" cx="934.44" cy="341.05" r="3.87"/><circle class="cls-12" cx="764.8" cy="487.16" r="3.87"/><circle class="cls-12" cx="906.53" cy="656.08" r="3.87"/><circle class="cls-14" cx="80.15" cy="546.27" r="18.44"/><circle class="cls-3" cx="558.76" cy="179.72" r="18.44"/><circle class="cls-5" cx="878.62" cy="512.34" r="18.44"/><circle class="cls-2" cx="570.88" cy="864.69" r="18.44"/><g><path class="cls-12" d="m808,109.21l-5.15,1.45c-4.55,1.28-8.11,4.84-9.39,9.39l-1.45,5.15-1.46-5.16c-1.28-4.54-4.83-8.09-9.37-9.37l-5.16-1.46,5.15-1.45c4.55-1.28,8.11-4.84,9.39-9.39l1.45-5.15,1.46,5.16c1.28,4.54,4.83,8.09,9.37,9.37l5.16,1.46Z"/><circle class="cls-6" cx="792.01" cy="109.21" r="18.44"/></g><g><path class="cls-12" d="m826,667.21l-5.15,1.45c-4.55,1.28-8.11,4.84-9.39,9.39l-1.45,5.15-1.46-5.16c-1.28-4.54-4.83-8.09-9.37-9.37l-5.16-1.46,5.15-1.45c4.55-1.28,8.11-4.84,9.39-9.39l1.45-5.15,1.46,5.16c1.28,4.54,4.83,8.09,9.37,9.37l5.16,1.46Z"/><circle class="cls-7" cx="810.01" cy="667.21" r="18.44"/></g><g><path class="cls-12" d="m583,451.21l-5.15,1.45c-4.55,1.28-8.11,4.84-9.39,9.39l-1.45,5.15-1.46-5.16c-1.28-4.54-4.83-8.09-9.37-9.37l-5.16-1.46,5.15-1.45c4.55-1.28,8.11-4.84,9.39-9.39l1.45-5.15,1.46,5.16c1.28,4.54,4.83,8.09,9.37,9.37l5.16,1.46Z"/><circle class="cls-8" cx="567.01" cy="451.21" r="18.44"/></g><g><path class="cls-12" d="m430,613.21l-5.15,1.45c-4.55,1.28-8.11,4.84-9.39,9.39l-1.45,5.15-1.46-5.16c-1.28-4.54-4.83-8.09-9.37-9.37l-5.16-1.46,5.15-1.45c4.55-1.28,8.11-4.84,9.39-9.39l1.45-5.15,1.46,5.16c1.28,4.54,4.83,8.09,9.37,9.37l5.16,1.46Z"/><circle class="cls-4" cx="414.01" cy="613.21" r="18.44"/></g><g><path class="cls-12" d="m250,829.21l-5.15,1.45c-4.55,1.28-8.11,4.84-9.39,9.39l-1.45,5.15-1.46-5.16c-1.28-4.54-4.83-8.09-9.37-9.37l-5.16-1.46,5.15-1.45c4.55-1.28,8.11-4.84,9.39-9.39l1.45-5.15,1.46,5.16c1.28,4.54,4.83,8.09,9.37,9.37l5.16,1.46Z"/><circle class="cls-9" cx="234.01" cy="829.21" r="18.44"/></g><g><path class="cls-12" d="m223,280.21l-5.15,1.45c-4.55,1.28-8.11,4.84-9.39,9.39l-1.45,5.15-1.46-5.16c-1.28-4.54-4.83-8.09-9.37-9.37l-5.16-1.46,5.15-1.45c4.55-1.28,8.11-4.84,9.39-9.39l1.45-5.15,1.46,5.16c1.28,4.54,4.83,8.09,9.37,9.37l5.16,1.46Z"/><circle class="cls-1" cx="207.01" cy="280.21" r="18.44"/></g></g><g><path class="cls-13" d="m705.75,284.09c-55.27-55.27-128.75-85.71-206.91-85.71s-151.64,30.44-206.91,85.71c-55.27,55.27-85.71,128.75-85.71,206.91s30.44,151.64,85.71,206.91c55.27,55.27,128.75,85.71,206.91,85.71s151.64-30.44,206.91-85.71c55.27-55.27,85.71-128.75,85.71-206.91s-30.44-151.64-85.71-206.91Zm-382.69,206.91c0-12.98.55-25.76,1.6-38.29,26.86-3.81,56.88-6.68,88.85-8.51-.71,15.33-1.07,30.97-1.07,46.8s.37,31.47,1.07,46.8c-31.97-1.83-61.99-4.7-88.85-8.51-1.05-12.53-1.6-25.3-1.6-38.29Zm-7.08,37.01c-7-1.07-13.76-2.21-20.27-3.42-59.7-11.06-80.97-24.61-80.97-33.59s21.27-22.53,80.97-33.59c6.5-1.21,13.27-2.34,20.27-3.42-.96,12.18-1.45,24.54-1.45,37.01s.49,24.83,1.45,37.01Zm236.83-239.74c11.6,40.71,19.27,91.57,22.36,146.9-24.57-1.24-50.19-1.88-76.33-1.88s-51.76.64-76.33,1.88c3.09-55.34,10.76-106.19,22.36-146.9,14.73-51.71,34.4-81.36,53.97-81.36s39.25,29.65,53.97,81.36Zm-29.45-78.58c75.81,17.18,136.25,112.79,148.83,234.29-26.84-3.74-56.71-6.55-88.46-8.35-3.09-56.33-10.89-108.18-22.72-149.7-6.69-23.5-19.15-58.44-37.65-76.24Zm53.34,281.31c0,16-.37,31.79-1.1,47.26-24.69,1.26-50.45,1.91-76.77,1.91s-52.08-.65-76.77-1.91c-.73-15.47-1.1-31.27-1.1-47.26s.37-31.79,1.1-47.26c24.69-1.26,50.45-1.91,76.77-1.91s52.08.65,76.77,1.91c.73,15.47,1.1,31.27,1.1,47.26Zm-140.04-205.06c-11.83,41.52-19.62,93.37-22.72,149.7-31.76,1.8-61.62,4.61-88.46,8.35,12.57-121.5,73.02-217.11,148.83-234.29-18.5,17.8-30.96,52.75-37.65,76.24Zm-22.72,260.43c3.09,56.33,10.89,108.18,22.72,149.7,6.69,23.5,19.15,58.44,37.65,76.24-75.81-17.18-136.25-112.79-148.83-234.29,26.84,3.74,56.71,6.55,88.46,8.35Zm30.92,147.36c-11.6-40.71-19.27-91.57-22.36-146.9,24.57,1.24,50.19,1.88,76.33,1.88s51.76-.64,76.33-1.88c-3.09,55.34-10.76,106.19-22.36,146.9-14.73,51.71-34.4,81.36-53.97,81.36s-39.25-29.65-53.97-81.36Zm116.15,2.34c11.83-41.52,19.63-93.36,22.72-149.7,31.76-1.8,61.62-4.61,88.46-8.35-12.57,121.5-73.02,217.11-148.83,234.29,18.5-17.8,30.96-52.74,37.65-76.24Zm23.15-158.27c.71-15.33,1.07-30.97,1.07-46.8s-.37-31.46-1.07-46.8c31.97,1.83,61.99,4.7,88.85,8.51,1.05,12.53,1.6,25.3,1.6,38.29s-.55,25.76-1.6,38.29c-26.86,3.81-56.88,6.68-88.85,8.51Zm97.53-83.81c7,1.07,13.76,2.21,20.27,3.42,59.7,11.06,80.97,24.61,80.97,33.59s-21.27,22.53-80.97,33.59c-6.5,1.21-13.27,2.34-20.27,3.42.96-12.18,1.45-24.54,1.45-37.01s-.49-24.83-1.45-37.01Zm18.03-163.87c50.02,50.02,79.08,115.42,82.79,185.54-12.77-10.34-39.18-19.26-79-26.63-7.23-1.34-14.78-2.6-22.6-3.77-5.93-60.45-23.57-116.23-51.15-160.4-20.94-33.54-46.11-58-73.64-72.18,54.04,11.01,103.71,37.56,143.6,77.45Zm-401.76,0c39.89-39.89,89.56-66.44,143.6-77.45-27.53,14.18-52.7,38.64-73.64,72.18-27.58,44.17-45.22,99.95-51.15,160.4-7.82,1.18-15.37,2.44-22.6,3.77-39.82,7.38-66.23,16.3-79,26.63,3.71-70.11,32.77-135.51,82.79-185.54Zm0,401.76c-50.02-50.02-79.08-115.42-82.79-185.54,12.77,10.34,39.18,19.26,79,26.63,7.23,1.34,14.78,2.6,22.6,3.78,5.93,60.45,23.57,116.23,51.15,160.4,20.94,33.54,46.11,58,73.64,72.18-54.04-11.01-103.7-37.56-143.6-77.45Zm401.76,0c-39.89,39.89-89.56,66.44-143.6,77.45,27.53-14.18,52.7-38.64,73.64-72.18,27.58-44.17,45.22-99.95,51.15-160.4,7.82-1.18,15.37-2.44,22.6-3.78,39.81-7.38,66.23-16.3,79-26.63-3.71,70.11-32.77,135.51-82.79,185.54Z"/><g><rect class="cls-12" x="165.79" y="172.4" width="273.66" height="171.74" rx="29.09" ry="29.09"/><path class="cls-11" d="m416.1,348.15h-226.96c-15.09,0-27.36-12.27-27.36-27.36v-125.04c0-15.09,12.27-27.36,27.36-27.36h226.96c15.09,0,27.36,12.27,27.36,27.36v125.04c0,15.09-12.27,27.36-27.36,27.36Zm-226.96-171.74c-10.66,0-19.33,8.67-19.33,19.33v125.04c0,10.66,8.67,19.33,19.33,19.33h226.96c10.66,0,19.33-8.67,19.33-19.33v-125.04c0-10.66-8.67-19.33-19.33-19.33h-226.96Z"/><path class="cls-11" d="m304.04,266.98c-6.79,0-13.57-1.28-19.92-3.85l-102.17-41.27,3.01-7.44,102.17,41.27c11.1,4.48,23.77,4.34,34.76-.38l95.12-40.86,3.17,7.37-95.12,40.86c-6.66,2.86-13.83,4.29-21.01,4.29Z"/></g><g><path class="cls-12" d="m805.66,615.98h-170.77c-15.78,0-28.57,12.79-28.57,28.57v114.6c0,15.78,12.79,28.57,28.57,28.57h13.96v36.06c0,3.23,3.75,5,6.24,2.96l47.62-39.02h102.95c15.78,0,28.57-12.79,28.57-28.57v-114.6c0-15.78-12.79-28.57-28.57-28.57Z"/><path class="cls-11" d="m652.69,831.63c-1.14,0-2.29-.25-3.37-.76-2.76-1.31-4.48-4.02-4.48-7.08v-32.05h-9.95c-17.97,0-32.58-14.62-32.58-32.58v-114.6c0-17.97,14.62-32.58,32.58-32.58h170.77c17.97,0,32.58,14.62,32.58,32.58v114.6c0,17.97-14.62,32.58-32.58,32.58h-101.51l-46.51,38.11c-1.44,1.18-3.18,1.79-4.95,1.79Zm-17.8-211.64c-13.54,0-24.56,11.02-24.56,24.56v114.6c0,13.54,11.02,24.56,24.56,24.56h17.98v39.67l48.42-39.67h104.38c13.54,0,24.56-11.02,24.56-24.56v-114.6c0-13.54-11.02-24.56-24.56-24.56h-170.77Z"/><circle class="cls-11" cx="668.57" cy="732.96" r="11.64"/><circle class="cls-11" cx="705.32" cy="732.96" r="11.64"/><circle class="cls-11" cx="742.06" cy="732.96" r="11.64"/></g></g></g></svg>