<?xml version="1.0" encoding="UTF-8"?><svg id="Ebene_2" xmlns="http://www.w3.org/2000/svg" xmlns:xlink="http://www.w3.org/1999/xlink" viewBox="0 0 926.92 616.06"><defs><style>.cls-1{fill:url(#Unbenannter_Verlauf_14-4);}.cls-2{fill:url(#Unbenannter_Verlauf_14-2);}.cls-3{fill:url(#Unbenannter_Verlauf_14-3);}.cls-4{fill:url(#Unbenannter_Verlauf_14-5);}.cls-5{fill:#f7cc2b;}.cls-6,.cls-7,.cls-8{fill:#fff;}.cls-9{fill:#f08316;}.cls-10{fill:#fbeaa7;}.cls-11{fill:#a22d7f;}.cls-12{fill:#e51c3b;}.cls-13{fill:#3b2e87;}.cls-14{opacity:.5;}.cls-15{fill:url(#Unbenannter_Verlauf_14);}.cls-16{fill:#c4549a;opacity:.55;}.cls-17{fill:#f7a63b;}.cls-17,.cls-7{opacity:.8;}.cls-18{fill:#584b9a;opacity:.75;}.cls-8{opacity:.45;}.cls-19{fill:#eb5d60;opacity:.65;}</style><radialGradient id="Unbenannter_Verlauf_14" cx="681.81" cy="426.79" fx="681.81" fy="426.79" r="29.83" gradientTransform="matrix(1, 0, 0, 1, 0, 0)" gradientUnits="userSpaceOnUse"><stop offset="0" stop-color="#fcea10"/><stop offset="0" stop-color="#fff" stop-opacity=".94"/><stop offset="1" stop-color="#fff" stop-opacity="0"/></radialGradient><radialGradient id="Unbenannter_Verlauf_14-2" cx="168.95" cy="212.21" fx="168.95" fy="212.21" r="18.44" xlink:href="#Unbenannter_Verlauf_14"/><radialGradient id="Unbenannter_Verlauf_14-3" cx="351.95" cy="334.76" fx="351.95" fy="334.76" r="18.44" xlink:href="#Unbenannter_Verlauf_14"/><radialGradient id="Unbenannter_Verlauf_14-4" cx="795.7" cy="57.56" fx="795.7" fy="57.56" r="37.83" xlink:href="#Unbenannter_Verlauf_14"/><radialGradient id="Unbenannter_Verlauf_14-5" cx="166.52" cy="464.62" fx="166.52" fy="464.62" r="37.83" xlink:href="#Unbenannter_Verlauf_14"/></defs><g id="final"><g><path class="cls-16" d="M879.16,179.12c-29.92-103.48-228.8-136.87-444.22-74.59C219.53,166.82,69.15,301.19,99.07,404.67c29.92,103.48,228.8,136.87,444.22,74.59,215.42-62.29,365.79-196.66,335.87-300.14Zm-359.98,253.87c-174.52,62.05-340.16,44.39-369.96-39.44-29.81-83.83,87.51-202.09,262.02-264.14,174.52-62.05,340.16-44.39,369.96,39.44s-87.51,202.09-262.02,264.14Z"/><g class="cls-14"><path class="cls-18" d="M913.56,139.09C866.53,17.98,633.81-4.62,393.76,88.6,153.71,181.82-2.77,355.56,44.26,476.67c47.03,121.1,279.75,143.71,519.8,50.49s396.52-266.97,349.5-388.07Zm-370.27,340.17c-215.42,62.29-414.3,28.89-444.22-74.59-29.92-103.48,120.46-237.86,335.87-300.14,215.42-62.29,414.3-28.89,444.22,74.59s-120.46,237.86-335.87,300.14Z"/></g><path class="cls-13" d="M277.99,148.13c-1.75,0-3.44-.92-4.36-2.55-1.35-2.41-.5-5.46,1.9-6.81,36.59-20.6,75.76-39.05,116.41-54.84,50.86-19.75,102.39-34.73,153.17-44.54,49.12-9.48,96.44-13.92,140.6-13.18,2.76,.05,4.96,2.32,4.92,5.08-.04,2.73-2.27,4.92-5,4.92-.03,0-.06,0-.08,0-88.48-1.47-191.46,18.78-289.98,57.04-40.21,15.62-78.94,33.86-115.12,54.23-.78,.44-1.62,.64-2.45,.64Z"/><path class="cls-13" d="M56.37,356.29c-.74,0-1.48-.16-2.19-.51-2.48-1.21-3.51-4.21-2.3-6.69,12.97-26.57,31.72-53.56,55.74-80.24,1.85-2.05,5.01-2.22,7.06-.37,2.05,1.85,2.22,5.01,.37,7.06-23.4,25.98-41.63,52.21-54.19,77.93-.87,1.78-2.65,2.81-4.5,2.81Z"/><path class="cls-13" d="M281.62,589.61c-59.48,0-112.49-9.39-153.53-27.21-43.98-19.1-74.58-48.12-88.48-83.92-9.95-25.61-11.37-53.93-4.22-84.17,.63-2.69,3.33-4.35,6.02-3.72,2.69,.64,4.35,3.33,3.72,6.02-6.67,28.23-5.39,54.56,3.81,78.25,13.1,33.73,41.07,60.1,83.14,78.37,40.71,17.68,93.75,26.8,153.53,26.37h.04c2.74,0,4.98,2.21,5,4.96,.02,2.76-2.2,5.02-4.96,5.04-1.35,0-2.71,.01-4.05,.01Z"/><path class="cls-13" d="M771.87,416.99c-1.5,0-2.98-.67-3.96-1.94-1.69-2.18-1.29-5.33,.9-7.01,28.21-21.8,53.16-44.69,74.16-68.04,1.85-2.05,5.01-2.22,7.06-.37,2.05,1.85,2.22,5.01,.37,7.06-21.4,23.8-46.8,47.1-75.48,69.26-.91,.7-1.99,1.04-3.05,1.04Z"/><path class="cls-13" d="M873.76,315.01c-1.02,0-2.05-.31-2.93-.95-2.23-1.62-2.73-4.75-1.11-6.98,21.59-29.73,35.98-58.99,42.76-86.97,6.93-28.59,5.73-55.24-3.58-79.21-20.93-53.89-81.53-89.77-170.65-101.03-2.74-.35-4.68-2.85-4.33-5.59,.35-2.74,2.84-4.68,5.59-4.33,92.93,11.74,156.39,49.86,178.71,107.33,10.06,25.9,11.4,54.56,3.97,85.18-7.09,29.26-22.03,59.7-44.39,90.49-.98,1.35-2.5,2.06-4.05,2.06Z"/><path class="cls-11" d="M335.15,515.62c-9.56,0-18.94-.24-28.52-.73h-1.13c-54.86-2.8-102.97-13.76-139.13-31.68-38.02-18.84-62.95-45.52-72.1-77.15-8.15-28.2-3.91-58.79,12.62-90.94,1.26-2.46,4.28-3.42,6.73-2.16s3.42,4.28,2.16,6.73c-15.32,29.8-19.32,57.92-11.9,83.59,8.46,29.27,30.98,53.15,66.93,70.97,34.92,17.31,81.63,27.9,135.08,30.64h1.13c18.02,.92,35.37,.97,54.58,.13,2.75-.13,5.09,2.02,5.21,4.78,.12,2.76-2.02,5.09-4.78,5.21-9.29,.4-18.16,.6-26.88,.6Z"/><path class="cls-11" d="M465.24,502.87c-2.36,0-4.46-1.68-4.91-4.08-.51-2.71,1.28-5.33,3.99-5.84,25.72-4.83,51.83-11.06,77.58-18.5,8.32-2.41,16.7-4.97,24.9-7.61,2.63-.85,5.45,.59,6.29,3.22,.85,2.63-.6,5.45-3.22,6.29-8.3,2.68-16.78,5.27-25.19,7.7-26.06,7.53-52.48,13.83-78.51,18.72-.31,.06-.62,.09-.93,.09Z"/><path class="cls-11" d="M771.87,375.18c-1.52,0-3.03-.69-4.01-2.01-1.65-2.21-1.19-5.35,1.02-7,40.17-29.96,71.07-62.56,89.33-94.28,18.81-32.66,24.24-63.41,16.15-91.38-6.69-23.14-22.38-43.09-46.65-59.3-2.3-1.53-2.91-4.64-1.38-6.93,1.53-2.3,4.64-2.92,6.93-1.38,26.28,17.56,43.34,39.37,50.7,64.84,17.4,60.17-22.37,131.78-109.11,196.46-.9,.67-1.95,.99-2.99,.99Z"/><path class="cls-11" d="M434.94,109.53c-2.17,0-4.17-1.42-4.8-3.61-.77-2.65,.76-5.42,3.42-6.19,128.49-37.15,258.03-41.69,346.51-12.14,2.62,.87,4.03,3.71,3.16,6.33-.88,2.62-3.71,4.04-6.33,3.16-86.63-28.93-213.95-24.35-340.57,12.26-.46,.13-.93,.2-1.39,.2Z"/><ellipse class="cls-17" cx="457.13" cy="260.9" rx="261.88" ry="115.89" transform="translate(-66.93 211.95) rotate(-24.38)"/><path class="cls-19" d="M782.34,168.9c-29.81-83.83-195.44-101.49-369.96-39.44C237.86,191.51,120.55,309.77,150.36,393.6c29.81,83.83,195.44,101.49,369.96,39.44,174.52-62.05,291.83-180.31,262.02-264.14Zm-277.38,197.55c-131.74,59.7-259.95,60.84-286.37,2.54-26.42-58.3,58.96-153.95,190.7-213.65,131.74-59.7,259.95-60.84,286.37-2.54,26.42,58.3-58.96,153.95-190.7,213.65Z"/><path class="cls-9" d="M319.83,416.99c-54.83,0-92.35-16.26-105.79-45.92-13.64-30.11-.55-69.77,36.87-111.69,36.47-40.86,91.99-79.42,156.32-108.58,64.33-29.16,129.93-45.48,184.7-45.97,56.21-.48,94.64,15.81,108.29,45.91,13.64,30.11,.55,69.77-36.87,111.69-36.47,40.86-91.99,79.42-156.32,108.58-64.33,29.16-129.93,45.48-184.7,45.97-.83,0-1.67,.01-2.5,.01ZM594.46,114.82c-.81,0-1.62,0-2.44,.01-53.41,.47-117.57,16.48-180.66,45.07-63.09,28.59-117.43,66.28-152.99,106.13-34.62,38.79-47.13,74.62-35.22,100.9,11.72,25.87,46,40.05,96.65,40.05,.81,0,1.62,0,2.44-.01,53.41-.47,117.56-16.48,180.66-45.07,63.09-28.59,117.43-66.28,152.99-106.13,34.62-38.79,47.13-74.62,35.22-100.9-11.72-25.87-46-40.05-96.65-40.05Z"/><ellipse class="cls-10" cx="453.21" cy="247.4" rx="184.74" ry="77.59" transform="translate(-56.69 166.12) rotate(-19.57)"/><path class="cls-5" d="M360.8,348.2c-4.28,0-8.48-.11-12.57-.34-39.93-2.24-66.13-15.34-73.79-36.89s4.39-48.25,33.95-75.19c28.45-25.93,70.06-49.44,117.17-66.19s94.23-24.79,132.65-22.63c39.93,2.24,66.13,15.34,73.79,36.89s-4.39,48.25-33.95,75.19c-28.45,25.93-70.06,49.44-117.17,66.19-42.09,14.96-84.18,22.97-120.08,22.97Zm184.77-191.59c-34.75,0-75.65,7.81-116.68,22.4-45.88,16.31-86.29,39.1-113.78,64.16-26,23.71-37.4,47.2-31.26,64.45s29.8,28.28,64.93,30.25c37.15,2.08,82.86-5.75,128.74-22.07,45.88-16.31,86.29-39.1,113.78-64.16,26-23.71,37.4-47.2,31.26-64.45s-29.8-28.28-64.93-30.25c-3.93-.22-7.95-.33-12.06-.33Z"/><path class="cls-12" d="M320.99,475.12c-12.29,0-24.25-.51-35.82-1.56-2.75-.25-4.78-2.68-4.53-5.43,.25-2.75,2.69-4.78,5.43-4.53,68.06,6.12,150.26-6.4,231.47-35.27,83.51-29.69,156.47-73.16,205.45-122.4,1.95-1.96,5.11-1.97,7.07-.02,1.96,1.95,1.97,5.11,.02,7.07-50,50.27-124.29,94.58-209.19,124.77-68.79,24.46-138.4,37.37-199.9,37.37Z"/><path class="cls-12" d="M768.82,259.82c-.82,0-1.65-.2-2.42-.62-2.42-1.34-3.29-4.38-1.96-6.8,16.39-29.64,20.57-57.94,12.08-81.82-8.17-22.98-27.14-41.11-56.39-53.89-28.54-12.47-66.22-19.14-108.98-19.29-2.76,0-4.99-2.26-4.98-5.02,0-2.75,2.25-4.98,5-4.98h.02c44.12,.16,83.17,7.12,112.95,20.13,31.43,13.74,52.81,34.38,61.81,59.7,9.48,26.66,5.07,57.78-12.75,90.01-.91,1.65-2.62,2.58-4.38,2.58Z"/><path class="cls-12" d="M149.25,398.6c-2.06,0-3.98-1.28-4.71-3.33-6.6-18.56-6.57-38.99,.1-60.71,6.32-20.61,18.48-41.94,36.12-63.4,34.93-42.48,90.38-83.62,156.13-115.86,2.48-1.22,5.48-.19,6.69,2.29,1.22,2.48,.19,5.48-2.29,6.69-64.5,31.62-118.77,71.83-152.81,113.23-16.81,20.45-28.35,40.63-34.29,59.99-6.02,19.62-6.1,37.94-.24,54.43,.92,2.6-.43,5.46-3.04,6.39-.55,.2-1.12,.29-1.67,.29Z"/><g><ellipse class="cls-7" cx="460.31" cy="248.81" rx="72.81" ry="24.58" transform="translate(-51 137.65) rotate(-16.13)"/><path class="cls-8" d="M530.12,228.14c3.76,13.02-24.49,32.67-63.11,43.84-38.63,11.17-73.05,9.47-76.77-3.39-11.17-38.63,11.09-79,49.72-90.16,38.63-11.17,79,11.09,90.16,49.72Z"/></g><circle class="cls-13" cx="9.86" cy="341.42" r="9.86"/><circle class="cls-13" cx="320.37" cy="565.06" r="9.86"/><circle class="cls-11" cx="361.81" cy="606.2" r="9.86"/><circle class="cls-13" cx="245.81" cy="606.2" r="9.86"/><circle class="cls-11" cx="51.8" cy="303.46" r="9.86"/><circle class="cls-11" cx="726.53" cy="439.43" r="9.86"/><circle class="cls-12" cx="691.67" cy="395.46" r="9.86"/><circle class="cls-13" cx="748.74" cy="360.31" r="9.86"/><circle class="cls-13" cx="795.7" cy="449.29" r="9.86"/><circle class="cls-13" cx="882.96" cy="63.31" r="9.86"/><circle class="cls-13" cx="882.96" cy="126.61" r="9.86"/><circle class="cls-12" cx="827.41" cy="93.1" r="9.86"/><circle class="cls-11" cx="771.86" cy="116.75" r="9.86"/><circle class="cls-13" cx="776.34" cy="9.86" r="9.86"/><circle class="cls-13" cx="721.14" cy="14.2" r="9.86"/><circle class="cls-11" cx="342.08" cy="116.75" r="9.86"/><circle class="cls-13" cx="265.54" cy="212.21" r="9.86"/><circle class="cls-12" cx="203.94" cy="226.88" r="9.86"/><circle class="cls-11" cx="111.33" cy="470.05" r="9.86"/><circle class="cls-13" cx="111.33" cy="507.73" r="9.86"/><circle class="cls-13" cx="361.81" cy="63.31" r="9.86"/><circle class="cls-13" cx="285.63" cy="102.96" r="9.86"/><g><path class="cls-6" d="M704.86,426.79l-7.43,2.09c-6.56,1.84-11.68,6.97-13.53,13.53l-2.09,7.43-2.1-7.44c-1.85-6.55-6.96-11.67-13.51-13.51l-7.44-2.1,7.43-2.09c6.56-1.84,11.68-6.97,13.53-13.53l2.09-7.43,2.1,7.44c1.85,6.55,6.96,11.67,13.51,13.51l7.44,2.1Z"/><circle class="cls-15" cx="681.81" cy="426.79" r="29.83"/></g><g><path class="cls-6" d="M184.94,212.21l-5.15,1.45c-4.55,1.28-8.11,4.84-9.39,9.39l-1.45,5.15-1.46-5.16c-1.28-4.54-4.83-8.09-9.37-9.37l-5.16-1.46,5.15-1.45c4.55-1.28,8.11-4.84,9.39-9.39l1.45-5.15,1.46,5.16c1.28,4.54,4.83,8.09,9.37,9.37l5.16,1.46Z"/><circle class="cls-2" cx="168.95" cy="212.21" r="18.44"/></g><g><path class="cls-6" d="M367.94,334.76l-5.15,1.45c-4.55,1.28-8.11,4.84-9.39,9.39l-1.45,5.15-1.46-5.16c-1.28-4.54-4.83-8.09-9.37-9.37l-5.16-1.46,5.15-1.45c4.55-1.28,8.11-4.84,9.39-9.39l1.45-5.15,1.46,5.16c1.28,4.54,4.83,8.09,9.37,9.37l5.16,1.46Z"/><circle class="cls-3" cx="351.95" cy="334.76" r="18.44"/></g><g><path class="cls-6" d="M827.89,57.56l-10.37,2.92c-9.16,2.58-16.32,9.73-18.89,18.89l-2.92,10.37-2.93-10.38c-2.58-9.14-9.72-16.29-18.87-18.87l-10.38-2.93,10.37-2.92c9.16-2.58,16.32-9.73,18.89-18.89l2.92-10.37,2.93,10.38c2.58,9.14,9.72,16.29,18.87,18.87l10.38,2.93Z"/><circle class="cls-1" cx="795.7" cy="57.56" r="37.83"/></g><g><path class="cls-6" d="M198.7,464.62l-10.37,2.92c-9.16,2.58-16.32,9.73-18.89,18.89l-2.92,10.37-2.93-10.38c-2.58-9.14-9.72-16.29-18.87-18.87l-10.38-2.93,10.37-2.92c9.16-2.58,16.32-9.73,18.89-18.89l2.92-10.37,2.93,10.38c2.58,9.14,9.72,16.29,18.87,18.87l10.38,2.93Z"/><circle class="cls-4" cx="166.52" cy="464.62" r="37.83"/></g></g></g></svg>