<?xml version="1.0" encoding="UTF-8"?><svg id="Ebene_2" xmlns="http://www.w3.org/2000/svg" xmlns:xlink="http://www.w3.org/1999/xlink" viewBox="0 0 1001.02 1000"><defs><style>.cls-1{fill:url(#Unbenannter_Verlauf_14-22);}.cls-2{fill:url(#Unbenannter_Verlauf_14-20);}.cls-3{fill:url(#Unbenannter_Verlauf_14-21);}.cls-4{fill:url(#Unbenannter_Verlauf_14-13);}.cls-5{fill:url(#Unbenannter_Verlauf_14-18);}.cls-6{fill:url(#Unbenannter_Verlauf_14-19);}.cls-7{fill:url(#Unbenannter_Verlauf_14-17);}.cls-8{fill:url(#Unbenannter_Verlauf_14-12);}.cls-9{fill:url(#Unbenannter_Verlauf_14-10);}.cls-10{fill:url(#Unbenannter_Verlauf_14-11);}.cls-11{fill:url(#Unbenannter_Verlauf_14-16);}.cls-12{fill:url(#Unbenannter_Verlauf_14-14);}.cls-13{fill:url(#Unbenannter_Verlauf_14-15);}.cls-14{fill:url(#Unbenannter_Verlauf_69-5);}.cls-15{fill:url(#Unbenannter_Verlauf_69-7);}.cls-16{fill:url(#Unbenannter_Verlauf_69-2);}.cls-17{fill:url(#Unbenannter_Verlauf_69-4);}.cls-18{fill:url(#Unbenannter_Verlauf_69-6);}.cls-19{fill:url(#Unbenannter_Verlauf_69-3);}.cls-20{fill:url(#Unbenannter_Verlauf_51-5);}.cls-21{fill:url(#Unbenannter_Verlauf_51-4);}.cls-22{fill:url(#Unbenannter_Verlauf_51-3);}.cls-23{fill:url(#Unbenannter_Verlauf_51-2);}.cls-24{fill:url(#Unbenannter_Verlauf_14-4);}.cls-25{fill:url(#Unbenannter_Verlauf_14-2);}.cls-26{fill:url(#Unbenannter_Verlauf_14-8);}.cls-27{fill:url(#Unbenannter_Verlauf_14-3);}.cls-28{fill:url(#Unbenannter_Verlauf_14-5);}.cls-29{fill:url(#Unbenannter_Verlauf_14-6);}.cls-30{fill:url(#Unbenannter_Verlauf_14-7);}.cls-31{fill:url(#Unbenannter_Verlauf_14-9);}.cls-32{fill:#fff;}.cls-33{fill:#1b1532;}.cls-34{fill:url(#Unbenannter_Verlauf_295);}.cls-35{fill:url(#Unbenannter_Verlauf_297);}.cls-36{fill:url(#Unbenannter_Verlauf_69);}.cls-37{fill:url(#Unbenannter_Verlauf_51);}.cls-38{fill:url(#Unbenannter_Verlauf_14);}</style><radialGradient id="Unbenannter_Verlauf_295" cx="258.45" cy="257.61" fx="258.45" fy="257.61" r="1400.42" gradientTransform="translate(0 1555.66) scale(1 1.26)" gradientUnits="userSpaceOnUse"><stop offset=".84" stop-color="#221d43"/><stop offset=".88" stop-color="#211c41" stop-opacity=".94"/><stop offset=".92" stop-color="#201b3e" stop-opacity=".76"/><stop offset=".96" stop-color="#1e1839" stop-opacity=".45"/><stop offset="1" stop-color="#1b1532" stop-opacity=".03"/><stop offset="1" stop-color="#1b1532" stop-opacity="0"/></radialGradient><radialGradient id="Unbenannter_Verlauf_297" cx="200.55" cy="-24.21" fx="200.55" fy="-24.21" r="1359.71" gradientTransform="translate(0 2315.77) scale(1 1.4)" gradientUnits="userSpaceOnUse"><stop offset=".87" stop-color="#2a2458"/><stop offset=".89" stop-color="#292357" stop-opacity=".95"/><stop offset=".92" stop-color="#282254" stop-opacity=".81"/><stop offset=".95" stop-color="#26214f" stop-opacity=".58"/><stop offset=".98" stop-color="#241e48" stop-opacity=".26"/><stop offset="1" stop-color="#221d43" stop-opacity="0"/></radialGradient><radialGradient id="Unbenannter_Verlauf_14" cx="76.87" cy="432.46" fx="76.87" fy="432.46" r="14.16" gradientUnits="userSpaceOnUse"><stop offset="0" stop-color="#fcea10"/><stop offset="0" stop-color="#fff" stop-opacity=".94"/><stop offset="1" stop-color="#fff" stop-opacity="0"/></radialGradient><radialGradient id="Unbenannter_Verlauf_14-2" cx="515.02" cy="181" fx="515.02" fy="181" r="14.16" xlink:href="#Unbenannter_Verlauf_14"/><radialGradient id="Unbenannter_Verlauf_14-3" cx="434.02" cy="541" fx="434.02" fy="541" r="14.16" xlink:href="#Unbenannter_Verlauf_14"/><radialGradient id="Unbenannter_Verlauf_14-4" cx="308.02" cy="927" fx="308.02" fy="927" r="14.16" xlink:href="#Unbenannter_Verlauf_14"/><radialGradient id="Unbenannter_Verlauf_14-5" cx="749.02" cy="100" fx="749.02" fy="100" r="14.16" xlink:href="#Unbenannter_Verlauf_14"/><radialGradient id="Unbenannter_Verlauf_14-6" cx="637.19" cy="525.31" fx="637.19" fy="525.31" r="14.16" xlink:href="#Unbenannter_Verlauf_14"/><radialGradient id="Unbenannter_Verlauf_14-7" cx="902.02" cy="514" fx="902.02" fy="514" r="14.16" xlink:href="#Unbenannter_Verlauf_14"/><radialGradient id="Unbenannter_Verlauf_14-8" cx="812.02" cy="658" fx="812.02" fy="658" r="14.16" xlink:href="#Unbenannter_Verlauf_14"/><radialGradient id="Unbenannter_Verlauf_14-9" cx="154.33" cy="781.88" fx="154.33" fy="781.88" r="14.16" xlink:href="#Unbenannter_Verlauf_14"/><radialGradient id="Unbenannter_Verlauf_14-10" cx="218.02" cy="271" fx="218.02" fy="271" r="14.16" xlink:href="#Unbenannter_Verlauf_14"/><radialGradient id="Unbenannter_Verlauf_14-11" cx="1393.67" cy="-1023.06" fx="1393.67" fy="-1023.06" r="10.28" gradientTransform="translate(-1087.84 1457.56) rotate(16.99)" xlink:href="#Unbenannter_Verlauf_14"/><radialGradient id="Unbenannter_Verlauf_14-12" cx="1380.29" cy="-947.62" fx="1380.29" fy="-947.62" r="10.28" gradientTransform="translate(-1087.84 1457.56) rotate(16.99)" xlink:href="#Unbenannter_Verlauf_14"/><radialGradient id="Unbenannter_Verlauf_14-13" cx="1268.59" cy="-1018.98" fx="1268.59" fy="-1018.98" r="10.28" gradientTransform="translate(-1087.84 1457.56) rotate(16.99)" xlink:href="#Unbenannter_Verlauf_14"/><radialGradient id="Unbenannter_Verlauf_14-14" cx="1156.89" cy="-1053.11" fx="1156.89" fy="-1053.11" r="10.28" gradientTransform="translate(-1087.84 1457.56) rotate(16.99)" xlink:href="#Unbenannter_Verlauf_14"/><radialGradient id="Unbenannter_Verlauf_14-15" cx="1097.94" cy="-1009.67" fx="1097.94" fy="-1009.67" r="10.28" gradientTransform="translate(-1087.84 1457.56) rotate(16.99)" xlink:href="#Unbenannter_Verlauf_14"/><radialGradient id="Unbenannter_Verlauf_14-16" cx="1287.2" cy="-947.62" fx="1287.2" fy="-947.62" r="13.04" gradientTransform="translate(-1087.84 1457.56) rotate(16.99)" xlink:href="#Unbenannter_Verlauf_14"/><radialGradient id="Unbenannter_Verlauf_14-17" cx="1215.84" cy="-1043.8" fx="1215.84" fy="-1043.8" r="13.04" gradientTransform="translate(-1087.84 1457.56) rotate(16.99)" xlink:href="#Unbenannter_Verlauf_14"/><radialGradient id="Unbenannter_Verlauf_14-18" cx="-4861.56" cy="3738.58" fx="-4861.56" fy="3738.58" r="9.96" gradientTransform="translate(454.1 -5826.47) rotate(-56.55)" xlink:href="#Unbenannter_Verlauf_14"/><radialGradient id="Unbenannter_Verlauf_14-19" cx="-4907.58" cy="3676.42" fx="-4907.58" fy="3676.42" r="9.96" gradientTransform="translate(454.1 -5826.47) rotate(-56.55)" xlink:href="#Unbenannter_Verlauf_14"/><radialGradient id="Unbenannter_Verlauf_14-20" cx="-5006.73" cy="3640.37" fx="-5006.73" fy="3640.37" r="9.96" gradientTransform="translate(454.1 -5826.47) rotate(-56.55)" xlink:href="#Unbenannter_Verlauf_14"/><radialGradient id="Unbenannter_Verlauf_14-21" cx="-4958.66" cy="3691.45" fx="-4958.66" fy="3691.45" r="12.63" gradientTransform="translate(454.1 -5826.47) rotate(-56.55)" xlink:href="#Unbenannter_Verlauf_14"/><radialGradient id="Unbenannter_Verlauf_14-22" cx="-4820.44" cy="3688.44" fx="-4820.44" fy="3688.44" r="12.63" gradientTransform="translate(454.1 -5826.47) rotate(-56.55)" xlink:href="#Unbenannter_Verlauf_14"/><linearGradient id="Unbenannter_Verlauf_69" x1="-13182.17" y1="789.44" x2="-13182.17" y2="631.12" gradientTransform="translate(-13012.27) rotate(-180) scale(1 -1)" gradientUnits="userSpaceOnUse"><stop offset="0" stop-color="#a3d3bd"/><stop offset=".11" stop-color="#94cdb3" stop-opacity=".96"/><stop offset=".15" stop-color="#8dcaae" stop-opacity=".94"/><stop offset=".24" stop-color="#7cc4a4" stop-opacity=".8"/><stop offset=".39" stop-color="#5ab992" stop-opacity=".5"/><stop offset=".57" stop-color="#46b384" stop-opacity=".28"/><stop offset=".74" stop-color="#37b07a" stop-opacity=".13"/><stop offset=".89" stop-color="#2fad74" stop-opacity=".03"/><stop offset="1" stop-color="#2cad72" stop-opacity="0"/></linearGradient><linearGradient id="Unbenannter_Verlauf_51" x1="315.82" y1="763.38" x2="315.82" y2="602.83" gradientTransform="translate(-34.06)" gradientUnits="userSpaceOnUse"><stop offset="0" stop-color="#b8e1ee"/><stop offset=".07" stop-color="#abdcec" stop-opacity=".92"/><stop offset=".23" stop-color="#8cd2e7" stop-opacity=".73"/><stop offset=".39" stop-color="#69c6e3" stop-opacity=".5"/><stop offset=".46" stop-color="#5fc4e1" stop-opacity=".41"/><stop offset=".63" stop-color="#4dc0df" stop-opacity=".23"/><stop offset=".78" stop-color="#40bedd" stop-opacity=".1"/><stop offset=".91" stop-color="#38bcdc" stop-opacity=".03"/><stop offset="1" stop-color="#36bcdc" stop-opacity="0"/></linearGradient><linearGradient id="Unbenannter_Verlauf_69-2" x1="-13401.72" y1="740.08" x2="-13401.72" y2="581.76" xlink:href="#Unbenannter_Verlauf_69"/><linearGradient id="Unbenannter_Verlauf_51-2" x1="535.37" y1="714.02" x2="535.37" y2="553.47" xlink:href="#Unbenannter_Verlauf_51"/><linearGradient id="Unbenannter_Verlauf_69-3" x1="-13622.29" y1="693.19" x2="-13622.29" y2="534.87" xlink:href="#Unbenannter_Verlauf_69"/><linearGradient id="Unbenannter_Verlauf_51-3" x1="755.94" y1="667.13" x2="755.94" y2="506.58" xlink:href="#Unbenannter_Verlauf_51"/><linearGradient id="Unbenannter_Verlauf_69-4" x1="-13842.37" y1="644.3" x2="-13842.37" y2="485.98" xlink:href="#Unbenannter_Verlauf_69"/><linearGradient id="Unbenannter_Verlauf_69-5" x1="782.31" y1="585.6" x2="782.31" y2="294.55" gradientTransform="matrix(1, 0, 0, 1, 0, 0)" xlink:href="#Unbenannter_Verlauf_69"/><linearGradient id="Unbenannter_Verlauf_51-4" x1="-13617.19" y1="537.68" x2="-13617.19" y2="242.54" gradientTransform="translate(-12978.21) rotate(-180) scale(1 -1)" xlink:href="#Unbenannter_Verlauf_51"/><linearGradient id="Unbenannter_Verlauf_69-6" x1="499.68" y1="499.4" x2="499.68" y2="208.35" gradientTransform="matrix(1, 0, 0, 1, 0, 0)" xlink:href="#Unbenannter_Verlauf_69"/><linearGradient id="Unbenannter_Verlauf_51-5" x1="-13334.57" y1="451.48" x2="-13334.57" y2="156.34" gradientTransform="translate(-12978.21) rotate(-180) scale(1 -1)" xlink:href="#Unbenannter_Verlauf_51"/><linearGradient id="Unbenannter_Verlauf_69-7" x1="217.69" y1="409.53" x2="217.69" y2="118.48" gradientTransform="matrix(1, 0, 0, 1, 0, 0)" xlink:href="#Unbenannter_Verlauf_69"/></defs><g id="final_s_"><g><g><rect class="cls-33" x="1.01" width="1000" height="1000"/><path class="cls-34" d="m1001.01,386.06C812.24,222.92,540.79,120.61,239.11,120.61c-81.95,0-161.67,7.55-238.11,21.82v857.57h1000V386.06Z"/><path class="cls-35" d="m1001.02,746.29c-188.04-224.19-490.23-369.59-830.98-369.59-57.57,0-114.04,4.15-169.04,12.13v611.17h1000.01v-253.71Z"/></g><circle class="cls-32" cx="634.65" cy="311.99" r="3.87"/><circle class="cls-32" cx="719.71" cy="924.28" r="3.87"/><circle class="cls-32" cx="735.91" cy="736.87" r="3.87"/><circle class="cls-32" cx="488.35" cy="912.01" r="3.87"/><circle class="cls-32" cx="286.29" cy="651.95" r="3.87"/><circle class="cls-32" cx="271.02" cy="700.45" r="3.87"/><circle class="cls-32" cx="101.02" cy="584.28" r="3.87"/><circle class="cls-32" cx="93.28" cy="249.79" r="3.87"/><circle class="cls-32" cx="575.76" cy="592.02" r="3.87"/><circle class="cls-32" cx="309.01" cy="461.38" r="3.87"/><circle class="cls-32" cx="267.16" cy="187.71" r="3.87"/><circle class="cls-32" cx="179.62" cy="350.93" r="3.87"/><circle class="cls-32" cx="423.59" cy="80.84" r="3.87"/><circle class="cls-32" cx="565.56" cy="740.73" r="3.87"/><circle class="cls-32" cx="419.72" cy="293.61" r="3.87"/><circle class="cls-32" cx="656.38" cy="100.02" r="3.87"/><circle class="cls-32" cx="638.52" cy="61.42" r="3.87"/><circle class="cls-32" cx="802.02" cy="245.92" r="3.87"/><circle class="cls-32" cx="935.44" cy="333.05" r="3.87"/><circle class="cls-32" cx="765.81" cy="479.16" r="3.87"/><circle class="cls-32" cx="907.54" cy="648.08" r="3.87"/><g><path class="cls-32" d="m89.15,432.46l-3.96,1.11c-3.49.98-6.22,3.71-7.21,7.21l-1.11,3.96-1.12-3.96c-.98-3.49-3.71-6.21-7.2-7.2l-3.96-1.12,3.96-1.11c3.49-.98,6.22-3.71,7.21-7.21l1.11-3.96,1.12,3.96c.98,3.49,3.71,6.21,7.2,7.2l3.96,1.12Z"/><circle class="cls-38" cx="76.87" cy="432.46" r="14.16"/></g><g><path class="cls-32" d="m527.29,181l-3.96,1.11c-3.49.98-6.22,3.71-7.21,7.21l-1.11,3.96-1.12-3.96c-.98-3.49-3.71-6.21-7.2-7.2l-3.96-1.12,3.96-1.11c3.49-.98,6.22-3.71,7.21-7.21l1.11-3.96,1.12,3.96c.98,3.49,3.71,6.21,7.2,7.2l3.96,1.12Z"/><circle class="cls-25" cx="515.02" cy="181" r="14.16"/></g><g><path class="cls-32" d="m446.29,541l-3.96,1.11c-3.49.98-6.22,3.71-7.21,7.21l-1.11,3.96-1.12-3.96c-.98-3.49-3.71-6.21-7.2-7.2l-3.96-1.12,3.96-1.11c3.49-.98,6.22-3.71,7.21-7.21l1.11-3.96,1.12,3.96c.98,3.49,3.71,6.21,7.2,7.2l3.96,1.12Z"/><circle class="cls-27" cx="434.02" cy="541" r="14.16"/></g><g><path class="cls-32" d="m320.29,927l-3.96,1.11c-3.49.98-6.22,3.71-7.21,7.21l-1.11,3.96-1.12-3.96c-.98-3.49-3.71-6.21-7.2-7.2l-3.96-1.12,3.96-1.11c3.49-.98,6.22-3.71,7.21-7.21l1.11-3.96,1.12,3.96c.98,3.49,3.71,6.21,7.2,7.2l3.96,1.12Z"/><circle class="cls-24" cx="308.02" cy="927" r="14.16"/></g><g><path class="cls-32" d="m761.29,100l-3.96,1.11c-3.49.98-6.22,3.71-7.21,7.21l-1.11,3.96-1.12-3.96c-.98-3.49-3.71-6.21-7.2-7.2l-3.96-1.12,3.96-1.11c3.49-.98,6.22-3.71,7.21-7.21l1.11-3.96,1.12,3.96c.98,3.49,3.71,6.21,7.2,7.2l3.96,1.12Z"/><circle class="cls-28" cx="749.02" cy="100" r="14.16"/></g><g><path class="cls-32" d="m649.46,525.31l-3.96,1.11c-3.49.98-6.22,3.71-7.21,7.21l-1.11,3.96-1.12-3.96c-.98-3.49-3.71-6.21-7.2-7.2l-3.96-1.12,3.96-1.11c3.49-.98,6.22-3.71,7.21-7.21l1.11-3.96,1.12,3.96c.98,3.49,3.71,6.21,7.2,7.2l3.96,1.12Z"/><circle class="cls-29" cx="637.19" cy="525.31" r="14.16"/></g><g><path class="cls-32" d="m914.29,514l-3.96,1.11c-3.49.98-6.22,3.71-7.21,7.21l-1.11,3.96-1.12-3.96c-.98-3.49-3.71-6.21-7.2-7.2l-3.96-1.12,3.96-1.11c3.49-.98,6.22-3.71,7.21-7.21l1.11-3.96,1.12,3.96c.98,3.49,3.71,6.21,7.2,7.2l3.96,1.12Z"/><circle class="cls-30" cx="902.02" cy="514" r="14.16"/></g><g><path class="cls-32" d="m824.29,658l-3.96,1.11c-3.49.98-6.22,3.71-7.21,7.21l-1.11,3.96-1.12-3.96c-.98-3.49-3.71-6.21-7.2-7.2l-3.96-1.12,3.96-1.11c3.49-.98,6.22-3.71,7.21-7.21l1.11-3.96,1.12,3.96c.98,3.49,3.71,6.21,7.2,7.2l3.96,1.12Z"/><circle class="cls-26" cx="812.02" cy="658" r="14.16"/></g><g><path class="cls-32" d="m166.61,781.88l-3.96,1.11c-3.49.98-6.22,3.71-7.21,7.21l-1.11,3.96-1.12-3.96c-.98-3.49-3.71-6.21-7.2-7.2l-3.96-1.12,3.96-1.11c3.49-.98,6.22-3.71,7.21-7.21l1.11-3.96,1.12,3.96c.98,3.49,3.71,6.21,7.2,7.2l3.96,1.12Z"/><circle class="cls-31" cx="154.33" cy="781.88" r="14.16"/></g><g><path class="cls-32" d="m230.29,271l-3.96,1.11c-3.49.98-6.22,3.71-7.21,7.21l-1.11,3.96-1.12-3.96c-.98-3.49-3.71-6.21-7.2-7.2l-3.96-1.12,3.96-1.11c3.49-.98,6.22-3.71,7.21-7.21l1.11-3.96,1.12,3.96c.98,3.49,3.71,6.21,7.2,7.2l3.96,1.12Z"/><circle class="cls-9" cx="218.02" cy="271" r="14.16"/></g></g><g><g><path class="cls-32" d="m551.52,888.63l-2.66-.06c-2.35-.05-4.55,1.12-5.82,3.1l-1.44,2.24.06-2.66c.05-2.34-1.12-4.55-3.09-5.82l-2.24-1.44,2.66.06c2.35.05,4.55-1.12,5.82-3.1l1.44-2.24-.06,2.66c-.05,2.34,1.12,4.55,3.09,5.82l2.24,1.44Z"/><circle class="cls-10" cx="543.92" cy="886.31" r="10.28"/></g><g><path class="cls-32" d="m516.68,956.87l-2.66-.06c-2.35-.05-4.55,1.12-5.82,3.1l-1.44,2.24.06-2.66c.05-2.34-1.12-4.55-3.09-5.82l-2.24-1.44,2.66.06c2.35.05,4.55-1.12,5.82-3.1l1.44-2.24-.06,2.66c-.05,2.34,1.12,4.55,3.09,5.82l2.24,1.44Z"/><circle class="cls-8" cx="509.08" cy="954.55" r="10.28"/></g><g><path class="cls-32" d="m430.7,855.99l-2.66-.06c-2.35-.05-4.55,1.12-5.82,3.1l-1.44,2.24.06-2.66c.05-2.34-1.12-4.55-3.09-5.82l-2.24-1.44,2.66.06c2.35.05,4.55-1.12,5.82-3.1l1.44-2.24-.06,2.66c-.05,2.34,1.12,4.55,3.09,5.82l2.24,1.44Z"/><circle class="cls-4" cx="423.1" cy="853.66" r="10.28"/></g><g><path class="cls-32" d="m333.85,790.71l-2.66-.06c-2.35-.05-4.55,1.12-5.82,3.1l-1.44,2.24.06-2.66c.05-2.34-1.12-4.55-3.09-5.82l-2.24-1.44,2.66.06c2.35.05,4.55-1.12,5.82-3.1l1.44-2.24-.06,2.66c-.05,2.34,1.12,4.55,3.09,5.82l2.24,1.44Z"/><circle class="cls-12" cx="326.25" cy="788.39" r="10.28"/></g><g><path class="cls-32" d="m264.78,815.03l-2.66-.06c-2.35-.05-4.55,1.12-5.82,3.1l-1.44,2.24.06-2.66c.05-2.34-1.12-4.55-3.09-5.82l-2.24-1.44,2.66.06c2.35.05,4.55-1.12,5.82-3.1l1.44-2.24-.06,2.66c-.05,2.34,1.12,4.55,3.09,5.82l2.24,1.44Z"/><circle class="cls-13" cx="257.18" cy="812.71" r="10.28"/></g><g><path class="cls-32" d="m430.67,930.59l-3.71-.08c-3.28-.07-6.36,1.57-8.13,4.33l-2.01,3.13.08-3.72c.07-3.27-1.57-6.35-4.32-8.12l-3.13-2.01,3.71.08c3.28.07,6.36-1.57,8.13-4.33l2.01-3.13-.08,3.72c-.07,3.27,1.57,6.35,4.32,8.12l3.13,2.01Z"/><circle class="cls-11" cx="420.06" cy="927.35" r="13.04"/></g><g><path class="cls-32" d="m390.52,817.76l-3.71-.08c-3.28-.07-6.36,1.57-8.13,4.33l-2.01,3.13.08-3.72c.07-3.27-1.57-6.35-4.32-8.12l-3.13-2.01,3.71.08c3.28.07,6.36-1.57,8.13-4.33l2.01-3.13-.08,3.72c-.07,3.27,1.57,6.35,4.32,8.12l3.13,2.01Z"/><circle class="cls-7" cx="379.91" cy="814.51" r="13.04"/></g><path class="cls-32" d="m257.18,812.71c.14-.05,68.97-24.65,69.09-24.7.21.11,53.77,25.97,53.98,26.12,10.81,9.74,32.49,29.31,43.26,39.08,0,0,.21.19.21.19v.29s-2.99,73.69-2.99,73.69c0,0-.48-.68-.48-.68l89,27.25-.73.31s17.45-34.1,17.45-34.1c0,0,17.51-34.07,17.51-34.07,0,0,.3.69.3.69-29.38-7.97-88.39-24.13-117.72-32.21,29.7,7.82,88.88,23.5,118.55,31.43-8.8,17.3-26.15,51.57-34.99,68.83,0,0-.23.46-.23.46,0,0-.5-.15-.5-.15l-89.04-27.14s-.5-.15-.5-.15c0,0,.02-.52.02-.52l3.11-73.69.2.48c-10.75-9.74-32.41-29.44-43.13-39.22.52.26-53.53-26.2-53.47-26.19,1.12-.31-69.06,24.12-68.92,24.01h0Z"/></g><g><circle class="cls-5" cx="893.94" cy="290.58" r="9.96"/><circle class="cls-6" cx="816.72" cy="294.71" r="9.96"/><circle class="cls-2" cx="731.98" cy="357.58" r="9.96"/><circle class="cls-3" cx="801.1" cy="345.62" r="12.63"/><circle class="cls-1" cx="874.77" cy="228.63" r="12.63"/><path class="cls-32" d="m898.18,284.16l-.78,2.45c-.69,2.17-.21,4.54,1.28,6.26l1.68,1.95-2.46-.78c-2.16-.69-4.53-.21-6.25,1.28l-1.95,1.69.78-2.45c.69-2.17.21-4.54-1.28-6.26l-1.68-1.95,2.46.78c2.16.69,4.53.21,6.25-1.28l1.95-1.69Z"/><path class="cls-32" d="m820.96,288.29l-.78,2.45c-.69,2.17-.21,4.54,1.28,6.26l1.68,1.95-2.46-.78c-2.16-.69-4.53-.21-6.25,1.28l-1.95,1.69.78-2.45c.69-2.17.21-4.54-1.28-6.26l-1.68-1.95,2.46.78c2.16.69,4.53.21,6.25-1.28l1.95-1.69Z"/><path class="cls-32" d="m736.22,351.16l-.78,2.45c-.69,2.17-.21,4.54,1.28,6.26l1.68,1.95-2.46-.78c-2.16-.69-4.53-.21-6.25,1.28l-1.95,1.69.78-2.45c.69-2.17.21-4.54-1.28-6.26l-1.68-1.95,2.46.78c2.16.69,4.53.21,6.25-1.28l1.95-1.69Z"/><path class="cls-32" d="m807.02,336.65l-1.1,3.43c-.97,3.03-.29,6.34,1.79,8.74l2.35,2.72-3.43-1.09c-3.02-.96-6.33-.29-8.73,1.78l-2.73,2.35,1.1-3.43c.97-3.03.29-6.34-1.79-8.74l-2.35-2.72,3.43,1.09c3.02.96,6.33.29,8.73-1.78l2.73-2.35Z"/><path class="cls-32" d="m880.7,219.67l-1.1,3.43c-.97,3.03-.29,6.34,1.79,8.74l2.35,2.72-3.43-1.09c-3.02-.96-6.33-.29-8.73,1.78l-2.73,2.35,1.1-3.43c.97-3.03.29-6.34-1.79-8.74l-2.35-2.72,3.43,1.09c3.02.96,6.33.29,8.73-1.78l2.73-2.35Z"/><path class="cls-32" d="m731.98,357.58c9.53-1.79,24.83-4.55,34.5-6.31,0,0,34.53-6.17,34.53-6.17,0,0-.42.37-.42.37,4.34-14.4,11.22-36.82,15.64-51.37,17.85-1,40.45-2.11,58.38-3.06,4.79-.25,14.51-.74,19.31-.96,0,0-.46.65-.46.65-5.52-17.78-13.4-44.49-18.69-62.1,5.73,17.67,14.19,44.47,19.84,62.41-24.96,1.45-52.9,3-77.87,4.32,0,0,.59-.46.59-.46-4.42,14.4-11.32,36.64-15.73,50.87,0,0-.1.31-.1.31l-.32.05c-19.79,3.25-49.62,8.36-69.21,11.44h0Z"/></g><g><g><path class="cls-36" d="m0,787.42h0c9.71-10.15,29.11-10.9,43.69-10.33,97.52,3.8,195.32,7.35,287.97-14.79h0c4.87-1.16,8.14-4.35,8.14-7.94v-122.57s-8.14,1.94-8.14,1.94c-91.12,21.77-187.21,18.28-283.12,14.97-16.19-.56-38.83-3.38-48.54,10.15H0s0,128.57,0,128.57Z"/><path class="cls-37" d="m334.73,761.32h0c13.13-10.39-22.7-11.59-27.89-11.44-37.74,1.14-59.07,3.43-84.1-4.92h0c-1.83-1.24-2.87-2.95-2.87-4.73v-136.74s2.87,1.94,2.87,1.94c32.12,21.77,56.85,19.66,90.66,16.35,5.71-.56,26.82-3.38,30.24,10.15v8.39s-1.86,113.74-1.86,113.74c-.3,3.13-2.99,5.9-7.05,7.25Z"/><path class="cls-16" d="m219.55,738.06h0c9.71-10.15,29.11-10.9,43.69-10.33,97.52,3.8,195.32,7.35,287.97-14.79h0c4.87-1.16,8.14-4.35,8.14-7.94v-122.57s-8.14,1.94-8.14,1.94c-91.12,21.77-187.21,18.28-283.12,14.97-16.19-.56-38.83-3.38-48.54,10.15h0s0,128.57,0,128.57Z"/><path class="cls-23" d="m554.28,711.96h0c13.13-10.39-22.7-11.59-27.89-11.44-37.74,1.14-59.07,3.43-84.1-4.92h0c-1.83-1.24-2.87-2.95-2.87-4.73v-136.74s2.87,1.94,2.87,1.94c32.12,21.77,56.85,19.66,90.66,16.35,5.71-.56,26.82-3.38,30.24,10.15v8.39s-1.86,113.74-1.86,113.74c-.3,3.13-2.99,5.9-7.05,7.25Z"/><path class="cls-19" d="m440.12,691.17h0c9.71-10.15,29.11-10.9,43.69-10.33,97.52,3.8,195.32,7.35,287.97-14.79h0c4.87-1.16,8.14-4.35,8.14-7.94v-122.57s-8.14,1.94-8.14,1.94c-91.12,21.77-187.21,18.28-283.12,14.97-16.19-.56-38.83-3.38-48.54,10.15h0s0,128.57,0,128.57Z"/><path class="cls-22" d="m774.85,665.07h0c13.13-10.39-22.7-11.59-27.89-11.44-37.74,1.14-59.07,3.43-84.1-4.92h0c-1.83-1.24-2.87-2.95-2.87-4.73v-136.74s2.87,1.94,2.87,1.94c32.12,21.77,56.85,19.66,90.66,16.35,5.71-.56,26.82-3.38,30.24,10.15v8.39s-1.86,113.74-1.86,113.74c-.3,3.13-2.99,5.9-7.05,7.25Z"/><path class="cls-17" d="m660.2,642.28h0c9.71-10.15,29.11-10.9,43.69-10.33,97.52,3.8,195.32,7.35,287.97-14.79l8.14-1.94v-128.57s-8.14,1.94-8.14,1.94c-91.12,21.77-187.21,18.28-283.12,14.97-16.19-.56-38.83-3.38-48.54,10.15h0s0,128.57,0,128.57Z"/></g><g><path class="cls-14" d="m1000,581.88h0c-12.44-18.66-37.3-20.03-55.98-18.99-124.95,6.99-250.26,13.51-368.98-27.2h0c-6.24-2.14-10.43-8-10.43-14.6v-225.33l10.43,3.57c116.75,40.03,239.87,33.61,362.76,27.52,20.75-1.03,49.76-6.22,62.2,18.66h0s0,236.35,0,236.35Z"/><path class="cls-21" d="m571.11,533.91h0c-16.82-19.1,29.08-21.31,35.74-21.02,48.36,2.1,75.69,6.31,107.75-9.04h0c2.35-2.29,3.68-5.42,3.68-8.7v-251.37s-3.68,3.57-3.68,3.57c-41.15,40.03-72.84,36.15-116.16,30.06-7.31-1.03-34.36-6.22-38.74,18.66v15.42s2.38,209.09,2.38,209.09c.38,5.75,3.83,10.84,9.03,13.32Z"/><path class="cls-18" d="m717.38,495.68h0c-12.44-18.66-37.3-20.03-55.98-18.99-124.95,6.99-250.26,13.51-368.98-27.2h0c-6.24-2.14-10.43-8-10.43-14.6v-225.33l10.43,3.57c116.75,40.03,239.87,33.61,362.76,27.52,20.75-1.03,49.76-6.22,62.2,18.66h0s0,236.35,0,236.35Z"/><path class="cls-20" d="m288.48,447.71h0c-16.82-19.1,29.08-21.31,35.74-21.02,48.36,2.1,75.69,6.31,107.75-9.04h0c2.35-2.29,3.68-5.42,3.68-8.7v-251.37s-3.68,3.57-3.68,3.57c-41.15,40.03-72.84,36.15-116.16,30.06-7.31-1.03-34.36-6.22-38.74,18.66v15.42s2.38,209.09,2.38,209.09c.38,5.75,3.83,10.84,9.03,13.32Z"/><path class="cls-15" d="m435.39,405.8h0c-12.44-18.66-37.3-20.03-55.98-18.99-124.95,6.99-250.26,13.51-368.98-27.2l-10.43-3.57V119.69l10.43,3.57c116.75,40.03,239.87,33.61,362.76,27.52,20.75-1.03,49.76-6.22,62.2,18.66h0s0,236.35,0,236.35Z"/></g></g></g></svg>