<?xml version="1.0" encoding="UTF-8"?><svg id="Ebene_2" xmlns="http://www.w3.org/2000/svg" xmlns:xlink="http://www.w3.org/1999/xlink" viewBox="0 0 1000.02 1000.43"><defs><style>.cls-1{fill:url(#Unbenannter_Verlauf_14-4);}.cls-2{fill:url(#Unbenannter_Verlauf_14-2);}.cls-3{fill:url(#Unbenannter_Verlauf_14-3);}.cls-4{fill:url(#Unbenannter_Verlauf_14-5);}.cls-5{fill:url(#Unbenannter_Verlauf_14-6);}.cls-6{fill:url(#Unbenannter_Verlauf_70);opacity:.75;}.cls-7{fill:#fff;}.cls-8{fill:#999;}.cls-9{fill:#bcbcbb;}.cls-10{fill:#bde1e4;}.cls-11{fill:#d7d7d7;}.cls-12{fill:#424495;}.cls-13{fill:#1b1532;}.cls-14{fill:#6167ab;}.cls-15{fill:#282c5f;}.cls-16{fill:url(#Unbenannter_Verlauf_295);}.cls-17{fill:url(#Unbenannter_Verlauf_171);}.cls-18{fill:url(#Unbenannter_Verlauf_66);}.cls-19{fill:url(#Unbenannter_Verlauf_14);}.cls-20{fill:url(#Unbenannter_Verlauf_10);}</style><radialGradient id="Unbenannter_Verlauf_295" cx="257.45" cy="3720.09" fx="257.45" fy="3720.09" r="1400.42" gradientTransform="translate(0 -3323.95) scale(1 1.43)" gradientUnits="userSpaceOnUse"><stop offset=".84" stop-color="#221d43"/><stop offset=".88" stop-color="#211c41" stop-opacity=".94"/><stop offset=".92" stop-color="#201b3e" stop-opacity=".76"/><stop offset=".96" stop-color="#1e1839" stop-opacity=".45"/><stop offset="1" stop-color="#1b1532" stop-opacity=".03"/><stop offset="1" stop-color="#1b1532" stop-opacity="0"/></radialGradient><radialGradient id="Unbenannter_Verlauf_10" cx="199.55" cy="4422.07" fx="199.55" fy="4422.07" r="1359.71" gradientTransform="translate(0 -4592.3) scale(1 1.59)" gradientUnits="userSpaceOnUse"><stop offset=".77" stop-color="#584b9a"/><stop offset=".81" stop-color="#564997" stop-opacity=".97"/><stop offset=".84" stop-color="#524690" stop-opacity=".89"/><stop offset=".88" stop-color="#4b3f84" stop-opacity=".76"/><stop offset=".92" stop-color="#413774" stop-opacity=".57"/><stop offset=".96" stop-color="#342b5f" stop-opacity=".34"/><stop offset=".99" stop-color="#241e46" stop-opacity=".05"/><stop offset="1" stop-color="#221c42" stop-opacity="0"/></radialGradient><radialGradient id="Unbenannter_Verlauf_14" cx="738.85" cy="110.37" fx="738.85" fy="110.37" r="29.83" gradientUnits="userSpaceOnUse"><stop offset="0" stop-color="#fcea10"/><stop offset="0" stop-color="#fff" stop-opacity=".94"/><stop offset="1" stop-color="#fff" stop-opacity="0"/></radialGradient><radialGradient id="Unbenannter_Verlauf_14-2" cx="578.9" cy="458.73" fx="578.9" fy="458.73" xlink:href="#Unbenannter_Verlauf_14"/><radialGradient id="Unbenannter_Verlauf_14-3" cx="77.24" cy="544.75" fx="77.24" fy="544.75" r="18.44" xlink:href="#Unbenannter_Verlauf_14"/><radialGradient id="Unbenannter_Verlauf_14-4" cx="555.85" cy="178.21" fx="555.85" fy="178.21" r="18.44" xlink:href="#Unbenannter_Verlauf_14"/><radialGradient id="Unbenannter_Verlauf_14-5" cx="875.72" cy="510.82" fx="875.72" fy="510.82" r="18.44" xlink:href="#Unbenannter_Verlauf_14"/><radialGradient id="Unbenannter_Verlauf_14-6" cx="175.71" cy="252.41" fx="175.71" fy="252.41" r="37.83" xlink:href="#Unbenannter_Verlauf_14"/><radialGradient id="Unbenannter_Verlauf_171" cx="496.91" cy="919.66" fx="496.91" fy="919.66" r="645.52" gradientTransform="translate(0 643.77) scale(1 .3)" gradientUnits="userSpaceOnUse"><stop offset=".76" stop-color="#123946"/><stop offset="1" stop-color="#275059"/><stop offset="1" stop-color="#435c63"/></radialGradient><radialGradient id="Unbenannter_Verlauf_70" cx="475.83" cy="1419.67" fx="475.83" fy="1419.67" r="618.95" gradientTransform="translate(0 607.07) scale(1 .21)" gradientUnits="userSpaceOnUse"><stop offset=".59" stop-color="#0a2c35"/><stop offset=".73" stop-color="#0a2c35" stop-opacity=".94"/><stop offset=".84" stop-color="#0a2d37" stop-opacity=".75"/><stop offset=".94" stop-color="#0c3039" stop-opacity=".43"/><stop offset="1" stop-color="#0d323c" stop-opacity=".14"/><stop offset="1" stop-color="#123946" stop-opacity="0"/></radialGradient><radialGradient id="Unbenannter_Verlauf_66" cx="455.41" cy="-484.46" fx="455.41" fy="-484.46" r="771.83" gradientTransform="translate(0 1070.85) scale(1 .16)" gradientUnits="userSpaceOnUse"><stop offset="0" stop-color="#03262f"/><stop offset=".52" stop-color="#03262f" stop-opacity=".96"/><stop offset=".71" stop-color="#042730" stop-opacity=".82"/><stop offset=".85" stop-color="#062831" stop-opacity=".56"/><stop offset=".95" stop-color="#082a33" stop-opacity=".21"/><stop offset="1" stop-color="#0a2c35" stop-opacity="0"/></radialGradient></defs><g id="design_2"><g><g><rect class="cls-13" x="0" y=".43" width="1000" height="1000"/><path class="cls-16" d="M1000.01,301.98C811.24,116.39,539.79,0,238.11,0,156.16,0,76.44,8.59,0,24.82V1000.43H1000.01V301.98Z"/><path class="cls-20" d="M1000.02,711.8c-188.04-255.05-490.23-420.46-830.98-420.46-57.57,0-114.04,4.72-169.04,13.8V1000.43H1000.01v-288.64Z"/><path class="cls-7" d="M601.94,458.73l-7.43,2.09c-6.56,1.84-11.68,6.97-13.53,13.53l-2.09,7.43-2.1-7.44c-1.85-6.55-6.96-11.67-13.51-13.51l-7.44-2.1,7.43-2.09c6.56-1.84,11.68-6.97,13.53-13.53l2.09-7.43,2.1,7.44c1.85,6.55,6.96,11.67,13.51,13.51l7.44,2.1Z"/><path class="cls-7" d="M761.89,110.37l-7.43,2.09c-6.56,1.84-11.68,6.97-13.53,13.53l-2.09,7.43-2.1-7.44c-1.85-6.55-6.96-11.67-13.51-13.51l-7.44-2.1,7.43-2.09c6.56-1.84,11.68-6.97,13.53-13.53l2.09-7.43,2.1,7.44c1.85,6.55,6.96,11.67,13.51,13.51l7.44,2.1Z"/><path class="cls-7" d="M93.23,544.75l-5.15,1.45c-4.55,1.28-8.11,4.84-9.39,9.39l-1.45,5.15-1.46-5.16c-1.28-4.54-4.83-8.09-9.37-9.37l-5.16-1.46,5.15-1.45c4.55-1.28,8.11-4.84,9.39-9.39l1.45-5.15,1.46,5.16c1.28,4.54,4.83,8.09,9.37,9.37l5.16,1.46Z"/><path class="cls-7" d="M891.7,510.82l-5.15,1.45c-4.55,1.28-8.11,4.84-9.39,9.39l-1.45,5.15-1.46-5.16c-1.28-4.54-4.83-8.09-9.37-9.37l-5.16-1.46,5.15-1.45c4.55-1.28,8.11-4.84,9.39-9.39l1.45-5.15,1.46,5.16c1.28,4.54,4.83,8.09,9.37,9.37l5.16,1.46Z"/><path class="cls-7" d="M571.84,178.21l-5.15,1.45c-4.55,1.28-8.11,4.84-9.39,9.39l-1.45,5.15-1.46-5.16c-1.28-4.54-4.83-8.09-9.37-9.37l-5.16-1.46,5.15-1.45c4.55-1.28,8.11-4.84,9.39-9.39l1.45-5.15,1.46,5.16c1.28,4.54,4.83,8.09,9.37,9.37l5.16,1.46Z"/><path class="cls-7" d="M207.89,252.41l-10.37,2.92c-9.16,2.58-16.32,9.73-18.89,18.89l-2.92,10.37-2.93-10.38c-2.58-9.14-9.72-16.29-18.87-18.87l-10.38-2.93,10.37-2.92c9.16-2.58,16.32-9.73,18.89-18.89l2.92-10.37,2.93,10.38c2.58,9.14,9.72,16.29,18.87,18.87l10.38,2.93Z"/><circle class="cls-7" cx="97.1" cy="590.76" r="3.87"/><circle class="cls-7" cx="89.36" cy="256.28" r="3.87"/><circle class="cls-7" cx="263.24" cy="194.19" r="3.87"/><circle class="cls-7" cx="175.71" cy="357.41" r="3.87"/><circle class="cls-7" cx="419.68" cy="87.32" r="3.87"/><circle class="cls-7" cx="652.46" cy="106.5" r="3.87"/><circle class="cls-7" cx="634.6" cy="67.91" r="3.87"/><circle class="cls-7" cx="798.11" cy="252.41" r="3.87"/><circle class="cls-7" cx="931.53" cy="339.53" r="3.87"/><circle class="cls-7" cx="761.89" cy="485.64" r="3.87"/><circle class="cls-7" cx="903.62" cy="654.56" r="3.87"/><circle class="cls-19" cx="738.85" cy="110.37" r="29.83"/><circle class="cls-2" cx="578.9" cy="458.73" r="29.83"/><circle class="cls-3" cx="77.24" cy="544.75" r="18.44"/><circle class="cls-1" cx="555.85" cy="178.21" r="18.44"/><circle class="cls-4" cx="875.72" cy="510.82" r="18.44"/><circle class="cls-5" cx="175.71" cy="252.41" r="37.83"/><circle class="cls-7" cx="630.73" cy="318.47" r="3.87"/></g><g><g><path class="cls-17" d="M999.9,783.38c-135.35-36.97-329.43-60.14-545.03-60.14-171.47,0-329.33,14.65-454.86,39.25v237.94H999.9v-217.05Z"/><path class="cls-6" d="M999.9,813.49c-135.35-31.84-329.43-51.8-545.03-51.8-171.47,0-329.33,12.62-454.86,33.81v204.93H999.9v-186.94Z"/></g><path class="cls-18" d="M999.9,897.31c-135.35-17.57-329.43-28.57-545.03-28.57-171.47,0-329.33,6.96-454.86,18.65v113.04H999.9v-103.12Z"/></g><g><path class="cls-12" d="M230.6,772.3c-.3,1.08-.32,2.23,.02,3.3,.62,1.92,3.15,5.35,8.25,2.04,8.63-5.59,83.74-195.28,83.74-195.28l-9.65-2.62s-76.73,172.16-82.37,192.55Z"/><path class="cls-12" d="M421.35,787.44c.48,1.01,1.22,1.9,2.18,2.48,1.73,1.04,5.88,1.97,7.57-3.87,2.85-9.89-64.92-202.32-64.92-202.32l-9,4.35s55.04,180.27,64.17,199.36Z"/><path class="cls-15" d="M350.33,748.31c.17,.95,.57,1.86,1.23,2.56,1.19,1.26,4.42,3.01,7.18-1.44,4.67-7.54-6.68-168.77-6.68-168.77l-8.48,1.51s3.62,148.17,6.74,166.13Z"/><path class="cls-12" d="M328.41,555.82s-31.05,15.97-28.37,27,76.44,10.09,80.54,0-27.74-27-27.74-27c0,0,2.72-29.28-12.43-29.28s-12,29.28-12,29.28Z"/><path class="cls-14" d="M362.5,589.25c-17.06,2.34-41.84,1.98-54.53-1.47,0,0,3-12.94,16.94-24.04,5.69-4.53,13.72-4.84,19.67-.67,6.86,4.81,15.37,13.07,19.3,26.01l-1.38,.18Z"/><ellipse class="cls-14" cx="342.12" cy="545.07" rx="29.16" ry="4.65"/><path class="cls-12" d="M349.86,416.83c-6.21-3.31-83.82,54.13-85.13,61.99-1.31,7.86,1.09,13.32,12.88,11.57,11.79-1.75,84.48-52.17,82.29-60.03-2.18-7.86-.22-8.29-10.04-13.53Z"/><path class="cls-15" d="M277.61,490.4c-11.79,1.75-14.19-3.71-12.88-11.57,0,0,8.06-3.25,11.64,0,3.58,3.25,1.24,11.57,1.24,11.57Z"/><path class="cls-10" d="M266.02,482.51c-.12,2.61,1.32,6.74,6.64,6.68,1.11-.01,2.03-.9,2.1-2.01,.09-1.47-.23-3.5-2.23-4.99-1.77-1.31-3.3-1.66-4.38-1.68s-2.07,.88-2.13,2Z"/><path class="cls-12" d="M440.86,355.92s40.43-39.24,56.16-38.35c18.44,1.05,69.51,50.9,74.19,101.05,.19,2.03-.16,4.08-1.08,5.9-3.78,7.48-17.99,26.03-67.87,34.29l-61.4-102.89Z"/><path class="cls-15" d="M440.86,355.92s-21.62,82.38,61.4,102.89c0,0,14.68-34.43-8.87-69.66-23.55-35.22-52.53-33.23-52.53-33.23Z"/><path class="cls-14" d="M506.78,328.71c-2.93,.69-36.34,21.13-35.77,26.2s6.34,8.45,10,8.73,37.74-21.97,37.18-25.91-6.62-10.14-11.41-9.01Z"/><path class="cls-8" d="M450.79,372.73c3.58-2.21,8.11-2.32,11.74-.19,5.32,3.12,13.34,10.1,23.4,25.66,19.07,29.47,11.7,42.46,11.7,42.46,0,0-41.2,39.52-207.64,113.58-6.08,2.7-13.12,2.36-18.83-1.05-7.84-4.68-16.61-13.87-14.49-31.2,.63-5.12,3.24-9.8,7.19-13.12,20.95-17.58,99.82-82.39,186.93-136.15Z"/><path class="cls-9" d="M266.52,512.22s17.54,10.06,20.51,26.05c0,0,196.64-98.93,195.35-123.03-1.29-24.1-20.44-38-29.65-38.24-9.7-.25-137.44,92.27-186.21,135.22Z"/><path class="cls-11" d="M290.66,501.37c-.95,.73-1.56,1.86-1.49,3.05,.07,1.07,.62,2.11,2.56,1.97,3.88-.28,180.39-95.04,170.69-112.22-9.22-16.34-157.27,96.12-171.77,107.2Z"/><ellipse class="cls-12" cx="368.84" cy="525.58" rx="23.54" ry="30.46"/><path class="cls-12" d="M230.34,539.64s24.81-20.38,34.08-18.22c9.26,2.16,21.42,18.04,19.26,25.3s-32.16,25.3-32.16,25.3l-21.18-32.37Z"/><path class="cls-15" d="M230.34,539.64s-12.13,31.34,21.18,32.37c0,0,8.1-29-21.18-32.37Z"/><path class="cls-9" d="M195.3,570.74s29.66-22.57,37.69-24.11c8.03-1.54,18.85,17.15,14.52,21.63s-37.07,23.02-37.07,23.02l-15.14-20.55Z"/><path class="cls-12" d="M143.77,594.88s36.25-31.79,49.04-29.46c12.79,2.33,25.01,25.78,22.29,31.98-2.71,6.2-46.52,31.79-55.44,30.63-8.92-1.16-22.45-26.73-15.89-33.15Z"/><path class="cls-12" d="M164.27,585.88c4.07,.84,27.64-8.88,19.98-15.94-7.67-7.06-40.15-20.18-40.15-20.18l-8.27,15.53s22.6,19.38,28.45,20.59Z"/><path class="cls-15" d="M184.24,569.94c7.67,7.06-15.9,16.78-19.98,15.94-.97-.2-2.41-.91-4.14-1.94,0,0,11.27-2.03,16.23-5.42s7.88-8.58,7.88-8.58Z"/><path class="cls-15" d="M143.63,549.7s-14.07,1.77-8.09,15.22c0,0,13.94-2.09,8.09-15.22Z"/><ellipse class="cls-10" cx="139.57" cy="557.32" rx="5.67" ry="3.08" transform="translate(-412.87 399.53) rotate(-60)"/><ellipse class="cls-15" cx="374.24" cy="526.54" rx="8.61" ry="13.1"/></g></g></g></svg>