<?xml version="1.0" encoding="UTF-8"?><svg id="Ebene_2" xmlns="http://www.w3.org/2000/svg" xmlns:xlink="http://www.w3.org/1999/xlink" viewBox="0 0 1000.02 1000"><defs><style>.cls-1{fill:url(#Unbenannter_Verlauf_14-10);}.cls-2{fill:url(#Unbenannter_Verlauf_14-4);}.cls-3{fill:url(#Unbenannter_Verlauf_14-2);}.cls-4{fill:url(#Unbenannter_Verlauf_14-8);}.cls-5{fill:url(#Unbenannter_Verlauf_14-3);}.cls-6{fill:url(#Unbenannter_Verlauf_14-5);}.cls-7{fill:url(#Unbenannter_Verlauf_14-6);}.cls-8{fill:url(#Unbenannter_Verlauf_14-7);}.cls-9{fill:url(#Unbenannter_Verlauf_14-9);}.cls-10{fill:#f9f0af;}.cls-11{fill:#fff;}.cls-12{fill:#f39200;}.cls-13{fill:#ced2db;}.cls-14{fill:#a5aab6;}.cls-15{fill:#d60b52;}.cls-16,.cls-17{fill:#dadeea;}.cls-18{fill:#1b1532;}.cls-19,.cls-20{fill:#878c96;}.cls-21{fill:url(#Unbenannter_Verlauf_295);}.cls-22{fill:url(#Unbenannter_Verlauf_297);}.cls-23{fill:url(#Unbenannter_Verlauf_14);}.cls-20{opacity:.6;}.cls-17{opacity:.5;}</style><radialGradient id="Unbenannter_Verlauf_295" cx="257.45" cy="2118.89" fx="257.45" fy="2118.89" r="1400.42" gradientTransform="translate(0 -786.38) scale(1 1.26)" gradientUnits="userSpaceOnUse"><stop offset=".84" stop-color="#221d43"/><stop offset=".88" stop-color="#211c41" stop-opacity=".94"/><stop offset=".92" stop-color="#201b3e" stop-opacity=".76"/><stop offset=".96" stop-color="#1e1839" stop-opacity=".45"/><stop offset="1" stop-color="#1b1532" stop-opacity=".03"/><stop offset="1" stop-color="#1b1532" stop-opacity="0"/></radialGradient><radialGradient id="Unbenannter_Verlauf_297" cx="199.55" cy="2573.71" fx="199.55" fy="2573.71" r="1359.71" gradientTransform="translate(0 -1325.44) scale(1 1.4)" gradientUnits="userSpaceOnUse"><stop offset=".87" stop-color="#2a2458"/><stop offset=".89" stop-color="#292357" stop-opacity=".95"/><stop offset=".92" stop-color="#282254" stop-opacity=".81"/><stop offset=".95" stop-color="#26214f" stop-opacity=".58"/><stop offset=".98" stop-color="#241e48" stop-opacity=".26"/><stop offset="1" stop-color="#221d43" stop-opacity="0"/></radialGradient><radialGradient id="Unbenannter_Verlauf_14" cx="738.85" cy="109.94" fx="738.85" fy="109.94" r="29.83" gradientUnits="userSpaceOnUse"><stop offset="0" stop-color="#fcea10"/><stop offset="0" stop-color="#fff" stop-opacity=".94"/><stop offset="1" stop-color="#fff" stop-opacity="0"/></radialGradient><radialGradient id="Unbenannter_Verlauf_14-2" cx="578.9" cy="458.29" fx="578.9" fy="458.29" xlink:href="#Unbenannter_Verlauf_14"/><radialGradient id="Unbenannter_Verlauf_14-3" cx="387.82" cy="601.93" fx="387.82" fy="601.93" xlink:href="#Unbenannter_Verlauf_14"/><radialGradient id="Unbenannter_Verlauf_14-4" cx="77.24" cy="544.32" fx="77.24" fy="544.32" r="18.44" xlink:href="#Unbenannter_Verlauf_14"/><radialGradient id="Unbenannter_Verlauf_14-5" cx="555.85" cy="177.77" fx="555.85" fy="177.77" r="18.44" xlink:href="#Unbenannter_Verlauf_14"/><radialGradient id="Unbenannter_Verlauf_14-6" cx="875.72" cy="510.38" fx="875.72" fy="510.38" r="18.44" xlink:href="#Unbenannter_Verlauf_14"/><radialGradient id="Unbenannter_Verlauf_14-7" cx="567.97" cy="862.73" fx="567.97" fy="862.73" r="18.44" xlink:href="#Unbenannter_Verlauf_14"/><radialGradient id="Unbenannter_Verlauf_14-8" cx="219.23" cy="823.7" fx="219.23" fy="823.7" xlink:href="#Unbenannter_Verlauf_14"/><radialGradient id="Unbenannter_Verlauf_14-9" cx="798.11" cy="613.37" fx="798.11" fy="613.37" xlink:href="#Unbenannter_Verlauf_14"/><radialGradient id="Unbenannter_Verlauf_14-10" cx="175.71" cy="251.97" fx="175.71" fy="251.97" r="37.83" xlink:href="#Unbenannter_Verlauf_14"/></defs><g id="design_5"><g><g><rect class="cls-18" x="0" width="1000" height="1000"/><path class="cls-21" d="M1000.01,386.06C811.24,222.92,539.79,120.61,238.11,120.61,156.16,120.61,76.44,128.16,0,142.43V1000H1000.01V386.06Z"/><path class="cls-22" d="M1000.02,746.29c-188.04-224.19-490.23-369.59-830.98-369.59-57.57,0-114.04,4.15-169.04,12.13V1000H1000.01v-253.71Z"/><path class="cls-11" d="M821.15,613.37l-7.43,2.09c-6.56,1.84-11.68,6.97-13.53,13.53l-2.09,7.43-2.1-7.44c-1.85-6.55-6.96-11.67-13.51-13.51l-7.44-2.1,7.43-2.09c6.56-1.84,11.68-6.97,13.53-13.53l2.09-7.43,2.1,7.44c1.85,6.55,6.96,11.67,13.51,13.51l7.44,2.1Z"/><path class="cls-11" d="M601.94,458.29l-7.43,2.09c-6.56,1.84-11.68,6.97-13.53,13.53l-2.09,7.43-2.1-7.44c-1.85-6.55-6.96-11.67-13.51-13.51l-7.44-2.1,7.43-2.09c6.56-1.84,11.68-6.97,13.53-13.53l2.09-7.43,2.1,7.44c1.85,6.55,6.96,11.67,13.51,13.51l7.44,2.1Z"/><path class="cls-11" d="M761.89,109.94l-7.43,2.09c-6.56,1.84-11.68,6.97-13.53,13.53l-2.09,7.43-2.1-7.44c-1.85-6.55-6.96-11.67-13.51-13.51l-7.44-2.1,7.43-2.09c6.56-1.84,11.68-6.97,13.53-13.53l2.09-7.43,2.1,7.44c1.85,6.55,6.96,11.67,13.51,13.51l7.44,2.1Z"/><path class="cls-11" d="M410.87,601.93l-7.43,2.09c-6.56,1.84-11.68,6.97-13.53,13.53l-2.09,7.43-2.1-7.44c-1.85-6.55-6.96-11.67-13.51-13.51l-7.44-2.1,7.43-2.09c6.56-1.84,11.68-6.97,13.53-13.53l2.09-7.43,2.1,7.44c1.85,6.55,6.96,11.67,13.51,13.51l7.44,2.1Z"/><path class="cls-11" d="M242.27,823.7l-7.43,2.09c-6.56,1.84-11.68,6.97-13.53,13.53l-2.09,7.43-2.1-7.44c-1.85-6.55-6.96-11.67-13.51-13.51l-7.44-2.1,7.43-2.09c6.56-1.84,11.68-6.97,13.53-13.53l2.09-7.43,2.1,7.44c1.85,6.55,6.96,11.67,13.51,13.51l7.44,2.1Z"/><path class="cls-11" d="M583.96,862.73l-5.15,1.45c-4.55,1.28-8.11,4.84-9.39,9.39l-1.45,5.15-1.46-5.16c-1.28-4.54-4.83-8.09-9.37-9.37l-5.16-1.46,5.15-1.45c4.55-1.28,8.11-4.84,9.39-9.39l1.45-5.15,1.46,5.16c1.28,4.54,4.83,8.09,9.37,9.37l5.16,1.46Z"/><path class="cls-11" d="M93.23,544.32l-5.15,1.45c-4.55,1.28-8.11,4.84-9.39,9.39l-1.45,5.15-1.46-5.16c-1.28-4.54-4.83-8.09-9.37-9.37l-5.16-1.46,5.15-1.45c4.55-1.28,8.11-4.84,9.39-9.39l1.45-5.15,1.46,5.16c1.28,4.54,4.83,8.09,9.37,9.37l5.16,1.46Z"/><path class="cls-11" d="M891.7,510.38l-5.15,1.45c-4.55,1.28-8.11,4.84-9.39,9.39l-1.45,5.15-1.46-5.16c-1.28-4.54-4.83-8.09-9.37-9.37l-5.16-1.46,5.15-1.45c4.55-1.28,8.11-4.84,9.39-9.39l1.45-5.15,1.46,5.16c1.28,4.54,4.83,8.09,9.37,9.37l5.16,1.46Z"/><path class="cls-11" d="M571.84,177.77l-5.15,1.45c-4.55,1.28-8.11,4.84-9.39,9.39l-1.45,5.15-1.46-5.16c-1.28-4.54-4.83-8.09-9.37-9.37l-5.16-1.46,5.15-1.45c4.55-1.28,8.11-4.84,9.39-9.39l1.45-5.15,1.46,5.16c1.28,4.54,4.83,8.09,9.37,9.37l5.16,1.46Z"/><path class="cls-11" d="M207.89,251.97l-10.37,2.92c-9.16,2.58-16.32,9.73-18.89,18.89l-2.92,10.37-2.93-10.38c-2.58-9.14-9.72-16.29-18.87-18.87l-10.38-2.93,10.37-2.92c9.16-2.58,16.32-9.73,18.89-18.89l2.92-10.37,2.93,10.38c2.58,9.14,9.72,16.29,18.87,18.87l10.38,2.93Z"/><circle class="cls-11" cx="630.73" cy="318.04" r="3.87"/><circle class="cls-11" cx="715.8" cy="930.33" r="3.87"/><circle class="cls-11" cx="731.99" cy="742.92" r="3.87"/><circle class="cls-11" cx="484.43" cy="918.05" r="3.87"/><circle class="cls-11" cx="282.37" cy="658" r="3.87"/><circle class="cls-11" cx="267.11" cy="706.5" r="3.87"/><circle class="cls-11" cx="97.1" cy="590.33" r="3.87"/><circle class="cls-11" cx="89.36" cy="255.84" r="3.87"/><circle class="cls-11" cx="571.84" cy="598.07" r="3.87"/><circle class="cls-11" cx="305.1" cy="467.43" r="3.87"/><circle class="cls-11" cx="263.24" cy="193.76" r="3.87"/><circle class="cls-11" cx="175.71" cy="356.97" r="3.87"/><circle class="cls-11" cx="419.68" cy="86.89" r="3.87"/><circle class="cls-11" cx="561.65" cy="746.78" r="3.87"/><circle class="cls-11" cx="415.81" cy="299.66" r="3.87"/><circle class="cls-11" cx="652.46" cy="106.07" r="3.87"/><circle class="cls-11" cx="634.6" cy="67.47" r="3.87"/><circle class="cls-11" cx="798.11" cy="251.97" r="3.87"/><circle class="cls-11" cx="931.53" cy="339.1" r="3.87"/><circle class="cls-11" cx="761.89" cy="485.21" r="3.87"/><circle class="cls-11" cx="903.62" cy="654.13" r="3.87"/><circle class="cls-23" cx="738.85" cy="109.94" r="29.83"/><circle class="cls-3" cx="578.9" cy="458.29" r="29.83"/><circle class="cls-5" cx="387.82" cy="601.93" r="29.83"/><circle class="cls-2" cx="77.24" cy="544.32" r="18.44"/><circle class="cls-6" cx="555.85" cy="177.77" r="18.44"/><circle class="cls-7" cx="875.72" cy="510.38" r="18.44"/><circle class="cls-8" cx="567.97" cy="862.73" r="18.44"/><circle class="cls-4" cx="219.23" cy="823.7" r="29.83"/><circle class="cls-9" cx="798.11" cy="613.37" r="29.83"/><circle class="cls-1" cx="175.71" cy="251.97" r="37.83"/></g><g><path class="cls-17" d="M114.88,460.16s369.88,275.23,522.73,328.88c39.18,13.75,72.14,20.54,99.49,23.04,59.23,5.4,114.51-30.28,134.21-86.41h0s0,0,0,0c19.7-56.12-1.15-118.53-50.76-151.33-22.91-15.15-52.88-30.44-92.06-44.2-152.85-53.65-613.61-69.99-613.61-69.99Z"/><g><path class="cls-13" d="M797.05,569.5c-36.99-54.11-127.64-88.25-168.68-81.45-61.85,10.24-51.92-7.63-95.26-10.74-19.17-1.37-41.08,10.49-48.19,36.67-3.76,13.86-12.21,26.05-24.01,34.24-12.65,8.78-26.99,22.93-32.08,43.9-9.92,40.92,18.95,71.52,70.44,89.18,30.37,10.41,44.28,31.76,53,49.92,26.24,54.62,138.4,84.38,188.74,65.02,49.96-19.21,138.39-32.24,143.95-126.57,3.59-60.91-48.59-42.64-87.91-100.16Z"/><path class="cls-19" d="M607.28,779.48c44.11,21.43,101.55,29.13,133.73,16.75,49.96-19.21,138.39-32.24,143.95-126.57,3.25-55.02-39.03-45.43-76.21-85.47,0,0,19.48,32.19,19.9,63.63,.33,25.08-16.67,49.01-27.48,60.56-105.2,112.36-193.89,71.11-193.89,71.11Z"/><path class="cls-14" d="M770.52,605.84c-15.81-9.83-27.44-25.63-33.23-11.66-5.79,13.96-9.21,28.76-20.09,29.38-10.88,.62-16.66,42,3.05,40.17,30.03-2.79,45.8,23.18,53.64,13.5,7.84-9.69,9.75-63.22-3.38-71.39Z"/><path class="cls-14" d="M609.76,628.14c-19.45,3.67-35.1,24.85-14.24,40.57,20.86,15.72,46.18,66.57,56.79,29.53s39.64-85.61-42.55-70.09Z"/><path class="cls-14" d="M509.24,618.56c-21.12-5.64-37.28,10.02-26.69,27.95,10.59,17.93,18.2,29.17,20.81,11.59s43.07,6.4,41.55-14.58c-1.52-20.97-35.67-24.96-35.67-24.96Z"/><path class="cls-14" d="M584.59,527.94c10.46-9.72,57.85-2.8,59.7,14.73s-38.06,29.96-44.72,21.07c-6.65-8.89-28.17-23.55-14.98-35.81Z"/><ellipse class="cls-14" cx="593.63" cy="725.37" rx="12.04" ry="27.38" transform="translate(-175.39 1261.26) rotate(-85.57)"/><path class="cls-16" d="M548.88,492.98c-12.75-4.97-32.31-6.68-39.96,7.52-7.65,14.2-16.47,51.98-39.7,62.48-23.24,10.5-26.88,56.32-19.72,56.17,7.16-.15,17.29-33.03,50.34-45.42s7.4-44.94,26.03-58.21c11.69-8.33,40.21-15.83,23.02-22.54Z"/><path class="cls-20" d="M772.6,542.47c9.47,8.29,17.82,17.34,24.44,27.03,39.32,57.52,91.51,39.25,87.91,100.16-5.56,94.33-94,107.36-143.95,126.57-50.34,19.36-162.5-10.4-188.74-65.02-8.72-18.16-22.64-39.5-53-49.92-51.49-17.66-80.37-48.25-70.44-89.18,1.43-5.89,3.59-11.25,6.24-16.1,0,0,23.33,71.58,80.58,73.67,57.25,2.1,89.05-22.06,120.76-2.26,31.71,19.79,34.58,60.98,63.11,63.23,28.53,2.26,44.92-14.65,60.06-16.67s30.51-21.13,33.91-34.6c3.4-13.47,26.12-23.74,28.07-40.1,2.53-21.23-48.95-76.83-48.95-76.83Z"/></g><path class="cls-13" d="M471.5,375.51c-10.75,2.87-28.19-7.23-36.54-7.49-17.5-.54-12.91,11.46-23.4,23.34-18.87,21.36,8.88,32.46,15.73,46.62,6.85,14.16,77.07,38.22,75.97-9.27-1.1-47.48-10.18-58.96-31.75-53.2Z"/><path class="cls-13" d="M544.24,768.1c-10.55-9.02-39.22-41.16-47.39-30.52s-10.1,18.67-8.05,29.76,30.45,50.29,48.19,58.62,51.64,20.62,46.1-7.95c-5.55-28.57-26.72-39.54-38.85-49.91Z"/><path class="cls-13" d="M264.76,499.59c12.03,1.2,44.43,28.2,53.68,9.39,9.25-18.81-4.32-28.84-22.51-29.47-18.19-.63-7.3-33.7-31.91-34.14-24.61-.44-44.84,13.05-46.62,28.06s24.76,23.91,47.35,26.16Z"/><path class="cls-14" d="M436.99,381.18c-8.5,2.35-14.3,12.88-8.94,17.87,5.36,4.99,8.93,13.8,13.45,4.72,4.52-9.08,6.31-25.58-4.51-22.59Z"/><path class="cls-14" d="M522.99,758.44c-4.38-2.42-10.92-.45-10.72,3.71,.19,4.15-1.85,9.15,3.59,7.26s12.72-7.88,7.14-10.96Z"/><path class="cls-14" d="M256.15,455.07c-7.62-4.45-19.2-1.25-19.04,6.07,.17,7.32-3.65,16.03,6.01,12.93,9.65-3.1,22.72-13.34,13.03-19Z"/><path class="cls-14" d="M539.98,822.47c6.72,4.94,17.42-7.76,6.68-10.27-10.74-2.51,8.23-8.59-7.07-11.89-15.3-3.3-26.28,2.67-14.94,8.34,11.33,5.67,9.36,9.44,15.33,13.83Z"/><path class="cls-14" d="M452.95,421.99c-5.22-6.51-18.83,3.01-9.1,8.21,9.73,5.19-10.17,6.18,3.77,13.31,13.94,7.12,26.08,4.19,16.58-4.21-9.49-8.4-6.62-11.53-11.25-17.31Z"/><path class="cls-14" d="M287.32,498.91c-6.22,1.51-6.18,4.94,3.85,8.02s13.89,2.21,10.83-5.53c-3.06-7.74-4.96-4.85-14.68-2.49Z"/><path class="cls-14" d="M560.16,812.44c3.79,5.48,5.6,.94,5.6,.94,2.21-3.06,1.59-7.68,4.76-5.45s6.25-2.18,.55-5.16-5.6-1.71-8.31,.66-8.58-.97-5.59,4.01c2.99,4.99,1.67,3.08,2.99,4.99Z"/><path class="cls-14" d="M271.03,477.85c-5.86-7.58-8.12-.93-8.12-.93-2.94,4.57-1.69,11.15-6.43,8.19s-8.82,3.61-.39,7.45c8.42,3.85,8.18,2.02,11.89-1.58,3.71-3.61,12.4,.74,7.72-6.19s-2.63-4.3-4.67-6.94Z"/><path class="cls-14" d="M499.39,747.19c4.16-.47,7.98-2.47,12.55,3.47,4.58,5.94-9.73,4.92-14.31,1.53s1.76-5.01,1.76-5.01Z"/><path class="cls-14" d="M481.05,428.08c3.44,2.39,7.63,3.4,7.15,10.89-.48,7.49-10.56-2.71-11.77-8.29-1.21-5.57,4.62-2.6,4.62-2.6Z"/><path class="cls-20" d="M488.49,754.57c-.71,4-.55,8.11,.31,12.77,2.06,11.09,30.45,50.29,48.19,58.62s51.64,20.62,46.1-7.95c-4.16-21.43-17.11-32.96-28.44-41.76,0,0,24.99,23.4,21.02,39.78-3.97,16.38-18.42-3.75-22.43-4.4s-19.17,1.8-22.59-6.07c-3.42-7.86,.31-14.7-6.03-19.41s-.05-8.72-5.7-11.59c-5.66-2.87-19.43,.29-26-7.57-6.57-7.86-4.42-12.42-4.42-12.42Z"/><path class="cls-20" d="M418.38,426.8c3.61,3.68,7.03,7.31,8.9,11.18,6.85,14.16,77.07,38.22,75.97-9.27-1.02-43.93-8.87-57.04-27.11-54.2,0,0,25.13,11.3,17.37,32.35-7.76,21.05-16.02,6.62-26.77,11.28s-12.41,10.74-15.21,8.87c-2.8-1.87-5.1-7.34-10.97-5.18-5.87,2.16-4.45,7.99-8.41,9.27s-13.78-4.29-13.78-4.29Z"/><path class="cls-20" d="M240.73,494.53c7.57,2.45,16.08,4.08,24.09,4.88,12.03,1.2,44.43,28.2,53.68,9.39s-4.32-28.84-22.51-29.47c-8.52-.29-10.66-7.71-13.06-15.55,0,0,1.01,7.38,.51,9.46-.92,3.79,.45,8.01,13.76,13.12,0,0,16.64,4.06,14.84,9.21-1.25,3.55-10.52-1.03-17.08,2.89-3.7,2.21-4.84,8.5-18.65,1.43-13.81-7.07-23.95-6.72-27.87-5.32-4.1,1.46-7.72-.04-7.72-.04Z"/><path class="cls-16" d="M444.24,378.46c.06-3.86-14.79-9.75-19.36-3.08s-13.07,19.52-9.19,19.86,8.27-10.5,14.79-12.28,13.68,.8,13.76-4.5Z"/><path class="cls-16" d="M230.19,461.68c-3.43-.29-11.35,8.28-7.04,12.46s1.37,11.29,7.09,11.45,2.12-8.58-.66-12.04c-2.78-3.46,7.56-11.28,.61-11.86Z"/><path class="cls-16" d="M532.08,768.26c4.7,.55-6.4-20.73-13.22-20.67-6.82,.06-7.62,2.61-.67,6.07,6.96,3.46,9.36,14.07,13.88,14.6Z"/></g><g><path class="cls-15" d="M343.49,173.07c-28.88,25.24-51.01,62.18-51.01,62.18-6.74,10.8-27.28,13.07-38.92,3.21s-13.07-27.28-3.21-38.92c0,0,15.04-25.03,71.94-52.18l21.2,25.7Z"/><path class="cls-12" d="M291.89,228.71c-5.73,9.18-23.19,11.11-33.07,2.73s-11.11-23.19-2.73-33.07c0,0,64.68-84.15,216.11-87.56,0,0-125.71,30.41-180.31,117.9Z"/><path class="cls-10" d="M287.28,224.84c-3.87,7.29-17.05,9.68-25.02,3.83s-9.68-17.05-3.83-25.02c0,0,44.75-67.47,159.81-78.1,0,0-94.05,29.81-130.96,99.29Z"/><path class="cls-11" d="M284.4,216.99c-1.66,4.52-9.11,6.95-14.18,4.2s-6.95-9.11-4.2-14.18c0,0,20.58-42.59,86.35-57.84,0,0-52.09,24.69-67.97,67.83Z"/></g></g></g></svg>