<?xml version="1.0" encoding="UTF-8"?><svg id="Ebene_2" xmlns="http://www.w3.org/2000/svg" xmlns:xlink="http://www.w3.org/1999/xlink" viewBox="0 0 1000.02 1000"><defs><style>.cls-1{fill:url(#Unbenannter_Verlauf_14-10);}.cls-2{fill:url(#Unbenannter_Verlauf_14-4);}.cls-3{fill:url(#Unbenannter_Verlauf_14-2);}.cls-4{fill:url(#Unbenannter_Verlauf_14-8);}.cls-5{fill:url(#Unbenannter_Verlauf_14-3);}.cls-6{fill:url(#Unbenannter_Verlauf_14-5);}.cls-7{fill:url(#Unbenannter_Verlauf_14-6);}.cls-8{fill:url(#Unbenannter_Verlauf_14-7);}.cls-9{fill:url(#Unbenannter_Verlauf_14-9);}.cls-10{fill:#fff;}.cls-11{fill:#999;}.cls-12{fill:#cdcccc;}.cls-13{fill:#bcbcbb;}.cls-14{fill:#d7d7d7;}.cls-15{fill:#1b1532;}.cls-16{fill:url(#Unbenannter_Verlauf_295);}.cls-17{fill:url(#Unbenannter_Verlauf_297);}.cls-18{fill:url(#Unbenannter_Verlauf_14);}</style><radialGradient id="Unbenannter_Verlauf_295" cx="257.45" cy="2397.53" fx="257.45" fy="2397.53" r="1400.42" gradientTransform="translate(0 -1137) scale(1 1.26)" gradientUnits="userSpaceOnUse"><stop offset=".84" stop-color="#221d43"/><stop offset=".88" stop-color="#211c41" stop-opacity=".94"/><stop offset=".92" stop-color="#201b3e" stop-opacity=".76"/><stop offset=".96" stop-color="#1e1839" stop-opacity=".45"/><stop offset="1" stop-color="#1b1532" stop-opacity=".03"/><stop offset="1" stop-color="#1b1532" stop-opacity="0"/></radialGradient><radialGradient id="Unbenannter_Verlauf_297" cx="199.55" cy="2962.64" fx="199.55" fy="2962.64" r="1359.71" gradientTransform="translate(0 -1870.55) scale(1 1.4)" gradientUnits="userSpaceOnUse"><stop offset=".87" stop-color="#2a2458"/><stop offset=".89" stop-color="#292357" stop-opacity=".95"/><stop offset=".92" stop-color="#282254" stop-opacity=".81"/><stop offset=".95" stop-color="#26214f" stop-opacity=".58"/><stop offset=".98" stop-color="#241e48" stop-opacity=".26"/><stop offset="1" stop-color="#221d43" stop-opacity="0"/></radialGradient><radialGradient id="Unbenannter_Verlauf_14" cx="738.85" cy="109.94" fx="738.85" fy="109.94" r="29.83" gradientUnits="userSpaceOnUse"><stop offset="0" stop-color="#fcea10"/><stop offset="0" stop-color="#fff" stop-opacity=".94"/><stop offset="1" stop-color="#fff" stop-opacity="0"/></radialGradient><radialGradient id="Unbenannter_Verlauf_14-2" cx="578.9" cy="458.29" fx="578.9" fy="458.29" xlink:href="#Unbenannter_Verlauf_14"/><radialGradient id="Unbenannter_Verlauf_14-3" cx="387.82" cy="601.93" fx="387.82" fy="601.93" xlink:href="#Unbenannter_Verlauf_14"/><radialGradient id="Unbenannter_Verlauf_14-4" cx="77.24" cy="544.32" fx="77.24" fy="544.32" r="18.44" xlink:href="#Unbenannter_Verlauf_14"/><radialGradient id="Unbenannter_Verlauf_14-5" cx="555.85" cy="177.77" fx="555.85" fy="177.77" r="18.44" xlink:href="#Unbenannter_Verlauf_14"/><radialGradient id="Unbenannter_Verlauf_14-6" cx="875.72" cy="510.38" fx="875.72" fy="510.38" r="18.44" xlink:href="#Unbenannter_Verlauf_14"/><radialGradient id="Unbenannter_Verlauf_14-7" cx="567.97" cy="862.73" fx="567.97" fy="862.73" r="18.44" xlink:href="#Unbenannter_Verlauf_14"/><radialGradient id="Unbenannter_Verlauf_14-8" cx="219.23" cy="823.7" fx="219.23" fy="823.7" xlink:href="#Unbenannter_Verlauf_14"/><radialGradient id="Unbenannter_Verlauf_14-9" cx="798.11" cy="613.37" fx="798.11" fy="613.37" xlink:href="#Unbenannter_Verlauf_14"/><radialGradient id="Unbenannter_Verlauf_14-10" cx="175.71" cy="251.97" fx="175.71" fy="251.97" r="37.83" xlink:href="#Unbenannter_Verlauf_14"/></defs><g id="design_4"><g><g><rect class="cls-15" x="0" width="1000" height="1000"/><path class="cls-16" d="M1000.01,386.06C811.24,222.92,539.79,120.61,238.11,120.61,156.16,120.61,76.44,128.16,0,142.43V1000H1000.01V386.06Z"/><path class="cls-17" d="M1000.02,746.29c-188.04-224.19-490.23-369.59-830.98-369.59-57.57,0-114.04,4.15-169.04,12.13V1000H1000.01v-253.71Z"/><path class="cls-10" d="M821.15,613.37l-7.43,2.09c-6.56,1.84-11.68,6.97-13.53,13.53l-2.09,7.43-2.1-7.44c-1.85-6.55-6.96-11.67-13.51-13.51l-7.44-2.1,7.43-2.09c6.56-1.84,11.68-6.97,13.53-13.53l2.09-7.43,2.1,7.44c1.85,6.55,6.96,11.67,13.51,13.51l7.44,2.1Z"/><path class="cls-10" d="M601.94,458.29l-7.43,2.09c-6.56,1.84-11.68,6.97-13.53,13.53l-2.09,7.43-2.1-7.44c-1.85-6.55-6.96-11.67-13.51-13.51l-7.44-2.1,7.43-2.09c6.56-1.84,11.68-6.97,13.53-13.53l2.09-7.43,2.1,7.44c1.85,6.55,6.96,11.67,13.51,13.51l7.44,2.1Z"/><path class="cls-10" d="M761.89,109.94l-7.43,2.09c-6.56,1.84-11.68,6.97-13.53,13.53l-2.09,7.43-2.1-7.44c-1.85-6.55-6.96-11.67-13.51-13.51l-7.44-2.1,7.43-2.09c6.56-1.84,11.68-6.97,13.53-13.53l2.09-7.43,2.1,7.44c1.85,6.55,6.96,11.67,13.51,13.51l7.44,2.1Z"/><path class="cls-10" d="M410.87,601.93l-7.43,2.09c-6.56,1.84-11.68,6.97-13.53,13.53l-2.09,7.43-2.1-7.44c-1.85-6.55-6.96-11.67-13.51-13.51l-7.44-2.1,7.43-2.09c6.56-1.84,11.68-6.97,13.53-13.53l2.09-7.43,2.1,7.44c1.85,6.55,6.96,11.67,13.51,13.51l7.44,2.1Z"/><path class="cls-10" d="M242.27,823.7l-7.43,2.09c-6.56,1.84-11.68,6.97-13.53,13.53l-2.09,7.43-2.1-7.44c-1.85-6.55-6.96-11.67-13.51-13.51l-7.44-2.1,7.43-2.09c6.56-1.84,11.68-6.97,13.53-13.53l2.09-7.43,2.1,7.44c1.85,6.55,6.96,11.67,13.51,13.51l7.44,2.1Z"/><path class="cls-10" d="M583.96,862.73l-5.15,1.45c-4.55,1.28-8.11,4.84-9.39,9.39l-1.45,5.15-1.46-5.16c-1.28-4.54-4.83-8.09-9.37-9.37l-5.16-1.46,5.15-1.45c4.55-1.28,8.11-4.84,9.39-9.39l1.45-5.15,1.46,5.16c1.28,4.54,4.83,8.09,9.37,9.37l5.16,1.46Z"/><path class="cls-10" d="M93.23,544.32l-5.15,1.45c-4.55,1.28-8.11,4.84-9.39,9.39l-1.45,5.15-1.46-5.16c-1.28-4.54-4.83-8.09-9.37-9.37l-5.16-1.46,5.15-1.45c4.55-1.28,8.11-4.84,9.39-9.39l1.45-5.15,1.46,5.16c1.28,4.54,4.83,8.09,9.37,9.37l5.16,1.46Z"/><path class="cls-10" d="M891.7,510.38l-5.15,1.45c-4.55,1.28-8.11,4.84-9.39,9.39l-1.45,5.15-1.46-5.16c-1.28-4.54-4.83-8.09-9.37-9.37l-5.16-1.46,5.15-1.45c4.55-1.28,8.11-4.84,9.39-9.39l1.45-5.15,1.46,5.16c1.28,4.54,4.83,8.09,9.37,9.37l5.16,1.46Z"/><path class="cls-10" d="M571.84,177.77l-5.15,1.45c-4.55,1.28-8.11,4.84-9.39,9.39l-1.45,5.15-1.46-5.16c-1.28-4.54-4.83-8.09-9.37-9.37l-5.16-1.46,5.15-1.45c4.55-1.28,8.11-4.84,9.39-9.39l1.45-5.15,1.46,5.16c1.28,4.54,4.83,8.09,9.37,9.37l5.16,1.46Z"/><path class="cls-10" d="M207.89,251.97l-10.37,2.92c-9.16,2.58-16.32,9.73-18.89,18.89l-2.92,10.37-2.93-10.38c-2.58-9.14-9.72-16.29-18.87-18.87l-10.38-2.93,10.37-2.92c9.16-2.58,16.32-9.73,18.89-18.89l2.92-10.37,2.93,10.38c2.58,9.14,9.72,16.29,18.87,18.87l10.38,2.93Z"/><circle class="cls-10" cx="630.73" cy="318.04" r="3.87"/><circle class="cls-10" cx="715.8" cy="930.33" r="3.87"/><circle class="cls-10" cx="731.99" cy="742.92" r="3.87"/><circle class="cls-10" cx="484.43" cy="918.05" r="3.87"/><circle class="cls-10" cx="282.37" cy="658" r="3.87"/><circle class="cls-10" cx="267.11" cy="706.5" r="3.87"/><circle class="cls-10" cx="97.1" cy="590.33" r="3.87"/><circle class="cls-10" cx="89.36" cy="255.84" r="3.87"/><circle class="cls-10" cx="571.84" cy="598.07" r="3.87"/><circle class="cls-10" cx="305.1" cy="467.43" r="3.87"/><circle class="cls-10" cx="263.24" cy="193.76" r="3.87"/><circle class="cls-10" cx="175.71" cy="356.97" r="3.87"/><circle class="cls-10" cx="419.68" cy="86.89" r="3.87"/><circle class="cls-10" cx="561.65" cy="746.78" r="3.87"/><circle class="cls-10" cx="415.81" cy="299.66" r="3.87"/><circle class="cls-10" cx="652.46" cy="106.07" r="3.87"/><circle class="cls-10" cx="634.6" cy="67.47" r="3.87"/><circle class="cls-10" cx="798.11" cy="251.97" r="3.87"/><circle class="cls-10" cx="931.53" cy="339.1" r="3.87"/><circle class="cls-10" cx="761.89" cy="485.21" r="3.87"/><circle class="cls-10" cx="903.62" cy="654.13" r="3.87"/><circle class="cls-18" cx="738.85" cy="109.94" r="29.83"/><circle class="cls-3" cx="578.9" cy="458.29" r="29.83"/><circle class="cls-5" cx="387.82" cy="601.93" r="29.83"/><circle class="cls-2" cx="77.24" cy="544.32" r="18.44"/><circle class="cls-6" cx="555.85" cy="177.77" r="18.44"/><circle class="cls-7" cx="875.72" cy="510.38" r="18.44"/><circle class="cls-8" cx="567.97" cy="862.73" r="18.44"/><circle class="cls-4" cx="219.23" cy="823.7" r="29.83"/><circle class="cls-9" cx="798.11" cy="613.37" r="29.83"/><circle class="cls-1" cx="175.71" cy="251.97" r="37.83"/></g><g><g><g><path class="cls-12" d="M578.11,457.01c6.18-6.28,6.09-16.38-.19-22.56-6.28-6.18-16.38-6.09-22.56,.19,0,0-245.34,250.61-234.47,261.3,10.87,10.69,257.22-238.93,257.22-238.93Z"/><path class="cls-11" d="M544.51,490.78c20.41-20.41,33.59-33.77,33.59-33.77,6.18-6.28,6.09-16.38-.19-22.56-6.28-6.18-16.38-6.09-22.56,.19,0,0-13.13,13.41-33.19,34.17l22.34,21.97Z"/><path class="cls-14" d="M538.36,468.58l-5.24-5.15c14.87-15.39,24.61-25.33,24.61-25.33,3.29-3.35,8.08-4.32,12.24-2.91,2.02,.68,2.29,3.42,.49,4.56-4.5,2.84-13.74,10.15-32.1,28.83Z"/><path class="cls-11" d="M360.16,667.97c-21.69,19.02-36.77,30.43-39.28,27.96-2.51-2.47,8.64-17.73,27.28-39.75l11.99,11.79Z"/></g><g><path class="cls-12" d="M671.73,548.48c6.18-6.28,6.09-16.38-.19-22.56-6.28-6.18-16.38-6.09-22.56,.19,0,0-245.34,250.61-234.47,261.3,10.87,10.69,257.22-238.93,257.22-238.93Z"/><path class="cls-11" d="M638.13,582.25c20.41-20.41,33.59-33.77,33.59-33.77,6.18-6.28,6.09-16.38-.19-22.56-6.28-6.18-16.38-6.09-22.56,.19,0,0-13.13,13.41-33.19,34.17l22.34,21.97Z"/><path class="cls-14" d="M631.99,560.06l-5.24-5.15c14.87-15.39,24.61-25.33,24.61-25.33,3.29-3.35,8.08-4.32,12.24-2.91,2.02,.68,2.29,3.42,.49,4.56-4.5,2.84-13.74,10.15-32.1,28.83Z"/><path class="cls-11" d="M453.78,759.44c-21.69,19.02-36.77,30.43-39.28,27.96s8.64-17.73,27.28-39.75l11.99,11.79Z"/></g><circle class="cls-13" cx="651.45" cy="453.5" r="136.8"/><g><path class="cls-12" d="M771.96,388.69l-257.25,68.61c6.35,11.8,14.56,22.86,24.62,32.75,53.88,52.96,140.49,52.22,193.45-1.67,27.14-27.61,40.18-63.82,39.19-99.7Z"/><path class="cls-12" d="M747.34,355.94c-53.88-52.96-140.49-52.22-193.45,1.67-27.14,27.61-40.18,63.82-39.19,99.7l257.25-68.61c-6.35-11.8-14.56-22.86-24.62-32.75Z"/></g><g><path class="cls-12" d="M564.82,379.35c6.18-6.28,6.09-16.38-.19-22.56s-16.38-6.09-22.56,.19c0,0-245.34,250.61-234.47,261.3,10.87,10.69,257.22-238.93,257.22-238.93Z"/><path class="cls-11" d="M531.23,413.12c20.41-20.41,33.59-33.77,33.59-33.77,6.18-6.28,6.09-16.38-.19-22.56s-16.38-6.09-22.56,.19c0,0-13.13,13.41-33.19,34.17l22.34,21.97Z"/><path class="cls-14" d="M525.08,390.93l-5.24-5.15c14.87-15.39,24.61-25.33,24.61-25.33,3.29-3.35,8.08-4.32,12.24-2.91,2.02,.68,2.29,3.42,.49,4.56-4.5,2.84-13.74,10.15-32.1,28.83Z"/><path class="cls-11" d="M346.88,590.32c-21.69,19.02-36.77,30.43-39.28,27.96-2.51-2.47,8.64-17.73,27.28-39.75l11.99,11.79Z"/></g><g><path class="cls-12" d="M727.08,538.84c6.18-6.28,16.28-6.37,22.56-.19,6.28,6.18,6.37,16.28,.19,22.56,0,0-246.35,249.62-257.22,238.93s234.47-261.3,234.47-261.3Z"/><path class="cls-11" d="M693.89,573.01c20.05-20.76,33.19-34.17,33.19-34.17,6.18-6.28,16.28-6.37,22.56-.19,6.28,6.18,6.37,16.28,.19,22.56,0,0-13.19,13.36-33.59,33.77l-22.35-21.96Z"/><path class="cls-14" d="M716.19,578.78l5.24,5.15c15.13-15.13,24.91-25.04,24.91-25.04,3.29-3.35,4.18-8.15,2.7-12.29-.72-2-3.46-2.23-4.57-.41-2.77,4.55-9.91,13.91-28.27,32.59Z"/><path class="cls-11" d="M519.9,760.39c-18.64,22.02-29.8,37.28-27.28,39.75s17.58-8.95,39.28-27.96l-11.99-11.79Z"/></g></g><ellipse class="cls-14" cx="646.02" cy="368.17" rx="56.16" ry="33.5"/></g></g></g></svg>