<?xml version="1.0" encoding="UTF-8"?><svg id="Ebene_2" xmlns="http://www.w3.org/2000/svg" xmlns:xlink="http://www.w3.org/1999/xlink" viewBox="0 0 1000.02 1000"><defs><style>.cls-1{fill:url(#Unbenannter_Verlauf_14-10);}.cls-2{fill:url(#Unbenannter_Verlauf_14-4);}.cls-3{fill:url(#Unbenannter_Verlauf_14-2);}.cls-4{fill:url(#Unbenannter_Verlauf_14-8);}.cls-5{fill:url(#Unbenannter_Verlauf_14-3);}.cls-6{fill:url(#Unbenannter_Verlauf_14-5);}.cls-7{fill:url(#Unbenannter_Verlauf_14-6);}.cls-8{fill:url(#Unbenannter_Verlauf_14-7);}.cls-9{fill:url(#Unbenannter_Verlauf_14-9);}.cls-10{fill:#fab72e;}.cls-11,.cls-12,.cls-13{fill:#fff;}.cls-14{fill:#f39436;}.cls-15{fill:#ecf7fd;}.cls-16{fill:#fcdf82;}.cls-17{fill:#7dc9cd;}.cls-18{fill:#999;}.cls-19{fill:#91c7d7;}.cls-20{fill:#cdcccc;}.cls-21{fill:#bcbcbb;}.cls-22{fill:#bde1e4;}.cls-23{fill:#ce4b51;}.cls-24{fill:#c8e7f3;}.cls-25{fill:#dbdbdb;}.cls-26{fill:#d86e6f;}.cls-27{fill:#d7d8d7;}.cls-28{fill:#d7d7d7;}.cls-29{fill:#1b1532;}.cls-30{fill:#46bab9;}.cls-12{opacity:.18;}.cls-31{fill:url(#Unbenannter_Verlauf_295);}.cls-32{fill:url(#Unbenannter_Verlauf_297);}.cls-33{fill:url(#Unbenannter_Verlauf_71);}.cls-34{fill:url(#Unbenannter_Verlauf_14);}.cls-35{fill:url(#Unbenannter_Verlauf_44);}.cls-13{opacity:.25;}</style><radialGradient id="Unbenannter_Verlauf_295" cx="257.45" cy="2676.17" fx="257.45" fy="2676.17" r="1400.42" gradientTransform="translate(0 -1487.62) scale(1 1.26)" gradientUnits="userSpaceOnUse"><stop offset=".84" stop-color="#221d43"/><stop offset=".88" stop-color="#211c41" stop-opacity=".94"/><stop offset=".92" stop-color="#201b3e" stop-opacity=".76"/><stop offset=".96" stop-color="#1e1839" stop-opacity=".45"/><stop offset="1" stop-color="#1b1532" stop-opacity=".03"/><stop offset="1" stop-color="#1b1532" stop-opacity="0"/></radialGradient><radialGradient id="Unbenannter_Verlauf_297" cx="199.55" cy="3351.56" fx="199.55" fy="3351.56" r="1359.71" gradientTransform="translate(0 -2415.66) scale(1 1.4)" gradientUnits="userSpaceOnUse"><stop offset=".87" stop-color="#2a2458"/><stop offset=".89" stop-color="#292357" stop-opacity=".95"/><stop offset=".92" stop-color="#282254" stop-opacity=".81"/><stop offset=".95" stop-color="#26214f" stop-opacity=".58"/><stop offset=".98" stop-color="#241e48" stop-opacity=".26"/><stop offset="1" stop-color="#221d43" stop-opacity="0"/></radialGradient><radialGradient id="Unbenannter_Verlauf_14" cx="738.85" cy="109.94" fx="738.85" fy="109.94" r="29.83" gradientUnits="userSpaceOnUse"><stop offset="0" stop-color="#fcea10"/><stop offset="0" stop-color="#fff" stop-opacity=".94"/><stop offset="1" stop-color="#fff" stop-opacity="0"/></radialGradient><radialGradient id="Unbenannter_Verlauf_14-2" cx="578.9" cy="458.29" fx="578.9" fy="458.29" r="29.83" xlink:href="#Unbenannter_Verlauf_14"/><radialGradient id="Unbenannter_Verlauf_14-3" cx="387.82" cy="601.93" fx="387.82" fy="601.93" xlink:href="#Unbenannter_Verlauf_14"/><radialGradient id="Unbenannter_Verlauf_14-4" cx="77.24" cy="544.32" fx="77.24" fy="544.32" r="18.44" xlink:href="#Unbenannter_Verlauf_14"/><radialGradient id="Unbenannter_Verlauf_14-5" cx="555.85" cy="177.77" fx="555.85" fy="177.77" r="18.44" xlink:href="#Unbenannter_Verlauf_14"/><radialGradient id="Unbenannter_Verlauf_14-6" cx="875.72" cy="510.38" fx="875.72" fy="510.38" r="18.44" xlink:href="#Unbenannter_Verlauf_14"/><radialGradient id="Unbenannter_Verlauf_14-7" cx="567.97" cy="862.73" fx="567.97" fy="862.73" r="18.44" xlink:href="#Unbenannter_Verlauf_14"/><radialGradient id="Unbenannter_Verlauf_14-8" cx="219.23" cy="823.7" fx="219.23" fy="823.7" xlink:href="#Unbenannter_Verlauf_14"/><radialGradient id="Unbenannter_Verlauf_14-9" cx="798.11" cy="613.37" fx="798.11" fy="613.37" xlink:href="#Unbenannter_Verlauf_14"/><radialGradient id="Unbenannter_Verlauf_14-10" cx="175.71" cy="251.97" fx="175.71" fy="251.97" r="37.83" xlink:href="#Unbenannter_Verlauf_14"/><radialGradient id="Unbenannter_Verlauf_44" cx="-138.23" cy="101.6" fx="-138.23" fy="101.6" r="162.77" gradientTransform="translate(688.09 656.74) scale(1 .74)" gradientUnits="userSpaceOnUse"><stop offset="0" stop-color="#f7a63b" stop-opacity=".8"/><stop offset=".34" stop-color="#f7ac60" stop-opacity=".72"/><stop offset=".4" stop-color="#f7ae68" stop-opacity=".7"/><stop offset=".45" stop-color="#f7b973" stop-opacity=".57"/><stop offset=".54" stop-color="#f8c783" stop-opacity=".4"/><stop offset=".63" stop-color="#f9d490" stop-opacity=".25"/><stop offset=".72" stop-color="#fadd9a" stop-opacity=".14"/><stop offset=".81" stop-color="#fae4a1" stop-opacity=".06"/><stop offset=".91" stop-color="#fae8a5" stop-opacity=".02"/><stop offset="1" stop-color="#fbeaa7" stop-opacity="0"/></radialGradient><radialGradient id="Unbenannter_Verlauf_71" cx="745.45" cy="1045.34" fx="745.45" fy="1045.34" r="162.77" gradientTransform="translate(-125.01 86.96) scale(.62 .15)" gradientUnits="userSpaceOnUse"><stop offset="0" stop-color="#69c6e3" stop-opacity=".8"/><stop offset=".3" stop-color="#b0dee9" stop-opacity=".58"/><stop offset=".4" stop-color="#cae7ec" stop-opacity=".5"/><stop offset=".45" stop-color="#cae7ec" stop-opacity=".44"/><stop offset=".62" stop-color="#cae7ec" stop-opacity=".25"/><stop offset=".78" stop-color="#cae7ec" stop-opacity=".11"/><stop offset=".91" stop-color="#cae7ec" stop-opacity=".03"/><stop offset="1" stop-color="#cae7ec" stop-opacity="0"/></radialGradient></defs><g id="design_3"><g><g><rect class="cls-29" x="0" width="1000" height="1000"/><path class="cls-31" d="M1000.01,386.06C811.24,222.92,539.79,120.61,238.11,120.61,156.16,120.61,76.44,128.16,0,142.43V1000H1000.01V386.06Z"/><path class="cls-32" d="M1000.02,746.29c-188.04-224.19-490.23-369.59-830.98-369.59-57.57,0-114.04,4.15-169.04,12.13V1000H1000.01v-253.71Z"/><path class="cls-11" d="M821.15,613.37l-7.43,2.09c-6.56,1.84-11.68,6.97-13.53,13.53l-2.09,7.43-2.1-7.44c-1.85-6.55-6.96-11.67-13.51-13.51l-7.44-2.1,7.43-2.09c6.56-1.84,11.68-6.97,13.53-13.53l2.09-7.43,2.1,7.44c1.85,6.55,6.96,11.67,13.51,13.51l7.44,2.1Z"/><path class="cls-11" d="M601.94,458.29l-7.43,2.09c-6.56,1.84-11.68,6.97-13.53,13.53l-2.09,7.43-2.1-7.44c-1.85-6.55-6.96-11.67-13.51-13.51l-7.44-2.1,7.43-2.09c6.56-1.84,11.68-6.97,13.53-13.53l2.09-7.43,2.1,7.44c1.85,6.55,6.96,11.67,13.51,13.51l7.44,2.1Z"/><path class="cls-11" d="M761.89,109.94l-7.43,2.09c-6.56,1.84-11.68,6.97-13.53,13.53l-2.09,7.43-2.1-7.44c-1.85-6.55-6.96-11.67-13.51-13.51l-7.44-2.1,7.43-2.09c6.56-1.84,11.68-6.97,13.53-13.53l2.09-7.43,2.1,7.44c1.85,6.55,6.96,11.67,13.51,13.51l7.44,2.1Z"/><path class="cls-11" d="M410.87,601.93l-7.43,2.09c-6.56,1.84-11.68,6.97-13.53,13.53l-2.09,7.43-2.1-7.44c-1.85-6.55-6.96-11.67-13.51-13.51l-7.44-2.1,7.43-2.09c6.56-1.84,11.68-6.97,13.53-13.53l2.09-7.43,2.1,7.44c1.85,6.55,6.96,11.67,13.51,13.51l7.44,2.1Z"/><path class="cls-11" d="M242.27,823.7l-7.43,2.09c-6.56,1.84-11.68,6.97-13.53,13.53l-2.09,7.43-2.1-7.44c-1.85-6.55-6.96-11.67-13.51-13.51l-7.44-2.1,7.43-2.09c6.56-1.84,11.68-6.97,13.53-13.53l2.09-7.43,2.1,7.44c1.85,6.55,6.96,11.67,13.51,13.51l7.44,2.1Z"/><path class="cls-11" d="M583.96,862.73l-5.15,1.45c-4.55,1.28-8.11,4.84-9.39,9.39l-1.45,5.15-1.46-5.16c-1.28-4.54-4.83-8.09-9.37-9.37l-5.16-1.46,5.15-1.45c4.55-1.28,8.11-4.84,9.39-9.39l1.45-5.15,1.46,5.16c1.28,4.54,4.83,8.09,9.37,9.37l5.16,1.46Z"/><path class="cls-11" d="M93.23,544.32l-5.15,1.45c-4.55,1.28-8.11,4.84-9.39,9.39l-1.45,5.15-1.46-5.16c-1.28-4.54-4.83-8.09-9.37-9.37l-5.16-1.46,5.15-1.45c4.55-1.28,8.11-4.84,9.39-9.39l1.45-5.15,1.46,5.16c1.28,4.54,4.83,8.09,9.37,9.37l5.16,1.46Z"/><path class="cls-11" d="M891.7,510.38l-5.15,1.45c-4.55,1.28-8.11,4.84-9.39,9.39l-1.45,5.15-1.46-5.16c-1.28-4.54-4.83-8.09-9.37-9.37l-5.16-1.46,5.15-1.45c4.55-1.28,8.11-4.84,9.39-9.39l1.45-5.15,1.46,5.16c1.28,4.54,4.83,8.09,9.37,9.37l5.16,1.46Z"/><path class="cls-11" d="M571.84,177.77l-5.15,1.45c-4.55,1.28-8.11,4.84-9.39,9.39l-1.45,5.15-1.46-5.16c-1.28-4.54-4.83-8.09-9.37-9.37l-5.16-1.46,5.15-1.45c4.55-1.28,8.11-4.84,9.39-9.39l1.45-5.15,1.46,5.16c1.28,4.54,4.83,8.09,9.37,9.37l5.16,1.46Z"/><path class="cls-11" d="M207.89,251.97l-10.37,2.92c-9.16,2.58-16.32,9.73-18.89,18.89l-2.92,10.37-2.93-10.38c-2.58-9.14-9.72-16.29-18.87-18.87l-10.38-2.93,10.37-2.92c9.16-2.58,16.32-9.73,18.89-18.89l2.92-10.37,2.93,10.38c2.58,9.14,9.72,16.29,18.87,18.87l10.38,2.93Z"/><circle class="cls-11" cx="630.73" cy="318.04" r="3.87"/><circle class="cls-11" cx="715.8" cy="930.33" r="3.87"/><circle class="cls-11" cx="731.99" cy="742.92" r="3.87"/><circle class="cls-11" cx="484.43" cy="918.05" r="3.87"/><circle class="cls-11" cx="282.37" cy="658" r="3.87"/><circle class="cls-11" cx="267.11" cy="706.5" r="3.87"/><circle class="cls-11" cx="97.1" cy="590.33" r="3.87"/><circle class="cls-11" cx="89.36" cy="255.84" r="3.87"/><circle class="cls-11" cx="571.84" cy="598.07" r="3.87"/><circle class="cls-11" cx="305.1" cy="467.43" r="3.87"/><circle class="cls-11" cx="263.24" cy="193.76" r="3.87"/><circle class="cls-11" cx="175.71" cy="356.97" r="3.87"/><circle class="cls-11" cx="419.68" cy="86.89" r="3.87"/><circle class="cls-11" cx="561.65" cy="746.78" r="3.87"/><circle class="cls-11" cx="415.81" cy="299.66" r="3.87"/><circle class="cls-11" cx="652.46" cy="106.07" r="3.87"/><circle class="cls-11" cx="634.6" cy="67.47" r="3.87"/><circle class="cls-11" cx="798.11" cy="251.97" r="3.87"/><circle class="cls-11" cx="931.53" cy="339.1" r="3.87"/><circle class="cls-11" cx="761.89" cy="485.21" r="3.87"/><circle class="cls-11" cx="903.62" cy="654.13" r="3.87"/><circle class="cls-34" cx="738.85" cy="109.94" r="29.83"/><circle class="cls-3" cx="578.9" cy="458.29" r="29.83"/><circle class="cls-5" cx="387.82" cy="601.93" r="29.83"/><circle class="cls-2" cx="77.24" cy="544.32" r="18.44"/><circle class="cls-6" cx="555.85" cy="177.77" r="18.44"/><circle class="cls-7" cx="875.72" cy="510.38" r="18.44"/><circle class="cls-8" cx="567.97" cy="862.73" r="18.44"/><circle class="cls-4" cx="219.23" cy="823.7" r="29.83"/><circle class="cls-9" cx="798.11" cy="613.37" r="29.83"/><circle class="cls-1" cx="175.71" cy="251.97" r="37.83"/></g><ellipse class="cls-35" cx="550.36" cy="730.57" rx="162.62" ry="117.74" transform="translate(-359.74 639.18) rotate(-47.27)"/><ellipse class="cls-33" cx="334.52" cy="244.91" rx="100.18" ry="24.02"/><path class="cls-14" d="M525.21,767.62s46.04-2.47,60.87-21.7c14.83-19.23,26.35-62.77,26.35-62.77l-13.84-10.67-13.84-10.67s-39.19,22.2-54.02,41.43c-14.83,19.23-5.53,64.39-5.53,64.39Z"/><path class="cls-10" d="M536.15,753.42s38.95-7.95,53.78-27.17c14.83-19.23,18.95-45.84,18.95-45.84l-10.29-7.94-10.29-7.94s-24.7,10.75-39.53,29.97c-14.83,19.23-12.62,58.91-12.62,58.91Z"/><path class="cls-16" d="M550.36,734.98s26.16-9.16,37.62-24.01,16.59-33.89,16.59-33.89l-5.99-4.62-5.99-4.62s-17.12,9.81-28.57,24.66-13.67,42.48-13.67,42.48Z"/><path class="cls-25" d="M780.68,436.39s-94.06-4.36-126,37.05c-31.93,41.4-100.85,193.91-100.85,193.91,0,0,21.68,6.98,35.25,17.45,13.57,10.47,25.83,29.67,25.83,29.67,0,0,130-105.4,161.94-146.8,31.93-41.4,3.83-131.27,3.83-131.27Z"/><path class="cls-23" d="M618.91,711.2c-2.58,2.11-4,3.26-4,3.26,0,0-12.26-19.2-25.83-29.67-13.57-10.47-35.25-17.45-35.25-17.45,0,0,.77-1.7,2.18-4.78,0,0,22.38,7.2,36.36,17.98s26.55,30.66,26.55,30.66Z"/><g><path class="cls-23" d="M670.93,458.85c39.72-25.7,109.75-22.46,109.75-22.46,0,0,20.92,66.91,6.15,111.86h0c-25.63-43.65-67.17-75.69-115.9-89.4h0Z"/><path class="cls-23" d="M698.7,480.3c2.64,1.45,5.25,2.95,7.84,4.49,.92,.55,1.19,1.76,.6,2.65h0c-.56,.84-1.67,1.09-2.53,.57-2.54-1.52-5.12-2.99-7.71-4.42-.91-.5-1.25-1.64-.75-2.55h0c.5-.91,1.64-1.25,2.55-.75Z"/><path class="cls-23" d="M677.3,473.96c-2.56-1.12-5.14-2.2-7.74-3.23-1-.4-1.47-1.55-1.02-2.52h0c.42-.91,1.47-1.35,2.4-.98,2.64,1.05,5.27,2.15,7.87,3.28,.96,.42,1.38,1.54,.96,2.5h0c-.42,.95-1.52,1.36-2.47,.95Z"/><path class="cls-23" d="M735.05,507.05h0c.62-.81,.49-1.97-.31-2.62-1.34-1.08-2.7-2.15-4.07-3.21h0s0,0,0,0h0c-1.37-1.05-2.75-2.09-4.14-3.12-.82-.61-1.98-.44-2.61,.37h0c-.65,.84-.47,2.04,.38,2.66,1.37,1.01,2.72,2.03,4.07,3.07,1.35,1.04,2.68,2.09,4,3.16,.82,.66,2.03,.53,2.67-.31Z"/><path class="cls-23" d="M759.03,526.84c-2.07-2.19-4.19-4.33-6.34-6.44-.77-.75-2.01-.7-2.72,.1h0c-.67,.75-.63,1.89,.09,2.6,2.12,2.07,4.2,4.19,6.23,6.34,.72,.75,1.9,.79,2.66,.08h0c.75-.72,.79-1.91,.08-2.66Z"/><path class="cls-23" d="M770.6,545.93c1.73,2.19,3.43,4.41,5.09,6.67,.64,.87,1.87,1.03,2.7,.35h0c.78-.64,.92-1.77,.33-2.58-1.69-2.29-3.41-4.55-5.18-6.78-.65-.82-1.84-.95-2.66-.29h0c-.8,.65-.93,1.82-.29,2.63Z"/></g><path class="cls-12" d="M772.94,527.74c14.57-41.06,7.74-91.35,7.74-91.35,0,0-50.35,6.17-86.36,30.67h0c30.92,13.24,57.97,34.12,78.62,60.67h0Z"/><path class="cls-13" d="M772.94,527.74c-3.36,9.48-7.86,18.46-13.85,26.22-31.93,41.4-150.98,150.93-150.98,150.93,0,0-9.4-12.67-19.03-20.1-9.63-7.43-24.29-13.32-24.29-13.32,0,0,75.72-142.94,107.65-184.35,5.99-7.77,13.55-14.41,21.87-20.08h0c31.01,13.07,58.1,33.98,78.61,60.67h.01Z"/><path class="cls-23" d="M584.73,601.45s-23.02-8.99-33.26,4.29-38.66,60.9-38.66,60.9c0,0,38.27,5.63,55.09-29.78l16.83-35.41Z"/><path class="cls-26" d="M584.73,601.45s-18.73-5.68-28.98,7.6-24.89,44.09-24.89,44.09c0,0,26.08-2.06,37.04-16.28l16.83-35.41Z"/><g><path class="cls-23" d="M670.8,667.84s14.54,19.98,4.29,33.26-49.08,52.86-49.08,52.86c0,0-15.16-35.58,14.81-60.85l29.98-25.27Z"/><path class="cls-26" d="M670.8,667.84s10.26,16.68,.01,29.96c-10.24,13.28-36.33,35.27-36.33,35.27,0,0-4.63-25.75,6.34-39.96l29.98-25.27Z"/></g><circle class="cls-26" cx="694.22" cy="548.49" r="27.48"/><g><circle class="cls-19" cx="694.22" cy="548.49" r="19.9"/><circle class="cls-24" cx="691.42" cy="549.18" r="17.01"/><ellipse class="cls-15" cx="706.78" cy="545.09" rx="4.69" ry="8.36" transform="translate(-115.27 197.39) rotate(-14.71)"/></g><path class="cls-18" d="M341.59,237.87c0-5.35-16.34-9.69-36.49-9.69s-36.49,4.34-36.49,9.69,12.7,16.81,36.49,16.81,36.49-11.46,36.49-16.81Z"/><path class="cls-28" d="M341.59,237.87c0-5.35-16.34-9.69-36.49-9.69s-36.49,4.34-36.49,9.69,12.7,11.97,36.49,11.97,36.49-6.62,36.49-11.97Z"/><ellipse class="cls-21" cx="305.1" cy="237.87" rx="36.49" ry="9.69"/><path class="cls-28" d="M305.09,247.56c12.08,0,22.79-1.56,29.43-3.96-6.48-8.48-18.71-14.2-32.74-14.2-12.73,0-23.99,4.71-30.8,11.93,5.24,3.64,18.53,6.23,34.1,6.23Z"/><path class="cls-20" d="M305.11,247.56c12.7,0,23.88-1.72,30.42-4.34-4.89-8.21-13.85-13.7-24.09-13.7-11.4,0-21.21,6.81-25.59,16.58,5.59,.92,12.19,1.46,19.27,1.46Z"/><g><path class="cls-30" d="M322.56,233.03c0,2.4-7.82,5.75-17.46,5.75s-17.46-3.43-17.46-5.75c0-5.11,7.82-12.76,17.46-12.76s17.46,7.73,17.46,12.76Z"/><path class="cls-22" d="M305.1,239.26c-9.66,0-17.94-3.42-17.94-6.22s2.03-6.03,5.29-8.67c3.65-2.95,8.14-4.57,12.65-4.57s8.99,1.63,12.65,4.6c3.26,2.65,5.29,5.96,5.29,8.64,0,2.82-8,6.22-17.94,6.22Zm0-18.51c-9.38,0-16.99,7.44-16.99,12.29,0,.75,1.5,2.1,4.8,3.3,3.51,1.27,7.84,1.98,12.18,1.98s8.7-.69,12.19-1.95c3.32-1.19,4.8-2.53,4.8-3.33,0-2.37-1.94-5.47-4.94-7.9-2.02-1.64-6.28-4.39-12.05-4.39Z"/></g><path class="cls-17" d="M315.69,232.95c0,2.27-2.01,5.42-11.11,5.42s-16.48-3.24-16.48-5.42c0-4.82,7.38-12.05,16.48-12.05s11.11,7.3,11.11,12.05Z"/><path class="cls-22" d="M296.19,237.87s-7.19-.95-7.19-4.08c0-4.45,6.82-12.01,15.23-12.01,0,0-7.4,2.38-8.04,16.09Z"/><g><circle class="cls-27" cx="305.1" cy="244.91" r="1.45"/><path class="cls-18" d="M305.1,246.61c-.94,0-1.7-.76-1.7-1.7s.76-1.7,1.7-1.7,1.7,.76,1.7,1.7-.76,1.7-1.7,1.7Zm0-2.9c-.66,0-1.2,.54-1.2,1.2s.54,1.2,1.2,1.2,1.2-.54,1.2-1.2-.54-1.2-1.2-1.2Z"/></g><g><circle class="cls-27" cx="296.09" cy="244.44" r="1.45"/><path class="cls-18" d="M296.09,246.14c-.94,0-1.7-.76-1.7-1.7s.76-1.7,1.7-1.7,1.7,.76,1.7,1.7-.76,1.7-1.7,1.7Zm0-2.9c-.66,0-1.2,.54-1.2,1.2s.54,1.2,1.2,1.2,1.2-.54,1.2-1.2-.54-1.2-1.2-1.2Z"/></g><g><circle class="cls-27" cx="287.16" cy="243.15" r="1.45"/><path class="cls-18" d="M287.16,244.85c-.94,0-1.7-.76-1.7-1.7s.76-1.7,1.7-1.7,1.7,.76,1.7,1.7-.76,1.7-1.7,1.7Zm0-2.9c-.66,0-1.2,.54-1.2,1.2s.54,1.2,1.2,1.2,1.2-.54,1.2-1.2-.54-1.2-1.2-1.2Z"/></g><g><circle class="cls-27" cx="278.74" cy="241.15" r="1.45"/><path class="cls-18" d="M278.74,242.84c-.94,0-1.7-.76-1.7-1.7s.76-1.7,1.7-1.7,1.7,.76,1.7,1.7-.76,1.7-1.7,1.7Zm0-2.9c-.66,0-1.2,.54-1.2,1.2s.54,1.2,1.2,1.2,1.2-.54,1.2-1.2-.54-1.2-1.2-1.2Z"/></g><g><circle class="cls-27" cx="272.03" cy="237.57" r="1.45"/><path class="cls-18" d="M272.03,239.27c-.94,0-1.7-.76-1.7-1.7s.76-1.7,1.7-1.7,1.7,.76,1.7,1.7-.76,1.7-1.7,1.7Zm0-2.9c-.66,0-1.2,.54-1.2,1.2s.54,1.2,1.2,1.2,1.2-.54,1.2-1.2-.54-1.2-1.2-1.2Z"/></g><g><circle class="cls-27" cx="314.08" cy="244.44" r="1.45"/><path class="cls-18" d="M314.08,246.14c-.94,0-1.7-.76-1.7-1.7s.76-1.7,1.7-1.7,1.7,.76,1.7,1.7-.76,1.7-1.7,1.7Zm0-2.9c-.66,0-1.2,.54-1.2,1.2s.54,1.2,1.2,1.2,1.2-.54,1.2-1.2-.54-1.2-1.2-1.2Z"/></g><g><circle class="cls-27" cx="323" cy="243.15" r="1.45"/><path class="cls-18" d="M323,244.85c-.94,0-1.7-.76-1.7-1.7s.76-1.7,1.7-1.7,1.7,.76,1.7,1.7-.76,1.7-1.7,1.7Zm0-2.9c-.66,0-1.2,.54-1.2,1.2s.54,1.2,1.2,1.2,1.2-.54,1.2-1.2-.54-1.2-1.2-1.2Z"/></g><g><circle class="cls-27" cx="331.42" cy="241.15" r="1.45"/><path class="cls-18" d="M331.42,242.84c-.94,0-1.7-.76-1.7-1.7s.76-1.7,1.7-1.7,1.7,.76,1.7,1.7-.76,1.7-1.7,1.7Zm0-2.9c-.66,0-1.2,.54-1.2,1.2s.54,1.2,1.2,1.2,1.2-.54,1.2-1.2-.54-1.2-1.2-1.2Z"/></g><g><circle class="cls-27" cx="338.14" cy="237.57" r="1.45"/><path class="cls-18" d="M338.14,239.27c-.94,0-1.7-.76-1.7-1.7s.76-1.7,1.7-1.7,1.7,.76,1.7,1.7-.76,1.7-1.7,1.7Zm0-2.9c-.66,0-1.2,.54-1.2,1.2s.54,1.2,1.2,1.2,1.2-.54,1.2-1.2-.54-1.2-1.2-1.2Z"/></g></g></g></svg>