<?xml version="1.0" encoding="UTF-8"?><svg id="Ebene_2" xmlns="http://www.w3.org/2000/svg" xmlns:xlink="http://www.w3.org/1999/xlink" viewBox="0 0 1000.02 1000.02"><defs><style>.cls-1{fill:url(#Unbenannter_Verlauf_14-10);}.cls-2{fill:url(#Unbenannter_Verlauf_81-3);}.cls-2,.cls-3,.cls-4,.cls-5,.cls-6,.cls-7,.cls-8,.cls-9,.cls-10,.cls-11,.cls-12{opacity:.25;}.cls-3{fill:url(#Unbenannter_Verlauf_81-2);}.cls-4{fill:url(#Unbenannter_Verlauf_72-2);}.cls-5{fill:url(#Unbenannter_Verlauf_57-3);}.cls-6{fill:url(#Unbenannter_Verlauf_57-2);}.cls-13{fill:url(#Unbenannter_Verlauf_14-4);}.cls-14{fill:url(#Unbenannter_Verlauf_14-2);}.cls-15{fill:url(#Unbenannter_Verlauf_14-8);}.cls-16{fill:url(#Unbenannter_Verlauf_14-3);}.cls-17{fill:url(#Unbenannter_Verlauf_14-5);}.cls-18{fill:url(#Unbenannter_Verlauf_14-6);}.cls-19{fill:url(#Unbenannter_Verlauf_14-7);}.cls-20{fill:url(#Unbenannter_Verlauf_14-9);}.cls-21{fill:url(#Unbenannter_Verlauf_80-2);}.cls-22{fill:url(#Unbenannter_Verlauf_96-2);}.cls-23{fill:url(#Unbenannter_Verlauf_87-3);}.cls-23,.cls-24,.cls-25,.cls-26,.cls-27,.cls-28,.cls-29,.cls-30,.cls-31,.cls-32{opacity:.35;}.cls-24{fill:url(#Unbenannter_Verlauf_87-2);}.cls-7{fill:url(#Unbenannter_Verlauf_57);}.cls-25{fill:url(#Unbenannter_Verlauf_81);}.cls-26{fill:url(#Unbenannter_Verlauf_87);}.cls-27{fill:url(#Unbenannter_Verlauf_72);}.cls-33{fill:url(#Unbenannter_Verlauf_24-2);}.cls-33,.cls-34{opacity:.6;}.cls-34{fill:url(#Unbenannter_Verlauf_24-4);}.cls-35{fill:url(#Unbenannter_Verlauf_62);opacity:.65;}.cls-36{fill:url(#Unbenannter_Verlauf_24-3);}.cls-36,.cls-37,.cls-38{opacity:.8;}.cls-37{fill:url(#Unbenannter_Verlauf_24);}.cls-39{fill:#00abe9;}.cls-40{fill:#fff;}.cls-41{fill:#69c6e3;}.cls-42{fill:#b8e1ee;}.cls-43{fill:#0d79bf;}.cls-44{opacity:.7;}.cls-45{fill:url(#Unbenannter_Verlauf_108);}.cls-46{fill:url(#Unbenannter_Verlauf_97);}.cls-47{fill:url(#Unbenannter_Verlauf_96);}.cls-48{fill:url(#Unbenannter_Verlauf_73);}.cls-49{fill:url(#Unbenannter_Verlauf_80);}.cls-50{fill:url(#Unbenannter_Verlauf_14);}.cls-51{fill:url(#Unbenannter_Verlauf_17);}.cls-52{fill:url(#Unbenannter_Verlauf_18);}.cls-53{fill:url(#Unbenannter_Verlauf_28);}.cls-54{fill:url(#Unbenannter_Verlauf_21);}.cls-55{fill:url(#Unbenannter_Verlauf_40);}.cls-56{fill:url(#Unbenannter_Verlauf_493);}.cls-56,.cls-57{opacity:.5;}.cls-58{fill:url(#Unbenannter_Verlauf_6);}.cls-59{fill:url(#Unbenannter_Verlauf_7);}.cls-60{fill:url(#Unbenannter_Verlauf_8);}.cls-28{fill:url(#Unbenannter_Verlauf_361);}.cls-29{fill:url(#Unbenannter_Verlauf_350);}.cls-8{fill:url(#Unbenannter_Verlauf_361-4);}.cls-9{fill:url(#Unbenannter_Verlauf_361-2);}.cls-10{fill:url(#Unbenannter_Verlauf_361-3);}.cls-11{fill:url(#Unbenannter_Verlauf_350-5);}.cls-12{fill:url(#Unbenannter_Verlauf_350-2);}.cls-30{fill:url(#Unbenannter_Verlauf_361-5);}.cls-31{fill:url(#Unbenannter_Verlauf_350-4);}.cls-32{fill:url(#Unbenannter_Verlauf_350-3);}.cls-57{fill:url(#Unbenannter_Verlauf_493-2);}</style><linearGradient id="Unbenannter_Verlauf_8" x1="-95" y1="148.76" x2="877.8" y2="723.02" gradientUnits="userSpaceOnUse"><stop offset="0" stop-color="#412456"/><stop offset=".2" stop-color="#2e1a3d"/><stop offset=".36" stop-color="#241630"/><stop offset=".76" stop-color="#38204b"/><stop offset="1" stop-color="#412456"/></linearGradient><linearGradient id="Unbenannter_Verlauf_62" x1="445.92" y1="424.67" x2="651.99" y2="757.69" gradientUnits="userSpaceOnUse"><stop offset="0" stop-color="#6b247d" stop-opacity=".5"/><stop offset=".07" stop-color="#6f267e" stop-opacity=".53"/><stop offset=".18" stop-color="#7b2b82" stop-opacity=".62"/><stop offset=".31" stop-color="#8e3588" stop-opacity=".77"/><stop offset=".46" stop-color="#a94291" stop-opacity=".98"/><stop offset=".47" stop-color="#ac4492"/><stop offset=".56" stop-color="#a94291" stop-opacity=".98"/><stop offset=".66" stop-color="#a13e8e" stop-opacity=".92"/><stop offset=".77" stop-color="#95388a" stop-opacity=".82"/><stop offset=".88" stop-color="#833084" stop-opacity=".69"/><stop offset=".99" stop-color="#6d257d" stop-opacity=".52"/><stop offset="1" stop-color="#6b247d" stop-opacity=".5"/></linearGradient><radialGradient id="Unbenannter_Verlauf_14" cx="80.15" cy="546.27" fx="80.15" fy="546.27" r="18.44" gradientUnits="userSpaceOnUse"><stop offset="0" stop-color="#fcea10"/><stop offset="0" stop-color="#fff" stop-opacity=".94"/><stop offset="1" stop-color="#fff" stop-opacity="0"/></radialGradient><radialGradient id="Unbenannter_Verlauf_14-2" cx="558.76" cy="179.72" fx="558.76" fy="179.72" xlink:href="#Unbenannter_Verlauf_14"/><radialGradient id="Unbenannter_Verlauf_14-3" cx="878.62" cy="512.34" fx="878.62" fy="512.34" r="18.44" xlink:href="#Unbenannter_Verlauf_14"/><radialGradient id="Unbenannter_Verlauf_14-4" cx="570.88" cy="864.69" fx="570.88" fy="864.69" xlink:href="#Unbenannter_Verlauf_14"/><radialGradient id="Unbenannter_Verlauf_14-5" cx="792.01" cy="109.21" fx="792.01" fy="109.21" xlink:href="#Unbenannter_Verlauf_14"/><radialGradient id="Unbenannter_Verlauf_14-6" cx="810.01" cy="667.21" fx="810.01" fy="667.21" r="18.44" xlink:href="#Unbenannter_Verlauf_14"/><radialGradient id="Unbenannter_Verlauf_14-7" cx="567.01" cy="451.21" fx="567.01" fy="451.21" r="18.44" xlink:href="#Unbenannter_Verlauf_14"/><radialGradient id="Unbenannter_Verlauf_14-8" cx="414.01" cy="613.21" fx="414.01" fy="613.21" r="18.44" xlink:href="#Unbenannter_Verlauf_14"/><radialGradient id="Unbenannter_Verlauf_14-9" cx="234.01" cy="829.21" fx="234.01" fy="829.21" r="18.44" xlink:href="#Unbenannter_Verlauf_14"/><radialGradient id="Unbenannter_Verlauf_14-10" cx="207.01" cy="280.21" fx="207.01" fy="280.21" r="18.44" xlink:href="#Unbenannter_Verlauf_14"/><radialGradient id="Unbenannter_Verlauf_7" cx="437.06" cy="267.09" fx="437.06" fy="267.09" r="7.37" gradientUnits="userSpaceOnUse"><stop offset=".5" stop-color="#fff"/><stop offset=".8" stop-color="#9ed6bf" stop-opacity=".42"/><stop offset="1" stop-color="#5ab992" stop-opacity="0"/></radialGradient><radialGradient id="Unbenannter_Verlauf_6" cx="437.06" cy="267.09" fx="437.06" fy="267.09" r="100.68" gradientUnits="userSpaceOnUse"><stop offset="0" stop-color="#5ab992" stop-opacity="0"/><stop offset=".16" stop-color="#5ab992" stop-opacity=".02"/><stop offset=".32" stop-color="#5ab992" stop-opacity=".09"/><stop offset=".47" stop-color="#5ab992" stop-opacity=".19"/><stop offset=".63" stop-color="#5ab992" stop-opacity=".34"/><stop offset=".73" stop-color="#5ab992" stop-opacity=".46"/><stop offset=".77" stop-color="#6fc09e" stop-opacity=".56"/><stop offset=".86" stop-color="#a3d3bd" stop-opacity=".8"/><stop offset=".88" stop-color="#99cfb7" stop-opacity=".77"/><stop offset=".9" stop-color="#80c6a8" stop-opacity=".71"/><stop offset=".93" stop-color="#5ab992" stop-opacity=".6"/><stop offset=".94" stop-color="#5ab992" stop-opacity=".55"/><stop offset=".96" stop-color="#5ab992" stop-opacity=".42"/><stop offset=".98" stop-color="#5ab992" stop-opacity=".22"/><stop offset="1" stop-color="#5ab992" stop-opacity="0"/></radialGradient><radialGradient id="Unbenannter_Verlauf_350" cx="431.21" cy="252.01" fx="431.21" fy="252.01" r="5.85" gradientUnits="userSpaceOnUse"><stop offset=".5" stop-color="#a3d3bd"/><stop offset=".86" stop-color="#6fc09e" stop-opacity=".29"/><stop offset="1" stop-color="#5ab992" stop-opacity="0"/></radialGradient><radialGradient id="Unbenannter_Verlauf_361" cx="461.72" cy="269.56" fx="461.72" fy="269.56" r="5.85" gradientUnits="userSpaceOnUse"><stop offset="0" stop-color="#a3d3bd" stop-opacity="0"/><stop offset=".13" stop-color="#a3d3bd" stop-opacity=".02"/><stop offset=".23" stop-color="#a3d3bd" stop-opacity=".06"/><stop offset=".32" stop-color="#a3d3bd" stop-opacity=".14"/><stop offset=".41" stop-color="#a3d3bd" stop-opacity=".26"/><stop offset=".5" stop-color="#a3d3bd" stop-opacity=".4"/><stop offset=".58" stop-color="#a3d3bd" stop-opacity=".58"/><stop offset=".66" stop-color="#a3d3bd" stop-opacity=".79"/><stop offset=".73" stop-color="#a3d3bd"/><stop offset=".92" stop-color="#6fc09e" stop-opacity=".29"/><stop offset="1" stop-color="#5ab992" stop-opacity="0"/></radialGradient><radialGradient id="Unbenannter_Verlauf_350-2" cx="435.54" cy="304.88" fx="435.54" fy="304.88" xlink:href="#Unbenannter_Verlauf_350"/><radialGradient id="Unbenannter_Verlauf_361-2" cx="407.83" cy="285.97" fx="407.83" fy="285.97" r="3.57" xlink:href="#Unbenannter_Verlauf_361"/><radialGradient id="Unbenannter_Verlauf_361-3" cx="444.43" cy="230.76" fx="444.43" fy="230.76" r="3.57" xlink:href="#Unbenannter_Verlauf_361"/><radialGradient id="Unbenannter_Verlauf_350-3" cx="448" cy="284.22" fx="448" fy="284.22" r="3.57" xlink:href="#Unbenannter_Verlauf_350"/><radialGradient id="Unbenannter_Verlauf_350-4" cx="379.88" cy="246.16" fx="379.88" fy="246.16" r="3.57" xlink:href="#Unbenannter_Verlauf_350"/><radialGradient id="Unbenannter_Verlauf_361-4" cx="416.48" cy="202.55" fx="416.48" fy="202.55" r="3.57" xlink:href="#Unbenannter_Verlauf_361"/><radialGradient id="Unbenannter_Verlauf_361-5" cx="450.26" cy="340.17" fx="450.26" fy="340.17" r="3.57" xlink:href="#Unbenannter_Verlauf_361"/><radialGradient id="Unbenannter_Verlauf_350-5" cx="487.37" cy="282.4" fx="487.37" fy="282.4" r="3.57" xlink:href="#Unbenannter_Verlauf_350"/><radialGradient id="Unbenannter_Verlauf_87" cx="756.25" cy="809.02" fx="756.25" fy="809.02" r="5.51" gradientUnits="userSpaceOnUse"><stop offset=".5" stop-color="#d28aba"/><stop offset=".86" stop-color="#c16ca8" stop-opacity=".29"/><stop offset="1" stop-color="#bb60a2" stop-opacity="0"/></radialGradient><radialGradient id="Unbenannter_Verlauf_81" cx="777.57" cy="821.56" fx="777.57" fy="821.56" r="5.51" gradientUnits="userSpaceOnUse"><stop offset=".5" stop-color="#ac4492"/><stop offset=".82" stop-color="#833084" stop-opacity=".38"/><stop offset="1" stop-color="#6b247d" stop-opacity="0"/></radialGradient><radialGradient id="Unbenannter_Verlauf_72" cx="785.01" cy="825.56" fx="785.01" fy="825.56" r="5.51" gradientUnits="userSpaceOnUse"><stop offset="0" stop-color="#c578b0" stop-opacity="0"/><stop offset=".12" stop-color="#c578b0" stop-opacity=".01"/><stop offset=".22" stop-color="#c67bb2" stop-opacity=".06"/><stop offset=".31" stop-color="#c980b5" stop-opacity=".13"/><stop offset=".4" stop-color="#cc86b8" stop-opacity=".24"/><stop offset=".48" stop-color="#d18fbe" stop-opacity=".37"/><stop offset=".56" stop-color="#d699c4" stop-opacity=".54"/><stop offset=".64" stop-color="#dda6cb" stop-opacity=".73"/><stop offset=".71" stop-color="#e4b4d4" stop-opacity=".95"/><stop offset=".73" stop-color="#e6b7d6"/><stop offset=".91" stop-color="#d08ebd" stop-opacity=".35"/><stop offset="1" stop-color="#c578b0" stop-opacity="0"/></radialGradient><radialGradient id="Unbenannter_Verlauf_81-2" cx="760.33" cy="858.84" fx="760.33" fy="858.84" xlink:href="#Unbenannter_Verlauf_81"/><radialGradient id="Unbenannter_Verlauf_57" cx="734.21" cy="841.02" fx="734.21" fy="841.02" r="3.36" gradientUnits="userSpaceOnUse"><stop offset="0" stop-color="#582f85" stop-opacity="0"/><stop offset=".15" stop-color="#582f85" stop-opacity=".02"/><stop offset=".27" stop-color="#5b3085" stop-opacity=".09"/><stop offset=".38" stop-color="#5f3187" stop-opacity=".21"/><stop offset=".49" stop-color="#643388" stop-opacity=".38"/><stop offset=".59" stop-color="#6c368a" stop-opacity=".6"/><stop offset=".68" stop-color="#75398d" stop-opacity=".86"/><stop offset=".73" stop-color="#7a3b8f"/><stop offset="1" stop-color="#582f85" stop-opacity="0"/></radialGradient><radialGradient id="Unbenannter_Verlauf_57-2" cx="768.71" cy="788.99" fx="768.71" fy="788.99" r="3.36" xlink:href="#Unbenannter_Verlauf_57"/><radialGradient id="Unbenannter_Verlauf_87-2" cx="772.07" cy="839.37" fx="772.07" fy="839.37" r="3.36" xlink:href="#Unbenannter_Verlauf_87"/><radialGradient id="Unbenannter_Verlauf_81-3" cx="707.88" cy="803.51" fx="707.88" fy="803.51" r="3.36" xlink:href="#Unbenannter_Verlauf_81"/><radialGradient id="Unbenannter_Verlauf_72-2" cx="742.37" cy="762.41" fx="742.37" fy="762.41" r="3.36" xlink:href="#Unbenannter_Verlauf_72"/><radialGradient id="Unbenannter_Verlauf_57-3" cx="774.2" cy="892.1" fx="774.2" fy="892.1" xlink:href="#Unbenannter_Verlauf_57"/><radialGradient id="Unbenannter_Verlauf_87-3" cx="809.18" cy="837.66" fx="809.18" fy="837.66" r="3.36" xlink:href="#Unbenannter_Verlauf_87"/><radialGradient id="Unbenannter_Verlauf_24" cx="757.7" cy="825.56" fx="757.7" fy="825.56" r="94.88" gradientUnits="userSpaceOnUse"><stop offset="0" stop-color="#6b247d" stop-opacity="0"/><stop offset=".16" stop-color="#6e257e" stop-opacity=".02"/><stop offset=".33" stop-color="#772a81" stop-opacity=".09"/><stop offset=".49" stop-color="#883286" stop-opacity=".21"/><stop offset=".65" stop-color="#9e3d8d" stop-opacity=".37"/><stop offset=".73" stop-color="#ac4492" stop-opacity=".46"/><stop offset=".79" stop-color="#ac4492" stop-opacity=".61"/><stop offset=".86" stop-color="#ac4492" stop-opacity=".8"/><stop offset=".88" stop-color="#a33f8f" stop-opacity=".77"/><stop offset=".9" stop-color="#8c3487" stop-opacity=".7"/><stop offset=".93" stop-color="#6b247d" stop-opacity=".6"/><stop offset=".95" stop-color="#68257d" stop-opacity=".53"/><stop offset=".97" stop-color="#622880" stop-opacity=".34"/><stop offset="1" stop-color="#592e84" stop-opacity=".03"/><stop offset="1" stop-color="#582f85" stop-opacity="0"/></radialGradient><radialGradient id="Unbenannter_Verlauf_24-2" cx="720.5" cy="818.88" fx="720.5" fy="818.88" r="71.99" xlink:href="#Unbenannter_Verlauf_24"/><radialGradient id="Unbenannter_Verlauf_24-3" cx="765.82" cy="820.14" fx="765.82" fy="820.14" xlink:href="#Unbenannter_Verlauf_24"/><radialGradient id="Unbenannter_Verlauf_24-4" cx="812.54" cy="775.21" fx="812.54" fy="775.21" r="60.8" xlink:href="#Unbenannter_Verlauf_24"/><radialGradient id="Unbenannter_Verlauf_493" cx="761.76" cy="823.23" fx="761.76" fy="823.23" r="94.88" gradientUnits="userSpaceOnUse"><stop offset="0" stop-color="#1852a1" stop-opacity="0"/><stop offset=".17" stop-color="#1852a1" stop-opacity=".02"/><stop offset=".34" stop-color="#1852a1" stop-opacity=".1"/><stop offset=".51" stop-color="#1852a1" stop-opacity=".22"/><stop offset=".67" stop-color="#1852a1" stop-opacity=".39"/><stop offset=".73" stop-color="#1852a1" stop-opacity=".46"/><stop offset=".76" stop-color="#326cab" stop-opacity=".53"/><stop offset=".83" stop-color="#77aec5" stop-opacity=".7"/><stop offset=".86" stop-color="#9fd5d5" stop-opacity=".8"/><stop offset=".87" stop-color="#94cad0" stop-opacity=".78"/><stop offset=".89" stop-color="#76aec5" stop-opacity=".74"/><stop offset=".91" stop-color="#4780b3" stop-opacity=".67"/><stop offset=".93" stop-color="#1852a1" stop-opacity=".6"/><stop offset=".94" stop-color="#1852a1" stop-opacity=".55"/><stop offset=".96" stop-color="#1852a1" stop-opacity=".4"/><stop offset=".99" stop-color="#1852a1" stop-opacity=".16"/><stop offset="1" stop-color="#1852a1" stop-opacity="0"/></radialGradient><radialGradient id="Unbenannter_Verlauf_493-2" cx="812.54" cy="871.04" fx="812.54" fy="871.04" r="53.21" xlink:href="#Unbenannter_Verlauf_493"/><radialGradient id="Unbenannter_Verlauf_96" cx="305.23" cy="544.13" fx="305.23" fy="544.13" r="94" gradientUnits="userSpaceOnUse"><stop offset=".81" stop-color="#b8e1ee" stop-opacity="0"/><stop offset=".9" stop-color="#b8e1ee" stop-opacity=".3"/><stop offset="1" stop-color="#b8e1ee" stop-opacity="0"/></radialGradient><radialGradient id="Unbenannter_Verlauf_80" cx="260.96" cy="371.11" fx="260.96" fy="371.11" r="68.61" gradientUnits="userSpaceOnUse"><stop offset=".81" stop-color="#69c6e3" stop-opacity="0"/><stop offset=".9" stop-color="#69c6e3" stop-opacity=".3"/><stop offset="1" stop-color="#69c6e3" stop-opacity="0"/></radialGradient><radialGradient id="Unbenannter_Verlauf_40" cx="440.32" cy="528.48" fx="440.32" fy="528.48" r="68.61" gradientUnits="userSpaceOnUse"><stop offset=".81" stop-color="#69c6e3" stop-opacity="0"/><stop offset=".9" stop-color="#69c6e3" stop-opacity=".3"/><stop offset="1" stop-color="#69c6e3" stop-opacity="0"/></radialGradient><radialGradient id="Unbenannter_Verlauf_97" cx="346.71" cy="319.5" fx="346.71" fy="319.5" r="37.26" gradientUnits="userSpaceOnUse"><stop offset=".81" stop-color="#b8e1ee" stop-opacity="0"/><stop offset=".91" stop-color="#b8e1ee" stop-opacity=".3"/><stop offset="1" stop-color="#b8e1ee" stop-opacity="0"/></radialGradient><radialGradient id="Unbenannter_Verlauf_73" cx="512.45" cy="442.95" fx="512.45" fy="442.95" r="20.1" gradientUnits="userSpaceOnUse"><stop offset=".81" stop-color="#0d79bf" stop-opacity="0"/><stop offset=".9" stop-color="#0d79bf" stop-opacity=".3"/><stop offset="1" stop-color="#0d79bf" stop-opacity="0"/></radialGradient><radialGradient id="Unbenannter_Verlauf_96-2" cx="472.88" cy="403.03" fx="472.88" fy="403.03" r="60.95" xlink:href="#Unbenannter_Verlauf_96"/><radialGradient id="Unbenannter_Verlauf_80-2" cx="358.39" cy="596.48" fx="358.39" fy="596.48" r="37.26" xlink:href="#Unbenannter_Verlauf_80"/><radialGradient id="Unbenannter_Verlauf_108" cx="360.19" cy="460.62" fx="360.19" fy="460.62" r="189.91" gradientUnits="userSpaceOnUse"><stop offset=".76" stop-color="#00abe9"/><stop offset="1" stop-color="#b8e1ee" stop-opacity="0"/></radialGradient><radialGradient id="Unbenannter_Verlauf_21" cx="360.19" cy="460.62" fx="360.19" fy="460.62" r="156.74" gradientUnits="userSpaceOnUse"><stop offset=".93" stop-color="#00abe9" stop-opacity=".9"/><stop offset="1" stop-color="#fff" stop-opacity=".2"/></radialGradient><radialGradient id="Unbenannter_Verlauf_18" cx="439.86" cy="275.36" fx="439.86" fy="275.36" r="144.85" gradientTransform="translate(-66.09 165.16) rotate(2.72)" gradientUnits="userSpaceOnUse"><stop offset=".81" stop-color="#69c6e3"/><stop offset="1" stop-color="#b8e1ee" stop-opacity=".8"/></radialGradient><radialGradient id="Unbenannter_Verlauf_17" cx="342.92" cy="446.98" fx="342.92" fy="446.98" r="127.48" gradientUnits="userSpaceOnUse"><stop offset="0" stop-color="#00abe9"/><stop offset="1" stop-color="#00abe9" stop-opacity="0"/></radialGradient><radialGradient id="Unbenannter_Verlauf_28" cx="331.16" cy="430.32" fx="331.16" fy="430.32" r="72.86" gradientUnits="userSpaceOnUse"><stop offset="0" stop-color="#0d79bf" stop-opacity=".8"/><stop offset="1" stop-color="#0d79bf" stop-opacity="0"/></radialGradient></defs><g id="design_3c"><g><rect class="cls-60" width="1000.02" height="1000.02"/><path class="cls-35" d="M0,1000.02v-253.56s1.07-138.02,145.99-202.44c144.93-64.41,246.14,4.6,377.27-158.73,131.12-163.33,276.05-41.41,365.77-158.73S1000.01,24.13,1000.01,24.13V489.11s-55.77,136.39-239.81,198.51c-184.03,62.11-92.02,93.35-250.74,125.55-158.73,32.21-71.31,186.84-71.31,186.84H0Z"/><path class="cls-40" d="M586.87,864.69l-5.15,1.45c-4.55,1.28-8.11,4.84-9.39,9.39l-1.45,5.15-1.46-5.16c-1.28-4.54-4.83-8.09-9.37-9.37l-5.16-1.46,5.15-1.45c4.55-1.28,8.11-4.84,9.39-9.39l1.45-5.15,1.46,5.16c1.28,4.54,4.83,8.09,9.37,9.37l5.16,1.46Z"/><path class="cls-40" d="M96.14,546.27l-5.15,1.45c-4.55,1.28-8.11,4.84-9.39,9.39l-1.45,5.15-1.46-5.16c-1.28-4.54-4.83-8.09-9.37-9.37l-5.16-1.46,5.15-1.45c4.55-1.28,8.11-4.84,9.39-9.39l1.45-5.15,1.46,5.16c1.28,4.54,4.83,8.09,9.37,9.37l5.16,1.46Z"/><path class="cls-40" d="M894.61,512.34l-5.15,1.45c-4.55,1.28-8.11,4.84-9.39,9.39l-1.45,5.15-1.46-5.16c-1.28-4.54-4.83-8.09-9.37-9.37l-5.16-1.46,5.15-1.45c4.55-1.28,8.11-4.84,9.39-9.39l1.45-5.15,1.46,5.16c1.28,4.54,4.83,8.09,9.37,9.37l5.16,1.46Z"/><path class="cls-40" d="M574.75,179.72l-5.15,1.45c-4.55,1.28-8.11,4.84-9.39,9.39l-1.45,5.15-1.46-5.16c-1.28-4.54-4.83-8.09-9.37-9.37l-5.16-1.46,5.15-1.45c4.55-1.28,8.11-4.84,9.39-9.39l1.45-5.15,1.46,5.16c1.28,4.54,4.83,8.09,9.37,9.37l5.16,1.46Z"/><circle class="cls-40" cx="633.64" cy="319.99" r="3.87"/><circle class="cls-40" cx="718.71" cy="932.28" r="3.87"/><circle class="cls-40" cx="734.9" cy="744.87" r="3.87"/><circle class="cls-40" cx="487.34" cy="920.01" r="3.87"/><circle class="cls-40" cx="285.28" cy="659.95" r="3.87"/><circle class="cls-40" cx="270.01" cy="708.45" r="3.87"/><circle class="cls-40" cx="100.01" cy="592.28" r="3.87"/><circle class="cls-40" cx="92.27" cy="257.79" r="3.87"/><circle class="cls-40" cx="574.75" cy="600.02" r="3.87"/><circle class="cls-40" cx="308" cy="469.38" r="3.87"/><circle class="cls-40" cx="266.15" cy="195.71" r="3.87"/><circle class="cls-40" cx="178.61" cy="358.93" r="3.87"/><circle class="cls-40" cx="422.58" cy="88.84" r="3.87"/><circle class="cls-40" cx="564.55" cy="748.73" r="3.87"/><circle class="cls-40" cx="418.71" cy="301.61" r="3.87"/><circle class="cls-40" cx="655.37" cy="108.02" r="3.87"/><circle class="cls-40" cx="637.51" cy="69.42" r="3.87"/><circle class="cls-40" cx="801.01" cy="253.92" r="3.87"/><circle class="cls-40" cx="934.44" cy="341.05" r="3.87"/><circle class="cls-40" cx="764.8" cy="487.16" r="3.87"/><circle class="cls-40" cx="906.53" cy="656.08" r="3.87"/><circle class="cls-50" cx="80.15" cy="546.27" r="18.44"/><circle class="cls-14" cx="558.76" cy="179.72" r="18.44"/><circle class="cls-16" cx="878.62" cy="512.34" r="18.44"/><circle class="cls-13" cx="570.88" cy="864.69" r="18.44"/><g><path class="cls-40" d="M808,109.21l-5.15,1.45c-4.55,1.28-8.11,4.84-9.39,9.39l-1.45,5.15-1.46-5.16c-1.28-4.54-4.83-8.09-9.37-9.37l-5.16-1.46,5.15-1.45c4.55-1.28,8.11-4.84,9.39-9.39l1.45-5.15,1.46,5.16c1.28,4.54,4.83,8.09,9.37,9.37l5.16,1.46Z"/><circle class="cls-17" cx="792.01" cy="109.21" r="18.44"/></g><g><path class="cls-40" d="M826,667.21l-5.15,1.45c-4.55,1.28-8.11,4.84-9.39,9.39l-1.45,5.15-1.46-5.16c-1.28-4.54-4.83-8.09-9.37-9.37l-5.16-1.46,5.15-1.45c4.55-1.28,8.11-4.84,9.39-9.39l1.45-5.15,1.46,5.16c1.28,4.54,4.83,8.09,9.37,9.37l5.16,1.46Z"/><circle class="cls-18" cx="810.01" cy="667.21" r="18.44"/></g><g><path class="cls-40" d="M583,451.21l-5.15,1.45c-4.55,1.28-8.11,4.84-9.39,9.39l-1.45,5.15-1.46-5.16c-1.28-4.54-4.83-8.09-9.37-9.37l-5.16-1.46,5.15-1.45c4.55-1.28,8.11-4.84,9.39-9.39l1.45-5.15,1.46,5.16c1.28,4.54,4.83,8.09,9.37,9.37l5.16,1.46Z"/><circle class="cls-19" cx="567.01" cy="451.21" r="18.44"/></g><g><path class="cls-40" d="M430,613.21l-5.15,1.45c-4.55,1.28-8.11,4.84-9.39,9.39l-1.45,5.15-1.46-5.16c-1.28-4.54-4.83-8.09-9.37-9.37l-5.16-1.46,5.15-1.45c4.55-1.28,8.11-4.84,9.39-9.39l1.45-5.15,1.46,5.16c1.28,4.54,4.83,8.09,9.37,9.37l5.16,1.46Z"/><circle class="cls-15" cx="414.01" cy="613.21" r="18.44"/></g><g><path class="cls-40" d="M250,829.21l-5.15,1.45c-4.55,1.28-8.11,4.84-9.39,9.39l-1.45,5.15-1.46-5.16c-1.28-4.54-4.83-8.09-9.37-9.37l-5.16-1.46,5.15-1.45c4.55-1.28,8.11-4.84,9.39-9.39l1.45-5.15,1.46,5.16c1.28,4.54,4.83,8.09,9.37,9.37l5.16,1.46Z"/><circle class="cls-20" cx="234.01" cy="829.21" r="18.44"/></g><g><path class="cls-40" d="M223,280.21l-5.15,1.45c-4.55,1.28-8.11,4.84-9.39,9.39l-1.45,5.15-1.46-5.16c-1.28-4.54-4.83-8.09-9.37-9.37l-5.16-1.46,5.15-1.45c4.55-1.28,8.11-4.84,9.39-9.39l1.45-5.15,1.46,5.16c1.28,4.54,4.83,8.09,9.37,9.37l5.16,1.46Z"/><circle class="cls-1" cx="207.01" cy="280.21" r="18.44"/></g></g><g class="cls-44"><circle class="cls-59" cx="437.06" cy="267.09" r="7.37"/><circle class="cls-58" cx="437.06" cy="267.09" r="100.68"/><circle class="cls-29" cx="431.21" cy="252.01" r="5.85"/><circle class="cls-28" cx="461.72" cy="269.56" r="5.85"/><circle class="cls-12" cx="435.54" cy="304.88" r="5.85"/><circle class="cls-9" cx="407.83" cy="285.97" r="3.57"/><circle class="cls-10" cx="444.43" cy="230.76" r="3.57"/><circle class="cls-32" cx="448" cy="284.22" r="3.57"/><circle class="cls-31" cx="379.88" cy="246.16" r="3.57"/><circle class="cls-8" cx="416.48" cy="202.55" r="3.57"/><circle class="cls-30" cx="450.26" cy="340.17" r="3.57"/><circle class="cls-11" cx="487.37" cy="282.4" r="3.57"/></g><g class="cls-44"><circle class="cls-26" cx="756.25" cy="809.02" r="5.51"/><circle class="cls-25" cx="777.57" cy="821.56" r="5.51"/><circle class="cls-27" cx="785.01" cy="825.56" r="5.51"/><circle class="cls-3" cx="760.33" cy="858.84" r="5.51"/><circle class="cls-7" cx="734.21" cy="841.02" r="3.36"/><circle class="cls-6" cx="768.71" cy="788.99" r="3.36"/><circle class="cls-24" cx="772.07" cy="839.37" r="3.36"/><circle class="cls-2" cx="707.88" cy="803.51" r="3.36"/><circle class="cls-4" cx="742.37" cy="762.41" r="3.36"/><circle class="cls-5" cx="774.2" cy="892.1" r="3.36"/><circle class="cls-23" cx="809.18" cy="837.66" r="3.36"/><circle class="cls-37" cx="757.7" cy="825.56" r="94.88"/><circle class="cls-33" cx="720.5" cy="818.88" r="71.99"/><circle class="cls-36" cx="765.82" cy="820.14" r="94.88"/><circle class="cls-34" cx="812.54" cy="775.21" r="60.8"/><circle class="cls-56" cx="761.76" cy="823.23" r="94.88"/><circle class="cls-57" cx="812.54" cy="871.04" r="53.21"/></g><g><path class="cls-47" d="M305.23,638.14c-51.83,0-94-42.17-94-94s42.17-94,94-94,94,42.17,94,94-42.17,94-94,94Zm0-169.99c-41.9,0-75.99,34.09-75.99,75.99s34.09,75.99,75.99,75.99,75.99-34.09,75.99-75.99-34.09-75.99-75.99-75.99Z"/><path class="cls-49" d="M260.96,439.72c-37.83,0-68.61-30.78-68.61-68.61s30.78-68.61,68.61-68.61,68.61,30.78,68.61,68.61-30.78,68.61-68.61,68.61Zm0-124.08c-30.58,0-55.47,24.88-55.47,55.47s24.88,55.47,55.47,55.47,55.47-24.88,55.47-55.47-24.88-55.47-55.47-55.47Z"/><path class="cls-55" d="M440.32,597.09c-37.83,0-68.61-30.78-68.61-68.61s30.78-68.61,68.61-68.61,68.61,30.78,68.61,68.61-30.78,68.61-68.61,68.61Zm0-124.08c-30.58,0-55.47,24.88-55.47,55.47s24.88,55.47,55.47,55.47,55.47-24.88,55.47-55.47-24.88-55.47-55.47-55.47Z"/><path class="cls-46" d="M346.71,356.77c-20.55,0-37.26-16.72-37.26-37.26s16.72-37.26,37.26-37.26,37.26,16.72,37.26,37.26-16.72,37.26-37.26,37.26Zm0-67.39c-16.61,0-30.12,13.51-30.12,30.12s13.51,30.12,30.12,30.12,30.12-13.51,30.12-30.12-13.51-30.12-30.12-30.12Z"/><path class="cls-48" d="M512.45,463.06c-11.09,0-20.1-9.02-20.1-20.1s9.02-20.1,20.1-20.1,20.1,9.02,20.1,20.1-9.02,20.1-20.1,20.1Zm0-36.36c-8.96,0-16.25,7.29-16.25,16.25s7.29,16.25,16.25,16.25,16.25-7.29,16.25-16.25-7.29-16.25-16.25-16.25Z"/><path class="cls-22" d="M472.88,463.98c-33.61,0-60.95-27.34-60.95-60.95s27.34-60.95,60.95-60.95,60.95,27.34,60.95,60.95-27.34,60.95-60.95,60.95Zm0-110.23c-27.17,0-49.27,22.1-49.27,49.27s22.1,49.27,49.27,49.27,49.27-22.1,49.27-49.27-22.1-49.27-49.27-49.27Z"/><path class="cls-21" d="M358.39,633.74c-20.55,0-37.26-16.72-37.26-37.26s16.72-37.26,37.26-37.26,37.26,16.72,37.26,37.26-16.72,37.26-37.26,37.26Zm0-67.39c-16.61,0-30.12,13.51-30.12,30.12s13.51,30.12,30.12,30.12,30.12-13.51,30.12-30.12-13.51-30.12-30.12-30.12Z"/><circle class="cls-45" cx="360.19" cy="460.62" r="189.91"/><path class="cls-54" d="M369.95,305.33h0c9.84-3,20.51-1.31,28.94,4.58h0c5.45,3.81,11.92,5.91,18.57,6.03h0c10.28,.19,19.91,5.09,26.11,13.3h0c4.01,5.31,9.51,9.3,15.79,11.48h0c9.72,3.36,17.36,11,20.72,20.72h0c2.17,6.29,6.17,11.79,11.48,15.79h0c8.21,6.2,13.11,15.82,13.3,26.11h0c.12,6.65,2.22,13.12,6.03,18.57h0c5.89,8.43,7.58,19.1,4.58,28.94h0c-1.94,6.36-1.94,13.16,0,19.52h0c3,9.84,1.31,20.51-4.58,28.94h0c-3.81,5.45-5.91,11.92-6.03,18.57h0c-.19,10.28-5.09,19.91-13.3,26.11h0c-5.31,4.01-9.3,9.51-11.48,15.79h0c-3.36,9.72-11,17.36-20.72,20.72h0c-6.29,2.17-11.79,6.17-15.79,11.48h0c-6.2,8.21-15.82,13.11-26.11,13.3h0c-6.65,.12-13.12,2.22-18.57,6.03h0c-8.43,5.89-19.1,7.58-28.94,4.58h0c-6.36-1.94-13.16-1.94-19.52,0h0c-9.84,3-20.51,1.31-28.94-4.58h0c-5.45-3.81-11.92-5.91-18.57-6.03h0c-10.28-.19-19.91-5.09-26.11-13.3h0c-4.01-5.31-9.51-9.3-15.79-11.48h0c-9.72-3.36-17.36-11-20.72-20.72h0c-2.17-6.29-6.17-11.79-11.48-15.79h0c-8.21-6.2-13.11-15.82-13.3-26.11h0c-.12-6.65-2.22-13.12-6.03-18.57h0c-5.89-8.43-7.58-19.1-4.58-28.94h0c1.94-6.36,1.94-13.16,0-19.52h0c-3-9.84-1.31-20.51,4.58-28.94h0c3.81-5.45,5.91-11.92,6.03-18.57h0c.19-10.28,5.09-19.91,13.3-26.11h0c5.31-4.01,9.3-9.51,11.48-15.79h0c3.36-9.72,11-17.36,20.72-20.72h0c6.29-2.17,11.79-6.17,15.79-11.48h0c6.2-8.21,15.82-13.11,26.11-13.3h0c6.65-.12,13.12-2.22,18.57-6.03h0c8.43-5.89,19.1-7.58,28.94-4.58h0c6.36,1.94,13.16,1.94,19.52,0Z"/><circle class="cls-41" cx="360.19" cy="461.1" r="152.26"/><circle class="cls-52" cx="360.19" cy="461.1" r="144.85"/><circle class="cls-51" cx="342.92" cy="446.98" r="127.48"/><circle class="cls-53" cx="331.16" cy="430.32" r="72.86"/><g class="cls-38"><circle class="cls-42" cx="300.18" cy="421.37" r="2.64"/><circle class="cls-42" cx="314.88" cy="401.06" r="2.64"/><circle class="cls-42" cx="312.25" cy="390.26" r="2.64"/><circle class="cls-42" cx="312.25" cy="421.37" r="3.22"/><circle class="cls-42" cx="252.12" cy="444.65" r="2.64"/><circle class="cls-42" cx="246.84" cy="424.72" r="2.64"/><circle class="cls-42" cx="263.63" cy="453.76" r="3.77"/><circle class="cls-42" cx="321.27" cy="581.24" r="3.22"/><circle class="cls-40" cx="221.4" cy="467.88" r="2.64"/><circle class="cls-40" cx="312.25" cy="565.73" r="3.77"/><circle class="cls-42" cx="264.21" cy="537.54" r="3.22"/><circle class="cls-42" cx="233.09" cy="480.17" r="2.64"/><circle class="cls-40" cx="247.01" cy="502.49" r="3.22"/><circle class="cls-42" cx="276.45" cy="461.47" r="2.64"/><circle class="cls-42" cx="260.99" cy="507.19" r="3.22"/><circle class="cls-42" cx="266.27" cy="471.65" r="2.64"/><circle class="cls-42" cx="315.46" cy="467.88" r="3.77"/><circle class="cls-40" cx="308.47" cy="480.17" r="3.22"/><circle class="cls-42" cx="328.81" cy="380.66" r="2.64"/><circle class="cls-42" cx="294.33" cy="444.65" r="3.22"/><circle class="cls-42" cx="379.51" cy="328.36" r="2.64"/><circle class="cls-42" cx="391.58" cy="338.91" r="3.77"/><circle class="cls-42" cx="331.45" cy="351.64" r="2.64"/><circle class="cls-40" cx="342.96" cy="360.76" r="3.77"/><circle class="cls-42" cx="349.37" cy="399.97" r="3.77"/><circle class="cls-42" cx="342.38" cy="410.16" r="3.22"/><circle class="cls-40" cx="345.6" cy="378.65" r="2.64"/><circle class="cls-40" cx="387.81" cy="387.16" r="3.22"/><circle class="cls-42" cx="404.37" cy="383.95" r="3.77"/><circle class="cls-42" cx="373.66" cy="351.64" r="3.22"/><circle class="cls-42" cx="310.01" cy="347.44" r="3.22"/><circle class="cls-42" cx="289.47" cy="401.06" r="3.77"/><circle class="cls-40" cx="290.51" cy="386.84" r="2.64"/><circle class="cls-42" cx="271.42" cy="366.07" r="3.77"/><circle class="cls-42" cx="279.13" cy="356.43" r="3.22"/><circle class="cls-42" cx="273.62" cy="387.62" r="2.64"/><circle class="cls-42" cx="229.32" cy="439.29" r="3.22"/><circle class="cls-42" cx="242.72" cy="397.59" r="2.64"/><circle class="cls-42" cx="232.54" cy="407.78" r="2.64"/><circle class="cls-40" cx="385.72" cy="543.55" r="2.64"/><circle class="cls-40" cx="400.42" cy="523.25" r="2.64"/><circle class="cls-42" cx="397.79" cy="512.44" r="2.64"/><circle class="cls-42" cx="397.79" cy="543.55" r="3.22"/><circle class="cls-42" cx="348.27" cy="552.18" r="2.64"/><circle class="cls-40" cx="349.17" cy="575.95" r="3.77"/><circle class="cls-40" cx="361.99" cy="583.65" r="2.64"/><circle class="cls-42" cx="351.81" cy="593.84" r="2.64"/><circle class="cls-42" cx="401" cy="590.06" r="3.77"/><circle class="cls-42" cx="379.87" cy="566.83" r="3.22"/><circle class="cls-42" cx="340.3" cy="540.91" r="3.22"/><circle class="cls-42" cx="434.91" cy="522.16" r="3.77"/><circle class="cls-42" cx="427.92" cy="532.34" r="3.22"/><circle class="cls-42" cx="297.07" cy="507.93" r="2.64"/><circle class="cls-42" cx="331.56" cy="506.84" r="3.77"/><circle class="cls-42" cx="375.01" cy="523.25" r="3.77"/><circle class="cls-42" cx="348.27" cy="519.21" r="2.64"/><circle class="cls-42" cx="314.29" cy="552.14" r="2.64"/><circle class="cls-42" cx="279.45" cy="558.81" r="2.64"/><circle class="cls-42" cx="287.36" cy="552.82" r="3.22"/><circle class="cls-40" cx="295.33" cy="531.12" r="2.64"/><circle class="cls-40" cx="320.19" cy="489.35" r="2.64"/><circle class="cls-42" cx="273.24" cy="498.65" r="2.64"/><circle class="cls-42" cx="364.39" cy="426.51" r="2.64"/><circle class="cls-42" cx="353.71" cy="423.39" r="2.64"/><circle class="cls-42" cx="363.37" cy="486.14" r="2.64"/><circle class="cls-42" cx="380.69" cy="396.09" r="3.77"/><circle class="cls-42" cx="386.01" cy="407.24" r="3.22"/><circle class="cls-42" cx="351.68" cy="448.51" r="3.77"/><circle class="cls-40" cx="334.82" cy="469.66" r="2.64"/><circle class="cls-40" cx="466.37" cy="547.6" r="2.64"/><circle class="cls-42" cx="475.68" cy="509.18" r="3.77"/><circle class="cls-42" cx="487.41" cy="517.07" r="3.22"/><circle class="cls-42" cx="450.93" cy="528.52" r="3.22"/><circle class="cls-42" cx="450.2" cy="482.78" r="2.64"/><circle class="cls-42" cx="478.9" cy="490.01" r="2.64"/><circle class="cls-42" cx="464.59" cy="491.65" r="2.64"/><circle class="cls-40" cx="405.58" cy="394.27" r="2.64"/><circle class="cls-42" cx="433.1" cy="400.45" r="3.77"/><circle class="cls-42" cx="432.26" cy="412.77" r="3.22"/><circle class="cls-42" cx="459.68" cy="369.87" r="3.22"/><circle class="cls-42" cx="479.97" cy="430.15" r="2.64"/><circle class="cls-40" cx="459.53" cy="415.66" r="2.64"/><circle class="cls-42" cx="448.75" cy="418.4" r="2.64"/><circle class="cls-42" cx="479.85" cy="418.09" r="3.22"/><circle class="cls-42" cx="458.09" cy="381.18" r="3.77"/><circle class="cls-40" cx="468.34" cy="388.07" r="3.22"/><circle class="cls-42" cx="459.78" cy="441.06" r="3.77"/><circle class="cls-42" cx="445.54" cy="440.16" r="2.64"/><circle class="cls-40" cx="446.49" cy="457.05" r="2.64"/><circle class="cls-42" cx="435.6" cy="387.37" r="2.64"/><circle class="cls-42" cx="451.87" cy="399.81" r="3.22"/><circle class="cls-42" cx="419.21" cy="353.6" r="2.64"/><circle class="cls-42" cx="409.23" cy="358.5" r="2.64"/><circle class="cls-42" cx="439.61" cy="351.81" r="3.22"/><circle class="cls-42" cx="391.9" cy="461.8" r="2.64"/><circle class="cls-42" cx="378.44" cy="466.9" r="2.64"/><circle class="cls-40" cx="424.83" cy="483.68" r="3.77"/><circle class="cls-42" cx="413.41" cy="492.01" r="3.22"/><circle class="cls-42" cx="441.75" cy="493.26" r="2.64"/><circle class="cls-42" cx="434.32" cy="442.95" r="2.64"/><circle class="cls-42" cx="440.35" cy="432.5" r="3.22"/><circle class="cls-42" cx="411.38" cy="442.07" r="3.77"/><circle class="cls-42" cx="399.58" cy="434.05" r="2.64"/><circle class="cls-42" cx="391.81" cy="449.07" r="2.64"/><circle class="cls-42" cx="355.78" cy="368.47" r="2.64"/></g><path class="cls-40" d="M245.2,486.8c-3.98,0-7.21-3.23-7.21-7.21s3.23-7.21,7.21-7.21,7.21,3.23,7.21,7.21-3.23,7.21-7.21,7.21Zm0-8.57c-.75,0-1.36,.61-1.36,1.36s.61,1.36,1.36,1.36,1.36-.61,1.36-1.36-.61-1.36-1.36-1.36Z"/><path class="cls-43" d="M299.29,491.28c-6.45,0-11.69-5.24-11.69-11.69s5.24-11.69,11.69-11.69,11.69,5.24,11.69,11.69-5.24,11.69-11.69,11.69Zm0-17.53c-3.22,0-5.84,2.62-5.84,5.84s2.62,5.84,5.84,5.84,5.84-2.62,5.84-5.84-2.62-5.84-5.84-5.84Z"/><path class="cls-39" d="M262.42,506.83c-3.32,0-6.86-1-10.08-2.86-3.64-2.1-6.52-5.09-8.11-8.42-1.74-3.64-1.75-7.43-.04-10.4,1.71-2.97,5-4.85,9.03-5.17,3.67-.29,7.7,.71,11.34,2.81,3.64,2.1,6.52,5.09,8.11,8.42,1.74,3.64,1.75,7.43,.04,10.4-1.71,2.97-5,4.85-9.03,5.17-.42,.03-.84,.05-1.26,.05Zm-7.96-21.04c-.27,0-.53,.01-.79,.03-1.22,.1-3.41,.52-4.42,2.26-1.01,1.74-.27,3.85,.25,4.95,1.07,2.24,3.16,4.38,5.75,5.87,2.59,1.49,5.48,2.24,7.96,2.04,1.22-.1,3.41-.52,4.42-2.26h0c1.01-1.74,.27-3.85-.25-4.95-1.07-2.24-3.16-4.38-5.75-5.87-2.32-1.34-4.88-2.07-7.17-2.07Z"/><path class="cls-42" d="M269.6,477.39c-3.68,0-7.73-1.08-11.59-3.31-9.12-5.27-13.24-14.65-9.36-21.37,3.88-6.71,14.06-7.84,23.19-2.58,9.12,5.27,13.24,14.65,9.36,21.37h0c-2.24,3.87-6.57,5.89-11.59,5.89Zm-9.39-24.69c-2.93,0-5.37,.99-6.49,2.94-2.16,3.74,1.15,9.87,7.22,13.37,6.07,3.51,13.03,3.31,15.19-.43,2.16-3.74-1.15-9.87-7.22-13.37-2.9-1.68-6.01-2.51-8.7-2.51Z"/><path class="cls-39" d="M433.25,404.16c-6.45,0-11.69-5.24-11.69-11.69s5.24-11.69,11.69-11.69,11.69,5.24,11.69,11.69-5.24,11.69-11.69,11.69Zm0-17.53c-3.22,0-5.84,2.62-5.84,5.84s2.62,5.84,5.84,5.84,5.84-2.62,5.84-5.84-2.62-5.84-5.84-5.84Z"/><path class="cls-40" d="M428.47,434.77c-3.22,0-6.74-.94-10.1-2.88-7.99-4.62-11.57-12.88-8.14-18.82,1.71-2.97,5-4.85,9.03-5.17,3.68-.29,7.7,.71,11.34,2.81,7.99,4.62,11.57,12.88,8.14,18.82h0c-1.99,3.44-5.83,5.24-10.27,5.24Zm-7.97-21.06c-.27,0-.53,.01-.79,.03-1.22,.1-3.41,.52-4.42,2.26-1.7,2.94,1.11,8,6,10.82,4.89,2.83,10.68,2.73,12.37-.21,1.7-2.94-1.11-8-6-10.82-2.32-1.34-4.88-2.07-7.17-2.07Z"/><path class="cls-42" d="M465.71,428.89c-4.6,0-8.98-.95-12.69-2.77-5.38-2.66-8.74-6.85-9.45-11.8-.71-4.95,1.32-9.92,5.73-13.99,4.11-3.79,9.87-6.39,16.23-7.31,6.36-.92,12.62-.06,17.63,2.42,5.38,2.66,8.74,6.85,9.45,11.8,.71,4.95-1.32,9.92-5.73,13.99-4.11,3.79-9.87,6.39-16.23,7.31-1.66,.24-3.32,.36-4.95,.36Zm4.67-30.36c-1.31,0-2.66,.09-4.02,.29-10.15,1.47-17.94,8.18-17,14.66,.43,2.99,2.65,5.61,6.25,7.38,3.96,1.96,9.01,2.62,14.21,1.87,5.2-.75,9.85-2.81,13.1-5.81,2.95-2.72,4.34-5.87,3.91-8.85-.81-5.61-7.95-9.55-16.44-9.55Z"/><path class="cls-42" d="M322.84,556.18c-5.21,0-9.45-4.24-9.45-9.45s4.24-9.45,9.45-9.45,9.45,4.24,9.45,9.45-4.24,9.45-9.45,9.45Zm0-13.05c-1.98,0-3.6,1.61-3.6,3.6s1.61,3.6,3.6,3.6,3.6-1.61,3.6-3.6-1.61-3.6-3.6-3.6Z"/><path class="cls-40" d="M342.19,575.06c-3.22,0-6.74-.94-10.1-2.88-3.64-2.1-6.52-5.09-8.11-8.42-1.74-3.64-1.75-7.43-.04-10.4,3.43-5.94,12.37-6.97,20.37-2.36,7.99,4.62,11.57,12.88,8.14,18.82h0c-1.99,3.44-5.83,5.24-10.27,5.24Zm-8-21.04c-2.35,0-4.3,.76-5.17,2.27-1.01,1.74-.27,3.85,.25,4.95,1.07,2.24,3.16,4.38,5.75,5.87,4.89,2.82,10.68,2.73,12.37-.21h0c1.7-2.94-1.11-8-6-10.82-2.38-1.37-4.97-2.06-7.2-2.06Z"/><path class="cls-39" d="M299.75,573.36c-4.57,0-8.39-2.25-9.43-5.96-1.35-4.78,2.48-9.9,8.72-11.66,2.78-.79,5.65-.76,8.08,.06,2.77,.94,4.76,2.88,5.45,5.32h0c1.35,4.78-2.48,9.9-8.72,11.66-1.4,.39-2.78,.58-4.09,.58Zm3.36-12.35c-.8,0-1.65,.12-2.49,.35-3.35,.95-5.01,3.26-4.67,4.44,.33,1.18,2.95,2.29,6.3,1.34,3.35-.95,5.01-3.26,4.67-4.44h0c-.22-.8-1.26-1.22-1.69-1.37-.63-.21-1.36-.32-2.12-.32Z"/><path class="cls-41" d="M308.59,370.55c3.72-5.26,10.93-6.59,16.06-2.96s6.29,10.87,2.57,16.13-10.93,6.59-16.06,2.96-6.29-10.87-2.56-16.13Z"/><path class="cls-40" d="M343.39,328.91c2.29-3.25,6.74-4.07,9.91-1.83,3.17,2.24,3.88,6.7,1.58,9.95s-6.74,4.06-9.91,1.83-3.88-6.7-1.58-9.95Z"/><path class="cls-41" d="M317.49,331.69c1.92-2.71,4.75-5.04,8.1-6.62,3.77-1.79,7.82-2.45,11.39-1.88,3.91,.63,6.93,2.76,8.31,5.83,1.38,3.07,.98,6.82-1.09,10.28-1.89,3.16-5.01,5.89-8.79,7.68-3.77,1.79-7.82,2.45-11.39,1.88-3.91-.63-6.93-2.76-8.31-5.83-1.38-3.07-.98-6.82,1.09-10.28,.21-.36,.44-.71,.69-1.06Z"/><path class="cls-43" d="M453.55,464.02c-1.36,0-2.65-.31-3.84-.92h0c-2.67-1.38-4.39-4.11-4.83-7.69-.42-3.33,.33-7.06,2.1-10.48s4.38-6.19,7.34-7.77c3.18-1.7,6.4-1.88,9.07-.5,2.67,1.38,4.39,4.11,4.83,7.69,.42,3.33-.33,7.06-2.1,10.48s-4.38,6.19-7.34,7.77c-1.76,.94-3.54,1.42-5.22,1.42Z"/><path class="cls-39" d="M439.37,473.07c-1.71,0-3.24-.58-4.34-1.68-2.8-2.8-2.05-7.94,1.71-11.69,3.76-3.76,8.89-4.51,11.69-1.71,2.8,2.8,2.05,7.94-1.71,11.69-1.71,1.71-3.79,2.86-5.88,3.25-.5,.09-1,.14-1.48,.14Z"/><path class="cls-40" d="M366.77,482.82c-3.72,0-6.75-3.03-6.75-6.75s3.03-6.75,6.75-6.75,6.75,3.03,6.75,6.75-3.03,6.75-6.75,6.75Z"/><path class="cls-42" d="M380.6,496.34c-2.3,0-4.82-.67-7.22-2.06-2.6-1.5-4.66-3.64-5.79-6.02-1.24-2.6-1.25-5.31-.03-7.43,2.45-4.24,8.84-4.98,14.56-1.68,5.71,3.3,8.27,9.21,5.82,13.45h0c-1.42,2.46-4.17,3.74-7.34,3.74Z"/><path class="cls-39" d="M350.27,495.09c-3.27,0-5.99-1.61-6.74-4.26-.96-3.42,1.77-7.08,6.23-8.33,1.99-.56,4.04-.55,5.77,.04,1.98,.67,3.4,2.06,3.89,3.8h0c.96,3.42-1.77,7.08-6.23,8.33-1,.28-1.98,.42-2.93,.42Z"/></g></g></svg>