<?xml version="1.0" encoding="UTF-8"?><svg id="Ebene_2" xmlns="http://www.w3.org/2000/svg" xmlns:xlink="http://www.w3.org/1999/xlink" viewBox="0 0 843.61 843.61"><defs><style>.cls-1{fill:url(#Unbenannter_Verlauf_80-2);}.cls-2{fill:url(#Unbenannter_Verlauf_96-2);}.cls-3{fill:#00abe9;}.cls-4{fill:#fff;}.cls-5{fill:#69c6e3;}.cls-6{fill:#b8e1ee;}.cls-7{fill:#0d79bf;}.cls-8{opacity:.8;}.cls-9{fill:url(#Unbenannter_Verlauf_108);}.cls-10{fill:url(#Unbenannter_Verlauf_97);}.cls-11{fill:url(#Unbenannter_Verlauf_96);}.cls-12{fill:url(#Unbenannter_Verlauf_73);}.cls-13{fill:url(#Unbenannter_Verlauf_80);}.cls-14{fill:url(#Unbenannter_Verlauf_12);}.cls-15{fill:url(#Unbenannter_Verlauf_28);}.cls-16{fill:url(#Unbenannter_Verlauf_22);}.cls-17{fill:url(#Unbenannter_Verlauf_40);}.cls-18{fill:url(#Unbenannter_Verlauf_6);}</style><radialGradient id="Unbenannter_Verlauf_96" cx="299.73" cy="607.31" fx="299.73" fy="607.31" r="208.79" gradientTransform="matrix(1, 0, 0, 1, 0, 0)" gradientUnits="userSpaceOnUse"><stop offset=".81" stop-color="#b8e1ee" stop-opacity="0"/><stop offset=".9" stop-color="#b8e1ee" stop-opacity=".3"/><stop offset="1" stop-color="#b8e1ee" stop-opacity="0"/></radialGradient><radialGradient id="Unbenannter_Verlauf_80" cx="201.4" cy="222.99" fx="201.4" fy="222.99" r="152.39" gradientTransform="matrix(1, 0, 0, 1, 0, 0)" gradientUnits="userSpaceOnUse"><stop offset=".81" stop-color="#69c6e3" stop-opacity="0"/><stop offset=".9" stop-color="#69c6e3" stop-opacity=".3"/><stop offset="1" stop-color="#69c6e3" stop-opacity="0"/></radialGradient><radialGradient id="Unbenannter_Verlauf_40" cx="599.78" cy="572.55" fx="599.78" fy="572.55" r="152.39" gradientTransform="matrix(1, 0, 0, 1, 0, 0)" gradientUnits="userSpaceOnUse"><stop offset=".81" stop-color="#69c6e3" stop-opacity="0"/><stop offset=".9" stop-color="#69c6e3" stop-opacity=".3"/><stop offset="1" stop-color="#69c6e3" stop-opacity="0"/></radialGradient><radialGradient id="Unbenannter_Verlauf_97" cx="391.85" cy="108.38" fx="391.85" fy="108.38" r="82.76" gradientTransform="matrix(1, 0, 0, 1, 0, 0)" gradientUnits="userSpaceOnUse"><stop offset=".81" stop-color="#b8e1ee" stop-opacity="0"/><stop offset=".91" stop-color="#b8e1ee" stop-opacity=".3"/><stop offset="1" stop-color="#b8e1ee" stop-opacity="0"/></radialGradient><radialGradient id="Unbenannter_Verlauf_73" cx="759.98" cy="382.57" fx="759.98" fy="382.57" r="44.65" gradientTransform="matrix(1, 0, 0, 1, 0, 0)" gradientUnits="userSpaceOnUse"><stop offset=".81" stop-color="#0d79bf" stop-opacity="0"/><stop offset=".9" stop-color="#0d79bf" stop-opacity=".3"/><stop offset="1" stop-color="#0d79bf" stop-opacity="0"/></radialGradient><radialGradient id="Unbenannter_Verlauf_96-2" cx="672.09" cy="293.9" fx="672.09" fy="293.9" r="135.38" xlink:href="#Unbenannter_Verlauf_96"/><radialGradient id="Unbenannter_Verlauf_80-2" cx="417.81" cy="723.57" fx="417.81" fy="723.57" r="82.76" xlink:href="#Unbenannter_Verlauf_80"/><radialGradient id="Unbenannter_Verlauf_108" cx="421.8" cy="421.8" fx="421.8" fy="421.8" r="421.8" gradientTransform="matrix(1, 0, 0, 1, 0, 0)" gradientUnits="userSpaceOnUse"><stop offset=".76" stop-color="#00abe9"/><stop offset="1" stop-color="#b8e1ee" stop-opacity="0"/></radialGradient><radialGradient id="Unbenannter_Verlauf_6" cx="421.8" cy="421.8" fx="421.8" fy="421.8" r="348.15" gradientTransform="matrix(1, 0, 0, 1, 0, 0)" gradientUnits="userSpaceOnUse"><stop offset=".93" stop-color="#00abe9" stop-opacity=".9"/><stop offset="1" stop-color="#fff" stop-opacity=".2"/></radialGradient><radialGradient id="Unbenannter_Verlauf_12" cx="1063.92" cy="-289.1" fx="1063.92" fy="-289.1" r="321.73" gradientTransform="translate(-654.65 661.11) rotate(2.72)" gradientUnits="userSpaceOnUse"><stop offset=".81" stop-color="#69c6e3"/><stop offset="1" stop-color="#b8e1ee" stop-opacity=".8"/></radialGradient><radialGradient id="Unbenannter_Verlauf_22" cx="383.45" cy="391.53" fx="383.45" fy="391.53" r="283.15" gradientTransform="matrix(1, 0, 0, 1, 0, 0)" gradientUnits="userSpaceOnUse"><stop offset="0" stop-color="#00abe9"/><stop offset="1" stop-color="#00abe9" stop-opacity="0"/></radialGradient><radialGradient id="Unbenannter_Verlauf_28" cx="357.33" cy="354.52" fx="357.33" fy="354.52" r="161.83" gradientTransform="matrix(1, 0, 0, 1, 0, 0)" gradientUnits="userSpaceOnUse"><stop offset="0" stop-color="#0d79bf" stop-opacity=".8"/><stop offset="1" stop-color="#0d79bf" stop-opacity="0"/></radialGradient></defs><g id="final"><g><path class="cls-11" d="M299.73,816.1c-115.13,0-208.79-93.66-208.79-208.79s93.66-208.79,208.79-208.79,208.79,93.66,208.79,208.79-93.66,208.79-208.79,208.79Zm0-377.58c-93.07,0-168.79,75.72-168.79,168.79s75.72,168.79,168.79,168.79,168.79-75.72,168.79-168.79-75.72-168.79-168.79-168.79Z"/><path class="cls-13" d="M201.4,375.39c-84.03,0-152.39-68.36-152.39-152.39S117.37,70.6,201.4,70.6s152.39,68.36,152.39,152.39-68.36,152.39-152.39,152.39Zm0-275.59c-67.93,0-123.2,55.27-123.2,123.2s55.27,123.2,123.2,123.2,123.2-55.27,123.2-123.2-55.27-123.2-123.2-123.2Z"/><path class="cls-17" d="M599.78,724.94c-84.03,0-152.39-68.36-152.39-152.39s68.36-152.39,152.39-152.39,152.39,68.36,152.39,152.39-68.36,152.39-152.39,152.39Zm0-275.59c-67.93,0-123.2,55.27-123.2,123.2s55.27,123.2,123.2,123.2,123.2-55.27,123.2-123.2-55.27-123.2-123.2-123.2Z"/><path class="cls-10" d="M391.85,191.14c-45.64,0-82.76-37.13-82.76-82.76s37.13-82.76,82.76-82.76,82.76,37.13,82.76,82.76-37.13,82.76-82.76,82.76Zm0-149.67c-36.89,0-66.91,30.01-66.91,66.91s30.01,66.91,66.91,66.91,66.91-30.01,66.91-66.91-30.01-66.91-66.91-66.91Z"/><path class="cls-12" d="M759.98,427.22c-24.62,0-44.65-20.03-44.65-44.65s20.03-44.65,44.65-44.65,44.65,20.03,44.65,44.65-20.03,44.65-44.65,44.65Zm0-80.75c-19.9,0-36.1,16.19-36.1,36.1s16.19,36.1,36.1,36.1,36.1-16.19,36.1-36.1-16.19-36.1-36.1-36.1Z"/><path class="cls-2" d="M672.09,429.28c-74.65,0-135.38-60.73-135.38-135.38s60.73-135.38,135.38-135.38,135.38,60.73,135.38,135.38-60.73,135.38-135.38,135.38Zm0-244.82c-60.35,0-109.44,49.1-109.44,109.44s49.1,109.44,109.44,109.44,109.44-49.1,109.44-109.44-49.1-109.44-109.44-109.44Z"/><path class="cls-1" d="M417.81,806.33c-45.64,0-82.76-37.13-82.76-82.76s37.13-82.76,82.76-82.76,82.76,37.13,82.76,82.76-37.13,82.76-82.76,82.76Zm0-149.67c-36.89,0-66.91,30.01-66.91,66.91s30.01,66.91,66.91,66.91,66.91-30.01,66.91-66.91-30.01-66.91-66.91-66.91Z"/><circle class="cls-9" cx="421.8" cy="421.8" r="421.8"/><path class="cls-18" d="M443.49,76.89h0c21.85-6.66,45.56-2.91,64.28,10.18h0c12.11,8.47,26.47,13.13,41.24,13.4h0c22.84,.42,44.23,11.31,57.99,29.55h0c8.9,11.79,21.12,20.67,35.08,25.49h0c21.6,7.46,38.57,24.43,46.02,46.02h0c4.82,13.97,13.7,26.18,25.49,35.08h0c18.23,13.76,29.13,35.15,29.55,57.99h0c.27,14.77,4.94,29.13,13.4,41.24h0c13.09,18.73,16.84,42.43,10.18,64.28h0c-4.31,14.13-4.31,29.23,0,43.36h0c6.66,21.85,2.91,45.56-10.18,64.28h0c-8.47,12.11-13.13,26.47-13.4,41.24h0c-.42,22.84-11.31,44.23-29.55,57.99h0c-11.79,8.9-20.67,21.12-25.49,35.08h0c-7.46,21.6-24.43,38.57-46.02,46.02h0c-13.97,4.82-26.18,13.7-35.08,25.49h0c-13.76,18.23-35.15,29.13-57.99,29.55h0c-14.77,.27-29.13,4.94-41.24,13.4h0c-18.73,13.09-42.43,16.84-64.28,10.18h0c-14.13-4.31-29.23-4.31-43.36,0h0c-21.85,6.66-45.56,2.91-64.28-10.18h0c-12.11-8.47-26.47-13.13-41.24-13.4h0c-22.84-.42-44.23-11.31-57.99-29.55h0c-8.9-11.79-21.12-20.67-35.08-25.49h0c-21.6-7.46-38.57-24.43-46.02-46.02h0c-4.82-13.97-13.7-26.18-25.49-35.08h0c-18.23-13.76-29.13-35.15-29.55-57.99h0c-.27-14.77-4.94-29.13-13.4-41.24h0c-13.09-18.73-16.84-42.43-10.18-64.28h0c4.31-14.13,4.31-29.23,0-43.36h0c-6.66-21.85-2.91-45.56,10.18-64.28h0c8.47-12.11,13.13-26.47,13.4-41.24h0c.42-22.84,11.31-44.23,29.55-57.99h0c11.79-8.9,20.67-21.12,25.49-35.08h0c7.46-21.6,24.43-38.57,46.02-46.02h0c13.97-4.82,26.18-13.7,35.08-25.49h0c13.76-18.23,35.15-29.13,57.99-29.55h0c14.77-.27,29.13-4.94,41.24-13.4h0c18.73-13.09,42.43-16.84,64.28-10.18h0c14.13,4.31,29.23,4.31,43.36,0Z"/><circle class="cls-5" cx="421.8" cy="422.88" r="338.18"/><circle class="cls-14" cx="421.8" cy="422.88" r="321.73"/><circle class="cls-16" cx="383.45" cy="391.53" r="283.15"/><circle class="cls-15" cx="357.33" cy="354.52" r="161.83"/><g class="cls-8"><circle class="cls-6" cx="288.52" cy="334.63" r="5.86"/><circle class="cls-6" cx="321.17" cy="289.53" r="5.86"/><circle class="cls-6" cx="315.31" cy="265.53" r="5.86"/><circle class="cls-6" cx="315.31" cy="334.63" r="7.15"/><circle class="cls-6" cx="181.77" cy="386.34" r="5.86"/><circle class="cls-6" cx="170.05" cy="342.08" r="5.86"/><circle class="cls-6" cx="207.34" cy="406.59" r="8.38"/><circle class="cls-6" cx="335.36" cy="689.74" r="7.15"/><circle class="cls-4" cx="113.54" cy="437.94" r="5.86"/><circle class="cls-4" cx="315.31" cy="655.28" r="8.38"/><circle class="cls-6" cx="208.61" cy="592.66" r="7.15"/><circle class="cls-6" cx="139.5" cy="465.23" r="5.86"/><circle class="cls-4" cx="170.42" cy="514.8" r="7.15"/><circle class="cls-6" cx="235.81" cy="423.7" r="5.86"/><circle class="cls-6" cx="201.46" cy="525.25" r="7.15"/><circle class="cls-6" cx="213.2" cy="446.32" r="5.86"/><circle class="cls-6" cx="322.46" cy="437.94" r="8.38"/><circle class="cls-4" cx="306.94" cy="465.23" r="7.15"/><circle class="cls-6" cx="352.12" cy="244.21" r="5.86"/><circle class="cls-6" cx="275.51" cy="386.34" r="7.15"/><circle class="cls-6" cx="464.72" cy="128.05" r="5.86"/><circle class="cls-6" cx="491.52" cy="151.49" r="8.38"/><circle class="cls-6" cx="357.98" cy="179.77" r="5.86"/><circle class="cls-4" cx="383.54" cy="200.01" r="8.38"/><circle class="cls-6" cx="397.78" cy="287.11" r="8.38"/><circle class="cls-6" cx="382.25" cy="309.73" r="7.15"/><circle class="cls-4" cx="389.4" cy="239.74" r="5.86"/><circle class="cls-4" cx="483.14" cy="258.66" r="7.15"/><circle class="cls-6" cx="519.94" cy="251.51" r="8.38"/><circle class="cls-6" cx="451.71" cy="179.77" r="7.15"/><circle class="cls-6" cx="310.35" cy="170.43" r="7.15"/><circle class="cls-6" cx="264.73" cy="289.53" r="8.38"/><circle class="cls-4" cx="267.05" cy="257.93" r="5.86"/><circle class="cls-6" cx="224.63" cy="211.81" r="8.38"/><circle class="cls-6" cx="241.77" cy="190.39" r="7.15"/><circle class="cls-6" cx="229.53" cy="259.67" r="5.86"/><circle class="cls-6" cx="131.12" cy="374.43" r="7.15"/><circle class="cls-6" cx="160.88" cy="281.83" r="5.86"/><circle class="cls-6" cx="138.27" cy="304.44" r="5.86"/><circle class="cls-4" cx="478.52" cy="606.01" r="5.86"/><circle class="cls-4" cx="511.17" cy="560.92" r="5.86"/><circle class="cls-6" cx="505.31" cy="536.91" r="5.86"/><circle class="cls-6" cx="505.31" cy="606.01" r="7.15"/><circle class="cls-6" cx="395.33" cy="625.19" r="5.86"/><circle class="cls-4" cx="397.33" cy="677.97" r="8.38"/><circle class="cls-4" cx="425.81" cy="695.09" r="5.86"/><circle class="cls-6" cx="403.19" cy="717.7" r="5.86"/><circle class="cls-6" cx="512.46" cy="709.32" r="8.38"/><circle class="cls-6" cx="465.51" cy="657.73" r="7.15"/><circle class="cls-6" cx="377.63" cy="600.15" r="7.15"/><circle class="cls-6" cx="587.78" cy="558.49" r="8.38"/><circle class="cls-6" cx="572.25" cy="581.11" r="7.15"/><circle class="cls-6" cx="281.61" cy="526.9" r="5.86"/><circle class="cls-6" cx="358.22" cy="524.48" r="8.38"/><circle class="cls-6" cx="454.73" cy="560.92" r="8.38"/><circle class="cls-6" cx="395.33" cy="551.96" r="5.86"/><circle class="cls-6" cx="319.86" cy="625.08" r="5.86"/><circle class="cls-6" cx="242.46" cy="639.91" r="5.86"/><circle class="cls-6" cx="260.04" cy="626.6" r="7.15"/><circle class="cls-4" cx="277.74" cy="578.4" r="5.86"/><circle class="cls-4" cx="332.96" cy="485.63" r="5.86"/><circle class="cls-6" cx="228.68" cy="506.28" r="5.86"/><circle class="cls-6" cx="431.13" cy="346.04" r="5.86"/><circle class="cls-6" cx="407.41" cy="339.12" r="5.86"/><circle class="cls-6" cx="428.87" cy="478.5" r="5.86"/><circle class="cls-6" cx="467.33" cy="278.49" r="8.38"/><circle class="cls-6" cx="479.16" cy="303.24" r="7.15"/><circle class="cls-6" cx="402.91" cy="394.92" r="8.38"/><circle class="cls-4" cx="365.45" cy="441.89" r="5.86"/><circle class="cls-4" cx="657.64" cy="615.02" r="5.86"/><circle class="cls-6" cx="678.32" cy="529.67" r="8.38"/><circle class="cls-6" cx="704.37" cy="547.19" r="7.15"/><circle class="cls-6" cx="623.35" cy="572.63" r="7.15"/><circle class="cls-6" cx="621.72" cy="471.04" r="5.86"/><circle class="cls-6" cx="685.47" cy="487.1" r="5.86"/><circle class="cls-6" cx="653.7" cy="490.74" r="5.86"/><circle class="cls-4" cx="522.62" cy="274.45" r="5.86"/><circle class="cls-6" cx="583.75" cy="288.16" r="8.38"/><circle class="cls-6" cx="581.89" cy="315.53" r="7.15"/><circle class="cls-6" cx="642.78" cy="220.25" r="7.15"/><circle class="cls-6" cx="687.86" cy="354.15" r="5.86"/><circle class="cls-4" cx="642.44" cy="321.94" r="5.86"/><circle class="cls-6" cx="618.5" cy="328.04" r="5.86"/><circle class="cls-6" cx="687.59" cy="327.35" r="7.15"/><circle class="cls-6" cx="639.26" cy="245.36" r="8.38"/><circle class="cls-4" cx="662.03" cy="260.66" r="7.15"/><circle class="cls-6" cx="643" cy="378.38" r="8.38"/><circle class="cls-6" cx="611.38" cy="376.38" r="5.86"/><circle class="cls-4" cx="613.49" cy="413.87" r="5.86"/><circle class="cls-6" cx="589.3" cy="259.12" r="5.86"/><circle class="cls-6" cx="625.43" cy="286.74" r="7.15"/><circle class="cls-6" cx="552.9" cy="184.1" r="5.86"/><circle class="cls-6" cx="530.72" cy="194.98" r="5.86"/><circle class="cls-6" cx="598.2" cy="180.13" r="7.15"/><circle class="cls-6" cx="492.24" cy="424.44" r="5.86"/><circle class="cls-6" cx="462.34" cy="435.76" r="5.86"/><circle class="cls-4" cx="565.38" cy="473.04" r="8.38"/><circle class="cls-6" cx="540.01" cy="491.54" r="7.15"/><circle class="cls-6" cx="602.95" cy="494.31" r="5.86"/><circle class="cls-6" cx="586.45" cy="382.56" r="5.86"/><circle class="cls-6" cx="599.85" cy="359.36" r="7.15"/><circle class="cls-6" cx="535.5" cy="380.61" r="8.38"/><circle class="cls-6" cx="509.29" cy="362.81" r="5.86"/><circle class="cls-6" cx="492.04" cy="396.17" r="5.86"/><circle class="cls-6" cx="412.01" cy="217.13" r="5.86"/></g><path class="cls-4" d="M166.4,479.97c-8.83,0-16.01-7.18-16.01-16.01s7.18-16.01,16.01-16.01,16.01,7.18,16.01,16.01-7.18,16.01-16.01,16.01Zm0-19.02c-1.66,0-3.01,1.35-3.01,3.01s1.35,3.01,3.01,3.01,3.01-1.35,3.01-3.01-1.35-3.01-3.01-3.01Z"/><path class="cls-7" d="M286.55,489.92c-14.32,0-25.96-11.65-25.96-25.96s11.65-25.97,25.96-25.97,25.96,11.65,25.96,25.97-11.65,25.96-25.96,25.96Zm0-38.93c-7.15,0-12.96,5.82-12.96,12.97s5.82,12.96,12.96,12.96,12.96-5.82,12.96-12.96-5.82-12.97-12.96-12.97Z"/><path class="cls-3" d="M204.66,524.44c-7.38,0-15.23-2.21-22.4-6.35-8.08-4.67-14.47-11.31-18-18.7-3.86-8.09-3.89-16.51-.09-23.1,3.8-6.59,11.11-10.77,20.05-11.48,8.15-.64,17.11,1.58,25.19,6.24,8.08,4.67,14.47,11.31,18,18.7,3.86,8.09,3.89,16.51,.09,23.1-3.8,6.59-11.11,10.77-20.05,11.47-.92,.07-1.86,.11-2.8,.11Zm-17.67-46.73c-.59,0-1.17,.02-1.75,.07-2.7,.21-7.57,1.15-9.81,5.02-2.23,3.87-.61,8.55,.56,11,2.37,4.97,7.03,9.72,12.77,13.04,5.74,3.32,12.18,4.97,17.68,4.54,2.7-.21,7.57-1.15,9.81-5.01h0c2.23-3.87,.61-8.55-.56-11-2.37-4.97-7.03-9.72-12.77-13.04-5.14-2.97-10.85-4.61-15.93-4.61Z"/><path class="cls-6" d="M220.59,459.07c-8.18,0-17.17-2.41-25.75-7.36-20.27-11.7-29.4-32.55-20.79-47.46,8.61-14.91,31.23-17.42,51.5-5.72,20.27,11.7,29.4,32.55,20.79,47.46h0c-4.97,8.6-14.6,13.08-25.75,13.08Zm-20.86-54.85c-6.51,0-11.92,2.19-14.42,6.53-4.8,8.31,2.54,21.91,16.03,29.7,13.49,7.79,28.94,7.35,33.74-.97,4.8-8.31-2.54-21.91-16.03-29.7-6.45-3.72-13.35-5.57-19.32-5.57Z"/><path class="cls-3" d="M584.07,296.41c-14.32,0-25.96-11.65-25.96-25.96s11.65-25.97,25.96-25.97,25.96,11.65,25.96,25.97-11.65,25.96-25.96,25.96Zm0-38.93c-7.15,0-12.96,5.82-12.96,12.97s5.82,12.96,12.96,12.96,12.96-5.82,12.96-12.96-5.82-12.97-12.96-12.97Z"/><path class="cls-4" d="M573.46,364.4c-7.14,0-14.97-2.09-22.43-6.4-17.76-10.25-25.7-28.61-18.09-41.8,3.8-6.59,11.11-10.77,20.05-11.47,8.17-.64,17.11,1.58,25.19,6.24,17.76,10.25,25.7,28.61,18.09,41.8h0c-4.42,7.65-12.95,11.63-22.81,11.63Zm-17.71-46.78c-.59,0-1.18,.02-1.75,.07-2.7,.21-7.57,1.15-9.81,5.01-3.77,6.53,2.46,17.76,13.33,24.04,10.87,6.28,23.71,6.05,27.49-.48,3.77-6.53-2.46-17.76-13.33-24.04-5.14-2.97-10.85-4.61-15.93-4.61Z"/><path class="cls-6" d="M656.18,351.35c-10.22,0-19.95-2.1-28.18-6.16-11.95-5.9-19.41-15.2-20.99-26.2-1.59-11,2.93-22.03,12.72-31.07,9.13-8.42,21.93-14.19,36.05-16.23,14.12-2.04,28.03-.13,39.16,5.37,11.95,5.9,19.41,15.2,20.99,26.2,1.59,11-2.93,22.03-12.72,31.07-9.13,8.42-21.93,14.19-36.05,16.23-3.69,.53-7.37,.8-10.99,.8Zm10.38-67.44c-2.92,0-5.9,.21-8.92,.65-22.55,3.26-39.84,18.17-37.76,32.57,.96,6.63,5.89,12.46,13.88,16.4,8.8,4.34,20.01,5.82,31.55,4.16,11.54-1.67,21.87-6.25,29.09-12.91,6.55-6.05,9.63-13.03,8.67-19.66-1.8-12.47-17.65-21.2-36.51-21.2Z"/><path class="cls-6" d="M338.85,634.07c-11.57,0-20.99-9.42-20.99-20.99s9.42-20.99,20.99-20.99,20.99,9.42,20.99,20.99-9.42,20.99-20.99,20.99Zm0-28.98c-4.41,0-7.99,3.58-7.99,7.99s3.58,7.99,7.99,7.99,7.99-3.58,7.99-7.99-3.58-7.99-7.99-7.99Z"/><path class="cls-4" d="M381.82,676.01c-7.14,0-14.97-2.09-22.43-6.4-8.08-4.67-14.48-11.31-18-18.7-3.86-8.09-3.89-16.51-.09-23.1,7.61-13.19,27.49-15.49,45.24-5.23,17.76,10.25,25.7,28.61,18.09,41.8h0c-4.41,7.65-12.95,11.63-22.81,11.63Zm-17.77-46.74c-5.23,0-9.56,1.69-11.49,5.04-2.23,3.87-.61,8.55,.56,11,2.37,4.97,7.03,9.72,12.77,13.04,10.87,6.27,23.71,6.05,27.48-.48h0c3.77-6.53-2.46-17.76-13.33-24.04-5.29-3.05-11.04-4.57-15.99-4.57Z"/><path class="cls-3" d="M287.57,672.22c-10.16,0-18.63-5.01-20.95-13.25-3-10.61,5.51-21.99,19.36-25.9,6.18-1.74,12.55-1.7,17.95,.13,6.16,2.09,10.57,6.4,12.1,11.83h0c2.99,10.62-5.51,21.99-19.36,25.9-3.1,.87-6.17,1.29-9.09,1.29Zm7.46-27.42c-1.78,0-3.67,.26-5.52,.79-7.44,2.1-11.12,7.24-10.38,9.86,.74,2.62,6.56,5.08,14,2.98,7.44-2.1,11.12-7.24,10.38-9.86h0c-.5-1.77-2.8-2.72-3.76-3.05-1.41-.48-3.02-.72-4.72-.72Z"/><path class="cls-5" d="M307.19,221.76c8.27-11.69,24.27-14.64,35.68-6.58,11.41,8.06,13.96,24.14,5.7,35.83s-24.27,14.64-35.68,6.57c-11.41-8.06-13.96-24.14-5.7-35.83Z"/><path class="cls-4" d="M384.48,129.26c5.1-7.21,14.97-9.03,22-4.06,7.03,4.97,8.61,14.89,3.51,22.09s-14.97,9.03-22,4.05c-7.03-4.97-8.61-14.88-3.51-22.09Z"/><path class="cls-5" d="M326.96,135.45c4.26-6.03,10.55-11.19,17.99-14.71,8.38-3.97,17.36-5.45,25.29-4.17,8.67,1.4,15.4,6.12,18.45,12.94,3.05,6.82,2.17,15.14-2.43,22.83-4.2,7.02-11.13,13.08-19.52,17.06-8.38,3.97-17.36,5.45-25.29,4.17-8.67-1.4-15.4-6.12-18.45-12.94-3.05-6.82-2.17-15.14,2.43-22.83,.47-.79,.99-1.58,1.53-2.34Z"/><path class="cls-7" d="M629.18,429.37c-3.01,0-5.9-.68-8.54-2.05h0c-5.93-3.07-9.74-9.13-10.73-17.08-.93-7.41,.73-15.68,4.67-23.29,3.94-7.61,9.73-13.74,16.31-17.26,7.06-3.78,14.21-4.17,20.14-1.1,5.93,3.07,9.74,9.13,10.73,17.08,.93,7.41-.73,15.68-4.67,23.29-3.94,7.61-9.73,13.74-16.31,17.26-3.91,2.09-7.86,3.15-11.6,3.15Z"/><path class="cls-3" d="M597.68,449.47c-3.8,0-7.2-1.29-9.63-3.72-6.22-6.22-4.55-17.63,3.79-25.97,8.34-8.34,19.75-10.01,25.97-3.79,6.22,6.22,4.55,17.63-3.79,25.97-3.79,3.79-8.43,6.35-13.06,7.21-1.12,.21-2.21,.31-3.28,.31Z"/><path class="cls-4" d="M436.43,471.11c-8.27,0-15-6.73-15-15s6.73-15,15-15,15,6.73,15,15-6.73,15-15,15Z"/><path class="cls-6" d="M467.13,501.15c-5.1,0-10.7-1.49-16.03-4.57-5.78-3.33-10.34-8.08-12.87-13.36-2.76-5.78-2.78-11.8-.06-16.51,5.44-9.42,19.64-11.07,32.33-3.74,12.69,7.33,18.37,20.45,12.93,29.87h0c-3.15,5.46-9.26,8.31-16.3,8.31Z"/><path class="cls-3" d="M399.78,498.37c-7.26,0-13.31-3.58-14.97-9.47-2.14-7.59,3.94-15.72,13.84-18.51,4.42-1.25,8.97-1.21,12.82,.09,4.4,1.49,7.55,4.57,8.65,8.45h0c2.14,7.59-3.94,15.72-13.84,18.51-2.21,.62-4.41,.92-6.5,.92Z"/></g></g></svg>