<?xml version="1.0" encoding="UTF-8"?><svg xmlns="http://www.w3.org/2000/svg" xmlns:xlink="http://www.w3.org/1999/xlink" viewBox="0 0 798.79 819.58"><defs><style>.ar{fill:url(#u);}.as{fill:url(#t);}.at{fill:url(#v);}.au{fill:url(#e);}.av{fill:url(#d);}.aw{fill:url(#g);}.ax{fill:url(#f);}.ay{fill:url(#p);}.b`{fill:url(#o);}.ba{fill:url(#s);}.bb{fill:url(#q);}.bc{fill:url(#r);}.bd{fill:url(#i);}.be{fill:url(#h);}.bf{fill:url(#k);}.bg{fill:url(#j);}.bh{fill:url(#m);}.bi{fill:url(#l);}.bj{fill:url(#n);}.bk{fill:url(#x);}.bl{fill:url(#w);}.bm{fill:url(#y);}.bn{fill:url(#aa);}.bo{fill:url(#ab);}.bp{fill:url(#ah);}.bq{fill:url(#ai);}.br{fill:url(#ad);}.bs{fill:url(#ao);}.bt{fill:url(#aj);}.bu{fill:url(#ae);}.bv{fill:url(#ap);}.bw{fill:url(#af);}.bx{fill:url(#a`);}.by{fill:url(#aq);}.c`{fill:url(#al);}.ca{fill:url(#am);}.cb{fill:url(#ac);}.cc{fill:url(#an);}.cd{fill:url(#ak);}.ce{fill:none;}.cf{fill:#6b247d;}.cg,.ch,.ci{fill:#fff;}.cj{fill:#4f2566;}.ck{clip-path:url(#ag);}.ch{opacity:.6;}.ci{opacity:.5;}</style><linearGradient id="d" x1="396.78" y1="407.23" x2="484.36" y2="802.29" gradientTransform="matrix(1, 0, 0, 1, 0, 0)" gradientUnits="userSpaceOnUse"><stop offset="0" stop-color="#fff"/><stop offset=".11" stop-color="#fff" stop-opacity=".8"/><stop offset=".24" stop-color="#fff" stop-opacity=".59"/><stop offset=".37" stop-color="#fff" stop-opacity=".41"/><stop offset=".5" stop-color="#fff" stop-opacity=".26"/><stop offset=".63" stop-color="#fff" stop-opacity=".15"/><stop offset=".75" stop-color="#fff" stop-opacity=".07"/><stop offset=".88" stop-color="#fff" stop-opacity=".02"/><stop offset="1" stop-color="#fff" stop-opacity="0"/></linearGradient><linearGradient id="e" x1="737.52" y1="515.73" x2="824.88" y2="909.76" gradientTransform="translate(-407.32 -38.11) rotate(-4.26)" xlink:href="#d"/><radialGradient id="f" cx="458.5" cy="567.07" fx="458.5" fy="567.07" r="5.86" gradientTransform="matrix(1, 0, 0, 1, 0, 0)" gradientUnits="userSpaceOnUse"><stop offset=".3" stop-color="#fff"/><stop offset="1" stop-color="#fff" stop-opacity="0"/></radialGradient><radialGradient id="g" cx="419.83" cy="637.85" fx="419.83" fy="637.85" r="4.4" xlink:href="#f"/><radialGradient id="h" cx="483.86" cy="676.64" fx="483.86" fy="676.64" r="4.4" xlink:href="#f"/><radialGradient id="i" cx="449.96" cy="588.48" fx="449.96" fy="588.48" r="4.4" xlink:href="#f"/><radialGradient id="j" cx="1466.18" cy="775.12" fx="1466.18" fy="775.12" r="387.5" gradientTransform="translate(-1067.55 221.84) scale(1 .25)" gradientUnits="userSpaceOnUse"><stop offset=".83" stop-color="#7a3b8f"/><stop offset=".85" stop-color="#79398e" stop-opacity=".95"/><stop offset=".88" stop-color="#76368b" stop-opacity=".8"/><stop offset=".92" stop-color="#733087" stop-opacity=".56"/><stop offset=".97" stop-color="#6e2981" stop-opacity=".23"/><stop offset="1" stop-color="#6b247d" stop-opacity="0"/></radialGradient><radialGradient id="k" cx="1467.18" cy="775.12" fx="1467.18" fy="775.12" r="329.01" gradientTransform="translate(-1067.58 221.62) scale(1 .25)" gradientUnits="userSpaceOnUse"><stop offset=".83" stop-color="#ac4492"/><stop offset=".85" stop-color="#a94391" stop-opacity=".96"/><stop offset=".88" stop-color="#a34291" stop-opacity=".83"/><stop offset=".91" stop-color="#994090" stop-opacity=".63"/><stop offset=".95" stop-color="#8b3e90" stop-opacity=".35"/><stop offset="1" stop-color="#7a3b8f" stop-opacity="0"/></radialGradient><radialGradient id="l" cx="1467.18" cy="775.12" fx="1467.18" fy="775.12" r="294.77" gradientTransform="translate(-1067.58 221.62) scale(1 .25)" gradientUnits="userSpaceOnUse"><stop offset=".83" stop-color="#bb60a2"/><stop offset=".84" stop-color="#ba5ea1" stop-opacity=".96"/><stop offset=".87" stop-color="#b85b9f" stop-opacity=".85"/><stop offset=".91" stop-color="#b5569c" stop-opacity=".66"/><stop offset=".95" stop-color="#b24f98" stop-opacity=".41"/><stop offset=".99" stop-color="#ad4693" stop-opacity=".08"/><stop offset="1" stop-color="#ac4492" stop-opacity="0"/></radialGradient><radialGradient id="m" cx="1467.18" cy="775.12" fx="1467.18" fy="775.12" r="251.29" gradientTransform="translate(-1067.58 221.62) scale(1 .25)" gradientUnits="userSpaceOnUse"><stop offset=".83" stop-color="#c578b0"/><stop offset=".84" stop-color="#c477af" stop-opacity=".96"/><stop offset=".87" stop-color="#c374ad" stop-opacity=".85"/><stop offset=".9" stop-color="#c170ab" stop-opacity=".68"/><stop offset=".94" stop-color="#bf6aa8" stop-opacity=".44"/><stop offset=".98" stop-color="#bc63a3" stop-opacity=".13"/><stop offset="1" stop-color="#bb60a2" stop-opacity="0"/></radialGradient><radialGradient id="n" cx="1467.18" cy="775.12" fx="1467.18" fy="775.12" r="200.15" gradientTransform="translate(-1067.58 221.62) scale(1 .25)" gradientUnits="userSpaceOnUse"><stop offset=".66" stop-color="#d28aba"/><stop offset=".7" stop-color="#d189b9" stop-opacity=".96"/><stop offset=".75" stop-color="#d087b8" stop-opacity=".86"/><stop offset=".81" stop-color="#ce84b6" stop-opacity=".7"/><stop offset=".88" stop-color="#cb80b4" stop-opacity=".47"/><stop offset=".96" stop-color="#c77bb1" stop-opacity=".18"/><stop offset="1" stop-color="#c578b0" stop-opacity="0"/></radialGradient><radialGradient id="o" cx="1468.53" cy="775.12" fx="1468.53" fy="775.12" r="146.64" gradientTransform="translate(-1067.58 221.62) scale(1 .25)" gradientUnits="userSpaceOnUse"><stop offset=".56" stop-color="#e6b7d6"/><stop offset=".68" stop-color="#e5b6d5" stop-opacity=".99"/><stop offset=".74" stop-color="#e5b4d4" stop-opacity=".96"/><stop offset=".79" stop-color="#e3b2d3" stop-opacity=".9"/><stop offset=".83" stop-color="#e2aed0" stop-opacity=".81"/><stop offset=".87" stop-color="#e0a9cd" stop-opacity=".7"/><stop offset=".91" stop-color="#dda3c9" stop-opacity=".57"/><stop offset=".94" stop-color="#da9cc5" stop-opacity=".41"/><stop offset=".97" stop-color="#d694c0" stop-opacity=".22"/><stop offset="1" stop-color="#d28aba" stop-opacity=".02"/><stop offset="1" stop-color="#d28aba" stop-opacity="0"/></radialGradient><radialGradient id="p" cx="1470.81" cy="772.14" fx="1470.81" fy="772.14" r="116.47" gradientTransform="translate(-1068.31 218.67) scale(1 .25)" gradientUnits="userSpaceOnUse"><stop offset=".44" stop-color="#fff"/><stop offset=".54" stop-color="#fefefe" stop-opacity=".99"/><stop offset=".62" stop-color="#fdfbfd" stop-opacity=".95"/><stop offset=".68" stop-color="#fcf7fa" stop-opacity=".89"/><stop offset=".74" stop-color="#faf0f6" stop-opacity=".8"/><stop offset=".8" stop-color="#f7e8f2" stop-opacity=".69"/><stop offset=".85" stop-color="#f3deec" stop-opacity=".55"/><stop offset=".91" stop-color="#efd2e5" stop-opacity=".38"/><stop offset=".96" stop-color="#eac5de" stop-opacity=".2"/><stop offset="1" stop-color="#e6b7d6" stop-opacity="0"/></radialGradient><radialGradient id="q" cx="2267.13" cy="831.7" fx="2267.13" fy="831.7" r="19.62" gradientTransform="translate(-1143.99 -66.4) scale(.81 .57)" gradientUnits="userSpaceOnUse"><stop offset="0" stop-color="#fff"/><stop offset=".05" stop-color="#e6dbea"/><stop offset=".13" stop-color="#c5aace"/><stop offset=".2" stop-color="#aa82b7"/><stop offset=".28" stop-color="#9563a6"/><stop offset=".35" stop-color="#864d99"/><stop offset=".42" stop-color="#7d3f91"/><stop offset=".48" stop-color="#7a3b8f"/><stop offset=".56" stop-color="#7a3b8f" stop-opacity=".8"/><stop offset=".7" stop-color="#7a3b8f" stop-opacity=".46"/><stop offset=".83" stop-color="#7a3b8f" stop-opacity=".21"/><stop offset=".93" stop-color="#7a3b8f" stop-opacity=".06"/><stop offset="1" stop-color="#7a3b8f" stop-opacity="0"/></radialGradient><radialGradient id="r" cx="2753.8" cy="789.97" fx="2753.8" fy="789.97" r="13.36" gradientTransform="translate(-1182.09 -93.78) scale(.7 .57)" xlink:href="#q"/><radialGradient id="s" cx="1360.06" cy="853.83" fx="1360.06" fy="853.83" r="27.7" gradientTransform="translate(-1048 -167.64) scale(1 .8)" xlink:href="#q"/><radialGradient id="t" cx="1117.45" cy="815.11" fx="1117.45" fy="815.11" r="11.17" gradientTransform="translate(-1050.63 -121.95) scale(1 .8)" xlink:href="#q"/><radialGradient id="u" cx="1646.06" cy="867.87" fx="1646.06" fy="867.87" r="18.87" gradientTransform="translate(-1051.74 -227.06) scale(1 .8)" xlink:href="#q"/><radialGradient id="v" cx="2721.47" cy="898.66" fx="2721.47" fy="898.66" r="28.3" gradientTransform="translate(-1308.38 160.01) scale(.64 .42)" xlink:href="#q"/><radialGradient id="w" cx="2182.21" cy="875.95" fx="2182.21" fy="875.95" r="19.28" gradientTransform="translate(-1330.48 197.07) scale(.7 .42)" xlink:href="#q"/><linearGradient id="x" x1="395.44" y1="401.9" x2="311.39" y2="22.79" gradientTransform="matrix(1, 0, 0, 1, 0, 0)" gradientUnits="userSpaceOnUse"><stop offset="0" stop-color="#fff"/><stop offset=".02" stop-color="#fff" stop-opacity=".93"/><stop offset=".09" stop-color="#fff" stop-opacity=".74"/><stop offset=".17" stop-color="#fff" stop-opacity=".56"/><stop offset=".25" stop-color="#fff" stop-opacity=".41"/><stop offset=".33" stop-color="#fff" stop-opacity=".28"/><stop offset=".43" stop-color="#fff" stop-opacity=".18"/><stop offset=".53" stop-color="#fff" stop-opacity=".1"/><stop offset=".64" stop-color="#fff" stop-opacity=".04"/><stop offset=".77" stop-color="#fff" stop-opacity="0"/><stop offset="1" stop-color="#fff" stop-opacity="0"/></linearGradient><linearGradient id="y" x1="795.91" y1="499.87" x2="712.08" y2="121.76" gradientTransform="translate(-407.32 -38.11) rotate(-4.26)" xlink:href="#x"/><radialGradient id="a`" cx="337.51" cy="233.07" fx="337.51" fy="233.07" r="5.86" xlink:href="#f"/><radialGradient id="aa" cx="392.86" cy="316.04" fx="392.86" fy="316.04" r="4.4" xlink:href="#f"/><radialGradient id="ab" cx="363.05" cy="302.26" fx="363.05" fy="302.26" r="4.4" xlink:href="#f"/><radialGradient id="ac" cx="368.91" cy="136.78" fx="368.91" fy="136.78" r="3.3" xlink:href="#f"/><radialGradient id="ad" cx="396.79" cy="353.39" fx="396.79" fy="353.39" r="5.86" xlink:href="#f"/><radialGradient id="ae" cx="385.54" cy="335.2" fx="385.54" fy="335.2" r="3.3" xlink:href="#f"/><radialGradient id="af" cx="1467.73" cy="764.66" fx="1467.73" fy="764.66" r="58.42" gradientTransform="translate(-1200.56 -23.79) rotate(-12.5)" gradientUnits="userSpaceOnUse"><stop offset="0" stop-color="#fff"/><stop offset=".64" stop-color="#fff"/><stop offset=".72" stop-color="#fff" stop-opacity=".7"/><stop offset=".8" stop-color="#fff" stop-opacity=".45"/><stop offset=".86" stop-color="#fff" stop-opacity=".26"/><stop offset=".92" stop-color="#fff" stop-opacity=".12"/><stop offset=".97" stop-color="#fff" stop-opacity=".03"/><stop offset="1" stop-color="#fff" stop-opacity="0"/></radialGradient><clipPath id="ag"><path class="ce" d="M401.34,422.85c26.07-5.78,48.82-15.72,66.1-23.37,2.75-11.31,3.02-23.4,.33-35.53-9.41-42.43-51.43-69.2-93.86-59.8-42.43,9.41-69.2,51.43-59.8,93.86,2.65,11.94,7.88,22.64,14.97,31.64,19.18-.37,45.04-.77,72.25-6.8Z"/></clipPath><radialGradient id="ah" cx="1467.27" cy="772.47" fx="1467.27" fy="772.47" r="43.19" gradientTransform="translate(-1200.56 -23.79) rotate(-12.5)" gradientUnits="userSpaceOnUse"><stop offset=".76" stop-color="#eb5d60"/><stop offset="1" stop-color="#fff" stop-opacity="0"/></radialGradient><radialGradient id="ai" cx="1446.93" cy="558.73" fx="1446.93" fy="558.73" r="32.95" gradientTransform="translate(-1121.66 108) rotate(-9.78)" gradientUnits="userSpaceOnUse"><stop offset="0" stop-color="#eb5d60"/><stop offset="1" stop-color="#fff" stop-opacity=".8"/></radialGradient><radialGradient id="aj" cx="-137.59" cy="6902.88" fx="-137.59" fy="6902.88" r="4.64" gradientTransform="translate(-6518.17 216.54) rotate(-89.69)" gradientUnits="userSpaceOnUse"><stop offset="0" stop-color="#fff" stop-opacity=".8"/><stop offset="1" stop-color="#fff" stop-opacity="0"/></radialGradient><radialGradient id="ak" cx="1477.88" cy="772.66" fx="1477.88" fy="772.66" r="22.4" gradientTransform="translate(-1200.56 -23.79) rotate(-12.5)" xlink:href="#aj"/><radialGradient id="al" cx="1471.79" cy="755.74" fx="1471.79" fy="755.74" r="13.64" gradientTransform="translate(-1200.56 -23.79) rotate(-12.5)" xlink:href="#aj"/><radialGradient id="am" cx="1004.09" cy="6359.46" fx="1004.09" fy="6359.46" r="10.65" gradientTransform="translate(-6015.93 307.18) rotate(-79.97)" xlink:href="#aj"/><radialGradient id="an" cx="-82.36" cy="-945.71" fx="-82.36" fy="-945.71" r="6.82" gradientTransform="translate(259.78 1354.37) rotate(14.71)" xlink:href="#aj"/><radialGradient id="ao" cx="-8516.26" cy="2317.02" fx="-8516.26" fy="2317.02" r="5.54" gradientTransform="translate(-3717.48 8236) rotate(132.87)" xlink:href="#aj"/><radialGradient id="ap" cx="-5826.58" cy="-1495.76" fx="-5826.58" fy="-1495.76" r="16.05" gradientTransform="translate(-346.23 6374.17) rotate(82.5)" xlink:href="#aj"/><radialGradient id="aq" cx="1459.09" cy="793.01" fx="1459.09" fy="793.01" r="33.18" gradientTransform="translate(-1200.56 -23.79) rotate(-12.5)" xlink:href="#aj"/></defs><g id="a"/><g id="b"><g id="c"><g><polygon class="av" points="380.85 410.76 412.72 403.69 543.21 789.25 425.51 815.34 380.85 410.76"/><polygon class="au" points="386.33 418.17 405.45 409.66 514.52 788.15 443.91 819.58 386.33 418.17"/><circle class="ax" cx="458.5" cy="567.07" r="5.86"/><circle class="aw" cx="419.83" cy="637.85" r="4.4"/><circle class="be" cx="483.86" cy="676.64" r="4.4"/><circle class="bd" cx="449.96" cy="588.48" r="4.4"/><circle class="cg" cx="406.9" cy="584.08" r="4.4"/><circle class="cg" cx="496.84" cy="734.91" r="3.3"/><circle class="cg" cx="466.36" cy="633.45" r="4.4"/><circle class="cg" cx="458.5" cy="656.6" r="3.3"/><circle class="cg" cx="434.99" cy="575" r="3.3"/><circle class="cg" cx="428.4" cy="605.01" r="3.3"/><circle class="cg" cx="431.69" cy="711.84" r="3.3"/><path class="ch" d="M481.5,770.48l-1.04-2.03c.05-.12,4.99-12.19,1.95-27.07-1.89-9.24-6.46-17.75-13.6-25.3-7.17-7.59-11.96-16.38-14.24-26.14-1.33-5.69-1.78-11.61-1.35-17.6,.36-4.97,1.26-8.95,1.95-11.42,.95-3.4,1.76-6.86,2.39-10.27,1.39-7.44,1.98-13.74,.39-20.31-1.7-7.03-5.96-14.49-13.4-23.48-7.68-9.28-12.4-18.16-14.45-27.13-2.59-11.32-.65-21.49,1.57-30.94,2.76-11.81,3.52-21.23,2.18-27.25-.03-.15-.07-.31-.1-.49-.29-1.38-.83-3.95-2.66-7.82-2.34-4.94-6-10.42-10.9-16.29-11.8-14.14-13.68-23.46-13.75-23.85l.56-.03,.56-.05s.45,2.14,2.24,5.86c1.67,3.47,4.87,9.05,10.66,15.98,11.93,14.29,13.72,22.82,14.4,26.03,.03,.16,.06,.3,.09,.42,1.52,6.86,.8,16.69-2.13,29.22-2.11,9.02-3.98,18.68-1.63,28.94,1.87,8.2,6.34,16.48,13.65,25.32,7.9,9.56,12.27,17.33,14.19,25.22,1.81,7.48,1.2,14.31-.28,22.27-.65,3.49-1.47,7.01-2.44,10.48-3.29,11.73-1.82,21.89-.65,26.9,2.09,8.93,6.58,17.09,13.35,24.26,7.56,8.01,12.45,17.21,14.52,27.36,1.38,6.76,1.47,13.97,.25,20.84-.91,5.14-2.21,8.26-2.26,8.39Z"/><path class="cf" d="M748.86,264.55c-10.75-3-52.97-9.41-61.74-10.32-8.78-.91-29.9-5.95-55.57-13.41-25.66-7.46-81.01,11.1-104.62,12.9-27.55,2.1-24.7-8.25-45.89-8.43-21.19-.19-35.42,20.74-56.25,24.79-6.93,1.35-16.95-4.25-26.45-3.28-7.55,.77-14.64,5.6-25.25,12.46-17.5,11.31-49.4,4.09-72.35,6.32-22.95,2.23-23.8,19-48.45,29.03-7.87,3.21-49.39,11.75-67.2,11.47-13.31-.21-31.66-6.13-34.82,10.58-3.16,16.71-19.2,17.6-32.94,16.45-43.1-3.59-79.08,23.73-85.24,43.56-10.55,33.98-21.96,50.52-21.96,50.52,0,0,6.52,34.57,12.69,41.78,6.17,7.21,47.95-5.48,61.5-3.66,13.55,1.82,27.75,1.83,43.91-18.56,14.3-18.03,59.58-36.96,75.45-36.16,23.13,1.16,19.07-9.37,27.37-15.79,8.3-6.41,19.19-3.68,31.54-4.71,12.35-1.02,11.63-9.44,31.73-16.75,20.1-7.32,56.19-14.74,94.09-19.14,37.9-4.4,60.31-21.95,92.27-22.17,8.52-.06,22.88,.07,35.48-5.01,12.59-5.08,52.49-8.21,69.86-4.63s47.34,7.23,77.55,1.67c22.57-4.15,27.45,6.76,35.23,9.34,7.78,2.58,47.52-4.82,62.66-13.89,15.14-9.07,14.09-50.9,14.09-50.9-7.48-3.81-8.43-18.96-26.71-24.05ZM84.23,379.03c-10.24,5.37-20.1,6.74-22.03,3.05-1.93-3.68,4.8-11.03,15.03-16.4,10.24-5.37,20.1-6.74,22.03-3.05,1.93,3.68-4.8,11.03-15.03,16.4Zm671.67-100.66c.09,4.01-13.08,7.54-29.4,7.9-16.33,.36-29.89-14.42-29.98-18.42-.09-4.01,13.34,4.27,29.66,3.92,16.33-.36,29.63,2.6,29.72,6.61Z"/><ellipse class="bg" cx="398.63" cy="415.62" rx="387.16" ry="97.84" transform="translate(-80.51 96.13) rotate(-12.5)"/><ellipse class="bf" cx="399.61" cy="415.4" rx="329.86" ry="83.36" transform="translate(-80.44 96.34) rotate(-12.5)"/><ellipse class="bi" cx="399.61" cy="415.4" rx="294.58" ry="74.44" transform="translate(-80.44 96.34) rotate(-12.5)"/><ellipse class="bh" cx="399.61" cy="415.4" rx="250.98" ry="63.42" transform="translate(-80.44 96.34) rotate(-12.5)"/><ellipse class="bj" cx="399.61" cy="415.4" rx="199.39" ry="50.39" transform="translate(-80.44 96.34) rotate(-12.5)"/><ellipse class="b`" cx="399.61" cy="415.4" rx="146.64" ry="37.06" transform="translate(-80.44 96.34) rotate(-12.5)"/><ellipse class="ay" cx="402.5" cy="411.71" rx="116.81" ry="29.52" transform="translate(-79.57 96.88) rotate(-12.5)"/><g><path class="cj" d="M783.05,292.41c-43.68-50.91-9.99,3.93-32.59,18.59-11.43,7.42-11.29,11.71-21.67,20.3-11.85,9.8-25.08,8.39-40.4,9.78-9.7,.88-20.01,5.13-28.09,16.52-7.02,9.89-9.01,16.76-9.15,21.87-7.65,6.74-13.16,10.33-35.06,14.54-21.44,4.11-36.74,18.95-46.92,19.27-4.89,.15-16.86,.13-23.25,.1-4.01-.02-8.02,.18-11.99,.7-22.11,2.93-32.75,12.39-51.31,22.67-20.62,11.43-25.93,.28-46.89,5.08-8.31,1.9-14.29,5.29-20.01,8.9-7.7,4.86-17.08,6.49-25.85,4.05-.5-.14-1-.29-1.51-.45-16.92-5.5-50.9-8.49-75.64-1.3-11.53,3.35-20.89,11.69-25.84,22.61-5.37,1.53-10.31,3.3-14.57,5.37-33.73,16.42-48.93-1.59-95.17,1.91-5.66-8.11-19.51-11.85-35.39-9.53-10.67,1.56-19.49,4.39-26.21,8.33-18-9.29-42.86-24.88-58.91-15.71-22.07,12.61-35.86-21.21-46.48-18.85-10.63,2.36-20.43,67.72,12.18,91.06,32.62,23.34,34.25,30.41,47.03,46.81,11.59,14.87,17.84,17.89,29.14,19.27,44.07,5.38,111.84-22.58,156.73-20.27,40.84,2.1,55.48,12.03,81.72,5.04,12.94-3.45,32.33-16.37,43.42-18.2,15.17-2.5,21.97,11.42,37.95,6.16s32.11-23.98,47.29-23.92c15.18,.06,34.72,7.04,57.38,.94,22.66-6.1,54.89-31.61,70.27-38.88,13.12-6.2,81.72-23.34,106.79-39.19,14.24-9,23.37-37.42,62.63-60.16,51.19-29.64,38.13-102.73,20.37-123.43ZM135.73,480.61c2.19-.49,4.49-.91,6.88-1.26,12.68-1.86,22.01,.57,26.96,4.33-11.29,1.41-23.74,4.44-37.5,4.21-2.59-.04-5.94-1.15-9.81-2.88,3.87-1.8,8.38-3.28,13.47-4.41Zm244.12-15.74c-16.14,1.38-59.92,1.95-90.77,10.18,2.49-2.52,5.3-5.25,8.42-8.1,15.21-13.9,55.95-15.83,75.19-6.38,4.68,2.3,9.1,3.34,13.25,3.51-1.92,.33-3.94,.6-6.1,.79Zm239.63-51.58c-9.03,2-17.05,.45-17.92-3.46s5.75-8.71,14.78-10.71c9.03-2,17.05-.45,17.92,3.46s-5.75,8.71-14.78,10.71Zm61.23-56.45c-7.43,4.7-12.95,8.69-17.31,12.13,1.8-15.09,12.88-22.3,28.27-21.99,2.52,.05,4.85,.09,6.99,.13-5.44,2.42-11.37,5.58-17.95,9.74Z"/><ellipse class="cj" cx="636.79" cy="380.1" rx="6.32" ry="4.03" transform="translate(-6.25 10.67) rotate(-.96)"/><ellipse class="cj" cx="256.75" cy="478.88" rx="14.55" ry="3.95" transform="translate(-97.56 66.92) rotate(-12.5)"/><path class="cj" d="M606.11,390.05c-1.52-1.73,3.63-12.11,7.9-15.84s10.93-3.09,12.44-1.35-.71,6.16-4.97,9.89-13.85,9.04-15.37,7.3Z"/><path class="cj" d="M484.52,422.15c.74,3.36-8.22,12.11-13.71,13.32-5.49,1.22-11.52-4.9-12.26-8.26s7.2-2.64,12.69-3.86c5.49-1.22,12.54-4.57,13.28-1.21Z"/><path class="cj" d="M134.95,463.94c-.89,4.62-16.88,10.73-24.44,9.28-7.56-1.45-11.78-9.27-10.89-13.89,.89-4.62,9.6,1.85,17.16,3.3s19.06-3.31,18.17,1.31Z"/><path class="cj" d="M718.97,325.4c-2.79-4.47,5.69-21.68,13-26.24,7.31-4.56,16.73-1.35,19.52,3.12,2.79,4.47-9.29,5.8-16.61,10.36s-13.13,17.23-15.92,12.76Z"/></g><ellipse class="bb" cx="695.86" cy="407.67" rx="15.84" ry="11.16" transform="translate(-71.74 160.28) rotate(-12.5)"/><ellipse class="bc" cx="733.89" cy="356.5" rx="9.25" ry="7.6" transform="translate(-59.76 167.29) rotate(-12.5)"/><ellipse class="ba" cx="312.06" cy="515.42" rx="27.43" ry="22.13" transform="translate(-104.16 79.76) rotate(-12.5)"/><ellipse class="as" cx="66.82" cy="530.13" rx="11.06" ry="8.93" transform="translate(-113.16 27.03) rotate(-12.5)"/><ellipse class="ar" cx="594.31" cy="467.24" rx="18.69" ry="15.07" transform="translate(-87.04 139.71) rotate(-12.5)"/><ellipse class="at" cx="419.83" cy="537.45" rx="17.91" ry="11.86" transform="translate(-106.37 103.61) rotate(-12.5)"/><ellipse class="bl" cx="190.78" cy="564.98" rx="13.39" ry="8.08" transform="translate(-117.76 54.69) rotate(-12.5)"/><polygon class="bk" points="412.74 404.58 380.86 411.65 250.38 26.09 368.08 0 412.74 404.58"/><polygon class="bm" points="405.52 410.54 386.4 419.05 277.33 40.56 347.93 9.13 405.52 410.54"/><circle class="bx" cx="337.51" cy="233.07" r="5.86"/><circle class="bn" cx="392.86" cy="316.04" r="4.4"/><circle class="bo" cx="363.05" cy="302.26" r="4.4"/><circle class="cb" cx="368.91" cy="136.78" r="3.3"/><circle class="br" cx="396.79" cy="353.39" r="5.86"/><circle class="bu" cx="385.54" cy="335.2" r="3.3"/><circle class="cg" cx="368.91" cy="351.73" r="4.4"/><circle class="cg" cx="355.72" cy="248.25" r="3.3"/><circle class="cg" cx="385.95" cy="266.94" r="5.86"/><circle class="cg" cx="368.91" cy="334.14" r="5.86"/><circle class="cg" cx="363.05" cy="205.82" r="4.4"/><circle class="cg" cx="326.68" cy="179.07" r="3.3"/><circle class="cg" cx="374.77" cy="286.62" r="3.3"/><circle class="cg" cx="343.38" cy="276.52" r="3.3"/><circle class="cg" cx="299.58" cy="121.61" r="3.3"/><path class="ch" d="M398.81,402.92l-1.04-2.03c.05-.12,4.99-12.19,1.95-27.07-1.89-9.24-6.46-17.75-13.6-25.3-7.17-7.59-11.96-16.38-14.24-26.14-1.33-5.69-1.78-11.61-1.35-17.6,.36-4.97,1.26-8.95,1.95-11.42,.95-3.4,1.76-6.86,2.39-10.27,1.39-7.44,1.98-13.74,.39-20.31-1.7-7.03-5.96-14.49-13.4-23.48-7.68-9.28-12.4-18.16-14.45-27.13-2.59-11.32-.65-21.49,1.57-30.94,2.76-11.81,3.52-21.23,2.18-27.25-.03-.15-.07-.31-.1-.49-.29-1.38-.83-3.95-2.66-7.82-2.34-4.94-6-10.42-10.9-16.29-11.8-14.14-13.68-23.46-13.75-23.85l.56-.03,.56-.05s.45,2.14,2.24,5.86c1.67,3.47,4.87,9.05,10.66,15.98,11.93,14.29,13.72,22.82,14.4,26.03,.03,.16,.06,.3,.09,.42,1.52,6.86,.8,16.69-2.13,29.22-2.11,9.02-3.98,18.68-1.63,28.94,1.87,8.2,6.34,16.48,13.65,25.32,7.9,9.56,12.27,17.33,14.19,25.22,1.81,7.48,1.2,14.31-.28,22.27-.65,3.49-1.47,7.01-2.44,10.48-3.29,11.73-1.82,21.89-.65,26.9,2.09,8.93,6.58,17.09,13.35,24.26,7.56,8.01,12.45,17.21,14.52,27.36,1.38,6.76,1.47,13.97,.25,20.84-.91,5.14-2.21,8.26-2.26,8.39Z"/><path class="bw" d="M462.34,388.96c8,36.11-22.97,34.91-59.08,42.92-36.11,8-63.67,22.18-71.68-13.93-8-36.11,14.78-71.87,50.88-79.87s71.87,14.78,79.87,50.88Z"/><g class="ck"><g><circle class="bp" cx="399.12" cy="412.8" r="43.19"/><circle class="ci" cx="399.14" cy="412.9" r="36.6"/><circle class="ci" cx="399.14" cy="412.9" r="34.63"/><circle class="bq" cx="399.14" cy="412.9" r="32.95"/><circle class="bt" cx="382.22" cy="390.68" r="2.75"/><circle class="cd" cx="412.47" cy="401.9" r="13.26"/><circle class="c`" cx="401.71" cy="390.14" r="8.07"/><circle class="ca" cx="417.89" cy="423.41" r="6.3"/><circle class="cc" cx="422.27" cy="416.77" r="4.04"/><circle class="bs" cx="378.34" cy="419.97" r="3.28"/><circle class="bv" cx="382.66" cy="404.91" r="9.5"/><circle class="by" cx="399.96" cy="421.61" r="19.64"/></g></g></g></g></g></svg>