<?xml version="1.0" encoding="UTF-8"?><svg id="Ebene_2" xmlns="http://www.w3.org/2000/svg" xmlns:xlink="http://www.w3.org/1999/xlink" viewBox="0 0 1002.34 1005.68"><defs><style>.cls-1{fill:url(#Unbenannter_Verlauf_14-10);}.cls-2,.cls-3,.cls-4,.cls-5{stroke-width:6px;}.cls-2,.cls-3,.cls-4,.cls-5,.cls-6,.cls-7,.cls-8{fill:none;stroke-miterlimit:10;}.cls-2,.cls-4{stroke:#fdeaa6;}.cls-2,.cls-5,.cls-6,.cls-7,.cls-8{stroke-linecap:round;}.cls-3{stroke:#52bde9;}.cls-9{fill:url(#Unbenannter_Verlauf_14-4);}.cls-10{fill:url(#Unbenannter_Verlauf_14-2);}.cls-11{fill:url(#Unbenannter_Verlauf_14-8);}.cls-12{fill:url(#Unbenannter_Verlauf_14-3);}.cls-13{fill:url(#Unbenannter_Verlauf_14-5);}.cls-14{fill:url(#Unbenannter_Verlauf_14-6);}.cls-15{fill:url(#Unbenannter_Verlauf_14-7);}.cls-16{fill:url(#Unbenannter_Verlauf_14-9);}.cls-17,.cls-18{fill:#f8cd2c;}.cls-19{fill:#fff;}.cls-20,.cls-21{fill:#fdeaa6;}.cls-22{fill:#1b1532;}.cls-5{stroke:#f8cd2c;}.cls-6{stroke:#e83945;}.cls-6,.cls-7,.cls-8{stroke-width:8px;}.cls-7{stroke:#ee7016;}.cls-8{stroke:#911d7e;}.cls-23{fill:url(#Unbenannter_Verlauf_14);}.cls-24{fill:url(#Unbenannter_Verlauf_295);opacity:.75;}.cls-25{fill:url(#Unbenannter_Verlauf_297);}.cls-25,.cls-18,.cls-26,.cls-21,.cls-27,.cls-28{opacity:.5;}.cls-26{fill:#911d7e;}.cls-27{fill:#ee7016;}.cls-28{fill:#e83945;}</style><radialGradient id="Unbenannter_Verlauf_295" cx="258.33" cy="2643" fx="258.33" fy="2643" r="1400.42" gradientTransform="translate(0 -1443.64) scale(1 1.26)" gradientUnits="userSpaceOnUse"><stop offset=".84" stop-color="#221d43"/><stop offset=".88" stop-color="#211c41" stop-opacity=".94"/><stop offset=".92" stop-color="#201b3e" stop-opacity=".76"/><stop offset=".96" stop-color="#1e1839" stop-opacity=".45"/><stop offset="1" stop-color="#1b1532" stop-opacity=".03"/><stop offset="1" stop-color="#1b1532" stop-opacity="0"/></radialGradient><radialGradient id="Unbenannter_Verlauf_297" cx="200.44" cy="3304.37" fx="200.44" fy="3304.37" r="1359.71" gradientTransform="translate(0 -2347.29) scale(1 1.4)" gradientUnits="userSpaceOnUse"><stop offset=".87" stop-color="#2a2458"/><stop offset=".89" stop-color="#292357" stop-opacity=".95"/><stop offset=".92" stop-color="#282254" stop-opacity=".81"/><stop offset=".95" stop-color="#26214f" stop-opacity=".58"/><stop offset=".98" stop-color="#241e48" stop-opacity=".26"/><stop offset="1" stop-color="#221d43" stop-opacity="0"/></radialGradient><radialGradient id="Unbenannter_Verlauf_14" cx="739.73" cy="112.17" fx="739.73" fy="112.17" r="29.83" gradientUnits="userSpaceOnUse"><stop offset="0" stop-color="#fcea10"/><stop offset="0" stop-color="#fff" stop-opacity=".94"/><stop offset="1" stop-color="#fff" stop-opacity="0"/></radialGradient><radialGradient id="Unbenannter_Verlauf_14-2" cx="579.79" cy="460.53" fx="579.79" fy="460.53" xlink:href="#Unbenannter_Verlauf_14"/><radialGradient id="Unbenannter_Verlauf_14-3" cx="388.71" cy="604.17" fx="388.71" fy="604.17" xlink:href="#Unbenannter_Verlauf_14"/><radialGradient id="Unbenannter_Verlauf_14-4" cx="78.13" cy="546.55" fx="78.13" fy="546.55" r="18.44" xlink:href="#Unbenannter_Verlauf_14"/><radialGradient id="Unbenannter_Verlauf_14-5" cx="556.74" cy="180.01" fx="556.74" fy="180.01" r="18.44" xlink:href="#Unbenannter_Verlauf_14"/><radialGradient id="Unbenannter_Verlauf_14-6" cx="876.6" cy="512.62" fx="876.6" fy="512.62" r="18.44" xlink:href="#Unbenannter_Verlauf_14"/><radialGradient id="Unbenannter_Verlauf_14-7" cx="568.86" cy="864.97" fx="568.86" fy="864.97" r="18.44" xlink:href="#Unbenannter_Verlauf_14"/><radialGradient id="Unbenannter_Verlauf_14-8" cx="220.11" cy="825.93" fx="220.11" fy="825.93" r="29.83" xlink:href="#Unbenannter_Verlauf_14"/><radialGradient id="Unbenannter_Verlauf_14-9" cx="798.99" cy="615.61" fx="798.99" fy="615.61" r="29.83" xlink:href="#Unbenannter_Verlauf_14"/><radialGradient id="Unbenannter_Verlauf_14-10" cx="176.6" cy="254.21" fx="176.6" fy="254.21" r="37.83" xlink:href="#Unbenannter_Verlauf_14"/></defs><g id="design_2b"><g><rect class="cls-22" x=".9" y="2.23" width="1000" height="1000"/><path class="cls-24" d="M1000.9,388.29C812.13,225.15,540.67,122.84,239,122.84c-81.95,0-161.67,7.55-238.11,21.82V1002.23H1000.89V388.29Z"/><path class="cls-25" d="M1000.91,748.52c-188.04-224.19-490.23-369.59-830.98-369.59-57.57,0-114.04,4.15-169.04,12.13V1002.23H1000.89v-253.71Z"/><path class="cls-19" d="M822.04,615.61l-7.43,2.09c-6.56,1.84-11.68,6.97-13.53,13.53l-2.09,7.43-2.1-7.44c-1.85-6.55-6.96-11.67-13.51-13.51l-7.44-2.1,7.43-2.09c6.56-1.84,11.68-6.97,13.53-13.53l2.09-7.43,2.1,7.44c1.85,6.55,6.96,11.67,13.51,13.51l7.44,2.1Z"/><path class="cls-19" d="M602.83,460.53l-7.43,2.09c-6.56,1.84-11.68,6.97-13.53,13.53l-2.09,7.43-2.1-7.44c-1.85-6.55-6.96-11.67-13.51-13.51l-7.44-2.1,7.43-2.09c6.56-1.84,11.68-6.97,13.53-13.53l2.09-7.43,2.1,7.44c1.85,6.55,6.96,11.67,13.51,13.51l7.44,2.1Z"/><path class="cls-19" d="M762.78,112.17l-7.43,2.09c-6.56,1.84-11.68,6.97-13.53,13.53l-2.09,7.43-2.1-7.44c-1.85-6.55-6.96-11.67-13.51-13.51l-7.44-2.1,7.43-2.09c6.56-1.84,11.68-6.97,13.53-13.53l2.09-7.43,2.1,7.44c1.85,6.55,6.96,11.67,13.51,13.51l7.44,2.1Z"/><path class="cls-19" d="M411.76,604.17l-7.43,2.09c-6.56,1.84-11.68,6.97-13.53,13.53l-2.09,7.43-2.1-7.44c-1.85-6.55-6.96-11.67-13.51-13.51l-7.44-2.1,7.43-2.09c6.56-1.84,11.68-6.97,13.53-13.53l2.09-7.43,2.1,7.44c1.85,6.55,6.96,11.67,13.51,13.51l7.44,2.1Z"/><path class="cls-19" d="M243.16,825.93l-7.43,2.09c-6.56,1.84-11.68,6.97-13.53,13.53l-2.09,7.43-2.1-7.44c-1.85-6.55-6.96-11.67-13.51-13.51l-7.44-2.1,7.43-2.09c6.56-1.84,11.68-6.97,13.53-13.53l2.09-7.43,2.1,7.44c1.85,6.55,6.96,11.67,13.51,13.51l7.44,2.1Z"/><path class="cls-19" d="M584.85,864.97l-5.15,1.45c-4.55,1.28-8.11,4.84-9.39,9.39l-1.45,5.15-1.46-5.16c-1.28-4.54-4.83-8.09-9.37-9.37l-5.16-1.46,5.15-1.45c4.55-1.28,8.11-4.84,9.39-9.39l1.45-5.15,1.46,5.16c1.28,4.54,4.83,8.09,9.37,9.37l5.16,1.46Z"/><path class="cls-19" d="M94.12,546.55l-5.15,1.45c-4.55,1.28-8.11,4.84-9.39,9.39l-1.45,5.15-1.46-5.16c-1.28-4.54-4.83-8.09-9.37-9.37l-5.16-1.46,5.15-1.45c4.55-1.28,8.11-4.84,9.39-9.39l1.45-5.15,1.46,5.16c1.28,4.54,4.83,8.09,9.37,9.37l5.16,1.46Z"/><path class="cls-19" d="M892.59,512.62l-5.15,1.45c-4.55,1.28-8.11,4.84-9.39,9.39l-1.45,5.15-1.46-5.16c-1.28-4.54-4.83-8.09-9.37-9.37l-5.16-1.46,5.15-1.45c4.55-1.28,8.11-4.84,9.39-9.39l1.45-5.15,1.46,5.16c1.28,4.54,4.83,8.09,9.37,9.37l5.16,1.46Z"/><path class="cls-19" d="M572.73,180.01l-5.15,1.45c-4.55,1.28-8.11,4.84-9.39,9.39l-1.45,5.15-1.46-5.16c-1.28-4.54-4.83-8.09-9.37-9.37l-5.16-1.46,5.15-1.45c4.55-1.28,8.11-4.84,9.39-9.39l1.45-5.15,1.46,5.16c1.28,4.54,4.83,8.09,9.37,9.37l5.16,1.46Z"/><path class="cls-19" d="M208.78,254.21l-10.37,2.92c-9.16,2.58-16.32,9.73-18.89,18.89l-2.92,10.37-2.93-10.38c-2.58-9.14-9.72-16.29-18.87-18.87l-10.38-2.93,10.37-2.92c9.16-2.58,16.32-9.73,18.89-18.89l2.92-10.37,2.93,10.38c2.58,9.14,9.72,16.29,18.87,18.87l10.38,2.93Z"/><circle class="cls-19" cx="631.62" cy="320.27" r="3.87"/><circle class="cls-19" cx="716.69" cy="932.56" r="3.87"/><circle class="cls-19" cx="732.88" cy="745.15" r="3.87"/><circle class="cls-19" cx="485.32" cy="920.29" r="3.87"/><circle class="cls-19" cx="283.26" cy="660.23" r="3.87"/><circle class="cls-19" cx="268" cy="708.74" r="3.87"/><circle class="cls-19" cx="97.99" cy="592.56" r="3.87"/><circle class="cls-19" cx="90.25" cy="258.07" r="3.87"/><circle class="cls-19" cx="572.73" cy="600.3" r="3.87"/><circle class="cls-19" cx="305.98" cy="469.66" r="3.87"/><circle class="cls-19" cx="264.13" cy="195.99" r="3.87"/><circle class="cls-19" cx="176.6" cy="359.21" r="3.87"/><circle class="cls-19" cx="420.56" cy="89.12" r="3.87"/><circle class="cls-19" cx="562.53" cy="749.02" r="3.87"/><circle class="cls-19" cx="416.69" cy="301.89" r="3.87"/><circle class="cls-19" cx="653.35" cy="108.3" r="3.87"/><circle class="cls-19" cx="635.49" cy="69.71" r="3.87"/><circle class="cls-19" cx="798.99" cy="254.21" r="3.87"/><circle class="cls-19" cx="932.42" cy="341.33" r="3.87"/><circle class="cls-19" cx="762.78" cy="487.44" r="3.87"/><circle class="cls-19" cx="904.51" cy="656.36" r="3.87"/><circle class="cls-23" cx="739.73" cy="112.17" r="29.83"/><circle class="cls-10" cx="579.79" cy="460.53" r="29.83"/><circle class="cls-12" cx="388.71" cy="604.17" r="29.83"/><circle class="cls-9" cx="78.13" cy="546.55" r="18.44"/><circle class="cls-13" cx="556.74" cy="180.01" r="18.44"/><circle class="cls-14" cx="876.6" cy="512.62" r="18.44"/><circle class="cls-15" cx="568.86" cy="864.97" r="18.44"/><circle class="cls-11" cx="220.11" cy="825.93" r="29.83"/><circle class="cls-16" cx="798.99" cy="615.61" r="29.83"/><circle class="cls-1" cx="176.6" cy="254.21" r="37.83"/></g><path class="cls-26" d="M.89,536.61c100.56-80.8,245.57-164.26,414.31-233.06,230.74-94.07,448.91-137.5,585.71-124.97V477.83c-100.7,81.8-247.32,166.58-418.31,236.29C354.09,807.29,137.91,850.78,.89,839.44v-302.83Z"/><ellipse class="cls-28" cx="498.87" cy="508.73" rx="514.78" ry="164.84" transform="translate(-155.14 225.99) rotate(-22.18)"/><ellipse class="cls-27" cx="498.87" cy="508.79" rx="391.78" ry="125.45" transform="translate(-155.16 225.99) rotate(-22.18)"/><ellipse class="cls-18" cx="498.89" cy="508.78" rx="314.01" ry="100.55" transform="translate(-155.16 226) rotate(-22.18)"/><ellipse class="cls-21" cx="498.9" cy="508.79" rx="229.36" ry="73.44" transform="translate(-155.16 226) rotate(-22.18)"/><path class="cls-4" d="M473.17,439.96c-10.27,4.19-20.27,8.53-29.96,13.01"/><path class="cls-2" d="M673.64,399.3c-5.33-.75-11.1-1.2-17.27-1.37"/><path class="cls-2" d="M713.66,440.64c2.01-7.03,1.96-13.52-.38-19.26-.76-1.88-1.76-3.64-2.97-5.28"/><path class="cls-2" d="M671.78,493.9c14.63-12.37,25.99-24.47,33.4-35.73"/><path class="cls-2" d="M569.27,557.92c6.15-2.97,12.16-5.99,18.03-9.05"/><path class="cls-2" d="M371.87,617.16c14.84-1.23,31.12-3.68,48.46-7.32"/><path class="cls-2" d="M327.36,616.52c4.09,.6,8.44,1.02,13.03,1.28"/><path class="cls-2" d="M314.28,536.5c-9.36,9.45-16.55,18.61-21.24,27.18"/><path class="cls-2" d="M443.21,452.97c-16.18,7.47-31.5,15.3-45.77,23.33"/><path class="cls-5" d="M534.42,388.91c-23.26,7.39-47.22,16.05-71.48,25.94-5.32,2.17-10.58,4.37-15.79,6.6"/><path class="cls-5" d="M691.26,357.58c-20.44,.95-43.23,3.79-67.73,8.45"/><path class="cls-5" d="M764.02,460.86c14.43-15.93,24.08-31.1,28.07-44.75"/><path class="cls-5" d="M630.18,558.13c13.14-7.1,25.69-14.32,37.57-21.62"/><path class="cls-5" d="M488.29,620.09c16.61-5.72,33.51-12.06,50.57-19.02,4.59-1.87,9.14-3.77,13.65-5.68"/><path class="cls-5" d="M364.87,652.3c26.98-4.51,56.29-11.37,87.01-20.52"/><path class="cls-5" d="M238.73,554.01c-25.42,27.72-36.49,53.17-28.61,72.5,3.45,8.46,10.31,15.22,20.09,20.32"/><path class="cls-7" d="M587.94,346.13c-17,4.58-34.41,9.76-52.13,15.52"/><path class="cls-7" d="M764.02,319.96c-30.53-.6-66.57,2.85-106.31,10.21"/><path class="cls-7" d="M823.59,455.18c34.8-36.39,50.34-69.92,40.07-95.12"/><path class="cls-7" d="M510.87,638.67c12.37-4.58,24.83-9.42,37.37-14.53,22.39-9.13,44.05-18.72,64.81-28.63"/><path class="cls-7" d="M203.72,693.29c31.33,4.71,71.83,3.36,118.29-3.77"/><path class="cls-7" d="M136.66,625.96c-2.61,10.87-2.24,20.93,1.43,29.92,2.84,6.98,7.55,13.02,13.94,18.16"/><path class="cls-7" d="M240.79,507.05c-13.49,9.87-25.88,19.72-37.07,29.45"/><path class="cls-6" d="M540.71,317.64c-22.2,7.32-44.75,15.32-67.54,24.01"/><path class="cls-6" d="M738.76,268.93c-16.22,2.44-33.01,5.42-50.28,8.94"/><path class="cls-6" d="M823.6,522.66c7.53-5.22,14.84-10.44,21.91-15.66"/><path class="cls-6" d="M727.12,582.32c19.09-10.61,37.37-21.38,54.74-32.23"/><path class="cls-6" d="M383.85,721.27c27.14-7.26,55.1-15.67,83.62-25.22"/><path class="cls-6" d="M254.55,748.13c9.24-1.3,18.67-2.77,28.28-4.43"/><path class="cls-6" d="M38.61,722.76c13.75,12.79,34.73,21.73,61.55,26.9"/><path class="cls-6" d="M154.52,510.1c-20.12,14.92-38.32,29.81-54.35,44.45"/><path class="cls-6" d="M306.99,416.1c-13.94,7.27-27.51,14.63-40.67,22.07"/><path class="cls-8" d="M69.39,840.06c14.84-.46,30.29-1.39,46.29-2.79"/><path class="cls-8" d="M5.47,838.84c6.09,.47,12.34,.83,18.73,1.09"/><path class="cls-8" d="M69.65,486.27c-10.45,7.2-20.59,14.41-30.39,21.61"/><path class="cls-8" d="M352.63,330.28c-39.61,17.66-77.65,36.06-113.81,54.95"/><path class="cls-8" d="M636.27,227.12c-13.64,3.84-27.43,7.88-41.34,12.14"/><path class="cls-8" d="M863.69,181c-49.58,5.49-103.89,15.17-161.44,28.93"/><path class="cls-8" d="M783.22,620.09c16.33-8.78,32.25-17.66,47.74-26.61"/><path class="cls-8" d="M401.31,778.48c59.26-17.94,120.81-39.7,183.28-65.17"/><path class="cls-8" d="M303.66,805.12c7.84-1.9,15.74-3.87,23.7-5.92"/><path class="cls-19" d="M458.94,432.05s-18.65,9.85-30.61,26.4-15.32,35.35-20.75,43.61c-8.75,13.3-20.72,19.43-32.53,29.11-18.6,15.25-22.14,25.06-22.66,31.89-.53,6.83,3.7,18.08,28.79,20.44,25.09,2.36,56.75-3.42,74.48-7.75,17.73-4.33,53.33-16.03,76.19-25.88,22.86-9.85,44.53-19.31,68.57-35.6,24.04-16.29,36.65-27.45,44.92-40.98,8.28-13.53,2.84-22.98-5.78-27.98s-26.14-6.83-46.11-4.33c-19.97,2.5-35.61-3.33-48.08-9.33-12.65-6.08-47.88-19.83-86.43,.39Z"/><path class="cls-17" d="M393.69,586.01c-4.31,0-8.57-.17-12.69-.56-11.56-1.09-20.03-4.15-25.17-9.08-5.21-4.99-5.61-10.58-5.39-13.46,.5-6.46,3.46-16.94,23.37-33.26,3.32-2.72,6.67-5.17,9.9-7.54,8.29-6.08,16.12-11.82,22.24-21.12,2-3.03,3.78-7.79,5.84-13.3,3.35-8.94,7.51-20.06,14.96-30.37,12.08-16.73,30.5-26.58,31.28-26.99h0c16.95-8.9,35.14-12.36,54.05-10.28,14.62,1.61,26.64,6.24,34.14,9.85,12.26,5.9,27.43,11.59,46.98,9.15,20-2.5,38.14-.74,47.33,4.58,5.45,3.16,9.02,7.53,10.32,12.64,1.4,5.52,.11,11.6-3.85,18.06-8.19,13.39-20.52,24.66-45.5,41.58-24.66,16.71-47.14,26.4-68.89,35.77-23,9.91-58.77,21.65-76.5,25.98-8.84,2.16-36.48,8.36-62.43,8.36Zm66.17-152.23c-.3,.16-18.44,9.9-29.93,25.82-7.14,9.89-11.2,20.74-14.47,29.45-2.15,5.73-4,10.68-6.24,14.09-6.51,9.9-14.62,15.84-23.2,22.13-3.19,2.34-6.49,4.76-9.73,7.41-18.75,15.37-21.51,24.78-21.95,30.53-.17,2.19,.15,6.45,4.19,10.33,4.49,4.31,12.17,7,22.83,8.01,4.01,.38,8.17,.54,12.37,.54,25.47,0,52.74-6.12,61.46-8.25,17.57-4.3,53.05-15.94,75.88-25.77,21.58-9.3,43.89-18.92,68.24-35.42,24.46-16.58,36.48-27.52,44.35-40.38,3.38-5.53,4.52-10.59,3.39-15.05-1.3-5.13-5.33-8.38-8.48-10.21-8.49-4.92-25.69-6.48-44.88-4.09-20.57,2.57-36.4-3.36-49.17-9.5-7.23-3.48-18.79-7.94-32.87-9.49-18.12-1.99-35.55,1.32-51.8,9.85Z"/><path class="cls-20" d="M393.67,582.09c-4.36,0-8.5-.18-12.3-.54-10.51-.99-18.4-3.76-22.83-8.01-3.84-3.68-4.4-7.65-4.19-10.33,.44-5.75,3.2-15.16,21.95-30.53,3.24-2.66,6.54-5.07,9.73-7.41,8.58-6.29,16.69-12.24,23.2-22.13,2.24-3.4,4.09-8.35,6.24-14.09,3.26-8.72,7.33-19.57,14.47-29.45,11.53-15.96,29.75-25.72,29.93-25.82,13.16-6.91,27.19-10.41,41.7-10.41,18.25,0,33.44,5.46,42.97,10.05,9.79,4.71,23.12,10.11,39.5,10.11,3.19,0,6.44-.2,9.66-.61,5.84-.73,11.55-1.1,16.97-1.1,12.05,0,22.22,1.89,27.91,5.18,3.15,1.83,7.18,5.08,8.48,10.21,1.13,4.46-.01,9.52-3.39,15.05-7.87,12.86-19.89,23.81-44.35,40.38-24.35,16.5-46.67,26.12-68.24,35.42-22.82,9.84-58.3,21.48-75.88,25.77-7.91,1.93-35.72,8.24-61.53,8.24Zm107.89-154.79c-13.87,0-27.28,3.35-39.87,9.95-.17,.09-17.65,9.51-28.58,24.64-6.83,9.46-10.79,20.03-13.97,28.53-2.23,5.96-4.16,11.1-6.64,14.87-6.9,10.48-15.28,16.63-24.15,23.13-3.15,2.31-6.41,4.7-9.56,7.29-17.59,14.42-20.14,22.77-20.53,27.8-.14,1.84,.26,4.58,3,7.2,3.78,3.63,10.87,6.03,20.48,6.93,3.68,.35,7.7,.52,11.93,.52,25.37,0,52.79-6.22,60.6-8.13,17.42-4.26,52.61-15.8,75.25-25.56,21.41-9.23,43.55-18.77,67.6-35.07,23.95-16.23,35.66-26.85,43.21-39.18,2.81-4.59,3.8-8.65,2.94-12.04-.97-3.81-4.15-6.33-6.65-7.78-5.11-2.96-14.56-4.66-25.94-4.66-5.26,0-10.81,.36-16.48,1.07-3.39,.42-6.8,.64-10.15,.64-17.17,0-31.04-5.61-41.2-10.5-9.16-4.41-23.76-9.66-41.27-9.66Z"/><path class="cls-20" d="M433.81,481.1s6.69-24.18,26.55-34.97c19.86-10.79,36.74-12.82,54.41-9.85,17.67,2.97,32.84,13.13,42.06,22.2s6.88,10.79,13.45,13.29c6.57,2.5,17.66,3.73,17.67,11.73,0,7.3-4.53,11.57-13.45,18.92-8.91,7.35-29.4,20.64-61.61,33.93-32.21,13.29-58.95,14.85-62.08,9.38s-17.49-53.97-17.01-64.63Z"/><g><path class="cls-3" d="M758.44,1001.73S426.95,469.33,334.82,1.73"/><path class="cls-3" d="M1000.89,963.88s-404.57-223.02-499.53-462.15S452.61,1.73,452.61,1.73"/><path class="cls-3" d="M1000.9,800.44s-429.06-90.99-499.54-298.71C430.88,294.01,582.37,1.73,582.37,1.73"/><path class="cls-3" d="M1000.9,646.76s-312.9,113.73-499.54-145.03c0,0-91.94-312.3,321.79-499"/><path class="cls-3" d="M945.01,328.18c37.97,99.3-11.74,210.58-111.04,248.55-99.3,37.97-294.63,24.3-332.6-74.99-37.97-99.3,95.8-246.63,195.1-284.6s210.58,11.74,248.55,111.04Z"/><path class="cls-3" d="M805.57,380.01c30.19,67.75-.25,147.14-68,177.33s-206.02,12.14-236.21-55.6,59.13-159.53,126.88-189.72,147.14,.25,177.33,68Z"/><path class="cls-3" d="M706.1,429.67c16.22,45.01-7.11,94.65-52.12,110.87-45.01,16.22-136.39,6.2-152.62-38.81-16.22-45.01,48.86-107.96,93.87-124.18,45.01-16.22,94.65,7.11,110.87,52.12Z"/><path class="cls-3" d="M688.57,1002.73c-36.75-119.28-201.27-623.67-451.88-958.02,0,0-20-25.04-40.69-41.98"/><path class="cls-3" d="M536.77,1002.73c18.69-149.65,28.04-362.38-39.94-499.68C382.67,272.47,157.87,132.26,157.87,132.26c0,0-88.82-51.3-156.98-70.35"/><path class="cls-3" d="M421.04,1002.73c56.52-115.98,155.19-357.95,75.79-499.68C389.62,311.68,71.05,228.68,71.05,228.68c0,0-40.12-8.77-70.16-13.25"/><path class="cls-3" d="M.89,374.42c350.23-108.27,495.94,128.63,495.94,128.63,67.4,311.84-219.38,467.16-219.38,467.16,0,0-34.54,21.98-89.99,32.53"/><path class="cls-3" d="M71,716.62c48.39,94.66,164.35,132.17,259.01,83.79,94.66-48.39,215.21-202.69,166.82-297.35-48.39-94.66-247.38-93.83-342.04-45.44-94.66,48.39-132.17,164.35-83.79,259.01Z"/><path class="cls-3" d="M202.81,647.67c30.14,67.77,109.51,98.27,177.28,68.13,67.77-30.14,146.88-144.98,116.73-212.75-30.14-67.77-158.12-62.8-225.89-32.66-67.77,30.14-98.27,109.51-68.13,177.28Z"/><path class="cls-3" d="M306.28,606.98c22.59,42.17,75.09,58.05,117.27,35.46,42.17-22.59,95.87-97.21,73.28-139.38s-112.92-35.93-155.09-13.34c-42.17,22.59-58.05,75.09-35.46,117.27Z"/></g><path d="M433.53,541.89s-19.39-40.12,9.6-75.63c28.98-35.51,72.94-30.71,89.45-21.31,16.51,9.41,29.75,18.81,38.01,41.65,0,0,2.88,18.62-58.16,44.92-61.04,26.3-78.89,10.37-78.89,10.37Z"/></g></svg>