<?xml version="1.0" encoding="UTF-8"?><svg id="Ebene_2" xmlns="http://www.w3.org/2000/svg" xmlns:xlink="http://www.w3.org/1999/xlink" viewBox="0 0 1000.02 1000"><defs><style>.cls-1,.cls-2{fill:#fff;}.cls-3{fill:#7e58a0;}.cls-4{fill:#69c6e3;}.cls-5{fill:#906eae;}.cls-6{fill:#d0b9db;}.cls-7{fill:#05a7c1;}.cls-8{fill:#4068b0;}.cls-9{fill:#1b1532;}.cls-10{fill:#6d94cd;}.cls-11{fill:#6d4696;}.cls-12{fill:#564394;}.cls-13{fill:#36bcdc;}.cls-14{fill:#3461aa;}.cls-15{fill:#4c7bbe;}.cls-16{fill:url(#Unbenannter_Verlauf_280);}.cls-17{fill:url(#Unbenannter_Verlauf_295);}.cls-18{fill:url(#Unbenannter_Verlauf_297);}.cls-19{fill:url(#Unbenannter_Verlauf_261);}.cls-20{fill:url(#Unbenannter_Verlauf_260);}.cls-21{fill:url(#Unbenannter_Verlauf_22);}.cls-22{fill:url(#Unbenannter_Verlauf_32);}.cls-23{fill:url(#Unbenannter_Verlauf_34);}.cls-24{fill:url(#Unbenannter_Verlauf_42);}.cls-25{fill:url(#Unbenannter_Verlauf_30);}.cls-26{fill:url(#Unbenannter_Verlauf_4);}.cls-2{opacity:.75;}</style><radialGradient id="Unbenannter_Verlauf_295" cx="257.45" cy="2858.44" fx="257.45" fy="2858.44" r="1400.42" gradientTransform="translate(0 -1716.96) scale(1 1.26)" gradientUnits="userSpaceOnUse"><stop offset=".84" stop-color="#221d43"/><stop offset=".88" stop-color="#211c41" stop-opacity=".94"/><stop offset=".92" stop-color="#201b3e" stop-opacity=".76"/><stop offset=".96" stop-color="#1e1839" stop-opacity=".45"/><stop offset="1" stop-color="#1b1532" stop-opacity=".03"/><stop offset="1" stop-color="#1b1532" stop-opacity="0"/></radialGradient><radialGradient id="Unbenannter_Verlauf_297" cx="199.55" cy="3605.96" fx="199.55" fy="3605.96" r="1359.71" gradientTransform="translate(0 -2772.23) scale(1 1.4)" gradientUnits="userSpaceOnUse"><stop offset=".87" stop-color="#2a2458"/><stop offset=".89" stop-color="#292357" stop-opacity=".95"/><stop offset=".92" stop-color="#282254" stop-opacity=".81"/><stop offset=".95" stop-color="#26214f" stop-opacity=".58"/><stop offset=".98" stop-color="#241e48" stop-opacity=".26"/><stop offset="1" stop-color="#221d43" stop-opacity="0"/></radialGradient><radialGradient id="Unbenannter_Verlauf_280" cx="414.76" cy="500" fx="414.76" fy="500" r="320.2" gradientUnits="userSpaceOnUse"><stop offset=".88" stop-color="#b8e1ee"/><stop offset="1" stop-color="#fff" stop-opacity=".8"/></radialGradient><radialGradient id="Unbenannter_Verlauf_261" cx="378.48" cy="469.57" fx="378.48" fy="469.57" r="282.66" gradientUnits="userSpaceOnUse"><stop offset="0" stop-color="#69c6e3"/><stop offset="1" stop-color="#69c6e3" stop-opacity="0"/></radialGradient><radialGradient id="Unbenannter_Verlauf_260" cx="352.56" cy="431.63" fx="352.56" fy="431.63" r="161.54" gradientUnits="userSpaceOnUse"><stop offset="0" stop-color="#36bcdc"/><stop offset="1" stop-color="#36bcdc" stop-opacity="0"/></radialGradient><radialGradient id="Unbenannter_Verlauf_34" cx="599.59" cy="500" fx="599.59" fy="500" r="275.56" gradientUnits="userSpaceOnUse"><stop offset=".88" stop-color="#6d94cd"/><stop offset=".92" stop-color="#769ad0" stop-opacity=".97"/><stop offset=".96" stop-color="#93aedb" stop-opacity=".9"/><stop offset="1" stop-color="#bacaea" stop-opacity=".8"/></radialGradient><radialGradient id="Unbenannter_Verlauf_22" cx="568.37" cy="473.81" fx="568.37" fy="473.81" r="243.25" gradientUnits="userSpaceOnUse"><stop offset="0" stop-color="#4c7bbe"/><stop offset="1" stop-color="#4c7bbe" stop-opacity="0"/></radialGradient><radialGradient id="Unbenannter_Verlauf_32" cx="732.73" cy="500" fx="732.73" fy="500" r="199.97" gradientUnits="userSpaceOnUse"><stop offset=".88" stop-color="#906eae"/><stop offset=".92" stop-color="#9776b3" stop-opacity=".98"/><stop offset=".96" stop-color="#ad90c2" stop-opacity=".91"/><stop offset="1" stop-color="#d0b9db" stop-opacity=".8"/></radialGradient><radialGradient id="Unbenannter_Verlauf_30" cx="710.07" cy="481" fx="710.07" fy="481" r="176.52" gradientUnits="userSpaceOnUse"><stop offset="0" stop-color="#7e58a0"/><stop offset="1" stop-color="#7e58a0" stop-opacity="0"/></radialGradient><radialGradient id="Unbenannter_Verlauf_42" cx="816.63" cy="500" fx="816.63" fy="500" r="104.74" gradientUnits="userSpaceOnUse"><stop offset=".76" stop-color="#70c4c4"/><stop offset="1" stop-color="#9fd5d5" stop-opacity="0"/></radialGradient><radialGradient id="Unbenannter_Verlauf_4" cx="858.46" cy="419.37" fx="858.46" fy="419.37" r="79.89" gradientTransform="translate(-20.93 40.59) rotate(2.72)" gradientUnits="userSpaceOnUse"><stop offset="0" stop-color="#70c4c4"/><stop offset="1" stop-color="#fff" stop-opacity=".8"/></radialGradient></defs><g id="design_2"><g><rect class="cls-9" x="0" width="1000" height="1000"/><path class="cls-17" d="M1000.01,386.06C811.24,222.92,539.79,120.61,238.11,120.61,156.16,120.61,76.44,128.16,0,142.43V1000H1000.01V386.06Z"/><path class="cls-18" d="M1000.02,746.29c-188.04-224.19-490.23-369.59-830.98-369.59-57.57,0-114.04,4.15-169.04,12.13V1000H1000.01v-253.71Z"/></g><g><path class="cls-4" d="M416.82,838.18c-186.77,0-338.18-151.41-338.18-338.18S230.05,161.82,416.82,161.82V838.18Z"/><path class="cls-16" d="M416.82,821.73c-177.69,0-321.73-144.05-321.73-321.73S239.13,178.27,416.82,178.27V821.73Z"/><path class="cls-19" d="M416.82,188.07c-12.54-1.7-25.35-2.58-38.36-2.58-156.38,0-283.15,126.77-283.15,283.15s126.77,283.15,283.15,283.15c13.01,0,25.81-.88,38.36-2.58V188.07Z"/><path class="cls-20" d="M416.82,580.11c-19.76,8.59-41.56,13.36-64.48,13.36-89.38,0-161.83-72.46-161.83-161.83s72.46-161.83,161.83-161.83c22.34,0,43.63,4.53,62.99,12.72l1.49,297.59Z"/><g><circle class="cls-1" cx="176.72" cy="463.47" r="5.86"/><circle class="cls-1" cx="165" cy="419.21" r="5.86"/><circle class="cls-1" cx="202.29" cy="483.71" r="8.38"/><circle class="cls-1" cx="108.49" cy="515.06" r="5.86"/><circle class="cls-1" cx="203.56" cy="669.79" r="7.15"/><circle class="cls-1" cx="134.45" cy="542.36" r="5.86"/><circle class="cls-1" cx="165.37" cy="591.93" r="7.15"/><circle class="cls-1" cx="196.41" cy="602.37" r="7.15"/><circle class="cls-1" cx="208.15" cy="523.44" r="5.86"/><circle class="cls-1" cx="219.58" cy="288.94" r="8.38"/><circle class="cls-1" cx="236.72" cy="267.51" r="7.15"/><circle class="cls-1" cx="224.48" cy="336.79" r="5.86"/><circle class="cls-1" cx="126.07" cy="451.55" r="7.15"/><circle class="cls-1" cx="155.83" cy="358.95" r="5.86"/><circle class="cls-1" cx="237.41" cy="717.03" r="5.86"/><circle class="cls-1" cx="254.99" cy="703.72" r="7.15"/><path class="cls-7" d="M219.1,575.2c-10.73,0-19.45-8.73-19.45-19.46s8.73-19.45,19.45-19.45,19.46,8.73,19.46,19.45-8.73,19.46-19.46,19.46Zm0-25.91c-3.56,0-6.45,2.9-6.45,6.45s2.9,6.46,6.45,6.46,6.46-2.9,6.46-6.46-2.9-6.45-6.46-6.45Z"/><path class="cls-13" d="M216.48,655.95c-8.45,0-17.46-2.54-25.69-7.29-9.28-5.36-16.61-12.97-20.65-21.43-4.43-9.28-4.48-18.52-.14-26.03,4.33-7.51,12.37-12.09,22.62-12.89,9.35-.74,19.6,1.81,28.88,7.17,9.28,5.36,16.61,12.96,20.65,21.43,4.43,9.28,4.48,18.52,.14,26.03h0c-4.34,7.51-12.37,12.09-22.62,12.89-1.05,.08-2.12,.12-3.19,.12Zm-20.71-54.77c-.72,0-1.43,.03-2.13,.08-3.39,.27-9.5,1.46-12.38,6.43s-.85,10.87,.62,13.93c2.88,6.02,8.49,11.77,15.42,15.77,6.92,4,14.72,5.99,21.36,5.47,3.39-.27,9.5-1.46,12.38-6.43h0c2.87-4.98,.85-10.87-.62-13.93-2.88-6.02-8.49-11.77-15.42-15.77-6.2-3.58-13.08-5.55-19.23-5.55Z"/><path class="cls-1" d="M169.2,631.62c-17.23,0-34.66-15.23-42.24-38.42-4.1-12.55-4.57-25.55-1.33-36.59,3.5-11.92,10.87-20.25,20.74-23.48,9.87-3.23,20.74-.85,30.6,6.7,9.15,6.99,16.44,17.76,20.55,30.31,8.9,27.22,.37,53.61-19.41,60.07h0c-2.93,.96-5.91,1.42-8.91,1.42Zm-14.06-86.88c-1.63,0-3.22,.25-4.73,.74-5.68,1.86-10.05,7.11-12.31,14.79-2.51,8.55-2.08,18.81,1.21,28.89,6.41,19.61,22.33,32.76,34.75,28.69,12.43-4.06,17.51-24.06,11.09-43.68-3.29-10.08-9.01-18.61-16.09-24.03-4.66-3.56-9.47-5.41-13.93-5.41Z"/><path class="cls-7" d="M195.07,387.61c-5.01,0-9.81-1.13-14.21-3.41h0c-9.87-5.11-16.21-15.2-17.87-28.42-1.54-12.33,1.22-26.09,7.78-38.76s16.2-22.87,27.15-28.73c11.75-6.29,23.65-6.94,33.52-1.83,9.87,5.11,16.21,15.2,17.87,28.42,1.54,12.33-1.22,26.09-7.78,38.76s-16.2,22.87-27.15,28.73c-6.51,3.49-13.08,5.24-19.31,5.24Zm22.15-91.54c-4.12,0-8.6,1.23-13.17,3.68-8.66,4.63-16.38,12.89-21.74,23.25-5.36,10.36-7.64,21.43-6.42,31.17,1.11,8.85,4.99,15.41,10.94,18.49h0c12.92,6.69,32.68-4.76,43.15-24.99,10.47-20.23,8.4-42.98-4.52-49.66-2.49-1.29-5.28-1.93-8.25-1.93Z"/><path class="cls-13" d="M142.64,421.07c-6.32,0-11.98-2.15-16.03-6.2-10.35-10.35-7.57-29.34,6.32-43.23,13.89-13.89,32.88-16.66,43.23-6.31,10.35,10.35,7.57,29.34-6.32,43.23-6.31,6.31-14.03,10.57-21.74,12-1.86,.34-3.68,.51-5.46,.51Zm17.67-48.99c-5.83,0-13.12,3.67-18.2,8.75-7.37,7.37-11.77,19.38-6.32,24.84,2.89,2.89,7.46,2.55,9.93,2.1,5.07-.94,10.51-4.01,14.91-8.41,7.37-7.37,11.77-19.38,6.32-24.84-1.7-1.69-4.02-2.44-6.64-2.44Z"/></g><ellipse class="cls-4" cx="416.82" cy="500" rx="208.88" ry="338.18"/><path class="cls-13" d="M356.33,823.78c85.86-42,148.38-171.07,148.38-323.78s-62.52-281.78-148.38-323.78c0,0-148.38,73.32-148.38,323.78s148.39,323.78,148.39,323.78Z"/><path class="cls-7" d="M294.67,774.35c52.53-61.42,86.72-161.42,86.72-274.35s-33.65-211.36-85.49-272.9c0,0-87.96,88-87.96,272.9s86.73,274.35,86.73,274.35Z"/><path class="cls-13" d="M416.82,161.82c-115.36,0-208.88,151.41-208.88,338.18s93.52,338.18,208.88,338.18,208.88-151.41,208.88-338.18-93.52-338.18-208.88-338.18Zm0,656.71c-108.65,0-196.74-142.61-196.74-318.53s88.08-318.53,196.74-318.53,196.74,142.61,196.74,318.53-88.08,318.53-196.74,318.53Z"/></g><g><path class="cls-15" d="M601.37,791.03c-160.73,0-291.03-130.3-291.03-291.03S440.64,208.97,601.37,208.97V791.03Z"/><path class="cls-23" d="M601.37,776.88c-152.91,0-276.88-123.96-276.88-276.88s123.96-276.88,276.88-276.88V776.88Z"/><path class="cls-21" d="M601.37,231.56c-10.8-1.46-21.81-2.22-33.01-2.22-134.58,0-243.67,109.1-243.67,243.67s109.1,243.67,243.67,243.67c11.2,0,22.22-.76,33.01-2.22V231.56Z"/><ellipse class="cls-15" cx="601.37" cy="500" rx="179.75" ry="291.03"/><path class="cls-8" d="M549.31,778.63c73.89-36.14,127.69-147.21,127.69-278.63s-53.8-242.5-127.69-278.63c0,0-127.69,63.09-127.69,278.63s127.7,278.63,127.7,278.63Z"/><path class="cls-14" d="M496.25,736.1c45.21-52.86,74.63-138.91,74.63-236.1s-28.96-181.89-73.57-234.85c0,0-75.69,75.73-75.69,234.85s74.63,236.1,74.63,236.1Z"/><path class="cls-8" d="M601.37,208.97c-99.27,0-179.75,130.3-179.75,291.03s80.48,291.03,179.75,291.03,179.75-130.3,179.75-291.03-80.48-291.03-179.75-291.03Zm0,565.14c-93.51,0-169.31-122.73-169.31-274.12s75.8-274.12,169.31-274.12,169.31,122.73,169.31,274.12-75.8,274.12-169.31,274.12Z"/><g><circle class="cls-10" cx="478.39" cy="421.33" r="4.8"/><circle class="cls-10" cx="505.13" cy="384.41" r="4.8"/><circle class="cls-10" cx="500.33" cy="364.75" r="4.8"/><circle class="cls-10" cx="500.33" cy="421.33" r="5.85"/><circle class="cls-10" cx="516.75" cy="712.05" r="5.85"/><circle class="cls-10" cx="500.33" cy="683.84" r="6.86"/><circle class="cls-10" cx="445.97" cy="504.34" r="4.8"/><circle class="cls-10" cx="506.18" cy="505.91" r="6.86"/><circle class="cls-10" cx="493.47" cy="528.25" r="5.85"/><circle class="cls-10" cx="530.46" cy="347.3" r="4.8"/><circle class="cls-10" cx="467.74" cy="463.67" r="5.85"/><circle class="cls-10" cx="622.65" cy="252.2" r="4.8"/><circle class="cls-10" cx="644.59" cy="271.39" r="6.86"/><circle class="cls-10" cx="535.26" cy="294.54" r="4.8"/><circle class="cls-10" cx="556.19" cy="311.11" r="6.86"/><circle class="cls-10" cx="567.85" cy="382.42" r="6.86"/><circle class="cls-10" cx="555.14" cy="400.94" r="5.85"/><circle class="cls-10" cx="579.5" cy="325.13" r="4.8"/><circle class="cls-10" cx="560.99" cy="343.64" r="4.8"/><circle class="cls-10" cx="637.73" cy="359.13" r="5.85"/><circle class="cls-10" cx="667.86" cy="353.28" r="6.86"/><circle class="cls-10" cx="612" cy="294.54" r="5.85"/><circle class="cls-10" cx="458.92" cy="384.41" r="6.86"/><circle class="cls-10" cx="633.95" cy="643.51" r="4.8"/><circle class="cls-10" cx="660.68" cy="606.59" r="4.8"/><circle class="cls-10" cx="655.88" cy="586.94" r="4.8"/><circle class="cls-10" cx="655.88" cy="643.51" r="5.85"/><circle class="cls-10" cx="565.84" cy="659.21" r="4.8"/><circle class="cls-10" cx="567.48" cy="702.42" r="6.86"/><circle class="cls-10" cx="590.79" cy="716.43" r="4.8"/><circle class="cls-10" cx="572.28" cy="734.95" r="4.8"/><circle class="cls-10" cx="661.73" cy="728.09" r="6.86"/><circle class="cls-10" cx="623.3" cy="685.85" r="5.85"/><circle class="cls-10" cx="551.35" cy="638.71" r="5.85"/><circle class="cls-10" cx="723.4" cy="604.61" r="6.86"/><circle class="cls-10" cx="710.69" cy="623.12" r="5.85"/><circle class="cls-10" cx="472.74" cy="578.74" r="4.8"/><circle class="cls-10" cx="535.46" cy="576.76" r="6.86"/><circle class="cls-10" cx="614.47" cy="606.59" r="6.86"/><circle class="cls-10" cx="565.84" cy="599.25" r="4.8"/><circle class="cls-10" cx="504.05" cy="659.12" r="4.8"/><circle class="cls-10" cx="469.57" cy="620.9" r="4.8"/><circle class="cls-10" cx="514.78" cy="544.95" r="4.8"/><circle class="cls-10" cx="595.15" cy="430.67" r="4.8"/><circle class="cls-10" cx="575.73" cy="425" r="4.8"/><circle class="cls-10" cx="593.3" cy="539.12" r="4.8"/><circle class="cls-10" cx="624.79" cy="375.37" r="6.86"/><circle class="cls-10" cx="634.47" cy="395.63" r="5.85"/><circle class="cls-10" cx="572.05" cy="470.69" r="6.86"/><circle class="cls-10" cx="541.38" cy="509.14" r="4.8"/><circle class="cls-10" cx="751.19" cy="533.01" r="4.8"/><circle class="cls-10" cx="670.05" cy="372.05" r="4.8"/><circle class="cls-10" cx="720.1" cy="383.28" r="6.86"/><circle class="cls-10" cx="718.58" cy="405.69" r="5.85"/><circle class="cls-10" cx="748.55" cy="415.93" r="4.8"/><circle class="cls-10" cx="742.72" cy="455.51" r="4.8"/><circle class="cls-10" cx="744.45" cy="486.21" r="4.8"/><circle class="cls-10" cx="724.65" cy="359.51" r="4.8"/><circle class="cls-10" cx="694.84" cy="298.09" r="4.8"/><circle class="cls-10" cx="676.68" cy="307" r="4.8"/><circle class="cls-10" cx="645.18" cy="494.86" r="4.8"/><circle class="cls-10" cx="620.7" cy="504.12" r="4.8"/><circle class="cls-10" cx="705.07" cy="534.64" r="6.86"/><circle class="cls-10" cx="684.29" cy="549.79" r="5.85"/><circle class="cls-10" cx="735.82" cy="552.05" r="4.8"/><circle class="cls-10" cx="722.31" cy="460.57" r="4.8"/><circle class="cls-10" cx="733.28" cy="441.57" r="5.85"/><circle class="cls-10" cx="680.6" cy="458.97" r="6.86"/><circle class="cls-10" cx="659.14" cy="444.4" r="4.8"/><circle class="cls-10" cx="645.02" cy="471.71" r="4.8"/></g></g><g><path class="cls-3" d="M734.02,711.19c-116.64,0-211.19-94.55-211.19-211.19s94.55-211.19,211.19-211.19v422.39Z"/><path class="cls-22" d="M734.02,700.92c-110.97,0-200.92-89.96-200.92-200.92s89.96-200.92,200.92-200.92v401.85Z"/><path class="cls-25" d="M734.02,305.2c-7.83-1.06-15.83-1.61-23.96-1.61-97.66,0-176.83,79.17-176.83,176.83s79.17,176.83,176.83,176.83c8.12,0,16.12-.55,23.96-1.61V305.2Z"/><ellipse class="cls-3" cx="734.02" cy="500" rx="130.44" ry="211.19"/><path class="cls-11" d="M696.24,702.2c53.62-26.23,92.66-106.83,92.66-202.2s-39.04-175.98-92.66-202.2c0,0-92.67,45.79-92.67,202.2s92.67,202.2,92.67,202.2Z"/><path class="cls-12" d="M657.73,671.33c32.81-38.36,54.16-100.81,54.16-171.33s-21.02-132-53.39-170.43c0,0-54.93,54.96-54.93,170.43s54.16,171.33,54.16,171.33Z"/><path class="cls-11" d="M734.02,288.81c-72.04,0-130.44,94.55-130.44,211.19s58.4,211.19,130.44,211.19,130.44-94.55,130.44-211.19-58.4-211.19-130.44-211.19Zm0,410.11c-67.86,0-122.86-89.06-122.86-198.92s55.01-198.92,122.86-198.92,122.86,89.06,122.86,198.92-55.01,198.92-122.86,198.92Z"/><g><circle class="cls-5" cx="645.62" cy="440.54" r="3.52"/><circle class="cls-5" cx="665.24" cy="413.45" r="3.52"/><circle class="cls-5" cx="661.72" cy="399.02" r="3.52"/><circle class="cls-5" cx="661.72" cy="440.54" r="4.29"/><circle class="cls-5" cx="673.76" cy="653.9" r="4.29"/><circle class="cls-5" cx="661.72" cy="633.2" r="5.03"/><circle class="cls-5" cx="621.82" cy="501.47" r="3.52"/><circle class="cls-5" cx="666.01" cy="502.61" r="5.03"/><circle class="cls-5" cx="656.68" cy="519.01" r="4.29"/><circle class="cls-5" cx="683.83" cy="386.21" r="3.52"/><circle class="cls-5" cx="637.8" cy="471.61" r="4.29"/><circle class="cls-5" cx="751.49" cy="316.42" r="3.52"/><circle class="cls-5" cx="767.59" cy="330.5" r="5.03"/><circle class="cls-5" cx="687.35" cy="347.49" r="3.52"/><circle class="cls-5" cx="702.71" cy="359.66" r="5.03"/><circle class="cls-5" cx="711.26" cy="411.99" r="5.03"/><circle class="cls-5" cx="701.94" cy="425.58" r="4.29"/><circle class="cls-5" cx="719.82" cy="369.94" r="3.52"/><circle class="cls-5" cx="706.23" cy="383.53" r="3.52"/><circle class="cls-5" cx="762.55" cy="394.89" r="4.29"/><circle class="cls-5" cx="784.67" cy="390.6" r="5.03"/><circle class="cls-5" cx="743.67" cy="347.49" r="4.29"/><circle class="cls-5" cx="631.33" cy="413.45" r="5.03"/><circle class="cls-5" cx="759.77" cy="603.6" r="3.52"/><circle class="cls-5" cx="779.39" cy="576.5" r="3.52"/><circle class="cls-5" cx="775.87" cy="562.08" r="3.52"/><circle class="cls-5" cx="775.87" cy="603.6" r="4.29"/><circle class="cls-5" cx="709.79" cy="615.12" r="3.52"/><circle class="cls-5" cx="711" cy="646.83" r="5.03"/><circle class="cls-5" cx="728.1" cy="657.12" r="3.52"/><circle class="cls-5" cx="714.52" cy="670.71" r="3.52"/><circle class="cls-5" cx="780.17" cy="665.67" r="5.03"/><circle class="cls-5" cx="751.96" cy="634.67" r="4.29"/><circle class="cls-5" cx="699.16" cy="600.08" r="4.29"/><circle class="cls-5" cx="825.42" cy="575.05" r="5.03"/><circle class="cls-5" cx="816.09" cy="588.64" r="4.29"/><circle class="cls-5" cx="641.47" cy="556.07" r="3.52"/><circle class="cls-5" cx="687.49" cy="554.61" r="5.03"/><circle class="cls-5" cx="745.48" cy="576.5" r="5.03"/><circle class="cls-5" cx="709.79" cy="571.12" r="3.52"/><circle class="cls-5" cx="664.45" cy="615.06" r="3.52"/><circle class="cls-5" cx="639.14" cy="587.01" r="3.52"/><circle class="cls-5" cx="672.32" cy="531.27" r="3.52"/><circle class="cls-5" cx="731.3" cy="447.4" r="3.52"/><circle class="cls-5" cx="717.05" cy="443.24" r="3.52"/><circle class="cls-5" cx="729.94" cy="526.99" r="3.52"/><circle class="cls-5" cx="753.06" cy="406.81" r="5.03"/><circle class="cls-5" cx="760.16" cy="421.68" r="4.29"/><circle class="cls-5" cx="714.35" cy="476.77" r="5.03"/><circle class="cls-5" cx="691.84" cy="504.99" r="3.52"/><circle class="cls-5" cx="845.82" cy="522.5" r="3.52"/><circle class="cls-5" cx="786.27" cy="404.38" r="3.52"/><circle class="cls-5" cx="823" cy="412.62" r="5.03"/><circle class="cls-5" cx="821.88" cy="429.06" r="4.29"/><circle class="cls-5" cx="843.88" cy="436.58" r="3.52"/><circle class="cls-5" cx="839.6" cy="465.63" r="3.52"/><circle class="cls-5" cx="840.87" cy="488.16" r="3.52"/><circle class="cls-5" cx="826.34" cy="395.17" r="3.52"/><circle class="cls-5" cx="804.47" cy="350.1" r="3.52"/><circle class="cls-5" cx="791.14" cy="356.64" r="3.52"/><circle class="cls-5" cx="768.02" cy="494.5" r="3.52"/><circle class="cls-5" cx="750.05" cy="501.31" r="3.52"/><circle class="cls-5" cx="811.97" cy="523.7" r="5.03"/><circle class="cls-5" cx="796.73" cy="534.82" r="4.29"/><circle class="cls-5" cx="834.54" cy="536.48" r="3.52"/><circle class="cls-5" cx="824.63" cy="469.34" r="3.52"/><circle class="cls-5" cx="832.68" cy="455.4" r="4.29"/><circle class="cls-5" cx="794.01" cy="468.17" r="5.03"/><circle class="cls-5" cx="778.26" cy="457.47" r="3.52"/><circle class="cls-5" cx="767.9" cy="477.52" r="3.52"/></g><g><circle class="cls-6" cx="648.4" cy="554.43" r="3.52"/><circle class="cls-6" cx="668.02" cy="581.53" r="3.52"/><circle class="cls-6" cx="664.5" cy="595.95" r="3.52"/><circle class="cls-6" cx="664.5" cy="554.43" r="4.29"/><circle class="cls-6" cx="676.54" cy="341.07" r="4.29"/><circle class="cls-6" cx="664.5" cy="361.77" r="5.03"/><circle class="cls-6" cx="624.6" cy="493.51" r="3.52"/><circle class="cls-6" cx="668.79" cy="492.36" r="5.03"/><circle class="cls-6" cx="659.46" cy="475.96" r="4.29"/><circle class="cls-6" cx="686.61" cy="608.76" r="3.52"/><circle class="cls-6" cx="640.58" cy="523.36" r="4.29"/><circle class="cls-6" cx="754.27" cy="678.55" r="3.52"/><circle class="cls-6" cx="770.37" cy="664.47" r="5.03"/><circle class="cls-6" cx="690.13" cy="647.48" r="3.52"/><circle class="cls-6" cx="705.49" cy="635.32" r="5.03"/><circle class="cls-6" cx="714.04" cy="582.98" r="5.03"/><circle class="cls-6" cx="704.72" cy="569.39" r="4.29"/><circle class="cls-6" cx="722.6" cy="625.03" r="3.52"/><circle class="cls-6" cx="709.01" cy="611.45" r="3.52"/><circle class="cls-6" cx="765.33" cy="600.08" r="4.29"/><circle class="cls-6" cx="787.45" cy="604.37" r="5.03"/><circle class="cls-6" cx="746.45" cy="647.48" r="4.29"/><circle class="cls-6" cx="634.11" cy="581.53" r="5.03"/><circle class="cls-6" cx="762.55" cy="391.37" r="3.52"/><circle class="cls-6" cx="782.17" cy="418.47" r="3.52"/><circle class="cls-6" cx="778.65" cy="432.89" r="3.52"/><circle class="cls-6" cx="778.65" cy="391.37" r="4.29"/><circle class="cls-6" cx="712.57" cy="379.85" r="3.52"/><circle class="cls-6" cx="713.78" cy="348.14" r="5.03"/><circle class="cls-6" cx="730.88" cy="337.85" r="3.52"/><circle class="cls-6" cx="717.3" cy="324.27" r="3.52"/><circle class="cls-6" cx="782.95" cy="329.3" r="5.03"/><circle class="cls-6" cx="754.74" cy="360.3" r="4.29"/><circle class="cls-6" cx="701.94" cy="394.89" r="4.29"/><circle class="cls-6" cx="828.2" cy="419.92" r="5.03"/><circle class="cls-6" cx="818.87" cy="406.34" r="4.29"/><circle class="cls-6" cx="644.25" cy="438.91" r="3.52"/><circle class="cls-6" cx="690.27" cy="440.36" r="5.03"/><circle class="cls-6" cx="748.26" cy="418.47" r="5.03"/><circle class="cls-6" cx="712.57" cy="423.85" r="3.52"/><circle class="cls-6" cx="667.23" cy="379.92" r="3.52"/><circle class="cls-6" cx="641.92" cy="407.96" r="3.52"/><circle class="cls-6" cx="675.1" cy="463.71" r="3.52"/><circle class="cls-6" cx="734.08" cy="547.57" r="3.52"/><circle class="cls-6" cx="719.83" cy="551.73" r="3.52"/><circle class="cls-6" cx="732.72" cy="467.99" r="3.52"/><circle class="cls-6" cx="755.84" cy="588.16" r="5.03"/><circle class="cls-6" cx="762.94" cy="573.29" r="4.29"/><circle class="cls-6" cx="717.13" cy="518.21" r="5.03"/><circle class="cls-6" cx="694.62" cy="489.99" r="3.52"/><circle class="cls-6" cx="848.6" cy="472.47" r="3.52"/><circle class="cls-6" cx="789.05" cy="590.59" r="3.52"/><circle class="cls-6" cx="825.78" cy="582.35" r="5.03"/><circle class="cls-6" cx="824.66" cy="565.91" r="4.29"/><circle class="cls-6" cx="846.66" cy="558.39" r="3.52"/><circle class="cls-6" cx="842.38" cy="529.35" r="3.52"/><circle class="cls-6" cx="843.65" cy="506.82" r="3.52"/><circle class="cls-6" cx="829.12" cy="599.8" r="3.52"/><circle class="cls-6" cx="807.25" cy="644.88" r="3.52"/><circle class="cls-6" cx="793.92" cy="638.34" r="3.52"/><circle class="cls-6" cx="770.8" cy="500.47" r="3.52"/><circle class="cls-6" cx="752.83" cy="493.67" r="3.52"/><circle class="cls-6" cx="814.75" cy="471.27" r="5.03"/><circle class="cls-6" cx="799.5" cy="460.15" r="4.29"/><circle class="cls-6" cx="837.32" cy="458.49" r="3.52"/><circle class="cls-6" cx="827.41" cy="525.63" r="3.52"/><circle class="cls-6" cx="835.46" cy="539.57" r="4.29"/><circle class="cls-6" cx="796.79" cy="526.8" r="5.03"/><circle class="cls-6" cx="781.04" cy="537.5" r="3.52"/><circle class="cls-6" cx="770.68" cy="517.46" r="3.52"/></g></g><g><circle class="cls-24" cx="816.63" cy="500" r="104.74"/><circle class="cls-2" cx="816.63" cy="500.27" r="83.98"/><circle class="cls-26" cx="816.63" cy="500.27" r="79.89"/></g></g></svg>