<?xml version="1.0" encoding="UTF-8"?><svg id="Ebene_2" xmlns="http://www.w3.org/2000/svg" xmlns:xlink="http://www.w3.org/1999/xlink" viewBox="0 0 843.61 843.61"><defs><style>.cls-1{fill:url(#Unbenannter_Verlauf_59-2);}.cls-2{fill:#ec646d;}.cls-3{fill:#e95313;}.cls-4{fill:#ef7925;}.cls-5{fill:#fff;}.cls-6{fill:#e73738;}.cls-7{fill:#b81918;}.cls-8{fill:#d11918;}.cls-9{opacity:.75;}.cls-10{fill:url(#Unbenannter_Verlauf_75);}.cls-11{fill:url(#Unbenannter_Verlauf_53);}.cls-12{fill:url(#Unbenannter_Verlauf_74);}.cls-13{fill:url(#Unbenannter_Verlauf_60);}.cls-14{fill:url(#Unbenannter_Verlauf_66);}.cls-15{fill:url(#Unbenannter_Verlauf_59);}.cls-16{fill:url(#Unbenannter_Verlauf_39);}.cls-17{fill:url(#Unbenannter_Verlauf_33);}.cls-18{fill:url(#Unbenannter_Verlauf_43);}.cls-19{fill:url(#Unbenannter_Verlauf_49);}.cls-20{fill:url(#Unbenannter_Verlauf_47);}</style><radialGradient id="Unbenannter_Verlauf_59" cx="299.73" cy="607.31" fx="299.73" fy="607.31" r="208.79" gradientTransform="matrix(1, 0, 0, 1, 0, 0)" gradientUnits="userSpaceOnUse"><stop offset=".81" stop-color="#e73738" stop-opacity="0"/><stop offset=".9" stop-color="#e73738" stop-opacity=".3"/><stop offset="1" stop-color="#e73738" stop-opacity="0"/></radialGradient><radialGradient id="Unbenannter_Verlauf_75" cx="201.4" cy="222.99" fx="201.4" fy="222.99" r="152.39" gradientTransform="matrix(1, 0, 0, 1, 0, 0)" gradientUnits="userSpaceOnUse"><stop offset=".81" stop-color="#ec646d" stop-opacity="0"/><stop offset=".91" stop-color="#ec646d" stop-opacity=".3"/><stop offset="1" stop-color="#ec646d" stop-opacity="0"/></radialGradient><radialGradient id="Unbenannter_Verlauf_66" cx="599.78" cy="572.55" fx="599.78" fy="572.55" r="152.39" gradientTransform="matrix(1, 0, 0, 1, 0, 0)" gradientUnits="userSpaceOnUse"><stop offset=".81" stop-color="#ec646d" stop-opacity="0"/><stop offset=".9" stop-color="#ec646d" stop-opacity=".3"/><stop offset="1" stop-color="#ec646d" stop-opacity="0"/></radialGradient><radialGradient id="Unbenannter_Verlauf_33" cx="391.85" cy="108.38" fx="391.85" fy="108.38" r="82.76" gradientTransform="matrix(1, 0, 0, 1, 0, 0)" gradientUnits="userSpaceOnUse"><stop offset=".81" stop-color="#b81918" stop-opacity="0"/><stop offset=".9" stop-color="#b81918" stop-opacity=".3"/><stop offset="1" stop-color="#b81918" stop-opacity="0"/></radialGradient><radialGradient id="Unbenannter_Verlauf_59-2" cx="759.98" cy="382.57" fx="759.98" fy="382.57" r="44.65" xlink:href="#Unbenannter_Verlauf_59"/><radialGradient id="Unbenannter_Verlauf_49" cx="672.09" cy="293.9" fx="672.09" fy="293.9" r="135.38" gradientTransform="matrix(1, 0, 0, 1, 0, 0)" gradientUnits="userSpaceOnUse"><stop offset=".81" stop-color="#d11918" stop-opacity="0"/><stop offset=".9" stop-color="#d11918" stop-opacity=".3"/><stop offset="1" stop-color="#d11918" stop-opacity="0"/></radialGradient><radialGradient id="Unbenannter_Verlauf_43" cx="417.81" cy="723.57" fx="417.81" fy="723.57" r="82.76" gradientTransform="matrix(1, 0, 0, 1, 0, 0)" gradientUnits="userSpaceOnUse"><stop offset=".81" stop-color="#b81918" stop-opacity="0"/><stop offset=".91" stop-color="#b81918" stop-opacity=".3"/><stop offset="1" stop-color="#b81918" stop-opacity="0"/></radialGradient><radialGradient id="Unbenannter_Verlauf_39" cx="421.8" cy="421.8" fx="421.8" fy="421.8" r="421.8" gradientTransform="matrix(1, 0, 0, 1, 0, 0)" gradientUnits="userSpaceOnUse"><stop offset=".76" stop-color="#d11918"/><stop offset="1" stop-color="#e73738" stop-opacity="0"/></radialGradient><radialGradient id="Unbenannter_Verlauf_74" cx="421.8" cy="421.8" fx="421.8" fy="421.8" r="348.15" gradientTransform="matrix(1, 0, 0, 1, 0, 0)" gradientUnits="userSpaceOnUse"><stop offset=".94" stop-color="#d11918" stop-opacity=".9"/><stop offset="1" stop-color="#e73738" stop-opacity=".4"/></radialGradient><radialGradient id="Unbenannter_Verlauf_47" cx="542.84" cy="216.92" fx="542.84" fy="216.92" r="321.73" gradientTransform="translate(-110.12 180.42) rotate(2.72)" gradientUnits="userSpaceOnUse"><stop offset=".88" stop-color="#e73738"/><stop offset="1" stop-color="#e95313" stop-opacity=".8"/></radialGradient><radialGradient id="Unbenannter_Verlauf_53" cx="383.45" cy="391.53" fx="383.45" fy="391.53" r="283.15" gradientTransform="matrix(1, 0, 0, 1, 0, 0)" gradientUnits="userSpaceOnUse"><stop offset="0" stop-color="#d11918"/><stop offset="1" stop-color="#d11918" stop-opacity="0"/></radialGradient><radialGradient id="Unbenannter_Verlauf_60" cx="357.33" cy="354.52" fx="357.33" fy="354.52" r="161.83" gradientTransform="matrix(1, 0, 0, 1, 0, 0)" gradientUnits="userSpaceOnUse"><stop offset="0" stop-color="#b81918"/><stop offset="1" stop-color="#b81918" stop-opacity="0"/></radialGradient></defs><g id="design_2"><g><path class="cls-15" d="M299.73,816.1c-115.13,0-208.79-93.66-208.79-208.79s93.66-208.79,208.79-208.79,208.79,93.66,208.79,208.79-93.66,208.79-208.79,208.79Zm0-377.58c-93.07,0-168.79,75.72-168.79,168.79s75.72,168.79,168.79,168.79,168.79-75.72,168.79-168.79-75.72-168.79-168.79-168.79Z"/><path class="cls-10" d="M201.4,375.39c-84.03,0-152.39-68.36-152.39-152.39S117.37,70.6,201.4,70.6s152.39,68.36,152.39,152.39-68.36,152.39-152.39,152.39Zm0-275.59c-67.93,0-123.2,55.27-123.2,123.2s55.27,123.2,123.2,123.2,123.2-55.27,123.2-123.2-55.27-123.2-123.2-123.2Z"/><path class="cls-14" d="M599.78,724.94c-84.03,0-152.39-68.36-152.39-152.39s68.36-152.39,152.39-152.39,152.39,68.36,152.39,152.39-68.36,152.39-152.39,152.39Zm0-275.59c-67.93,0-123.2,55.27-123.2,123.2s55.27,123.2,123.2,123.2,123.2-55.27,123.2-123.2-55.27-123.2-123.2-123.2Z"/><path class="cls-17" d="M391.85,191.14c-45.64,0-82.76-37.13-82.76-82.76s37.13-82.76,82.76-82.76,82.76,37.13,82.76,82.76-37.13,82.76-82.76,82.76Zm0-149.67c-36.89,0-66.91,30.01-66.91,66.91s30.01,66.91,66.91,66.91,66.91-30.01,66.91-66.91-30.01-66.91-66.91-66.91Z"/><path class="cls-1" d="M759.98,427.22c-24.62,0-44.65-20.03-44.65-44.65s20.03-44.65,44.65-44.65,44.65,20.03,44.65,44.65-20.03,44.65-44.65,44.65Zm0-80.75c-19.9,0-36.1,16.19-36.1,36.1s16.19,36.1,36.1,36.1,36.1-16.19,36.1-36.1-16.19-36.1-36.1-36.1Z"/><path class="cls-19" d="M672.09,429.28c-74.65,0-135.38-60.73-135.38-135.38s60.73-135.38,135.38-135.38,135.38,60.73,135.38,135.38-60.73,135.38-135.38,135.38Zm0-244.82c-60.35,0-109.44,49.1-109.44,109.44s49.1,109.44,109.44,109.44,109.44-49.1,109.44-109.44-49.1-109.44-109.44-109.44Z"/><path class="cls-18" d="M417.81,806.33c-45.64,0-82.76-37.13-82.76-82.76s37.13-82.76,82.76-82.76,82.76,37.13,82.76,82.76-37.13,82.76-82.76,82.76Zm0-149.67c-36.89,0-66.91,30.01-66.91,66.91s30.01,66.91,66.91,66.91,66.91-30.01,66.91-66.91-30.01-66.91-66.91-66.91Z"/><circle class="cls-16" cx="421.8" cy="421.8" r="421.8"/><path class="cls-12" d="M443.49,76.89h0c21.85-6.66,45.56-2.91,64.28,10.18h0c12.11,8.47,26.47,13.13,41.24,13.4h0c22.84,.42,44.23,11.31,57.99,29.55h0c8.9,11.79,21.12,20.67,35.08,25.49h0c21.6,7.46,38.57,24.43,46.02,46.02h0c4.82,13.97,13.7,26.18,25.49,35.08h0c18.23,13.76,29.13,35.15,29.55,57.99h0c.27,14.77,4.94,29.13,13.4,41.24h0c13.09,18.73,16.84,42.43,10.18,64.28h0c-4.31,14.13-4.31,29.23,0,43.36h0c6.66,21.85,2.91,45.56-10.18,64.28h0c-8.47,12.11-13.13,26.47-13.4,41.24h0c-.42,22.84-11.31,44.23-29.55,57.99h0c-11.79,8.9-20.67,21.12-25.49,35.08h0c-7.46,21.6-24.43,38.57-46.02,46.02h0c-13.97,4.82-26.18,13.7-35.08,25.49h0c-13.76,18.23-35.15,29.13-57.99,29.55h0c-14.77,.27-29.13,4.94-41.24,13.4h0c-18.73,13.09-42.43,16.84-64.28,10.18h0c-14.13-4.31-29.23-4.31-43.36,0h0c-21.85,6.66-45.56,2.91-64.28-10.18h0c-12.11-8.47-26.47-13.13-41.24-13.4h0c-22.84-.42-44.23-11.31-57.99-29.55h0c-8.9-11.79-21.12-20.67-35.08-25.49h0c-21.6-7.46-38.57-24.43-46.02-46.02h0c-4.82-13.97-13.7-26.18-25.49-35.08h0c-18.23-13.76-29.13-35.15-29.55-57.99h0c-.27-14.77-4.94-29.13-13.4-41.24h0c-13.09-18.73-16.84-42.43-10.18-64.28h0c4.31-14.13,4.31-29.23,0-43.36h0c-6.66-21.85-2.91-45.56,10.18-64.28h0c8.47-12.11,13.13-26.47,13.4-41.24h0c.42-22.84,11.31-44.23,29.55-57.99h0c11.79-8.9,20.67-21.12,25.49-35.08h0c7.46-21.6,24.43-38.57,46.02-46.02h0c13.97-4.82,26.18-13.7,35.08-25.49h0c13.76-18.23,35.15-29.13,57.99-29.55h0c14.77-.27,29.13-4.94,41.24-13.4h0c18.73-13.09,42.43-16.84,64.28-10.18h0c14.13,4.31,29.23,4.31,43.36,0Z"/><circle class="cls-6" cx="421.8" cy="422.88" r="338.18"/><circle class="cls-20" cx="421.8" cy="422.88" r="321.73"/><circle class="cls-11" cx="383.45" cy="391.53" r="283.15"/><circle class="cls-13" cx="357.33" cy="354.52" r="161.83"/><g class="cls-9"><circle class="cls-2" cx="464.66" cy="128.06" r="5.86"/><g><circle class="cls-5" cx="288.45" cy="334.64" r="5.86"/><circle class="cls-2" cx="321.11" cy="289.54" r="5.86"/><circle class="cls-2" cx="315.25" cy="265.54" r="5.86"/><circle class="cls-2" cx="315.25" cy="334.64" r="7.15"/><circle class="cls-2" cx="181.71" cy="386.35" r="5.86"/><circle class="cls-2" cx="169.99" cy="342.09" r="5.86"/><circle class="cls-2" cx="207.27" cy="406.59" r="8.38"/><circle class="cls-5" cx="335.3" cy="689.74" r="7.15"/><circle class="cls-5" cx="113.48" cy="437.95" r="5.86"/><circle class="cls-2" cx="315.25" cy="655.29" r="8.38"/><circle class="cls-2" cx="208.55" cy="592.67" r="7.15"/><circle class="cls-2" cx="139.43" cy="465.24" r="5.86"/><circle class="cls-2" cx="170.35" cy="514.81" r="7.15"/><circle class="cls-2" cx="235.75" cy="423.71" r="5.86"/><circle class="cls-2" cx="201.4" cy="525.25" r="7.15"/><circle class="cls-2" cx="213.13" cy="446.32" r="5.86"/><circle class="cls-5" cx="322.4" cy="437.95" r="8.38"/><circle class="cls-2" cx="306.87" cy="465.24" r="7.15"/><circle class="cls-5" cx="352.05" cy="244.22" r="5.86"/><circle class="cls-2" cx="275.45" cy="386.35" r="7.15"/><circle class="cls-5" cx="491.45" cy="151.5" r="8.38"/><circle class="cls-5" cx="357.91" cy="179.77" r="5.86"/><circle class="cls-2" cx="383.48" cy="200.01" r="8.38"/><circle class="cls-2" cx="397.71" cy="287.12" r="8.38"/><circle class="cls-2" cx="382.19" cy="309.73" r="7.15"/><circle class="cls-2" cx="411.95" cy="217.13" r="5.86"/><circle class="cls-2" cx="389.34" cy="239.74" r="5.86"/><circle class="cls-2" cx="483.08" cy="258.66" r="7.15"/><circle class="cls-5" cx="519.88" cy="251.51" r="8.38"/><circle class="cls-2" cx="451.65" cy="179.77" r="7.15"/><circle class="cls-2" cx="310.28" cy="170.44" r="7.15"/><circle class="cls-2" cx="264.67" cy="289.54" r="8.38"/><circle class="cls-2" cx="266.98" cy="257.93" r="5.86"/><circle class="cls-2" cx="224.57" cy="211.82" r="8.38"/><circle class="cls-2" cx="241.7" cy="190.39" r="7.15"/><circle class="cls-2" cx="229.47" cy="259.67" r="5.86"/><circle class="cls-2" cx="131.06" cy="374.43" r="7.15"/><circle class="cls-2" cx="160.82" cy="281.83" r="5.86"/><circle class="cls-2" cx="138.2" cy="304.44" r="5.86"/><circle class="cls-2" cx="478.45" cy="606.02" r="5.86"/><circle class="cls-5" cx="511.11" cy="560.92" r="5.86"/><circle class="cls-2" cx="505.25" cy="536.92" r="5.86"/><circle class="cls-5" cx="505.25" cy="606.02" r="7.15"/><circle class="cls-2" cx="395.26" cy="625.19" r="5.86"/><circle class="cls-2" cx="397.27" cy="677.98" r="8.38"/><circle class="cls-2" cx="425.74" cy="695.09" r="5.86"/><circle class="cls-2" cx="403.13" cy="717.71" r="5.86"/><circle class="cls-2" cx="512.39" cy="709.33" r="8.38"/><circle class="cls-2" cx="465.44" cy="657.73" r="7.15"/><circle class="cls-2" cx="377.56" cy="600.16" r="7.15"/><circle class="cls-2" cx="587.71" cy="558.5" r="8.38"/><circle class="cls-2" cx="572.19" cy="581.12" r="7.15"/><circle class="cls-2" cx="281.55" cy="526.91" r="5.86"/><circle class="cls-2" cx="358.15" cy="524.48" r="8.38"/><circle class="cls-2" cx="454.67" cy="560.92" r="8.38"/><circle class="cls-2" cx="395.26" cy="551.96" r="5.86"/><circle class="cls-2" cx="319.79" cy="625.09" r="5.86"/><circle class="cls-2" cx="242.4" cy="639.92" r="5.86"/><circle class="cls-5" cx="259.98" cy="626.61" r="7.15"/><circle class="cls-2" cx="277.68" cy="578.41" r="5.86"/><circle class="cls-2" cx="332.9" cy="485.63" r="5.86"/><circle class="cls-2" cx="228.61" cy="506.29" r="5.86"/><circle class="cls-2" cx="431.07" cy="346.05" r="5.86"/><circle class="cls-2" cx="407.35" cy="339.12" r="5.86"/><circle class="cls-2" cx="428.8" cy="478.51" r="5.86"/><circle class="cls-2" cx="467.27" cy="278.5" r="8.38"/><circle class="cls-2" cx="479.1" cy="303.25" r="7.15"/><circle class="cls-2" cx="402.85" cy="394.93" r="8.38"/><circle class="cls-2" cx="365.38" cy="441.89" r="5.86"/><circle class="cls-2" cx="657.58" cy="615.02" r="5.86"/><circle class="cls-2" cx="678.25" cy="529.68" r="8.38"/><circle class="cls-2" cx="704.31" cy="547.2" r="7.15"/><circle class="cls-5" cx="623.29" cy="572.64" r="7.15"/><circle class="cls-2" cx="621.66" cy="471.05" r="5.86"/><circle class="cls-2" cx="685.4" cy="487.11" r="5.86"/><circle class="cls-2" cx="653.63" cy="490.74" r="5.86"/><circle class="cls-2" cx="522.55" cy="274.45" r="5.86"/><circle class="cls-2" cx="583.69" cy="288.16" r="8.38"/><circle class="cls-2" cx="581.82" cy="315.53" r="7.15"/><circle class="cls-5" cx="642.72" cy="220.25" r="7.15"/><circle class="cls-2" cx="687.8" cy="354.15" r="5.86"/><circle class="cls-5" cx="642.38" cy="321.95" r="5.86"/><circle class="cls-2" cx="618.43" cy="328.05" r="5.86"/><circle class="cls-2" cx="687.53" cy="327.36" r="7.15"/><circle class="cls-2" cx="639.19" cy="245.37" r="8.38"/><circle class="cls-2" cx="661.96" cy="260.67" r="7.15"/><circle class="cls-2" cx="642.94" cy="378.38" r="8.38"/><circle class="cls-2" cx="611.31" cy="376.39" r="5.86"/><circle class="cls-2" cx="613.42" cy="413.88" r="5.86"/><circle class="cls-2" cx="589.24" cy="259.13" r="5.86"/><circle class="cls-2" cx="625.36" cy="286.75" r="7.15"/><circle class="cls-2" cx="552.84" cy="184.11" r="5.86"/><circle class="cls-2" cx="530.65" cy="194.99" r="5.86"/><circle class="cls-2" cx="598.14" cy="180.14" r="7.15"/><circle class="cls-5" cx="492.18" cy="424.45" r="5.86"/><circle class="cls-2" cx="462.27" cy="435.77" r="5.86"/><circle class="cls-2" cx="565.32" cy="473.04" r="8.38"/><circle class="cls-2" cx="539.95" cy="491.54" r="7.15"/><circle class="cls-2" cx="602.89" cy="494.31" r="5.86"/><circle class="cls-5" cx="586.39" cy="382.57" r="5.86"/><circle class="cls-2" cx="599.78" cy="359.36" r="7.15"/><circle class="cls-2" cx="535.44" cy="380.62" r="8.38"/><circle class="cls-5" cx="509.22" cy="362.81" r="5.86"/><circle class="cls-2" cx="491.97" cy="396.17" r="5.86"/></g></g><path class="cls-8" d="M416.28,692.55c-14.32,0-25.96-11.65-25.96-25.96s11.65-25.97,25.96-25.97,25.96,11.65,25.96,25.97-11.65,25.96-25.96,25.96Zm0-38.93c-7.15,0-12.96,5.82-12.96,12.97s5.82,12.96,12.96,12.96,12.96-5.82,12.96-12.96-5.82-12.97-12.96-12.97Z"/><path class="cls-8" d="M666.97,309.99c-14.32,0-25.96-11.65-25.96-25.96s11.65-25.97,25.96-25.97,25.96,11.65,25.96,25.97-11.65,25.96-25.96,25.96Zm0-38.93c-7.15,0-12.96,5.82-12.96,12.97s5.82,12.96,12.96,12.96,12.96-5.82,12.96-12.96-5.82-12.97-12.96-12.97Z"/><path class="cls-4" d="M310.96,525.74c-14.32,0-25.97-11.65-25.97-25.96s11.65-25.97,25.97-25.97,25.96,11.65,25.96,25.97-11.65,25.96-25.96,25.96Zm0-38.93c-7.15,0-12.97,5.82-12.97,12.97s5.82,12.96,12.97,12.96,12.96-5.82,12.96-12.96-5.82-12.97-12.96-12.97Z"/><path class="cls-8" d="M699.39,512.71c-10.73,0-19.46-8.73-19.46-19.46s8.73-19.46,19.46-19.46,19.45,8.73,19.45,19.46-8.73,19.46-19.45,19.46Zm0-25.91c-3.56,0-6.46,2.9-6.46,6.46s2.9,6.46,6.46,6.46,6.45-2.9,6.45-6.46-2.9-6.46-6.45-6.46Z"/><path class="cls-7" d="M224.71,499.76c-10.73,0-19.45-8.73-19.45-19.46s8.73-19.45,19.45-19.45,19.46,8.73,19.46,19.45-8.73,19.46-19.46,19.46Zm0-25.91c-3.56,0-6.45,2.9-6.45,6.45s2.9,6.46,6.45,6.46,6.46-2.9,6.46-6.46-2.9-6.45-6.46-6.45Z"/><path class="cls-6" d="M373.05,463.83c-16.69,0-30.26-13.58-30.26-30.26s13.58-30.26,30.26-30.26,30.26,13.58,30.26,30.26-13.58,30.26-30.26,30.26Zm0-47.53c-9.52,0-17.26,7.74-17.26,17.26s7.74,17.26,17.26,17.26,17.26-7.74,17.26-17.26-7.74-17.26-17.26-17.26Z"/><path class="cls-3" d="M445.41,469.88c-8.83,0-16.01-7.18-16.01-16.01s7.18-16.01,16.01-16.01,16.01,7.18,16.01,16.01-7.18,16.01-16.01,16.01Zm0-19.02c-1.66,0-3.01,1.35-3.01,3.01s1.35,3.01,3.01,3.01,3.01-1.35,3.01-3.01-1.35-3.01-3.01-3.01Z"/><path class="cls-7" d="M546.82,300.04c-8.83,0-16.01-7.18-16.01-16.01s7.18-16.01,16.01-16.01,16.01,7.18,16.01,16.01-7.18,16.01-16.01,16.01Zm0-19.02c-1.66,0-3.01,1.35-3.01,3.01s1.35,3.01,3.01,3.01,3.01-1.35,3.01-3.01-1.35-3.01-3.01-3.01Z"/><path class="cls-6" d="M401.79,256.58c-11.57,0-20.99-9.42-20.99-20.99s9.42-20.99,20.99-20.99,20.99,9.42,20.99,20.99-9.42,20.99-20.99,20.99Zm0-28.98c-4.41,0-7.99,3.58-7.99,7.99s3.58,7.99,7.99,7.99,7.99-3.58,7.99-7.99-3.58-7.99-7.99-7.99Z"/><path class="cls-4" d="M444.76,298.52c-7.14,0-14.97-2.09-22.43-6.4-8.08-4.67-14.48-11.31-18-18.7-3.86-8.09-3.89-16.51-.09-23.1,7.61-13.19,27.49-15.49,45.24-5.23,17.76,10.25,25.7,28.61,18.09,41.8h0c-4.41,7.65-12.95,11.63-22.81,11.63Zm-17.77-46.74c-5.23,0-9.56,1.69-11.49,5.04-2.23,3.87-.61,8.55,.56,11,2.37,4.97,7.03,9.72,12.77,13.04,10.87,6.27,23.71,6.05,27.48-.48h0c3.77-6.53-2.46-17.76-13.33-24.04-5.29-3.05-11.04-4.57-15.99-4.57Z"/><path class="cls-7" d="M405.67,760.55c-7.14,0-14.97-2.09-22.43-6.4-17.76-10.25-25.7-28.61-18.09-41.8,3.8-6.59,11.11-10.77,20.05-11.47,8.17-.64,17.11,1.58,25.19,6.24,17.76,10.25,25.7,28.61,18.09,41.8h0c-4.42,7.65-12.95,11.63-22.81,11.63Zm-17.71-46.78c-.59,0-1.18,.02-1.75,.07-2.7,.21-7.57,1.15-9.81,5.01-3.77,6.53,2.46,17.76,13.33,24.04,10.87,6.28,23.71,6.05,27.49-.48,3.77-6.53-2.46-17.76-13.33-24.04-5.14-2.97-10.85-4.61-15.93-4.61Z"/><path class="cls-8" d="M585.07,344.52c-7.38,0-15.23-2.21-22.4-6.35-8.08-4.67-14.47-11.31-18-18.7-3.86-8.09-3.89-16.51-.09-23.1,3.8-6.59,11.11-10.77,20.05-11.48,8.15-.64,17.11,1.58,25.19,6.24,8.08,4.67,14.47,11.31,18,18.7,3.86,8.09,3.89,16.51,.09,23.1-3.8,6.59-11.11,10.77-20.05,11.47-.92,.07-1.86,.11-2.8,.11Zm-17.67-46.73c-.59,0-1.17,.02-1.75,.07-2.7,.21-7.57,1.15-9.81,5.02-2.23,3.87-.61,8.55,.56,11,2.37,4.97,7.03,9.72,12.77,13.04,5.74,3.32,12.18,4.97,17.68,4.54,2.7-.21,7.57-1.15,9.81-5.01h0c2.23-3.87,.61-8.55-.56-11-2.37-4.97-7.03-9.72-12.77-13.04-5.14-2.97-10.85-4.61-15.93-4.61Z"/><path class="cls-3" d="M601.01,279.14c-8.18,0-17.17-2.41-25.75-7.36-20.27-11.7-29.4-32.55-20.79-47.46,8.61-14.91,31.23-17.42,51.5-5.72,20.27,11.7,29.4,32.55,20.79,47.46h0c-4.97,8.6-14.6,13.08-25.75,13.08Zm-20.86-54.85c-6.51,0-11.92,2.19-14.42,6.53-4.8,8.31,2.54,21.91,16.03,29.7,13.49,7.79,28.94,7.35,33.74-.97,4.8-8.31-2.54-21.91-16.03-29.7-6.45-3.72-13.35-5.57-19.32-5.57Z"/><path class="cls-8" d="M222.09,580.5c-8.45,0-17.46-2.54-25.69-7.29-9.28-5.36-16.61-12.97-20.65-21.43-4.43-9.28-4.48-18.52-.14-26.03,4.33-7.51,12.37-12.09,22.62-12.89,9.35-.74,19.6,1.81,28.88,7.17,9.28,5.36,16.61,12.96,20.65,21.43,4.43,9.28,4.48,18.52,.14,26.03h0c-4.34,7.51-12.37,12.09-22.62,12.89-1.05,.08-2.12,.12-3.19,.12Zm-20.71-54.77c-.72,0-1.43,.03-2.13,.08-3.39,.27-9.5,1.46-12.38,6.43s-.85,10.87,.62,13.93c2.88,6.02,8.49,11.77,15.42,15.77,6.92,4,14.72,5.99,21.36,5.47,3.39-.27,9.5-1.46,12.38-6.43h0c2.87-4.98,.85-10.87-.62-13.93-2.88-6.02-8.49-11.77-15.42-15.77-6.2-3.58-13.08-5.55-19.23-5.55Z"/><path class="cls-4" d="M174.8,556.17c-17.23,0-34.66-15.23-42.24-38.42-4.1-12.55-4.57-25.55-1.33-36.59,3.5-11.92,10.87-20.25,20.74-23.48,9.87-3.23,20.74-.85,30.6,6.7,9.15,6.99,16.44,17.76,20.55,30.31,8.9,27.22,.37,53.61-19.41,60.07h0c-2.93,.96-5.91,1.42-8.91,1.42Zm-14.06-86.88c-1.63,0-3.22,.25-4.73,.74-5.68,1.86-10.05,7.11-12.31,14.79-2.51,8.55-2.08,18.81,1.21,28.89,6.41,19.61,22.33,32.76,34.75,28.69,12.43-4.06,17.51-24.06,11.09-43.68-3.29-10.08-9.01-18.61-16.09-24.03-4.66-3.56-9.47-5.41-13.93-5.41Z"/><path class="cls-4" d="M488.39,747.49c-10.22,0-19.95-2.1-28.18-6.16-11.95-5.9-19.41-15.2-20.99-26.2-1.59-11,2.93-22.03,12.72-31.07,9.13-8.42,21.93-14.19,36.05-16.23,14.12-2.04,28.03-.13,39.16,5.37,11.95,5.9,19.41,15.2,20.99,26.2,1.59,11-2.93,22.03-12.72,31.07-9.13,8.42-21.93,14.19-36.05,16.23-3.69,.53-7.37,.8-10.99,.8Zm10.38-67.44c-2.92,0-5.9,.21-8.92,.65-22.55,3.26-39.84,18.17-37.76,32.57,.96,6.63,5.89,12.46,13.88,16.4,8.8,4.34,20.01,5.82,31.55,4.16,11.54-1.67,21.87-6.25,29.09-12.91,6.55-6.05,9.63-13.03,8.67-19.66-1.8-12.47-17.65-21.2-36.51-21.2Z"/><path class="cls-7" d="M200.67,312.16c-5.01,0-9.81-1.13-14.21-3.41h0c-9.87-5.11-16.21-15.2-17.87-28.42-1.54-12.33,1.22-26.09,7.78-38.76s16.2-22.87,27.15-28.73c11.75-6.29,23.65-6.94,33.52-1.83,9.87,5.11,16.21,15.2,17.87,28.42,1.54,12.33-1.22,26.09-7.78,38.76s-16.2,22.87-27.15,28.73c-6.51,3.49-13.08,5.24-19.31,5.24Zm22.15-91.54c-4.12,0-8.6,1.23-13.17,3.68-8.66,4.63-16.38,12.89-21.74,23.25-5.36,10.36-7.64,21.43-6.42,31.17,1.11,8.85,4.99,15.41,10.94,18.49h0c12.92,6.69,32.68-4.76,43.15-24.99,10.47-20.23,8.4-42.98-4.52-49.66-2.49-1.29-5.28-1.93-8.25-1.93Z"/><path class="cls-8" d="M677.69,597.08c-6.32,0-11.98-2.15-16.03-6.2-5.18-5.19-7.26-13.02-5.69-21.49,1.43-7.71,5.69-15.43,12-21.74,6.31-6.31,14.03-10.57,21.73-12,8.48-1.57,16.31,.5,21.49,5.69,5.18,5.19,7.26,13.02,5.69,21.49-1.43,7.71-5.69,15.43-12,21.74-6.31,6.31-14.03,10.57-21.73,12-1.86,.34-3.68,.51-5.46,.51Zm17.56-48.95c-1.2,0-2.31,.14-3.17,.3-5.07,.94-10.51,4.01-14.91,8.41-4.41,4.4-7.47,9.84-8.41,14.92-.46,2.47-.79,7.04,2.1,9.93,2.89,2.89,7.46,2.55,9.93,2.1,5.07-.94,10.51-4.01,14.91-8.41,4.41-4.4,7.47-9.84,8.41-14.92,.46-2.47,.79-7.04-2.1-9.93-1.89-1.89-4.49-2.4-6.76-2.4Z"/><path class="cls-8" d="M148.24,345.62c-6.32,0-11.98-2.15-16.03-6.2-10.35-10.35-7.57-29.34,6.32-43.23,13.89-13.89,32.88-16.66,43.23-6.31,10.35,10.35,7.57,29.34-6.32,43.23-6.31,6.31-14.03,10.57-21.74,12-1.86,.34-3.68,.51-5.46,.51Zm17.67-48.99c-5.83,0-13.12,3.67-18.2,8.75-7.37,7.37-11.77,19.38-6.32,24.84,2.89,2.89,7.46,2.55,9.93,2.1,5.07-.94,10.51-4.01,14.91-8.41,7.37-7.37,11.77-19.38,6.32-24.84-1.7-1.69-4.02-2.44-6.64-2.44Z"/><path class="cls-3" d="M350.51,294.73c-10.16,0-18.63-5.01-20.95-13.25-3-10.61,5.51-21.99,19.36-25.9,6.18-1.74,12.55-1.7,17.95,.13,6.16,2.09,10.57,6.4,12.1,11.83h0c2.99,10.62-5.51,21.99-19.36,25.9-3.1,.87-6.17,1.29-9.09,1.29Zm7.46-27.42c-1.78,0-3.67,.26-5.52,.79-7.44,2.1-11.12,7.24-10.38,9.86,.74,2.62,6.56,5.08,14,2.98,7.44-2.1,11.12-7.24,10.38-9.86h0c-.5-1.77-2.8-2.72-3.76-3.05-1.41-.48-3.02-.72-4.72-.72Z"/></g></g></svg>