<svg viewBox="0 0 997.64 931.89" xmlns="http://www.w3.org/2000/svg" xmlns:xlink="http://www.w3.org/1999/xlink"><linearGradient id="a" gradientTransform="matrix(.68327377 .73016228 -.73016228 .68327377 517.82 212.59)" gradientUnits="userSpaceOnUse" x1="144.37" x2="231.24" y1="159.42" y2="551.29"><stop offset="0" stop-color="#fff"/><stop offset=".11" stop-color="#fff" stop-opacity=".8"/><stop offset=".24" stop-color="#fff" stop-opacity=".59"/><stop offset=".37" stop-color="#fff" stop-opacity=".41"/><stop offset=".5" stop-color="#fff" stop-opacity=".26"/><stop offset=".63" stop-color="#fff" stop-opacity=".15"/><stop offset=".75" stop-color="#fff" stop-opacity=".07"/><stop offset=".88" stop-color="#fff" stop-opacity=".02"/><stop offset="1" stop-color="#fff" stop-opacity="0"/></linearGradient><linearGradient id="b" gradientTransform="matrix(.73562436 .6773897 -.6773897 .73562436 334.01 -24.96)" x1="397.24" x2="483.89" xlink:href="#a" y1="231.74" y2="622.58"/><radialGradient id="c" cx="205.59" cy="317.97" fx="205.59" fy="317.97" gradientTransform="matrix(.68327377 .73016228 -.73016228 .68327377 517.82 212.59)" gradientUnits="userSpaceOnUse" r="5.81"><stop offset=".3" stop-color="#fff"/><stop offset="1" stop-color="#fff" stop-opacity="0"/></radialGradient><radialGradient id="d" cx="167.24" cy="388.17" fx="167.24" fy="388.17" r="4.36" xlink:href="#c"/><radialGradient id="e" cx="230.75" cy="426.65" fx="230.75" fy="426.65" r="4.36" xlink:href="#c"/><radialGradient id="f" cx="197.12" cy="339.2" fx="197.12" fy="339.2" r="4.36" xlink:href="#c"/><linearGradient id="g" gradientTransform="matrix(.45818421 .88885726 -.88885726 .45818421 498.09 222.36)" x1="200.86" x2="324.16" xlink:href="#a" y1="92.59" y2="648.74"/><linearGradient id="h" gradientTransform="matrix(.52294493 .85236647 -.85236647 .52294493 386.07 -56.33)" gradientUnits="userSpaceOnUse" x1="445.55" x2="568.52" y1="174.23" y2="728.93"><stop offset="0" stop-color="#fff"/><stop offset=".17" stop-color="#fff" stop-opacity=".78"/><stop offset=".4" stop-color="#fff" stop-opacity=".5"/><stop offset=".6" stop-color="#fff" stop-opacity=".29"/><stop offset=".78" stop-color="#fff" stop-opacity=".13"/><stop offset=".92" stop-color="#fff" stop-opacity=".04"/><stop offset="1" stop-color="#fff" stop-opacity="0"/></linearGradient><radialGradient id="i" cx="287.75" cy="317.62" fx="287.75" fy="317.62" gradientTransform="matrix(.45818421 .88885726 -.88885726 .45818421 498.09 222.36)" r="8.25" xlink:href="#c"/><radialGradient id="j" cx="233.32" cy="417.24" fx="233.32" fy="417.24" gradientTransform="matrix(.45818421 .88885726 -.88885726 .45818421 498.09 222.36)" r="6.19" xlink:href="#c"/><radialGradient id="k" cx="323.45" cy="471.86" fx="323.45" fy="471.86" gradientTransform="matrix(.45818421 .88885726 -.88885726 .45818421 498.09 222.36)" r="6.19" xlink:href="#c"/><radialGradient id="l" cx="275.72" cy="347.75" fx="275.72" fy="347.75" gradientTransform="matrix(.45818421 .88885726 -.88885726 .45818421 498.09 222.36)" r="6.19" xlink:href="#c"/><radialGradient id="m" cx="476.33" cy="465.97" gradientTransform="matrix(.00383971 .99999263 -.59999558 .00230383 754.07 -11.44)" gradientUnits="userSpaceOnUse" r="565.69"><stop offset="0" stop-color="#0d79bf" stop-opacity="0"/><stop offset=".07" stop-color="#0a81c5" stop-opacity=".03"/><stop offset=".33" stop-color="#0498d9" stop-opacity=".13"/><stop offset=".58" stop-color="#01a6e5" stop-opacity=".18"/><stop offset=".81" stop-color="#00abe9" stop-opacity=".2"/><stop offset=".93" stop-color="#69c6e3" stop-opacity=".4"/><stop offset="1" stop-color="#00abe9" stop-opacity=".6"/></radialGradient><radialGradient id="n" cx="471.6" cy="463.61" gradientUnits="userSpaceOnUse" r="81.13"><stop offset=".86" stop-color="#fff"/><stop offset=".88" stop-color="#f8fafc" stop-opacity=".97"/><stop offset=".89" stop-color="#e6ecf5" stop-opacity=".9"/><stop offset=".91" stop-color="#c9d6e9" stop-opacity=".77"/><stop offset=".94" stop-color="#a0b8d8" stop-opacity=".59"/><stop offset=".96" stop-color="#6c91c3" stop-opacity=".37"/><stop offset=".99" stop-color="#2e62aa" stop-opacity=".1"/><stop offset="1" stop-color="#1852a1" stop-opacity="0"/></radialGradient><linearGradient id="o" gradientTransform="matrix(.37670934 .92633151 -.92633151 .37670934 534.64 248.1)" x1="169.6" x2="51.29" xlink:href="#a" y1="119.26" y2="-414.42"/><linearGradient id="p" gradientTransform="matrix(.44447884 .89578935 -.89578935 .44447884 448.05 -39.51)" x1="495.91" x2="377.91" xlink:href="#h" y1="183.8" y2="-348.48"/><radialGradient id="q" cx="88.06" cy="-118.4" fx="88.06" fy="-118.4" gradientTransform="matrix(.37670934 .92633151 -.92633151 .37670934 534.64 248.1)" r="8.25" xlink:href="#c"/><radialGradient id="r" cx="165.98" cy="-1.61" fx="165.98" fy="-1.61" gradientTransform="matrix(.37670934 .92633151 -.92633151 .37670934 534.64 248.1)" r="6.19" xlink:href="#c"/><radialGradient id="s" cx="124.01" cy="-21" fx="124.01" fy="-21" gradientTransform="matrix(.37670934 .92633151 -.92633151 .37670934 534.64 248.1)" r="6.19" xlink:href="#c"/><radialGradient id="t" cx="132.26" cy="-253.95" fx="132.26" fy="-253.95" gradientTransform="matrix(.37670934 .92633151 -.92633151 .37670934 534.64 248.1)" r="4.64" xlink:href="#c"/><radialGradient id="u" cx="171.52" cy="50.97" fx="171.52" fy="50.97" gradientTransform="matrix(.37670934 .92633151 -.92633151 .37670934 534.64 248.1)" r="8.25" xlink:href="#c"/><radialGradient id="v" cx="155.67" cy="25.36" fx="155.67" fy="25.36" gradientTransform="matrix(.37670934 .92633151 -.92633151 .37670934 534.64 248.1)" r="4.64" xlink:href="#c"/><linearGradient id="w" gradientTransform="matrix(.74988018 .66157366 -.66157366 .74988018 411.51 248.29)" x1="182.67" x2="99.3" xlink:href="#a" y1="117.85" y2="-258.18"/><linearGradient id="x" gradientTransform="matrix(.79695181 .60404288 -.60404288 .79695181 205.87 29.36)" x1="497.38" x2="414.23" xlink:href="#a" y1="182.77" y2="-192.28"/><radialGradient id="y" cx="125.22" cy="-49.61" fx="125.22" fy="-49.61" gradientTransform="matrix(.74988018 .66157366 -.66157366 .74988018 411.51 248.29)" r="5.81" xlink:href="#c"/><radialGradient id="z" cx="180.11" cy="32.69" fx="180.11" fy="32.69" gradientTransform="matrix(.74988018 .66157366 -.66157366 .74988018 411.51 248.29)" r="4.36" xlink:href="#c"/><radialGradient id="A" cx="150.54" cy="19.02" fx="150.54" fy="19.02" gradientTransform="matrix(.74988018 .66157366 -.66157366 .74988018 411.51 248.29)" r="4.36" xlink:href="#c"/><radialGradient id="B" cx="156.36" cy="-145.12" fx="156.36" fy="-145.12" gradientTransform="matrix(.74988018 .66157366 -.66157366 .74988018 411.51 248.29)" r="3.27" xlink:href="#c"/><radialGradient id="C" cx="184.02" cy="69.73" fx="184.02" fy="69.73" gradientTransform="matrix(.74988018 .66157366 -.66157366 .74988018 411.51 248.29)" r="5.81" xlink:href="#c"/><radialGradient id="D" cx="172.85" cy="51.69" fx="172.85" fy="51.69" gradientTransform="matrix(.74988018 .66157366 -.66157366 .74988018 411.51 248.29)" r="3.27" xlink:href="#c"/><linearGradient id="E" gradientTransform="matrix(.16694083 .98596692 -.98596692 .16694083 494.11 142.25)" gradientUnits="userSpaceOnUse" x1="309.14" x2="248.67" y1="64.05" y2="-208.68"><stop offset="0" stop-color="#fff"/><stop offset=".02" stop-color="#fff" stop-opacity=".93"/><stop offset=".09" stop-color="#fff" stop-opacity=".74"/><stop offset=".17" stop-color="#fff" stop-opacity=".56"/><stop offset=".25" stop-color="#fff" stop-opacity=".41"/><stop offset=".33" stop-color="#fff" stop-opacity=".28"/><stop offset=".43" stop-color="#fff" stop-opacity=".18"/><stop offset=".53" stop-color="#fff" stop-opacity=".1"/><stop offset=".64" stop-color="#fff" stop-opacity=".04"/><stop offset=".77" stop-color="#fff" stop-opacity="0"/><stop offset="1" stop-color="#fff" stop-opacity="0"/></linearGradient><linearGradient id="F" gradientTransform="matrix(.23971974 .97084213 -.97084213 .23971974 471.91 -157.29)" x1="619.85" x2="559.54" xlink:href="#E" y1="138.13" y2="-133.9"/><radialGradient id="G" cx="267.47" cy="-57.41" fx="267.47" fy="-57.41" gradientTransform="matrix(.16694083 .98596692 -.98596692 .16694083 494.11 142.25)" r="4.22" xlink:href="#c"/><radialGradient id="H" cx="307.28" cy="2.28" fx="307.28" fy="2.28" gradientTransform="matrix(.16694083 .98596692 -.98596692 .16694083 494.11 142.25)" r="3.16" xlink:href="#c"/><radialGradient id="I" cx="285.84" cy="-7.63" fx="285.84" fy="-7.63" gradientTransform="matrix(.16694083 .98596692 -.98596692 .16694083 494.11 142.25)" r="3.16" xlink:href="#c"/><radialGradient id="J" cx="290.05" cy="-126.68" fx="290.05" fy="-126.68" gradientTransform="matrix(.16694083 .98596692 -.98596692 .16694083 494.11 142.25)" r="2.37" xlink:href="#c"/><radialGradient id="K" cx="310.12" cy="29.15" fx="310.12" fy="29.15" gradientTransform="matrix(.16694083 .98596692 -.98596692 .16694083 494.11 142.25)" r="4.22" xlink:href="#c"/><radialGradient id="L" cx="302.02" cy="16.07" fx="302.02" fy="16.07" gradientTransform="matrix(.16694083 .98596692 -.98596692 .16694083 494.11 142.25)" r="2.37" xlink:href="#c"/><radialGradient id="M" cx="387.76" cy="337.32" fx="387.76" fy="337.32" gradientUnits="userSpaceOnUse" r="29.83"><stop offset="0" stop-color="#fcea10"/><stop offset="0" stop-color="#fff" stop-opacity=".94"/><stop offset="1" stop-color="#fff" stop-opacity="0"/></radialGradient><radialGradient id="N" cx="166.96" cy="18.44" fx="166.96" fy="18.44" r="18.44" xlink:href="#M"/><radialGradient id="O" cx="130.07" cy="388.94" fx="130.07" fy="388.94" r="18.44" xlink:href="#M"/><radialGradient id="P" cx="542.41" cy="554.19" fx="542.41" fy="554.19" r="18.44" xlink:href="#M"/><path d="m486.72 417.79 26.72 18.3-190.79 355.82-98.67-67.56z" fill="url(#a)"/><path d="m485.06 426.78 19.13 8.08-200.2 335.52-70.61-29.83z" fill="url(#b)"/><circle cx="426.14" cy="579.97" fill="url(#c)" r="5.81"/><circle cx="348.68" cy="599.94" fill="url(#d)" r="4.36"/><circle cx="363.98" cy="672.6" fill="url(#e)" r="4.36"/><circle cx="404.85" cy="588.3" fill="url(#f)" r="4.36"/><circle cx="378.85" cy="554.13" fill="#fff" r="4.36"/><circle cx="330.57" cy="721.5" fill="#fff" r="3.27"/><circle cx="383.4" cy="630.66" fill="#fff" r="4.36"/><circle cx="361.3" cy="640.65" fill="#fff" r="3.27"/><circle cx="404.47" cy="568.32" fill="#fff" r="3.27"/><circle cx="378.26" cy="583.88" fill="#fff" r="3.27"/><circle cx="303.13" cy="658.68" fill="#fff" r="3.27"/><path d="m493.13 425.67 29.4 35.33-398.28 411.95-108.57-130.45z" fill="url(#g)"/><path d="m487.39 437.3 22.98 18.44-403.26 380.6-84.86-68.08z" fill="url(#h)"/><circle cx="347.61" cy="623.65" fill="url(#i)" r="8.25"/><circle cx="234.12" cy="620.92" fill="url(#j)" r="6.19"/><circle cx="226.87" cy="726.06" fill="url(#k)" r="6.19"/><circle cx="315.32" cy="626.77" fill="url(#l)" r="6.19"/><circle cx="293.05" cy="570.05" fill="#fff" r="6.19"/><circle cx="162.32" cy="779.88" fill="#fff" r="4.64"/><circle cx="269.63" cy="676.3" fill="#fff" r="6.19"/><circle cx="235.58" cy="681.4" fill="#fff" r="4.64"/><circle cx="322.54" cy="599.35" fill="#fff" r="4.64"/><circle cx="280.73" cy="610.45" fill="#fff" r="4.64"/><circle cx="149.18" cy="683.48" fill="#fff" r="4.64"/><ellipse cx="476.33" cy="465.97" fill="url(#m)" rx="342.53" ry="564.81" transform="matrix(.68987229 -.72393109 .72393109 .68987229 -189.6 489.35)"/><path d="m51.63 457.41c-1.53 0-2.99-.88-3.65-2.37-33.32-74.59-49.85-148.51-47.81-213.76 2.12-67.74 24.38-125.74 64.38-167.71 35.38-37.13 82.39-60.51 139.72-69.49 55.11-8.63 116.62-3.54 182.8 15.14 2.13.6 3.36 2.81 2.76 4.94s-2.81 3.36-4.94 2.76c-64.14-18.11-126.18-23.27-179.38-14.94-55.55 8.7-101.02 31.28-135.16 67.1-77.4 81.22-83.03 220.55-15.07 372.69.9 2.02 0 4.38-2.02 5.28-.53.24-1.08.35-1.63.35z" fill="#69c6e3"/><path d="m616.02 141.63c-.81 0-1.63-.25-2.34-.76-37.68-27.17-76.79-50.81-116.24-70.26-1.98-.98-2.8-3.37-1.82-5.36.98-1.98 3.38-2.8 5.36-1.82 39.85 19.64 79.34 43.51 117.38 70.94 1.79 1.29 2.2 3.79.91 5.58-.78 1.08-2.01 1.66-3.25 1.66z" fill="#b9e1ee"/><path d="m943.73 622.35c-1.94 0-3.64-1.41-3.95-3.38-7.27-46.62-22.42-95.28-45.04-144.64-23.02-50.24-53.19-99.9-89.67-147.58-1.34-1.75-1.01-4.27.75-5.61 1.75-1.34 4.27-1.01 5.61.75 36.84 48.15 67.32 98.32 90.59 149.1 22.92 50.03 38.29 99.4 45.67 146.74.34 2.18-1.15 4.23-3.34 4.57-.21.03-.42.05-.62.05z" fill="#b9e1ee"/><path d="m694.92 931.89c-12.04 0-24.36-.57-36.95-1.7-2.2-.2-3.82-2.14-3.62-4.34s2.14-3.82 4.34-3.62c46.24 4.17 88.74.52 126.32-10.83 38.71-11.7 71.45-31.39 97.32-58.54 22.12-23.21 38.63-51.32 49.06-83.54.68-2.1 2.94-3.25 5.04-2.57s3.25 2.94 2.57 5.04c-10.8 33.37-27.92 62.51-50.88 86.6-26.83 28.16-60.74 48.57-100.79 60.67-28.29 8.55-59.25 12.85-92.4 12.85z" fill="#69c6e3"/><path d="m439.12 861.65c-.62 0-1.25-.15-1.84-.45-70.79-36.78-138.08-85.35-200.01-144.36-17.84-17-35.13-34.81-51.38-52.94-1.47-1.64-1.34-4.17.31-5.65 1.65-1.47 4.17-1.34 5.65.31 16.11 17.97 33.25 35.63 50.94 52.49 61.38 58.49 128.06 106.62 198.18 143.05 1.96 1.02 2.72 3.43 1.71 5.39-.71 1.37-2.11 2.16-3.55 2.16z" fill="#b9e1ee"/><path d="m203.41 47.89c-1.36 0-2.59-.93-2.92-2.3-.38-1.61.61-3.23 2.22-3.61 35.9-8.57 75.92-10.24 118.95-4.94 1.64.2 2.81 1.7 2.61 3.34s-1.7 2.81-3.34 2.61c-42.31-5.2-81.62-3.58-116.82 4.82-.23.06-.47.08-.7.08z" fill="#1279bf"/><path d="m542.04 121.98c-.51 0-1.03-.13-1.5-.41-50.45-29.3-101.47-51.15-151.65-64.95-1.6-.44-2.54-2.09-2.1-3.69s2.09-2.54 3.69-2.1c50.68 13.93 102.18 35.99 153.07 65.54 1.43.83 1.92 2.67 1.09 4.1-.56.96-1.56 1.49-2.6 1.49z" fill="#1279bf"/><path d="m915.87 644.9c-1.56 0-2.88-1.21-2.99-2.79-3.5-50.98-17.83-105.14-42.61-160.98-.67-1.51.01-3.29 1.53-3.96 1.51-.67 3.29.01 3.96 1.53 25.06 56.48 39.56 111.32 43.11 163 .11 1.65-1.13 3.08-2.79 3.2-.07 0-.14 0-.21 0z" fill="#1279bf"/><path d="m680.84 899.62c-12.6 0-25.56-.67-38.86-2.01-1.65-.17-2.85-1.64-2.68-3.29s1.64-2.85 3.29-2.68c54.63 5.5 103.28-.48 144.6-17.79 1.53-.64 3.29.08 3.93 1.61s-.08 3.29-1.61 3.93c-32.15 13.47-68.57 20.24-108.66 20.24z" fill="#1279bf"/><path d="m476.33 850.65c-.41 0-.83-.09-1.24-.27-30.68-13.88-61.41-30.59-91.34-49.66-1.4-.89-1.81-2.74-.92-4.14s2.74-1.81 4.14-.92c29.69 18.92 60.17 35.49 90.59 49.25 1.51.68 2.18 2.46 1.5 3.97-.5 1.11-1.59 1.76-2.73 1.76z" fill="#1279bf"/><path d="m308.73 745.8c-.67 0-1.33-.22-1.89-.67-17.6-14.31-34.95-29.59-51.57-45.43-12.37-11.79-24.5-24.04-36.06-36.42-1.13-1.21-1.07-3.11.15-4.24 1.21-1.13 3.11-1.07 4.24.15 11.48 12.3 23.53 24.47 35.82 36.18 16.51 15.73 33.74 30.91 51.21 45.12 1.29 1.05 1.48 2.93.44 4.22-.59.73-1.46 1.11-2.33 1.11z" fill="#1279bf"/><path d="m89.56 474.34c-1.12 0-2.19-.63-2.71-1.7-22.8-47.41-38.36-94.35-46.25-139.51-.28-1.63.81-3.19 2.44-3.47s3.19.81 3.47 2.44c7.79 44.62 23.18 91.03 45.74 137.94.72 1.49.09 3.29-1.4 4-.42.2-.86.3-1.3.3z" fill="#1279bf"/><path d="m39.34 304.45c-1.53 0-2.84-1.16-2.98-2.72-7.83-82.36 12.31-151.36 58.23-199.55 7.61-7.99 15.96-15.41 24.82-22.05 1.33-.99 3.21-.73 4.2.6s.73 3.21-.6 4.2c-8.59 6.44-16.69 13.64-24.07 21.39-44.69 46.89-64.26 114.27-56.6 194.84.16 1.65-1.05 3.11-2.7 3.27-.1 0-.19.01-.29.01z" fill="#1279bf"/><path d="m686.95 444.29c-6.04 0-11.92-3.06-15.29-8.59-21.48-35.32-48.58-68.67-80.53-99.11-31.39-29.91-65.38-55.03-101.02-74.65-8.65-4.76-11.8-15.63-7.04-24.28s15.63-11.8 24.28-7.04c38.34 21.1 74.83 48.05 108.45 80.09 34.22 32.61 63.3 68.42 86.41 106.42 5.13 8.44 2.45 19.43-5.98 24.56-2.9 1.77-6.11 2.61-9.27 2.61z" fill="#00abe9"/><path d="m661.54 735.62c-6.9 0-13.47-4.01-16.4-10.74-3.94-9.05.2-19.59 9.25-23.53 13.57-5.91 25.38-14.09 35.12-24.31 19.96-20.95 30.52-49.21 31.4-84 .56-22.18-2.93-46.21-10.37-71.42-2.8-9.47 2.61-19.41 12.08-22.21s19.41 2.61 22.21 12.08c8.5 28.79 12.48 56.53 11.82 82.44-1.09 43.32-15.36 80.58-41.26 107.76-13.04 13.69-28.76 24.59-46.72 32.42-2.32 1.01-4.75 1.49-7.13 1.49z" fill="#00abe9"/><path d="m502.15 732.33c-1.91 0-3.85-.31-5.76-.96-49.81-16.96-100.37-45.87-146.2-83.59-7.62-6.28-8.72-17.54-2.44-25.16 6.27-7.62 17.54-8.71 25.16-2.44 42.54 35.02 89.22 61.77 135 77.35 9.35 3.18 14.34 13.34 11.16 22.69-2.53 7.44-9.48 12.12-16.92 12.12z" fill="#00abe9"/><path d="m263.6 545.84c-5.68 0-11.26-2.7-14.72-7.72-38.42-55.61-61.99-113.58-68.17-167.65-6.59-57.66 7.15-106.22 39.74-140.43 13.11-13.76 28.93-24.71 47-32.54 9.06-3.93 19.59.23 23.51 9.29 3.93 9.06-.23 19.59-9.29 23.51-13.66 5.92-25.55 14.13-35.34 24.4-25.04 26.28-35.45 64.91-30.1 111.7 5.44 47.56 27.48 101.32 62.07 151.39 5.61 8.12 3.58 19.26-4.55 24.87-3.1 2.14-6.64 3.17-10.15 3.17z" fill="#00abe9"/><path d="m600.74 392.72c-4.31 0-8.59-1.77-11.68-5.23-7.39-8.28-15.26-16.42-23.4-24.18-19.73-18.81-40.94-35.37-63.04-49.22-7.32-4.59-9.53-14.24-4.94-21.56s14.24-9.53 21.56-4.94c23.87 14.97 46.74 32.83 67.99 53.08 8.75 8.34 17.22 17.09 25.17 26.01 5.75 6.45 5.18 16.34-1.27 22.09-2.98 2.66-6.7 3.97-10.4 3.97z" fill="#6b247d"/><path d="m679.56 618.57c-1.47 0-2.96-.21-4.44-.65-8.28-2.45-13.02-11.15-10.57-19.44 7.21-24.38 6.04-54.35-3.36-86.68-2.41-8.3 2.36-16.98 10.65-19.39s16.98 2.36 19.39 10.65c11.08 38.09 12.23 74.16 3.32 104.29-2.01 6.8-8.24 11.21-14.99 11.21z" fill="#6b247d"/><path d="m568.36 693.61c-42.55 0-91.01-14.18-138.76-41.62-7.49-4.3-10.07-13.87-5.77-21.36s13.87-10.07 21.36-5.77c32.25 18.53 65.48 30.78 96.11 35.41 29.74 4.5 56.52 1.74 77.46-7.99 7.83-3.64 17.14-.24 20.78 7.59s.24 17.14-7.59 20.78c-18.69 8.68-40.25 12.95-63.58 12.95z" fill="#6b247d"/><path d="m374.48 609.14c-3.63 0-7.28-1.26-10.24-3.82-5.29-4.58-10.55-9.37-15.64-14.22-43.35-41.31-76.42-89.01-95.62-137.94-3.16-8.04.81-17.12 8.85-20.28s17.12.81 20.28 8.85c17.54 44.71 48 88.53 88.08 126.72 4.74 4.52 9.64 8.97 14.55 13.23 6.53 5.66 7.23 15.54 1.57 22.07-3.09 3.57-7.45 5.4-11.83 5.4z" fill="#6b247d"/><path d="m251.49 396.8c-8.09 0-14.94-6.23-15.58-14.43-3.39-43.38 7.98-80.12 32.88-106.25 11.83-12.42 26.32-21.97 43.07-28.4 8.07-3.1 17.11.93 20.21 9s-.93 17.11-9 20.21c-12.39 4.76-23.03 11.75-31.64 20.78-18.6 19.52-27.02 47.95-24.34 82.23.67 8.61-5.76 16.14-14.38 16.81-.41.03-.83.05-1.24.05z" fill="#6b247d"/><path d="m574.28 522.84c-4.93 0-8.93-3.99-8.94-8.93-.04-30.5-19.34-67.83-50.38-97.4-11.52-10.98-23.98-20.32-37.02-27.76-4.29-2.45-5.78-7.9-3.34-12.19 2.45-4.29 7.9-5.78 12.19-3.34 14.3 8.15 27.92 18.36 40.5 30.34 34.97 33.33 55.88 74.57 55.92 110.32 0 4.94-3.99 8.94-8.93 8.95h-.01z" fill="#f08316"/><path d="m488.37 417.85c-1.74 0-3.5-.51-5.04-1.56-18.9-12.94-39.11-19.72-55.45-18.62-4.93.33-9.19-3.39-9.52-8.31-.33-4.93 3.39-9.19 8.31-9.52 20.28-1.37 44.61 6.54 66.76 21.7 4.07 2.79 5.11 8.35 2.33 12.43-1.73 2.53-4.53 3.89-7.38 3.89z" fill="#f7cc2b"/><path d="m536.32 540c-2.22 0-4.43-.82-6.17-2.47-3.57-3.41-3.71-9.06-.3-12.64 7.73-8.12 8.61-19.41 7.98-27.46-.38-4.92 3.29-9.22 8.22-9.61 4.93-.38 9.22 3.29 9.61 8.22 1.31 16.74-3.14 30.99-12.86 41.19-1.76 1.84-4.11 2.77-6.47 2.77z" fill="#f7cc2b"/><circle cx="471.6" cy="463.61" fill="url(#n)" r="81.13"/><g fill="#fff"><path d="m259.2 202.25c-7.16 0-13.92-4.34-16.67-11.42-3.57-9.2 1-19.56 10.2-23.13 20.38-7.91 43.15-12.34 67.68-13.17 9.87-.33 18.14 7.39 18.47 17.26.34 9.87-7.39 18.14-17.26 18.47-20.51.7-39.34 4.32-55.96 10.77-2.12.82-4.31 1.22-6.46 1.22z"/><path d="m499.24 238.86c-2.88 0-5.8-.7-8.5-2.16-34.64-18.78-69.25-32.12-102.89-39.66-9.63-2.16-15.69-11.72-13.54-21.35 2.16-9.63 11.72-15.7 21.35-13.54 36.85 8.26 74.57 22.76 112.11 43.11 8.68 4.71 11.9 15.56 7.2 24.24-3.24 5.97-9.39 9.36-15.73 9.36z"/><path d="m728.75 472.53c-6.53 0-12.82-3.59-15.97-9.81-9.16-18.11-19.94-36.23-32.02-53.87-5.58-8.15-3.5-19.27 4.64-24.85 8.15-5.58 19.27-3.5 24.85 4.64 12.97 18.93 24.55 38.42 34.42 57.93 4.46 8.81.93 19.57-7.88 24.02-2.59 1.31-5.34 1.93-8.06 1.93z"/><path d="m741.69 714.26c-3.46 0-6.96-1-10.04-3.1-8.16-5.55-10.28-16.67-4.73-24.84 12.36-18.18 19.91-40.17 22.43-65.37.98-9.82 9.74-16.99 19.57-16.01 9.82.98 16.99 9.74 16.01 19.57-3.12 31.2-12.69 58.76-28.44 81.92-3.46 5.09-9.08 7.83-14.8 7.83z"/><path d="m610.32 777.35c-9.75 0-17.73-7.83-17.87-17.62-.14-9.87 7.74-17.99 17.61-18.14 4.52-.07 9.03-.28 13.39-.62 9.84-.78 18.45 6.57 19.23 16.41s-6.57 18.45-16.41 19.23c-5.13.41-10.41.65-15.69.73-.09 0-.18 0-.27 0z"/><path d="m555.86 772.46c-1.09 0-2.19-.1-3.29-.31-19.36-3.6-39.33-9.08-59.36-16.29-9.29-3.34-14.11-13.58-10.77-22.87s13.58-14.11 22.87-10.77c18.23 6.56 36.33 11.53 53.8 14.79 9.71 1.81 16.11 11.14 14.3 20.85-1.6 8.6-9.11 14.61-17.56 14.61z"/><path d="m286.4 609.21c-4.88 0-9.75-1.99-13.28-5.9-20.99-23.27-39.89-47.88-56.15-73.16-5.34-8.3-2.94-19.36 5.36-24.71 8.3-5.34 19.37-2.94 24.71 5.36 15.22 23.66 32.93 46.72 52.63 68.56 6.61 7.33 6.03 18.64-1.3 25.25-3.42 3.08-7.7 4.6-11.97 4.6z"/><path d="m182.37 435.18c-7.57 0-14.6-4.84-17.02-12.44-13.15-41.12-18-80-14.43-115.57.99-9.82 9.75-16.99 19.57-16s16.99 9.75 16 19.57c-3.08 30.67 1.27 64.69 12.91 101.11 3.01 9.4-2.18 19.47-11.58 22.47-1.81.58-3.64.85-5.45.85z"/><path d="m341.86 299.62c-6.07 0-11.71-3.9-13.63-10-2.38-7.53 1.8-15.57 9.33-17.95 8.39-2.65 17.4-4.47 26.78-5.4 7.86-.78 14.87 4.95 15.65 12.81s-4.95 14.87-12.81 15.65c-7.43.74-14.49 2.16-21 4.21-1.43.45-2.88.67-4.31.67z"/><path d="m467.91 315.15c-1.97 0-3.96-.41-5.87-1.27-19.62-8.84-38.93-14.81-57.4-17.73-7.8-1.23-13.13-8.56-11.89-16.36 1.23-7.8 8.56-13.13 16.36-11.89 20.99 3.32 42.75 10.01 64.69 19.9 7.2 3.25 10.41 11.72 7.16 18.92-2.39 5.29-7.59 8.43-13.05 8.43z"/><path d="m593.63 413.06c-4.12 0-8.22-1.78-11.05-5.21-9-10.92-18.88-21.52-29.35-31.5-9.61-9.16-19.73-17.8-30.08-25.69-6.28-4.79-7.49-13.76-2.71-20.04 4.79-6.28 13.76-7.49 20.04-2.71 11.18 8.52 22.11 17.85 32.48 27.73 11.3 10.77 21.96 22.21 31.69 34.02 5.02 6.1 4.15 15.11-1.94 20.13-2.66 2.2-5.89 3.27-9.09 3.27z"/><path d="m656.49 543.68c-7 0-13.11-5.14-14.14-12.27-3.64-25.33-13.8-52.98-29.39-79.98-3.95-6.84-1.61-15.59 5.23-19.54s15.59-1.61 19.54 5.23c17.39 30.12 28.78 61.31 32.93 90.22 1.12 7.82-4.31 15.07-12.12 16.19-.69.1-1.37.15-2.05.15z"/><path d="m632.62 637.13c-3.55 0-7.1-1.31-9.86-3.95-5.72-5.45-5.94-14.5-.49-20.22 12.15-12.75 19.26-29.6 21.12-50.09.72-7.87 7.67-13.66 15.54-12.94s13.66 7.67 12.94 15.54c-2.43 26.69-12.43 49.94-28.9 67.22-2.81 2.95-6.58 4.44-10.36 4.44z"/><path d="m555.9 666.25c-21.43 0-44.6-4.12-68.58-12.28-7.48-2.55-11.47-10.67-8.93-18.15 2.55-7.48 10.67-11.47 18.15-8.93 33.34 11.35 64.2 13.79 89.26 7.05 7.63-2.05 15.47 2.47 17.53 10.1 2.05 7.63-2.47 15.47-10.1 17.53-11.64 3.13-24.15 4.69-37.33 4.69z"/><path d="m459.66 641.35c-2.11 0-4.25-.47-6.27-1.45-21-10.26-41.58-23.2-61.19-38.47-6.23-4.85-7.35-13.84-2.5-20.07s13.84-7.35 20.07-2.5c18.05 14.05 36.94 25.94 56.17 35.33 7.1 3.47 10.04 12.03 6.57 19.13-2.48 5.08-7.57 8.03-12.86 8.03z"/><path d="m352.32 559.05c-3.92 0-7.82-1.6-10.65-4.75-27.34-30.44-48.9-64.4-62.34-98.19-2.92-7.34.66-15.66 8-18.58s15.66.66 18.58 8c12.21 30.69 31.94 61.69 57.04 89.65 5.28 5.88 4.79 14.92-1.09 20.2-2.73 2.45-6.15 3.66-9.55 3.66z"/><path d="m280.38 423.21c-6.78 0-12.81-4.85-14.06-11.76-7.19-39.76-1.28-74.63 17.09-100.84 4.53-6.47 13.45-8.04 19.92-3.5 6.47 4.53 8.04 13.45 3.5 19.92-13.89 19.82-18.17 47.25-12.36 79.33 1.41 7.77-3.75 15.21-11.53 16.62-.86.16-1.72.23-2.56.23z"/><path d="m589.89 483.45c-3.18 0-6.19-1.9-7.46-5.03-4.04-9.97-9.2-20.02-15.36-29.88-2.35-3.77-1.21-8.73 2.56-11.09 3.77-2.35 8.73-1.21 11.09 2.56 6.65 10.65 12.25 21.54 16.63 32.37 1.67 4.12-.32 8.81-4.44 10.48-.99.4-2.01.59-3.02.59z"/></g><path d="m309.54 430.7c-6.38 0-12.03-4.57-13.19-11.07-5.18-29.17-1.97-55.7 9.3-76.72 3.5-6.53 11.63-8.98 18.15-5.48 6.53 3.5 8.98 11.63 5.48 18.15-8.39 15.65-10.65 36.17-6.53 59.36 1.29 7.29-3.57 14.25-10.86 15.55-.79.14-1.58.21-2.36.21z" fill="#bf1a5d"/><path d="m340.04 337.32c-4.25 0-8.42-2.01-11.03-5.76-4.22-6.08-2.71-14.44 3.37-18.66 30.51-21.18 75.93-23.09 124.62-5.24 6.95 2.55 10.52 10.25 7.97 17.2s-10.25 10.52-17.2 7.97c-40.38-14.8-76.86-14.04-100.1 2.09-2.33 1.62-5 2.39-7.63 2.39z" fill="#bf1a5d"/><path d="m584.37 435.94c-4.13 0-8.2-1.9-10.82-5.48-10.09-13.77-21.71-26.95-34.54-39.17-18.84-17.95-39.25-32.94-60.65-44.56-6.51-3.53-8.92-11.67-5.39-18.18s11.67-8.92 18.18-5.39c23.48 12.74 45.81 29.13 66.36 48.71 13.97 13.31 26.64 27.69 37.67 42.73 4.38 5.97 3.09 14.36-2.89 18.74-2.39 1.75-5.17 2.6-7.92 2.6z" fill="#bf1a5d"/><path d="m548.95 636.14c-7.07 0-12.99-5.53-13.38-12.68-.4-7.39 5.26-13.71 12.66-14.12 20.78-1.13 37.26-7.94 48.98-20.25 10.32-10.83 16.24-25.25 17.58-42.86.56-7.38 7-12.91 14.39-12.35 7.38.56 12.91 7.01 12.35 14.39-1.8 23.6-10.41 44.11-24.91 59.32-16.36 17.17-39.51 27.03-66.94 28.53-.25.01-.5.02-.74.02z" fill="#bf1a5d"/><path d="m488.38 626.67c-1.43 0-2.88-.23-4.31-.72-31.99-10.86-64.21-29.78-93.17-54.69-5.61-4.83-6.25-13.3-1.42-18.91s13.3-6.25 18.91-1.42c26.38 22.7 55.53 39.86 84.3 49.63 7.01 2.38 10.77 10 8.39 17.01-1.9 5.58-7.11 9.1-12.69 9.1z" fill="#bf1a5d"/><path d="m365.69 540.52c-3.78 0-7.53-1.59-10.18-4.68-22.49-26.23-39.89-55.21-50.31-83.81-2.54-6.96 1.05-14.65 8.01-17.19s14.65 1.05 17.19 8.01c9.33 25.61 25.05 51.72 45.47 75.53 4.82 5.62 4.17 14.09-1.45 18.91-2.53 2.17-5.63 3.23-8.72 3.23z" fill="#bf1a5d"/><path d="m368.84 463.59c-3.62 0-7.03-2.22-8.38-5.82-13.03-34.92-9.78-66.19 8.91-85.81 11.65-12.23 28.34-18.81 48.27-19.04 4.93-.07 8.98 3.9 9.04 8.84s-3.9 8.98-8.84 9.04c-14.99.17-27.28 4.84-35.53 13.5-13.79 14.47-15.64 38.97-5.1 67.22 1.73 4.63-.62 9.77-5.25 11.5-1.03.38-2.09.57-3.12.57z" fill="#f08316"/><path d="m517.08 578.83c-5.24 0-10.69-.44-16.31-1.32-4.88-.77-8.21-5.34-7.44-10.22s5.34-8.21 10.22-7.44c21.41 3.36 39.16-1.04 49.99-12.4 3.41-3.57 9.06-3.71 12.64-.3 3.57 3.41 3.71 9.06.3 12.64-11.91 12.5-29.1 19.04-49.39 19.04z" fill="#f08316"/><path d="m476.64 570.71c-1.05 0-2.13-.19-3.17-.58-22.75-8.63-45.2-23.13-64.93-41.93-9.4-8.96-17.91-18.64-25.3-28.78-2.91-3.99-2.03-9.58 1.96-12.49s9.58-2.03 12.49 1.96c6.76 9.27 14.56 18.14 23.19 26.37 18.02 17.17 38.4 30.37 58.94 38.16 4.62 1.75 6.94 6.91 5.19 11.53-1.36 3.57-4.75 5.77-8.36 5.77z" fill="#f08316"/><path d="m534.36 404.2c-1.99 0-3.99-.74-5.55-2.22-31.28-29.81-68.79-50.29-102.91-56.19-4.38-.76-7.31-4.92-6.56-9.3.76-4.38 4.92-7.31 9.3-6.56 37.19 6.43 77.74 28.45 111.27 60.4 3.22 3.07 3.34 8.16.27 11.37-1.58 1.66-3.7 2.5-5.83 2.5z" fill="#fff"/><path d="m557.07 599.6c-3.37 0-6.5-2.13-7.63-5.5-1.41-4.21.87-8.77 5.08-10.18 8.93-2.98 16.52-7.71 22.55-14.03 12.38-12.99 17.56-32.05 14.98-55.1-.5-4.42 2.68-8.4 7.1-8.89 4.42-.5 8.4 2.68 8.89 7.1 3.13 27.93-3.55 51.44-19.32 67.99-7.86 8.25-17.65 14.37-29.1 18.19-.85.28-1.71.42-2.55.42z" fill="#fff"/><path d="m452.38 581.34c-1.32 0-2.65-.32-3.89-1.01-18.58-10.28-36.27-23.37-52.57-38.91-24.64-23.48-43.98-50.6-55.92-78.41-1.75-4.08.14-8.81 4.22-10.57 4.08-1.75 8.81.14 10.57 4.22 11.09 25.84 29.15 51.12 52.23 73.11 15.31 14.59 31.88 26.86 49.26 36.47 3.89 2.15 5.3 7.05 3.14 10.93-1.47 2.65-4.21 4.15-7.05 4.15z" fill="#fff"/><path d="m336.41 430.58c-3.91 0-7.34-2.86-7.94-6.84-4.51-29.7 2.12-55.61 18.66-72.97 3.06-3.22 8.16-3.34 11.37-.27 3.22 3.07 3.34 8.16.27 11.37-9.22 9.67-19.2 27.84-14.4 59.46.67 4.39-2.35 8.49-6.75 9.16-.41.06-.82.09-1.22.09z" fill="#fff"/><path d="m498.73 551.84c-.25 0-.51-.01-.77-.03-25.05-2.13-52.65-15.97-75.74-37.98-31.71-30.22-47.94-69.92-40.4-98.8 1.25-4.78 6.13-7.64 10.91-6.39s7.64 6.13 6.39 10.91c-5.86 22.43 8.72 55.87 35.44 81.34 19.9 18.96 44.17 31.34 64.92 33.1 4.92.42 8.57 4.75 8.15 9.66-.4 4.66-4.3 8.18-8.9 8.18z" fill="#f7cc2b"/><path d="m386.63 174.41c-2.03 0-4.08-.23-6.14-.71-20.37-4.77-40.2-7.51-58.93-8.15-14.8-.5-26.39-12.91-25.89-27.71s12.91-26.39 27.71-25.89c22.23.75 45.56 3.96 69.34 9.53 14.42 3.38 23.37 17.8 19.99 32.22-2.9 12.36-13.91 20.71-26.09 20.71z" fill="#5ab992"/><path d="m624.86 307.21c-6.46 0-12.93-2.32-18.07-7.01-32.73-29.89-67.77-55.69-104.14-76.69-12.83-7.41-17.22-23.81-9.81-36.63 7.41-12.83 23.81-17.22 36.63-9.81 39.72 22.93 77.9 51.03 113.49 83.53 10.94 9.99 11.71 26.95 1.72 37.88-5.29 5.79-12.54 8.74-19.81 8.74z" fill="#5ab992"/><path d="m802.17 629.77c-14.14 0-25.97-11.06-26.75-25.35-2.08-37.85-13.42-80.22-32.78-122.52-6.17-13.47-.25-29.38 13.22-35.55s29.38-.25 35.55 13.22c22.45 49.04 35.09 96.78 37.57 141.91.81 14.79-10.52 27.43-25.31 28.25-.5.03-1 .04-1.49.04z" fill="#5ab992"/><path d="m622.88 820c-10.34 0-20.94-.54-31.78-1.63-14.74-1.48-25.49-14.62-24.01-29.36s14.62-25.48 29.36-24.01c33.82 3.39 64.15.45 90.14-8.73 13.96-4.94 29.28 2.38 34.22 16.35 4.94 13.96-2.38 29.28-16.35 34.22-24.78 8.76-52.12 13.16-81.57 13.16z" fill="#5ab992"/><path d="m387.75 738.4c-5.11 0-10.27-1.46-14.84-4.5-31.77-21.16-62.36-45.69-90.93-72.91-3.37-3.21-6.74-6.49-10.04-9.76-10.51-10.43-10.58-27.41-.15-37.92s27.41-10.58 37.92-.15c3.04 3.02 6.16 6.05 9.27 9.01 26.32 25.08 54.47 47.66 83.66 67.1 12.33 8.21 15.66 24.86 7.46 37.18-5.17 7.76-13.67 11.95-22.34 11.95z" fill="#5ab992"/><path d="m228.86 587.92c-8.16 0-16.22-3.71-21.49-10.75-29.69-39.67-53.45-80.95-70.63-122.69-5.64-13.7.9-29.37 14.6-35 13.7-5.64 29.37.9 35 14.6 15.46 37.57 36.98 74.9 63.97 110.96 8.87 11.86 6.46 28.66-5.4 37.54-4.82 3.61-10.46 5.35-16.05 5.35z" fill="#5ab992"/><path d="m150.46 257.36c-3.81 0-7.67-.81-11.35-2.54-13.41-6.28-19.2-22.24-12.92-35.66 8.34-17.81 19.31-33.92 32.6-47.87 24.71-25.93 56.38-43.67 94.14-52.73 14.4-3.46 28.88 5.42 32.33 19.82 3.46 14.4-5.42 28.88-19.82 32.33-27.55 6.61-50.37 19.26-67.83 37.58-9.29 9.75-16.98 21.05-22.85 33.61-4.56 9.74-14.22 15.45-24.3 15.45z" fill="#5ab992"/><path d="m493.71 474.12-26.11-37.82 433.61-374.58 96.43 139.65z" fill="url(#o)"/><path d="m482.11 467.87-21.24-20.42 435.77-342.91 78.41 75.4z" fill="url(#p)"/><circle cx="677.49" cy="285.09" fill="url(#q)" r="8.25"/><circle cx="598.64" cy="401.25" fill="url(#r)" r="6.19"/><circle cx="600.8" cy="355.07" fill="url(#s)" r="6.19"/><circle cx="819.7" cy="274.98" fill="url(#t)" r="4.64"/><circle cx="552.02" cy="426.19" fill="url(#u)" r="8.25"/><circle cx="569.77" cy="401.86" fill="url(#v)" r="4.64"/><circle cx="539.39" cy="388.94" fill="#fff" r="6.19"/><circle cx="667.35" cy="316.88" fill="#fff" r="4.64"/><circle cx="659" cy="366.21" fill="#fff" r="8.25"/><circle cx="562.33" cy="379.61" fill="#fff" r="8.25"/><circle cx="726.56" cy="303.94" fill="#fff" r="6.19"/><circle cx="742.17" cy="242.33" fill="#fff" r="4.64"/><circle cx="627.42" cy="362.06" fill="#fff" r="4.64"/><circle cx="623.94" cy="315.77" fill="#fff" r="4.64"/><circle cx="802.73" cy="176.52" fill="#fff" r="4.64"/><path d="m481.62 470.87-28.34-15.66 155.96-372.4 104.67 57.83z" fill="url(#w)"/><path d="m472.34 470.56-19.81-6.21 167.27-353.1 73.13 22.96z" fill="url(#x)"/><circle cx="538.22" cy="293.93" fill="url(#y)" r="5.81"/><circle cx="524.94" cy="391.96" fill="url(#z)" r="4.36"/><circle cx="511.81" cy="362.15" fill="url(#A)" r="4.36"/><circle cx="624.76" cy="242.92" fill="url(#B)" r="3.27"/><circle cx="503.36" cy="422.33" fill="url(#C)" r="5.81"/><circle cx="506.92" cy="401.41" fill="url(#D)" r="3.27"/><circle cx="483.7" cy="402.79" fill="#fff" r="4.36"/><circle cx="541.8" cy="317.17" fill="#fff" r="3.27"/><circle cx="552.02" cy="350.91" fill="#fff" r="5.81"/><circle cx="495.25" cy="389.71" fill="#fff" r="5.81"/><circle cx="575.09" cy="290.42" fill="#fff" r="4.36"/><circle cx="565.61" cy="246.66" fill="#fff" r="3.27"/><circle cx="530.8" cy="358.21" fill="#fff" r="3.27"/><circle cx="514.07" cy="330.1" fill="#fff" r="3.27"/><circle cx="583.15" cy="186.13" fill="#fff" r="3.27"/><path d="m482.72 470.34-8.84-21.76 257.82-138.86 32.64 80.36z" fill="url(#E)"/><path d="m477.63 465.93-8.34-12.54 255.39-122.81 30.77 46.3z" fill="url(#F)"/><circle cx="595.35" cy="396.38" fill="url(#G)" r="4.22"/><circle cx="543.14" cy="445.6" fill="url(#H)" r="3.16"/><circle cx="549.34" cy="422.8" fill="url(#I)" r="3.16"/><circle cx="667.42" cy="407.09" fill="url(#J)" r="2.37"/><circle cx="517.12" cy="452.88" fill="url(#K)" r="4.22"/><circle cx="528.67" cy="442.71" fill="url(#L)" r="2.37"/><circle cx="514.95" cy="432.9" fill="#fff" r="3.16"/><circle cx="586.77" cy="411.12" fill="#fff" r="2.37"/><circle cx="577.14" cy="434.81" fill="#fff" r="4.22"/><circle cx="527.42" cy="430.79" fill="#fff" r="4.22"/><circle cx="617.74" cy="411.22" fill="#fff" r="3.16"/><circle cx="632.35" cy="382.22" fill="#fff" r="2.37"/><circle cx="561.84" cy="429.24" fill="#fff" r="2.37"/><circle cx="565.23" cy="405.76" fill="#fff" r="2.37"/><circle cx="669.86" cy="356.09" fill="#fff" r="2.37"/><path d="m410.8 337.32-7.43 2.09c-6.56 1.84-11.68 6.97-13.53 13.53l-2.09 7.43-2.1-7.44c-1.85-6.55-6.96-11.67-13.51-13.51l-7.44-2.1 7.43-2.09c6.56-1.84 11.68-6.97 13.53-13.53l2.09-7.43 2.1 7.44c1.85 6.55 6.96 11.67 13.51 13.51z" fill="#fff"/><circle cx="387.76" cy="337.32" fill="url(#M)" r="29.83"/><path d="m182.95 18.44-5.15 1.45c-4.55 1.28-8.11 4.84-9.39 9.39l-1.45 5.15-1.46-5.16c-1.28-4.54-4.83-8.09-9.37-9.37l-5.16-1.46 5.15-1.45c4.55-1.28 8.11-4.84 9.39-9.39l1.45-5.15 1.46 5.16c1.28 4.54 4.83 8.09 9.37 9.37z" fill="#fff"/><circle cx="166.96" cy="18.44" fill="url(#N)" r="18.44"/><path d="m146.06 388.94-5.15 1.45c-4.55 1.28-8.11 4.84-9.39 9.39l-1.45 5.15-1.46-5.16c-1.28-4.54-4.83-8.09-9.37-9.37l-5.16-1.46 5.15-1.45c4.55-1.28 8.11-4.84 9.39-9.39l1.45-5.15 1.46 5.16c1.28 4.54 4.83 8.09 9.37 9.37z" fill="#fff"/><circle cx="130.07" cy="388.94" fill="url(#O)" r="18.44"/><path d="m558.4 554.19-5.15 1.45c-4.55 1.28-8.11 4.84-9.39 9.39l-1.45 5.15-1.46-5.16c-1.28-4.54-4.83-8.09-9.37-9.37l-5.16-1.46 5.15-1.45c4.55-1.28 8.11-4.84 9.39-9.39l1.45-5.15 1.46 5.16c1.28 4.54 4.83 8.09 9.37 9.37z" fill="#fff"/><circle cx="542.41" cy="554.19" fill="url(#P)" r="18.44"/></svg>