<?xml version="1.0" encoding="UTF-8"?>
<svg id="Ebene_2" xmlns="http://www.w3.org/2000/svg" xmlns:xlink="http://www.w3.org/1999/xlink" viewBox="0 0 903.82 903.82">
    <defs>
        <style>
            .WD_circle_white{fill:#fff;opacity:.75;}

            .WD_outer_blur{fill:url(#wd_outer_blur);}

            .WD_inner_blur{fill:url(#wd_inner_blur);}

            .WD_hollow_shine{fill:url(#wd_hollow_shine);}
            .WD_hollow_shine-2{fill:url(#wd_hollow_shine-2);}
            .WD_hollow_shine-3{fill:url(#wd_hollow_shine-3);}
            .WD_hollow_shine-4{fill:url(#wd_hollow_shine-4);}

            .WD_texture_circle{fill:url(#wd_texture_circle);}
            .WD_texture_circle-2{fill:url(#wd_texture_circle-2);}
            .WD_texture_circle-3{fill:url(#wd_texture_circle-3);}
            .WD_texture_circle-4{fill:url(#wd_texture_circle-4);}
            .WD_texture_circle-5{fill:url(#wd_texture_circle-5);}
            .WD_texture_circle-6{fill:url(#wd_texture_circle-6);}
            .WD_texture_circle-7{fill:url(#wd_texture_circle-7);}
            .WD_texture_circle-8{fill:url(#wd_texture_circle-8);}
        </style>
        <radialGradient id="wd_outer_blur" cx="443.11" cy="433.99" fx="443.11" fy="433.99" r="421.8" gradientTransform="matrix(1, 0, 0, 1, 0, 0)" gradientUnits="userSpaceOnUse">
            <stop offset=".76" stop-color="#70c4c4"/>
            <stop offset="1" stop-color="#9fd5d5" stop-opacity="0"/>
        </radialGradient>

        <radialGradient id="wd_inner_blur" cx="1081.04" cy="-273.86" fx="1081.04" fy="-273.86" r="321.73" gradientTransform="translate(-649.72 657.26) rotate(2.72)" gradientUnits="userSpaceOnUse">
            <stop offset="0" stop-color="#70c4c4"/>
            <stop offset="1" stop-color="#fff" stop-opacity=".8"/>
        </radialGradient>

        <radialGradient id="wd_hollow_shine" cx="337.47" cy="566.35" fx="337.47" fy="566.35" r="337.47" gradientTransform="matrix(1, 0, 0, 1, 0, 0)" gradientUnits="userSpaceOnUse">
            <stop offset=".81" stop-color="#70c4c4" stop-opacity="0"/>
            <stop offset=".9" stop-color="#70c4c4" stop-opacity=".3"/>
            <stop offset="1" stop-color="#70c4c4" stop-opacity="0"/>
        </radialGradient>
        <radialGradient id="wd_hollow_shine-2" cx="381.82" cy="522" fx="381.82" fy="522" xlink:href="#wd_hollow_shine"/>
        <radialGradient id="wd_hollow_shine-3" cx="566.35" cy="337.47" fx="566.35" fy="337.47" r="337.47" xlink:href="#wd_hollow_shine"/>
        <radialGradient id="wd_hollow_shine-4" cx="528.56" cy="375.26" fx="528.56" fy="375.26" r="337.47" xlink:href="#wd_hollow_shine"/>

        <radialGradient id="wd_texture_circle" cx="-22570.21" cy="5295.17" fx="-22570.21" fy="5295.17" r="45.29" gradientTransform="translate(183.81 -22982.04) rotate(-77.19)" gradientUnits="userSpaceOnUse">
            <stop offset="0" stop-color="#fff" stop-opacity=".8"/>
            <stop offset="1" stop-color="#fff" stop-opacity="0"/>
        </radialGradient>
        <radialGradient id="wd_texture_circle-2" cx="546.73" cy="435.83" fx="546.73" fy="435.83" r="218.78" gradientTransform="matrix(1, 0, 0, 1, 0, 0)" xlink:href="#wd_texture_circle"/>
        <radialGradient id="wd_texture_circle-3" cx="487.26" cy="270.6" fx="487.26" fy="270.6" r="133.17" gradientTransform="matrix(1, 0, 0, 1, 0, 0)" xlink:href="#wd_texture_circle"/>
        <radialGradient id="wd_texture_circle-4" cx="-19342.24" cy="6854.71" fx="-19342.24" fy="6854.71" r="103.97" gradientTransform="translate(1705.87 -19882.99) rotate(-67.47)" xlink:href="#wd_texture_circle"/>
        <radialGradient id="wd_texture_circle-5" cx="4414.34" cy="-7452.11" fx="4414.34" fy="-7452.11" r="66.58" gradientTransform="translate(-6701.24 5144.32) rotate(27.21)" xlink:href="#wd_texture_circle"/>
        <radialGradient id="wd_texture_circle-6" cx="-19754.52" cy="-29337.01" fx="-19754.52" fy="-29337.01" r="54.15" gradientTransform="translate(-32698.78 -12474.97) rotate(145.37)" xlink:href="#wd_texture_circle"/>
        <radialGradient id="wd_texture_circle-7" cx="-3892.73" cy="-27021.41" fx="-3892.73" fy="-27021.41" r="156.73" gradientTransform="translate(-27007.46 1806.98) rotate(95)" xlink:href="#wd_texture_circle"/>
        <radialGradient id="wd_texture_circle-8" cx="363.28" cy="634.56" fx="363.28" fy="634.56" r="324.02" gradientTransform="matrix(1, 0, 0, 1, 0, 0)" xlink:href="#wd_texture_circle"/>
    </defs>
    <g id="final">
        <g>
            <circle class="WD_circle_white" cx="443.11" cy="435.06" r="338.18"/>

            <circle class="WD_outer_blur" cx="443.11" cy="433.99" r="421.8"/>

            <path class="WD_hollow_shine" d="M337.47,903.82C151.39,903.82,0,752.43,0,566.35S151.39,228.88,337.47,228.88s337.47,151.39,337.47,337.47-151.39,337.47-337.47,337.47Zm0-610.28c-150.43,0-272.81,122.38-272.81,272.82s122.38,272.81,272.81,272.81,272.81-122.38,272.81-272.81-122.38-272.82-272.81-272.82Z"/>
            <path class="WD_hollow_shine-2" d="M381.82,859.47c-186.08,0-337.47-151.39-337.47-337.47S195.74,184.53,381.82,184.53s337.47,151.39,337.47,337.47-151.39,337.47-337.47,337.47Zm0-610.28c-150.43,0-272.81,122.38-272.81,272.82s122.38,272.81,272.81,272.81,272.81-122.38,272.81-272.81-122.38-272.82-272.81-272.82Z"/>
            <path class="WD_hollow_shine-3" d="M566.35,674.94c-186.08,0-337.47-151.39-337.47-337.47S380.27,0,566.35,0s337.47,151.39,337.47,337.47-151.39,337.47-337.47,337.47Zm0-610.28c-150.43,0-272.81,122.38-272.81,272.82s122.38,272.81,272.81,272.81,272.81-122.38,272.81-272.81S716.78,64.65,566.35,64.65Z"/>
            <path class="WD_hollow_shine-4" d="M528.56,712.73c-186.08,0-337.47-151.39-337.47-337.47S342.48,37.79,528.56,37.79s337.47,151.39,337.47,337.47-151.39,337.47-337.47,337.47Zm0-610.28c-150.43,0-272.81,122.38-272.81,272.82s122.38,272.81,272.81,272.81,272.81-122.38,272.81-272.81S678.99,102.44,528.56,102.44Z"/>

            <circle class="WD_inner_blur" cx="443.11" cy="435.06" r="321.73"/>

            <circle class="WD_texture_circle" cx="328.76" cy="187.47" r="26.81"/>
            <circle class="WD_texture_circle-2" cx="593.49" cy="358.37" r="129.49"/>
            <circle class="WD_texture_circle-3" cx="515.72" cy="223.45" r="78.82"/>
            <circle class="WD_texture_circle-4" cx="599.71" cy="574.85" r="61.53"/>
            <circle class="WD_texture_circle-5" cx="655.45" cy="520.79" r="39.41"/>
            <circle class="WD_texture_circle-6" cx="229.85" cy="458.5" r="32.05"/>
            <circle class="WD_texture_circle-7" cx="302.85" cy="323.99" r="92.76"/>
            <circle class="WD_texture_circle-8" cx="432.53" cy="519.84" r="191.77"/>
        </g>
    </g>
</svg>