<?xml version="1.0" encoding="UTF-8"?><svg xmlns="http://www.w3.org/2000/svg" xmlns:xlink="http://www.w3.org/1999/xlink" viewBox="0 0 903.82 903.82"><defs><style>.r{fill:url(#e);}.s{fill:url(#d);}.t{fill:url(#g);}.u{fill:url(#f);}.v{fill:url(#p);}.w{fill:url(#o);}.x{fill:url(#q);}.y{fill:url(#i);}.a`{fill:url(#h);}.aa{fill:url(#k);}.ab{fill:url(#j);}.ac{fill:url(#m);}.ad{fill:url(#l);}.ae{fill:url(#n);}.af{fill:#fff;opacity:.75;}</style><radialGradient id="d" cx="443.11" cy="433.99" fx="443.11" fy="433.99" r="421.8" gradientTransform="matrix(1, 0, 0, 1, 0, 0)" gradientUnits="userSpaceOnUse"><stop offset=".76" stop-color="#70c4c4"/><stop offset="1" stop-color="#9fd5d5" stop-opacity="0"/></radialGradient><radialGradient id="e" cx="337.47" cy="566.35" fx="337.47" fy="566.35" r="337.47" gradientTransform="matrix(1, 0, 0, 1, 0, 0)" gradientUnits="userSpaceOnUse"><stop offset=".81" stop-color="#70c4c4" stop-opacity="0"/><stop offset=".9" stop-color="#70c4c4" stop-opacity=".3"/><stop offset="1" stop-color="#70c4c4" stop-opacity="0"/></radialGradient><radialGradient id="f" cx="381.82" cy="522" fx="381.82" fy="522" xlink:href="#e"/><radialGradient id="g" cx="566.35" cy="337.47" fx="566.35" fy="337.47" r="337.47" xlink:href="#e"/><radialGradient id="h" cx="528.56" cy="375.26" fx="528.56" fy="375.26" r="337.47" xlink:href="#e"/><radialGradient id="i" cx="654.64" cy="314.41" fx="654.64" fy="314.41" r="321.73" gradientTransform="translate(-195.85 89.91) rotate(2.72)" gradientUnits="userSpaceOnUse"><stop offset="0" stop-color="#70c4c4"/><stop offset="1" stop-color="#fff" stop-opacity=".8"/></radialGradient><radialGradient id="j" cx="-4071.18" cy="645.57" fx="-4071.18" fy="645.57" r="45.29" gradientTransform="translate(615.52 -3912.51) rotate(-77.19)" gradientUnits="userSpaceOnUse"><stop offset="0" stop-color="#fff" stop-opacity=".8"/><stop offset="1" stop-color="#fff" stop-opacity="0"/></radialGradient><radialGradient id="k" cx="546.73" cy="435.83" fx="546.73" fy="435.83" r="218.78" gradientTransform="matrix(1, 0, 0, 1, 0, 0)" xlink:href="#j"/><radialGradient id="l" cx="487.26" cy="270.6" fx="487.26" fy="270.6" r="133.17" gradientTransform="matrix(1, 0, 0, 1, 0, 0)" xlink:href="#j"/><radialGradient id="m" cx="-3283.51" cy="1334.95" fx="-3283.51" fy="1334.95" r="103.97" gradientTransform="translate(650.42 -2934.93) rotate(-67.47)" xlink:href="#j"/><radialGradient id="n" cx="1524.18" cy="-865.85" fx="1524.18" fy="-865.85" r="66.58" gradientTransform="translate(-1119.4 608.37) rotate(27.21)" xlink:href="#j"/><radialGradient id="o" cx="-2850.28" cy="-5537.75" fx="-2850.28" fy="-5537.75" r="54.15" gradientTransform="translate(-5264.03 -2500.36) rotate(145.37)" xlink:href="#j"/><radialGradient id="p" cx="101.37" cy="-4833.1" fx="101.37" fy="-4833.1" r="156.73" gradientTransform="translate(-4555.34 -236.73) rotate(95)" xlink:href="#j"/><radialGradient id="q" cx="363.28" cy="634.56" fx="363.28" fy="634.56" r="324.02" gradientTransform="matrix(1, 0, 0, 1, 0, 0)" xlink:href="#j"/></defs><g id="a"/><g id="b"><g id="c"><g><circle class="s" cx="443.11" cy="433.99" r="421.8"/><path class="r" d="M337.47,903.82C151.39,903.82,0,752.43,0,566.35S151.39,228.88,337.47,228.88s337.47,151.39,337.47,337.47-151.39,337.47-337.47,337.47Zm0-610.28c-150.43,0-272.81,122.38-272.81,272.82s122.38,272.81,272.81,272.81,272.81-122.38,272.81-272.81-122.38-272.82-272.81-272.82Z"/><path class="u" d="M381.82,859.47c-186.08,0-337.47-151.39-337.47-337.47S195.74,184.53,381.82,184.53s337.47,151.39,337.47,337.47-151.39,337.47-337.47,337.47Zm0-610.28c-150.43,0-272.81,122.38-272.81,272.82s122.38,272.81,272.81,272.81,272.81-122.38,272.81-272.81-122.38-272.82-272.81-272.82Z"/><path class="t" d="M566.35,674.94c-186.08,0-337.47-151.39-337.47-337.47S380.27,0,566.35,0s337.47,151.39,337.47,337.47-151.39,337.47-337.47,337.47Zm0-610.28c-150.43,0-272.81,122.38-272.81,272.82s122.38,272.81,272.81,272.81,272.81-122.38,272.81-272.81S716.78,64.65,566.35,64.65Z"/><path class="a`" d="M528.56,712.73c-186.08,0-337.47-151.39-337.47-337.47S342.48,37.79,528.56,37.79s337.47,151.39,337.47,337.47-151.39,337.47-337.47,337.47Zm0-610.28c-150.43,0-272.81,122.38-272.81,272.82s122.38,272.81,272.81,272.81,272.81-122.38,272.81-272.81S678.99,102.44,528.56,102.44Z"/><circle class="af" cx="443.11" cy="435.06" r="338.18"/><circle class="y" cx="443.11" cy="435.06" r="321.73"/><circle class="ab" cx="328.76" cy="187.47" r="26.81"/><circle class="aa" cx="593.49" cy="358.37" r="129.49"/><circle class="ad" cx="515.72" cy="223.45" r="78.82"/><circle class="ac" cx="599.71" cy="574.85" r="61.53"/><circle class="ae" cx="655.45" cy="520.79" r="39.41"/><circle class="w" cx="229.85" cy="458.5" r="32.05"/><circle class="v" cx="302.85" cy="323.99" r="92.76"/><circle class="x" cx="432.53" cy="519.84" r="191.77"/></g></g></g></svg>