<?xml version="1.0" encoding="UTF-8"?><svg xmlns="http://www.w3.org/2000/svg" xmlns:xlink="http://www.w3.org/1999/xlink" viewBox="0 0 1006.59 1004.05"><defs><style>.g{fill:url(#e);}.h{fill:url(#d);}.i{fill:url(#f);}.j{fill:#00abe9;}.k{fill:#f6a561;}.l{fill:#fff;}.m{fill:#7f7ea6;}.n{fill:#cae7ec;}</style><radialGradient id="d" cx="502.82" cy="501.84" fx="502.82" fy="501.84" r="500" gradientTransform="matrix(1, 0, 0, 1, 0, 0)" gradientUnits="userSpaceOnUse"><stop offset=".11" stop-color="#433d78"/><stop offset=".68" stop-color="#383366"/><stop offset="1" stop-color="#2e2c44"/></radialGradient><linearGradient id="e" x1="718.88" y1="599.04" x2="718.88" y2="483.49" gradientTransform="matrix(1, 0, 0, 1, 0, 0)" gradientUnits="userSpaceOnUse"><stop offset="0" stop-color="#fff"/><stop offset="0" stop-color="#fff"/><stop offset=".03" stop-color="#fff" stop-opacity=".97"/><stop offset=".24" stop-color="#fff" stop-opacity=".68"/><stop offset=".44" stop-color="#fff" stop-opacity=".44"/><stop offset=".63" stop-color="#fff" stop-opacity=".25"/><stop offset=".78" stop-color="#fff" stop-opacity=".11"/><stop offset=".91" stop-color="#fff" stop-opacity=".03"/><stop offset="1" stop-color="#fff" stop-opacity="0"/></linearGradient><linearGradient id="f" x1="334.17" y1="697.6" x2="334.17" y2="582.05" xlink:href="#e"/></defs><g id="a"/><g id="b"><g id="c"><rect class="h" x="2.82" y="1.84" width="1000" height="1000"/><path class="m" d="M994.75,907.82c-.51-9.88-.95-18.41-2.07-23.27-2.13-9.25-18.72-24.09-33.53-34.89-19.59-14.29-38.49-23.6-50.56-24.93-14.56-1.59-60.34,6.62-96.73,14.92-18.3,4.18-79.26,18.74-95.3,30.9-21.15,16.03-77.3,69.03-90.1,81.16-1.98-.65-4.01-1.3-6.07-1.96-15.17-4.86-32.36-10.36-43.07-18.93-12.24-9.79-66.62-98.1-70.02-130.9-1.36-13.09-1.5-44.41-1.59-78.34,10.38,12.42,32.83,37.84,45.65,41.5,2.74,.78,7.15,1.12,12.87,1.12,20.75,0,58.63-4.52,95.53-8.91,13.51-1.61,26.28-3.13,37.87-4.39,18.16-1.97,42.3-6.12,67.85-10.52,45.08-7.75,96.18-16.54,116.73-13.1,10.64,1.78,18.06,6.13,25.24,10.35,7.2,4.23,14,8.22,22.96,8.82,31.95,2.13,46.75-8.71,58.64-17.42,5.17-3.79,9.63-7.06,14.55-8.34l-1.52-5.8c-6.02,1.57-11.15,5.33-16.57,9.31-11.11,8.14-24.91,18.26-54.69,16.28-7.54-.5-13.46-3.98-20.32-8.01-7.29-4.28-15.55-9.13-27.29-11.09-5.54-.93-12.93-1.05-21.65-.59,2.95-9.26,4.26-21.67,3.92-37.17,28.52-7.01,59.66-14.6,73.35-16.44,22.89-3.08,62.54,11.95,62.94,12.11l2.14-5.6c-1.68-.64-41.48-15.73-65.88-12.45-13.83,1.86-43.29,9.02-72.76,16.26-.89-19.05-4.01-42.31-9.38-69.66-.66-3.35-1.33-6.66-2.02-9.93,9.2-3,39.67-12.56,54.42-12.56,11.16,0,22.45,6.86,31.52,12.38,5.04,3.07,9.4,5.71,12.76,6.55l.73-2.91c-2.92-.73-7.1-3.27-11.93-6.21-9.39-5.71-21.08-12.81-33.08-12.81-15.22,0-45.35,9.44-55.04,12.6-6.28-29.51-13.19-54.65-15.8-63.84,10.22,1.07,20.91,2.46,31.84,4.16,48.97,7.61,95.79,20.09,131.82,35.13l3.47-8.3c-77.43-32.33-194.58-48.68-239.95-40.67-3.22,.57-6.48,1.25-9.79,2.01,17.27-14.55,53.74-42.84,78.81-45.26,20.74-2,62.34,6.56,95.77,13.43,22.35,4.6,40.02,8.25,46.57,7.78,16.76-1.16,27.72-21.44,28.18-22.3l-2.65-1.41c-.1,.2-10.64,19.67-25.74,20.72-6.17,.41-24.51-3.35-45.76-7.72-33.63-6.92-75.48-15.53-96.67-13.48-14.62,1.42-34.28,11.05-58.44,28.63-11.27,8.2-20.93,16.31-26.58,21.22-13.55,3.53-27.8,8.33-42.63,13.35-36.29,12.26-73.81,24.93-103.47,18.73-7.95-1.66-17.38-4.8-27.56-8.86-23.44-26.11-39.18-103.47-43.34-125.92,40.68,14.92,193.35,29.88,219.43,29.88,.98,0,1.78-.02,2.39-.06,9.08-.64,60.88-19.08,108.67-38.7,64.95-26.66,100.37-45.7,105.27-56.59,10.07-22.38,39.22-67.03,39.52-67.48l-7.53-4.93c-.84,1.28-14.83,22.71-26.79,43.41-12.07-28.26-50.95-117.88-62.09-126.99-7.43-6.08-51.07-10.67-82.32-12.92l23.76-119.67c9.99,.86,17.19,2.28,19.99,4.45,16.25,12.58,126.01,33.19,130.68,34.07l1.1-5.9c-31.38-5.86-115.56-23.2-128.11-32.91-16.31-12.63-130.18-3.89-143.11-2.85l-.63,.05-.55,.3c-1.09,.59-109.89,58.89-158.9,62.16-42.83,2.86-90.07-59.78-100.03-73.72,3.57-20.21,8.02-39.85,10.82-50.97l-8.73-2.2c-.97,3.85-23.67,94.69-14.38,120.26,4.29,11.8,9.84,21.38,14.74,29.83,5.48,9.45,10.21,17.61,11.86,26.39,2.63,14.04-9.53,101.17-14.44,133.57l-.13,.83,.18,.82c.84,3.73,20.86,91.61,54.8,108,.39,.19,.82,.38,1.25,.57,1.7,9.41,6.2,32.76,13.02,57.41,8.76,31.65,18.09,54.23,27.84,67.46-45.15-18.98-101.71-53.36-110.54-58.79-6.27-14.37-12.95-29.25-19.85-43.96-36.03-76.81-63.26-118.31-83.25-126.88-19.09-8.18-32.9-10.13-48.89-12.38-7.96-1.12-16.41-2.31-26.33-4.41,12.18-2.07,28.27-5.5,36.25-10.15,13.29-7.76,35.6-23.35,35.83-23.51l-1.72-2.46c-.22,.16-22.43,15.68-35.62,23.38-9.22,5.38-30.8,9.18-42.64,10.95-9.77-2.38-20.97-5.67-34.33-10.53-25.39-9.23-70.58-39.07-114.38-70.52,13.89-2.29,38.28-8.05,45.16-20.95,3-5.63,7.29-22.05,12.72-42.84,10.9-41.74,27.38-104.81,43-113.34,24.82-13.54,41.54-34.91,42.24-35.81l-4.74-3.67c-.16,.21-16.68,21.3-40.37,34.22-17.9,9.76-33.44,69.27-45.93,117.09-5.12,19.6-9.54,36.53-12.21,41.53-6.13,11.5-33.33,17.07-46.85,18.74C59.37,170.24,6.59,127.88,5.64,127.11l-5.64,7.01c7.05,5.67,173.34,139.14,234.73,161.47,32.66,11.88,52.7,14.7,70.38,17.19,15.35,2.16,28.61,4.03,46.6,11.74,27,11.57,77.41,107.52,138.3,263.24,.97,2.47,1.7,4.35,2.17,5.54,1.97,4.95,3.05,21.12,3.67,42.04-22.97-15.98-92.93-64.67-103.99-72.75-14.11-10.3-175.13-60.18-220-63.48-17.14-1.26-51.3-15.96-98.77-42.52-36.2-20.25-67.51-40.38-67.83-40.58l-4.87,7.57c5.15,3.32,126.64,81.27,170.81,84.51,18.77,1.38,63.33,12.1,119.19,28.67,50.59,15.01,86.73,27.8,94.98,32.37,2.02,6.95,10.12,35.3,17.31,66.76,10.8,47.25,14.67,79.84,11.18,94.23-3.14,12.96-4.78,37.71-6.23,65.51-10.16,3.77-42.2,15.49-78.68,27.09-1.76,.56-3.5,1.11-5.24,1.65-4.43-3.48-19.4-14.99-33.22-22.78,6.59-3.9,20.76-12.63,35.02-23.68,26.27-20.34,40.31-38.41,41.74-53.71l-2.99-.28c-1.08,11.59-10.19,24.01-21.86,35.43-13.06-7.5-32.84-21.15-33.2-27.71-.24-4.29,5.52-9.05,11.62-14.09,6.65-5.5,13.53-11.19,15.06-18.01l-2.93-.66c-1.31,5.82-7.79,11.18-14.05,16.36-6.7,5.54-13.02,10.77-12.7,16.57,.53,9.54,26.33,25.26,33.95,29.7-19.6,18.48-45.15,33.97-52.73,38.4-5.64-2.98-10.93-5.16-15.04-5.71-15.31-2.05-45.56-21.17-54.86-34.68-3.3-4.79-19.03-11.26-112.12-18.74-51.26-4.12-101.95-6.49-102.45-6.51l-.28,5.99c.43,.02,37.33,1.74,79.94,4.8,2.27,9.38,9.65,41.69,6.01,51.59-4.58,12.46,.8,30.71,1.03,31.48l2.87-.86c-.05-.18-5.33-18.07-1.09-29.59,3.85-10.47-3.11-41.73-5.68-52.39,6.28,.46,12.67,.94,19.07,1.46,94.76,7.61,106.43,14.3,107.75,16.17,10.18,14.79,42.16,34.97,59,37.22,10.6,1.42,33.13,17.24,45.13,26.4-51.9,15.99-90.38,24.42-111.71,24.42-23.87,0-65.32,7.73-123.21,22.98-43,11.33-79.52,22.81-79.88,22.92l1.8,5.72c1.45-.46,145.47-45.63,201.29-45.63,51.14,0,173.75-44.25,202.28-54.81-.17,3.42-.34,6.87-.52,10.35-2.22,44.79-4.98,100.54-13.31,111.26-15.67,20.15-44.93,73.65-46.17,75.92l7.9,4.31c.22-.41,17.05-31.18,31.87-54.81l31.22,53.41,2.59-1.51-32-54.75c4.29-6.74,8.34-12.74,11.69-17.04,9.38-12.06,12.11-53.89,15.2-116.34,1.68-33.94,3.27-66,6.83-80.71,3.87-15.96,.12-49.05-11.15-98.35-5.19-22.71-10.86-43.82-14.4-56.55,26.26,18.52,87.24,60.93,99.08,69.16,.45,21.78,.51,47.02,.57,69.74,.09,36.19,.18,70.38,1.65,84.61,1.94,18.72,17.59,51.35,34.21,80.19-.49,6.79-1.52,22.22-2.11,37.96-1.63,43.55,1.62,46.99,3.15,48.6,.01,.03,1.19,3.46-11.51,17.54-6.89,7.64-14.28,14.41-14.36,14.47l4.04,4.43c4.58-4.18,27.46-25.57,27.85-35.86,.09-2.33-.84-3.82-1.59-4.61-2.39-3.29-2.95-31.19-.12-73.42,14.12,23.56,27.96,43.04,33.77,47.69,12.01,9.61,30.04,15.38,45.95,20.48,14.32,4.58,27.84,8.91,32.68,14.63,11,13,11.21,28.73,11.21,28.87h9c0-.77-.15-19.09-13.34-34.68-4.76-5.62-13.55-9.54-24.29-13.27,16.08-15.2,67.74-63.74,87.28-78.55,10.03-7.6,45.67-19.03,93.01-29.83,43.21-9.86,83.07-16.08,94.74-14.8,25.03,2.74,76,42.67,78.89,55.2,1,4.35,1.43,12.64,1.92,22.23,1.18,22.98,2.52,49.02,12.07,57.48l3.98-4.49c-7.67-6.79-9.05-33.67-10.06-53.3Zm-242.25-464.67c-7.26,.5-43.16-2.31-84.32-6.86-3.21-14.92-7.16-36.81-5.94-41.47,4.48-17.17,4.73-39.13,2.4-57.28,12.58-1.3,58.69-7.28,65.56-25.55,7.32-19.46,31.39-38.22,31.63-38.41l-1.83-2.37c-1.02,.79-24.98,19.47-32.6,39.73-6.21,16.51-51.19,22.36-63.16,23.63-1.29-8.73-3.17-16.41-5.47-22.01-5.73-13.96,30.94-59.48,49.18-72.31,4.39-3.09,27.49-5.85,53.62-4.86,29.59,1.12,51.46,6.52,58.51,14.44,12.01,13.51,19.44,52.25,22.8,74.13,1.42,9.26-.73,18.62-6.04,26.37l-46.1,67.16c-22.36-7.99-62.12-22.94-67.9-27.9-5.78-4.95-1.64-22.27,.45-28.53l-2.85-.95c-.08,.25-2.01,6.06-2.99,12.82-1.38,9.43-.22,15.8,3.44,18.94,6.98,5.98,54.87,23.43,68.1,28.18l-10.57,15.4c-13.83,4.73-23.28,7.54-25.9,7.72Zm72.32-255.43c-2.87-.2-5.62-.38-8.19-.53-26.96-1.62-58.21-2.39-82.01-1.03-21-15.57-32.99-51.03-38.88-74.43,5.51,3.31,17.31,9.3,30.59,9.3,.85,0,1.71-.02,2.56-.08,4.27-.25,9.49-1.98,15.17-4.54l87.71,36.36-6.94,34.95Zm-3.09-120.51c9.95,.02,19.12,.26,26.85,.81l-16.23,81.75-84.64-35.09c8.38-4.13,17.51-9.71,26.04-14.92,10.57-6.46,20.54-12.56,25.39-13.44,10.99-2,19.99-14.99,22.6-19.12Zm-88.49,3.84c25.28-2.01,57.66-3.73,84.88-3.83-3.33,4.86-10.95,14.6-19.53,16.16-5.39,.98-15.13,6.93-26.41,13.83-15.44,9.43-32.93,20.13-43.48,20.76-16.22,.95-31.17-8.54-34-10.46-1.64-6.95-2.68-12.46-3.22-15.51,21.91-10.42,38.55-19.23,41.76-20.94Zm-250.96,75.26c-4.94-8.52-10.05-17.33-14.07-28.39-3.5-9.63-1.37-32.34,2.42-55.75,5.83,7.81,15.91,20.52,28.36,32.95,25.66,25.64,49.24,38.61,70.17,38.61,1.11,0,2.21-.04,3.3-.11,21.19-1.41,54.81-12.44,99.93-32.77,5.63-2.54,11.08-5.06,16.28-7.52,1.15,6.49,4.06,21.14,9.32,37.27,8.58,26.33,19.38,45.08,32.16,55.85-10.29,.74-18.92,1.93-24.79,3.69-32.7,9.8-182.1,1.74-209.88,.14,.31-6.66,.26-11.83-.28-14.72-1.93-10.31-7.27-19.51-12.92-29.25Zm12.38,210.27c-7.89-21.17-12.73-41.1-13.71-45.3,1.85-12.26,11.76-78.89,14.19-115.01,28.5,1.67,177.86,9.83,211.95-.39,37.68-11.29,188.87,1.1,199.29,9.62,8.41,6.88,41.26,79.67,62.16,128.9-3.83,6.85-7.25,13.37-9.67,18.75-.99,2.2-10.48,15.02-100.48,51.96-26.24,10.77-51.23,20.21-70.42,27l53.81-78.39c6.18-9.01,8.68-19.9,7.02-30.67-8.06-52.51-18.65-70.91-24.24-77.21-19.2-21.6-108.17-18.87-120.06-10.51-9.15,6.44-23.72,21.88-34.64,36.72-10.02,13.61-21.04,32.09-16.64,42.78,6.84,16.66,9.67,53.76,3.22,78.48-1.71,6.56,2.96,30.47,5.46,42.28-53.62-6.09-114.01-14.95-131.21-23.25-12.16-5.87-24.62-25.15-36.03-55.75Zm360.38,364.63c-24.74,1.94-58.04,7.67-90.59,13.26-25.46,4.38-49.51,8.51-67.48,10.47-1.75,.19-3.52,.39-5.32,.59-2.06-6.17-7.89-24.05-13.13-43.31,1.61,0,3.67,0,6.1,0,27.41,0,102.41-.52,128.28-6.07,11.56-2.48,28.52-6.63,46.59-11.08,.24,14.44-1.01,27.03-4.45,36.13Zm-146.48-174.31c20.57-6.95,40-13.51,57.6-16.62,14.22-2.51,37.54-2.37,64.84,.18,3.3,11.48,25.85,91.64,28.29,148.49-18.49,4.55-35.92,8.83-47.66,11.34-28.06,6.01-119.08,5.97-134.72,5.92-4.08-15.66-7.47-31.52-7.88-42.17-.57-14.85-4.95-38.68-9.17-58.76,6.04,.73,18.44,2.03,30.48,2.03,8.47,0,16.76-.64,22.53-2.57l-.95-2.85c-13.72,4.58-43.7,1.39-52.73,.28-2.62-12.29-5.11-22.85-6.48-28.57,18.28-4.01,37.22-10.41,55.85-16.7Zm-208.02,43.08c-.47-1.18-1.2-3.04-2.16-5.49-5.31-13.59-17.87-45.71-33.88-83.14,27.96,16.71,97.18,56.46,135.87,64.56,14.39,3.01,30.12,2.03,46.46-1.1,3.07,12.8,12.13,51.76,15.22,77.81h-95.81c-.58-2.89-2.05-10.73-2.87-19.43-1.34-14.25-.34-24.29,2.89-29.02l-2.48-1.69c-8.64,12.67-.57,50.36-.23,51.96l.26,1.18h60.88c.72,5.47,3.28,26.96-.08,35.32l2.78,1.12c3.6-8.95,1.15-30.2,.33-36.44h34.67c.33,3.14,.55,6.05,.65,8.66,.98,25.58,17.81,77.79,22.51,91.95-8.41,.96-17.28,2.02-26.51,3.12-44.31,5.28-94.52,11.27-106.04,7.98-11.85-3.38-37.68-33.19-47.32-45.23-.18-64.61-.72-111.01-5.14-122.11Z"/><path class="n" d="M384.38,367.64c-19.02-30.94-29.98-39.41-35.14-41.62-17.44-7.47-29.8-9.21-45.45-11.42-17.9-2.52-38.19-5.38-71.29-17.42-26.27-9.55-74.05-39.82-142.02-89.96C40.23,170.15,3.2,141.63,2.77,141.28l.07-25.24c1.71,1.38,176.52,142.67,235.82,164.23,31.33,11.39,50.62,14.11,67.65,16.51,15.63,2.2,30.39,4.28,50.03,12.7,12.33,5.29,27.08,21.99,44.48,50.5l-16.43,7.66Z"/><path class="n" d="M425.05,445.09c6.69,14.22,13.62,29.59,20.79,46.05l3.5,4.05c4.08,2.54,100.42,62.24,149.42,72.49,6.07,1.27,12.55,1.91,19.54,1.91s14.75-.66,22.97-1.99c1.4,5.95,3.4,14.62,5.47,24.34l7.67,7.66c2.69,.38,18.86,2.58,34.97,2.58,9.28,0,18.54-.73,25.19-2.95l-5.71-17.07c-3.79,1.27-19.01,3.59-45.73,.43-3.42-15.6-6.34-27.4-6.37-27.54l-11.05-6.54c-17.34,3.51-31.5,4.03-43.27,1.56-41.88-8.76-126.09-59.45-141.23-68.7-6.58-15.07-12.92-29.13-19.03-42.19l-17.13,5.92Z"/><path class="k" d="M442.18,439.16c-15.2-32.5-28.96-58.84-41.37-79.18l-16.43,7.66c3.07,4.99,6.35,10.57,9.84,16.8,9.51,16.95,19.83,37.24,30.83,60.65l17.13-5.92Z"/><path class="l" d="M763.07,491.41l-9.9,2.79c-8.74,2.46-15.58,9.29-18.04,18.04l-2.79,9.9-2.8-9.91c-2.46-8.73-9.28-15.55-18.01-18.01l-9.91-2.8,9.9-2.79c8.74-2.46,15.58-9.29,18.04-18.04l2.79-9.9,2.8,9.91c2.46,8.73,9.28,15.55,18.01,18.01l9.91,2.8Z"/><path class="j" d="M732.35,525.29l-3.62-12.85c-2.36-8.38-9.04-15.06-17.42-17.42l-12.85-3.62,12.83-3.61c8.4-2.36,15.08-9.05,17.44-17.44l3.61-12.83,3.62,12.84c2.36,8.38,9.04,15.06,17.42,17.42l12.84,3.62-12.83,3.61c-8.4,2.36-15.08,9.05-17.44,17.44l-3.61,12.83Zm-27.56-33.89l6.98,1.97c8.95,2.52,16.08,9.65,18.61,18.61l1.97,6.98,1.96-6.97c2.52-8.97,9.66-16.11,18.63-18.63l6.97-1.96-6.98-1.97c-8.95-2.52-16.08-9.65-18.61-18.61l-1.97-6.98-1.96,6.97c-2.52,8.97-9.66,16.11-18.63,18.63l-6.97,1.96Z"/><path class="l" d="M718.7,456.09l-7.09,1.99c-6.26,1.76-11.16,6.66-12.92,12.92l-1.99,7.09-2-7.1c-1.76-6.25-6.65-11.14-12.9-12.9l-7.1-2,7.09-1.99c6.26-1.76,11.16-6.66,12.92-12.92l1.99-7.09,2,7.1c1.76,6.25,6.65,11.14,12.9,12.9l7.1,2Z"/><path class="j" d="M696.7,480.73l-2.69-9.54c-1.68-5.97-6.44-10.72-12.41-12.41l-9.54-2.69,9.53-2.68c5.98-1.68,10.74-6.44,12.42-12.42l2.68-9.53,2.69,9.54c1.68,5.97,6.44,10.72,12.41,12.41l9.54,2.69-9.53,2.68c-5.98,1.68-10.74,6.44-12.42,12.42l-2.68,9.53Zm-19.37-24.64l4.66,1.31c6.44,1.82,11.58,6.95,13.39,13.39l1.31,4.66,1.31-4.65c1.82-6.46,6.96-11.6,13.41-13.41l4.65-1.31-4.66-1.31c-6.45-1.82-11.58-6.95-13.39-13.4l-1.31-4.66-1.31,4.65c-1.82,6.46-6.95,11.6-13.41,13.41l-4.65,1.31Z"/><path class="l" d="M741.35,425.54l-4.92,1.38c-4.34,1.22-7.74,4.62-8.96,8.96l-1.38,4.92-1.39-4.93c-1.22-4.34-4.61-7.73-8.95-8.95l-4.93-1.39,4.92-1.38c4.34-1.22,7.74-4.62,8.96-8.96l1.38-4.92,1.39,4.93c1.22,4.34,4.61,7.73,8.95,8.95l4.93,1.39Z"/><path class="j" d="M726.08,442.92l-1.94-6.88c-1.16-4.12-4.44-7.39-8.55-8.56l-6.88-1.94,6.87-1.93c4.12-1.16,7.41-4.44,8.57-8.57l1.93-6.87,1.94,6.88c1.16,4.12,4.44,7.39,8.56,8.56l6.88,1.94-6.87,1.93c-4.12,1.16-7.41,4.44-8.57,8.57l-1.93,6.87Zm-13.16-17.37l2.97,.84c4.5,1.27,8.08,4.85,9.35,9.35l.84,2.97,.83-2.97c1.27-4.5,4.85-8.09,9.36-9.36l2.97-.83-2.97-.84c-4.5-1.27-8.08-4.85-9.35-9.35l-.84-2.97-.83,2.97c-1.27,4.5-4.85,8.09-9.36,9.36l-2.96,.83Z"/><polygon class="g" points="724.57 599.04 713.23 599.04 677.07 483.49 760.7 483.49 724.57 599.04"/><path class="l" d="M378.35,589.97l-9.9,2.79c-8.74,2.46-15.58,9.29-18.04,18.04l-2.79,9.9-2.8-9.91c-2.46-8.73-9.28-15.55-18.01-18.01l-9.91-2.8,9.9-2.79c8.74-2.46,15.58-9.29,18.04-18.04l2.79-9.9,2.8,9.91c2.46,8.73,9.28,15.55,18.01,18.01l9.91,2.8Z"/><path class="j" d="M347.63,623.86l-3.62-12.85c-2.36-8.38-9.04-15.06-17.42-17.42l-12.85-3.62,12.83-3.61c8.4-2.36,15.08-9.05,17.44-17.44l3.61-12.83,3.62,12.84c2.36,8.38,9.04,15.06,17.42,17.42l12.84,3.62-12.83,3.61c-8.4,2.36-15.08,9.05-17.44,17.44l-3.61,12.83Zm-27.56-33.89l6.98,1.97c8.95,2.52,16.08,9.65,18.61,18.61l1.97,6.98,1.96-6.97c2.52-8.97,9.66-16.11,18.63-18.63l6.97-1.96-6.98-1.97c-8.95-2.52-16.08-9.65-18.61-18.61l-1.97-6.98-1.96,6.97c-2.52,8.97-9.66,16.11-18.63,18.63l-6.97,1.96Z"/><path class="l" d="M333.99,554.65l-7.09,1.99c-6.26,1.76-11.16,6.66-12.92,12.92l-1.99,7.09-2-7.1c-1.76-6.25-6.65-11.14-12.9-12.9l-7.1-2,7.09-1.99c6.26-1.76,11.16-6.66,12.92-12.92l1.99-7.09,2,7.1c1.76,6.25,6.65,11.14,12.9,12.9l7.1,2Z"/><path class="j" d="M311.98,579.29l-2.69-9.54c-1.68-5.97-6.44-10.72-12.41-12.41l-9.54-2.69,9.53-2.68c5.98-1.68,10.74-6.44,12.42-12.42l2.68-9.53,2.69,9.54c1.68,5.97,6.44,10.72,12.41,12.41l9.54,2.69-9.53,2.68c-5.98,1.68-10.74,6.44-12.42,12.42l-2.68,9.53Zm-19.37-24.64l4.66,1.31c6.44,1.82,11.58,6.95,13.39,13.39l1.31,4.66,1.31-4.65c1.82-6.46,6.96-11.6,13.41-13.41l4.65-1.31-4.66-1.31c-6.45-1.82-11.58-6.95-13.39-13.4l-1.31-4.66-1.31,4.65c-1.82,6.46-6.95,11.6-13.41,13.41l-4.65,1.31Z"/><path class="l" d="M356.63,524.11l-4.92,1.38c-4.34,1.22-7.74,4.62-8.96,8.96l-1.38,4.92-1.39-4.93c-1.22-4.34-4.61-7.73-8.95-8.95l-4.93-1.39,4.92-1.38c4.34-1.22,7.74-4.62,8.96-8.96l1.38-4.92,1.39,4.93c1.22,4.34,4.61,7.73,8.95,8.95l4.93,1.39Z"/><path class="j" d="M341.37,541.48l-1.94-6.88c-1.16-4.12-4.44-7.39-8.55-8.56l-6.88-1.94,6.87-1.93c4.12-1.16,7.41-4.44,8.57-8.57l1.93-6.87,1.94,6.88c1.16,4.12,4.44,7.39,8.56,8.56l6.88,1.94-6.87,1.93c-4.12,1.16-7.41,4.44-8.57,8.57l-1.93,6.87Zm-13.16-17.37l2.97,.84c4.5,1.27,8.08,4.85,9.35,9.35l.84,2.97,.83-2.97c1.27-4.5,4.85-8.09,9.36-9.36l2.97-.83-2.97-.84c-4.5-1.27-8.08-4.85-9.35-9.35l-.84-2.97-.83,2.97c-1.27,4.5-4.85,8.09-9.36,9.36l-2.96,.83Z"/><polygon class="i" points="339.85 697.6 328.52 697.6 292.35 582.05 375.98 582.05 339.85 697.6"/></g></g></svg>