<?xml version="1.0" encoding="UTF-8"?><svg xmlns="http://www.w3.org/2000/svg" xmlns:xlink="http://www.w3.org/1999/xlink" viewBox="0 0 1000.02 1000"><defs><style>.ab{fill:url(#u);}.ac{fill:url(#t);}.ad{fill:url(#v);}.ae{fill:url(#e);}.af{fill:url(#d);}.ag{fill:url(#g);}.ah{fill:url(#f);}.ai{fill:url(#p);}.aj{fill:url(#o);}.ak{fill:url(#s);}.al{fill:url(#q);}.am{fill:url(#r);}.an{fill:url(#i);}.ao{fill:url(#h);}.ap{fill:url(#k);}.aq{fill:url(#j);}.ar{fill:url(#m);}.as{fill:url(#l);}.at{fill:url(#n);}.au{fill:url(#x);}.av{fill:url(#w);}.aw{fill:url(#y);}.ax{fill:url(#aa);}.ay{fill:url(#a`);}.b`{fill:#fff;}.ba{fill:#69c6e3;}.bb{fill:#b8e1ee;}.bc{fill:#05a7c1;}.bd{fill:#1b1532;}.be{fill:#36bcdc;}.bf{opacity:.75;}</style><radialGradient id="d" cx="257.45" cy="264.27" fx="257.45" fy="264.27" r="1400.42" gradientTransform="translate(0 1547.28) scale(1 1.26)" gradientUnits="userSpaceOnUse"><stop offset=".84" stop-color="#221d43"/><stop offset=".88" stop-color="#211c41" stop-opacity=".94"/><stop offset=".92" stop-color="#201b3e" stop-opacity=".76"/><stop offset=".96" stop-color="#1e1839" stop-opacity=".45"/><stop offset="1" stop-color="#1b1532" stop-opacity=".03"/><stop offset="1" stop-color="#1b1532" stop-opacity="0"/></radialGradient><radialGradient id="e" cx="199.55" cy="-14.91" fx="199.55" fy="-14.91" r="1359.71" gradientTransform="translate(0 2302.74) scale(1 1.4)" gradientUnits="userSpaceOnUse"><stop offset=".87" stop-color="#2a2458"/><stop offset=".89" stop-color="#292357" stop-opacity=".95"/><stop offset=".92" stop-color="#282254" stop-opacity=".81"/><stop offset=".95" stop-color="#26214f" stop-opacity=".58"/><stop offset=".98" stop-color="#241e48" stop-opacity=".26"/><stop offset="1" stop-color="#221d43" stop-opacity="0"/></radialGradient><radialGradient id="f" cx="738.85" cy="109.94" fx="738.85" fy="109.94" r="29.83" gradientTransform="matrix(1, 0, 0, 1, 0, 0)" gradientUnits="userSpaceOnUse"><stop offset="0" stop-color="#fcea10"/><stop offset="0" stop-color="#fff" stop-opacity=".94"/><stop offset="1" stop-color="#fff" stop-opacity="0"/></radialGradient><radialGradient id="g" cx="578.9" cy="458.29" fx="578.9" fy="458.29" xlink:href="#f"/><radialGradient id="h" cx="387.82" cy="601.93" fx="387.82" fy="601.93" xlink:href="#f"/><radialGradient id="i" cx="77.24" cy="544.32" fx="77.24" fy="544.32" r="18.44" xlink:href="#f"/><radialGradient id="j" cx="555.85" cy="177.77" fx="555.85" fy="177.77" r="18.44" xlink:href="#f"/><radialGradient id="k" cx="875.72" cy="510.38" fx="875.72" fy="510.38" r="18.44" xlink:href="#f"/><radialGradient id="l" cx="567.97" cy="862.73" fx="567.97" fy="862.73" r="18.44" xlink:href="#f"/><radialGradient id="m" cx="219.23" cy="823.7" fx="219.23" fy="823.7" xlink:href="#f"/><radialGradient id="n" cx="798.11" cy="613.37" fx="798.11" fy="613.37" xlink:href="#f"/><radialGradient id="o" cx="175.71" cy="251.97" fx="175.71" fy="251.97" r="37.83" xlink:href="#f"/><linearGradient id="p" x1="236.26" y1="652.09" x2="65.08" y2="714.4" gradientTransform="matrix(1, 0, 0, 1, 0, 0)" gradientUnits="userSpaceOnUse"><stop offset="0" stop-color="#fff" stop-opacity=".9"/><stop offset="1" stop-color="#fff" stop-opacity="0"/></linearGradient><linearGradient id="q" x1="220.91" y1="359.5" x2="38.91" y2="327.4" gradientTransform="matrix(1, 0, 0, 1, 0, 0)" gradientUnits="userSpaceOnUse"><stop offset="0" stop-color="#fff" stop-opacity=".7"/><stop offset=".94" stop-color="#fff" stop-opacity="0"/></linearGradient><linearGradient id="r" x1="634.3" y1="274.78" x2="865.66" y2="141.21" gradientTransform="matrix(1, 0, 0, 1, 0, 0)" gradientUnits="userSpaceOnUse"><stop offset="0" stop-color="#fff" stop-opacity=".7"/><stop offset=".95" stop-color="#fff" stop-opacity="0"/></linearGradient><linearGradient id="s" x1="713.86" y1="636.51" x2="847.56" y2="868.08" gradientTransform="matrix(1, 0, 0, 1, 0, 0)" gradientUnits="userSpaceOnUse"><stop offset="0" stop-color="#fff" stop-opacity=".7"/><stop offset=".95" stop-color="#fff" stop-opacity="0"/></linearGradient><linearGradient id="t" x1="749" y1="345.25" x2="896.79" y2="241.76" gradientTransform="matrix(1, 0, 0, 1, 0, 0)" gradientUnits="userSpaceOnUse"><stop offset="0" stop-color="#fff"/><stop offset="1" stop-color="#fff" stop-opacity="0"/></linearGradient><linearGradient id="u" x1="248.84" y1="274.88" x2="91.17" y2="183.85" gradientTransform="matrix(1, 0, 0, 1, 0, 0)" gradientUnits="userSpaceOnUse"><stop offset="0" stop-color="#fff" stop-opacity=".9"/><stop offset=".95" stop-color="#fff" stop-opacity="0"/></linearGradient><linearGradient id="v" x1="293.47" y1="-280.77" x2="315.94" y2="-153.35" gradientTransform="translate(325.31 1152.54) rotate(7.55) scale(1.05 1.46) skewX(17.57)" gradientUnits="userSpaceOnUse"><stop offset="0" stop-color="#fff" stop-opacity=".5"/><stop offset=".9" stop-color="#fff" stop-opacity="0"/></linearGradient><radialGradient id="w" cx="499.27" cy="491" fx="499.27" fy="491" r="421.8" gradientTransform="matrix(1, 0, 0, 1, 0, 0)" gradientUnits="userSpaceOnUse"><stop offset=".69" stop-color="#b8e1ee"/><stop offset="1" stop-color="#fff" stop-opacity="0"/></radialGradient><radialGradient id="x" cx="499.27" cy="491" fx="499.27" fy="491" r="348.15" gradientTransform="matrix(1, 0, 0, 1, 0, 0)" gradientUnits="userSpaceOnUse"><stop offset=".93" stop-color="#b8e1ee" stop-opacity=".9"/><stop offset="1" stop-color="#fff" stop-opacity=".4"/></radialGradient><radialGradient id="y" cx="499.27" cy="492.08" fx="499.27" fy="492.08" r="321.73" gradientTransform="matrix(1, 0, 0, 1, 0, 0)" gradientUnits="userSpaceOnUse"><stop offset=".88" stop-color="#b8e1ee"/><stop offset="1" stop-color="#fff" stop-opacity=".8"/></radialGradient><radialGradient id="a`" cx="460.92" cy="460.72" fx="460.92" fy="460.72" r="283.15" gradientTransform="matrix(1, 0, 0, 1, 0, 0)" gradientUnits="userSpaceOnUse"><stop offset="0" stop-color="#69c6e3"/><stop offset="1" stop-color="#69c6e3" stop-opacity="0"/></radialGradient><radialGradient id="aa" cx="434.8" cy="423.71" fx="434.8" fy="423.71" r="161.83" gradientTransform="matrix(1, 0, 0, 1, 0, 0)" gradientUnits="userSpaceOnUse"><stop offset="0" stop-color="#36bcdc"/><stop offset="1" stop-color="#36bcdc" stop-opacity="0"/></radialGradient></defs><g id="a"/><g id="b"><g id="c"><rect class="bd" x="0" width="1000" height="1000"/><path class="af" d="M1000.01,386.06C811.24,222.92,539.79,120.61,238.11,120.61,156.16,120.61,76.44,128.16,0,142.43V1000H1000.01V386.06Z"/><path class="ae" d="M1000.02,746.29c-188.04-224.19-490.23-369.59-830.98-369.59-57.57,0-114.04,4.15-169.04,12.13V1000H1000.01v-253.71Z"/><path class="b`" d="M821.15,613.37l-7.43,2.09c-6.56,1.84-11.68,6.97-13.53,13.53l-2.09,7.43-2.1-7.44c-1.85-6.55-6.96-11.67-13.51-13.51l-7.44-2.1,7.43-2.09c6.56-1.84,11.68-6.97,13.53-13.53l2.09-7.43,2.1,7.44c1.85,6.55,6.96,11.67,13.51,13.51l7.44,2.1Z"/><path class="b`" d="M601.94,458.29l-7.43,2.09c-6.56,1.84-11.68,6.97-13.53,13.53l-2.09,7.43-2.1-7.44c-1.85-6.55-6.96-11.67-13.51-13.51l-7.44-2.1,7.43-2.09c6.56-1.84,11.68-6.97,13.53-13.53l2.09-7.43,2.1,7.44c1.85,6.55,6.96,11.67,13.51,13.51l7.44,2.1Z"/><path class="b`" d="M761.89,109.94l-7.43,2.09c-6.56,1.84-11.68,6.97-13.53,13.53l-2.09,7.43-2.1-7.44c-1.85-6.55-6.96-11.67-13.51-13.51l-7.44-2.1,7.43-2.09c6.56-1.84,11.68-6.97,13.53-13.53l2.09-7.43,2.1,7.44c1.85,6.55,6.96,11.67,13.51,13.51l7.44,2.1Z"/><path class="b`" d="M410.87,601.93l-7.43,2.09c-6.56,1.84-11.68,6.97-13.53,13.53l-2.09,7.43-2.1-7.44c-1.85-6.55-6.96-11.67-13.51-13.51l-7.44-2.1,7.43-2.09c6.56-1.84,11.68-6.97,13.53-13.53l2.09-7.43,2.1,7.44c1.85,6.55,6.96,11.67,13.51,13.51l7.44,2.1Z"/><path class="b`" d="M242.27,823.7l-7.43,2.09c-6.56,1.84-11.68,6.97-13.53,13.53l-2.09,7.43-2.1-7.44c-1.85-6.55-6.96-11.67-13.51-13.51l-7.44-2.1,7.43-2.09c6.56-1.84,11.68-6.97,13.53-13.53l2.09-7.43,2.1,7.44c1.85,6.55,6.96,11.67,13.51,13.51l7.44,2.1Z"/><path class="b`" d="M583.96,862.73l-5.15,1.45c-4.55,1.28-8.11,4.84-9.39,9.39l-1.45,5.15-1.46-5.16c-1.28-4.54-4.83-8.09-9.37-9.37l-5.16-1.46,5.15-1.45c4.55-1.28,8.11-4.84,9.39-9.39l1.45-5.15,1.46,5.16c1.28,4.54,4.83,8.09,9.37,9.37l5.16,1.46Z"/><path class="b`" d="M93.23,544.32l-5.15,1.45c-4.55,1.28-8.11,4.84-9.39,9.39l-1.45,5.15-1.46-5.16c-1.28-4.54-4.83-8.09-9.37-9.37l-5.16-1.46,5.15-1.45c4.55-1.28,8.11-4.84,9.39-9.39l1.45-5.15,1.46,5.16c1.28,4.54,4.83,8.09,9.37,9.37l5.16,1.46Z"/><path class="b`" d="M891.7,510.38l-5.15,1.45c-4.55,1.28-8.11,4.84-9.39,9.39l-1.45,5.15-1.46-5.16c-1.28-4.54-4.83-8.09-9.37-9.37l-5.16-1.46,5.15-1.45c4.55-1.28,8.11-4.84,9.39-9.39l1.45-5.15,1.46,5.16c1.28,4.54,4.83,8.09,9.37,9.37l5.16,1.46Z"/><path class="b`" d="M571.84,177.77l-5.15,1.45c-4.55,1.28-8.11,4.84-9.39,9.39l-1.45,5.15-1.46-5.16c-1.28-4.54-4.83-8.09-9.37-9.37l-5.16-1.46,5.15-1.45c4.55-1.28,8.11-4.84,9.39-9.39l1.45-5.15,1.46,5.16c1.28,4.54,4.83,8.09,9.37,9.37l5.16,1.46Z"/><path class="b`" d="M207.89,251.97l-10.37,2.92c-9.16,2.58-16.32,9.73-18.89,18.89l-2.92,10.37-2.93-10.38c-2.58-9.14-9.72-16.29-18.87-18.87l-10.38-2.93,10.37-2.92c9.16-2.58,16.32-9.73,18.89-18.89l2.92-10.37,2.93,10.38c2.58,9.14,9.72,16.29,18.87,18.87l10.38,2.93Z"/><circle class="b`" cx="630.73" cy="318.04" r="3.87"/><circle class="b`" cx="715.8" cy="930.33" r="3.87"/><circle class="b`" cx="731.99" cy="742.92" r="3.87"/><circle class="b`" cx="484.43" cy="918.05" r="3.87"/><circle class="b`" cx="282.37" cy="658" r="3.87"/><circle class="b`" cx="267.11" cy="706.5" r="3.87"/><circle class="b`" cx="97.1" cy="590.33" r="3.87"/><circle class="b`" cx="89.36" cy="255.84" r="3.87"/><circle class="b`" cx="571.84" cy="598.07" r="3.87"/><circle class="b`" cx="305.1" cy="467.43" r="3.87"/><circle class="b`" cx="263.24" cy="193.76" r="3.87"/><circle class="b`" cx="175.71" cy="356.97" r="3.87"/><circle class="b`" cx="419.68" cy="86.89" r="3.87"/><circle class="b`" cx="561.65" cy="746.78" r="3.87"/><circle class="b`" cx="415.81" cy="299.66" r="3.87"/><circle class="b`" cx="652.46" cy="106.07" r="3.87"/><circle class="b`" cx="634.6" cy="67.47" r="3.87"/><circle class="b`" cx="798.11" cy="251.97" r="3.87"/><circle class="b`" cx="931.53" cy="339.1" r="3.87"/><circle class="b`" cx="761.89" cy="485.21" r="3.87"/><circle class="b`" cx="903.62" cy="654.13" r="3.87"/><circle class="ah" cx="738.85" cy="109.94" r="29.83"/><circle class="ag" cx="578.9" cy="458.29" r="29.83"/><circle class="ao" cx="387.82" cy="601.93" r="29.83"/><circle class="an" cx="77.24" cy="544.32" r="18.44"/><circle class="aq" cx="555.85" cy="177.77" r="18.44"/><circle class="ap" cx="875.72" cy="510.38" r="18.44"/><circle class="as" cx="567.97" cy="862.73" r="18.44"/><circle class="ar" cx="219.23" cy="823.7" r="29.83"/><circle class="at" cx="798.11" cy="613.37" r="29.83"/><circle class="aj" cx="175.71" cy="251.97" r="37.83"/><g><g><polygon class="ai" points="217.26 614.14 239.13 659.97 93.06 761.1 46.8 664.17 217.26 614.14"/><polygon class="al" points="220.99 359.09 205.19 407.36 29.68 379.76 63.08 277.68 220.99 359.09"/><polygon class="am" points="689.76 336.12 650.87 303.47 793.44 89.54 875.7 158.6 689.76 336.12"/><polygon class="ak" points="654.4 689.37 688.1 651.38 898.07 799.71 826.8 880.06 654.4 689.37"/><polygon class="ac" points="746.75 342.03 731.56 313.14 878.33 215.4 910.45 276.52 746.75 342.03"/><polygon class="ab" points="243.49 284.16 221.76 308.53 78.7 205.44 124.64 153.9 243.49 284.16"/><polygon class="ad" points="563.78 783.65 595.2 774.79 664.54 953.36 598.09 972.12 563.78 783.65"/><circle class="av" cx="499.27" cy="491" r="421.8"/></g><g><path class="au" d="M520.96,146.08h0c21.85-6.66,45.56-2.91,64.28,10.18h0c12.11,8.47,26.47,13.13,41.24,13.4h0c22.84,.42,44.23,11.31,57.99,29.55h0c8.9,11.79,21.12,20.67,35.08,25.49h0c21.6,7.46,38.57,24.43,46.02,46.02h0c4.82,13.97,13.7,26.18,25.49,35.08h0c18.23,13.76,29.13,35.15,29.55,57.99h0c.27,14.77,4.94,29.13,13.4,41.24h0c13.09,18.73,16.84,42.43,10.18,64.28h0c-4.31,14.13-4.31,29.23,0,43.36h0c6.66,21.85,2.91,45.56-10.18,64.28h0c-8.47,12.11-13.13,26.47-13.4,41.24h0c-.42,22.84-11.31,44.23-29.55,57.99h0c-11.79,8.9-20.67,21.12-25.49,35.08h0c-7.46,21.6-24.43,38.57-46.02,46.02h0c-13.97,4.82-26.18,13.7-35.08,25.49h0c-13.76,18.23-35.15,29.13-57.99,29.55h0c-14.77,.27-29.13,4.94-41.24,13.4h0c-18.73,13.09-42.43,16.84-64.28,10.18h0c-14.13-4.31-29.23-4.31-43.36,0h0c-21.85,6.66-45.56,2.91-64.28-10.18h0c-12.11-8.47-26.47-13.13-41.24-13.4h0c-22.84-.42-44.23-11.31-57.99-29.55h0c-8.9-11.79-21.12-20.67-35.08-25.49h0c-21.6-7.46-38.57-24.43-46.02-46.02h0c-4.82-13.97-13.7-26.18-25.49-35.08h0c-18.23-13.76-29.13-35.15-29.55-57.99h0c-.27-14.77-4.94-29.13-13.4-41.24h0c-13.09-18.73-16.84-42.43-10.18-64.28h0c4.31-14.13,4.31-29.23,0-43.36h0c-6.66-21.85-2.91-45.56,10.18-64.28h0c8.47-12.11,13.13-26.47,13.4-41.24h0c.42-22.84,11.31-44.23,29.55-57.99h0c11.79-8.9,20.67-21.12,25.49-35.08h0c7.46-21.6,24.43-38.57,46.02-46.02h0c13.97-4.82,26.18-13.7,35.08-25.49h0c13.76-18.23,35.15-29.13,57.99-29.55h0c14.77-.27,29.13-4.94,41.24-13.4h0c18.73-13.09,42.43-16.84,64.28-10.18h0c14.13,4.31,29.23,4.31,43.36,0Z"/><circle class="ba" cx="499.27" cy="492.08" r="338.18"/></g><g><circle class="aw" cx="499.27" cy="492.08" r="321.73"/><circle class="ay" cx="460.92" cy="460.72" r="283.15"/><circle class="ax" cx="434.8" cy="423.71" r="161.83"/></g><g class="bf"><circle class="b`" cx="365.92" cy="403.83" r="5.86"/><circle class="b`" cx="398.58" cy="358.73" r="5.86"/><circle class="b`" cx="392.72" cy="334.73" r="5.86"/><circle class="b`" cx="392.72" cy="403.83" r="7.15"/><circle class="b`" cx="259.18" cy="455.54" r="5.86"/><circle class="b`" cx="247.46" cy="411.28" r="5.86"/><circle class="b`" cx="284.74" cy="475.79" r="8.38"/><circle class="b`" cx="412.77" cy="758.94" r="7.15"/><circle class="b`" cx="190.95" cy="507.14" r="5.86"/><circle class="b`" cx="392.72" cy="724.48" r="8.38"/><circle class="b`" cx="286.02" cy="661.87" r="7.15"/><circle class="b`" cx="216.9" cy="534.43" r="5.86"/><circle class="b`" cx="247.82" cy="584.01" r="7.15"/><circle class="b`" cx="313.22" cy="492.9" r="5.86"/><circle class="b`" cx="278.87" cy="594.45" r="7.15"/><circle class="b`" cx="290.6" cy="515.52" r="5.86"/><circle class="b`" cx="399.87" cy="507.14" r="8.38"/><circle class="b`" cx="384.34" cy="534.43" r="7.15"/><circle class="b`" cx="429.52" cy="313.41" r="5.86"/><circle class="b`" cx="352.92" cy="455.54" r="7.15"/><circle class="b`" cx="542.13" cy="197.25" r="5.86"/><circle class="b`" cx="568.92" cy="220.69" r="8.38"/><circle class="b`" cx="435.38" cy="248.97" r="5.86"/><circle class="b`" cx="460.95" cy="269.21" r="8.38"/><circle class="b`" cx="475.18" cy="356.31" r="8.38"/><circle class="b`" cx="459.66" cy="378.93" r="7.15"/><circle class="b`" cx="489.42" cy="286.33" r="5.86"/><circle class="b`" cx="466.81" cy="308.94" r="5.86"/><circle class="b`" cx="560.55" cy="327.86" r="7.15"/><circle class="b`" cx="597.35" cy="320.71" r="8.38"/><circle class="b`" cx="529.12" cy="248.97" r="7.15"/><circle class="b`" cx="387.75" cy="239.64" r="7.15"/><circle class="b`" cx="342.14" cy="358.73" r="8.38"/><circle class="b`" cx="344.45" cy="327.13" r="5.86"/><circle class="b`" cx="302.04" cy="281.01" r="8.38"/><circle class="b`" cx="319.17" cy="259.59" r="7.15"/><circle class="b`" cx="306.94" cy="328.87" r="5.86"/><circle class="b`" cx="208.53" cy="443.63" r="7.15"/><circle class="b`" cx="238.29" cy="351.03" r="5.86"/><circle class="b`" cx="215.67" cy="373.64" r="5.86"/><circle class="b`" cx="555.92" cy="675.22" r="5.86"/><circle class="b`" cx="588.58" cy="630.12" r="5.86"/><circle class="b`" cx="582.72" cy="606.11" r="5.86"/><circle class="b`" cx="582.72" cy="675.22" r="7.15"/><circle class="b`" cx="472.73" cy="694.39" r="5.86"/><circle class="b`" cx="474.74" cy="747.17" r="8.38"/><circle class="b`" cx="503.21" cy="764.29" r="5.86"/><circle class="b`" cx="480.6" cy="786.9" r="5.86"/><circle class="b`" cx="589.86" cy="778.53" r="8.38"/><circle class="b`" cx="542.91" cy="726.93" r="7.15"/><circle class="b`" cx="455.03" cy="669.35" r="7.15"/><circle class="b`" cx="665.18" cy="627.7" r="8.38"/><circle class="b`" cx="649.66" cy="650.31" r="7.15"/><circle class="b`" cx="359.02" cy="596.1" r="5.86"/><circle class="b`" cx="435.62" cy="593.68" r="8.38"/><circle class="b`" cx="532.14" cy="630.12" r="8.38"/><circle class="b`" cx="472.73" cy="621.16" r="5.86"/><circle class="b`" cx="397.26" cy="694.28" r="5.86"/><circle class="b`" cx="319.87" cy="709.11" r="5.86"/><circle class="b`" cx="337.45" cy="695.8" r="7.15"/><circle class="b`" cx="355.15" cy="647.6" r="5.86"/><circle class="b`" cx="410.37" cy="554.83" r="5.86"/><circle class="b`" cx="306.08" cy="575.49" r="5.86"/><circle class="b`" cx="508.54" cy="415.25" r="5.86"/><circle class="b`" cx="484.82" cy="408.32" r="5.86"/><circle class="b`" cx="506.27" cy="547.7" r="5.86"/><circle class="b`" cx="544.74" cy="347.69" r="8.38"/><circle class="b`" cx="556.56" cy="372.44" r="7.15"/><circle class="b`" cx="480.32" cy="464.12" r="8.38"/><circle class="b`" cx="442.85" cy="511.09" r="5.86"/><circle class="b`" cx="735.05" cy="684.22" r="5.86"/><circle class="b`" cx="755.72" cy="598.87" r="8.38"/><circle class="b`" cx="781.78" cy="616.4" r="7.15"/><circle class="b`" cx="700.76" cy="641.84" r="7.15"/><circle class="b`" cx="699.13" cy="540.24" r="5.86"/><circle class="b`" cx="762.87" cy="556.3" r="5.86"/><circle class="b`" cx="731.1" cy="559.94" r="5.86"/><circle class="b`" cx="600.02" cy="343.65" r="5.86"/><circle class="b`" cx="661.16" cy="357.36" r="8.38"/><circle class="b`" cx="659.29" cy="384.73" r="7.15"/><circle class="b`" cx="720.19" cy="289.45" r="7.15"/><circle class="b`" cx="765.27" cy="423.35" r="5.86"/><circle class="b`" cx="719.85" cy="391.14" r="5.86"/><circle class="b`" cx="695.9" cy="397.24" r="5.86"/><circle class="b`" cx="765" cy="396.55" r="7.15"/><circle class="b`" cx="716.66" cy="314.56" r="8.38"/><circle class="b`" cx="739.43" cy="329.86" r="7.15"/><circle class="b`" cx="720.41" cy="447.58" r="8.38"/><circle class="b`" cx="688.78" cy="445.58" r="5.86"/><circle class="b`" cx="690.89" cy="483.08" r="5.86"/><circle class="b`" cx="666.71" cy="328.32" r="5.86"/><circle class="b`" cx="702.83" cy="355.95" r="7.15"/><circle class="b`" cx="630.3" cy="253.3" r="5.86"/><circle class="b`" cx="608.12" cy="264.19" r="5.86"/><circle class="b`" cx="675.61" cy="249.33" r="7.15"/><circle class="b`" cx="569.65" cy="493.64" r="5.86"/><circle class="b`" cx="539.74" cy="504.96" r="5.86"/><circle class="b`" cx="642.79" cy="542.24" r="8.38"/><circle class="b`" cx="617.42" cy="560.74" r="7.15"/><circle class="b`" cx="680.35" cy="563.51" r="5.86"/><circle class="b`" cx="663.86" cy="451.76" r="5.86"/><circle class="b`" cx="677.25" cy="428.56" r="7.15"/><circle class="b`" cx="612.91" cy="449.81" r="8.38"/><circle class="b`" cx="586.69" cy="432.01" r="5.86"/><circle class="b`" cx="569.44" cy="465.37" r="5.86"/></g><g><path class="ba" d="M493.13,760.07c-14.32,0-25.96-11.65-25.96-25.96s11.65-25.97,25.96-25.97,25.96,11.65,25.96,25.97-11.65,25.96-25.96,25.96Zm0-38.93c-7.15,0-12.96,5.82-12.96,12.97s5.82,12.96,12.96,12.96,12.96-5.82,12.96-12.96-5.82-12.97-12.96-12.97Z"/><path class="ba" d="M743.82,377.51c-14.32,0-25.96-11.65-25.96-25.96s11.65-25.97,25.96-25.97,25.96,11.65,25.96,25.97-11.65,25.96-25.96,25.96Zm0-38.93c-7.15,0-12.96,5.82-12.96,12.97s5.82,12.96,12.96,12.96,12.96-5.82,12.96-12.96-5.82-12.97-12.96-12.97Z"/><path class="b`" d="M387.81,593.25c-14.32,0-25.97-11.65-25.97-25.96s11.65-25.97,25.97-25.97,25.96,11.65,25.96,25.97-11.65,25.96-25.96,25.96Zm0-38.93c-7.15,0-12.97,5.82-12.97,12.97s5.82,12.96,12.97,12.96,12.96-5.82,12.96-12.96-5.82-12.97-12.96-12.97Z"/><path class="bc" d="M776.24,580.23c-10.73,0-19.46-8.73-19.46-19.46s8.73-19.46,19.46-19.46,19.45,8.73,19.45,19.46-8.73,19.46-19.45,19.46Zm0-25.91c-3.56,0-6.46,2.9-6.46,6.46s2.9,6.46,6.46,6.46,6.45-2.9,6.45-6.46-2.9-6.46-6.45-6.46Z"/><path class="bc" d="M301.56,567.28c-10.73,0-19.45-8.73-19.45-19.46s8.73-19.45,19.45-19.45,19.46,8.73,19.46,19.45-8.73,19.46-19.46,19.46Zm0-25.91c-3.56,0-6.45,2.9-6.45,6.45s2.9,6.46,6.45,6.46,6.46-2.9,6.46-6.46-2.9-6.45-6.46-6.45Z"/><path class="b`" d="M449.9,531.35c-16.69,0-30.26-13.58-30.26-30.26s13.58-30.26,30.26-30.26,30.26,13.58,30.26,30.26-13.58,30.26-30.26,30.26Zm0-47.53c-9.52,0-17.26,7.74-17.26,17.26s7.74,17.26,17.26,17.26,17.26-7.74,17.26-17.26-7.74-17.26-17.26-17.26Z"/><path class="b`" d="M522.27,537.4c-8.83,0-16.01-7.18-16.01-16.01s7.18-16.01,16.01-16.01,16.01,7.18,16.01,16.01-7.18,16.01-16.01,16.01Zm0-19.02c-1.66,0-3.01,1.35-3.01,3.01s1.35,3.01,3.01,3.01,3.01-1.35,3.01-3.01-1.35-3.01-3.01-3.01Z"/><path class="b`" d="M623.67,367.56c-8.83,0-16.01-7.18-16.01-16.01s7.18-16.01,16.01-16.01,16.01,7.18,16.01,16.01-7.18,16.01-16.01,16.01Zm0-19.02c-1.66,0-3.01,1.35-3.01,3.01s1.35,3.01,3.01,3.01,3.01-1.35,3.01-3.01-1.35-3.01-3.01-3.01Z"/><path class="b`" d="M478.64,324.1c-11.57,0-20.99-9.42-20.99-20.99s9.42-20.99,20.99-20.99,20.99,9.42,20.99,20.99-9.42,20.99-20.99,20.99Zm0-28.98c-4.41,0-7.99,3.58-7.99,7.99s3.58,7.99,7.99,7.99,7.99-3.58,7.99-7.99-3.58-7.99-7.99-7.99Z"/><path class="bb" d="M521.61,366.04c-7.14,0-14.97-2.09-22.43-6.4-8.08-4.67-14.48-11.31-18-18.7-3.86-8.09-3.89-16.51-.09-23.1,7.61-13.19,27.49-15.49,45.24-5.23,17.76,10.25,25.7,28.61,18.09,41.8h0c-4.41,7.65-12.95,11.63-22.81,11.63Zm-17.77-46.74c-5.23,0-9.56,1.69-11.49,5.04-2.23,3.87-.61,8.55,.56,11,2.37,4.97,7.03,9.72,12.77,13.04,10.87,6.27,23.71,6.05,27.48-.48h0c3.77-6.53-2.46-17.76-13.33-24.04-5.29-3.05-11.04-4.57-15.99-4.57Z"/><path class="bc" d="M482.52,828.07c-7.14,0-14.97-2.09-22.43-6.4-17.76-10.25-25.7-28.61-18.09-41.8,3.8-6.59,11.11-10.77,20.05-11.47,8.17-.64,17.11,1.58,25.19,6.24,17.76,10.25,25.7,28.61,18.09,41.8h0c-4.42,7.65-12.95,11.63-22.81,11.63Zm-17.71-46.78c-.59,0-1.18,.02-1.75,.07-2.7,.21-7.57,1.15-9.81,5.01-3.77,6.53,2.46,17.76,13.33,24.04,10.87,6.28,23.71,6.05,27.49-.48,3.77-6.53-2.46-17.76-13.33-24.04-5.14-2.97-10.85-4.61-15.93-4.61Z"/><path class="be" d="M661.93,412.04c-7.38,0-15.23-2.21-22.4-6.35-8.08-4.67-14.47-11.31-18-18.7-3.86-8.09-3.89-16.51-.09-23.1,3.8-6.59,11.11-10.77,20.05-11.48,8.15-.64,17.11,1.58,25.19,6.24,8.08,4.67,14.47,11.31,18,18.7,3.86,8.09,3.89,16.51,.09,23.1-3.8,6.59-11.11,10.77-20.05,11.47-.92,.07-1.86,.11-2.8,.11Zm-17.67-46.73c-.59,0-1.17,.02-1.75,.07-2.7,.21-7.57,1.15-9.81,5.02-2.23,3.87-.61,8.55,.56,11,2.37,4.97,7.03,9.72,12.77,13.04,5.74,3.32,12.18,4.97,17.68,4.54,2.7-.21,7.57-1.15,9.81-5.01h0c2.23-3.87,.61-8.55-.56-11-2.37-4.97-7.03-9.72-12.77-13.04-5.14-2.97-10.85-4.61-15.93-4.61Z"/><path class="b`" d="M677.86,346.66c-8.18,0-17.17-2.41-25.75-7.36-20.27-11.7-29.4-32.55-20.79-47.46,8.61-14.91,31.23-17.42,51.5-5.72,20.27,11.7,29.4,32.55,20.79,47.46h0c-4.97,8.6-14.6,13.08-25.75,13.08Zm-20.86-54.85c-6.51,0-11.92,2.19-14.42,6.53-4.8,8.31,2.54,21.91,16.03,29.7,13.49,7.79,28.94,7.35,33.74-.97,4.8-8.31-2.54-21.91-16.03-29.7-6.45-3.72-13.35-5.57-19.32-5.57Z"/><path class="be" d="M298.94,648.02c-8.45,0-17.46-2.54-25.69-7.29-9.28-5.36-16.61-12.97-20.65-21.43-4.43-9.28-4.48-18.52-.14-26.03,4.33-7.51,12.37-12.09,22.62-12.89,9.35-.74,19.6,1.81,28.88,7.17,9.28,5.36,16.61,12.96,20.65,21.43,4.43,9.28,4.48,18.52,.14,26.03h0c-4.34,7.51-12.37,12.09-22.62,12.89-1.05,.08-2.12,.12-3.19,.12Zm-20.71-54.77c-.72,0-1.43,.03-2.13,.08-3.39,.27-9.5,1.46-12.38,6.43s-.85,10.87,.62,13.93c2.88,6.02,8.49,11.77,15.42,15.77,6.92,4,14.72,5.99,21.36,5.47,3.39-.27,9.5-1.46,12.38-6.43h0c2.87-4.98,.85-10.87-.62-13.93-2.88-6.02-8.49-11.77-15.42-15.77-6.2-3.58-13.08-5.55-19.23-5.55Z"/><path class="b`" d="M251.66,623.69c-17.23,0-34.66-15.23-42.24-38.42-4.1-12.55-4.57-25.55-1.33-36.59,3.5-11.92,10.87-20.25,20.74-23.48,9.87-3.23,20.74-.85,30.6,6.7,9.15,6.99,16.44,17.76,20.55,30.31,8.9,27.22,.37,53.61-19.41,60.07h0c-2.93,.96-5.91,1.42-8.91,1.42Zm-14.06-86.88c-1.63,0-3.22,.25-4.73,.74-5.68,1.86-10.05,7.11-12.31,14.79-2.51,8.55-2.08,18.81,1.21,28.89,6.41,19.61,22.33,32.76,34.75,28.69,12.43-4.06,17.51-24.06,11.09-43.68-3.29-10.08-9.01-18.61-16.09-24.03-4.66-3.56-9.47-5.41-13.93-5.41Z"/><path class="b`" d="M565.24,815.01c-10.22,0-19.95-2.1-28.18-6.16-11.95-5.9-19.41-15.2-20.99-26.2-1.59-11,2.93-22.03,12.72-31.07,9.13-8.42,21.93-14.19,36.05-16.23,14.12-2.04,28.03-.13,39.16,5.37,11.95,5.9,19.41,15.2,20.99,26.2,1.59,11-2.93,22.03-12.72,31.07-9.13,8.42-21.93,14.19-36.05,16.23-3.69,.53-7.37,.8-10.99,.8Zm10.38-67.44c-2.92,0-5.9,.21-8.92,.65-22.55,3.26-39.84,18.17-37.76,32.57,.96,6.63,5.89,12.46,13.88,16.4,8.8,4.34,20.01,5.82,31.55,4.16,11.54-1.67,21.87-6.25,29.09-12.91,6.55-6.05,9.63-13.03,8.67-19.66-1.8-12.47-17.65-21.2-36.51-21.2Z"/><path class="bc" d="M277.52,379.68c-5.01,0-9.81-1.13-14.21-3.41h0c-9.87-5.11-16.21-15.2-17.87-28.42-1.54-12.33,1.22-26.09,7.78-38.76s16.2-22.87,27.15-28.73c11.75-6.29,23.65-6.94,33.52-1.83,9.87,5.11,16.21,15.2,17.87,28.42,1.54,12.33-1.22,26.09-7.78,38.76s-16.2,22.87-27.15,28.73c-6.51,3.49-13.08,5.24-19.31,5.24Zm22.15-91.54c-4.12,0-8.6,1.23-13.17,3.68-8.66,4.63-16.38,12.89-21.74,23.25-5.36,10.36-7.64,21.43-6.42,31.17,1.11,8.85,4.99,15.41,10.94,18.49h0c12.92,6.69,32.68-4.76,43.15-24.99,10.47-20.23,8.4-42.98-4.52-49.66-2.49-1.29-5.28-1.93-8.25-1.93Z"/><path class="be" d="M754.55,664.6c-6.32,0-11.98-2.15-16.03-6.2-5.18-5.19-7.26-13.02-5.69-21.49,1.43-7.71,5.69-15.43,12-21.74,6.31-6.31,14.03-10.57,21.73-12,8.48-1.57,16.31,.5,21.49,5.69,5.18,5.19,7.26,13.02,5.69,21.49-1.43,7.71-5.69,15.43-12,21.74-6.31,6.31-14.03,10.57-21.73,12-1.86,.34-3.68,.51-5.46,.51Zm17.56-48.95c-1.2,0-2.31,.14-3.17,.3-5.07,.94-10.51,4.01-14.91,8.41-4.41,4.4-7.47,9.84-8.41,14.92-.46,2.47-.79,7.04,2.1,9.93,2.89,2.89,7.46,2.55,9.93,2.1,5.07-.94,10.51-4.01,14.91-8.41,4.41-4.4,7.47-9.84,8.41-14.92,.46-2.47,.79-7.04-2.1-9.93-1.89-1.89-4.49-2.4-6.76-2.4Z"/><path class="be" d="M225.1,413.14c-6.32,0-11.98-2.15-16.03-6.2-10.35-10.35-7.57-29.34,6.32-43.23,13.89-13.89,32.88-16.66,43.23-6.31,10.35,10.35,7.57,29.34-6.32,43.23-6.31,6.31-14.03,10.57-21.74,12-1.86,.34-3.68,.51-5.46,.51Zm17.67-48.99c-5.83,0-13.12,3.67-18.2,8.75-7.37,7.37-11.77,19.38-6.32,24.84,2.89,2.89,7.46,2.55,9.93,2.1,5.07-.94,10.51-4.01,14.91-8.41,7.37-7.37,11.77-19.38,6.32-24.84-1.7-1.69-4.02-2.44-6.64-2.44Z"/><path class="bb" d="M427.36,362.25c-10.16,0-18.63-5.01-20.95-13.25-3-10.61,5.51-21.99,19.36-25.9,6.18-1.74,12.55-1.7,17.95,.13,6.16,2.09,10.57,6.4,12.1,11.83h0c2.99,10.62-5.51,21.99-19.36,25.9-3.1,.87-6.17,1.29-9.09,1.29Zm7.46-27.42c-1.78,0-3.67,.26-5.52,.79-7.44,2.1-11.12,7.24-10.38,9.86,.74,2.62,6.56,5.08,14,2.98,7.44-2.1,11.12-7.24,10.38-9.86h0c-.5-1.77-2.8-2.72-3.76-3.05-1.41-.48-3.02-.72-4.72-.72Z"/></g></g></g></g></svg>