<?xml version="1.0" encoding="UTF-8"?><svg xmlns="http://www.w3.org/2000/svg" xmlns:xlink="http://www.w3.org/1999/xlink" viewBox="0 0 1001.02 1000"><defs><style>.an{fill:url(#u);}.ao{fill:url(#t);}.ap{fill:url(#v);}.aq{fill:url(#e);}.ar{fill:url(#d);}.as{fill:url(#g);}.at{fill:url(#f);}.au{fill:url(#p);}.av{fill:url(#o);}.aw{fill:url(#s);}.ax{fill:url(#q);}.ay{fill:url(#r);}.b`{fill:url(#i);}.ba{fill:url(#h);}.bb{fill:url(#k);}.bc{fill:url(#j);}.bd{fill:url(#m);}.be{fill:url(#l);}.bf{fill:url(#n);}.bg{fill:url(#x);}.bh{fill:url(#w);}.bi{fill:url(#y);}.bj{fill:url(#aa);}.bk{fill:url(#ag);}.bl{fill:url(#ab);}.bm{fill:url(#ah);}.bn{fill:url(#ai);}.bo{fill:url(#ad);}.bp{fill:url(#aj);}.bq{fill:url(#ae);}.br{fill:url(#af);}.bs{fill:url(#a`);}.bt{fill:url(#al);}.bu{fill:url(#am);}.bv{fill:url(#ac);}.bw{fill:url(#ak);}.bx{fill:#fff;}.by{fill:#1b1532;}</style><radialGradient id="d" cx="258.45" cy="257.61" fx="258.45" fy="257.61" r="1400.42" gradientTransform="translate(0 1555.66) scale(1 1.26)" gradientUnits="userSpaceOnUse"><stop offset=".84" stop-color="#221d43"/><stop offset=".88" stop-color="#211c41" stop-opacity=".94"/><stop offset=".92" stop-color="#201b3e" stop-opacity=".76"/><stop offset=".96" stop-color="#1e1839" stop-opacity=".45"/><stop offset="1" stop-color="#1b1532" stop-opacity=".03"/><stop offset="1" stop-color="#1b1532" stop-opacity="0"/></radialGradient><radialGradient id="e" cx="200.55" cy="-24.21" fx="200.55" fy="-24.21" r="1359.71" gradientTransform="translate(0 2315.77) scale(1 1.4)" gradientUnits="userSpaceOnUse"><stop offset=".87" stop-color="#2a2458"/><stop offset=".89" stop-color="#292357" stop-opacity=".95"/><stop offset=".92" stop-color="#282254" stop-opacity=".81"/><stop offset=".95" stop-color="#26214f" stop-opacity=".58"/><stop offset=".98" stop-color="#241e48" stop-opacity=".26"/><stop offset="1" stop-color="#221d43" stop-opacity="0"/></radialGradient><radialGradient id="f" cx="76.87" cy="432.46" fx="76.87" fy="432.46" r="14.16" gradientTransform="matrix(1, 0, 0, 1, 0, 0)" gradientUnits="userSpaceOnUse"><stop offset="0" stop-color="#fcea10"/><stop offset="0" stop-color="#fff" stop-opacity=".94"/><stop offset="1" stop-color="#fff" stop-opacity="0"/></radialGradient><radialGradient id="g" cx="515.02" cy="181" fx="515.02" fy="181" r="14.16" xlink:href="#f"/><radialGradient id="h" cx="434.02" cy="541" fx="434.02" fy="541" r="14.16" xlink:href="#f"/><radialGradient id="i" cx="308.02" cy="927" fx="308.02" fy="927" r="14.16" xlink:href="#f"/><radialGradient id="j" cx="749.02" cy="100" fx="749.02" fy="100" r="14.16" xlink:href="#f"/><radialGradient id="k" cx="637.19" cy="525.31" fx="637.19" fy="525.31" r="14.16" xlink:href="#f"/><radialGradient id="l" cx="902.02" cy="514" fx="902.02" fy="514" r="14.16" xlink:href="#f"/><radialGradient id="m" cx="812.02" cy="658" fx="812.02" fy="658" r="14.16" xlink:href="#f"/><radialGradient id="n" cx="154.33" cy="781.88" fx="154.33" fy="781.88" r="14.16" xlink:href="#f"/><radialGradient id="o" cx="218.02" cy="271" fx="218.02" fy="271" r="14.16" xlink:href="#f"/><radialGradient id="p" cx="1393.67" cy="-1023.06" fx="1393.67" fy="-1023.06" r="10.28" gradientTransform="translate(-1087.84 1457.56) rotate(16.99)" xlink:href="#f"/><radialGradient id="q" cx="1380.29" cy="-947.62" fx="1380.29" fy="-947.62" r="10.28" gradientTransform="translate(-1087.84 1457.56) rotate(16.99)" xlink:href="#f"/><radialGradient id="r" cx="1268.59" cy="-1018.98" fx="1268.59" fy="-1018.98" r="10.28" gradientTransform="translate(-1087.84 1457.56) rotate(16.99)" xlink:href="#f"/><radialGradient id="s" cx="1156.89" cy="-1053.11" fx="1156.89" fy="-1053.11" r="10.28" gradientTransform="translate(-1087.84 1457.56) rotate(16.99)" xlink:href="#f"/><radialGradient id="t" cx="1097.94" cy="-1009.67" fx="1097.94" fy="-1009.67" r="10.28" gradientTransform="translate(-1087.84 1457.56) rotate(16.99)" xlink:href="#f"/><radialGradient id="u" cx="1287.2" cy="-947.62" fx="1287.2" fy="-947.62" r="13.04" gradientTransform="translate(-1087.84 1457.56) rotate(16.99)" xlink:href="#f"/><radialGradient id="v" cx="1215.84" cy="-1043.8" fx="1215.84" fy="-1043.8" r="13.04" gradientTransform="translate(-1087.84 1457.56) rotate(16.99)" xlink:href="#f"/><radialGradient id="w" cx="-4861.56" cy="3738.58" fx="-4861.56" fy="3738.58" r="9.96" gradientTransform="translate(454.1 -5826.47) rotate(-56.55)" xlink:href="#f"/><radialGradient id="x" cx="-4907.58" cy="3676.42" fx="-4907.58" fy="3676.42" r="9.96" gradientTransform="translate(454.1 -5826.47) rotate(-56.55)" xlink:href="#f"/><radialGradient id="y" cx="-5006.73" cy="3640.37" fx="-5006.73" fy="3640.37" r="9.96" gradientTransform="translate(454.1 -5826.47) rotate(-56.55)" xlink:href="#f"/><radialGradient id="a`" cx="-4958.66" cy="3691.45" fx="-4958.66" fy="3691.45" r="12.63" gradientTransform="translate(454.1 -5826.47) rotate(-56.55)" xlink:href="#f"/><radialGradient id="aa" cx="-4820.44" cy="3688.44" fx="-4820.44" fy="3688.44" r="12.63" gradientTransform="translate(454.1 -5826.47) rotate(-56.55)" xlink:href="#f"/><linearGradient id="ab" x1="-13182.17" y1="789.44" x2="-13182.17" y2="631.12" gradientTransform="translate(-13012.27) rotate(-180) scale(1 -1)" gradientUnits="userSpaceOnUse"><stop offset="0" stop-color="#a3d3bd"/><stop offset=".11" stop-color="#94cdb3" stop-opacity=".96"/><stop offset=".15" stop-color="#8dcaae" stop-opacity=".94"/><stop offset=".24" stop-color="#7cc4a4" stop-opacity=".8"/><stop offset=".39" stop-color="#5ab992" stop-opacity=".5"/><stop offset=".57" stop-color="#46b384" stop-opacity=".28"/><stop offset=".74" stop-color="#37b07a" stop-opacity=".13"/><stop offset=".89" stop-color="#2fad74" stop-opacity=".03"/><stop offset="1" stop-color="#2cad72" stop-opacity="0"/></linearGradient><linearGradient id="ac" x1="315.82" y1="763.38" x2="315.82" y2="602.83" gradientTransform="translate(-34.06)" gradientUnits="userSpaceOnUse"><stop offset="0" stop-color="#b8e1ee"/><stop offset=".07" stop-color="#abdcec" stop-opacity=".92"/><stop offset=".23" stop-color="#8cd2e7" stop-opacity=".73"/><stop offset=".39" stop-color="#69c6e3" stop-opacity=".5"/><stop offset=".46" stop-color="#5fc4e1" stop-opacity=".41"/><stop offset=".63" stop-color="#4dc0df" stop-opacity=".23"/><stop offset=".78" stop-color="#40bedd" stop-opacity=".1"/><stop offset=".91" stop-color="#38bcdc" stop-opacity=".03"/><stop offset="1" stop-color="#36bcdc" stop-opacity="0"/></linearGradient><linearGradient id="ad" x1="-13401.72" y1="740.08" x2="-13401.72" y2="581.76" xlink:href="#ab"/><linearGradient id="ae" x1="535.37" y1="714.02" x2="535.37" y2="553.47" xlink:href="#ac"/><linearGradient id="af" x1="782.31" y1="585.6" x2="782.31" y2="294.55" gradientTransform="matrix(1, 0, 0, 1, 0, 0)" xlink:href="#ab"/><linearGradient id="ag" x1="-13617.19" y1="537.68" x2="-13617.19" y2="242.54" gradientTransform="translate(-12978.21) rotate(-180) scale(1 -1)" xlink:href="#ac"/><linearGradient id="ah" x1="-13622.29" y1="693.19" x2="-13622.29" y2="534.87" xlink:href="#ab"/><linearGradient id="ai" x1="755.94" y1="667.13" x2="755.94" y2="506.58" xlink:href="#ac"/><linearGradient id="aj" x1="-13842.37" y1="644.3" x2="-13842.37" y2="485.98" xlink:href="#ab"/><linearGradient id="ak" x1="499.68" y1="499.4" x2="499.68" y2="208.35" gradientTransform="matrix(1, 0, 0, 1, 0, 0)" xlink:href="#ab"/><linearGradient id="al" x1="-13334.57" y1="451.48" x2="-13334.57" y2="156.34" gradientTransform="translate(-12978.21) rotate(-180) scale(1 -1)" xlink:href="#ac"/><linearGradient id="am" x1="217.69" y1="409.53" x2="217.69" y2="118.48" gradientTransform="matrix(1, 0, 0, 1, 0, 0)" xlink:href="#ab"/></defs><g id="a"/><g id="b"><g id="c"><g><rect class="by" x="1.01" width="1000" height="1000"/><path class="ar" d="M1001.01,386.06C812.24,222.92,540.79,120.61,239.11,120.61c-81.95,0-161.67,7.55-238.11,21.82V1000H1001.01V386.06Z"/><path class="aq" d="M1001.02,746.29c-188.04-224.19-490.23-369.59-830.98-369.59-57.57,0-114.04,4.15-169.04,12.13V1000H1001.01v-253.71Z"/></g><circle class="bx" cx="634.65" cy="311.99" r="3.87"/><circle class="bx" cx="719.71" cy="924.28" r="3.87"/><circle class="bx" cx="735.91" cy="736.87" r="3.87"/><circle class="bx" cx="488.35" cy="912.01" r="3.87"/><circle class="bx" cx="286.29" cy="651.95" r="3.87"/><circle class="bx" cx="271.02" cy="700.45" r="3.87"/><circle class="bx" cx="101.02" cy="584.28" r="3.87"/><circle class="bx" cx="93.28" cy="249.79" r="3.87"/><circle class="bx" cx="575.76" cy="592.02" r="3.87"/><circle class="bx" cx="309.01" cy="461.38" r="3.87"/><circle class="bx" cx="267.16" cy="187.71" r="3.87"/><circle class="bx" cx="179.62" cy="350.93" r="3.87"/><circle class="bx" cx="423.59" cy="80.84" r="3.87"/><circle class="bx" cx="565.56" cy="740.73" r="3.87"/><circle class="bx" cx="419.72" cy="293.61" r="3.87"/><circle class="bx" cx="656.38" cy="100.02" r="3.87"/><circle class="bx" cx="638.52" cy="61.42" r="3.87"/><circle class="bx" cx="802.02" cy="245.92" r="3.87"/><circle class="bx" cx="935.44" cy="333.05" r="3.87"/><circle class="bx" cx="765.81" cy="479.16" r="3.87"/><circle class="bx" cx="907.54" cy="648.08" r="3.87"/><g><path class="bx" d="M89.15,432.46l-3.96,1.11c-3.49,.98-6.22,3.71-7.21,7.21l-1.11,3.96-1.12-3.96c-.98-3.49-3.71-6.21-7.2-7.2l-3.96-1.12,3.96-1.11c3.49-.98,6.22-3.71,7.21-7.21l1.11-3.96,1.12,3.96c.98,3.49,3.71,6.21,7.2,7.2l3.96,1.12Z"/><circle class="at" cx="76.87" cy="432.46" r="14.16"/></g><g><path class="bx" d="M527.29,181l-3.96,1.11c-3.49,.98-6.22,3.71-7.21,7.21l-1.11,3.96-1.12-3.96c-.98-3.49-3.71-6.21-7.2-7.2l-3.96-1.12,3.96-1.11c3.49-.98,6.22-3.71,7.21-7.21l1.11-3.96,1.12,3.96c.98,3.49,3.71,6.21,7.2,7.2l3.96,1.12Z"/><circle class="as" cx="515.02" cy="181" r="14.16"/></g><g><path class="bx" d="M446.29,541l-3.96,1.11c-3.49,.98-6.22,3.71-7.21,7.21l-1.11,3.96-1.12-3.96c-.98-3.49-3.71-6.21-7.2-7.2l-3.96-1.12,3.96-1.11c3.49-.98,6.22-3.71,7.21-7.21l1.11-3.96,1.12,3.96c.98,3.49,3.71,6.21,7.2,7.2l3.96,1.12Z"/><circle class="ba" cx="434.02" cy="541" r="14.16"/></g><g><path class="bx" d="M320.29,927l-3.96,1.11c-3.49,.98-6.22,3.71-7.21,7.21l-1.11,3.96-1.12-3.96c-.98-3.49-3.71-6.21-7.2-7.2l-3.96-1.12,3.96-1.11c3.49-.98,6.22-3.71,7.21-7.21l1.11-3.96,1.12,3.96c.98,3.49,3.71,6.21,7.2,7.2l3.96,1.12Z"/><circle class="b`" cx="308.02" cy="927" r="14.16"/></g><g><path class="bx" d="M761.29,100l-3.96,1.11c-3.49,.98-6.22,3.71-7.21,7.21l-1.11,3.96-1.12-3.96c-.98-3.49-3.71-6.21-7.2-7.2l-3.96-1.12,3.96-1.11c3.49-.98,6.22-3.71,7.21-7.21l1.11-3.96,1.12,3.96c.98,3.49,3.71,6.21,7.2,7.2l3.96,1.12Z"/><circle class="bc" cx="749.02" cy="100" r="14.16"/></g><g><path class="bx" d="M649.46,525.31l-3.96,1.11c-3.49,.98-6.22,3.71-7.21,7.21l-1.11,3.96-1.12-3.96c-.98-3.49-3.71-6.21-7.2-7.2l-3.96-1.12,3.96-1.11c3.49-.98,6.22-3.71,7.21-7.21l1.11-3.96,1.12,3.96c.98,3.49,3.71,6.21,7.2,7.2l3.96,1.12Z"/><circle class="bb" cx="637.19" cy="525.31" r="14.16"/></g><g><path class="bx" d="M914.29,514l-3.96,1.11c-3.49,.98-6.22,3.71-7.21,7.21l-1.11,3.96-1.12-3.96c-.98-3.49-3.71-6.21-7.2-7.2l-3.96-1.12,3.96-1.11c3.49-.98,6.22-3.71,7.21-7.21l1.11-3.96,1.12,3.96c.98,3.49,3.71,6.21,7.2,7.2l3.96,1.12Z"/><circle class="be" cx="902.02" cy="514" r="14.16"/></g><g><path class="bx" d="M824.29,658l-3.96,1.11c-3.49,.98-6.22,3.71-7.21,7.21l-1.11,3.96-1.12-3.96c-.98-3.49-3.71-6.21-7.2-7.2l-3.96-1.12,3.96-1.11c3.49-.98,6.22-3.71,7.21-7.21l1.11-3.96,1.12,3.96c.98,3.49,3.71,6.21,7.2,7.2l3.96,1.12Z"/><circle class="bd" cx="812.02" cy="658" r="14.16"/></g><g><path class="bx" d="M166.61,781.88l-3.96,1.11c-3.49,.98-6.22,3.71-7.21,7.21l-1.11,3.96-1.12-3.96c-.98-3.49-3.71-6.21-7.2-7.2l-3.96-1.12,3.96-1.11c3.49-.98,6.22-3.71,7.21-7.21l1.11-3.96,1.12,3.96c.98,3.49,3.71,6.21,7.2,7.2l3.96,1.12Z"/><circle class="bf" cx="154.33" cy="781.88" r="14.16"/></g><g><path class="bx" d="M230.29,271l-3.96,1.11c-3.49,.98-6.22,3.71-7.21,7.21l-1.11,3.96-1.12-3.96c-.98-3.49-3.71-6.21-7.2-7.2l-3.96-1.12,3.96-1.11c3.49-.98,6.22-3.71,7.21-7.21l1.11-3.96,1.12,3.96c.98,3.49,3.71,6.21,7.2,7.2l3.96,1.12Z"/><circle class="av" cx="218.02" cy="271" r="14.16"/></g><g><path class="bx" d="M551.52,888.63l-2.66-.06c-2.35-.05-4.55,1.12-5.82,3.1l-1.44,2.24,.06-2.66c.05-2.34-1.12-4.55-3.09-5.82l-2.24-1.44,2.66,.06c2.35,.05,4.55-1.12,5.82-3.1l1.44-2.24-.06,2.66c-.05,2.34,1.12,4.55,3.09,5.82l2.24,1.44Z"/><circle class="au" cx="543.92" cy="886.31" r="10.28"/></g><g><path class="bx" d="M516.68,956.87l-2.66-.06c-2.35-.05-4.55,1.12-5.82,3.1l-1.44,2.24,.06-2.66c.05-2.34-1.12-4.55-3.09-5.82l-2.24-1.44,2.66,.06c2.35,.05,4.55-1.12,5.82-3.1l1.44-2.24-.06,2.66c-.05,2.34,1.12,4.55,3.09,5.82l2.24,1.44Z"/><circle class="ax" cx="509.08" cy="954.55" r="10.28"/></g><g><path class="bx" d="M430.7,855.99l-2.66-.06c-2.35-.05-4.55,1.12-5.82,3.1l-1.44,2.24,.06-2.66c.05-2.34-1.12-4.55-3.09-5.82l-2.24-1.44,2.66,.06c2.35,.05,4.55-1.12,5.82-3.1l1.44-2.24-.06,2.66c-.05,2.34,1.12,4.55,3.09,5.82l2.24,1.44Z"/><circle class="ay" cx="423.1" cy="853.66" r="10.28"/></g><g><path class="bx" d="M333.85,790.71l-2.66-.06c-2.35-.05-4.55,1.12-5.82,3.1l-1.44,2.24,.06-2.66c.05-2.34-1.12-4.55-3.09-5.82l-2.24-1.44,2.66,.06c2.35,.05,4.55-1.12,5.82-3.1l1.44-2.24-.06,2.66c-.05,2.34,1.12,4.55,3.09,5.82l2.24,1.44Z"/><circle class="aw" cx="326.25" cy="788.39" r="10.28"/></g><g><path class="bx" d="M264.78,815.03l-2.66-.06c-2.35-.05-4.55,1.12-5.82,3.1l-1.44,2.24,.06-2.66c.05-2.34-1.12-4.55-3.09-5.82l-2.24-1.44,2.66,.06c2.35,.05,4.55-1.12,5.82-3.1l1.44-2.24-.06,2.66c-.05,2.34,1.12,4.55,3.09,5.82l2.24,1.44Z"/><circle class="ao" cx="257.18" cy="812.71" r="10.28"/></g><g><path class="bx" d="M430.67,930.59l-3.71-.08c-3.28-.07-6.36,1.57-8.13,4.33l-2.01,3.13,.08-3.72c.07-3.27-1.57-6.35-4.32-8.12l-3.13-2.01,3.71,.08c3.28,.07,6.36-1.57,8.13-4.33l2.01-3.13-.08,3.72c-.07,3.27,1.57,6.35,4.32,8.12l3.13,2.01Z"/><circle class="an" cx="420.06" cy="927.35" r="13.04"/></g><g><path class="bx" d="M390.52,817.76l-3.71-.08c-3.28-.07-6.36,1.57-8.13,4.33l-2.01,3.13,.08-3.72c.07-3.27-1.57-6.35-4.32-8.12l-3.13-2.01,3.71,.08c3.28,.07,6.36-1.57,8.13-4.33l2.01-3.13-.08,3.72c-.07,3.27,1.57,6.35,4.32,8.12l3.13,2.01Z"/><circle class="ap" cx="379.91" cy="814.51" r="13.04"/></g><path class="bx" d="M257.18,812.71c.14-.05,68.97-24.65,69.09-24.7,.21,.11,53.77,25.97,53.98,26.12,10.81,9.74,32.49,29.31,43.26,39.08l.21,.19v.29l-2.99,73.69-.48-.68,89,27.25-.73,.31,17.45-34.1,17.51-34.07,.3,.69c-29.38-7.97-88.39-24.13-117.72-32.21,29.7,7.82,88.88,23.5,118.55,31.43-8.8,17.3-26.15,51.57-34.99,68.83l-.23,.46-.5-.15-89.04-27.14-.5-.15,.02-.52,3.11-73.69,.2,.48c-10.75-9.74-32.41-29.44-43.13-39.22,.52,.26-53.53-26.2-53.47-26.19,1.12-.31-69.06,24.12-68.92,24.01h0Z"/><circle class="bh" cx="893.94" cy="290.58" r="9.96"/><circle class="bg" cx="816.72" cy="294.71" r="9.96"/><circle class="bi" cx="731.98" cy="357.58" r="9.96"/><circle class="bs" cx="801.1" cy="345.62" r="12.63"/><circle class="bj" cx="874.77" cy="228.63" r="12.63"/><path class="bx" d="M898.18,284.16l-.78,2.45c-.69,2.17-.21,4.54,1.28,6.26l1.68,1.95-2.46-.78c-2.16-.69-4.53-.21-6.25,1.28l-1.95,1.69,.78-2.45c.69-2.17,.21-4.54-1.28-6.26l-1.68-1.95,2.46,.78c2.16,.69,4.53,.21,6.25-1.28l1.95-1.69Z"/><path class="bx" d="M820.96,288.29l-.78,2.45c-.69,2.17-.21,4.54,1.28,6.26l1.68,1.95-2.46-.78c-2.16-.69-4.53-.21-6.25,1.28l-1.95,1.69,.78-2.45c.69-2.17,.21-4.54-1.28-6.26l-1.68-1.95,2.46,.78c2.16,.69,4.53,.21,6.25-1.28l1.95-1.69Z"/><path class="bx" d="M736.22,351.16l-.78,2.45c-.69,2.17-.21,4.54,1.28,6.26l1.68,1.95-2.46-.78c-2.16-.69-4.53-.21-6.25,1.28l-1.95,1.69,.78-2.45c.69-2.17,.21-4.54-1.28-6.26l-1.68-1.95,2.46,.78c2.16,.69,4.53,.21,6.25-1.28l1.95-1.69Z"/><path class="bx" d="M807.02,336.65l-1.1,3.43c-.97,3.03-.29,6.34,1.79,8.74l2.35,2.72-3.43-1.09c-3.02-.96-6.33-.29-8.73,1.78l-2.73,2.35,1.1-3.43c.97-3.03,.29-6.34-1.79-8.74l-2.35-2.72,3.43,1.09c3.02,.96,6.33,.29,8.73-1.78l2.73-2.35Z"/><path class="bx" d="M880.7,219.67l-1.1,3.43c-.97,3.03-.29,6.34,1.79,8.74l2.35,2.72-3.43-1.09c-3.02-.96-6.33-.29-8.73,1.78l-2.73,2.35,1.1-3.43c.97-3.03,.29-6.34-1.79-8.74l-2.35-2.72,3.43,1.09c3.02,.96,6.33,.29,8.73-1.78l2.73-2.35Z"/><path class="bx" d="M731.98,357.58c9.53-1.79,24.83-4.55,34.5-6.31l34.53-6.17-.42,.37c4.34-14.4,11.22-36.82,15.64-51.37,17.85-1,40.45-2.11,58.38-3.06,4.79-.25,14.51-.74,19.31-.96l-.46,.65c-5.52-17.78-13.4-44.49-18.69-62.1,5.73,17.67,14.19,44.47,19.84,62.41-24.96,1.45-52.9,3-77.87,4.32l.59-.46c-4.42,14.4-11.32,36.64-15.73,50.87l-.1,.31-.32,.05c-19.79,3.25-49.62,8.36-69.21,11.44h0Z"/><path class="bl" d="M0,787.42H0c9.71-10.15,29.11-10.9,43.69-10.33,97.52,3.8,195.32,7.35,287.97-14.79h0c4.87-1.16,8.14-4.35,8.14-7.94v-122.57l-8.14,1.94c-91.12,21.77-187.21,18.28-283.12,14.97-16.19-.56-38.83-3.38-48.54,10.15H0v128.57Z"/><path class="bv" d="M334.73,761.32h0c13.13-10.39-22.7-11.59-27.89-11.44-37.74,1.14-59.07,3.43-84.1-4.92h0c-1.83-1.24-2.87-2.95-2.87-4.73v-136.74l2.87,1.94c32.12,21.77,56.85,19.66,90.66,16.35,5.71-.56,26.82-3.38,30.24,10.15v8.39l-1.86,113.74c-.3,3.13-2.99,5.9-7.05,7.25Z"/><path class="bo" d="M219.55,738.06h0c9.71-10.15,29.11-10.9,43.69-10.33,97.52,3.8,195.32,7.35,287.97-14.79h0c4.87-1.16,8.14-4.35,8.14-7.94v-122.57l-8.14,1.94c-91.12,21.77-187.21,18.28-283.12,14.97-16.19-.56-38.83-3.38-48.54,10.15h0v128.57Z"/><path class="bq" d="M554.28,711.96h0c13.13-10.39-22.7-11.59-27.89-11.44-37.74,1.14-59.07,3.43-84.1-4.92h0c-1.83-1.24-2.87-2.95-2.87-4.73v-136.74l2.87,1.94c32.12,21.77,56.85,19.66,90.66,16.35,5.71-.56,26.82-3.38,30.24,10.15v8.39l-1.86,113.74c-.3,3.13-2.99,5.9-7.05,7.25Z"/><path class="br" d="M1000,581.88h0c-12.44-18.66-37.3-20.03-55.98-18.99-124.95,6.99-250.26,13.51-368.98-27.2h0c-6.24-2.14-10.43-8-10.43-14.6v-225.33l10.43,3.57c116.75,40.03,239.87,33.61,362.76,27.52,20.75-1.03,49.76-6.22,62.2,18.66h0v236.35Z"/><path class="bk" d="M571.11,533.91h0c-16.82-19.1,29.08-21.31,35.74-21.02,48.36,2.1,75.69,6.31,107.75-9.04h0c2.35-2.29,3.68-5.42,3.68-8.7V243.77l-3.68,3.57c-41.15,40.03-72.84,36.15-116.16,30.06-7.31-1.03-34.36-6.22-38.74,18.66v15.42l2.38,209.09c.38,5.75,3.83,10.84,9.03,13.32Z"/><path class="bm" d="M440.12,691.17h0c9.71-10.15,29.11-10.9,43.69-10.33,97.52,3.8,195.32,7.35,287.97-14.79h0c4.87-1.16,8.14-4.35,8.14-7.94v-122.57l-8.14,1.94c-91.12,21.77-187.21,18.28-283.12,14.97-16.19-.56-38.83-3.38-48.54,10.15h0v128.57Z"/><path class="bn" d="M774.85,665.07h0c13.13-10.39-22.7-11.59-27.89-11.44-37.74,1.14-59.07,3.43-84.1-4.92h0c-1.83-1.24-2.87-2.95-2.87-4.73v-136.74l2.87,1.94c32.12,21.77,56.85,19.66,90.66,16.35,5.71-.56,26.82-3.38,30.24,10.15v8.39l-1.86,113.74c-.3,3.13-2.99,5.9-7.05,7.25Z"/><path class="bp" d="M660.2,642.28h0c9.71-10.15,29.11-10.9,43.69-10.33,97.52,3.8,195.32,7.35,287.97-14.79l8.14-1.94v-128.57l-8.14,1.94c-91.12,21.77-187.21,18.28-283.12,14.97-16.19-.56-38.83-3.38-48.54,10.15h0v128.57Z"/><path class="bw" d="M717.38,495.68h0c-12.44-18.66-37.3-20.03-55.98-18.99-124.95,6.99-250.26,13.51-368.98-27.2h0c-6.24-2.14-10.43-8-10.43-14.6V209.57l10.43,3.57c116.75,40.03,239.87,33.61,362.76,27.52,20.75-1.03,49.76-6.22,62.2,18.66h0v236.35Z"/><path class="bt" d="M288.48,447.71h0c-16.82-19.1,29.08-21.31,35.74-21.02,48.36,2.1,75.69,6.31,107.75-9.04h0c2.35-2.29,3.68-5.42,3.68-8.7V157.58l-3.68,3.57c-41.15,40.03-72.84,36.15-116.16,30.06-7.31-1.03-34.36-6.22-38.74,18.66v15.42l2.38,209.09c.38,5.75,3.83,10.84,9.03,13.32Z"/><path class="bu" d="M435.39,405.8h0c-12.44-18.66-37.3-20.03-55.98-18.99-124.95,6.99-250.26,13.51-368.98-27.2l-10.43-3.57V119.69l10.43,3.57c116.75,40.03,239.87,33.61,362.76,27.52,20.75-1.03,49.76-6.22,62.2,18.66h0v236.35Z"/></g></g></svg>