<?xml version="1.0" encoding="UTF-8"?><svg id="Ebene_2" xmlns="http://www.w3.org/2000/svg" xmlns:xlink="http://www.w3.org/1999/xlink" viewBox="0 0 120.34 172.85"><defs><style>.cls-1{fill:url(#Unbenannter_Verlauf_14-2);}.cls-2{fill:#fff;}.cls-3{fill:url(#Unbenannter_Verlauf_14);}</style><radialGradient id="Unbenannter_Verlauf_14" cx="101.9" cy="154.41" fx="101.9" fy="154.41" r="18.44" gradientUnits="userSpaceOnUse"><stop offset="0" stop-color="#fcea10"/><stop offset="0" stop-color="#fff" stop-opacity=".94"/><stop offset="1" stop-color="#fff" stop-opacity="0"/></radialGradient><radialGradient id="Unbenannter_Verlauf_14-2" cx="37.83" cy="72.52" fx="37.83" fy="72.52" r="37.83" xlink:href="#Unbenannter_Verlauf_14"/></defs><g id="bg_stars"><g><g><path class="cls-2" d="M117.89,154.41l-5.15,1.45c-4.55,1.28-8.11,4.84-9.39,9.39l-1.45,5.15-1.46-5.16c-1.28-4.54-4.83-8.09-9.37-9.37l-5.16-1.46,5.15-1.45c4.55-1.28,8.11-4.84,9.39-9.39l1.45-5.15,1.46,5.16c1.28,4.54,4.83,8.09,9.37,9.37l5.16,1.46Z"/><circle class="cls-3" cx="101.9" cy="154.41" r="18.44"/></g><g><path class="cls-2" d="M70.01,72.52l-10.37,2.92c-9.16,2.58-16.32,9.73-18.89,18.89l-2.92,10.37-2.93-10.38c-2.58-9.14-9.72-16.29-18.87-18.87l-10.38-2.93,10.37-2.92c9.16-2.58,16.32-9.73,18.89-18.89l2.92-10.37,2.93,10.38c2.58,9.14,9.72,16.29,18.87,18.87l10.38,2.93Z"/><circle class="cls-1" cx="37.83" cy="72.52" r="37.83"/></g><circle class="cls-2" cx="83.46" cy="3.87" r="3.87"/><circle class="cls-2" cx="37.83" cy="142.29" r="3.87"/></g></g></svg>