<?xml version="1.0" encoding="UTF-8"?><svg id="Ebene_2" xmlns="http://www.w3.org/2000/svg" xmlns:xlink="http://www.w3.org/1999/xlink" viewBox="0 0 223.07 218.42"><defs><style>.cls-1{fill:url(#Unbenannter_Verlauf_14-2);}.cls-2{fill:url(#Unbenannter_Verlauf_14-3);}.cls-3{fill:#fff;}.cls-4{fill:url(#Unbenannter_Verlauf_14);}</style><radialGradient id="Unbenannter_Verlauf_14" cx="107.08" cy="188.59" fx="107.08" fy="188.59" r="29.83" gradientUnits="userSpaceOnUse"><stop offset="0" stop-color="#fcea10"/><stop offset="0" stop-color="#fff" stop-opacity=".94"/><stop offset="1" stop-color="#fff" stop-opacity="0"/></radialGradient><radialGradient id="Unbenannter_Verlauf_14-2" cx="193.25" cy="29.83" fx="193.25" fy="29.83" xlink:href="#Unbenannter_Verlauf_14"/><radialGradient id="Unbenannter_Verlauf_14-3" cx="49.21" cy="95.53" fx="49.21" fy="95.53" r="37.83" xlink:href="#Unbenannter_Verlauf_14"/></defs><g id="bg_stars"><g><g><path class="cls-3" d="M130.12,188.59l-7.43,2.09c-6.56,1.84-11.68,6.97-13.53,13.53l-2.09,7.43-2.1-7.44c-1.85-6.55-6.96-11.67-13.51-13.51l-7.44-2.1,7.43-2.09c6.56-1.84,11.68-6.97,13.53-13.53l2.09-7.43,2.1,7.44c1.85,6.55,6.96,11.67,13.51,13.51l7.44,2.1Z"/><circle class="cls-4" cx="107.08" cy="188.59" r="29.83"/></g><g><path class="cls-3" d="M216.3,29.83l-7.43,2.09c-6.56,1.84-11.68,6.97-13.53,13.53l-2.09,7.43-2.1-7.44c-1.85-6.55-6.96-11.67-13.51-13.51l-7.44-2.1,7.43-2.09c6.56-1.84,11.68-6.97,13.53-13.53l2.09-7.43,2.1,7.44c1.85,6.55,6.96,11.67,13.51,13.51l7.44,2.1Z"/><circle class="cls-1" cx="193.25" cy="29.83" r="29.83"/></g><g><path class="cls-3" d="M81.4,95.53l-10.37,2.92c-9.16,2.58-16.32,9.73-18.89,18.89l-2.92,10.37-2.93-10.38c-2.58-9.14-9.72-16.29-18.87-18.87l-10.38-2.93,10.37-2.92c9.16-2.58,16.32-9.73,18.89-18.89l2.92-10.37,2.93,10.38c2.58,9.14,9.72,16.29,18.87,18.87l10.38,2.93Z"/><circle class="cls-2" cx="49.21" cy="95.53" r="37.83"/></g><circle class="cls-3" cx="3.87" cy="144.96" r="3.87"/><circle class="cls-3" cx="130.12" cy="115.47" r="3.87"/></g></g></svg>