<svg viewBox="0 0 171.94 312.26" xmlns="http://www.w3.org/2000/svg" xmlns:xlink="http://www.w3.org/1999/xlink"><radialGradient id="a" cx="142.12" cy="211.82" fx="142.12" fy="211.82" gradientUnits="userSpaceOnUse" r="29.83"><stop offset="0" stop-color="#fcea10"/><stop offset="0" stop-color="#fff" stop-opacity=".94"/><stop offset="1" stop-color="#fff" stop-opacity="0"/></radialGradient><radialGradient id="b" cx="56.74" cy="293.82" fx="56.74" fy="293.82" r="18.44" xlink:href="#a"/><radialGradient id="c" cx="18.44" cy="18.44" fx="18.44" fy="18.44" r="18.44" xlink:href="#a"/><radialGradient id="d" cx="86.84" cy="114.69" fx="86.84" fy="114.69" r="37.83" xlink:href="#a"/><path d="m165.17 211.82-7.43 2.09c-6.56 1.84-11.68 6.97-13.53 13.53l-2.09 7.43-2.1-7.44c-1.85-6.55-6.96-11.67-13.51-13.51l-7.44-2.1 7.43-2.09c6.56-1.84 11.68-6.97 13.53-13.53l2.09-7.43 2.1 7.44c1.85 6.55 6.96 11.67 13.51 13.51z" fill="#fff"/><circle cx="142.12" cy="211.82" fill="url(#a)" r="29.83"/><path d="m72.73 293.82-5.15 1.45c-4.55 1.28-8.11 4.84-9.39 9.39l-1.45 5.15-1.46-5.16c-1.28-4.54-4.83-8.09-9.37-9.37l-5.16-1.46 5.15-1.45c4.55-1.28 8.11-4.84 9.39-9.39l1.45-5.15 1.46 5.16c1.28 4.54 4.83 8.09 9.37 9.37z" fill="#fff"/><circle cx="56.74" cy="293.82" fill="url(#b)" r="18.44"/><path d="m34.43 18.44-5.15 1.45c-4.55 1.28-8.11 4.84-9.39 9.39l-1.45 5.15-1.46-5.16c-1.28-4.54-4.83-8.09-9.37-9.37l-5.16-1.46 5.15-1.45c4.55-1.28 8.11-4.84 9.39-9.39l1.45-5.15 1.46 5.16c1.28 4.54 4.83 8.09 9.37 9.37z" fill="#fff"/><circle cx="18.44" cy="18.44" fill="url(#c)" r="18.44"/><path d="m119.02 114.69-10.37 2.92c-9.16 2.58-16.32 9.73-18.89 18.89l-2.92 10.37-2.93-10.38c-2.58-9.14-9.72-16.29-18.87-18.87l-10.38-2.93 10.37-2.92c9.16-2.58 16.32-9.73 18.89-18.89l2.92-10.37 2.93 10.38c2.58 9.14 9.72 16.29 18.87 18.87z" fill="#fff"/><circle cx="86.84" cy="114.69" fill="url(#d)" r="37.83"/><circle cx="68.86" cy="188.78" fill="#fff" r="3.87"/></svg>