<?xml version="1.0" encoding="UTF-8"?><svg id="Ebene_2" xmlns="http://www.w3.org/2000/svg" xmlns:xlink="http://www.w3.org/1999/xlink" viewBox="0 0 214.28 163"><defs><style>.cls-1{fill:url(#Unbenannter_Verlauf_14-2);}.cls-2{fill:url(#Unbenannter_Verlauf_14-3);}.cls-3{fill:#fff;}.cls-4{fill:url(#Unbenannter_Verlauf_14);}</style><radialGradient id="Unbenannter_Verlauf_14" cx="184.46" cy="97.14" fx="184.46" fy="97.14" r="29.83" gradientUnits="userSpaceOnUse"><stop offset="0" stop-color="#fcea10"/><stop offset="0" stop-color="#fff" stop-opacity=".94"/><stop offset="1" stop-color="#fff" stop-opacity="0"/></radialGradient><radialGradient id="Unbenannter_Verlauf_14-2" cx="106.34" cy="18.44" fx="106.34" fy="18.44" r="18.44" xlink:href="#Unbenannter_Verlauf_14"/><radialGradient id="Unbenannter_Verlauf_14-3" cx="18.44" cy="144.56" fx="18.44" fy="144.56" r="18.44" xlink:href="#Unbenannter_Verlauf_14"/></defs><g id="bg_stars"><g><g><path class="cls-3" d="M207.5,97.14l-7.43,2.09c-6.56,1.84-11.68,6.97-13.53,13.53l-2.09,7.43-2.1-7.44c-1.85-6.55-6.96-11.67-13.51-13.51l-7.44-2.1,7.43-2.09c6.56-1.84,11.68-6.97,13.53-13.53l2.09-7.43,2.1,7.44c1.85,6.55,6.96,11.67,13.51,13.51l7.44,2.1Z"/><circle class="cls-4" cx="184.46" cy="97.14" r="29.83"/></g><g><path class="cls-3" d="M122.32,18.44l-5.15,1.45c-4.55,1.28-8.11,4.84-9.39,9.39l-1.45,5.15-1.46-5.16c-1.28-4.54-4.83-8.09-9.37-9.37l-5.16-1.46,5.15-1.45c4.55-1.28,8.11-4.84,9.39-9.39l1.45-5.15,1.46,5.16c1.28,4.54,4.83,8.09,9.37,9.37l5.16,1.46Z"/><circle class="cls-1" cx="106.34" cy="18.44" r="18.44"/></g><g><path class="cls-3" d="M34.43,144.56l-5.15,1.45c-4.55,1.28-8.11,4.84-9.39,9.39l-1.45,5.15-1.46-5.16c-1.28-4.54-4.83-8.09-9.37-9.37l-5.16-1.46,5.15-1.45c4.55-1.28,8.11-4.84,9.39-9.39l1.45-5.15,1.46,5.16c1.28,4.54,4.83,8.09,9.37,9.37l5.16,1.46Z"/><circle class="cls-2" cx="18.44" cy="144.56" r="18.44"/></g><circle class="cls-3" cx="77.94" cy="116.75" r="3.87"/></g></g></svg>