<?xml version="1.0" encoding="UTF-8"?><svg id="Ebene_2" xmlns="http://www.w3.org/2000/svg" xmlns:xlink="http://www.w3.org/1999/xlink" viewBox="0 0 403.75 233.19"><defs><style>.cls-1{fill:url(#Unbenannter_Verlauf_14-4);}.cls-2{fill:url(#Unbenannter_Verlauf_14-2);}.cls-3{fill:url(#Unbenannter_Verlauf_14-3);}.cls-4{fill:url(#Unbenannter_Verlauf_14-5);}.cls-5{fill:#fff;}.cls-6{fill:url(#Unbenannter_Verlauf_14);}</style><radialGradient id="Unbenannter_Verlauf_14" cx="131.75" cy="203.37" fx="131.75" fy="203.37" r="29.83" gradientUnits="userSpaceOnUse"><stop offset="0" stop-color="#fcea10"/><stop offset="0" stop-color="#fff" stop-opacity=".94"/><stop offset="1" stop-color="#fff" stop-opacity="0"/></radialGradient><radialGradient id="Unbenannter_Verlauf_14-2" cx="271.9" cy="29.83" fx="271.9" fy="29.83" xlink:href="#Unbenannter_Verlauf_14"/><radialGradient id="Unbenannter_Verlauf_14-3" cx="231.6" cy="128.94" fx="231.6" fy="128.94" r="18.44" xlink:href="#Unbenannter_Verlauf_14"/><radialGradient id="Unbenannter_Verlauf_14-4" cx="18.44" cy="207.04" fx="18.44" fy="207.04" r="18.44" xlink:href="#Unbenannter_Verlauf_14"/><radialGradient id="Unbenannter_Verlauf_14-5" cx="365.92" cy="141.36" fx="365.92" fy="141.36" r="37.83" xlink:href="#Unbenannter_Verlauf_14"/></defs><g id="bg_stars"><g><g><path class="cls-5" d="M154.79,203.37l-7.43,2.09c-6.56,1.84-11.68,6.97-13.53,13.53l-2.09,7.43-2.1-7.44c-1.85-6.55-6.96-11.67-13.51-13.51l-7.44-2.1,7.43-2.09c6.56-1.84,11.68-6.97,13.53-13.53l2.09-7.43,2.1,7.44c1.85,6.55,6.96,11.67,13.51,13.51l7.44,2.1Z"/><circle class="cls-6" cx="131.75" cy="203.37" r="29.83"/></g><g><path class="cls-5" d="M294.95,29.83l-7.43,2.09c-6.56,1.84-11.68,6.97-13.53,13.53l-2.09,7.43-2.1-7.44c-1.85-6.55-6.96-11.67-13.51-13.51l-7.44-2.1,7.43-2.09c6.56-1.84,11.68-6.97,13.53-13.53l2.09-7.43,2.1,7.44c1.85,6.55,6.96,11.67,13.51,13.51l7.44,2.1Z"/><circle class="cls-2" cx="271.9" cy="29.83" r="29.83"/></g><g><path class="cls-5" d="M247.58,128.94l-5.15,1.45c-4.55,1.28-8.11,4.84-9.39,9.39l-1.45,5.15-1.46-5.16c-1.28-4.54-4.83-8.09-9.37-9.37l-5.16-1.46,5.15-1.45c4.55-1.28,8.11-4.84,9.39-9.39l1.45-5.15,1.46,5.16c1.28,4.54,4.83,8.09,9.37,9.37l5.16,1.46Z"/><circle class="cls-3" cx="231.6" cy="128.94" r="18.44"/></g><g><path class="cls-5" d="M34.43,207.04l-5.15,1.45c-4.55,1.28-8.11,4.84-9.39,9.39l-1.45,5.15-1.46-5.16c-1.28-4.54-4.83-8.09-9.37-9.37l-5.16-1.46,5.15-1.45c4.55-1.28,8.11-4.84,9.39-9.39l1.45-5.15,1.46,5.16c1.28,4.54,4.83,8.09,9.37,9.37l5.16,1.46Z"/><circle class="cls-1" cx="18.44" cy="207.04" r="18.44"/></g><g><path class="cls-5" d="M398.1,141.36l-10.37,2.92c-9.16,2.58-16.32,9.73-18.89,18.89l-2.92,10.37-2.93-10.38c-2.58-9.14-9.72-16.29-18.87-18.87l-10.38-2.93,10.37-2.92c9.16-2.58,16.32-9.73,18.89-18.89l2.92-10.37,2.93,10.38c2.58,9.14,9.72,16.29,18.87,18.87l10.38,2.93Z"/><circle class="cls-4" cx="365.92" cy="141.36" r="37.83"/></g><circle class="cls-5" cx="150.92" cy="109.75" r="3.87"/><circle class="cls-5" cx="178.38" cy="223.02" r="3.87"/><circle class="cls-5" cx="282.71" cy="97.88" r="3.87"/></g></g></svg>